  0
SECTION
  2
HEADER
  9
$ANGBASE
  50
0.0
  9
$ANGDIR
  70
1
  9
$MEASUREMENT
  70
1
  0
ENDSEC
  0
SECTION
  2
TABLES
  0
TABLE
  2
LTYPE
  70
4
  0
LTYPE
  5
40F
  2
CONTINUOUS
  70
0
  3
Solid line
  72
65
  73
0
  40
0.0
  0
LTYPE
  5
410
  2
DASHDOT
 70
0
  3
Dash Dot ____ _ ____ _
 72
65
 73
4
 40
2.0
 49
1.25
 49
-0.25
 49
0.25
 49
-0.25
  0
LTYPE
  5
411
  2
DASHED
 70
0
  3
Dashed __ __ __ __ __
 72
65
 73
2
 40
0.75
 49
0.5
 49
-0.25
  0
LTYPE
  5
43B
  2
DOTTED
 70
0
  3
Dotted .  .  .  .
 72
65
 73
2
 40
0.2
 49
0.0
 49
-0.2
  0
ENDTAB
  0
TABLE
  2
STYLE
  70
4
  0
STYLE
  2
KICAD
  70
0
  40
0
  41
1
  42
1
  50
0
  71
0
  3
isocp.shx
  0
STYLE
  2
KICADB
  70
0
  40
0
  41
1
  42
1
  50
0
  71
0
  3
isocp.shx
  0
STYLE
  2
KICADI
  70
0
  40
0
  41
1
  42
1
  50
15
  71
0
  3
isocp.shx
  0
STYLE
  2
KICADBI
  70
0
  40
0
  41
1
  42
1
  50
15
  71
0
  3
isocp.shx
  0
ENDTAB
  0
TABLE
  2
LAYER
  70
1
  0
LAYER
  2
BLACK
  70
0
  62
7
  6
CONTINUOUS
  0
ENDTAB
  0
ENDSEC
  0
SECTION
  2
ENTITIES
0
LINE
8
BLACK
6
CONTINUOUS
10
64.4323
20
-195.136
11
64.4295
21
-195.135
0
LINE
8
BLACK
6
CONTINUOUS
10
64.4295
20
-195.135
11
64.4288
21
-195.135
0
LINE
8
BLACK
6
CONTINUOUS
10
64.4288
20
-195.135
11
64.428
21
-195.135
0
LINE
8
BLACK
6
CONTINUOUS
10
64.428
20
-195.135
11
63.5705
21
-194.901
0
LINE
8
BLACK
6
CONTINUOUS
10
63.5705
20
-194.901
11
63.5678
21
-194.9
0
LINE
8
BLACK
6
CONTINUOUS
10
63.5678
20
-194.9
11
63.5671
21
-194.899
0
LINE
8
BLACK
6
CONTINUOUS
10
63.5671
20
-194.899
11
63.5664
21
-194.899
0
LINE
8
BLACK
6
CONTINUOUS
10
63.5664
20
-194.899
11
62.764
21
-194.516
0
LINE
8
BLACK
6
CONTINUOUS
10
62.764
20
-194.516
11
62.7615
21
-194.515
0
LINE
8
BLACK
6
CONTINUOUS
10
62.7615
20
-194.515
11
62.7609
21
-194.514
0
LINE
8
BLACK
6
CONTINUOUS
10
62.7609
20
-194.514
11
62.7602
21
-194.514
0
LINE
8
BLACK
6
CONTINUOUS
10
62.7602
20
-194.514
11
62.0383
21
-193.995
0
LINE
8
BLACK
6
CONTINUOUS
10
62.0383
20
-193.995
11
62.0361
21
-193.993
0
LINE
8
BLACK
6
CONTINUOUS
10
62.0361
20
-193.993
11
62.0355
21
-193.993
0
LINE
8
BLACK
6
CONTINUOUS
10
62.0355
20
-193.993
11
62.0349
21
-193.992
0
LINE
8
BLACK
6
CONTINUOUS
10
62.0349
20
-193.992
11
61.4163
21
-193.354
0
LINE
8
BLACK
6
CONTINUOUS
10
61.4163
20
-193.354
11
61.4144
21
-193.352
0
LINE
8
BLACK
6
CONTINUOUS
10
61.4144
20
-193.352
11
61.414
21
-193.351
0
LINE
8
BLACK
6
CONTINUOUS
10
61.414
20
-193.351
11
61.4135
21
-193.351
0
LINE
8
BLACK
6
CONTINUOUS
10
61.4135
20
-193.351
11
60.9177
21
-192.613
0
LINE
8
BLACK
6
CONTINUOUS
10
60.9177
20
-192.613
11
60.9163
21
-192.61
0
LINE
8
BLACK
6
CONTINUOUS
10
60.9163
20
-192.61
11
60.916
21
-192.61
0
LINE
8
BLACK
6
CONTINUOUS
10
60.916
20
-192.61
11
60.9156
21
-192.609
0
LINE
8
BLACK
6
CONTINUOUS
10
60.9156
20
-192.609
11
60.5583
21
-191.795
0
LINE
8
BLACK
6
CONTINUOUS
10
60.5583
20
-191.795
11
60.5573
21
-191.792
0
LINE
8
BLACK
6
CONTINUOUS
10
60.5573
20
-191.792
11
60.5571
21
-191.791
0
LINE
8
BLACK
6
CONTINUOUS
10
60.5571
20
-191.791
11
60.5568
21
-191.791
0
LINE
8
BLACK
6
CONTINUOUS
10
60.5568
20
-191.791
11
60.3493
21
-190.926
0
LINE
8
BLACK
6
CONTINUOUS
10
60.3493
20
-190.926
11
60.3488
21
-190.923
0
LINE
8
BLACK
6
CONTINUOUS
10
60.3488
20
-190.923
11
60.3488
21
-190.923
0
LINE
8
BLACK
6
CONTINUOUS
10
60.3488
20
-190.923
11
60.3487
21
-190.922
0
LINE
8
BLACK
6
CONTINUOUS
10
60.3487
20
-190.922
11
60.2951
21
-190.192
0
LINE
8
BLACK
6
CONTINUOUS
10
60.2951
20
-190.192
11
60.295
21
-190.191
0
LINE
8
BLACK
6
CONTINUOUS
10
60.295
20
-190.191
11
60.295
21
-100.189
0
LINE
8
BLACK
6
CONTINUOUS
10
60.295
20
-100.189
11
60.2951
21
-100.188
0
LINE
8
BLACK
6
CONTINUOUS
10
60.2951
20
-100.188
11
60.2951
21
-100.188
0
LINE
8
BLACK
6
CONTINUOUS
10
60.2951
20
-100.188
11
60.3741
21
-99.3024
0
LINE
8
BLACK
6
CONTINUOUS
10
60.3741
20
-99.3024
11
60.3745
21
-99.2995
0
LINE
8
BLACK
6
CONTINUOUS
10
60.3745
20
-99.2995
11
60.3748
21
-99.2988
0
LINE
8
BLACK
6
CONTINUOUS
10
60.3748
20
-99.2988
11
60.3749
21
-99.298
0
LINE
8
BLACK
6
CONTINUOUS
10
60.3749
20
-99.298
11
60.6095
21
-98.4405
0
LINE
8
BLACK
6
CONTINUOUS
10
60.6095
20
-98.4405
11
60.6104
21
-98.4378
0
LINE
8
BLACK
6
CONTINUOUS
10
60.6104
20
-98.4378
11
60.6107
21
-98.4371
0
LINE
8
BLACK
6
CONTINUOUS
10
60.6107
20
-98.4371
11
60.611
21
-98.4364
0
LINE
8
BLACK
6
CONTINUOUS
10
60.611
20
-98.4364
11
60.9937
21
-97.634
0
LINE
8
BLACK
6
CONTINUOUS
10
60.9937
20
-97.634
11
60.9951
21
-97.6315
0
LINE
8
BLACK
6
CONTINUOUS
10
60.9951
20
-97.6315
11
60.9956
21
-97.6309
0
LINE
8
BLACK
6
CONTINUOUS
10
60.9956
20
-97.6309
11
60.996
21
-97.6302
0
LINE
8
BLACK
6
CONTINUOUS
10
60.996
20
-97.6302
11
61.5147
21
-96.9083
0
LINE
8
BLACK
6
CONTINUOUS
10
61.5147
20
-96.9083
11
61.5147
21
-96.9083
0
LINE
8
BLACK
6
CONTINUOUS
10
61.5147
20
-96.9083
11
61.5147
21
-96.9083
0
LINE
8
BLACK
6
CONTINUOUS
10
61.5147
20
-96.9083
11
61.5165
21
-96.9061
0
LINE
8
BLACK
6
CONTINUOUS
10
61.5165
20
-96.9061
11
61.5171
21
-96.9055
0
LINE
8
BLACK
6
CONTINUOUS
10
61.5171
20
-96.9055
11
61.5176
21
-96.9049
0
LINE
8
BLACK
6
CONTINUOUS
10
61.5176
20
-96.9049
11
62.156
21
-96.2863
0
LINE
8
BLACK
6
CONTINUOUS
10
62.156
20
-96.2863
11
62.1582
21
-96.2844
0
LINE
8
BLACK
6
CONTINUOUS
10
62.1582
20
-96.2844
11
62.1588
21
-96.284
0
LINE
8
BLACK
6
CONTINUOUS
10
62.1588
20
-96.284
11
62.1595
21
-96.2835
0
LINE
8
BLACK
6
CONTINUOUS
10
62.1595
20
-96.2835
11
62.8973
21
-95.7877
0
LINE
8
BLACK
6
CONTINUOUS
10
62.8973
20
-95.7877
11
62.8998
21
-95.7863
0
LINE
8
BLACK
6
CONTINUOUS
10
62.8998
20
-95.7863
11
62.9005
21
-95.786
0
LINE
8
BLACK
6
CONTINUOUS
10
62.9005
20
-95.786
11
62.9012
21
-95.7856
0
LINE
8
BLACK
6
CONTINUOUS
10
62.9012
20
-95.7856
11
63.7151
21
-95.4283
0
LINE
8
BLACK
6
CONTINUOUS
10
63.7151
20
-95.4283
11
63.7152
21
-95.4283
0
LINE
8
BLACK
6
CONTINUOUS
10
63.7152
20
-95.4283
11
63.7152
21
-95.4283
0
LINE
8
BLACK
6
CONTINUOUS
10
63.7152
20
-95.4283
11
63.7179
21
-95.4273
0
LINE
8
BLACK
6
CONTINUOUS
10
63.7179
20
-95.4273
11
63.7186
21
-95.4271
0
LINE
8
BLACK
6
CONTINUOUS
10
63.7186
20
-95.4271
11
63.7194
21
-95.4268
0
LINE
8
BLACK
6
CONTINUOUS
10
63.7194
20
-95.4268
11
64.5837
21
-95.2193
0
LINE
8
BLACK
6
CONTINUOUS
10
64.5837
20
-95.2193
11
64.5866
21
-95.2188
0
LINE
8
BLACK
6
CONTINUOUS
10
64.5866
20
-95.2188
11
64.5872
21
-95.2188
0
LINE
8
BLACK
6
CONTINUOUS
10
64.5872
20
-95.2188
11
64.5878
21
-95.2187
0
LINE
8
BLACK
6
CONTINUOUS
10
64.5878
20
-95.2187
11
65.3179
21
-95.1651
0
LINE
8
BLACK
6
CONTINUOUS
10
65.3179
20
-95.1651
11
65.3188
21
-95.165
0
LINE
8
BLACK
6
CONTINUOUS
10
65.3188
20
-95.165
11
155.311
21
-95.165
0
LINE
8
BLACK
6
CONTINUOUS
10
155.311
20
-95.165
11
155.312
21
-95.1651
0
LINE
8
BLACK
6
CONTINUOUS
10
155.312
20
-95.1651
11
156.198
21
-95.2441
0
LINE
8
BLACK
6
CONTINUOUS
10
156.198
20
-95.2441
11
156.198
21
-95.2441
0
LINE
8
BLACK
6
CONTINUOUS
10
156.198
20
-95.2441
11
156.198
21
-95.2441
0
LINE
8
BLACK
6
CONTINUOUS
10
156.198
20
-95.2441
11
156.2
21
-95.2445
0
LINE
8
BLACK
6
CONTINUOUS
10
156.2
20
-95.2445
11
156.201
21
-95.2448
0
LINE
8
BLACK
6
CONTINUOUS
10
156.201
20
-95.2448
11
156.202
21
-95.2449
0
LINE
8
BLACK
6
CONTINUOUS
10
156.202
20
-95.2449
11
157.059
21
-95.4795
0
LINE
8
BLACK
6
CONTINUOUS
10
157.059
20
-95.4795
11
157.059
21
-95.4795
0
LINE
8
BLACK
6
CONTINUOUS
10
157.059
20
-95.4795
11
157.059
21
-95.4795
0
LINE
8
BLACK
6
CONTINUOUS
10
157.059
20
-95.4795
11
157.062
21
-95.4804
0
LINE
8
BLACK
6
CONTINUOUS
10
157.062
20
-95.4804
11
157.063
21
-95.4807
0
LINE
8
BLACK
6
CONTINUOUS
10
157.063
20
-95.4807
11
157.064
21
-95.481
0
LINE
8
BLACK
6
CONTINUOUS
10
157.064
20
-95.481
11
157.866
21
-95.8637
0
LINE
8
BLACK
6
CONTINUOUS
10
157.866
20
-95.8637
11
157.868
21
-95.8651
0
LINE
8
BLACK
6
CONTINUOUS
10
157.868
20
-95.8651
11
157.869
21
-95.8656
0
LINE
8
BLACK
6
CONTINUOUS
10
157.869
20
-95.8656
11
157.87
21
-95.866
0
LINE
8
BLACK
6
CONTINUOUS
10
157.87
20
-95.866
11
158.592
21
-96.3847
0
LINE
8
BLACK
6
CONTINUOUS
10
158.592
20
-96.3847
11
158.592
21
-96.3847
0
LINE
8
BLACK
6
CONTINUOUS
10
158.592
20
-96.3847
11
158.592
21
-96.3847
0
LINE
8
BLACK
6
CONTINUOUS
10
158.592
20
-96.3847
11
158.594
21
-96.3865
0
LINE
8
BLACK
6
CONTINUOUS
10
158.594
20
-96.3865
11
158.594
21
-96.3871
0
LINE
8
BLACK
6
CONTINUOUS
10
158.594
20
-96.3871
11
158.595
21
-96.3876
0
LINE
8
BLACK
6
CONTINUOUS
10
158.595
20
-96.3876
11
159.214
21
-97.026
0
LINE
8
BLACK
6
CONTINUOUS
10
159.214
20
-97.026
11
159.216
21
-97.0282
0
LINE
8
BLACK
6
CONTINUOUS
10
159.216
20
-97.0282
11
159.216
21
-97.0288
0
LINE
8
BLACK
6
CONTINUOUS
10
159.216
20
-97.0288
11
159.216
21
-97.0295
0
LINE
8
BLACK
6
CONTINUOUS
10
159.216
20
-97.0295
11
159.712
21
-97.7673
0
LINE
8
BLACK
6
CONTINUOUS
10
159.712
20
-97.7673
11
159.714
21
-97.7698
0
LINE
8
BLACK
6
CONTINUOUS
10
159.714
20
-97.7698
11
159.714
21
-97.7705
0
LINE
8
BLACK
6
CONTINUOUS
10
159.714
20
-97.7705
11
159.714
21
-97.7712
0
LINE
8
BLACK
6
CONTINUOUS
10
159.714
20
-97.7712
11
160.072
21
-98.5851
0
LINE
8
BLACK
6
CONTINUOUS
10
160.072
20
-98.5851
11
160.072
21
-98.5852
0
LINE
8
BLACK
6
CONTINUOUS
10
160.072
20
-98.5852
11
160.072
21
-98.5852
0
LINE
8
BLACK
6
CONTINUOUS
10
160.072
20
-98.5852
11
160.073
21
-98.5879
0
LINE
8
BLACK
6
CONTINUOUS
10
160.073
20
-98.5879
11
160.073
21
-98.5886
0
LINE
8
BLACK
6
CONTINUOUS
10
160.073
20
-98.5886
11
160.073
21
-98.5894
0
LINE
8
BLACK
6
CONTINUOUS
10
160.073
20
-98.5894
11
160.281
21
-99.4537
0
LINE
8
BLACK
6
CONTINUOUS
10
160.281
20
-99.4537
11
160.281
21
-99.4566
0
LINE
8
BLACK
6
CONTINUOUS
10
160.281
20
-99.4566
11
160.281
21
-99.4572
0
LINE
8
BLACK
6
CONTINUOUS
10
160.281
20
-99.4572
11
160.281
21
-99.4578
0
LINE
8
BLACK
6
CONTINUOUS
10
160.281
20
-99.4578
11
160.335
21
-100.188
0
LINE
8
BLACK
6
CONTINUOUS
10
160.335
20
-100.188
11
160.335
21
-100.189
0
LINE
8
BLACK
6
CONTINUOUS
10
160.335
20
-100.189
11
160.345
21
-190.191
0
LINE
8
BLACK
6
CONTINUOUS
10
160.345
20
-190.191
11
160.345
21
-190.192
0
LINE
8
BLACK
6
CONTINUOUS
10
160.345
20
-190.192
11
160.345
21
-190.192
0
LINE
8
BLACK
6
CONTINUOUS
10
160.345
20
-190.192
11
160.266
21
-191.078
0
LINE
8
BLACK
6
CONTINUOUS
10
160.266
20
-191.078
11
160.265
21
-191.08
0
LINE
8
BLACK
6
CONTINUOUS
10
160.265
20
-191.08
11
160.265
21
-191.081
0
LINE
8
BLACK
6
CONTINUOUS
10
160.265
20
-191.081
11
160.265
21
-191.082
0
LINE
8
BLACK
6
CONTINUOUS
10
160.265
20
-191.082
11
160.031
21
-191.939
0
LINE
8
BLACK
6
CONTINUOUS
10
160.031
20
-191.939
11
160.03
21
-191.942
0
LINE
8
BLACK
6
CONTINUOUS
10
160.03
20
-191.942
11
160.029
21
-191.943
0
LINE
8
BLACK
6
CONTINUOUS
10
160.029
20
-191.943
11
160.029
21
-191.944
0
LINE
8
BLACK
6
CONTINUOUS
10
160.029
20
-191.944
11
159.646
21
-192.746
0
LINE
8
BLACK
6
CONTINUOUS
10
159.646
20
-192.746
11
159.645
21
-192.748
0
LINE
8
BLACK
6
CONTINUOUS
10
159.645
20
-192.748
11
159.644
21
-192.749
0
LINE
8
BLACK
6
CONTINUOUS
10
159.644
20
-192.749
11
159.644
21
-192.75
0
LINE
8
BLACK
6
CONTINUOUS
10
159.644
20
-192.75
11
159.125
21
-193.472
0
LINE
8
BLACK
6
CONTINUOUS
10
159.125
20
-193.472
11
159.123
21
-193.474
0
LINE
8
BLACK
6
CONTINUOUS
10
159.123
20
-193.474
11
159.123
21
-193.474
0
LINE
8
BLACK
6
CONTINUOUS
10
159.123
20
-193.474
11
159.122
21
-193.475
0
LINE
8
BLACK
6
CONTINUOUS
10
159.122
20
-193.475
11
158.484
21
-194.094
0
LINE
8
BLACK
6
CONTINUOUS
10
158.484
20
-194.094
11
158.482
21
-194.096
0
LINE
8
BLACK
6
CONTINUOUS
10
158.482
20
-194.096
11
158.481
21
-194.096
0
LINE
8
BLACK
6
CONTINUOUS
10
158.481
20
-194.096
11
158.481
21
-194.096
0
LINE
8
BLACK
6
CONTINUOUS
10
158.481
20
-194.096
11
157.743
21
-194.592
0
LINE
8
BLACK
6
CONTINUOUS
10
157.743
20
-194.592
11
157.743
21
-194.592
0
LINE
8
BLACK
6
CONTINUOUS
10
157.743
20
-194.592
11
157.743
21
-194.592
0
LINE
8
BLACK
6
CONTINUOUS
10
157.743
20
-194.592
11
157.74
21
-194.594
0
LINE
8
BLACK
6
CONTINUOUS
10
157.74
20
-194.594
11
157.74
21
-194.594
0
LINE
8
BLACK
6
CONTINUOUS
10
157.74
20
-194.594
11
157.739
21
-194.594
0
LINE
8
BLACK
6
CONTINUOUS
10
157.739
20
-194.594
11
156.925
21
-194.952
0
LINE
8
BLACK
6
CONTINUOUS
10
156.925
20
-194.952
11
156.922
21
-194.953
0
LINE
8
BLACK
6
CONTINUOUS
10
156.922
20
-194.953
11
156.921
21
-194.953
0
LINE
8
BLACK
6
CONTINUOUS
10
156.921
20
-194.953
11
156.921
21
-194.953
0
LINE
8
BLACK
6
CONTINUOUS
10
156.921
20
-194.953
11
156.056
21
-195.161
0
LINE
8
BLACK
6
CONTINUOUS
10
156.056
20
-195.161
11
156.053
21
-195.161
0
LINE
8
BLACK
6
CONTINUOUS
10
156.053
20
-195.161
11
156.053
21
-195.161
0
LINE
8
BLACK
6
CONTINUOUS
10
156.053
20
-195.161
11
156.052
21
-195.161
0
LINE
8
BLACK
6
CONTINUOUS
10
156.052
20
-195.161
11
155.322
21
-195.215
0
LINE
8
BLACK
6
CONTINUOUS
10
155.322
20
-195.215
11
155.321
21
-195.215
0
LINE
8
BLACK
6
CONTINUOUS
10
155.321
20
-195.215
11
65.3188
21
-195.215
0
LINE
8
BLACK
6
CONTINUOUS
10
65.3188
20
-195.215
11
65.3178
21
-195.215
0
LINE
8
BLACK
6
CONTINUOUS
10
65.3178
20
-195.215
11
65.3178
21
-195.215
0
LINE
8
BLACK
6
CONTINUOUS
10
65.3178
20
-195.215
11
64.4324
21
-195.136
0
LINE
8
BLACK
6
CONTINUOUS
10
64.4324
20
-195.136
11
64.4324
21
-195.136
0
LINE
8
BLACK
6
CONTINUOUS
10
64.4324
20
-195.136
11
64.4323
21
-195.136
0
LINE
8
BLACK
6
CONTINUOUS
10
65.3209
20
-95.215
11
64.5934
21
-95.2684
0
LINE
8
BLACK
6
CONTINUOUS
10
64.5934
20
-95.2684
11
63.7332
21
-95.4749
0
LINE
8
BLACK
6
CONTINUOUS
10
63.7332
20
-95.4749
11
62.9233
21
-95.8305
0
LINE
8
BLACK
6
CONTINUOUS
10
62.9233
20
-95.8305
11
62.1892
21
-96.3238
0
LINE
8
BLACK
6
CONTINUOUS
10
62.1892
20
-96.3238
11
61.554
21
-96.9393
0
LINE
8
BLACK
6
CONTINUOUS
10
61.554
20
-96.9393
11
61.0379
21
-97.6576
0
LINE
8
BLACK
6
CONTINUOUS
10
61.0379
20
-97.6576
11
60.6571
21
-98.4559
0
LINE
8
BLACK
6
CONTINUOUS
10
60.6571
20
-98.4559
11
60.4237
21
-99.309
0
LINE
8
BLACK
6
CONTINUOUS
10
60.4237
20
-99.309
11
60.345
21
-100.191
0
LINE
8
BLACK
6
CONTINUOUS
10
60.345
20
-100.191
11
60.345
21
-190.189
0
LINE
8
BLACK
6
CONTINUOUS
10
60.345
20
-190.189
11
60.3984
21
-190.917
0
LINE
8
BLACK
6
CONTINUOUS
10
60.3984
20
-190.917
11
60.6049
21
-191.777
0
LINE
8
BLACK
6
CONTINUOUS
10
60.6049
20
-191.777
11
60.9605
21
-192.587
0
LINE
8
BLACK
6
CONTINUOUS
10
60.9605
20
-192.587
11
61.4538
21
-193.321
0
LINE
8
BLACK
6
CONTINUOUS
10
61.4538
20
-193.321
11
62.0693
21
-193.956
0
LINE
8
BLACK
6
CONTINUOUS
10
62.0693
20
-193.956
11
62.7876
21
-194.472
0
LINE
8
BLACK
6
CONTINUOUS
10
62.7876
20
-194.472
11
63.5859
21
-194.853
0
LINE
8
BLACK
6
CONTINUOUS
10
63.5859
20
-194.853
11
64.439
21
-195.086
0
LINE
8
BLACK
6
CONTINUOUS
10
64.439
20
-195.086
11
65.3211
21
-195.165
0
LINE
8
BLACK
6
CONTINUOUS
10
65.3211
20
-195.165
11
155.319
21
-195.165
0
LINE
8
BLACK
6
CONTINUOUS
10
155.319
20
-195.165
11
156.047
21
-195.112
0
LINE
8
BLACK
6
CONTINUOUS
10
156.047
20
-195.112
11
156.907
21
-194.905
0
LINE
8
BLACK
6
CONTINUOUS
10
156.907
20
-194.905
11
157.717
21
-194.55
0
LINE
8
BLACK
6
CONTINUOUS
10
157.717
20
-194.55
11
158.451
21
-194.056
0
LINE
8
BLACK
6
CONTINUOUS
10
158.451
20
-194.056
11
159.086
21
-193.441
0
LINE
8
BLACK
6
CONTINUOUS
10
159.086
20
-193.441
11
159.602
21
-192.722
0
LINE
8
BLACK
6
CONTINUOUS
10
159.602
20
-192.722
11
159.983
21
-191.924
0
LINE
8
BLACK
6
CONTINUOUS
10
159.983
20
-191.924
11
160.216
21
-191.071
0
LINE
8
BLACK
6
CONTINUOUS
10
160.216
20
-191.071
11
160.295
21
-190.189
0
LINE
8
BLACK
6
CONTINUOUS
10
160.295
20
-190.189
11
160.285
21
-100.191
0
LINE
8
BLACK
6
CONTINUOUS
10
160.285
20
-100.191
11
160.232
21
-99.4634
0
LINE
8
BLACK
6
CONTINUOUS
10
160.232
20
-99.4634
11
160.025
21
-98.6032
0
LINE
8
BLACK
6
CONTINUOUS
10
160.025
20
-98.6032
11
159.67
21
-97.7933
0
LINE
8
BLACK
6
CONTINUOUS
10
159.67
20
-97.7933
11
159.176
21
-97.0592
0
LINE
8
BLACK
6
CONTINUOUS
10
159.176
20
-97.0592
11
158.561
21
-96.424
0
LINE
8
BLACK
6
CONTINUOUS
10
158.561
20
-96.424
11
157.842
21
-95.9079
0
LINE
8
BLACK
6
CONTINUOUS
10
157.842
20
-95.9079
11
157.044
21
-95.5271
0
LINE
8
BLACK
6
CONTINUOUS
10
157.044
20
-95.5271
11
156.191
21
-95.2937
0
LINE
8
BLACK
6
CONTINUOUS
10
156.191
20
-95.2937
11
155.309
21
-95.215
0
LINE
8
BLACK
6
CONTINUOUS
10
155.309
20
-95.215
11
65.3209
21
-95.215
  0
ENDSEC
  0
EOF
