M48
; DRILL file {KiCad (5.1.9)-1} date 07/31/21 19:17:01
; FORMAT={-:-/ absolute / inch / decimal}
; #@! TF.CreationDate,2021-07-31T19:17:01+02:00
; #@! TF.GenerationSoftware,Kicad,Pcbnew,(5.1.9)-1
; #@! TF.FileFunction,Plated,1,2,PTH
FMAT,2
INCH
T1C0.0157
T2C0.0315
T3C0.0394
T4C0.1575
%
G90
G05
T1
X1.0728Y-4.1437
X1.0728Y-6.3189
X1.0827Y-1.9685
X1.2402Y-4.7047
X1.2402Y-6.8898
X1.2598Y-2.5295
X1.8207Y-2.825
X1.8268Y-7.189
X1.8465Y-5.0039
X1.8996Y-1.3681
X1.9193Y-3.563
X1.9193Y-5.7382
X1.998Y-1.3681
X2.0079Y-5.7382
X2.0177Y-3.563
X2.5492Y-3.563
X2.5492Y-5.7382
X2.5591Y-1.3681
X2.6575Y-1.3681
X2.6575Y-3.563
X2.6575Y-5.7382
X3.2579Y-5.7382
X3.2677Y-1.3681
X3.2776Y-3.563
X3.3661Y-1.3681
X3.376Y-3.563
X3.376Y-5.7382
X3.9075Y-5.7382
X3.9173Y-1.3681
X3.9173Y-3.563
X4.0157Y-1.3681
X4.0157Y-5.7382
X4.0256Y-3.563
X4.6161Y-1.3681
X4.626Y-5.7382
X4.6358Y-3.563
X4.7146Y-1.3681
X4.7343Y-3.563
X4.7343Y-5.7382
X5.2657Y-5.7382
X5.2756Y-1.3681
X5.2756Y-3.563
X5.374Y-1.3681
X5.3839Y-3.563
X5.3839Y-5.7382
X5.9744Y-1.3681
X5.9843Y-5.7382
X5.9941Y-3.563
X6.0827Y-1.3681
X6.0925Y-3.563
X6.0925Y-5.7382
X6.6339Y-1.3681
X6.6339Y-3.563
X6.6339Y-5.7382
X6.7323Y-1.3681
X6.7421Y-5.7382
X6.752Y-3.563
T2
X1.0488Y-6.5591
X1.0488Y-6.6591
X1.0529Y-4.375
X1.0529Y-4.475
X1.0571Y-2.2126
X1.0571Y-2.3126
T4
X1.0976Y-7.8854
X1.1024Y-1.148
X1.5069Y-5.8281
X1.5069Y-7.4834
X1.5079Y-1.5092
X1.5079Y-3.1251
X1.5079Y-3.6477
X1.5079Y-5.303
X2.2785Y-5.8281
X2.2795Y-1.5092
X2.2795Y-3.6477
X2.6046Y-7.4834
X2.6056Y-3.1236
X2.6056Y-5.303
X2.9311Y-5.8281
X2.9321Y-1.5092
X2.9321Y-3.6477
X3.6378Y-5.8281
X3.6388Y-1.5092
X3.6388Y-3.6477
X3.9639Y-7.4834
X3.9646Y-5.303
X3.9649Y-3.1236
X4.2904Y-5.8281
X4.2913Y-1.5092
X4.2913Y-3.6477
X4.9978Y-5.8281
X4.9988Y-1.5092
X4.9988Y-3.6477
X5.3239Y-7.4834
X5.3249Y-3.1251
X5.3249Y-5.303
X5.6496Y-5.8281
X5.6506Y-1.5092
X5.6506Y-3.6477
X6.3571Y-5.8281
X6.3581Y-1.5079
X6.3581Y-3.6477
X6.6832Y-7.4834
X6.6842Y-3.1251
X6.6842Y-5.303
X7.0096Y-5.8281
X7.0106Y-1.5079
X7.0106Y-3.6477
X7.3398Y-1.1087
X7.3398Y-7.8465
T3
G00X0.9992Y-7.728
M15
G01X1.1961Y-7.728
M16
G05
G00X1.2008Y-1.3055
M15
G01X1.0039Y-1.3055
M16
G05
G00X1.6053Y-5.9855
M15
G01X1.4085Y-5.9855
M16
G05
G00X1.4085Y-7.3259
M15
G01X1.6053Y-7.3259
M16
G05
G00X1.6063Y-1.6666
M15
G01X1.4094Y-1.6666
M16
G05
G00X1.4094Y-2.9676
M15
G01X1.6063Y-2.9676
M16
G05
G00X1.6063Y-3.8052
M15
G01X1.4094Y-3.8052
M16
G05
G00X1.4094Y-5.1456
M15
G01X1.6063Y-5.1456
M16
G05
G00X2.377Y-5.9855
M15
G01X2.1801Y-5.9855
M16
G05
G00X2.378Y-1.6666
M15
G01X2.1811Y-1.6666
M16
G05
G00X2.378Y-3.8052
M15
G01X2.1811Y-3.8052
M16
G05
G00X2.5062Y-7.3259
M15
G01X2.7031Y-7.3259
M16
G05
G00X2.5072Y-2.9661
M15
G01X2.704Y-2.9661
M16
G05
G00X2.5072Y-5.1456
M15
G01X2.704Y-5.1456
M16
G05
G00X3.0295Y-5.9855
M15
G01X2.8327Y-5.9855
M16
G05
G00X3.0305Y-1.6666
M15
G01X2.8337Y-1.6666
M16
G05
G00X3.0305Y-3.8052
M15
G01X2.8337Y-3.8052
M16
G05
G00X3.7362Y-5.9855
M15
G01X3.5394Y-5.9855
M16
G05
G00X3.7372Y-1.6666
M15
G01X3.5404Y-1.6666
M16
G05
G00X3.7372Y-3.8052
M15
G01X3.5404Y-3.8052
M16
G05
G00X3.8655Y-7.3259
M15
G01X4.0623Y-7.3259
M16
G05
G00X3.8661Y-5.1456
M15
G01X4.063Y-5.1456
M16
G05
G00X3.8664Y-2.9661
M15
G01X4.0633Y-2.9661
M16
G05
G00X4.3888Y-5.9855
M15
G01X4.1919Y-5.9855
M16
G05
G00X4.3898Y-1.6666
M15
G01X4.1929Y-1.6666
M16
G05
G00X4.3898Y-3.8052
M15
G01X4.1929Y-3.8052
M16
G05
G00X5.0963Y-5.9855
M15
G01X4.8994Y-5.9855
M16
G05
G00X5.0972Y-1.6666
M15
G01X4.9004Y-1.6666
M16
G05
G00X5.0972Y-3.8052
M15
G01X4.9004Y-3.8052
M16
G05
G00X5.2255Y-7.3259
M15
G01X5.4223Y-7.3259
M16
G05
G00X5.2265Y-2.9676
M15
G01X5.4233Y-2.9676
M16
G05
G00X5.2265Y-5.1456
M15
G01X5.4233Y-5.1456
M16
G05
G00X5.748Y-5.9855
M15
G01X5.5512Y-5.9855
M16
G05
G00X5.749Y-1.6666
M15
G01X5.5522Y-1.6666
M16
G05
G00X5.749Y-3.8052
M15
G01X5.5522Y-3.8052
M16
G05
G00X6.4555Y-5.9855
M15
G01X6.2587Y-5.9855
M16
G05
G00X6.4565Y-1.6654
M15
G01X6.2596Y-1.6654
M16
G05
G00X6.4565Y-3.8052
M15
G01X6.2596Y-3.8052
M16
G05
G00X6.5847Y-7.3259
M15
G01X6.7816Y-7.3259
M16
G05
G00X6.5857Y-2.9676
M15
G01X6.7826Y-2.9676
M16
G05
G00X6.5857Y-5.1456
M15
G01X6.7826Y-5.1456
M16
G05
G00X7.1081Y-5.9855
M15
G01X6.9112Y-5.9855
M16
G05
G00X7.1091Y-1.6654
M15
G01X6.9122Y-1.6654
M16
G05
G00X7.1091Y-3.8052
M15
G01X6.9122Y-3.8052
M16
G05
G00X7.4382Y-1.2661
M15
G01X7.2413Y-1.2661
M16
G05
G00X7.2413Y-7.689
M15
G01X7.4382Y-7.689
M16
G05
T0
M30
