G04 #@! TF.GenerationSoftware,KiCad,Pcbnew,(5.1.9)-1*
G04 #@! TF.CreationDate,2021-08-02T17:51:02+02:00*
G04 #@! TF.ProjectId,RelayControls-HPK,52656c61-7943-46f6-9e74-726f6c732d48,V0.1*
G04 #@! TF.SameCoordinates,Original*
G04 #@! TF.FileFunction,Legend,Bot*
G04 #@! TF.FilePolarity,Positive*
%FSLAX46Y46*%
G04 Gerber Fmt 4.6, Leading zero omitted, Abs format (unit mm)*
G04 Created by KiCad (PCBNEW (5.1.9)-1) date 2021-08-02 17:51:02*
%MOMM*%
%LPD*%
G01*
G04 APERTURE LIST*
%ADD10C,0.500000*%
%ADD11C,0.010000*%
G04 APERTURE END LIST*
D10*
X150885714Y-206437142D02*
X151885714Y-205008571D01*
X152600000Y-206437142D02*
X152600000Y-203437142D01*
X151457142Y-203437142D01*
X151171428Y-203580000D01*
X151028571Y-203722857D01*
X150885714Y-204008571D01*
X150885714Y-204437142D01*
X151028571Y-204722857D01*
X151171428Y-204865714D01*
X151457142Y-205008571D01*
X152600000Y-205008571D01*
X148457142Y-206294285D02*
X148742857Y-206437142D01*
X149314285Y-206437142D01*
X149600000Y-206294285D01*
X149742857Y-206008571D01*
X149742857Y-204865714D01*
X149600000Y-204580000D01*
X149314285Y-204437142D01*
X148742857Y-204437142D01*
X148457142Y-204580000D01*
X148314285Y-204865714D01*
X148314285Y-205151428D01*
X149742857Y-205437142D01*
X146600000Y-206437142D02*
X146885714Y-206294285D01*
X147028571Y-206008571D01*
X147028571Y-203437142D01*
X144171428Y-206437142D02*
X144171428Y-204865714D01*
X144314285Y-204580000D01*
X144600000Y-204437142D01*
X145171428Y-204437142D01*
X145457142Y-204580000D01*
X144171428Y-206294285D02*
X144457142Y-206437142D01*
X145171428Y-206437142D01*
X145457142Y-206294285D01*
X145600000Y-206008571D01*
X145600000Y-205722857D01*
X145457142Y-205437142D01*
X145171428Y-205294285D01*
X144457142Y-205294285D01*
X144171428Y-205151428D01*
X143028571Y-204437142D02*
X142314285Y-206437142D01*
X141600000Y-204437142D02*
X142314285Y-206437142D01*
X142600000Y-207151428D01*
X142742857Y-207294285D01*
X143028571Y-207437142D01*
X137171428Y-204865714D02*
X136742857Y-205008571D01*
X136600000Y-205151428D01*
X136457142Y-205437142D01*
X136457142Y-205865714D01*
X136600000Y-206151428D01*
X136742857Y-206294285D01*
X137028571Y-206437142D01*
X138171428Y-206437142D01*
X138171428Y-203437142D01*
X137171428Y-203437142D01*
X136885714Y-203580000D01*
X136742857Y-203722857D01*
X136600000Y-204008571D01*
X136600000Y-204294285D01*
X136742857Y-204580000D01*
X136885714Y-204722857D01*
X137171428Y-204865714D01*
X138171428Y-204865714D01*
X134742857Y-206437142D02*
X135028571Y-206294285D01*
X135171428Y-206151428D01*
X135314285Y-205865714D01*
X135314285Y-205008571D01*
X135171428Y-204722857D01*
X135028571Y-204580000D01*
X134742857Y-204437142D01*
X134314285Y-204437142D01*
X134028571Y-204580000D01*
X133885714Y-204722857D01*
X133742857Y-205008571D01*
X133742857Y-205865714D01*
X133885714Y-206151428D01*
X134028571Y-206294285D01*
X134314285Y-206437142D01*
X134742857Y-206437142D01*
X132742857Y-206437142D02*
X131171428Y-204437142D01*
X132742857Y-204437142D02*
X131171428Y-206437142D01*
X127171428Y-203437142D02*
X126885714Y-203437142D01*
X126600000Y-203580000D01*
X126457142Y-203722857D01*
X126314285Y-204008571D01*
X126171428Y-204580000D01*
X126171428Y-205294285D01*
X126314285Y-205865714D01*
X126457142Y-206151428D01*
X126600000Y-206294285D01*
X126885714Y-206437142D01*
X127171428Y-206437142D01*
X127457142Y-206294285D01*
X127600000Y-206151428D01*
X127742857Y-205865714D01*
X127885714Y-205294285D01*
X127885714Y-204580000D01*
X127742857Y-204008571D01*
X127600000Y-203722857D01*
X127457142Y-203580000D01*
X127171428Y-203437142D01*
X125171428Y-203437142D02*
X123171428Y-203437142D01*
X124457142Y-206437142D01*
X122028571Y-206151428D02*
X121885714Y-206294285D01*
X122028571Y-206437142D01*
X122171428Y-206294285D01*
X122028571Y-206151428D01*
X122028571Y-206437142D01*
X120742857Y-203722857D02*
X120600000Y-203580000D01*
X120314285Y-203437142D01*
X119600000Y-203437142D01*
X119314285Y-203580000D01*
X119171428Y-203722857D01*
X119028571Y-204008571D01*
X119028571Y-204294285D01*
X119171428Y-204722857D01*
X120885714Y-206437142D01*
X119028571Y-206437142D01*
X117171428Y-203437142D02*
X116885714Y-203437142D01*
X116600000Y-203580000D01*
X116457142Y-203722857D01*
X116314285Y-204008571D01*
X116171428Y-204580000D01*
X116171428Y-205294285D01*
X116314285Y-205865714D01*
X116457142Y-206151428D01*
X116600000Y-206294285D01*
X116885714Y-206437142D01*
X117171428Y-206437142D01*
X117457142Y-206294285D01*
X117600000Y-206151428D01*
X117742857Y-205865714D01*
X117885714Y-205294285D01*
X117885714Y-204580000D01*
X117742857Y-204008571D01*
X117600000Y-203722857D01*
X117457142Y-203580000D01*
X117171428Y-203437142D01*
X115028571Y-203722857D02*
X114885714Y-203580000D01*
X114600000Y-203437142D01*
X113885714Y-203437142D01*
X113600000Y-203580000D01*
X113457142Y-203722857D01*
X113314285Y-204008571D01*
X113314285Y-204294285D01*
X113457142Y-204722857D01*
X115171428Y-206437142D01*
X113314285Y-206437142D01*
X110457142Y-206437142D02*
X112171428Y-206437142D01*
X111314285Y-206437142D02*
X111314285Y-203437142D01*
X111600000Y-203865714D01*
X111885714Y-204151428D01*
X112171428Y-204294285D01*
D11*
G36*
X105125243Y-99053573D02*
G01*
X104873171Y-99274898D01*
X104297754Y-99852972D01*
X103435495Y-100749003D01*
X102322899Y-101924201D01*
X100996469Y-103339774D01*
X99492711Y-104956933D01*
X97848128Y-106736885D01*
X96099225Y-108640840D01*
X95956343Y-108796866D01*
X87170527Y-118393157D01*
X87099102Y-111761575D01*
X87027677Y-105129992D01*
X86363839Y-104963380D01*
X85561599Y-104897590D01*
X85031579Y-104964530D01*
X84363158Y-105132293D01*
X84363158Y-124176489D01*
X81823158Y-126919413D01*
X80906703Y-127920090D01*
X80137299Y-128781173D01*
X79580685Y-129427466D01*
X79302599Y-129783772D01*
X79283158Y-129824853D01*
X79476036Y-129974496D01*
X80034053Y-129770458D01*
X80254098Y-129649216D01*
X80556332Y-129382787D01*
X81174376Y-128764377D01*
X82065772Y-127838980D01*
X83188063Y-126651589D01*
X84498792Y-125247199D01*
X85955502Y-123670801D01*
X87515734Y-121967390D01*
X87874098Y-121574090D01*
X89503423Y-119785898D01*
X91080315Y-118058437D01*
X92554409Y-116446647D01*
X93875343Y-115005471D01*
X94992754Y-113789850D01*
X95856276Y-112854724D01*
X96415548Y-112255035D01*
X96452268Y-112216195D01*
X97980325Y-110603158D01*
X97989636Y-117368860D01*
X97998948Y-124134562D01*
X99268948Y-124053070D01*
X100538948Y-123971579D01*
X100609202Y-114380641D01*
X100679457Y-104789704D01*
X103254592Y-102008838D01*
X104381887Y-100764997D01*
X105136782Y-99865234D01*
X105534592Y-99285358D01*
X105590628Y-99001177D01*
X105320204Y-98988499D01*
X105125243Y-99053573D01*
G37*
X105125243Y-99053573D02*
X104873171Y-99274898D01*
X104297754Y-99852972D01*
X103435495Y-100749003D01*
X102322899Y-101924201D01*
X100996469Y-103339774D01*
X99492711Y-104956933D01*
X97848128Y-106736885D01*
X96099225Y-108640840D01*
X95956343Y-108796866D01*
X87170527Y-118393157D01*
X87099102Y-111761575D01*
X87027677Y-105129992D01*
X86363839Y-104963380D01*
X85561599Y-104897590D01*
X85031579Y-104964530D01*
X84363158Y-105132293D01*
X84363158Y-124176489D01*
X81823158Y-126919413D01*
X80906703Y-127920090D01*
X80137299Y-128781173D01*
X79580685Y-129427466D01*
X79302599Y-129783772D01*
X79283158Y-129824853D01*
X79476036Y-129974496D01*
X80034053Y-129770458D01*
X80254098Y-129649216D01*
X80556332Y-129382787D01*
X81174376Y-128764377D01*
X82065772Y-127838980D01*
X83188063Y-126651589D01*
X84498792Y-125247199D01*
X85955502Y-123670801D01*
X87515734Y-121967390D01*
X87874098Y-121574090D01*
X89503423Y-119785898D01*
X91080315Y-118058437D01*
X92554409Y-116446647D01*
X93875343Y-115005471D01*
X94992754Y-113789850D01*
X95856276Y-112854724D01*
X96415548Y-112255035D01*
X96452268Y-112216195D01*
X97980325Y-110603158D01*
X97989636Y-117368860D01*
X97998948Y-124134562D01*
X99268948Y-124053070D01*
X100538948Y-123971579D01*
X100609202Y-114380641D01*
X100679457Y-104789704D01*
X103254592Y-102008838D01*
X104381887Y-100764997D01*
X105136782Y-99865234D01*
X105534592Y-99285358D01*
X105590628Y-99001177D01*
X105320204Y-98988499D01*
X105125243Y-99053573D01*
G36*
X120762967Y-104942905D02*
G01*
X119304807Y-105367847D01*
X118110373Y-106032668D01*
X117681026Y-106425246D01*
X117449529Y-106755359D01*
X117486565Y-107082046D01*
X117833259Y-107576873D01*
X118007842Y-107788601D01*
X118756697Y-108685609D01*
X119581454Y-108075840D01*
X120735845Y-107459405D01*
X121954789Y-107200555D01*
X123137505Y-107270636D01*
X124183214Y-107640995D01*
X124991135Y-108282977D01*
X125460487Y-109167930D01*
X125537895Y-109769356D01*
X125471451Y-110329005D01*
X125229088Y-110826663D01*
X124746264Y-111314166D01*
X123958436Y-111843347D01*
X122801060Y-112466043D01*
X121243535Y-113218167D01*
X119691300Y-113982117D01*
X118558489Y-114641992D01*
X117759720Y-115270120D01*
X117209613Y-115938825D01*
X116822789Y-116720433D01*
X116698937Y-117067876D01*
X116434604Y-118641773D01*
X116648230Y-120152853D01*
X117283070Y-121532289D01*
X118282379Y-122711252D01*
X119589414Y-123620916D01*
X121147430Y-124192453D01*
X122711628Y-124360896D01*
X123782765Y-124295160D01*
X124797532Y-124138819D01*
X125302001Y-124003508D01*
X126757154Y-123333705D01*
X128068043Y-122458707D01*
X128697594Y-121884494D01*
X129308171Y-121234564D01*
X128471993Y-120530966D01*
X127735635Y-119997649D01*
X127190521Y-119871573D01*
X126693377Y-120142797D01*
X126448281Y-120390556D01*
X125386580Y-121220984D01*
X124063746Y-121754967D01*
X122649277Y-121957901D01*
X121312667Y-121795184D01*
X120716512Y-121560737D01*
X119908566Y-120889377D01*
X119364660Y-119940270D01*
X119126180Y-118874056D01*
X119234512Y-117851376D01*
X119588948Y-117184158D01*
X120005508Y-116864703D01*
X120804718Y-116399674D01*
X121875559Y-115849001D01*
X123107010Y-115272617D01*
X123236690Y-115214999D01*
X124959265Y-114403787D01*
X126232679Y-113668504D01*
X127123802Y-112944886D01*
X127699506Y-112168669D01*
X128026661Y-111275591D01*
X128148755Y-110494499D01*
X128191336Y-109560770D01*
X128150917Y-108741363D01*
X128106656Y-108483613D01*
X127696754Y-107632763D01*
X126945493Y-106708506D01*
X125995942Y-105863877D01*
X125162579Y-105334403D01*
X123847575Y-104903478D01*
X122329130Y-104780547D01*
X120762967Y-104942905D01*
G37*
X120762967Y-104942905D02*
X119304807Y-105367847D01*
X118110373Y-106032668D01*
X117681026Y-106425246D01*
X117449529Y-106755359D01*
X117486565Y-107082046D01*
X117833259Y-107576873D01*
X118007842Y-107788601D01*
X118756697Y-108685609D01*
X119581454Y-108075840D01*
X120735845Y-107459405D01*
X121954789Y-107200555D01*
X123137505Y-107270636D01*
X124183214Y-107640995D01*
X124991135Y-108282977D01*
X125460487Y-109167930D01*
X125537895Y-109769356D01*
X125471451Y-110329005D01*
X125229088Y-110826663D01*
X124746264Y-111314166D01*
X123958436Y-111843347D01*
X122801060Y-112466043D01*
X121243535Y-113218167D01*
X119691300Y-113982117D01*
X118558489Y-114641992D01*
X117759720Y-115270120D01*
X117209613Y-115938825D01*
X116822789Y-116720433D01*
X116698937Y-117067876D01*
X116434604Y-118641773D01*
X116648230Y-120152853D01*
X117283070Y-121532289D01*
X118282379Y-122711252D01*
X119589414Y-123620916D01*
X121147430Y-124192453D01*
X122711628Y-124360896D01*
X123782765Y-124295160D01*
X124797532Y-124138819D01*
X125302001Y-124003508D01*
X126757154Y-123333705D01*
X128068043Y-122458707D01*
X128697594Y-121884494D01*
X129308171Y-121234564D01*
X128471993Y-120530966D01*
X127735635Y-119997649D01*
X127190521Y-119871573D01*
X126693377Y-120142797D01*
X126448281Y-120390556D01*
X125386580Y-121220984D01*
X124063746Y-121754967D01*
X122649277Y-121957901D01*
X121312667Y-121795184D01*
X120716512Y-121560737D01*
X119908566Y-120889377D01*
X119364660Y-119940270D01*
X119126180Y-118874056D01*
X119234512Y-117851376D01*
X119588948Y-117184158D01*
X120005508Y-116864703D01*
X120804718Y-116399674D01*
X121875559Y-115849001D01*
X123107010Y-115272617D01*
X123236690Y-115214999D01*
X124959265Y-114403787D01*
X126232679Y-113668504D01*
X127123802Y-112944886D01*
X127699506Y-112168669D01*
X128026661Y-111275591D01*
X128148755Y-110494499D01*
X128191336Y-109560770D01*
X128150917Y-108741363D01*
X128106656Y-108483613D01*
X127696754Y-107632763D01*
X126945493Y-106708506D01*
X125995942Y-105863877D01*
X125162579Y-105334403D01*
X123847575Y-104903478D01*
X122329130Y-104780547D01*
X120762967Y-104942905D01*
G36*
X74411857Y-104909889D02*
G01*
X73136180Y-105288597D01*
X71868222Y-106004751D01*
X71865511Y-106006582D01*
X71223510Y-106516537D01*
X71050646Y-106952688D01*
X71336415Y-107458873D01*
X71730000Y-107862097D01*
X72465263Y-108563186D01*
X73534737Y-107913489D01*
X74630327Y-107458924D01*
X75879721Y-107258961D01*
X77083735Y-107323666D01*
X78043182Y-107663103D01*
X78075900Y-107684005D01*
X78734214Y-108393849D01*
X79102049Y-109351358D01*
X79102834Y-110327847D01*
X79035749Y-110550662D01*
X78809497Y-110995276D01*
X78445149Y-111394090D01*
X77861145Y-111799521D01*
X76975925Y-112263983D01*
X75707929Y-112839891D01*
X74994626Y-113147704D01*
X73187570Y-114009574D01*
X71856789Y-114872800D01*
X70947305Y-115799699D01*
X70404144Y-116852585D01*
X70172329Y-118093775D01*
X70154436Y-118634053D01*
X70245250Y-119687897D01*
X70476212Y-120683668D01*
X70609240Y-121025543D01*
X71343870Y-122103018D01*
X72407791Y-123098775D01*
X73602778Y-123843534D01*
X74165310Y-124062335D01*
X75500021Y-124301008D01*
X77014293Y-124327623D01*
X78442626Y-124147501D01*
X79091606Y-123963629D01*
X80087305Y-123496940D01*
X81108485Y-122857661D01*
X81977815Y-122169641D01*
X82503221Y-121580949D01*
X82660792Y-121185372D01*
X82492256Y-120832023D01*
X82057983Y-120445824D01*
X81365095Y-119967088D01*
X80866970Y-119880563D01*
X80399316Y-120182200D01*
X80193544Y-120399866D01*
X79275834Y-121116935D01*
X78046433Y-121659261D01*
X76721108Y-121940030D01*
X76314803Y-121960444D01*
X75042448Y-121759485D01*
X73984328Y-121202961D01*
X73213443Y-120379796D01*
X72802796Y-119378917D01*
X72825388Y-118289250D01*
X72960875Y-117874876D01*
X73209977Y-117346833D01*
X73513101Y-116931500D01*
X73963841Y-116564250D01*
X74655788Y-116180459D01*
X75682534Y-115715500D01*
X76723534Y-115276749D01*
X78191785Y-114650788D01*
X79252363Y-114151422D01*
X79999097Y-113719668D01*
X80525815Y-113296543D01*
X80926347Y-112823062D01*
X81138155Y-112501568D01*
X81771125Y-111043275D01*
X81916128Y-109597537D01*
X81617310Y-108229811D01*
X80918818Y-107005556D01*
X79864796Y-105990230D01*
X78499393Y-105249288D01*
X76866753Y-104848191D01*
X75941053Y-104795590D01*
X74411857Y-104909889D01*
G37*
X74411857Y-104909889D02*
X73136180Y-105288597D01*
X71868222Y-106004751D01*
X71865511Y-106006582D01*
X71223510Y-106516537D01*
X71050646Y-106952688D01*
X71336415Y-107458873D01*
X71730000Y-107862097D01*
X72465263Y-108563186D01*
X73534737Y-107913489D01*
X74630327Y-107458924D01*
X75879721Y-107258961D01*
X77083735Y-107323666D01*
X78043182Y-107663103D01*
X78075900Y-107684005D01*
X78734214Y-108393849D01*
X79102049Y-109351358D01*
X79102834Y-110327847D01*
X79035749Y-110550662D01*
X78809497Y-110995276D01*
X78445149Y-111394090D01*
X77861145Y-111799521D01*
X76975925Y-112263983D01*
X75707929Y-112839891D01*
X74994626Y-113147704D01*
X73187570Y-114009574D01*
X71856789Y-114872800D01*
X70947305Y-115799699D01*
X70404144Y-116852585D01*
X70172329Y-118093775D01*
X70154436Y-118634053D01*
X70245250Y-119687897D01*
X70476212Y-120683668D01*
X70609240Y-121025543D01*
X71343870Y-122103018D01*
X72407791Y-123098775D01*
X73602778Y-123843534D01*
X74165310Y-124062335D01*
X75500021Y-124301008D01*
X77014293Y-124327623D01*
X78442626Y-124147501D01*
X79091606Y-123963629D01*
X80087305Y-123496940D01*
X81108485Y-122857661D01*
X81977815Y-122169641D01*
X82503221Y-121580949D01*
X82660792Y-121185372D01*
X82492256Y-120832023D01*
X82057983Y-120445824D01*
X81365095Y-119967088D01*
X80866970Y-119880563D01*
X80399316Y-120182200D01*
X80193544Y-120399866D01*
X79275834Y-121116935D01*
X78046433Y-121659261D01*
X76721108Y-121940030D01*
X76314803Y-121960444D01*
X75042448Y-121759485D01*
X73984328Y-121202961D01*
X73213443Y-120379796D01*
X72802796Y-119378917D01*
X72825388Y-118289250D01*
X72960875Y-117874876D01*
X73209977Y-117346833D01*
X73513101Y-116931500D01*
X73963841Y-116564250D01*
X74655788Y-116180459D01*
X75682534Y-115715500D01*
X76723534Y-115276749D01*
X78191785Y-114650788D01*
X79252363Y-114151422D01*
X79999097Y-113719668D01*
X80525815Y-113296543D01*
X80926347Y-112823062D01*
X81138155Y-112501568D01*
X81771125Y-111043275D01*
X81916128Y-109597537D01*
X81617310Y-108229811D01*
X80918818Y-107005556D01*
X79864796Y-105990230D01*
X78499393Y-105249288D01*
X76866753Y-104848191D01*
X75941053Y-104795590D01*
X74411857Y-104909889D01*
G36*
X102677895Y-123971579D02*
G01*
X108642468Y-124043578D01*
X114607040Y-124115577D01*
X114442106Y-121832631D01*
X102677895Y-121832631D01*
X102677895Y-123971579D01*
G37*
X102677895Y-123971579D02*
X108642468Y-124043578D01*
X114607040Y-124115577D01*
X114442106Y-121832631D01*
X102677895Y-121832631D01*
X102677895Y-123971579D01*
G36*
X60646644Y-104690789D02*
G01*
X60280891Y-105359027D01*
X59771019Y-106393779D01*
X59144727Y-107730428D01*
X58429716Y-109304356D01*
X57653685Y-111050945D01*
X56844335Y-112905577D01*
X56029366Y-114803635D01*
X55236477Y-116680500D01*
X54493369Y-118471555D01*
X53827741Y-120112182D01*
X53267294Y-121537764D01*
X52839728Y-122683682D01*
X52572742Y-123485318D01*
X52494037Y-123878055D01*
X52503553Y-123902079D01*
X52897602Y-124030534D01*
X53602289Y-124068972D01*
X53897121Y-124055569D01*
X55053209Y-123971579D01*
X57875820Y-117220526D01*
X58621478Y-115451566D01*
X59305765Y-113855780D01*
X59900586Y-112496487D01*
X60377848Y-111437007D01*
X60709455Y-110740658D01*
X60867313Y-110470761D01*
X60871238Y-110469473D01*
X61064605Y-110694032D01*
X61353395Y-111261565D01*
X61491931Y-111588854D01*
X61725557Y-112158086D01*
X62131607Y-113131858D01*
X62673294Y-114422602D01*
X63313828Y-115942749D01*
X64016420Y-117604730D01*
X64356254Y-118406749D01*
X66772689Y-124105263D01*
X68081608Y-124105263D01*
X68969425Y-124043768D01*
X69363888Y-123854420D01*
X69390527Y-123759464D01*
X69287994Y-123444088D01*
X68995728Y-122693538D01*
X68536731Y-121563243D01*
X67934003Y-120108630D01*
X67210543Y-118385125D01*
X66389352Y-116448156D01*
X65493431Y-114353150D01*
X65313158Y-113933675D01*
X64093638Y-111121825D01*
X63067223Y-108806221D01*
X62232956Y-106984829D01*
X61589876Y-105655616D01*
X61137025Y-104816548D01*
X60873443Y-104465592D01*
X60840578Y-104453684D01*
X60646644Y-104690789D01*
G37*
X60646644Y-104690789D02*
X60280891Y-105359027D01*
X59771019Y-106393779D01*
X59144727Y-107730428D01*
X58429716Y-109304356D01*
X57653685Y-111050945D01*
X56844335Y-112905577D01*
X56029366Y-114803635D01*
X55236477Y-116680500D01*
X54493369Y-118471555D01*
X53827741Y-120112182D01*
X53267294Y-121537764D01*
X52839728Y-122683682D01*
X52572742Y-123485318D01*
X52494037Y-123878055D01*
X52503553Y-123902079D01*
X52897602Y-124030534D01*
X53602289Y-124068972D01*
X53897121Y-124055569D01*
X55053209Y-123971579D01*
X57875820Y-117220526D01*
X58621478Y-115451566D01*
X59305765Y-113855780D01*
X59900586Y-112496487D01*
X60377848Y-111437007D01*
X60709455Y-110740658D01*
X60867313Y-110470761D01*
X60871238Y-110469473D01*
X61064605Y-110694032D01*
X61353395Y-111261565D01*
X61491931Y-111588854D01*
X61725557Y-112158086D01*
X62131607Y-113131858D01*
X62673294Y-114422602D01*
X63313828Y-115942749D01*
X64016420Y-117604730D01*
X64356254Y-118406749D01*
X66772689Y-124105263D01*
X68081608Y-124105263D01*
X68969425Y-124043768D01*
X69363888Y-123854420D01*
X69390527Y-123759464D01*
X69287994Y-123444088D01*
X68995728Y-122693538D01*
X68536731Y-121563243D01*
X67934003Y-120108630D01*
X67210543Y-118385125D01*
X66389352Y-116448156D01*
X65493431Y-114353150D01*
X65313158Y-113933675D01*
X64093638Y-111121825D01*
X63067223Y-108806221D01*
X62232956Y-106984829D01*
X61589876Y-105655616D01*
X61137025Y-104816548D01*
X60873443Y-104465592D01*
X60840578Y-104453684D01*
X60646644Y-104690789D01*
G36*
X103130155Y-114274111D02*
G01*
X103212632Y-115415789D01*
X108766829Y-115488075D01*
X110671336Y-115507456D01*
X112105807Y-115507001D01*
X113134694Y-115483186D01*
X113822449Y-115432490D01*
X114233523Y-115351390D01*
X114432369Y-115236363D01*
X114468347Y-115176450D01*
X114549145Y-114634505D01*
X114528886Y-114034690D01*
X114442106Y-113276842D01*
X108744892Y-113204637D01*
X103047677Y-113132432D01*
X103130155Y-114274111D01*
G37*
X103130155Y-114274111D02*
X103212632Y-115415789D01*
X108766829Y-115488075D01*
X110671336Y-115507456D01*
X112105807Y-115507001D01*
X113134694Y-115483186D01*
X113822449Y-115432490D01*
X114233523Y-115351390D01*
X114432369Y-115236363D01*
X114468347Y-115176450D01*
X114549145Y-114634505D01*
X114528886Y-114034690D01*
X114442106Y-113276842D01*
X108744892Y-113204637D01*
X103047677Y-113132432D01*
X103130155Y-114274111D01*
G36*
X107291815Y-104862384D02*
G01*
X105845087Y-104878155D01*
X104587400Y-104905795D01*
X103622131Y-104945306D01*
X103052659Y-104996686D01*
X102967131Y-105017026D01*
X102643770Y-105410371D01*
X102544211Y-106220184D01*
X102544211Y-107261052D01*
X114575790Y-107261052D01*
X114575790Y-106220184D01*
X114466386Y-105382363D01*
X114152870Y-105017026D01*
X113742835Y-104961578D01*
X112901574Y-104918000D01*
X111732463Y-104886291D01*
X110338881Y-104866452D01*
X108824205Y-104858483D01*
X107291815Y-104862384D01*
G37*
X107291815Y-104862384D02*
X105845087Y-104878155D01*
X104587400Y-104905795D01*
X103622131Y-104945306D01*
X103052659Y-104996686D01*
X102967131Y-105017026D01*
X102643770Y-105410371D01*
X102544211Y-106220184D01*
X102544211Y-107261052D01*
X114575790Y-107261052D01*
X114575790Y-106220184D01*
X114466386Y-105382363D01*
X114152870Y-105017026D01*
X113742835Y-104961578D01*
X112901574Y-104918000D01*
X111732463Y-104886291D01*
X110338881Y-104866452D01*
X108824205Y-104858483D01*
X107291815Y-104862384D01*
M02*
