M48
; DRILL file {KiCad (5.1.9)-1} date 08/02/21 17:51:04
; FORMAT={-:-/ absolute / inch / decimal}
; #@! TF.CreationDate,2021-08-02T17:51:04+02:00
; #@! TF.GenerationSoftware,Kicad,Pcbnew,(5.1.9)-1
; #@! TF.FileFunction,Plated,1,2,PTH
FMAT,2
INCH
T1C0.0157
T2C0.0315
T3C0.0394
T4C0.1575
%
G90
G05
T1
X1.1508Y-2.052
X1.1535Y-4.2161
X1.1626Y-6.3969
X1.2402Y-4.7047
X1.2402Y-6.8898
X1.2423Y-7.1022
X1.2427Y-7.0156
X1.2431Y-4.9171
X1.2431Y-7.1888
X1.2435Y-4.8305
X1.2439Y-5.0037
X1.2593Y-2.7384
X1.2596Y-2.6518
X1.2598Y-2.5295
X1.26Y-2.825
X1.8268Y-7.189
X1.8465Y-5.0039
X1.9825Y-2.825
T2
X1.0488Y-6.5591
X1.0488Y-6.6591
X1.0529Y-4.375
X1.0529Y-4.475
X1.0571Y-2.2126
X1.0571Y-2.3126
T4
X1.0976Y-7.8854
X1.1024Y-1.148
X1.5069Y-5.8281
X1.5069Y-7.4834
X1.5079Y-1.5092
X1.5079Y-3.1251
X1.5079Y-3.6477
X1.5079Y-5.303
X2.0423Y-5.8281
X2.0433Y-1.5092
X2.0433Y-3.6477
X2.3684Y-7.4834
X2.3694Y-3.1236
X2.3694Y-5.303
X2.5374Y-5.8281
X2.5384Y-1.5092
X2.5384Y-3.6477
X3.1654Y-5.8281
X3.1663Y-1.5092
X3.1663Y-3.6477
X3.4914Y-7.4834
X3.4921Y-5.303
X3.4924Y-3.1236
X3.6604Y-5.8281
X3.6614Y-1.5092
X3.6614Y-3.6477
X4.2892Y-5.8281
X4.2902Y-1.5092
X4.2902Y-3.6477
X4.6153Y-7.4834
X4.6162Y-3.1251
X4.6162Y-5.303
X4.7835Y-5.8281
X4.7844Y-1.5092
X4.7844Y-3.6477
X5.4122Y-5.8281
X5.4132Y-1.5079
X5.4132Y-3.6477
X5.7383Y-7.4834
X5.7393Y-3.1251
X5.7393Y-5.303
X5.9073Y-5.8281
X5.9083Y-1.5079
X5.9083Y-3.6477
X6.2374Y-1.1087
X6.2374Y-7.8465
T3
G00X0.9992Y-7.728
M15
G01X1.1961Y-7.728
M16
G05
G00X1.2008Y-1.3055
M15
G01X1.0039Y-1.3055
M16
G05
G00X1.6053Y-5.9855
M15
G01X1.4085Y-5.9855
M16
G05
G00X1.4085Y-7.3259
M15
G01X1.6053Y-7.3259
M16
G05
G00X1.6063Y-1.6666
M15
G01X1.4094Y-1.6666
M16
G05
G00X1.4094Y-2.9676
M15
G01X1.6063Y-2.9676
M16
G05
G00X1.6063Y-3.8052
M15
G01X1.4094Y-3.8052
M16
G05
G00X1.4094Y-5.1456
M15
G01X1.6063Y-5.1456
M16
G05
G00X2.1407Y-5.9855
M15
G01X1.9439Y-5.9855
M16
G05
G00X2.1417Y-1.6666
M15
G01X1.9449Y-1.6666
M16
G05
G00X2.1417Y-3.8052
M15
G01X1.9449Y-3.8052
M16
G05
G00X2.27Y-7.3259
M15
G01X2.4668Y-7.3259
M16
G05
G00X2.271Y-2.9661
M15
G01X2.4678Y-2.9661
M16
G05
G00X2.271Y-5.1456
M15
G01X2.4678Y-5.1456
M16
G05
G00X2.6358Y-5.9855
M15
G01X2.439Y-5.9855
M16
G05
G00X2.6368Y-1.6666
M15
G01X2.44Y-1.6666
M16
G05
G00X2.6368Y-3.8052
M15
G01X2.44Y-3.8052
M16
G05
G00X3.2638Y-5.9855
M15
G01X3.0669Y-5.9855
M16
G05
G00X3.2648Y-1.6666
M15
G01X3.0679Y-1.6666
M16
G05
G00X3.2648Y-3.8052
M15
G01X3.0679Y-3.8052
M16
G05
G00X3.393Y-7.3259
M15
G01X3.5899Y-7.3259
M16
G05
G00X3.3937Y-5.1456
M15
G01X3.5906Y-5.1456
M16
G05
G00X3.394Y-2.9661
M15
G01X3.5908Y-2.9661
M16
G05
G00X3.7589Y-5.9855
M15
G01X3.562Y-5.9855
M16
G05
G00X3.7598Y-1.6666
M15
G01X3.563Y-1.6666
M16
G05
G00X3.7598Y-3.8052
M15
G01X3.563Y-3.8052
M16
G05
G00X4.3876Y-5.9855
M15
G01X4.1907Y-5.9855
M16
G05
G00X4.3886Y-1.6666
M15
G01X4.1917Y-1.6666
M16
G05
G00X4.3886Y-3.8052
M15
G01X4.1917Y-3.8052
M16
G05
G00X4.5168Y-7.3259
M15
G01X4.7137Y-7.3259
M16
G05
G00X4.5178Y-2.9676
M15
G01X4.7147Y-2.9676
M16
G05
G00X4.5178Y-5.1456
M15
G01X4.7147Y-5.1456
M16
G05
G00X4.8819Y-5.9855
M15
G01X4.685Y-5.9855
M16
G05
G00X4.8829Y-1.6666
M15
G01X4.686Y-1.6666
M16
G05
G00X4.8829Y-3.8052
M15
G01X4.686Y-3.8052
M16
G05
G00X5.5106Y-5.9855
M15
G01X5.3138Y-5.9855
M16
G05
G00X5.5116Y-1.6654
M15
G01X5.3148Y-1.6654
M16
G05
G00X5.5116Y-3.8052
M15
G01X5.3148Y-3.8052
M16
G05
G00X5.6399Y-7.3259
M15
G01X5.8367Y-7.3259
M16
G05
G00X5.6408Y-2.9676
M15
G01X5.8377Y-2.9676
M16
G05
G00X5.6408Y-5.1456
M15
G01X5.8377Y-5.1456
M16
G05
G00X6.0057Y-5.9855
M15
G01X5.8089Y-5.9855
M16
G05
G00X6.0067Y-1.6654
M15
G01X5.8098Y-1.6654
M16
G05
G00X6.0067Y-3.8052
M15
G01X5.8098Y-3.8052
M16
G05
G00X6.3358Y-1.2661
M15
G01X6.139Y-1.2661
M16
G05
G00X6.139Y-7.689
M15
G01X6.3358Y-7.689
M16
G05
T0
M30
