%TF.GenerationSoftware,KiCad,Pcbnew,(5.1.9)-1*%
%TF.CreationDate,2021-07-31T19:16:58+02:00*%
%TF.ProjectId,RelayControls-HPK,52656c61-7943-46f6-9e74-726f6c732d48,V0.1*%
%TF.SameCoordinates,Original*%
%TF.FileFunction,Copper,L1,Top*%
%TF.FilePolarity,Positive*%
%FSLAX46Y46*%
G04 Gerber Fmt 4.6, Leading zero omitted, Abs format (unit mm)*
G04 Created by KiCad (PCBNEW (5.1.9)-1) date 2021-07-31 19:16:58*
%MOMM*%
%LPD*%
G01*
G04 APERTURE LIST*
%TA.AperFunction,SMDPad,CuDef*%
%ADD10R,0.450000X0.600000*%
%TD*%
%TA.AperFunction,SMDPad,CuDef*%
%ADD11R,2.200000X1.200000*%
%TD*%
%TA.AperFunction,SMDPad,CuDef*%
%ADD12R,6.400000X5.800000*%
%TD*%
%TA.AperFunction,ComponentPad*%
%ADD13R,1.600000X1.600000*%
%TD*%
%TA.AperFunction,ComponentPad*%
%ADD14O,1.600000X1.600000*%
%TD*%
%TA.AperFunction,SMDPad,CuDef*%
%ADD15R,2.660000X0.800000*%
%TD*%
%TA.AperFunction,ComponentPad*%
%ADD16C,0.100000*%
%TD*%
%TA.AperFunction,ViaPad*%
%ADD17C,0.800000*%
%TD*%
%TA.AperFunction,Conductor*%
%ADD18C,1.000000*%
%TD*%
%TA.AperFunction,Conductor*%
%ADD19C,3.000000*%
%TD*%
%TA.AperFunction,Conductor*%
%ADD20C,0.250000*%
%TD*%
G04 APERTURE END LIST*
D10*
%TO.P,D3,1*%
%TO.N,Net-(D3-Pad1)*%
X33200000Y-99275000D03*
%TO.P,D3,2*%
%TO.N,Net-(D3-Pad2)*%
X33200000Y-101375000D03*
%TD*%
D11*
%TO.P,Q3,1*%
%TO.N,Net-(D5-Pad2)*%
X30824999Y-157054999D03*
%TO.P,Q3,2*%
%TO.N,Net-(D5-Pad1)*%
X30824999Y-154774999D03*
%TO.P,Q3,3*%
%TO.N,R3+*%
X30824999Y-152494999D03*
D12*
%TO.P,Q3,2*%
%TO.N,Net-(D5-Pad1)*%
X24524999Y-154774999D03*
%TD*%
%TO.P,C1,2*%
%TO.N,R1-*%
%TA.AperFunction,SMDPad,CuDef*%
G36*
G01*
X120500001Y-37325000D02*
X119199999Y-37325000D01*
G75*
G02*
X118950000Y-37075001I0J249999D01*
G01*
X118950000Y-36424999D01*
G75*
G02*
X119199999Y-36175000I249999J0D01*
G01*
X120500001Y-36175000D01*
G75*
G02*
X120750000Y-36424999I0J-249999D01*
G01*
X120750000Y-37075001D01*
G75*
G02*
X120500001Y-37325000I-249999J0D01*
G01*
G37*
%TD.AperFunction*%
%TO.P,C1,1*%
%TO.N,NC1*%
%TA.AperFunction,SMDPad,CuDef*%
G36*
G01*
X120500001Y-40275000D02*
X119199999Y-40275000D01*
G75*
G02*
X118950000Y-40025001I0J249999D01*
G01*
X118950000Y-39374999D01*
G75*
G02*
X119199999Y-39125000I249999J0D01*
G01*
X120500001Y-39125000D01*
G75*
G02*
X120750000Y-39374999I0J-249999D01*
G01*
X120750000Y-40025001D01*
G75*
G02*
X120500001Y-40275000I-249999J0D01*
G01*
G37*
%TD.AperFunction*%
%TD*%
%TO.P,C2,1*%
%TO.N,NC1*%
%TA.AperFunction,SMDPad,CuDef*%
G36*
G01*
X51425001Y-40275000D02*
X50124999Y-40275000D01*
G75*
G02*
X49875000Y-40025001I0J249999D01*
G01*
X49875000Y-39374999D01*
G75*
G02*
X50124999Y-39125000I249999J0D01*
G01*
X51425001Y-39125000D01*
G75*
G02*
X51675000Y-39374999I0J-249999D01*
G01*
X51675000Y-40025001D01*
G75*
G02*
X51425001Y-40275000I-249999J0D01*
G01*
G37*
%TD.AperFunction*%
%TO.P,C2,2*%
%TO.N,R1-*%
%TA.AperFunction,SMDPad,CuDef*%
G36*
G01*
X51425001Y-37325000D02*
X50124999Y-37325000D01*
G75*
G02*
X49875000Y-37075001I0J249999D01*
G01*
X49875000Y-36424999D01*
G75*
G02*
X50124999Y-36175000I249999J0D01*
G01*
X51425001Y-36175000D01*
G75*
G02*
X51675000Y-36424999I0J-249999D01*
G01*
X51675000Y-37075001D01*
G75*
G02*
X51425001Y-37325000I-249999J0D01*
G01*
G37*
%TD.AperFunction*%
%TD*%
%TO.P,C3,2*%
%TO.N,R1-*%
%TA.AperFunction,SMDPad,CuDef*%
G36*
G01*
X86025001Y-37325000D02*
X84724999Y-37325000D01*
G75*
G02*
X84475000Y-37075001I0J249999D01*
G01*
X84475000Y-36424999D01*
G75*
G02*
X84724999Y-36175000I249999J0D01*
G01*
X86025001Y-36175000D01*
G75*
G02*
X86275000Y-36424999I0J-249999D01*
G01*
X86275000Y-37075001D01*
G75*
G02*
X86025001Y-37325000I-249999J0D01*
G01*
G37*
%TD.AperFunction*%
%TO.P,C3,1*%
%TO.N,NC1*%
%TA.AperFunction,SMDPad,CuDef*%
G36*
G01*
X86025001Y-40275000D02*
X84724999Y-40275000D01*
G75*
G02*
X84475000Y-40025001I0J249999D01*
G01*
X84475000Y-39374999D01*
G75*
G02*
X84724999Y-39125000I249999J0D01*
G01*
X86025001Y-39125000D01*
G75*
G02*
X86275000Y-39374999I0J-249999D01*
G01*
X86275000Y-40025001D01*
G75*
G02*
X86025001Y-40275000I-249999J0D01*
G01*
G37*
%TD.AperFunction*%
%TD*%
%TO.P,C4,2*%
%TO.N,R1-*%
%TA.AperFunction,SMDPad,CuDef*%
G36*
G01*
X155025001Y-37325000D02*
X153724999Y-37325000D01*
G75*
G02*
X153475000Y-37075001I0J249999D01*
G01*
X153475000Y-36424999D01*
G75*
G02*
X153724999Y-36175000I249999J0D01*
G01*
X155025001Y-36175000D01*
G75*
G02*
X155275000Y-36424999I0J-249999D01*
G01*
X155275000Y-37075001D01*
G75*
G02*
X155025001Y-37325000I-249999J0D01*
G01*
G37*
%TD.AperFunction*%
%TO.P,C4,1*%
%TO.N,NC1*%
%TA.AperFunction,SMDPad,CuDef*%
G36*
G01*
X155025001Y-40275000D02*
X153724999Y-40275000D01*
G75*
G02*
X153475000Y-40025001I0J249999D01*
G01*
X153475000Y-39374999D01*
G75*
G02*
X153724999Y-39125000I249999J0D01*
G01*
X155025001Y-39125000D01*
G75*
G02*
X155275000Y-39374999I0J-249999D01*
G01*
X155275000Y-40025001D01*
G75*
G02*
X155025001Y-40275000I-249999J0D01*
G01*
G37*
%TD.AperFunction*%
%TD*%
%TO.P,C5,2*%
%TO.N,NO1*%
%TA.AperFunction,SMDPad,CuDef*%
G36*
G01*
X135799999Y-39125000D02*
X137100001Y-39125000D01*
G75*
G02*
X137350000Y-39374999I0J-249999D01*
G01*
X137350000Y-40025001D01*
G75*
G02*
X137100001Y-40275000I-249999J0D01*
G01*
X135799999Y-40275000D01*
G75*
G02*
X135550000Y-40025001I0J249999D01*
G01*
X135550000Y-39374999D01*
G75*
G02*
X135799999Y-39125000I249999J0D01*
G01*
G37*
%TD.AperFunction*%
%TO.P,C5,1*%
%TO.N,R1-*%
%TA.AperFunction,SMDPad,CuDef*%
G36*
G01*
X135799999Y-36175000D02*
X137100001Y-36175000D01*
G75*
G02*
X137350000Y-36424999I0J-249999D01*
G01*
X137350000Y-37075001D01*
G75*
G02*
X137100001Y-37325000I-249999J0D01*
G01*
X135799999Y-37325000D01*
G75*
G02*
X135550000Y-37075001I0J249999D01*
G01*
X135550000Y-36424999D01*
G75*
G02*
X135799999Y-36175000I249999J0D01*
G01*
G37*
%TD.AperFunction*%
%TD*%
%TO.P,C6,1*%
%TO.N,R1-*%
%TA.AperFunction,SMDPad,CuDef*%
G36*
G01*
X66749999Y-36175000D02*
X68050001Y-36175000D01*
G75*
G02*
X68300000Y-36424999I0J-249999D01*
G01*
X68300000Y-37075001D01*
G75*
G02*
X68050001Y-37325000I-249999J0D01*
G01*
X66749999Y-37325000D01*
G75*
G02*
X66500000Y-37075001I0J249999D01*
G01*
X66500000Y-36424999D01*
G75*
G02*
X66749999Y-36175000I249999J0D01*
G01*
G37*
%TD.AperFunction*%
%TO.P,C6,2*%
%TO.N,NO1*%
%TA.AperFunction,SMDPad,CuDef*%
G36*
G01*
X66749999Y-39125000D02*
X68050001Y-39125000D01*
G75*
G02*
X68300000Y-39374999I0J-249999D01*
G01*
X68300000Y-40025001D01*
G75*
G02*
X68050001Y-40275000I-249999J0D01*
G01*
X66749999Y-40275000D01*
G75*
G02*
X66500000Y-40025001I0J249999D01*
G01*
X66500000Y-39374999D01*
G75*
G02*
X66749999Y-39125000I249999J0D01*
G01*
G37*
%TD.AperFunction*%
%TD*%
%TO.P,C7,2*%
%TO.N,NO1*%
%TA.AperFunction,SMDPad,CuDef*%
G36*
G01*
X98819999Y-39125000D02*
X100120001Y-39125000D01*
G75*
G02*
X100370000Y-39374999I0J-249999D01*
G01*
X100370000Y-40025001D01*
G75*
G02*
X100120001Y-40275000I-249999J0D01*
G01*
X98819999Y-40275000D01*
G75*
G02*
X98570000Y-40025001I0J249999D01*
G01*
X98570000Y-39374999D01*
G75*
G02*
X98819999Y-39125000I249999J0D01*
G01*
G37*
%TD.AperFunction*%
%TO.P,C7,1*%
%TO.N,R1-*%
%TA.AperFunction,SMDPad,CuDef*%
G36*
G01*
X98819999Y-36175000D02*
X100120001Y-36175000D01*
G75*
G02*
X100370000Y-36424999I0J-249999D01*
G01*
X100370000Y-37075001D01*
G75*
G02*
X100120001Y-37325000I-249999J0D01*
G01*
X98819999Y-37325000D01*
G75*
G02*
X98570000Y-37075001I0J249999D01*
G01*
X98570000Y-36424999D01*
G75*
G02*
X98819999Y-36175000I249999J0D01*
G01*
G37*
%TD.AperFunction*%
%TD*%
%TO.P,C8,1*%
%TO.N,R1-*%
%TA.AperFunction,SMDPad,CuDef*%
G36*
G01*
X170349999Y-36175000D02*
X171650001Y-36175000D01*
G75*
G02*
X171900000Y-36424999I0J-249999D01*
G01*
X171900000Y-37075001D01*
G75*
G02*
X171650001Y-37325000I-249999J0D01*
G01*
X170349999Y-37325000D01*
G75*
G02*
X170100000Y-37075001I0J249999D01*
G01*
X170100000Y-36424999D01*
G75*
G02*
X170349999Y-36175000I249999J0D01*
G01*
G37*
%TD.AperFunction*%
%TO.P,C8,2*%
%TO.N,NO1*%
%TA.AperFunction,SMDPad,CuDef*%
G36*
G01*
X170349999Y-39125000D02*
X171650001Y-39125000D01*
G75*
G02*
X171900000Y-39374999I0J-249999D01*
G01*
X171900000Y-40025001D01*
G75*
G02*
X171650001Y-40275000I-249999J0D01*
G01*
X170349999Y-40275000D01*
G75*
G02*
X170100000Y-40025001I0J249999D01*
G01*
X170100000Y-39374999D01*
G75*
G02*
X170349999Y-39125000I249999J0D01*
G01*
G37*
%TD.AperFunction*%
%TD*%
%TO.P,C9,2*%
%TO.N,R2-*%
%TA.AperFunction,SMDPad,CuDef*%
G36*
G01*
X120875001Y-92725000D02*
X119574999Y-92725000D01*
G75*
G02*
X119325000Y-92475001I0J249999D01*
G01*
X119325000Y-91824999D01*
G75*
G02*
X119574999Y-91575000I249999J0D01*
G01*
X120875001Y-91575000D01*
G75*
G02*
X121125000Y-91824999I0J-249999D01*
G01*
X121125000Y-92475001D01*
G75*
G02*
X120875001Y-92725000I-249999J0D01*
G01*
G37*
%TD.AperFunction*%
%TO.P,C9,1*%
%TO.N,NC2*%
%TA.AperFunction,SMDPad,CuDef*%
G36*
G01*
X120875001Y-95675000D02*
X119574999Y-95675000D01*
G75*
G02*
X119325000Y-95425001I0J249999D01*
G01*
X119325000Y-94774999D01*
G75*
G02*
X119574999Y-94525000I249999J0D01*
G01*
X120875001Y-94525000D01*
G75*
G02*
X121125000Y-94774999I0J-249999D01*
G01*
X121125000Y-95425001D01*
G75*
G02*
X120875001Y-95675000I-249999J0D01*
G01*
G37*
%TD.AperFunction*%
%TD*%
%TO.P,C10,1*%
%TO.N,NC2*%
%TA.AperFunction,SMDPad,CuDef*%
G36*
G01*
X51825001Y-95675000D02*
X50524999Y-95675000D01*
G75*
G02*
X50275000Y-95425001I0J249999D01*
G01*
X50275000Y-94774999D01*
G75*
G02*
X50524999Y-94525000I249999J0D01*
G01*
X51825001Y-94525000D01*
G75*
G02*
X52075000Y-94774999I0J-249999D01*
G01*
X52075000Y-95425001D01*
G75*
G02*
X51825001Y-95675000I-249999J0D01*
G01*
G37*
%TD.AperFunction*%
%TO.P,C10,2*%
%TO.N,R2-*%
%TA.AperFunction,SMDPad,CuDef*%
G36*
G01*
X51825001Y-92725000D02*
X50524999Y-92725000D01*
G75*
G02*
X50275000Y-92475001I0J249999D01*
G01*
X50275000Y-91824999D01*
G75*
G02*
X50524999Y-91575000I249999J0D01*
G01*
X51825001Y-91575000D01*
G75*
G02*
X52075000Y-91824999I0J-249999D01*
G01*
X52075000Y-92475001D01*
G75*
G02*
X51825001Y-92725000I-249999J0D01*
G01*
G37*
%TD.AperFunction*%
%TD*%
%TO.P,C11,1*%
%TO.N,NC2*%
%TA.AperFunction,SMDPad,CuDef*%
G36*
G01*
X86325001Y-95675000D02*
X85024999Y-95675000D01*
G75*
G02*
X84775000Y-95425001I0J249999D01*
G01*
X84775000Y-94774999D01*
G75*
G02*
X85024999Y-94525000I249999J0D01*
G01*
X86325001Y-94525000D01*
G75*
G02*
X86575000Y-94774999I0J-249999D01*
G01*
X86575000Y-95425001D01*
G75*
G02*
X86325001Y-95675000I-249999J0D01*
G01*
G37*
%TD.AperFunction*%
%TO.P,C11,2*%
%TO.N,R2-*%
%TA.AperFunction,SMDPad,CuDef*%
G36*
G01*
X86325001Y-92725000D02*
X85024999Y-92725000D01*
G75*
G02*
X84775000Y-92475001I0J249999D01*
G01*
X84775000Y-91824999D01*
G75*
G02*
X85024999Y-91575000I249999J0D01*
G01*
X86325001Y-91575000D01*
G75*
G02*
X86575000Y-91824999I0J-249999D01*
G01*
X86575000Y-92475001D01*
G75*
G02*
X86325001Y-92725000I-249999J0D01*
G01*
G37*
%TD.AperFunction*%
%TD*%
%TO.P,C12,2*%
%TO.N,R2-*%
%TA.AperFunction,SMDPad,CuDef*%
G36*
G01*
X155390001Y-92790000D02*
X154089999Y-92790000D01*
G75*
G02*
X153840000Y-92540001I0J249999D01*
G01*
X153840000Y-91889999D01*
G75*
G02*
X154089999Y-91640000I249999J0D01*
G01*
X155390001Y-91640000D01*
G75*
G02*
X155640000Y-91889999I0J-249999D01*
G01*
X155640000Y-92540001D01*
G75*
G02*
X155390001Y-92790000I-249999J0D01*
G01*
G37*
%TD.AperFunction*%
%TO.P,C12,1*%
%TO.N,NC2*%
%TA.AperFunction,SMDPad,CuDef*%
G36*
G01*
X155390001Y-95740000D02*
X154089999Y-95740000D01*
G75*
G02*
X153840000Y-95490001I0J249999D01*
G01*
X153840000Y-94839999D01*
G75*
G02*
X154089999Y-94590000I249999J0D01*
G01*
X155390001Y-94590000D01*
G75*
G02*
X155640000Y-94839999I0J-249999D01*
G01*
X155640000Y-95490001D01*
G75*
G02*
X155390001Y-95740000I-249999J0D01*
G01*
G37*
%TD.AperFunction*%
%TD*%
%TO.P,C13,1*%
%TO.N,R2-*%
%TA.AperFunction,SMDPad,CuDef*%
G36*
G01*
X135924999Y-91575000D02*
X137225001Y-91575000D01*
G75*
G02*
X137475000Y-91824999I0J-249999D01*
G01*
X137475000Y-92475001D01*
G75*
G02*
X137225001Y-92725000I-249999J0D01*
G01*
X135924999Y-92725000D01*
G75*
G02*
X135675000Y-92475001I0J249999D01*
G01*
X135675000Y-91824999D01*
G75*
G02*
X135924999Y-91575000I249999J0D01*
G01*
G37*
%TD.AperFunction*%
%TO.P,C13,2*%
%TO.N,NO2*%
%TA.AperFunction,SMDPad,CuDef*%
G36*
G01*
X135924999Y-94525000D02*
X137225001Y-94525000D01*
G75*
G02*
X137475000Y-94774999I0J-249999D01*
G01*
X137475000Y-95425001D01*
G75*
G02*
X137225001Y-95675000I-249999J0D01*
G01*
X135924999Y-95675000D01*
G75*
G02*
X135675000Y-95425001I0J249999D01*
G01*
X135675000Y-94774999D01*
G75*
G02*
X135924999Y-94525000I249999J0D01*
G01*
G37*
%TD.AperFunction*%
%TD*%
%TO.P,C14,1*%
%TO.N,R2-*%
%TA.AperFunction,SMDPad,CuDef*%
G36*
G01*
X66874999Y-91575000D02*
X68175001Y-91575000D01*
G75*
G02*
X68425000Y-91824999I0J-249999D01*
G01*
X68425000Y-92475001D01*
G75*
G02*
X68175001Y-92725000I-249999J0D01*
G01*
X66874999Y-92725000D01*
G75*
G02*
X66625000Y-92475001I0J249999D01*
G01*
X66625000Y-91824999D01*
G75*
G02*
X66874999Y-91575000I249999J0D01*
G01*
G37*
%TD.AperFunction*%
%TO.P,C14,2*%
%TO.N,NO2*%
%TA.AperFunction,SMDPad,CuDef*%
G36*
G01*
X66874999Y-94525000D02*
X68175001Y-94525000D01*
G75*
G02*
X68425000Y-94774999I0J-249999D01*
G01*
X68425000Y-95425001D01*
G75*
G02*
X68175001Y-95675000I-249999J0D01*
G01*
X66874999Y-95675000D01*
G75*
G02*
X66625000Y-95425001I0J249999D01*
G01*
X66625000Y-94774999D01*
G75*
G02*
X66874999Y-94525000I249999J0D01*
G01*
G37*
%TD.AperFunction*%
%TD*%
%TO.P,C15,1*%
%TO.N,R2-*%
%TA.AperFunction,SMDPad,CuDef*%
G36*
G01*
X101424999Y-91575000D02*
X102725001Y-91575000D01*
G75*
G02*
X102975000Y-91824999I0J-249999D01*
G01*
X102975000Y-92475001D01*
G75*
G02*
X102725001Y-92725000I-249999J0D01*
G01*
X101424999Y-92725000D01*
G75*
G02*
X101175000Y-92475001I0J249999D01*
G01*
X101175000Y-91824999D01*
G75*
G02*
X101424999Y-91575000I249999J0D01*
G01*
G37*
%TD.AperFunction*%
%TO.P,C15,2*%
%TO.N,NO2*%
%TA.AperFunction,SMDPad,CuDef*%
G36*
G01*
X101424999Y-94525000D02*
X102725001Y-94525000D01*
G75*
G02*
X102975000Y-94774999I0J-249999D01*
G01*
X102975000Y-95425001D01*
G75*
G02*
X102725001Y-95675000I-249999J0D01*
G01*
X101424999Y-95675000D01*
G75*
G02*
X101175000Y-95425001I0J249999D01*
G01*
X101175000Y-94774999D01*
G75*
G02*
X101424999Y-94525000I249999J0D01*
G01*
G37*
%TD.AperFunction*%
%TD*%
%TO.P,C16,1*%
%TO.N,R2-*%
%TA.AperFunction,SMDPad,CuDef*%
G36*
G01*
X170669999Y-91640000D02*
X171970001Y-91640000D01*
G75*
G02*
X172220000Y-91889999I0J-249999D01*
G01*
X172220000Y-92540001D01*
G75*
G02*
X171970001Y-92790000I-249999J0D01*
G01*
X170669999Y-92790000D01*
G75*
G02*
X170420000Y-92540001I0J249999D01*
G01*
X170420000Y-91889999D01*
G75*
G02*
X170669999Y-91640000I249999J0D01*
G01*
G37*
%TD.AperFunction*%
%TO.P,C16,2*%
%TO.N,NO2*%
%TA.AperFunction,SMDPad,CuDef*%
G36*
G01*
X170669999Y-94590000D02*
X171970001Y-94590000D01*
G75*
G02*
X172220000Y-94839999I0J-249999D01*
G01*
X172220000Y-95490001D01*
G75*
G02*
X171970001Y-95740000I-249999J0D01*
G01*
X170669999Y-95740000D01*
G75*
G02*
X170420000Y-95490001I0J249999D01*
G01*
X170420000Y-94839999D01*
G75*
G02*
X170669999Y-94590000I249999J0D01*
G01*
G37*
%TD.AperFunction*%
%TD*%
%TO.P,C17,1*%
%TO.N,NC3*%
%TA.AperFunction,SMDPad,CuDef*%
G36*
G01*
X120825001Y-151075000D02*
X119524999Y-151075000D01*
G75*
G02*
X119275000Y-150825001I0J249999D01*
G01*
X119275000Y-150174999D01*
G75*
G02*
X119524999Y-149925000I249999J0D01*
G01*
X120825001Y-149925000D01*
G75*
G02*
X121075000Y-150174999I0J-249999D01*
G01*
X121075000Y-150825001D01*
G75*
G02*
X120825001Y-151075000I-249999J0D01*
G01*
G37*
%TD.AperFunction*%
%TO.P,C17,2*%
%TO.N,R3-*%
%TA.AperFunction,SMDPad,CuDef*%
G36*
G01*
X120825001Y-148125000D02*
X119524999Y-148125000D01*
G75*
G02*
X119275000Y-147875001I0J249999D01*
G01*
X119275000Y-147224999D01*
G75*
G02*
X119524999Y-146975000I249999J0D01*
G01*
X120825001Y-146975000D01*
G75*
G02*
X121075000Y-147224999I0J-249999D01*
G01*
X121075000Y-147875001D01*
G75*
G02*
X120825001Y-148125000I-249999J0D01*
G01*
G37*
%TD.AperFunction*%
%TD*%
%TO.P,C18,2*%
%TO.N,R3-*%
%TA.AperFunction,SMDPad,CuDef*%
G36*
G01*
X51800001Y-148125000D02*
X50499999Y-148125000D01*
G75*
G02*
X50250000Y-147875001I0J249999D01*
G01*
X50250000Y-147224999D01*
G75*
G02*
X50499999Y-146975000I249999J0D01*
G01*
X51800001Y-146975000D01*
G75*
G02*
X52050000Y-147224999I0J-249999D01*
G01*
X52050000Y-147875001D01*
G75*
G02*
X51800001Y-148125000I-249999J0D01*
G01*
G37*
%TD.AperFunction*%
%TO.P,C18,1*%
%TO.N,NC3*%
%TA.AperFunction,SMDPad,CuDef*%
G36*
G01*
X51800001Y-151075000D02*
X50499999Y-151075000D01*
G75*
G02*
X50250000Y-150825001I0J249999D01*
G01*
X50250000Y-150174999D01*
G75*
G02*
X50499999Y-149925000I249999J0D01*
G01*
X51800001Y-149925000D01*
G75*
G02*
X52050000Y-150174999I0J-249999D01*
G01*
X52050000Y-150825001D01*
G75*
G02*
X51800001Y-151075000I-249999J0D01*
G01*
G37*
%TD.AperFunction*%
%TD*%
%TO.P,C19,2*%
%TO.N,R3-*%
%TA.AperFunction,SMDPad,CuDef*%
G36*
G01*
X86325001Y-148125000D02*
X85024999Y-148125000D01*
G75*
G02*
X84775000Y-147875001I0J249999D01*
G01*
X84775000Y-147224999D01*
G75*
G02*
X85024999Y-146975000I249999J0D01*
G01*
X86325001Y-146975000D01*
G75*
G02*
X86575000Y-147224999I0J-249999D01*
G01*
X86575000Y-147875001D01*
G75*
G02*
X86325001Y-148125000I-249999J0D01*
G01*
G37*
%TD.AperFunction*%
%TO.P,C19,1*%
%TO.N,NC3*%
%TA.AperFunction,SMDPad,CuDef*%
G36*
G01*
X86325001Y-151075000D02*
X85024999Y-151075000D01*
G75*
G02*
X84775000Y-150825001I0J249999D01*
G01*
X84775000Y-150174999D01*
G75*
G02*
X85024999Y-149925000I249999J0D01*
G01*
X86325001Y-149925000D01*
G75*
G02*
X86575000Y-150174999I0J-249999D01*
G01*
X86575000Y-150825001D01*
G75*
G02*
X86325001Y-151075000I-249999J0D01*
G01*
G37*
%TD.AperFunction*%
%TD*%
%TO.P,C20,1*%
%TO.N,NC3*%
%TA.AperFunction,SMDPad,CuDef*%
G36*
G01*
X155410001Y-151075000D02*
X154109999Y-151075000D01*
G75*
G02*
X153860000Y-150825001I0J249999D01*
G01*
X153860000Y-150174999D01*
G75*
G02*
X154109999Y-149925000I249999J0D01*
G01*
X155410001Y-149925000D01*
G75*
G02*
X155660000Y-150174999I0J-249999D01*
G01*
X155660000Y-150825001D01*
G75*
G02*
X155410001Y-151075000I-249999J0D01*
G01*
G37*
%TD.AperFunction*%
%TO.P,C20,2*%
%TO.N,R3-*%
%TA.AperFunction,SMDPad,CuDef*%
G36*
G01*
X155410001Y-148125000D02*
X154109999Y-148125000D01*
G75*
G02*
X153860000Y-147875001I0J249999D01*
G01*
X153860000Y-147224999D01*
G75*
G02*
X154109999Y-146975000I249999J0D01*
G01*
X155410001Y-146975000D01*
G75*
G02*
X155660000Y-147224999I0J-249999D01*
G01*
X155660000Y-147875001D01*
G75*
G02*
X155410001Y-148125000I-249999J0D01*
G01*
G37*
%TD.AperFunction*%
%TD*%
%TO.P,C21,2*%
%TO.N,NO3*%
%TA.AperFunction,SMDPad,CuDef*%
G36*
G01*
X136099999Y-149925000D02*
X137400001Y-149925000D01*
G75*
G02*
X137650000Y-150174999I0J-249999D01*
G01*
X137650000Y-150825001D01*
G75*
G02*
X137400001Y-151075000I-249999J0D01*
G01*
X136099999Y-151075000D01*
G75*
G02*
X135850000Y-150825001I0J249999D01*
G01*
X135850000Y-150174999D01*
G75*
G02*
X136099999Y-149925000I249999J0D01*
G01*
G37*
%TD.AperFunction*%
%TO.P,C21,1*%
%TO.N,R3-*%
%TA.AperFunction,SMDPad,CuDef*%
G36*
G01*
X136099999Y-146975000D02*
X137400001Y-146975000D01*
G75*
G02*
X137650000Y-147224999I0J-249999D01*
G01*
X137650000Y-147875001D01*
G75*
G02*
X137400001Y-148125000I-249999J0D01*
G01*
X136099999Y-148125000D01*
G75*
G02*
X135850000Y-147875001I0J249999D01*
G01*
X135850000Y-147224999D01*
G75*
G02*
X136099999Y-146975000I249999J0D01*
G01*
G37*
%TD.AperFunction*%
%TD*%
%TO.P,C22,2*%
%TO.N,NO3*%
%TA.AperFunction,SMDPad,CuDef*%
G36*
G01*
X66799999Y-149925000D02*
X68100001Y-149925000D01*
G75*
G02*
X68350000Y-150174999I0J-249999D01*
G01*
X68350000Y-150825001D01*
G75*
G02*
X68100001Y-151075000I-249999J0D01*
G01*
X66799999Y-151075000D01*
G75*
G02*
X66550000Y-150825001I0J249999D01*
G01*
X66550000Y-150174999D01*
G75*
G02*
X66799999Y-149925000I249999J0D01*
G01*
G37*
%TD.AperFunction*%
%TO.P,C22,1*%
%TO.N,R3-*%
%TA.AperFunction,SMDPad,CuDef*%
G36*
G01*
X66799999Y-146975000D02*
X68100001Y-146975000D01*
G75*
G02*
X68350000Y-147224999I0J-249999D01*
G01*
X68350000Y-147875001D01*
G75*
G02*
X68100001Y-148125000I-249999J0D01*
G01*
X66799999Y-148125000D01*
G75*
G02*
X66550000Y-147875001I0J249999D01*
G01*
X66550000Y-147224999D01*
G75*
G02*
X66799999Y-146975000I249999J0D01*
G01*
G37*
%TD.AperFunction*%
%TD*%
%TO.P,C23,1*%
%TO.N,R3-*%
%TA.AperFunction,SMDPad,CuDef*%
G36*
G01*
X101474999Y-146975000D02*
X102775001Y-146975000D01*
G75*
G02*
X103025000Y-147224999I0J-249999D01*
G01*
X103025000Y-147875001D01*
G75*
G02*
X102775001Y-148125000I-249999J0D01*
G01*
X101474999Y-148125000D01*
G75*
G02*
X101225000Y-147875001I0J249999D01*
G01*
X101225000Y-147224999D01*
G75*
G02*
X101474999Y-146975000I249999J0D01*
G01*
G37*
%TD.AperFunction*%
%TO.P,C23,2*%
%TO.N,NO3*%
%TA.AperFunction,SMDPad,CuDef*%
G36*
G01*
X101474999Y-149925000D02*
X102775001Y-149925000D01*
G75*
G02*
X103025000Y-150174999I0J-249999D01*
G01*
X103025000Y-150825001D01*
G75*
G02*
X102775001Y-151075000I-249999J0D01*
G01*
X101474999Y-151075000D01*
G75*
G02*
X101225000Y-150825001I0J249999D01*
G01*
X101225000Y-150174999D01*
G75*
G02*
X101474999Y-149925000I249999J0D01*
G01*
G37*
%TD.AperFunction*%
%TD*%
%TO.P,C24,2*%
%TO.N,NO3*%
%TA.AperFunction,SMDPad,CuDef*%
G36*
G01*
X170459999Y-149950000D02*
X171760001Y-149950000D01*
G75*
G02*
X172010000Y-150199999I0J-249999D01*
G01*
X172010000Y-150850001D01*
G75*
G02*
X171760001Y-151100000I-249999J0D01*
G01*
X170459999Y-151100000D01*
G75*
G02*
X170210000Y-150850001I0J249999D01*
G01*
X170210000Y-150199999D01*
G75*
G02*
X170459999Y-149950000I249999J0D01*
G01*
G37*
%TD.AperFunction*%
%TO.P,C24,1*%
%TO.N,R3-*%
%TA.AperFunction,SMDPad,CuDef*%
G36*
G01*
X170459999Y-147000000D02*
X171760001Y-147000000D01*
G75*
G02*
X172010000Y-147249999I0J-249999D01*
G01*
X172010000Y-147900001D01*
G75*
G02*
X171760001Y-148150000I-249999J0D01*
G01*
X170459999Y-148150000D01*
G75*
G02*
X170210000Y-147900001I0J249999D01*
G01*
X170210000Y-147249999D01*
G75*
G02*
X170459999Y-147000000I249999J0D01*
G01*
G37*
%TD.AperFunction*%
%TD*%
D13*
%TO.P,D2,1*%
%TO.N,Net-(D2-Pad1)*%
X26850000Y-56200000D03*
D14*
%TO.P,D2,2*%
%TO.N,R1+*%
X26850000Y-58740000D03*
%TD*%
%TO.P,D4,2*%
%TO.N,R2+*%
X26743629Y-113665000D03*
D13*
%TO.P,D4,1*%
%TO.N,Net-(D4-Pad1)*%
X26743629Y-111125000D03*
%TD*%
%TO.P,D6,1*%
%TO.N,Net-(D6-Pad1)*%
X26638629Y-166600000D03*
D14*
%TO.P,D6,2*%
%TO.N,R3+*%
X26638629Y-169140000D03*
%TD*%
D15*
%TO.P,K1,1*%
%TO.N,R1+*%
X22410001Y-64154999D03*
%TO.P,K1,2*%
%TO.N,NC1*%
X22410001Y-67354999D03*
%TO.P,K1,3*%
%TO.N,COM1*%
X22410001Y-69554999D03*
%TO.P,K1,4*%
%TO.N,NO1*%
X22410001Y-71754999D03*
%TO.P,K1,5*%
X29150001Y-71754999D03*
%TO.P,K1,6*%
%TO.N,COM1*%
X29150001Y-69554999D03*
%TO.P,K1,7*%
%TO.N,NC1*%
X29150001Y-67354999D03*
%TO.P,K1,8*%
%TO.N,R1-*%
X29150001Y-64154999D03*
%TD*%
%TO.P,K2,1*%
%TO.N,R2+*%
X22260000Y-119500000D03*
%TO.P,K2,2*%
%TO.N,NC2*%
X22260000Y-122700000D03*
%TO.P,K2,3*%
%TO.N,COM2*%
X22260000Y-124900000D03*
%TO.P,K2,4*%
%TO.N,NO2*%
X22260000Y-127100000D03*
%TO.P,K2,5*%
X29000000Y-127100000D03*
%TO.P,K2,6*%
%TO.N,COM2*%
X29000000Y-124900000D03*
%TO.P,K2,7*%
%TO.N,NC2*%
X29000000Y-122700000D03*
%TO.P,K2,8*%
%TO.N,R2-*%
X29000000Y-119500000D03*
%TD*%
%TO.P,K3,8*%
%TO.N,R3-*%
X29000000Y-175000000D03*
%TO.P,K3,7*%
%TO.N,NC3*%
X29000000Y-178200000D03*
%TO.P,K3,6*%
%TO.N,COM3*%
X29000000Y-180400000D03*
%TO.P,K3,5*%
%TO.N,NO3*%
X29000000Y-182600000D03*
%TO.P,K3,4*%
X22260000Y-182600000D03*
%TO.P,K3,3*%
%TO.N,COM3*%
X22260000Y-180400000D03*
%TO.P,K3,2*%
%TO.N,NC3*%
X22260000Y-178200000D03*
%TO.P,K3,1*%
%TO.N,R3+*%
X22260000Y-175000000D03*
%TD*%
%TO.P,R1,2*%
%TO.N,R1-*%
%TA.AperFunction,SMDPad,CuDef*%
G36*
G01*
X26831371Y-52700003D02*
X26831371Y-51449997D01*
G75*
G02*
X27081368Y-51200000I249997J0D01*
G01*
X27706374Y-51200000D01*
G75*
G02*
X27956371Y-51449997I0J-249997D01*
G01*
X27956371Y-52700003D01*
G75*
G02*
X27706374Y-52950000I-249997J0D01*
G01*
X27081368Y-52950000D01*
G75*
G02*
X26831371Y-52700003I0J249997D01*
G01*
G37*
%TD.AperFunction*%
%TO.P,R1,1*%
%TO.N,Net-(D1-Pad2)*%
%TA.AperFunction,SMDPad,CuDef*%
G36*
G01*
X23906371Y-52700003D02*
X23906371Y-51449997D01*
G75*
G02*
X24156368Y-51200000I249997J0D01*
G01*
X24781374Y-51200000D01*
G75*
G02*
X25031371Y-51449997I0J-249997D01*
G01*
X25031371Y-52700003D01*
G75*
G02*
X24781374Y-52950000I-249997J0D01*
G01*
X24156368Y-52950000D01*
G75*
G02*
X23906371Y-52700003I0J249997D01*
G01*
G37*
%TD.AperFunction*%
%TD*%
%TO.P,R2,2*%
%TO.N,NO1*%
%TA.AperFunction,SMDPad,CuDef*%
G36*
G01*
X64299997Y-39125000D02*
X65550003Y-39125000D01*
G75*
G02*
X65800000Y-39374997I0J-249997D01*
G01*
X65800000Y-40000003D01*
G75*
G02*
X65550003Y-40250000I-249997J0D01*
G01*
X64299997Y-40250000D01*
G75*
G02*
X64050000Y-40000003I0J249997D01*
G01*
X64050000Y-39374997D01*
G75*
G02*
X64299997Y-39125000I249997J0D01*
G01*
G37*
%TD.AperFunction*%
%TO.P,R2,1*%
%TO.N,R1-*%
%TA.AperFunction,SMDPad,CuDef*%
G36*
G01*
X64299997Y-36200000D02*
X65550003Y-36200000D01*
G75*
G02*
X65800000Y-36449997I0J-249997D01*
G01*
X65800000Y-37075003D01*
G75*
G02*
X65550003Y-37325000I-249997J0D01*
G01*
X64299997Y-37325000D01*
G75*
G02*
X64050000Y-37075003I0J249997D01*
G01*
X64050000Y-36449997D01*
G75*
G02*
X64299997Y-36200000I249997J0D01*
G01*
G37*
%TD.AperFunction*%
%TD*%
%TO.P,R3,1*%
%TO.N,NC1*%
%TA.AperFunction,SMDPad,CuDef*%
G36*
G01*
X118000003Y-40250000D02*
X116749997Y-40250000D01*
G75*
G02*
X116500000Y-40000003I0J249997D01*
G01*
X116500000Y-39374997D01*
G75*
G02*
X116749997Y-39125000I249997J0D01*
G01*
X118000003Y-39125000D01*
G75*
G02*
X118250000Y-39374997I0J-249997D01*
G01*
X118250000Y-40000003D01*
G75*
G02*
X118000003Y-40250000I-249997J0D01*
G01*
G37*
%TD.AperFunction*%
%TO.P,R3,2*%
%TO.N,R1-*%
%TA.AperFunction,SMDPad,CuDef*%
G36*
G01*
X118000003Y-37325000D02*
X116749997Y-37325000D01*
G75*
G02*
X116500000Y-37075003I0J249997D01*
G01*
X116500000Y-36449997D01*
G75*
G02*
X116749997Y-36200000I249997J0D01*
G01*
X118000003Y-36200000D01*
G75*
G02*
X118250000Y-36449997I0J-249997D01*
G01*
X118250000Y-37075003D01*
G75*
G02*
X118000003Y-37325000I-249997J0D01*
G01*
G37*
%TD.AperFunction*%
%TD*%
%TO.P,R4,2*%
%TO.N,R1-*%
%TA.AperFunction,SMDPad,CuDef*%
G36*
G01*
X48825003Y-37325000D02*
X47574997Y-37325000D01*
G75*
G02*
X47325000Y-37075003I0J249997D01*
G01*
X47325000Y-36449997D01*
G75*
G02*
X47574997Y-36200000I249997J0D01*
G01*
X48825003Y-36200000D01*
G75*
G02*
X49075000Y-36449997I0J-249997D01*
G01*
X49075000Y-37075003D01*
G75*
G02*
X48825003Y-37325000I-249997J0D01*
G01*
G37*
%TD.AperFunction*%
%TO.P,R4,1*%
%TO.N,NC1*%
%TA.AperFunction,SMDPad,CuDef*%
G36*
G01*
X48825003Y-40250000D02*
X47574997Y-40250000D01*
G75*
G02*
X47325000Y-40000003I0J249997D01*
G01*
X47325000Y-39374997D01*
G75*
G02*
X47574997Y-39125000I249997J0D01*
G01*
X48825003Y-39125000D01*
G75*
G02*
X49075000Y-39374997I0J-249997D01*
G01*
X49075000Y-40000003D01*
G75*
G02*
X48825003Y-40250000I-249997J0D01*
G01*
G37*
%TD.AperFunction*%
%TD*%
%TO.P,R5,2*%
%TO.N,R1-*%
%TA.AperFunction,SMDPad,CuDef*%
G36*
G01*
X83550003Y-37325000D02*
X82299997Y-37325000D01*
G75*
G02*
X82050000Y-37075003I0J249997D01*
G01*
X82050000Y-36449997D01*
G75*
G02*
X82299997Y-36200000I249997J0D01*
G01*
X83550003Y-36200000D01*
G75*
G02*
X83800000Y-36449997I0J-249997D01*
G01*
X83800000Y-37075003D01*
G75*
G02*
X83550003Y-37325000I-249997J0D01*
G01*
G37*
%TD.AperFunction*%
%TO.P,R5,1*%
%TO.N,NC1*%
%TA.AperFunction,SMDPad,CuDef*%
G36*
G01*
X83550003Y-40250000D02*
X82299997Y-40250000D01*
G75*
G02*
X82050000Y-40000003I0J249997D01*
G01*
X82050000Y-39374997D01*
G75*
G02*
X82299997Y-39125000I249997J0D01*
G01*
X83550003Y-39125000D01*
G75*
G02*
X83800000Y-39374997I0J-249997D01*
G01*
X83800000Y-40000003D01*
G75*
G02*
X83550003Y-40250000I-249997J0D01*
G01*
G37*
%TD.AperFunction*%
%TD*%
%TO.P,R6,1*%
%TO.N,NC1*%
%TA.AperFunction,SMDPad,CuDef*%
G36*
G01*
X152550003Y-40250000D02*
X151299997Y-40250000D01*
G75*
G02*
X151050000Y-40000003I0J249997D01*
G01*
X151050000Y-39374997D01*
G75*
G02*
X151299997Y-39125000I249997J0D01*
G01*
X152550003Y-39125000D01*
G75*
G02*
X152800000Y-39374997I0J-249997D01*
G01*
X152800000Y-40000003D01*
G75*
G02*
X152550003Y-40250000I-249997J0D01*
G01*
G37*
%TD.AperFunction*%
%TO.P,R6,2*%
%TO.N,R1-*%
%TA.AperFunction,SMDPad,CuDef*%
G36*
G01*
X152550003Y-37325000D02*
X151299997Y-37325000D01*
G75*
G02*
X151050000Y-37075003I0J249997D01*
G01*
X151050000Y-36449997D01*
G75*
G02*
X151299997Y-36200000I249997J0D01*
G01*
X152550003Y-36200000D01*
G75*
G02*
X152800000Y-36449997I0J-249997D01*
G01*
X152800000Y-37075003D01*
G75*
G02*
X152550003Y-37325000I-249997J0D01*
G01*
G37*
%TD.AperFunction*%
%TD*%
%TO.P,R7,1*%
%TO.N,R1-*%
%TA.AperFunction,SMDPad,CuDef*%
G36*
G01*
X133374997Y-36200000D02*
X134625003Y-36200000D01*
G75*
G02*
X134875000Y-36449997I0J-249997D01*
G01*
X134875000Y-37075003D01*
G75*
G02*
X134625003Y-37325000I-249997J0D01*
G01*
X133374997Y-37325000D01*
G75*
G02*
X133125000Y-37075003I0J249997D01*
G01*
X133125000Y-36449997D01*
G75*
G02*
X133374997Y-36200000I249997J0D01*
G01*
G37*
%TD.AperFunction*%
%TO.P,R7,2*%
%TO.N,NO1*%
%TA.AperFunction,SMDPad,CuDef*%
G36*
G01*
X133374997Y-39125000D02*
X134625003Y-39125000D01*
G75*
G02*
X134875000Y-39374997I0J-249997D01*
G01*
X134875000Y-40000003D01*
G75*
G02*
X134625003Y-40250000I-249997J0D01*
G01*
X133374997Y-40250000D01*
G75*
G02*
X133125000Y-40000003I0J249997D01*
G01*
X133125000Y-39374997D01*
G75*
G02*
X133374997Y-39125000I249997J0D01*
G01*
G37*
%TD.AperFunction*%
%TD*%
%TO.P,R8,2*%
%TO.N,NO1*%
%TA.AperFunction,SMDPad,CuDef*%
G36*
G01*
X101369997Y-39125000D02*
X102620003Y-39125000D01*
G75*
G02*
X102870000Y-39374997I0J-249997D01*
G01*
X102870000Y-40000003D01*
G75*
G02*
X102620003Y-40250000I-249997J0D01*
G01*
X101369997Y-40250000D01*
G75*
G02*
X101120000Y-40000003I0J249997D01*
G01*
X101120000Y-39374997D01*
G75*
G02*
X101369997Y-39125000I249997J0D01*
G01*
G37*
%TD.AperFunction*%
%TO.P,R8,1*%
%TO.N,R1-*%
%TA.AperFunction,SMDPad,CuDef*%
G36*
G01*
X101369997Y-36200000D02*
X102620003Y-36200000D01*
G75*
G02*
X102870000Y-36449997I0J-249997D01*
G01*
X102870000Y-37075003D01*
G75*
G02*
X102620003Y-37325000I-249997J0D01*
G01*
X101369997Y-37325000D01*
G75*
G02*
X101120000Y-37075003I0J249997D01*
G01*
X101120000Y-36449997D01*
G75*
G02*
X101369997Y-36200000I249997J0D01*
G01*
G37*
%TD.AperFunction*%
%TD*%
%TO.P,R9,2*%
%TO.N,NO1*%
%TA.AperFunction,SMDPad,CuDef*%
G36*
G01*
X167924997Y-39125000D02*
X169175003Y-39125000D01*
G75*
G02*
X169425000Y-39374997I0J-249997D01*
G01*
X169425000Y-40000003D01*
G75*
G02*
X169175003Y-40250000I-249997J0D01*
G01*
X167924997Y-40250000D01*
G75*
G02*
X167675000Y-40000003I0J249997D01*
G01*
X167675000Y-39374997D01*
G75*
G02*
X167924997Y-39125000I249997J0D01*
G01*
G37*
%TD.AperFunction*%
%TO.P,R9,1*%
%TO.N,R1-*%
%TA.AperFunction,SMDPad,CuDef*%
G36*
G01*
X167924997Y-36200000D02*
X169175003Y-36200000D01*
G75*
G02*
X169425000Y-36449997I0J-249997D01*
G01*
X169425000Y-37075003D01*
G75*
G02*
X169175003Y-37325000I-249997J0D01*
G01*
X167924997Y-37325000D01*
G75*
G02*
X167675000Y-37075003I0J249997D01*
G01*
X167675000Y-36449997D01*
G75*
G02*
X167924997Y-36200000I249997J0D01*
G01*
G37*
%TD.AperFunction*%
%TD*%
%TO.P,R10,2*%
%TO.N,Net-(D2-Pad1)*%
%TA.AperFunction,SMDPad,CuDef*%
G36*
G01*
X24375003Y-56725685D02*
X23124997Y-56725685D01*
G75*
G02*
X22875000Y-56475688I0J249997D01*
G01*
X22875000Y-55850682D01*
G75*
G02*
X23124997Y-55600685I249997J0D01*
G01*
X24375003Y-55600685D01*
G75*
G02*
X24625000Y-55850682I0J-249997D01*
G01*
X24625000Y-56475688D01*
G75*
G02*
X24375003Y-56725685I-249997J0D01*
G01*
G37*
%TD.AperFunction*%
%TO.P,R10,1*%
%TO.N,R1-*%
%TA.AperFunction,SMDPad,CuDef*%
G36*
G01*
X24375003Y-59650685D02*
X23124997Y-59650685D01*
G75*
G02*
X22875000Y-59400688I0J249997D01*
G01*
X22875000Y-58775682D01*
G75*
G02*
X23124997Y-58525685I249997J0D01*
G01*
X24375003Y-58525685D01*
G75*
G02*
X24625000Y-58775682I0J-249997D01*
G01*
X24625000Y-59400688D01*
G75*
G02*
X24375003Y-59650685I-249997J0D01*
G01*
G37*
%TD.AperFunction*%
%TD*%
%TO.P,R11,1*%
%TO.N,Net-(D3-Pad2)*%
%TA.AperFunction,SMDPad,CuDef*%
G36*
G01*
X23800000Y-107625003D02*
X23800000Y-106374997D01*
G75*
G02*
X24049997Y-106125000I249997J0D01*
G01*
X24675003Y-106125000D01*
G75*
G02*
X24925000Y-106374997I0J-249997D01*
G01*
X24925000Y-107625003D01*
G75*
G02*
X24675003Y-107875000I-249997J0D01*
G01*
X24049997Y-107875000D01*
G75*
G02*
X23800000Y-107625003I0J249997D01*
G01*
G37*
%TD.AperFunction*%
%TO.P,R11,2*%
%TO.N,R2-*%
%TA.AperFunction,SMDPad,CuDef*%
G36*
G01*
X26725000Y-107625003D02*
X26725000Y-106374997D01*
G75*
G02*
X26974997Y-106125000I249997J0D01*
G01*
X27600003Y-106125000D01*
G75*
G02*
X27850000Y-106374997I0J-249997D01*
G01*
X27850000Y-107625003D01*
G75*
G02*
X27600003Y-107875000I-249997J0D01*
G01*
X26974997Y-107875000D01*
G75*
G02*
X26725000Y-107625003I0J249997D01*
G01*
G37*
%TD.AperFunction*%
%TD*%
%TO.P,R12,1*%
%TO.N,NC2*%
%TA.AperFunction,SMDPad,CuDef*%
G36*
G01*
X118375003Y-95650000D02*
X117124997Y-95650000D01*
G75*
G02*
X116875000Y-95400003I0J249997D01*
G01*
X116875000Y-94774997D01*
G75*
G02*
X117124997Y-94525000I249997J0D01*
G01*
X118375003Y-94525000D01*
G75*
G02*
X118625000Y-94774997I0J-249997D01*
G01*
X118625000Y-95400003D01*
G75*
G02*
X118375003Y-95650000I-249997J0D01*
G01*
G37*
%TD.AperFunction*%
%TO.P,R12,2*%
%TO.N,R2-*%
%TA.AperFunction,SMDPad,CuDef*%
G36*
G01*
X118375003Y-92725000D02*
X117124997Y-92725000D01*
G75*
G02*
X116875000Y-92475003I0J249997D01*
G01*
X116875000Y-91849997D01*
G75*
G02*
X117124997Y-91600000I249997J0D01*
G01*
X118375003Y-91600000D01*
G75*
G02*
X118625000Y-91849997I0J-249997D01*
G01*
X118625000Y-92475003D01*
G75*
G02*
X118375003Y-92725000I-249997J0D01*
G01*
G37*
%TD.AperFunction*%
%TD*%
%TO.P,R13,1*%
%TO.N,NC2*%
%TA.AperFunction,SMDPad,CuDef*%
G36*
G01*
X49450003Y-95650000D02*
X48199997Y-95650000D01*
G75*
G02*
X47950000Y-95400003I0J249997D01*
G01*
X47950000Y-94774997D01*
G75*
G02*
X48199997Y-94525000I249997J0D01*
G01*
X49450003Y-94525000D01*
G75*
G02*
X49700000Y-94774997I0J-249997D01*
G01*
X49700000Y-95400003D01*
G75*
G02*
X49450003Y-95650000I-249997J0D01*
G01*
G37*
%TD.AperFunction*%
%TO.P,R13,2*%
%TO.N,R2-*%
%TA.AperFunction,SMDPad,CuDef*%
G36*
G01*
X49450003Y-92725000D02*
X48199997Y-92725000D01*
G75*
G02*
X47950000Y-92475003I0J249997D01*
G01*
X47950000Y-91849997D01*
G75*
G02*
X48199997Y-91600000I249997J0D01*
G01*
X49450003Y-91600000D01*
G75*
G02*
X49700000Y-91849997I0J-249997D01*
G01*
X49700000Y-92475003D01*
G75*
G02*
X49450003Y-92725000I-249997J0D01*
G01*
G37*
%TD.AperFunction*%
%TD*%
%TO.P,R14,1*%
%TO.N,NC2*%
%TA.AperFunction,SMDPad,CuDef*%
G36*
G01*
X83925003Y-95650000D02*
X82674997Y-95650000D01*
G75*
G02*
X82425000Y-95400003I0J249997D01*
G01*
X82425000Y-94774997D01*
G75*
G02*
X82674997Y-94525000I249997J0D01*
G01*
X83925003Y-94525000D01*
G75*
G02*
X84175000Y-94774997I0J-249997D01*
G01*
X84175000Y-95400003D01*
G75*
G02*
X83925003Y-95650000I-249997J0D01*
G01*
G37*
%TD.AperFunction*%
%TO.P,R14,2*%
%TO.N,R2-*%
%TA.AperFunction,SMDPad,CuDef*%
G36*
G01*
X83925003Y-92725000D02*
X82674997Y-92725000D01*
G75*
G02*
X82425000Y-92475003I0J249997D01*
G01*
X82425000Y-91849997D01*
G75*
G02*
X82674997Y-91600000I249997J0D01*
G01*
X83925003Y-91600000D01*
G75*
G02*
X84175000Y-91849997I0J-249997D01*
G01*
X84175000Y-92475003D01*
G75*
G02*
X83925003Y-92725000I-249997J0D01*
G01*
G37*
%TD.AperFunction*%
%TD*%
%TO.P,R15,2*%
%TO.N,R2-*%
%TA.AperFunction,SMDPad,CuDef*%
G36*
G01*
X152895003Y-92790000D02*
X151644997Y-92790000D01*
G75*
G02*
X151395000Y-92540003I0J249997D01*
G01*
X151395000Y-91914997D01*
G75*
G02*
X151644997Y-91665000I249997J0D01*
G01*
X152895003Y-91665000D01*
G75*
G02*
X153145000Y-91914997I0J-249997D01*
G01*
X153145000Y-92540003D01*
G75*
G02*
X152895003Y-92790000I-249997J0D01*
G01*
G37*
%TD.AperFunction*%
%TO.P,R15,1*%
%TO.N,NC2*%
%TA.AperFunction,SMDPad,CuDef*%
G36*
G01*
X152895003Y-95715000D02*
X151644997Y-95715000D01*
G75*
G02*
X151395000Y-95465003I0J249997D01*
G01*
X151395000Y-94839997D01*
G75*
G02*
X151644997Y-94590000I249997J0D01*
G01*
X152895003Y-94590000D01*
G75*
G02*
X153145000Y-94839997I0J-249997D01*
G01*
X153145000Y-95465003D01*
G75*
G02*
X152895003Y-95715000I-249997J0D01*
G01*
G37*
%TD.AperFunction*%
%TD*%
%TO.P,R16,1*%
%TO.N,R2-*%
%TA.AperFunction,SMDPad,CuDef*%
G36*
G01*
X133264997Y-91600000D02*
X134515003Y-91600000D01*
G75*
G02*
X134765000Y-91849997I0J-249997D01*
G01*
X134765000Y-92475003D01*
G75*
G02*
X134515003Y-92725000I-249997J0D01*
G01*
X133264997Y-92725000D01*
G75*
G02*
X133015000Y-92475003I0J249997D01*
G01*
X133015000Y-91849997D01*
G75*
G02*
X133264997Y-91600000I249997J0D01*
G01*
G37*
%TD.AperFunction*%
%TO.P,R16,2*%
%TO.N,NO2*%
%TA.AperFunction,SMDPad,CuDef*%
G36*
G01*
X133264997Y-94525000D02*
X134515003Y-94525000D01*
G75*
G02*
X134765000Y-94774997I0J-249997D01*
G01*
X134765000Y-95400003D01*
G75*
G02*
X134515003Y-95650000I-249997J0D01*
G01*
X133264997Y-95650000D01*
G75*
G02*
X133015000Y-95400003I0J249997D01*
G01*
X133015000Y-94774997D01*
G75*
G02*
X133264997Y-94525000I249997J0D01*
G01*
G37*
%TD.AperFunction*%
%TD*%
%TO.P,R17,2*%
%TO.N,NO2*%
%TA.AperFunction,SMDPad,CuDef*%
G36*
G01*
X64174997Y-94525000D02*
X65425003Y-94525000D01*
G75*
G02*
X65675000Y-94774997I0J-249997D01*
G01*
X65675000Y-95400003D01*
G75*
G02*
X65425003Y-95650000I-249997J0D01*
G01*
X64174997Y-95650000D01*
G75*
G02*
X63925000Y-95400003I0J249997D01*
G01*
X63925000Y-94774997D01*
G75*
G02*
X64174997Y-94525000I249997J0D01*
G01*
G37*
%TD.AperFunction*%
%TO.P,R17,1*%
%TO.N,R2-*%
%TA.AperFunction,SMDPad,CuDef*%
G36*
G01*
X64174997Y-91600000D02*
X65425003Y-91600000D01*
G75*
G02*
X65675000Y-91849997I0J-249997D01*
G01*
X65675000Y-92475003D01*
G75*
G02*
X65425003Y-92725000I-249997J0D01*
G01*
X64174997Y-92725000D01*
G75*
G02*
X63925000Y-92475003I0J249997D01*
G01*
X63925000Y-91849997D01*
G75*
G02*
X64174997Y-91600000I249997J0D01*
G01*
G37*
%TD.AperFunction*%
%TD*%
%TO.P,R18,2*%
%TO.N,NO2*%
%TA.AperFunction,SMDPad,CuDef*%
G36*
G01*
X98824997Y-94525000D02*
X100075003Y-94525000D01*
G75*
G02*
X100325000Y-94774997I0J-249997D01*
G01*
X100325000Y-95400003D01*
G75*
G02*
X100075003Y-95650000I-249997J0D01*
G01*
X98824997Y-95650000D01*
G75*
G02*
X98575000Y-95400003I0J249997D01*
G01*
X98575000Y-94774997D01*
G75*
G02*
X98824997Y-94525000I249997J0D01*
G01*
G37*
%TD.AperFunction*%
%TO.P,R18,1*%
%TO.N,R2-*%
%TA.AperFunction,SMDPad,CuDef*%
G36*
G01*
X98824997Y-91600000D02*
X100075003Y-91600000D01*
G75*
G02*
X100325000Y-91849997I0J-249997D01*
G01*
X100325000Y-92475003D01*
G75*
G02*
X100075003Y-92725000I-249997J0D01*
G01*
X98824997Y-92725000D01*
G75*
G02*
X98575000Y-92475003I0J249997D01*
G01*
X98575000Y-91849997D01*
G75*
G02*
X98824997Y-91600000I249997J0D01*
G01*
G37*
%TD.AperFunction*%
%TD*%
%TO.P,R19,1*%
%TO.N,R2-*%
%TA.AperFunction,SMDPad,CuDef*%
G36*
G01*
X167854997Y-91665000D02*
X169105003Y-91665000D01*
G75*
G02*
X169355000Y-91914997I0J-249997D01*
G01*
X169355000Y-92540003D01*
G75*
G02*
X169105003Y-92790000I-249997J0D01*
G01*
X167854997Y-92790000D01*
G75*
G02*
X167605000Y-92540003I0J249997D01*
G01*
X167605000Y-91914997D01*
G75*
G02*
X167854997Y-91665000I249997J0D01*
G01*
G37*
%TD.AperFunction*%
%TO.P,R19,2*%
%TO.N,NO2*%
%TA.AperFunction,SMDPad,CuDef*%
G36*
G01*
X167854997Y-94590000D02*
X169105003Y-94590000D01*
G75*
G02*
X169355000Y-94839997I0J-249997D01*
G01*
X169355000Y-95465003D01*
G75*
G02*
X169105003Y-95715000I-249997J0D01*
G01*
X167854997Y-95715000D01*
G75*
G02*
X167605000Y-95465003I0J249997D01*
G01*
X167605000Y-94839997D01*
G75*
G02*
X167854997Y-94590000I249997J0D01*
G01*
G37*
%TD.AperFunction*%
%TD*%
%TO.P,R20,2*%
%TO.N,Net-(D4-Pad1)*%
%TA.AperFunction,SMDPad,CuDef*%
G36*
G01*
X24425003Y-111650685D02*
X23174997Y-111650685D01*
G75*
G02*
X22925000Y-111400688I0J249997D01*
G01*
X22925000Y-110775682D01*
G75*
G02*
X23174997Y-110525685I249997J0D01*
G01*
X24425003Y-110525685D01*
G75*
G02*
X24675000Y-110775682I0J-249997D01*
G01*
X24675000Y-111400688D01*
G75*
G02*
X24425003Y-111650685I-249997J0D01*
G01*
G37*
%TD.AperFunction*%
%TO.P,R20,1*%
%TO.N,R2-*%
%TA.AperFunction,SMDPad,CuDef*%
G36*
G01*
X24425003Y-114575685D02*
X23174997Y-114575685D01*
G75*
G02*
X22925000Y-114325688I0J249997D01*
G01*
X22925000Y-113700682D01*
G75*
G02*
X23174997Y-113450685I249997J0D01*
G01*
X24425003Y-113450685D01*
G75*
G02*
X24675000Y-113700682I0J-249997D01*
G01*
X24675000Y-114325688D01*
G75*
G02*
X24425003Y-114575685I-249997J0D01*
G01*
G37*
%TD.AperFunction*%
%TD*%
%TO.P,R21,2*%
%TO.N,R3-*%
%TA.AperFunction,SMDPad,CuDef*%
G36*
G01*
X26620000Y-163100003D02*
X26620000Y-161849997D01*
G75*
G02*
X26869997Y-161600000I249997J0D01*
G01*
X27495003Y-161600000D01*
G75*
G02*
X27745000Y-161849997I0J-249997D01*
G01*
X27745000Y-163100003D01*
G75*
G02*
X27495003Y-163350000I-249997J0D01*
G01*
X26869997Y-163350000D01*
G75*
G02*
X26620000Y-163100003I0J249997D01*
G01*
G37*
%TD.AperFunction*%
%TO.P,R21,1*%
%TO.N,Net-(D5-Pad2)*%
%TA.AperFunction,SMDPad,CuDef*%
G36*
G01*
X23695000Y-163100003D02*
X23695000Y-161849997D01*
G75*
G02*
X23944997Y-161600000I249997J0D01*
G01*
X24570003Y-161600000D01*
G75*
G02*
X24820000Y-161849997I0J-249997D01*
G01*
X24820000Y-163100003D01*
G75*
G02*
X24570003Y-163350000I-249997J0D01*
G01*
X23944997Y-163350000D01*
G75*
G02*
X23695000Y-163100003I0J249997D01*
G01*
G37*
%TD.AperFunction*%
%TD*%
%TO.P,R22,1*%
%TO.N,NC3*%
%TA.AperFunction,SMDPad,CuDef*%
G36*
G01*
X118375003Y-151050000D02*
X117124997Y-151050000D01*
G75*
G02*
X116875000Y-150800003I0J249997D01*
G01*
X116875000Y-150174997D01*
G75*
G02*
X117124997Y-149925000I249997J0D01*
G01*
X118375003Y-149925000D01*
G75*
G02*
X118625000Y-150174997I0J-249997D01*
G01*
X118625000Y-150800003D01*
G75*
G02*
X118375003Y-151050000I-249997J0D01*
G01*
G37*
%TD.AperFunction*%
%TO.P,R22,2*%
%TO.N,R3-*%
%TA.AperFunction,SMDPad,CuDef*%
G36*
G01*
X118375003Y-148125000D02*
X117124997Y-148125000D01*
G75*
G02*
X116875000Y-147875003I0J249997D01*
G01*
X116875000Y-147249997D01*
G75*
G02*
X117124997Y-147000000I249997J0D01*
G01*
X118375003Y-147000000D01*
G75*
G02*
X118625000Y-147249997I0J-249997D01*
G01*
X118625000Y-147875003D01*
G75*
G02*
X118375003Y-148125000I-249997J0D01*
G01*
G37*
%TD.AperFunction*%
%TD*%
%TO.P,R23,1*%
%TO.N,NC3*%
%TA.AperFunction,SMDPad,CuDef*%
G36*
G01*
X49300003Y-151062500D02*
X48049997Y-151062500D01*
G75*
G02*
X47800000Y-150812503I0J249997D01*
G01*
X47800000Y-150187497D01*
G75*
G02*
X48049997Y-149937500I249997J0D01*
G01*
X49300003Y-149937500D01*
G75*
G02*
X49550000Y-150187497I0J-249997D01*
G01*
X49550000Y-150812503D01*
G75*
G02*
X49300003Y-151062500I-249997J0D01*
G01*
G37*
%TD.AperFunction*%
%TO.P,R23,2*%
%TO.N,R3-*%
%TA.AperFunction,SMDPad,CuDef*%
G36*
G01*
X49300003Y-148137500D02*
X48049997Y-148137500D01*
G75*
G02*
X47800000Y-147887503I0J249997D01*
G01*
X47800000Y-147262497D01*
G75*
G02*
X48049997Y-147012500I249997J0D01*
G01*
X49300003Y-147012500D01*
G75*
G02*
X49550000Y-147262497I0J-249997D01*
G01*
X49550000Y-147887503D01*
G75*
G02*
X49300003Y-148137500I-249997J0D01*
G01*
G37*
%TD.AperFunction*%
%TD*%
%TO.P,R24,2*%
%TO.N,R3-*%
%TA.AperFunction,SMDPad,CuDef*%
G36*
G01*
X83475003Y-148125000D02*
X82224997Y-148125000D01*
G75*
G02*
X81975000Y-147875003I0J249997D01*
G01*
X81975000Y-147249997D01*
G75*
G02*
X82224997Y-147000000I249997J0D01*
G01*
X83475003Y-147000000D01*
G75*
G02*
X83725000Y-147249997I0J-249997D01*
G01*
X83725000Y-147875003D01*
G75*
G02*
X83475003Y-148125000I-249997J0D01*
G01*
G37*
%TD.AperFunction*%
%TO.P,R24,1*%
%TO.N,NC3*%
%TA.AperFunction,SMDPad,CuDef*%
G36*
G01*
X83475003Y-151050000D02*
X82224997Y-151050000D01*
G75*
G02*
X81975000Y-150800003I0J249997D01*
G01*
X81975000Y-150174997D01*
G75*
G02*
X82224997Y-149925000I249997J0D01*
G01*
X83475003Y-149925000D01*
G75*
G02*
X83725000Y-150174997I0J-249997D01*
G01*
X83725000Y-150800003D01*
G75*
G02*
X83475003Y-151050000I-249997J0D01*
G01*
G37*
%TD.AperFunction*%
%TD*%
%TO.P,R25,1*%
%TO.N,NC3*%
%TA.AperFunction,SMDPad,CuDef*%
G36*
G01*
X152805003Y-151035000D02*
X151554997Y-151035000D01*
G75*
G02*
X151305000Y-150785003I0J249997D01*
G01*
X151305000Y-150159997D01*
G75*
G02*
X151554997Y-149910000I249997J0D01*
G01*
X152805003Y-149910000D01*
G75*
G02*
X153055000Y-150159997I0J-249997D01*
G01*
X153055000Y-150785003D01*
G75*
G02*
X152805003Y-151035000I-249997J0D01*
G01*
G37*
%TD.AperFunction*%
%TO.P,R25,2*%
%TO.N,R3-*%
%TA.AperFunction,SMDPad,CuDef*%
G36*
G01*
X152805003Y-148110000D02*
X151554997Y-148110000D01*
G75*
G02*
X151305000Y-147860003I0J249997D01*
G01*
X151305000Y-147234997D01*
G75*
G02*
X151554997Y-146985000I249997J0D01*
G01*
X152805003Y-146985000D01*
G75*
G02*
X153055000Y-147234997I0J-249997D01*
G01*
X153055000Y-147860003D01*
G75*
G02*
X152805003Y-148110000I-249997J0D01*
G01*
G37*
%TD.AperFunction*%
%TD*%
%TO.P,R26,1*%
%TO.N,R3-*%
%TA.AperFunction,SMDPad,CuDef*%
G36*
G01*
X133099997Y-147000000D02*
X134350003Y-147000000D01*
G75*
G02*
X134600000Y-147249997I0J-249997D01*
G01*
X134600000Y-147875003D01*
G75*
G02*
X134350003Y-148125000I-249997J0D01*
G01*
X133099997Y-148125000D01*
G75*
G02*
X132850000Y-147875003I0J249997D01*
G01*
X132850000Y-147249997D01*
G75*
G02*
X133099997Y-147000000I249997J0D01*
G01*
G37*
%TD.AperFunction*%
%TO.P,R26,2*%
%TO.N,NO3*%
%TA.AperFunction,SMDPad,CuDef*%
G36*
G01*
X133099997Y-149925000D02*
X134350003Y-149925000D01*
G75*
G02*
X134600000Y-150174997I0J-249997D01*
G01*
X134600000Y-150800003D01*
G75*
G02*
X134350003Y-151050000I-249997J0D01*
G01*
X133099997Y-151050000D01*
G75*
G02*
X132850000Y-150800003I0J249997D01*
G01*
X132850000Y-150174997D01*
G75*
G02*
X133099997Y-149925000I249997J0D01*
G01*
G37*
%TD.AperFunction*%
%TD*%
%TO.P,R27,1*%
%TO.N,R3-*%
%TA.AperFunction,SMDPad,CuDef*%
G36*
G01*
X64134997Y-147000000D02*
X65385003Y-147000000D01*
G75*
G02*
X65635000Y-147249997I0J-249997D01*
G01*
X65635000Y-147875003D01*
G75*
G02*
X65385003Y-148125000I-249997J0D01*
G01*
X64134997Y-148125000D01*
G75*
G02*
X63885000Y-147875003I0J249997D01*
G01*
X63885000Y-147249997D01*
G75*
G02*
X64134997Y-147000000I249997J0D01*
G01*
G37*
%TD.AperFunction*%
%TO.P,R27,2*%
%TO.N,NO3*%
%TA.AperFunction,SMDPad,CuDef*%
G36*
G01*
X64134997Y-149925000D02*
X65385003Y-149925000D01*
G75*
G02*
X65635000Y-150174997I0J-249997D01*
G01*
X65635000Y-150800003D01*
G75*
G02*
X65385003Y-151050000I-249997J0D01*
G01*
X64134997Y-151050000D01*
G75*
G02*
X63885000Y-150800003I0J249997D01*
G01*
X63885000Y-150174997D01*
G75*
G02*
X64134997Y-149925000I249997J0D01*
G01*
G37*
%TD.AperFunction*%
%TD*%
%TO.P,R28,1*%
%TO.N,R3-*%
%TA.AperFunction,SMDPad,CuDef*%
G36*
G01*
X98774997Y-147000000D02*
X100025003Y-147000000D01*
G75*
G02*
X100275000Y-147249997I0J-249997D01*
G01*
X100275000Y-147875003D01*
G75*
G02*
X100025003Y-148125000I-249997J0D01*
G01*
X98774997Y-148125000D01*
G75*
G02*
X98525000Y-147875003I0J249997D01*
G01*
X98525000Y-147249997D01*
G75*
G02*
X98774997Y-147000000I249997J0D01*
G01*
G37*
%TD.AperFunction*%
%TO.P,R28,2*%
%TO.N,NO3*%
%TA.AperFunction,SMDPad,CuDef*%
G36*
G01*
X98774997Y-149925000D02*
X100025003Y-149925000D01*
G75*
G02*
X100275000Y-150174997I0J-249997D01*
G01*
X100275000Y-150800003D01*
G75*
G02*
X100025003Y-151050000I-249997J0D01*
G01*
X98774997Y-151050000D01*
G75*
G02*
X98525000Y-150800003I0J249997D01*
G01*
X98525000Y-150174997D01*
G75*
G02*
X98774997Y-149925000I249997J0D01*
G01*
G37*
%TD.AperFunction*%
%TD*%
%TO.P,R29,2*%
%TO.N,NO3*%
%TA.AperFunction,SMDPad,CuDef*%
G36*
G01*
X167844997Y-149950000D02*
X169095003Y-149950000D01*
G75*
G02*
X169345000Y-150199997I0J-249997D01*
G01*
X169345000Y-150825003D01*
G75*
G02*
X169095003Y-151075000I-249997J0D01*
G01*
X167844997Y-151075000D01*
G75*
G02*
X167595000Y-150825003I0J249997D01*
G01*
X167595000Y-150199997D01*
G75*
G02*
X167844997Y-149950000I249997J0D01*
G01*
G37*
%TD.AperFunction*%
%TO.P,R29,1*%
%TO.N,R3-*%
%TA.AperFunction,SMDPad,CuDef*%
G36*
G01*
X167844997Y-147025000D02*
X169095003Y-147025000D01*
G75*
G02*
X169345000Y-147274997I0J-249997D01*
G01*
X169345000Y-147900003D01*
G75*
G02*
X169095003Y-148150000I-249997J0D01*
G01*
X167844997Y-148150000D01*
G75*
G02*
X167595000Y-147900003I0J249997D01*
G01*
X167595000Y-147274997D01*
G75*
G02*
X167844997Y-147025000I249997J0D01*
G01*
G37*
%TD.AperFunction*%
%TD*%
%TO.P,R30,2*%
%TO.N,Net-(D6-Pad1)*%
%TA.AperFunction,SMDPad,CuDef*%
G36*
G01*
X24375003Y-167125685D02*
X23124997Y-167125685D01*
G75*
G02*
X22875000Y-166875688I0J249997D01*
G01*
X22875000Y-166250682D01*
G75*
G02*
X23124997Y-166000685I249997J0D01*
G01*
X24375003Y-166000685D01*
G75*
G02*
X24625000Y-166250682I0J-249997D01*
G01*
X24625000Y-166875688D01*
G75*
G02*
X24375003Y-167125685I-249997J0D01*
G01*
G37*
%TD.AperFunction*%
%TO.P,R30,1*%
%TO.N,R3-*%
%TA.AperFunction,SMDPad,CuDef*%
G36*
G01*
X24375003Y-170050685D02*
X23124997Y-170050685D01*
G75*
G02*
X22875000Y-169800688I0J249997D01*
G01*
X22875000Y-169175682D01*
G75*
G02*
X23124997Y-168925685I249997J0D01*
G01*
X24375003Y-168925685D01*
G75*
G02*
X24625000Y-169175682I0J-249997D01*
G01*
X24625000Y-169800688D01*
G75*
G02*
X24375003Y-170050685I-249997J0D01*
G01*
G37*
%TD.AperFunction*%
%TD*%
D10*
%TO.P,D1,2*%
%TO.N,Net-(D1-Pad2)*%
X33200000Y-46050000D03*
%TO.P,D1,1*%
%TO.N,Net-(D1-Pad1)*%
X33200000Y-43950000D03*
%TD*%
%TO.P,D5,1*%
%TO.N,Net-(D5-Pad1)*%
X33500000Y-155450000D03*
%TO.P,D5,2*%
%TO.N,Net-(D5-Pad2)*%
X33500000Y-157550000D03*
%TD*%
D12*
%TO.P,Q1,2*%
%TO.N,Net-(D1-Pad1)*%
X24300000Y-43400000D03*
D11*
%TO.P,Q1,3*%
%TO.N,R1+*%
X30600000Y-41120000D03*
%TO.P,Q1,2*%
%TO.N,Net-(D1-Pad1)*%
X30600000Y-43400000D03*
%TO.P,Q1,1*%
%TO.N,Net-(D1-Pad2)*%
X30600000Y-45680000D03*
%TD*%
%TO.P,Q2,1*%
%TO.N,Net-(D3-Pad2)*%
X30025000Y-101105000D03*
%TO.P,Q2,2*%
%TO.N,Net-(D3-Pad1)*%
X30025000Y-98825000D03*
%TO.P,Q2,3*%
%TO.N,R2+*%
X30025000Y-96545000D03*
D12*
%TO.P,Q2,2*%
%TO.N,Net-(D3-Pad1)*%
X23725000Y-98825000D03*
%TD*%
%TA.AperFunction,ComponentPad*%
D16*
%TO.P,RED,1*%
%TO.N,Net-(J1-Pad1)*%
G36*
X28440191Y-26192470D02*
G01*
X28728941Y-26249906D01*
X29010670Y-26335368D01*
X29282665Y-26448032D01*
X29542308Y-26586814D01*
X29787098Y-26750377D01*
X30014677Y-26937147D01*
X30222853Y-27145323D01*
X30409623Y-27372902D01*
X30573186Y-27617692D01*
X30711968Y-27877335D01*
X30824632Y-28149330D01*
X30910094Y-28431059D01*
X30967530Y-28719809D01*
X30996386Y-29012797D01*
X30996386Y-29307203D01*
X30967530Y-29600191D01*
X30910094Y-29888941D01*
X30824632Y-30170670D01*
X30711968Y-30442665D01*
X30573186Y-30702308D01*
X30409623Y-30947098D01*
X30222853Y-31174677D01*
X30118765Y-31278765D01*
X31000000Y-32160000D01*
X25000000Y-32160000D01*
X25881235Y-31278765D01*
X25777147Y-31174677D01*
X25590377Y-30947098D01*
X25426814Y-30702308D01*
X25288032Y-30442665D01*
X25175368Y-30170670D01*
X25089906Y-29888941D01*
X25032470Y-29600191D01*
X25003614Y-29307203D01*
X25003614Y-29012797D01*
X25032470Y-28719809D01*
X25089906Y-28431059D01*
X25175368Y-28149330D01*
X25288032Y-27877335D01*
X25426814Y-27617692D01*
X25590377Y-27372902D01*
X25777147Y-27145323D01*
X25985323Y-26937147D01*
X26212902Y-26750377D01*
X26457692Y-26586814D01*
X26717335Y-26448032D01*
X26989330Y-26335368D01*
X27271059Y-26249906D01*
X27559809Y-26192470D01*
X27852797Y-26163614D01*
X28147203Y-26163614D01*
X28440191Y-26192470D01*
G37*
%TD.AperFunction*%
%TA.AperFunction,ComponentPad*%
G36*
G01*
X25000000Y-32160000D02*
X31000000Y-32160000D01*
G75*
G02*
X31500000Y-32660000I0J-500000D01*
G01*
X31500000Y-33660000D01*
G75*
G02*
X31000000Y-34160000I-500000J0D01*
G01*
X25000000Y-34160000D01*
G75*
G02*
X24500000Y-33660000I0J500000D01*
G01*
X24500000Y-32660000D01*
G75*
G02*
X25000000Y-32160000I500000J0D01*
G01*
G37*
%TD.AperFunction*%
%TD*%
%TA.AperFunction,ComponentPad*%
%TO.P,BLUE,1*%
%TO.N,Net-(J2-Pad1)*%
G36*
X27439809Y-203257530D02*
G01*
X27151059Y-203200094D01*
X26869330Y-203114632D01*
X26597335Y-203001968D01*
X26337692Y-202863186D01*
X26092902Y-202699623D01*
X25865323Y-202512853D01*
X25657147Y-202304677D01*
X25470377Y-202077098D01*
X25306814Y-201832308D01*
X25168032Y-201572665D01*
X25055368Y-201300670D01*
X24969906Y-201018941D01*
X24912470Y-200730191D01*
X24883614Y-200437203D01*
X24883614Y-200142797D01*
X24912470Y-199849809D01*
X24969906Y-199561059D01*
X25055368Y-199279330D01*
X25168032Y-199007335D01*
X25306814Y-198747692D01*
X25470377Y-198502902D01*
X25657147Y-198275323D01*
X25761235Y-198171235D01*
X24880000Y-197290000D01*
X30880000Y-197290000D01*
X29998765Y-198171235D01*
X30102853Y-198275323D01*
X30289623Y-198502902D01*
X30453186Y-198747692D01*
X30591968Y-199007335D01*
X30704632Y-199279330D01*
X30790094Y-199561059D01*
X30847530Y-199849809D01*
X30876386Y-200142797D01*
X30876386Y-200437203D01*
X30847530Y-200730191D01*
X30790094Y-201018941D01*
X30704632Y-201300670D01*
X30591968Y-201572665D01*
X30453186Y-201832308D01*
X30289623Y-202077098D01*
X30102853Y-202304677D01*
X29894677Y-202512853D01*
X29667098Y-202699623D01*
X29422308Y-202863186D01*
X29162665Y-203001968D01*
X28890670Y-203114632D01*
X28608941Y-203200094D01*
X28320191Y-203257530D01*
X28027203Y-203286386D01*
X27732797Y-203286386D01*
X27439809Y-203257530D01*
G37*
%TD.AperFunction*%
%TA.AperFunction,ComponentPad*%
G36*
G01*
X30880000Y-197290000D02*
X24880000Y-197290000D01*
G75*
G02*
X24380000Y-196790000I0J500000D01*
G01*
X24380000Y-195790000D01*
G75*
G02*
X24880000Y-195290000I500000J0D01*
G01*
X30880000Y-195290000D01*
G75*
G02*
X31380000Y-195790000I0J-500000D01*
G01*
X31380000Y-196790000D01*
G75*
G02*
X30880000Y-197290000I-500000J0D01*
G01*
G37*
%TD.AperFunction*%
%TD*%
%TA.AperFunction,ComponentPad*%
%TO.P,BLUE,1*%
%TO.N,R1-*%
G36*
X37859809Y-82344753D02*
G01*
X37571059Y-82287317D01*
X37289330Y-82201855D01*
X37017335Y-82089191D01*
X36757692Y-81950409D01*
X36512902Y-81786846D01*
X36285323Y-81600076D01*
X36077147Y-81391900D01*
X35890377Y-81164321D01*
X35726814Y-80919531D01*
X35588032Y-80659888D01*
X35475368Y-80387893D01*
X35389906Y-80106164D01*
X35332470Y-79817414D01*
X35303614Y-79524426D01*
X35303614Y-79230020D01*
X35332470Y-78937032D01*
X35389906Y-78648282D01*
X35475368Y-78366553D01*
X35588032Y-78094558D01*
X35726814Y-77834915D01*
X35890377Y-77590125D01*
X36077147Y-77362546D01*
X36181235Y-77258458D01*
X35300000Y-76377223D01*
X41300000Y-76377223D01*
X40418765Y-77258458D01*
X40522853Y-77362546D01*
X40709623Y-77590125D01*
X40873186Y-77834915D01*
X41011968Y-78094558D01*
X41124632Y-78366553D01*
X41210094Y-78648282D01*
X41267530Y-78937032D01*
X41296386Y-79230020D01*
X41296386Y-79524426D01*
X41267530Y-79817414D01*
X41210094Y-80106164D01*
X41124632Y-80387893D01*
X41011968Y-80659888D01*
X40873186Y-80919531D01*
X40709623Y-81164321D01*
X40522853Y-81391900D01*
X40314677Y-81600076D01*
X40087098Y-81786846D01*
X39842308Y-81950409D01*
X39582665Y-82089191D01*
X39310670Y-82201855D01*
X39028941Y-82287317D01*
X38740191Y-82344753D01*
X38447203Y-82373609D01*
X38152797Y-82373609D01*
X37859809Y-82344753D01*
G37*
%TD.AperFunction*%
%TA.AperFunction,ComponentPad*%
G36*
G01*
X41300000Y-76377223D02*
X35300000Y-76377223D01*
G75*
G02*
X34800000Y-75877223I0J500000D01*
G01*
X34800000Y-74877223D01*
G75*
G02*
X35300000Y-74377223I500000J0D01*
G01*
X41300000Y-74377223D01*
G75*
G02*
X41800000Y-74877223I0J-500000D01*
G01*
X41800000Y-75877223D01*
G75*
G02*
X41300000Y-76377223I-500000J0D01*
G01*
G37*
%TD.AperFunction*%
%TD*%
%TO.P,BLACK,1*%
%TO.N,COM1*%
%TA.AperFunction,ComponentPad*%
G36*
G01*
X69182500Y-76340000D02*
X63182500Y-76340000D01*
G75*
G02*
X62682500Y-75840000I0J500000D01*
G01*
X62682500Y-74840000D01*
G75*
G02*
X63182500Y-74340000I500000J0D01*
G01*
X69182500Y-74340000D01*
G75*
G02*
X69682500Y-74840000I0J-500000D01*
G01*
X69682500Y-75840000D01*
G75*
G02*
X69182500Y-76340000I-500000J0D01*
G01*
G37*
%TD.AperFunction*%
%TA.AperFunction,ComponentPad*%
G36*
X65742309Y-82307530D02*
G01*
X65453559Y-82250094D01*
X65171830Y-82164632D01*
X64899835Y-82051968D01*
X64640192Y-81913186D01*
X64395402Y-81749623D01*
X64167823Y-81562853D01*
X63959647Y-81354677D01*
X63772877Y-81127098D01*
X63609314Y-80882308D01*
X63470532Y-80622665D01*
X63357868Y-80350670D01*
X63272406Y-80068941D01*
X63214970Y-79780191D01*
X63186114Y-79487203D01*
X63186114Y-79192797D01*
X63214970Y-78899809D01*
X63272406Y-78611059D01*
X63357868Y-78329330D01*
X63470532Y-78057335D01*
X63609314Y-77797692D01*
X63772877Y-77552902D01*
X63959647Y-77325323D01*
X64063735Y-77221235D01*
X63182500Y-76340000D01*
X69182500Y-76340000D01*
X68301265Y-77221235D01*
X68405353Y-77325323D01*
X68592123Y-77552902D01*
X68755686Y-77797692D01*
X68894468Y-78057335D01*
X69007132Y-78329330D01*
X69092594Y-78611059D01*
X69150030Y-78899809D01*
X69178886Y-79192797D01*
X69178886Y-79487203D01*
X69150030Y-79780191D01*
X69092594Y-80068941D01*
X69007132Y-80350670D01*
X68894468Y-80622665D01*
X68755686Y-80882308D01*
X68592123Y-81127098D01*
X68405353Y-81354677D01*
X68197177Y-81562853D01*
X67969598Y-81749623D01*
X67724808Y-81913186D01*
X67465165Y-82051968D01*
X67193170Y-82164632D01*
X66911441Y-82250094D01*
X66622691Y-82307530D01*
X66329703Y-82336386D01*
X66035297Y-82336386D01*
X65742309Y-82307530D01*
G37*
%TD.AperFunction*%
%TD*%
%TO.P,BLACK,1*%
%TO.N,COM1*%
%TA.AperFunction,ComponentPad*%
G36*
G01*
X138252500Y-76377223D02*
X132252500Y-76377223D01*
G75*
G02*
X131752500Y-75877223I0J500000D01*
G01*
X131752500Y-74877223D01*
G75*
G02*
X132252500Y-74377223I500000J0D01*
G01*
X138252500Y-74377223D01*
G75*
G02*
X138752500Y-74877223I0J-500000D01*
G01*
X138752500Y-75877223D01*
G75*
G02*
X138252500Y-76377223I-500000J0D01*
G01*
G37*
%TD.AperFunction*%
%TA.AperFunction,ComponentPad*%
G36*
X134812309Y-82344753D02*
G01*
X134523559Y-82287317D01*
X134241830Y-82201855D01*
X133969835Y-82089191D01*
X133710192Y-81950409D01*
X133465402Y-81786846D01*
X133237823Y-81600076D01*
X133029647Y-81391900D01*
X132842877Y-81164321D01*
X132679314Y-80919531D01*
X132540532Y-80659888D01*
X132427868Y-80387893D01*
X132342406Y-80106164D01*
X132284970Y-79817414D01*
X132256114Y-79524426D01*
X132256114Y-79230020D01*
X132284970Y-78937032D01*
X132342406Y-78648282D01*
X132427868Y-78366553D01*
X132540532Y-78094558D01*
X132679314Y-77834915D01*
X132842877Y-77590125D01*
X133029647Y-77362546D01*
X133133735Y-77258458D01*
X132252500Y-76377223D01*
X138252500Y-76377223D01*
X137371265Y-77258458D01*
X137475353Y-77362546D01*
X137662123Y-77590125D01*
X137825686Y-77834915D01*
X137964468Y-78094558D01*
X138077132Y-78366553D01*
X138162594Y-78648282D01*
X138220030Y-78937032D01*
X138248886Y-79230020D01*
X138248886Y-79524426D01*
X138220030Y-79817414D01*
X138162594Y-80106164D01*
X138077132Y-80387893D01*
X137964468Y-80659888D01*
X137825686Y-80919531D01*
X137662123Y-81164321D01*
X137475353Y-81391900D01*
X137267177Y-81600076D01*
X137039598Y-81786846D01*
X136794808Y-81950409D01*
X136535165Y-82089191D01*
X136263170Y-82201855D01*
X135981441Y-82287317D01*
X135692691Y-82344753D01*
X135399703Y-82373609D01*
X135105297Y-82373609D01*
X134812309Y-82344753D01*
G37*
%TD.AperFunction*%
%TD*%
%TA.AperFunction,ComponentPad*%
%TO.P,BLACK,1*%
%TO.N,COM1*%
G36*
X100267309Y-82307530D02*
G01*
X99978559Y-82250094D01*
X99696830Y-82164632D01*
X99424835Y-82051968D01*
X99165192Y-81913186D01*
X98920402Y-81749623D01*
X98692823Y-81562853D01*
X98484647Y-81354677D01*
X98297877Y-81127098D01*
X98134314Y-80882308D01*
X97995532Y-80622665D01*
X97882868Y-80350670D01*
X97797406Y-80068941D01*
X97739970Y-79780191D01*
X97711114Y-79487203D01*
X97711114Y-79192797D01*
X97739970Y-78899809D01*
X97797406Y-78611059D01*
X97882868Y-78329330D01*
X97995532Y-78057335D01*
X98134314Y-77797692D01*
X98297877Y-77552902D01*
X98484647Y-77325323D01*
X98588735Y-77221235D01*
X97707500Y-76340000D01*
X103707500Y-76340000D01*
X102826265Y-77221235D01*
X102930353Y-77325323D01*
X103117123Y-77552902D01*
X103280686Y-77797692D01*
X103419468Y-78057335D01*
X103532132Y-78329330D01*
X103617594Y-78611059D01*
X103675030Y-78899809D01*
X103703886Y-79192797D01*
X103703886Y-79487203D01*
X103675030Y-79780191D01*
X103617594Y-80068941D01*
X103532132Y-80350670D01*
X103419468Y-80622665D01*
X103280686Y-80882308D01*
X103117123Y-81127098D01*
X102930353Y-81354677D01*
X102722177Y-81562853D01*
X102494598Y-81749623D01*
X102249808Y-81913186D01*
X101990165Y-82051968D01*
X101718170Y-82164632D01*
X101436441Y-82250094D01*
X101147691Y-82307530D01*
X100854703Y-82336386D01*
X100560297Y-82336386D01*
X100267309Y-82307530D01*
G37*
%TD.AperFunction*%
%TA.AperFunction,ComponentPad*%
G36*
G01*
X103707500Y-76340000D02*
X97707500Y-76340000D01*
G75*
G02*
X97207500Y-75840000I0J500000D01*
G01*
X97207500Y-74840000D01*
G75*
G02*
X97707500Y-74340000I500000J0D01*
G01*
X103707500Y-74340000D01*
G75*
G02*
X104207500Y-74840000I0J-500000D01*
G01*
X104207500Y-75840000D01*
G75*
G02*
X103707500Y-76340000I-500000J0D01*
G01*
G37*
%TD.AperFunction*%
%TD*%
%TA.AperFunction,ComponentPad*%
%TO.P,BLACK,1*%
%TO.N,COM1*%
G36*
X169337309Y-82344753D02*
G01*
X169048559Y-82287317D01*
X168766830Y-82201855D01*
X168494835Y-82089191D01*
X168235192Y-81950409D01*
X167990402Y-81786846D01*
X167762823Y-81600076D01*
X167554647Y-81391900D01*
X167367877Y-81164321D01*
X167204314Y-80919531D01*
X167065532Y-80659888D01*
X166952868Y-80387893D01*
X166867406Y-80106164D01*
X166809970Y-79817414D01*
X166781114Y-79524426D01*
X166781114Y-79230020D01*
X166809970Y-78937032D01*
X166867406Y-78648282D01*
X166952868Y-78366553D01*
X167065532Y-78094558D01*
X167204314Y-77834915D01*
X167367877Y-77590125D01*
X167554647Y-77362546D01*
X167658735Y-77258458D01*
X166777500Y-76377223D01*
X172777500Y-76377223D01*
X171896265Y-77258458D01*
X172000353Y-77362546D01*
X172187123Y-77590125D01*
X172350686Y-77834915D01*
X172489468Y-78094558D01*
X172602132Y-78366553D01*
X172687594Y-78648282D01*
X172745030Y-78937032D01*
X172773886Y-79230020D01*
X172773886Y-79524426D01*
X172745030Y-79817414D01*
X172687594Y-80106164D01*
X172602132Y-80387893D01*
X172489468Y-80659888D01*
X172350686Y-80919531D01*
X172187123Y-81164321D01*
X172000353Y-81391900D01*
X171792177Y-81600076D01*
X171564598Y-81786846D01*
X171319808Y-81950409D01*
X171060165Y-82089191D01*
X170788170Y-82201855D01*
X170506441Y-82287317D01*
X170217691Y-82344753D01*
X169924703Y-82373609D01*
X169630297Y-82373609D01*
X169337309Y-82344753D01*
G37*
%TD.AperFunction*%
%TA.AperFunction,ComponentPad*%
G36*
G01*
X172777500Y-76377223D02*
X166777500Y-76377223D01*
G75*
G02*
X166277500Y-75877223I0J500000D01*
G01*
X166277500Y-74877223D01*
G75*
G02*
X166777500Y-74377223I500000J0D01*
G01*
X172777500Y-74377223D01*
G75*
G02*
X173277500Y-74877223I0J-500000D01*
G01*
X173277500Y-75877223D01*
G75*
G02*
X172777500Y-76377223I-500000J0D01*
G01*
G37*
%TD.AperFunction*%
%TD*%
%TO.P,RED,1*%
%TO.N,Net-(D1-Pad1)*%
%TA.AperFunction,ComponentPad*%
G36*
G01*
X35300000Y-41332777D02*
X41300000Y-41332777D01*
G75*
G02*
X41800000Y-41832777I0J-500000D01*
G01*
X41800000Y-42832777D01*
G75*
G02*
X41300000Y-43332777I-500000J0D01*
G01*
X35300000Y-43332777D01*
G75*
G02*
X34800000Y-42832777I0J500000D01*
G01*
X34800000Y-41832777D01*
G75*
G02*
X35300000Y-41332777I500000J0D01*
G01*
G37*
%TD.AperFunction*%
%TA.AperFunction,ComponentPad*%
G36*
X38740191Y-35365247D02*
G01*
X39028941Y-35422683D01*
X39310670Y-35508145D01*
X39582665Y-35620809D01*
X39842308Y-35759591D01*
X40087098Y-35923154D01*
X40314677Y-36109924D01*
X40522853Y-36318100D01*
X40709623Y-36545679D01*
X40873186Y-36790469D01*
X41011968Y-37050112D01*
X41124632Y-37322107D01*
X41210094Y-37603836D01*
X41267530Y-37892586D01*
X41296386Y-38185574D01*
X41296386Y-38479980D01*
X41267530Y-38772968D01*
X41210094Y-39061718D01*
X41124632Y-39343447D01*
X41011968Y-39615442D01*
X40873186Y-39875085D01*
X40709623Y-40119875D01*
X40522853Y-40347454D01*
X40418765Y-40451542D01*
X41300000Y-41332777D01*
X35300000Y-41332777D01*
X36181235Y-40451542D01*
X36077147Y-40347454D01*
X35890377Y-40119875D01*
X35726814Y-39875085D01*
X35588032Y-39615442D01*
X35475368Y-39343447D01*
X35389906Y-39061718D01*
X35332470Y-38772968D01*
X35303614Y-38479980D01*
X35303614Y-38185574D01*
X35332470Y-37892586D01*
X35389906Y-37603836D01*
X35475368Y-37322107D01*
X35588032Y-37050112D01*
X35726814Y-36790469D01*
X35890377Y-36545679D01*
X36077147Y-36318100D01*
X36285323Y-36109924D01*
X36512902Y-35923154D01*
X36757692Y-35759591D01*
X37017335Y-35620809D01*
X37289330Y-35508145D01*
X37571059Y-35422683D01*
X37859809Y-35365247D01*
X38152797Y-35336391D01*
X38447203Y-35336391D01*
X38740191Y-35365247D01*
G37*
%TD.AperFunction*%
%TD*%
%TA.AperFunction,ComponentPad*%
%TO.P,BLACK,1*%
%TO.N,NO1*%
G36*
X74915191Y-35365247D02*
G01*
X75203941Y-35422683D01*
X75485670Y-35508145D01*
X75757665Y-35620809D01*
X76017308Y-35759591D01*
X76262098Y-35923154D01*
X76489677Y-36109924D01*
X76697853Y-36318100D01*
X76884623Y-36545679D01*
X77048186Y-36790469D01*
X77186968Y-37050112D01*
X77299632Y-37322107D01*
X77385094Y-37603836D01*
X77442530Y-37892586D01*
X77471386Y-38185574D01*
X77471386Y-38479980D01*
X77442530Y-38772968D01*
X77385094Y-39061718D01*
X77299632Y-39343447D01*
X77186968Y-39615442D01*
X77048186Y-39875085D01*
X76884623Y-40119875D01*
X76697853Y-40347454D01*
X76593765Y-40451542D01*
X77475000Y-41332777D01*
X71475000Y-41332777D01*
X72356235Y-40451542D01*
X72252147Y-40347454D01*
X72065377Y-40119875D01*
X71901814Y-39875085D01*
X71763032Y-39615442D01*
X71650368Y-39343447D01*
X71564906Y-39061718D01*
X71507470Y-38772968D01*
X71478614Y-38479980D01*
X71478614Y-38185574D01*
X71507470Y-37892586D01*
X71564906Y-37603836D01*
X71650368Y-37322107D01*
X71763032Y-37050112D01*
X71901814Y-36790469D01*
X72065377Y-36545679D01*
X72252147Y-36318100D01*
X72460323Y-36109924D01*
X72687902Y-35923154D01*
X72932692Y-35759591D01*
X73192335Y-35620809D01*
X73464330Y-35508145D01*
X73746059Y-35422683D01*
X74034809Y-35365247D01*
X74327797Y-35336391D01*
X74622203Y-35336391D01*
X74915191Y-35365247D01*
G37*
%TD.AperFunction*%
%TA.AperFunction,ComponentPad*%
G36*
G01*
X71475000Y-41332777D02*
X77475000Y-41332777D01*
G75*
G02*
X77975000Y-41832777I0J-500000D01*
G01*
X77975000Y-42832777D01*
G75*
G02*
X77475000Y-43332777I-500000J0D01*
G01*
X71475000Y-43332777D01*
G75*
G02*
X70975000Y-42832777I0J500000D01*
G01*
X70975000Y-41832777D01*
G75*
G02*
X71475000Y-41332777I500000J0D01*
G01*
G37*
%TD.AperFunction*%
%TD*%
%TO.P,BLACK,1*%
%TO.N,NC1*%
%TA.AperFunction,ComponentPad*%
G36*
G01*
X54900000Y-41332777D02*
X60900000Y-41332777D01*
G75*
G02*
X61400000Y-41832777I0J-500000D01*
G01*
X61400000Y-42832777D01*
G75*
G02*
X60900000Y-43332777I-500000J0D01*
G01*
X54900000Y-43332777D01*
G75*
G02*
X54400000Y-42832777I0J500000D01*
G01*
X54400000Y-41832777D01*
G75*
G02*
X54900000Y-41332777I500000J0D01*
G01*
G37*
%TD.AperFunction*%
%TA.AperFunction,ComponentPad*%
G36*
X58340191Y-35365247D02*
G01*
X58628941Y-35422683D01*
X58910670Y-35508145D01*
X59182665Y-35620809D01*
X59442308Y-35759591D01*
X59687098Y-35923154D01*
X59914677Y-36109924D01*
X60122853Y-36318100D01*
X60309623Y-36545679D01*
X60473186Y-36790469D01*
X60611968Y-37050112D01*
X60724632Y-37322107D01*
X60810094Y-37603836D01*
X60867530Y-37892586D01*
X60896386Y-38185574D01*
X60896386Y-38479980D01*
X60867530Y-38772968D01*
X60810094Y-39061718D01*
X60724632Y-39343447D01*
X60611968Y-39615442D01*
X60473186Y-39875085D01*
X60309623Y-40119875D01*
X60122853Y-40347454D01*
X60018765Y-40451542D01*
X60900000Y-41332777D01*
X54900000Y-41332777D01*
X55781235Y-40451542D01*
X55677147Y-40347454D01*
X55490377Y-40119875D01*
X55326814Y-39875085D01*
X55188032Y-39615442D01*
X55075368Y-39343447D01*
X54989906Y-39061718D01*
X54932470Y-38772968D01*
X54903614Y-38479980D01*
X54903614Y-38185574D01*
X54932470Y-37892586D01*
X54989906Y-37603836D01*
X55075368Y-37322107D01*
X55188032Y-37050112D01*
X55326814Y-36790469D01*
X55490377Y-36545679D01*
X55677147Y-36318100D01*
X55885323Y-36109924D01*
X56112902Y-35923154D01*
X56357692Y-35759591D01*
X56617335Y-35620809D01*
X56889330Y-35508145D01*
X57171059Y-35422683D01*
X57459809Y-35365247D01*
X57752797Y-35336391D01*
X58047203Y-35336391D01*
X58340191Y-35365247D01*
G37*
%TD.AperFunction*%
%TD*%
%TA.AperFunction,ComponentPad*%
%TO.P,BLACK,1*%
%TO.N,NO1*%
G36*
X143965191Y-35365247D02*
G01*
X144253941Y-35422683D01*
X144535670Y-35508145D01*
X144807665Y-35620809D01*
X145067308Y-35759591D01*
X145312098Y-35923154D01*
X145539677Y-36109924D01*
X145747853Y-36318100D01*
X145934623Y-36545679D01*
X146098186Y-36790469D01*
X146236968Y-37050112D01*
X146349632Y-37322107D01*
X146435094Y-37603836D01*
X146492530Y-37892586D01*
X146521386Y-38185574D01*
X146521386Y-38479980D01*
X146492530Y-38772968D01*
X146435094Y-39061718D01*
X146349632Y-39343447D01*
X146236968Y-39615442D01*
X146098186Y-39875085D01*
X145934623Y-40119875D01*
X145747853Y-40347454D01*
X145643765Y-40451542D01*
X146525000Y-41332777D01*
X140525000Y-41332777D01*
X141406235Y-40451542D01*
X141302147Y-40347454D01*
X141115377Y-40119875D01*
X140951814Y-39875085D01*
X140813032Y-39615442D01*
X140700368Y-39343447D01*
X140614906Y-39061718D01*
X140557470Y-38772968D01*
X140528614Y-38479980D01*
X140528614Y-38185574D01*
X140557470Y-37892586D01*
X140614906Y-37603836D01*
X140700368Y-37322107D01*
X140813032Y-37050112D01*
X140951814Y-36790469D01*
X141115377Y-36545679D01*
X141302147Y-36318100D01*
X141510323Y-36109924D01*
X141737902Y-35923154D01*
X141982692Y-35759591D01*
X142242335Y-35620809D01*
X142514330Y-35508145D01*
X142796059Y-35422683D01*
X143084809Y-35365247D01*
X143377797Y-35336391D01*
X143672203Y-35336391D01*
X143965191Y-35365247D01*
G37*
%TD.AperFunction*%
%TA.AperFunction,ComponentPad*%
G36*
G01*
X140525000Y-41332777D02*
X146525000Y-41332777D01*
G75*
G02*
X147025000Y-41832777I0J-500000D01*
G01*
X147025000Y-42832777D01*
G75*
G02*
X146525000Y-43332777I-500000J0D01*
G01*
X140525000Y-43332777D01*
G75*
G02*
X140025000Y-42832777I0J500000D01*
G01*
X140025000Y-41832777D01*
G75*
G02*
X140525000Y-41332777I500000J0D01*
G01*
G37*
%TD.AperFunction*%
%TD*%
%TO.P,BLACK,1*%
%TO.N,NC1*%
%TA.AperFunction,ComponentPad*%
G36*
G01*
X123970000Y-41332777D02*
X129970000Y-41332777D01*
G75*
G02*
X130470000Y-41832777I0J-500000D01*
G01*
X130470000Y-42832777D01*
G75*
G02*
X129970000Y-43332777I-500000J0D01*
G01*
X123970000Y-43332777D01*
G75*
G02*
X123470000Y-42832777I0J500000D01*
G01*
X123470000Y-41832777D01*
G75*
G02*
X123970000Y-41332777I500000J0D01*
G01*
G37*
%TD.AperFunction*%
%TA.AperFunction,ComponentPad*%
G36*
X127410191Y-35365247D02*
G01*
X127698941Y-35422683D01*
X127980670Y-35508145D01*
X128252665Y-35620809D01*
X128512308Y-35759591D01*
X128757098Y-35923154D01*
X128984677Y-36109924D01*
X129192853Y-36318100D01*
X129379623Y-36545679D01*
X129543186Y-36790469D01*
X129681968Y-37050112D01*
X129794632Y-37322107D01*
X129880094Y-37603836D01*
X129937530Y-37892586D01*
X129966386Y-38185574D01*
X129966386Y-38479980D01*
X129937530Y-38772968D01*
X129880094Y-39061718D01*
X129794632Y-39343447D01*
X129681968Y-39615442D01*
X129543186Y-39875085D01*
X129379623Y-40119875D01*
X129192853Y-40347454D01*
X129088765Y-40451542D01*
X129970000Y-41332777D01*
X123970000Y-41332777D01*
X124851235Y-40451542D01*
X124747147Y-40347454D01*
X124560377Y-40119875D01*
X124396814Y-39875085D01*
X124258032Y-39615442D01*
X124145368Y-39343447D01*
X124059906Y-39061718D01*
X124002470Y-38772968D01*
X123973614Y-38479980D01*
X123973614Y-38185574D01*
X124002470Y-37892586D01*
X124059906Y-37603836D01*
X124145368Y-37322107D01*
X124258032Y-37050112D01*
X124396814Y-36790469D01*
X124560377Y-36545679D01*
X124747147Y-36318100D01*
X124955323Y-36109924D01*
X125182902Y-35923154D01*
X125427692Y-35759591D01*
X125687335Y-35620809D01*
X125959330Y-35508145D01*
X126241059Y-35422683D01*
X126529809Y-35365247D01*
X126822797Y-35336391D01*
X127117203Y-35336391D01*
X127410191Y-35365247D01*
G37*
%TD.AperFunction*%
%TD*%
%TO.P,BLACK,1*%
%TO.N,NO1*%
%TA.AperFunction,ComponentPad*%
G36*
G01*
X106000000Y-41332777D02*
X112000000Y-41332777D01*
G75*
G02*
X112500000Y-41832777I0J-500000D01*
G01*
X112500000Y-42832777D01*
G75*
G02*
X112000000Y-43332777I-500000J0D01*
G01*
X106000000Y-43332777D01*
G75*
G02*
X105500000Y-42832777I0J500000D01*
G01*
X105500000Y-41832777D01*
G75*
G02*
X106000000Y-41332777I500000J0D01*
G01*
G37*
%TD.AperFunction*%
%TA.AperFunction,ComponentPad*%
G36*
X109440191Y-35365247D02*
G01*
X109728941Y-35422683D01*
X110010670Y-35508145D01*
X110282665Y-35620809D01*
X110542308Y-35759591D01*
X110787098Y-35923154D01*
X111014677Y-36109924D01*
X111222853Y-36318100D01*
X111409623Y-36545679D01*
X111573186Y-36790469D01*
X111711968Y-37050112D01*
X111824632Y-37322107D01*
X111910094Y-37603836D01*
X111967530Y-37892586D01*
X111996386Y-38185574D01*
X111996386Y-38479980D01*
X111967530Y-38772968D01*
X111910094Y-39061718D01*
X111824632Y-39343447D01*
X111711968Y-39615442D01*
X111573186Y-39875085D01*
X111409623Y-40119875D01*
X111222853Y-40347454D01*
X111118765Y-40451542D01*
X112000000Y-41332777D01*
X106000000Y-41332777D01*
X106881235Y-40451542D01*
X106777147Y-40347454D01*
X106590377Y-40119875D01*
X106426814Y-39875085D01*
X106288032Y-39615442D01*
X106175368Y-39343447D01*
X106089906Y-39061718D01*
X106032470Y-38772968D01*
X106003614Y-38479980D01*
X106003614Y-38185574D01*
X106032470Y-37892586D01*
X106089906Y-37603836D01*
X106175368Y-37322107D01*
X106288032Y-37050112D01*
X106426814Y-36790469D01*
X106590377Y-36545679D01*
X106777147Y-36318100D01*
X106985323Y-36109924D01*
X107212902Y-35923154D01*
X107457692Y-35759591D01*
X107717335Y-35620809D01*
X107989330Y-35508145D01*
X108271059Y-35422683D01*
X108559809Y-35365247D01*
X108852797Y-35336391D01*
X109147203Y-35336391D01*
X109440191Y-35365247D01*
G37*
%TD.AperFunction*%
%TD*%
%TA.AperFunction,ComponentPad*%
%TO.P,BLACK,1*%
%TO.N,NC1*%
G36*
X92865191Y-35365247D02*
G01*
X93153941Y-35422683D01*
X93435670Y-35508145D01*
X93707665Y-35620809D01*
X93967308Y-35759591D01*
X94212098Y-35923154D01*
X94439677Y-36109924D01*
X94647853Y-36318100D01*
X94834623Y-36545679D01*
X94998186Y-36790469D01*
X95136968Y-37050112D01*
X95249632Y-37322107D01*
X95335094Y-37603836D01*
X95392530Y-37892586D01*
X95421386Y-38185574D01*
X95421386Y-38479980D01*
X95392530Y-38772968D01*
X95335094Y-39061718D01*
X95249632Y-39343447D01*
X95136968Y-39615442D01*
X94998186Y-39875085D01*
X94834623Y-40119875D01*
X94647853Y-40347454D01*
X94543765Y-40451542D01*
X95425000Y-41332777D01*
X89425000Y-41332777D01*
X90306235Y-40451542D01*
X90202147Y-40347454D01*
X90015377Y-40119875D01*
X89851814Y-39875085D01*
X89713032Y-39615442D01*
X89600368Y-39343447D01*
X89514906Y-39061718D01*
X89457470Y-38772968D01*
X89428614Y-38479980D01*
X89428614Y-38185574D01*
X89457470Y-37892586D01*
X89514906Y-37603836D01*
X89600368Y-37322107D01*
X89713032Y-37050112D01*
X89851814Y-36790469D01*
X90015377Y-36545679D01*
X90202147Y-36318100D01*
X90410323Y-36109924D01*
X90637902Y-35923154D01*
X90882692Y-35759591D01*
X91142335Y-35620809D01*
X91414330Y-35508145D01*
X91696059Y-35422683D01*
X91984809Y-35365247D01*
X92277797Y-35336391D01*
X92572203Y-35336391D01*
X92865191Y-35365247D01*
G37*
%TD.AperFunction*%
%TA.AperFunction,ComponentPad*%
G36*
G01*
X89425000Y-41332777D02*
X95425000Y-41332777D01*
G75*
G02*
X95925000Y-41832777I0J-500000D01*
G01*
X95925000Y-42832777D01*
G75*
G02*
X95425000Y-43332777I-500000J0D01*
G01*
X89425000Y-43332777D01*
G75*
G02*
X88925000Y-42832777I0J500000D01*
G01*
X88925000Y-41832777D01*
G75*
G02*
X89425000Y-41332777I500000J0D01*
G01*
G37*
%TD.AperFunction*%
%TD*%
%TO.P,BLACK,1*%
%TO.N,NO1*%
%TA.AperFunction,ComponentPad*%
G36*
G01*
X175070000Y-41300000D02*
X181070000Y-41300000D01*
G75*
G02*
X181570000Y-41800000I0J-500000D01*
G01*
X181570000Y-42800000D01*
G75*
G02*
X181070000Y-43300000I-500000J0D01*
G01*
X175070000Y-43300000D01*
G75*
G02*
X174570000Y-42800000I0J500000D01*
G01*
X174570000Y-41800000D01*
G75*
G02*
X175070000Y-41300000I500000J0D01*
G01*
G37*
%TD.AperFunction*%
%TA.AperFunction,ComponentPad*%
G36*
X178510191Y-35332470D02*
G01*
X178798941Y-35389906D01*
X179080670Y-35475368D01*
X179352665Y-35588032D01*
X179612308Y-35726814D01*
X179857098Y-35890377D01*
X180084677Y-36077147D01*
X180292853Y-36285323D01*
X180479623Y-36512902D01*
X180643186Y-36757692D01*
X180781968Y-37017335D01*
X180894632Y-37289330D01*
X180980094Y-37571059D01*
X181037530Y-37859809D01*
X181066386Y-38152797D01*
X181066386Y-38447203D01*
X181037530Y-38740191D01*
X180980094Y-39028941D01*
X180894632Y-39310670D01*
X180781968Y-39582665D01*
X180643186Y-39842308D01*
X180479623Y-40087098D01*
X180292853Y-40314677D01*
X180188765Y-40418765D01*
X181070000Y-41300000D01*
X175070000Y-41300000D01*
X175951235Y-40418765D01*
X175847147Y-40314677D01*
X175660377Y-40087098D01*
X175496814Y-39842308D01*
X175358032Y-39582665D01*
X175245368Y-39310670D01*
X175159906Y-39028941D01*
X175102470Y-38740191D01*
X175073614Y-38447203D01*
X175073614Y-38152797D01*
X175102470Y-37859809D01*
X175159906Y-37571059D01*
X175245368Y-37289330D01*
X175358032Y-37017335D01*
X175496814Y-36757692D01*
X175660377Y-36512902D01*
X175847147Y-36285323D01*
X176055323Y-36077147D01*
X176282902Y-35890377D01*
X176527692Y-35726814D01*
X176787335Y-35588032D01*
X177059330Y-35475368D01*
X177341059Y-35389906D01*
X177629809Y-35332470D01*
X177922797Y-35303614D01*
X178217203Y-35303614D01*
X178510191Y-35332470D01*
G37*
%TD.AperFunction*%
%TD*%
%TA.AperFunction,ComponentPad*%
%TO.P,BLACK,1*%
%TO.N,NC1*%
G36*
X161935191Y-35332470D02*
G01*
X162223941Y-35389906D01*
X162505670Y-35475368D01*
X162777665Y-35588032D01*
X163037308Y-35726814D01*
X163282098Y-35890377D01*
X163509677Y-36077147D01*
X163717853Y-36285323D01*
X163904623Y-36512902D01*
X164068186Y-36757692D01*
X164206968Y-37017335D01*
X164319632Y-37289330D01*
X164405094Y-37571059D01*
X164462530Y-37859809D01*
X164491386Y-38152797D01*
X164491386Y-38447203D01*
X164462530Y-38740191D01*
X164405094Y-39028941D01*
X164319632Y-39310670D01*
X164206968Y-39582665D01*
X164068186Y-39842308D01*
X163904623Y-40087098D01*
X163717853Y-40314677D01*
X163613765Y-40418765D01*
X164495000Y-41300000D01*
X158495000Y-41300000D01*
X159376235Y-40418765D01*
X159272147Y-40314677D01*
X159085377Y-40087098D01*
X158921814Y-39842308D01*
X158783032Y-39582665D01*
X158670368Y-39310670D01*
X158584906Y-39028941D01*
X158527470Y-38740191D01*
X158498614Y-38447203D01*
X158498614Y-38152797D01*
X158527470Y-37859809D01*
X158584906Y-37571059D01*
X158670368Y-37289330D01*
X158783032Y-37017335D01*
X158921814Y-36757692D01*
X159085377Y-36512902D01*
X159272147Y-36285323D01*
X159480323Y-36077147D01*
X159707902Y-35890377D01*
X159952692Y-35726814D01*
X160212335Y-35588032D01*
X160484330Y-35475368D01*
X160766059Y-35389906D01*
X161054809Y-35332470D01*
X161347797Y-35303614D01*
X161642203Y-35303614D01*
X161935191Y-35332470D01*
G37*
%TD.AperFunction*%
%TA.AperFunction,ComponentPad*%
G36*
G01*
X158495000Y-41300000D02*
X164495000Y-41300000D01*
G75*
G02*
X164995000Y-41800000I0J-500000D01*
G01*
X164995000Y-42800000D01*
G75*
G02*
X164495000Y-43300000I-500000J0D01*
G01*
X158495000Y-43300000D01*
G75*
G02*
X157995000Y-42800000I0J500000D01*
G01*
X157995000Y-41800000D01*
G75*
G02*
X158495000Y-41300000I500000J0D01*
G01*
G37*
%TD.AperFunction*%
%TD*%
%TO.P,BLUE,1*%
%TO.N,R2-*%
%TA.AperFunction,ComponentPad*%
G36*
G01*
X41300000Y-131697223D02*
X35300000Y-131697223D01*
G75*
G02*
X34800000Y-131197223I0J500000D01*
G01*
X34800000Y-130197223D01*
G75*
G02*
X35300000Y-129697223I500000J0D01*
G01*
X41300000Y-129697223D01*
G75*
G02*
X41800000Y-130197223I0J-500000D01*
G01*
X41800000Y-131197223D01*
G75*
G02*
X41300000Y-131697223I-500000J0D01*
G01*
G37*
%TD.AperFunction*%
%TA.AperFunction,ComponentPad*%
G36*
X37859809Y-137664753D02*
G01*
X37571059Y-137607317D01*
X37289330Y-137521855D01*
X37017335Y-137409191D01*
X36757692Y-137270409D01*
X36512902Y-137106846D01*
X36285323Y-136920076D01*
X36077147Y-136711900D01*
X35890377Y-136484321D01*
X35726814Y-136239531D01*
X35588032Y-135979888D01*
X35475368Y-135707893D01*
X35389906Y-135426164D01*
X35332470Y-135137414D01*
X35303614Y-134844426D01*
X35303614Y-134550020D01*
X35332470Y-134257032D01*
X35389906Y-133968282D01*
X35475368Y-133686553D01*
X35588032Y-133414558D01*
X35726814Y-133154915D01*
X35890377Y-132910125D01*
X36077147Y-132682546D01*
X36181235Y-132578458D01*
X35300000Y-131697223D01*
X41300000Y-131697223D01*
X40418765Y-132578458D01*
X40522853Y-132682546D01*
X40709623Y-132910125D01*
X40873186Y-133154915D01*
X41011968Y-133414558D01*
X41124632Y-133686553D01*
X41210094Y-133968282D01*
X41267530Y-134257032D01*
X41296386Y-134550020D01*
X41296386Y-134844426D01*
X41267530Y-135137414D01*
X41210094Y-135426164D01*
X41124632Y-135707893D01*
X41011968Y-135979888D01*
X40873186Y-136239531D01*
X40709623Y-136484321D01*
X40522853Y-136711900D01*
X40314677Y-136920076D01*
X40087098Y-137106846D01*
X39842308Y-137270409D01*
X39582665Y-137409191D01*
X39310670Y-137521855D01*
X39028941Y-137607317D01*
X38740191Y-137664753D01*
X38447203Y-137693609D01*
X38152797Y-137693609D01*
X37859809Y-137664753D01*
G37*
%TD.AperFunction*%
%TD*%
%TO.P,BLACK,1*%
%TO.N,COM2*%
%TA.AperFunction,ComponentPad*%
G36*
G01*
X138252500Y-131697223D02*
X132252500Y-131697223D01*
G75*
G02*
X131752500Y-131197223I0J500000D01*
G01*
X131752500Y-130197223D01*
G75*
G02*
X132252500Y-129697223I500000J0D01*
G01*
X138252500Y-129697223D01*
G75*
G02*
X138752500Y-130197223I0J-500000D01*
G01*
X138752500Y-131197223D01*
G75*
G02*
X138252500Y-131697223I-500000J0D01*
G01*
G37*
%TD.AperFunction*%
%TA.AperFunction,ComponentPad*%
G36*
X134812309Y-137664753D02*
G01*
X134523559Y-137607317D01*
X134241830Y-137521855D01*
X133969835Y-137409191D01*
X133710192Y-137270409D01*
X133465402Y-137106846D01*
X133237823Y-136920076D01*
X133029647Y-136711900D01*
X132842877Y-136484321D01*
X132679314Y-136239531D01*
X132540532Y-135979888D01*
X132427868Y-135707893D01*
X132342406Y-135426164D01*
X132284970Y-135137414D01*
X132256114Y-134844426D01*
X132256114Y-134550020D01*
X132284970Y-134257032D01*
X132342406Y-133968282D01*
X132427868Y-133686553D01*
X132540532Y-133414558D01*
X132679314Y-133154915D01*
X132842877Y-132910125D01*
X133029647Y-132682546D01*
X133133735Y-132578458D01*
X132252500Y-131697223D01*
X138252500Y-131697223D01*
X137371265Y-132578458D01*
X137475353Y-132682546D01*
X137662123Y-132910125D01*
X137825686Y-133154915D01*
X137964468Y-133414558D01*
X138077132Y-133686553D01*
X138162594Y-133968282D01*
X138220030Y-134257032D01*
X138248886Y-134550020D01*
X138248886Y-134844426D01*
X138220030Y-135137414D01*
X138162594Y-135426164D01*
X138077132Y-135707893D01*
X137964468Y-135979888D01*
X137825686Y-136239531D01*
X137662123Y-136484321D01*
X137475353Y-136711900D01*
X137267177Y-136920076D01*
X137039598Y-137106846D01*
X136794808Y-137270409D01*
X136535165Y-137409191D01*
X136263170Y-137521855D01*
X135981441Y-137607317D01*
X135692691Y-137664753D01*
X135399703Y-137693609D01*
X135105297Y-137693609D01*
X134812309Y-137664753D01*
G37*
%TD.AperFunction*%
%TD*%
%TA.AperFunction,ComponentPad*%
%TO.P,BLACK,1*%
%TO.N,COM2*%
G36*
X65742309Y-137664753D02*
G01*
X65453559Y-137607317D01*
X65171830Y-137521855D01*
X64899835Y-137409191D01*
X64640192Y-137270409D01*
X64395402Y-137106846D01*
X64167823Y-136920076D01*
X63959647Y-136711900D01*
X63772877Y-136484321D01*
X63609314Y-136239531D01*
X63470532Y-135979888D01*
X63357868Y-135707893D01*
X63272406Y-135426164D01*
X63214970Y-135137414D01*
X63186114Y-134844426D01*
X63186114Y-134550020D01*
X63214970Y-134257032D01*
X63272406Y-133968282D01*
X63357868Y-133686553D01*
X63470532Y-133414558D01*
X63609314Y-133154915D01*
X63772877Y-132910125D01*
X63959647Y-132682546D01*
X64063735Y-132578458D01*
X63182500Y-131697223D01*
X69182500Y-131697223D01*
X68301265Y-132578458D01*
X68405353Y-132682546D01*
X68592123Y-132910125D01*
X68755686Y-133154915D01*
X68894468Y-133414558D01*
X69007132Y-133686553D01*
X69092594Y-133968282D01*
X69150030Y-134257032D01*
X69178886Y-134550020D01*
X69178886Y-134844426D01*
X69150030Y-135137414D01*
X69092594Y-135426164D01*
X69007132Y-135707893D01*
X68894468Y-135979888D01*
X68755686Y-136239531D01*
X68592123Y-136484321D01*
X68405353Y-136711900D01*
X68197177Y-136920076D01*
X67969598Y-137106846D01*
X67724808Y-137270409D01*
X67465165Y-137409191D01*
X67193170Y-137521855D01*
X66911441Y-137607317D01*
X66622691Y-137664753D01*
X66329703Y-137693609D01*
X66035297Y-137693609D01*
X65742309Y-137664753D01*
G37*
%TD.AperFunction*%
%TA.AperFunction,ComponentPad*%
G36*
G01*
X69182500Y-131697223D02*
X63182500Y-131697223D01*
G75*
G02*
X62682500Y-131197223I0J500000D01*
G01*
X62682500Y-130197223D01*
G75*
G02*
X63182500Y-129697223I500000J0D01*
G01*
X69182500Y-129697223D01*
G75*
G02*
X69682500Y-130197223I0J-500000D01*
G01*
X69682500Y-131197223D01*
G75*
G02*
X69182500Y-131697223I-500000J0D01*
G01*
G37*
%TD.AperFunction*%
%TD*%
%TO.P,BLACK,1*%
%TO.N,COM2*%
%TA.AperFunction,ComponentPad*%
G36*
G01*
X103700000Y-131697223D02*
X97700000Y-131697223D01*
G75*
G02*
X97200000Y-131197223I0J500000D01*
G01*
X97200000Y-130197223D01*
G75*
G02*
X97700000Y-129697223I500000J0D01*
G01*
X103700000Y-129697223D01*
G75*
G02*
X104200000Y-130197223I0J-500000D01*
G01*
X104200000Y-131197223D01*
G75*
G02*
X103700000Y-131697223I-500000J0D01*
G01*
G37*
%TD.AperFunction*%
%TA.AperFunction,ComponentPad*%
G36*
X100259809Y-137664753D02*
G01*
X99971059Y-137607317D01*
X99689330Y-137521855D01*
X99417335Y-137409191D01*
X99157692Y-137270409D01*
X98912902Y-137106846D01*
X98685323Y-136920076D01*
X98477147Y-136711900D01*
X98290377Y-136484321D01*
X98126814Y-136239531D01*
X97988032Y-135979888D01*
X97875368Y-135707893D01*
X97789906Y-135426164D01*
X97732470Y-135137414D01*
X97703614Y-134844426D01*
X97703614Y-134550020D01*
X97732470Y-134257032D01*
X97789906Y-133968282D01*
X97875368Y-133686553D01*
X97988032Y-133414558D01*
X98126814Y-133154915D01*
X98290377Y-132910125D01*
X98477147Y-132682546D01*
X98581235Y-132578458D01*
X97700000Y-131697223D01*
X103700000Y-131697223D01*
X102818765Y-132578458D01*
X102922853Y-132682546D01*
X103109623Y-132910125D01*
X103273186Y-133154915D01*
X103411968Y-133414558D01*
X103524632Y-133686553D01*
X103610094Y-133968282D01*
X103667530Y-134257032D01*
X103696386Y-134550020D01*
X103696386Y-134844426D01*
X103667530Y-135137414D01*
X103610094Y-135426164D01*
X103524632Y-135707893D01*
X103411968Y-135979888D01*
X103273186Y-136239531D01*
X103109623Y-136484321D01*
X102922853Y-136711900D01*
X102714677Y-136920076D01*
X102487098Y-137106846D01*
X102242308Y-137270409D01*
X101982665Y-137409191D01*
X101710670Y-137521855D01*
X101428941Y-137607317D01*
X101140191Y-137664753D01*
X100847203Y-137693609D01*
X100552797Y-137693609D01*
X100259809Y-137664753D01*
G37*
%TD.AperFunction*%
%TD*%
%TO.P,BLACK,1*%
%TO.N,COM2*%
%TA.AperFunction,ComponentPad*%
G36*
G01*
X172777500Y-131697223D02*
X166777500Y-131697223D01*
G75*
G02*
X166277500Y-131197223I0J500000D01*
G01*
X166277500Y-130197223D01*
G75*
G02*
X166777500Y-129697223I500000J0D01*
G01*
X172777500Y-129697223D01*
G75*
G02*
X173277500Y-130197223I0J-500000D01*
G01*
X173277500Y-131197223D01*
G75*
G02*
X172777500Y-131697223I-500000J0D01*
G01*
G37*
%TD.AperFunction*%
%TA.AperFunction,ComponentPad*%
G36*
X169337309Y-137664753D02*
G01*
X169048559Y-137607317D01*
X168766830Y-137521855D01*
X168494835Y-137409191D01*
X168235192Y-137270409D01*
X167990402Y-137106846D01*
X167762823Y-136920076D01*
X167554647Y-136711900D01*
X167367877Y-136484321D01*
X167204314Y-136239531D01*
X167065532Y-135979888D01*
X166952868Y-135707893D01*
X166867406Y-135426164D01*
X166809970Y-135137414D01*
X166781114Y-134844426D01*
X166781114Y-134550020D01*
X166809970Y-134257032D01*
X166867406Y-133968282D01*
X166952868Y-133686553D01*
X167065532Y-133414558D01*
X167204314Y-133154915D01*
X167367877Y-132910125D01*
X167554647Y-132682546D01*
X167658735Y-132578458D01*
X166777500Y-131697223D01*
X172777500Y-131697223D01*
X171896265Y-132578458D01*
X172000353Y-132682546D01*
X172187123Y-132910125D01*
X172350686Y-133154915D01*
X172489468Y-133414558D01*
X172602132Y-133686553D01*
X172687594Y-133968282D01*
X172745030Y-134257032D01*
X172773886Y-134550020D01*
X172773886Y-134844426D01*
X172745030Y-135137414D01*
X172687594Y-135426164D01*
X172602132Y-135707893D01*
X172489468Y-135979888D01*
X172350686Y-136239531D01*
X172187123Y-136484321D01*
X172000353Y-136711900D01*
X171792177Y-136920076D01*
X171564598Y-137106846D01*
X171319808Y-137270409D01*
X171060165Y-137409191D01*
X170788170Y-137521855D01*
X170506441Y-137607317D01*
X170217691Y-137664753D01*
X169924703Y-137693609D01*
X169630297Y-137693609D01*
X169337309Y-137664753D01*
G37*
%TD.AperFunction*%
%TD*%
%TA.AperFunction,ComponentPad*%
%TO.P,RED,1*%
%TO.N,Net-(D3-Pad1)*%
G36*
X38740191Y-89685247D02*
G01*
X39028941Y-89742683D01*
X39310670Y-89828145D01*
X39582665Y-89940809D01*
X39842308Y-90079591D01*
X40087098Y-90243154D01*
X40314677Y-90429924D01*
X40522853Y-90638100D01*
X40709623Y-90865679D01*
X40873186Y-91110469D01*
X41011968Y-91370112D01*
X41124632Y-91642107D01*
X41210094Y-91923836D01*
X41267530Y-92212586D01*
X41296386Y-92505574D01*
X41296386Y-92799980D01*
X41267530Y-93092968D01*
X41210094Y-93381718D01*
X41124632Y-93663447D01*
X41011968Y-93935442D01*
X40873186Y-94195085D01*
X40709623Y-94439875D01*
X40522853Y-94667454D01*
X40418765Y-94771542D01*
X41300000Y-95652777D01*
X35300000Y-95652777D01*
X36181235Y-94771542D01*
X36077147Y-94667454D01*
X35890377Y-94439875D01*
X35726814Y-94195085D01*
X35588032Y-93935442D01*
X35475368Y-93663447D01*
X35389906Y-93381718D01*
X35332470Y-93092968D01*
X35303614Y-92799980D01*
X35303614Y-92505574D01*
X35332470Y-92212586D01*
X35389906Y-91923836D01*
X35475368Y-91642107D01*
X35588032Y-91370112D01*
X35726814Y-91110469D01*
X35890377Y-90865679D01*
X36077147Y-90638100D01*
X36285323Y-90429924D01*
X36512902Y-90243154D01*
X36757692Y-90079591D01*
X37017335Y-89940809D01*
X37289330Y-89828145D01*
X37571059Y-89742683D01*
X37859809Y-89685247D01*
X38152797Y-89656391D01*
X38447203Y-89656391D01*
X38740191Y-89685247D01*
G37*
%TD.AperFunction*%
%TA.AperFunction,ComponentPad*%
G36*
G01*
X35300000Y-95652777D02*
X41300000Y-95652777D01*
G75*
G02*
X41800000Y-96152777I0J-500000D01*
G01*
X41800000Y-97152777D01*
G75*
G02*
X41300000Y-97652777I-500000J0D01*
G01*
X35300000Y-97652777D01*
G75*
G02*
X34800000Y-97152777I0J500000D01*
G01*
X34800000Y-96152777D01*
G75*
G02*
X35300000Y-95652777I500000J0D01*
G01*
G37*
%TD.AperFunction*%
%TD*%
%TA.AperFunction,ComponentPad*%
%TO.P,BLACK,1*%
%TO.N,NO2*%
G36*
X143965191Y-89685247D02*
G01*
X144253941Y-89742683D01*
X144535670Y-89828145D01*
X144807665Y-89940809D01*
X145067308Y-90079591D01*
X145312098Y-90243154D01*
X145539677Y-90429924D01*
X145747853Y-90638100D01*
X145934623Y-90865679D01*
X146098186Y-91110469D01*
X146236968Y-91370112D01*
X146349632Y-91642107D01*
X146435094Y-91923836D01*
X146492530Y-92212586D01*
X146521386Y-92505574D01*
X146521386Y-92799980D01*
X146492530Y-93092968D01*
X146435094Y-93381718D01*
X146349632Y-93663447D01*
X146236968Y-93935442D01*
X146098186Y-94195085D01*
X145934623Y-94439875D01*
X145747853Y-94667454D01*
X145643765Y-94771542D01*
X146525000Y-95652777D01*
X140525000Y-95652777D01*
X141406235Y-94771542D01*
X141302147Y-94667454D01*
X141115377Y-94439875D01*
X140951814Y-94195085D01*
X140813032Y-93935442D01*
X140700368Y-93663447D01*
X140614906Y-93381718D01*
X140557470Y-93092968D01*
X140528614Y-92799980D01*
X140528614Y-92505574D01*
X140557470Y-92212586D01*
X140614906Y-91923836D01*
X140700368Y-91642107D01*
X140813032Y-91370112D01*
X140951814Y-91110469D01*
X141115377Y-90865679D01*
X141302147Y-90638100D01*
X141510323Y-90429924D01*
X141737902Y-90243154D01*
X141982692Y-90079591D01*
X142242335Y-89940809D01*
X142514330Y-89828145D01*
X142796059Y-89742683D01*
X143084809Y-89685247D01*
X143377797Y-89656391D01*
X143672203Y-89656391D01*
X143965191Y-89685247D01*
G37*
%TD.AperFunction*%
%TA.AperFunction,ComponentPad*%
G36*
G01*
X140525000Y-95652777D02*
X146525000Y-95652777D01*
G75*
G02*
X147025000Y-96152777I0J-500000D01*
G01*
X147025000Y-97152777D01*
G75*
G02*
X146525000Y-97652777I-500000J0D01*
G01*
X140525000Y-97652777D01*
G75*
G02*
X140025000Y-97152777I0J500000D01*
G01*
X140025000Y-96152777D01*
G75*
G02*
X140525000Y-95652777I500000J0D01*
G01*
G37*
%TD.AperFunction*%
%TD*%
%TO.P,BLACK,1*%
%TO.N,NC2*%
%TA.AperFunction,ComponentPad*%
G36*
G01*
X123970000Y-95652777D02*
X129970000Y-95652777D01*
G75*
G02*
X130470000Y-96152777I0J-500000D01*
G01*
X130470000Y-97152777D01*
G75*
G02*
X129970000Y-97652777I-500000J0D01*
G01*
X123970000Y-97652777D01*
G75*
G02*
X123470000Y-97152777I0J500000D01*
G01*
X123470000Y-96152777D01*
G75*
G02*
X123970000Y-95652777I500000J0D01*
G01*
G37*
%TD.AperFunction*%
%TA.AperFunction,ComponentPad*%
G36*
X127410191Y-89685247D02*
G01*
X127698941Y-89742683D01*
X127980670Y-89828145D01*
X128252665Y-89940809D01*
X128512308Y-90079591D01*
X128757098Y-90243154D01*
X128984677Y-90429924D01*
X129192853Y-90638100D01*
X129379623Y-90865679D01*
X129543186Y-91110469D01*
X129681968Y-91370112D01*
X129794632Y-91642107D01*
X129880094Y-91923836D01*
X129937530Y-92212586D01*
X129966386Y-92505574D01*
X129966386Y-92799980D01*
X129937530Y-93092968D01*
X129880094Y-93381718D01*
X129794632Y-93663447D01*
X129681968Y-93935442D01*
X129543186Y-94195085D01*
X129379623Y-94439875D01*
X129192853Y-94667454D01*
X129088765Y-94771542D01*
X129970000Y-95652777D01*
X123970000Y-95652777D01*
X124851235Y-94771542D01*
X124747147Y-94667454D01*
X124560377Y-94439875D01*
X124396814Y-94195085D01*
X124258032Y-93935442D01*
X124145368Y-93663447D01*
X124059906Y-93381718D01*
X124002470Y-93092968D01*
X123973614Y-92799980D01*
X123973614Y-92505574D01*
X124002470Y-92212586D01*
X124059906Y-91923836D01*
X124145368Y-91642107D01*
X124258032Y-91370112D01*
X124396814Y-91110469D01*
X124560377Y-90865679D01*
X124747147Y-90638100D01*
X124955323Y-90429924D01*
X125182902Y-90243154D01*
X125427692Y-90079591D01*
X125687335Y-89940809D01*
X125959330Y-89828145D01*
X126241059Y-89742683D01*
X126529809Y-89685247D01*
X126822797Y-89656391D01*
X127117203Y-89656391D01*
X127410191Y-89685247D01*
G37*
%TD.AperFunction*%
%TD*%
%TO.P,BLACK,1*%
%TO.N,NO2*%
%TA.AperFunction,ComponentPad*%
G36*
G01*
X71475000Y-95652777D02*
X77475000Y-95652777D01*
G75*
G02*
X77975000Y-96152777I0J-500000D01*
G01*
X77975000Y-97152777D01*
G75*
G02*
X77475000Y-97652777I-500000J0D01*
G01*
X71475000Y-97652777D01*
G75*
G02*
X70975000Y-97152777I0J500000D01*
G01*
X70975000Y-96152777D01*
G75*
G02*
X71475000Y-95652777I500000J0D01*
G01*
G37*
%TD.AperFunction*%
%TA.AperFunction,ComponentPad*%
G36*
X74915191Y-89685247D02*
G01*
X75203941Y-89742683D01*
X75485670Y-89828145D01*
X75757665Y-89940809D01*
X76017308Y-90079591D01*
X76262098Y-90243154D01*
X76489677Y-90429924D01*
X76697853Y-90638100D01*
X76884623Y-90865679D01*
X77048186Y-91110469D01*
X77186968Y-91370112D01*
X77299632Y-91642107D01*
X77385094Y-91923836D01*
X77442530Y-92212586D01*
X77471386Y-92505574D01*
X77471386Y-92799980D01*
X77442530Y-93092968D01*
X77385094Y-93381718D01*
X77299632Y-93663447D01*
X77186968Y-93935442D01*
X77048186Y-94195085D01*
X76884623Y-94439875D01*
X76697853Y-94667454D01*
X76593765Y-94771542D01*
X77475000Y-95652777D01*
X71475000Y-95652777D01*
X72356235Y-94771542D01*
X72252147Y-94667454D01*
X72065377Y-94439875D01*
X71901814Y-94195085D01*
X71763032Y-93935442D01*
X71650368Y-93663447D01*
X71564906Y-93381718D01*
X71507470Y-93092968D01*
X71478614Y-92799980D01*
X71478614Y-92505574D01*
X71507470Y-92212586D01*
X71564906Y-91923836D01*
X71650368Y-91642107D01*
X71763032Y-91370112D01*
X71901814Y-91110469D01*
X72065377Y-90865679D01*
X72252147Y-90638100D01*
X72460323Y-90429924D01*
X72687902Y-90243154D01*
X72932692Y-90079591D01*
X73192335Y-89940809D01*
X73464330Y-89828145D01*
X73746059Y-89742683D01*
X74034809Y-89685247D01*
X74327797Y-89656391D01*
X74622203Y-89656391D01*
X74915191Y-89685247D01*
G37*
%TD.AperFunction*%
%TD*%
%TA.AperFunction,ComponentPad*%
%TO.P,BLACK,1*%
%TO.N,NC2*%
G36*
X58340191Y-89685247D02*
G01*
X58628941Y-89742683D01*
X58910670Y-89828145D01*
X59182665Y-89940809D01*
X59442308Y-90079591D01*
X59687098Y-90243154D01*
X59914677Y-90429924D01*
X60122853Y-90638100D01*
X60309623Y-90865679D01*
X60473186Y-91110469D01*
X60611968Y-91370112D01*
X60724632Y-91642107D01*
X60810094Y-91923836D01*
X60867530Y-92212586D01*
X60896386Y-92505574D01*
X60896386Y-92799980D01*
X60867530Y-93092968D01*
X60810094Y-93381718D01*
X60724632Y-93663447D01*
X60611968Y-93935442D01*
X60473186Y-94195085D01*
X60309623Y-94439875D01*
X60122853Y-94667454D01*
X60018765Y-94771542D01*
X60900000Y-95652777D01*
X54900000Y-95652777D01*
X55781235Y-94771542D01*
X55677147Y-94667454D01*
X55490377Y-94439875D01*
X55326814Y-94195085D01*
X55188032Y-93935442D01*
X55075368Y-93663447D01*
X54989906Y-93381718D01*
X54932470Y-93092968D01*
X54903614Y-92799980D01*
X54903614Y-92505574D01*
X54932470Y-92212586D01*
X54989906Y-91923836D01*
X55075368Y-91642107D01*
X55188032Y-91370112D01*
X55326814Y-91110469D01*
X55490377Y-90865679D01*
X55677147Y-90638100D01*
X55885323Y-90429924D01*
X56112902Y-90243154D01*
X56357692Y-90079591D01*
X56617335Y-89940809D01*
X56889330Y-89828145D01*
X57171059Y-89742683D01*
X57459809Y-89685247D01*
X57752797Y-89656391D01*
X58047203Y-89656391D01*
X58340191Y-89685247D01*
G37*
%TD.AperFunction*%
%TA.AperFunction,ComponentPad*%
G36*
G01*
X54900000Y-95652777D02*
X60900000Y-95652777D01*
G75*
G02*
X61400000Y-96152777I0J-500000D01*
G01*
X61400000Y-97152777D01*
G75*
G02*
X60900000Y-97652777I-500000J0D01*
G01*
X54900000Y-97652777D01*
G75*
G02*
X54400000Y-97152777I0J500000D01*
G01*
X54400000Y-96152777D01*
G75*
G02*
X54900000Y-95652777I500000J0D01*
G01*
G37*
%TD.AperFunction*%
%TD*%
%TA.AperFunction,ComponentPad*%
%TO.P,BLACK,1*%
%TO.N,NO2*%
G36*
X109440191Y-89685247D02*
G01*
X109728941Y-89742683D01*
X110010670Y-89828145D01*
X110282665Y-89940809D01*
X110542308Y-90079591D01*
X110787098Y-90243154D01*
X111014677Y-90429924D01*
X111222853Y-90638100D01*
X111409623Y-90865679D01*
X111573186Y-91110469D01*
X111711968Y-91370112D01*
X111824632Y-91642107D01*
X111910094Y-91923836D01*
X111967530Y-92212586D01*
X111996386Y-92505574D01*
X111996386Y-92799980D01*
X111967530Y-93092968D01*
X111910094Y-93381718D01*
X111824632Y-93663447D01*
X111711968Y-93935442D01*
X111573186Y-94195085D01*
X111409623Y-94439875D01*
X111222853Y-94667454D01*
X111118765Y-94771542D01*
X112000000Y-95652777D01*
X106000000Y-95652777D01*
X106881235Y-94771542D01*
X106777147Y-94667454D01*
X106590377Y-94439875D01*
X106426814Y-94195085D01*
X106288032Y-93935442D01*
X106175368Y-93663447D01*
X106089906Y-93381718D01*
X106032470Y-93092968D01*
X106003614Y-92799980D01*
X106003614Y-92505574D01*
X106032470Y-92212586D01*
X106089906Y-91923836D01*
X106175368Y-91642107D01*
X106288032Y-91370112D01*
X106426814Y-91110469D01*
X106590377Y-90865679D01*
X106777147Y-90638100D01*
X106985323Y-90429924D01*
X107212902Y-90243154D01*
X107457692Y-90079591D01*
X107717335Y-89940809D01*
X107989330Y-89828145D01*
X108271059Y-89742683D01*
X108559809Y-89685247D01*
X108852797Y-89656391D01*
X109147203Y-89656391D01*
X109440191Y-89685247D01*
G37*
%TD.AperFunction*%
%TA.AperFunction,ComponentPad*%
G36*
G01*
X106000000Y-95652777D02*
X112000000Y-95652777D01*
G75*
G02*
X112500000Y-96152777I0J-500000D01*
G01*
X112500000Y-97152777D01*
G75*
G02*
X112000000Y-97652777I-500000J0D01*
G01*
X106000000Y-97652777D01*
G75*
G02*
X105500000Y-97152777I0J500000D01*
G01*
X105500000Y-96152777D01*
G75*
G02*
X106000000Y-95652777I500000J0D01*
G01*
G37*
%TD.AperFunction*%
%TD*%
%TO.P,BLACK,1*%
%TO.N,NC2*%
%TA.AperFunction,ComponentPad*%
G36*
G01*
X89425000Y-95652777D02*
X95425000Y-95652777D01*
G75*
G02*
X95925000Y-96152777I0J-500000D01*
G01*
X95925000Y-97152777D01*
G75*
G02*
X95425000Y-97652777I-500000J0D01*
G01*
X89425000Y-97652777D01*
G75*
G02*
X88925000Y-97152777I0J500000D01*
G01*
X88925000Y-96152777D01*
G75*
G02*
X89425000Y-95652777I500000J0D01*
G01*
G37*
%TD.AperFunction*%
%TA.AperFunction,ComponentPad*%
G36*
X92865191Y-89685247D02*
G01*
X93153941Y-89742683D01*
X93435670Y-89828145D01*
X93707665Y-89940809D01*
X93967308Y-90079591D01*
X94212098Y-90243154D01*
X94439677Y-90429924D01*
X94647853Y-90638100D01*
X94834623Y-90865679D01*
X94998186Y-91110469D01*
X95136968Y-91370112D01*
X95249632Y-91642107D01*
X95335094Y-91923836D01*
X95392530Y-92212586D01*
X95421386Y-92505574D01*
X95421386Y-92799980D01*
X95392530Y-93092968D01*
X95335094Y-93381718D01*
X95249632Y-93663447D01*
X95136968Y-93935442D01*
X94998186Y-94195085D01*
X94834623Y-94439875D01*
X94647853Y-94667454D01*
X94543765Y-94771542D01*
X95425000Y-95652777D01*
X89425000Y-95652777D01*
X90306235Y-94771542D01*
X90202147Y-94667454D01*
X90015377Y-94439875D01*
X89851814Y-94195085D01*
X89713032Y-93935442D01*
X89600368Y-93663447D01*
X89514906Y-93381718D01*
X89457470Y-93092968D01*
X89428614Y-92799980D01*
X89428614Y-92505574D01*
X89457470Y-92212586D01*
X89514906Y-91923836D01*
X89600368Y-91642107D01*
X89713032Y-91370112D01*
X89851814Y-91110469D01*
X90015377Y-90865679D01*
X90202147Y-90638100D01*
X90410323Y-90429924D01*
X90637902Y-90243154D01*
X90882692Y-90079591D01*
X91142335Y-89940809D01*
X91414330Y-89828145D01*
X91696059Y-89742683D01*
X91984809Y-89685247D01*
X92277797Y-89656391D01*
X92572203Y-89656391D01*
X92865191Y-89685247D01*
G37*
%TD.AperFunction*%
%TD*%
%TA.AperFunction,ComponentPad*%
%TO.P,BLACK,1*%
%TO.N,NO2*%
G36*
X178510191Y-89685247D02*
G01*
X178798941Y-89742683D01*
X179080670Y-89828145D01*
X179352665Y-89940809D01*
X179612308Y-90079591D01*
X179857098Y-90243154D01*
X180084677Y-90429924D01*
X180292853Y-90638100D01*
X180479623Y-90865679D01*
X180643186Y-91110469D01*
X180781968Y-91370112D01*
X180894632Y-91642107D01*
X180980094Y-91923836D01*
X181037530Y-92212586D01*
X181066386Y-92505574D01*
X181066386Y-92799980D01*
X181037530Y-93092968D01*
X180980094Y-93381718D01*
X180894632Y-93663447D01*
X180781968Y-93935442D01*
X180643186Y-94195085D01*
X180479623Y-94439875D01*
X180292853Y-94667454D01*
X180188765Y-94771542D01*
X181070000Y-95652777D01*
X175070000Y-95652777D01*
X175951235Y-94771542D01*
X175847147Y-94667454D01*
X175660377Y-94439875D01*
X175496814Y-94195085D01*
X175358032Y-93935442D01*
X175245368Y-93663447D01*
X175159906Y-93381718D01*
X175102470Y-93092968D01*
X175073614Y-92799980D01*
X175073614Y-92505574D01*
X175102470Y-92212586D01*
X175159906Y-91923836D01*
X175245368Y-91642107D01*
X175358032Y-91370112D01*
X175496814Y-91110469D01*
X175660377Y-90865679D01*
X175847147Y-90638100D01*
X176055323Y-90429924D01*
X176282902Y-90243154D01*
X176527692Y-90079591D01*
X176787335Y-89940809D01*
X177059330Y-89828145D01*
X177341059Y-89742683D01*
X177629809Y-89685247D01*
X177922797Y-89656391D01*
X178217203Y-89656391D01*
X178510191Y-89685247D01*
G37*
%TD.AperFunction*%
%TA.AperFunction,ComponentPad*%
G36*
G01*
X175070000Y-95652777D02*
X181070000Y-95652777D01*
G75*
G02*
X181570000Y-96152777I0J-500000D01*
G01*
X181570000Y-97152777D01*
G75*
G02*
X181070000Y-97652777I-500000J0D01*
G01*
X175070000Y-97652777D01*
G75*
G02*
X174570000Y-97152777I0J500000D01*
G01*
X174570000Y-96152777D01*
G75*
G02*
X175070000Y-95652777I500000J0D01*
G01*
G37*
%TD.AperFunction*%
%TD*%
%TA.AperFunction,ComponentPad*%
%TO.P,BLACK,1*%
%TO.N,NC2*%
G36*
X161935191Y-89685247D02*
G01*
X162223941Y-89742683D01*
X162505670Y-89828145D01*
X162777665Y-89940809D01*
X163037308Y-90079591D01*
X163282098Y-90243154D01*
X163509677Y-90429924D01*
X163717853Y-90638100D01*
X163904623Y-90865679D01*
X164068186Y-91110469D01*
X164206968Y-91370112D01*
X164319632Y-91642107D01*
X164405094Y-91923836D01*
X164462530Y-92212586D01*
X164491386Y-92505574D01*
X164491386Y-92799980D01*
X164462530Y-93092968D01*
X164405094Y-93381718D01*
X164319632Y-93663447D01*
X164206968Y-93935442D01*
X164068186Y-94195085D01*
X163904623Y-94439875D01*
X163717853Y-94667454D01*
X163613765Y-94771542D01*
X164495000Y-95652777D01*
X158495000Y-95652777D01*
X159376235Y-94771542D01*
X159272147Y-94667454D01*
X159085377Y-94439875D01*
X158921814Y-94195085D01*
X158783032Y-93935442D01*
X158670368Y-93663447D01*
X158584906Y-93381718D01*
X158527470Y-93092968D01*
X158498614Y-92799980D01*
X158498614Y-92505574D01*
X158527470Y-92212586D01*
X158584906Y-91923836D01*
X158670368Y-91642107D01*
X158783032Y-91370112D01*
X158921814Y-91110469D01*
X159085377Y-90865679D01*
X159272147Y-90638100D01*
X159480323Y-90429924D01*
X159707902Y-90243154D01*
X159952692Y-90079591D01*
X160212335Y-89940809D01*
X160484330Y-89828145D01*
X160766059Y-89742683D01*
X161054809Y-89685247D01*
X161347797Y-89656391D01*
X161642203Y-89656391D01*
X161935191Y-89685247D01*
G37*
%TD.AperFunction*%
%TA.AperFunction,ComponentPad*%
G36*
G01*
X158495000Y-95652777D02*
X164495000Y-95652777D01*
G75*
G02*
X164995000Y-96152777I0J-500000D01*
G01*
X164995000Y-97152777D01*
G75*
G02*
X164495000Y-97652777I-500000J0D01*
G01*
X158495000Y-97652777D01*
G75*
G02*
X157995000Y-97152777I0J500000D01*
G01*
X157995000Y-96152777D01*
G75*
G02*
X158495000Y-95652777I500000J0D01*
G01*
G37*
%TD.AperFunction*%
%TD*%
%TA.AperFunction,ComponentPad*%
%TO.P,BLUE,1*%
%TO.N,R3-*%
G36*
X37834809Y-193044753D02*
G01*
X37546059Y-192987317D01*
X37264330Y-192901855D01*
X36992335Y-192789191D01*
X36732692Y-192650409D01*
X36487902Y-192486846D01*
X36260323Y-192300076D01*
X36052147Y-192091900D01*
X35865377Y-191864321D01*
X35701814Y-191619531D01*
X35563032Y-191359888D01*
X35450368Y-191087893D01*
X35364906Y-190806164D01*
X35307470Y-190517414D01*
X35278614Y-190224426D01*
X35278614Y-189930020D01*
X35307470Y-189637032D01*
X35364906Y-189348282D01*
X35450368Y-189066553D01*
X35563032Y-188794558D01*
X35701814Y-188534915D01*
X35865377Y-188290125D01*
X36052147Y-188062546D01*
X36156235Y-187958458D01*
X35275000Y-187077223D01*
X41275000Y-187077223D01*
X40393765Y-187958458D01*
X40497853Y-188062546D01*
X40684623Y-188290125D01*
X40848186Y-188534915D01*
X40986968Y-188794558D01*
X41099632Y-189066553D01*
X41185094Y-189348282D01*
X41242530Y-189637032D01*
X41271386Y-189930020D01*
X41271386Y-190224426D01*
X41242530Y-190517414D01*
X41185094Y-190806164D01*
X41099632Y-191087893D01*
X40986968Y-191359888D01*
X40848186Y-191619531D01*
X40684623Y-191864321D01*
X40497853Y-192091900D01*
X40289677Y-192300076D01*
X40062098Y-192486846D01*
X39817308Y-192650409D01*
X39557665Y-192789191D01*
X39285670Y-192901855D01*
X39003941Y-192987317D01*
X38715191Y-193044753D01*
X38422203Y-193073609D01*
X38127797Y-193073609D01*
X37834809Y-193044753D01*
G37*
%TD.AperFunction*%
%TA.AperFunction,ComponentPad*%
G36*
G01*
X41275000Y-187077223D02*
X35275000Y-187077223D01*
G75*
G02*
X34775000Y-186577223I0J500000D01*
G01*
X34775000Y-185577223D01*
G75*
G02*
X35275000Y-185077223I500000J0D01*
G01*
X41275000Y-185077223D01*
G75*
G02*
X41775000Y-185577223I0J-500000D01*
G01*
X41775000Y-186577223D01*
G75*
G02*
X41275000Y-187077223I-500000J0D01*
G01*
G37*
%TD.AperFunction*%
%TD*%
%TA.AperFunction,ComponentPad*%
%TO.P,BLACK,1*%
%TO.N,COM3*%
G36*
X134787309Y-193044753D02*
G01*
X134498559Y-192987317D01*
X134216830Y-192901855D01*
X133944835Y-192789191D01*
X133685192Y-192650409D01*
X133440402Y-192486846D01*
X133212823Y-192300076D01*
X133004647Y-192091900D01*
X132817877Y-191864321D01*
X132654314Y-191619531D01*
X132515532Y-191359888D01*
X132402868Y-191087893D01*
X132317406Y-190806164D01*
X132259970Y-190517414D01*
X132231114Y-190224426D01*
X132231114Y-189930020D01*
X132259970Y-189637032D01*
X132317406Y-189348282D01*
X132402868Y-189066553D01*
X132515532Y-188794558D01*
X132654314Y-188534915D01*
X132817877Y-188290125D01*
X133004647Y-188062546D01*
X133108735Y-187958458D01*
X132227500Y-187077223D01*
X138227500Y-187077223D01*
X137346265Y-187958458D01*
X137450353Y-188062546D01*
X137637123Y-188290125D01*
X137800686Y-188534915D01*
X137939468Y-188794558D01*
X138052132Y-189066553D01*
X138137594Y-189348282D01*
X138195030Y-189637032D01*
X138223886Y-189930020D01*
X138223886Y-190224426D01*
X138195030Y-190517414D01*
X138137594Y-190806164D01*
X138052132Y-191087893D01*
X137939468Y-191359888D01*
X137800686Y-191619531D01*
X137637123Y-191864321D01*
X137450353Y-192091900D01*
X137242177Y-192300076D01*
X137014598Y-192486846D01*
X136769808Y-192650409D01*
X136510165Y-192789191D01*
X136238170Y-192901855D01*
X135956441Y-192987317D01*
X135667691Y-193044753D01*
X135374703Y-193073609D01*
X135080297Y-193073609D01*
X134787309Y-193044753D01*
G37*
%TD.AperFunction*%
%TA.AperFunction,ComponentPad*%
G36*
G01*
X138227500Y-187077223D02*
X132227500Y-187077223D01*
G75*
G02*
X131727500Y-186577223I0J500000D01*
G01*
X131727500Y-185577223D01*
G75*
G02*
X132227500Y-185077223I500000J0D01*
G01*
X138227500Y-185077223D01*
G75*
G02*
X138727500Y-185577223I0J-500000D01*
G01*
X138727500Y-186577223D01*
G75*
G02*
X138227500Y-187077223I-500000J0D01*
G01*
G37*
%TD.AperFunction*%
%TD*%
%TO.P,BLACK,1*%
%TO.N,COM3*%
%TA.AperFunction,ComponentPad*%
G36*
G01*
X69157500Y-187077223D02*
X63157500Y-187077223D01*
G75*
G02*
X62657500Y-186577223I0J500000D01*
G01*
X62657500Y-185577223D01*
G75*
G02*
X63157500Y-185077223I500000J0D01*
G01*
X69157500Y-185077223D01*
G75*
G02*
X69657500Y-185577223I0J-500000D01*
G01*
X69657500Y-186577223D01*
G75*
G02*
X69157500Y-187077223I-500000J0D01*
G01*
G37*
%TD.AperFunction*%
%TA.AperFunction,ComponentPad*%
G36*
X65717309Y-193044753D02*
G01*
X65428559Y-192987317D01*
X65146830Y-192901855D01*
X64874835Y-192789191D01*
X64615192Y-192650409D01*
X64370402Y-192486846D01*
X64142823Y-192300076D01*
X63934647Y-192091900D01*
X63747877Y-191864321D01*
X63584314Y-191619531D01*
X63445532Y-191359888D01*
X63332868Y-191087893D01*
X63247406Y-190806164D01*
X63189970Y-190517414D01*
X63161114Y-190224426D01*
X63161114Y-189930020D01*
X63189970Y-189637032D01*
X63247406Y-189348282D01*
X63332868Y-189066553D01*
X63445532Y-188794558D01*
X63584314Y-188534915D01*
X63747877Y-188290125D01*
X63934647Y-188062546D01*
X64038735Y-187958458D01*
X63157500Y-187077223D01*
X69157500Y-187077223D01*
X68276265Y-187958458D01*
X68380353Y-188062546D01*
X68567123Y-188290125D01*
X68730686Y-188534915D01*
X68869468Y-188794558D01*
X68982132Y-189066553D01*
X69067594Y-189348282D01*
X69125030Y-189637032D01*
X69153886Y-189930020D01*
X69153886Y-190224426D01*
X69125030Y-190517414D01*
X69067594Y-190806164D01*
X68982132Y-191087893D01*
X68869468Y-191359888D01*
X68730686Y-191619531D01*
X68567123Y-191864321D01*
X68380353Y-192091900D01*
X68172177Y-192300076D01*
X67944598Y-192486846D01*
X67699808Y-192650409D01*
X67440165Y-192789191D01*
X67168170Y-192901855D01*
X66886441Y-192987317D01*
X66597691Y-193044753D01*
X66304703Y-193073609D01*
X66010297Y-193073609D01*
X65717309Y-193044753D01*
G37*
%TD.AperFunction*%
%TD*%
%TA.AperFunction,ComponentPad*%
%TO.P,BLACK,1*%
%TO.N,COM3*%
G36*
X100242309Y-193044753D02*
G01*
X99953559Y-192987317D01*
X99671830Y-192901855D01*
X99399835Y-192789191D01*
X99140192Y-192650409D01*
X98895402Y-192486846D01*
X98667823Y-192300076D01*
X98459647Y-192091900D01*
X98272877Y-191864321D01*
X98109314Y-191619531D01*
X97970532Y-191359888D01*
X97857868Y-191087893D01*
X97772406Y-190806164D01*
X97714970Y-190517414D01*
X97686114Y-190224426D01*
X97686114Y-189930020D01*
X97714970Y-189637032D01*
X97772406Y-189348282D01*
X97857868Y-189066553D01*
X97970532Y-188794558D01*
X98109314Y-188534915D01*
X98272877Y-188290125D01*
X98459647Y-188062546D01*
X98563735Y-187958458D01*
X97682500Y-187077223D01*
X103682500Y-187077223D01*
X102801265Y-187958458D01*
X102905353Y-188062546D01*
X103092123Y-188290125D01*
X103255686Y-188534915D01*
X103394468Y-188794558D01*
X103507132Y-189066553D01*
X103592594Y-189348282D01*
X103650030Y-189637032D01*
X103678886Y-189930020D01*
X103678886Y-190224426D01*
X103650030Y-190517414D01*
X103592594Y-190806164D01*
X103507132Y-191087893D01*
X103394468Y-191359888D01*
X103255686Y-191619531D01*
X103092123Y-191864321D01*
X102905353Y-192091900D01*
X102697177Y-192300076D01*
X102469598Y-192486846D01*
X102224808Y-192650409D01*
X101965165Y-192789191D01*
X101693170Y-192901855D01*
X101411441Y-192987317D01*
X101122691Y-193044753D01*
X100829703Y-193073609D01*
X100535297Y-193073609D01*
X100242309Y-193044753D01*
G37*
%TD.AperFunction*%
%TA.AperFunction,ComponentPad*%
G36*
G01*
X103682500Y-187077223D02*
X97682500Y-187077223D01*
G75*
G02*
X97182500Y-186577223I0J500000D01*
G01*
X97182500Y-185577223D01*
G75*
G02*
X97682500Y-185077223I500000J0D01*
G01*
X103682500Y-185077223D01*
G75*
G02*
X104182500Y-185577223I0J-500000D01*
G01*
X104182500Y-186577223D01*
G75*
G02*
X103682500Y-187077223I-500000J0D01*
G01*
G37*
%TD.AperFunction*%
%TD*%
%TA.AperFunction,ComponentPad*%
%TO.P,BLACK,1*%
%TO.N,COM3*%
G36*
X169312309Y-193044753D02*
G01*
X169023559Y-192987317D01*
X168741830Y-192901855D01*
X168469835Y-192789191D01*
X168210192Y-192650409D01*
X167965402Y-192486846D01*
X167737823Y-192300076D01*
X167529647Y-192091900D01*
X167342877Y-191864321D01*
X167179314Y-191619531D01*
X167040532Y-191359888D01*
X166927868Y-191087893D01*
X166842406Y-190806164D01*
X166784970Y-190517414D01*
X166756114Y-190224426D01*
X166756114Y-189930020D01*
X166784970Y-189637032D01*
X166842406Y-189348282D01*
X166927868Y-189066553D01*
X167040532Y-188794558D01*
X167179314Y-188534915D01*
X167342877Y-188290125D01*
X167529647Y-188062546D01*
X167633735Y-187958458D01*
X166752500Y-187077223D01*
X172752500Y-187077223D01*
X171871265Y-187958458D01*
X171975353Y-188062546D01*
X172162123Y-188290125D01*
X172325686Y-188534915D01*
X172464468Y-188794558D01*
X172577132Y-189066553D01*
X172662594Y-189348282D01*
X172720030Y-189637032D01*
X172748886Y-189930020D01*
X172748886Y-190224426D01*
X172720030Y-190517414D01*
X172662594Y-190806164D01*
X172577132Y-191087893D01*
X172464468Y-191359888D01*
X172325686Y-191619531D01*
X172162123Y-191864321D01*
X171975353Y-192091900D01*
X171767177Y-192300076D01*
X171539598Y-192486846D01*
X171294808Y-192650409D01*
X171035165Y-192789191D01*
X170763170Y-192901855D01*
X170481441Y-192987317D01*
X170192691Y-193044753D01*
X169899703Y-193073609D01*
X169605297Y-193073609D01*
X169312309Y-193044753D01*
G37*
%TD.AperFunction*%
%TA.AperFunction,ComponentPad*%
G36*
G01*
X172752500Y-187077223D02*
X166752500Y-187077223D01*
G75*
G02*
X166252500Y-186577223I0J500000D01*
G01*
X166252500Y-185577223D01*
G75*
G02*
X166752500Y-185077223I500000J0D01*
G01*
X172752500Y-185077223D01*
G75*
G02*
X173252500Y-185577223I0J-500000D01*
G01*
X173252500Y-186577223D01*
G75*
G02*
X172752500Y-187077223I-500000J0D01*
G01*
G37*
%TD.AperFunction*%
%TD*%
%TA.AperFunction,ComponentPad*%
%TO.P,RED,1*%
%TO.N,Net-(D5-Pad1)*%
G36*
X38715191Y-145065247D02*
G01*
X39003941Y-145122683D01*
X39285670Y-145208145D01*
X39557665Y-145320809D01*
X39817308Y-145459591D01*
X40062098Y-145623154D01*
X40289677Y-145809924D01*
X40497853Y-146018100D01*
X40684623Y-146245679D01*
X40848186Y-146490469D01*
X40986968Y-146750112D01*
X41099632Y-147022107D01*
X41185094Y-147303836D01*
X41242530Y-147592586D01*
X41271386Y-147885574D01*
X41271386Y-148179980D01*
X41242530Y-148472968D01*
X41185094Y-148761718D01*
X41099632Y-149043447D01*
X40986968Y-149315442D01*
X40848186Y-149575085D01*
X40684623Y-149819875D01*
X40497853Y-150047454D01*
X40393765Y-150151542D01*
X41275000Y-151032777D01*
X35275000Y-151032777D01*
X36156235Y-150151542D01*
X36052147Y-150047454D01*
X35865377Y-149819875D01*
X35701814Y-149575085D01*
X35563032Y-149315442D01*
X35450368Y-149043447D01*
X35364906Y-148761718D01*
X35307470Y-148472968D01*
X35278614Y-148179980D01*
X35278614Y-147885574D01*
X35307470Y-147592586D01*
X35364906Y-147303836D01*
X35450368Y-147022107D01*
X35563032Y-146750112D01*
X35701814Y-146490469D01*
X35865377Y-146245679D01*
X36052147Y-146018100D01*
X36260323Y-145809924D01*
X36487902Y-145623154D01*
X36732692Y-145459591D01*
X36992335Y-145320809D01*
X37264330Y-145208145D01*
X37546059Y-145122683D01*
X37834809Y-145065247D01*
X38127797Y-145036391D01*
X38422203Y-145036391D01*
X38715191Y-145065247D01*
G37*
%TD.AperFunction*%
%TA.AperFunction,ComponentPad*%
G36*
G01*
X35275000Y-151032777D02*
X41275000Y-151032777D01*
G75*
G02*
X41775000Y-151532777I0J-500000D01*
G01*
X41775000Y-152532777D01*
G75*
G02*
X41275000Y-153032777I-500000J0D01*
G01*
X35275000Y-153032777D01*
G75*
G02*
X34775000Y-152532777I0J500000D01*
G01*
X34775000Y-151532777D01*
G75*
G02*
X35275000Y-151032777I500000J0D01*
G01*
G37*
%TD.AperFunction*%
%TD*%
%TO.P,BLACK,1*%
%TO.N,NO3*%
%TA.AperFunction,ComponentPad*%
G36*
G01*
X140500000Y-151032777D02*
X146500000Y-151032777D01*
G75*
G02*
X147000000Y-151532777I0J-500000D01*
G01*
X147000000Y-152532777D01*
G75*
G02*
X146500000Y-153032777I-500000J0D01*
G01*
X140500000Y-153032777D01*
G75*
G02*
X140000000Y-152532777I0J500000D01*
G01*
X140000000Y-151532777D01*
G75*
G02*
X140500000Y-151032777I500000J0D01*
G01*
G37*
%TD.AperFunction*%
%TA.AperFunction,ComponentPad*%
G36*
X143940191Y-145065247D02*
G01*
X144228941Y-145122683D01*
X144510670Y-145208145D01*
X144782665Y-145320809D01*
X145042308Y-145459591D01*
X145287098Y-145623154D01*
X145514677Y-145809924D01*
X145722853Y-146018100D01*
X145909623Y-146245679D01*
X146073186Y-146490469D01*
X146211968Y-146750112D01*
X146324632Y-147022107D01*
X146410094Y-147303836D01*
X146467530Y-147592586D01*
X146496386Y-147885574D01*
X146496386Y-148179980D01*
X146467530Y-148472968D01*
X146410094Y-148761718D01*
X146324632Y-149043447D01*
X146211968Y-149315442D01*
X146073186Y-149575085D01*
X145909623Y-149819875D01*
X145722853Y-150047454D01*
X145618765Y-150151542D01*
X146500000Y-151032777D01*
X140500000Y-151032777D01*
X141381235Y-150151542D01*
X141277147Y-150047454D01*
X141090377Y-149819875D01*
X140926814Y-149575085D01*
X140788032Y-149315442D01*
X140675368Y-149043447D01*
X140589906Y-148761718D01*
X140532470Y-148472968D01*
X140503614Y-148179980D01*
X140503614Y-147885574D01*
X140532470Y-147592586D01*
X140589906Y-147303836D01*
X140675368Y-147022107D01*
X140788032Y-146750112D01*
X140926814Y-146490469D01*
X141090377Y-146245679D01*
X141277147Y-146018100D01*
X141485323Y-145809924D01*
X141712902Y-145623154D01*
X141957692Y-145459591D01*
X142217335Y-145320809D01*
X142489330Y-145208145D01*
X142771059Y-145122683D01*
X143059809Y-145065247D01*
X143352797Y-145036391D01*
X143647203Y-145036391D01*
X143940191Y-145065247D01*
G37*
%TD.AperFunction*%
%TD*%
%TO.P,BLACK,1*%
%TO.N,NC3*%
%TA.AperFunction,ComponentPad*%
G36*
G01*
X123945000Y-151032777D02*
X129945000Y-151032777D01*
G75*
G02*
X130445000Y-151532777I0J-500000D01*
G01*
X130445000Y-152532777D01*
G75*
G02*
X129945000Y-153032777I-500000J0D01*
G01*
X123945000Y-153032777D01*
G75*
G02*
X123445000Y-152532777I0J500000D01*
G01*
X123445000Y-151532777D01*
G75*
G02*
X123945000Y-151032777I500000J0D01*
G01*
G37*
%TD.AperFunction*%
%TA.AperFunction,ComponentPad*%
G36*
X127385191Y-145065247D02*
G01*
X127673941Y-145122683D01*
X127955670Y-145208145D01*
X128227665Y-145320809D01*
X128487308Y-145459591D01*
X128732098Y-145623154D01*
X128959677Y-145809924D01*
X129167853Y-146018100D01*
X129354623Y-146245679D01*
X129518186Y-146490469D01*
X129656968Y-146750112D01*
X129769632Y-147022107D01*
X129855094Y-147303836D01*
X129912530Y-147592586D01*
X129941386Y-147885574D01*
X129941386Y-148179980D01*
X129912530Y-148472968D01*
X129855094Y-148761718D01*
X129769632Y-149043447D01*
X129656968Y-149315442D01*
X129518186Y-149575085D01*
X129354623Y-149819875D01*
X129167853Y-150047454D01*
X129063765Y-150151542D01*
X129945000Y-151032777D01*
X123945000Y-151032777D01*
X124826235Y-150151542D01*
X124722147Y-150047454D01*
X124535377Y-149819875D01*
X124371814Y-149575085D01*
X124233032Y-149315442D01*
X124120368Y-149043447D01*
X124034906Y-148761718D01*
X123977470Y-148472968D01*
X123948614Y-148179980D01*
X123948614Y-147885574D01*
X123977470Y-147592586D01*
X124034906Y-147303836D01*
X124120368Y-147022107D01*
X124233032Y-146750112D01*
X124371814Y-146490469D01*
X124535377Y-146245679D01*
X124722147Y-146018100D01*
X124930323Y-145809924D01*
X125157902Y-145623154D01*
X125402692Y-145459591D01*
X125662335Y-145320809D01*
X125934330Y-145208145D01*
X126216059Y-145122683D01*
X126504809Y-145065247D01*
X126797797Y-145036391D01*
X127092203Y-145036391D01*
X127385191Y-145065247D01*
G37*
%TD.AperFunction*%
%TD*%
%TO.P,BLACK,1*%
%TO.N,NO3*%
%TA.AperFunction,ComponentPad*%
G36*
G01*
X71450000Y-151032777D02*
X77450000Y-151032777D01*
G75*
G02*
X77950000Y-151532777I0J-500000D01*
G01*
X77950000Y-152532777D01*
G75*
G02*
X77450000Y-153032777I-500000J0D01*
G01*
X71450000Y-153032777D01*
G75*
G02*
X70950000Y-152532777I0J500000D01*
G01*
X70950000Y-151532777D01*
G75*
G02*
X71450000Y-151032777I500000J0D01*
G01*
G37*
%TD.AperFunction*%
%TA.AperFunction,ComponentPad*%
G36*
X74890191Y-145065247D02*
G01*
X75178941Y-145122683D01*
X75460670Y-145208145D01*
X75732665Y-145320809D01*
X75992308Y-145459591D01*
X76237098Y-145623154D01*
X76464677Y-145809924D01*
X76672853Y-146018100D01*
X76859623Y-146245679D01*
X77023186Y-146490469D01*
X77161968Y-146750112D01*
X77274632Y-147022107D01*
X77360094Y-147303836D01*
X77417530Y-147592586D01*
X77446386Y-147885574D01*
X77446386Y-148179980D01*
X77417530Y-148472968D01*
X77360094Y-148761718D01*
X77274632Y-149043447D01*
X77161968Y-149315442D01*
X77023186Y-149575085D01*
X76859623Y-149819875D01*
X76672853Y-150047454D01*
X76568765Y-150151542D01*
X77450000Y-151032777D01*
X71450000Y-151032777D01*
X72331235Y-150151542D01*
X72227147Y-150047454D01*
X72040377Y-149819875D01*
X71876814Y-149575085D01*
X71738032Y-149315442D01*
X71625368Y-149043447D01*
X71539906Y-148761718D01*
X71482470Y-148472968D01*
X71453614Y-148179980D01*
X71453614Y-147885574D01*
X71482470Y-147592586D01*
X71539906Y-147303836D01*
X71625368Y-147022107D01*
X71738032Y-146750112D01*
X71876814Y-146490469D01*
X72040377Y-146245679D01*
X72227147Y-146018100D01*
X72435323Y-145809924D01*
X72662902Y-145623154D01*
X72907692Y-145459591D01*
X73167335Y-145320809D01*
X73439330Y-145208145D01*
X73721059Y-145122683D01*
X74009809Y-145065247D01*
X74302797Y-145036391D01*
X74597203Y-145036391D01*
X74890191Y-145065247D01*
G37*
%TD.AperFunction*%
%TD*%
%TA.AperFunction,ComponentPad*%
%TO.P,BLACK,1*%
%TO.N,NC3*%
G36*
X58315191Y-145065247D02*
G01*
X58603941Y-145122683D01*
X58885670Y-145208145D01*
X59157665Y-145320809D01*
X59417308Y-145459591D01*
X59662098Y-145623154D01*
X59889677Y-145809924D01*
X60097853Y-146018100D01*
X60284623Y-146245679D01*
X60448186Y-146490469D01*
X60586968Y-146750112D01*
X60699632Y-147022107D01*
X60785094Y-147303836D01*
X60842530Y-147592586D01*
X60871386Y-147885574D01*
X60871386Y-148179980D01*
X60842530Y-148472968D01*
X60785094Y-148761718D01*
X60699632Y-149043447D01*
X60586968Y-149315442D01*
X60448186Y-149575085D01*
X60284623Y-149819875D01*
X60097853Y-150047454D01*
X59993765Y-150151542D01*
X60875000Y-151032777D01*
X54875000Y-151032777D01*
X55756235Y-150151542D01*
X55652147Y-150047454D01*
X55465377Y-149819875D01*
X55301814Y-149575085D01*
X55163032Y-149315442D01*
X55050368Y-149043447D01*
X54964906Y-148761718D01*
X54907470Y-148472968D01*
X54878614Y-148179980D01*
X54878614Y-147885574D01*
X54907470Y-147592586D01*
X54964906Y-147303836D01*
X55050368Y-147022107D01*
X55163032Y-146750112D01*
X55301814Y-146490469D01*
X55465377Y-146245679D01*
X55652147Y-146018100D01*
X55860323Y-145809924D01*
X56087902Y-145623154D01*
X56332692Y-145459591D01*
X56592335Y-145320809D01*
X56864330Y-145208145D01*
X57146059Y-145122683D01*
X57434809Y-145065247D01*
X57727797Y-145036391D01*
X58022203Y-145036391D01*
X58315191Y-145065247D01*
G37*
%TD.AperFunction*%
%TA.AperFunction,ComponentPad*%
G36*
G01*
X54875000Y-151032777D02*
X60875000Y-151032777D01*
G75*
G02*
X61375000Y-151532777I0J-500000D01*
G01*
X61375000Y-152532777D01*
G75*
G02*
X60875000Y-153032777I-500000J0D01*
G01*
X54875000Y-153032777D01*
G75*
G02*
X54375000Y-152532777I0J500000D01*
G01*
X54375000Y-151532777D01*
G75*
G02*
X54875000Y-151032777I500000J0D01*
G01*
G37*
%TD.AperFunction*%
%TD*%
%TO.P,BLACK,1*%
%TO.N,NO3*%
%TA.AperFunction,ComponentPad*%
G36*
G01*
X105975000Y-151032777D02*
X111975000Y-151032777D01*
G75*
G02*
X112475000Y-151532777I0J-500000D01*
G01*
X112475000Y-152532777D01*
G75*
G02*
X111975000Y-153032777I-500000J0D01*
G01*
X105975000Y-153032777D01*
G75*
G02*
X105475000Y-152532777I0J500000D01*
G01*
X105475000Y-151532777D01*
G75*
G02*
X105975000Y-151032777I500000J0D01*
G01*
G37*
%TD.AperFunction*%
%TA.AperFunction,ComponentPad*%
G36*
X109415191Y-145065247D02*
G01*
X109703941Y-145122683D01*
X109985670Y-145208145D01*
X110257665Y-145320809D01*
X110517308Y-145459591D01*
X110762098Y-145623154D01*
X110989677Y-145809924D01*
X111197853Y-146018100D01*
X111384623Y-146245679D01*
X111548186Y-146490469D01*
X111686968Y-146750112D01*
X111799632Y-147022107D01*
X111885094Y-147303836D01*
X111942530Y-147592586D01*
X111971386Y-147885574D01*
X111971386Y-148179980D01*
X111942530Y-148472968D01*
X111885094Y-148761718D01*
X111799632Y-149043447D01*
X111686968Y-149315442D01*
X111548186Y-149575085D01*
X111384623Y-149819875D01*
X111197853Y-150047454D01*
X111093765Y-150151542D01*
X111975000Y-151032777D01*
X105975000Y-151032777D01*
X106856235Y-150151542D01*
X106752147Y-150047454D01*
X106565377Y-149819875D01*
X106401814Y-149575085D01*
X106263032Y-149315442D01*
X106150368Y-149043447D01*
X106064906Y-148761718D01*
X106007470Y-148472968D01*
X105978614Y-148179980D01*
X105978614Y-147885574D01*
X106007470Y-147592586D01*
X106064906Y-147303836D01*
X106150368Y-147022107D01*
X106263032Y-146750112D01*
X106401814Y-146490469D01*
X106565377Y-146245679D01*
X106752147Y-146018100D01*
X106960323Y-145809924D01*
X107187902Y-145623154D01*
X107432692Y-145459591D01*
X107692335Y-145320809D01*
X107964330Y-145208145D01*
X108246059Y-145122683D01*
X108534809Y-145065247D01*
X108827797Y-145036391D01*
X109122203Y-145036391D01*
X109415191Y-145065247D01*
G37*
%TD.AperFunction*%
%TD*%
%TO.P,BLACK,1*%
%TO.N,NC3*%
%TA.AperFunction,ComponentPad*%
G36*
G01*
X89400000Y-151032777D02*
X95400000Y-151032777D01*
G75*
G02*
X95900000Y-151532777I0J-500000D01*
G01*
X95900000Y-152532777D01*
G75*
G02*
X95400000Y-153032777I-500000J0D01*
G01*
X89400000Y-153032777D01*
G75*
G02*
X88900000Y-152532777I0J500000D01*
G01*
X88900000Y-151532777D01*
G75*
G02*
X89400000Y-151032777I500000J0D01*
G01*
G37*
%TD.AperFunction*%
%TA.AperFunction,ComponentPad*%
G36*
X92840191Y-145065247D02*
G01*
X93128941Y-145122683D01*
X93410670Y-145208145D01*
X93682665Y-145320809D01*
X93942308Y-145459591D01*
X94187098Y-145623154D01*
X94414677Y-145809924D01*
X94622853Y-146018100D01*
X94809623Y-146245679D01*
X94973186Y-146490469D01*
X95111968Y-146750112D01*
X95224632Y-147022107D01*
X95310094Y-147303836D01*
X95367530Y-147592586D01*
X95396386Y-147885574D01*
X95396386Y-148179980D01*
X95367530Y-148472968D01*
X95310094Y-148761718D01*
X95224632Y-149043447D01*
X95111968Y-149315442D01*
X94973186Y-149575085D01*
X94809623Y-149819875D01*
X94622853Y-150047454D01*
X94518765Y-150151542D01*
X95400000Y-151032777D01*
X89400000Y-151032777D01*
X90281235Y-150151542D01*
X90177147Y-150047454D01*
X89990377Y-149819875D01*
X89826814Y-149575085D01*
X89688032Y-149315442D01*
X89575368Y-149043447D01*
X89489906Y-148761718D01*
X89432470Y-148472968D01*
X89403614Y-148179980D01*
X89403614Y-147885574D01*
X89432470Y-147592586D01*
X89489906Y-147303836D01*
X89575368Y-147022107D01*
X89688032Y-146750112D01*
X89826814Y-146490469D01*
X89990377Y-146245679D01*
X90177147Y-146018100D01*
X90385323Y-145809924D01*
X90612902Y-145623154D01*
X90857692Y-145459591D01*
X91117335Y-145320809D01*
X91389330Y-145208145D01*
X91671059Y-145122683D01*
X91959809Y-145065247D01*
X92252797Y-145036391D01*
X92547203Y-145036391D01*
X92840191Y-145065247D01*
G37*
%TD.AperFunction*%
%TD*%
%TO.P,BLACK,1*%
%TO.N,NO3*%
%TA.AperFunction,ComponentPad*%
G36*
G01*
X175045000Y-151032777D02*
X181045000Y-151032777D01*
G75*
G02*
X181545000Y-151532777I0J-500000D01*
G01*
X181545000Y-152532777D01*
G75*
G02*
X181045000Y-153032777I-500000J0D01*
G01*
X175045000Y-153032777D01*
G75*
G02*
X174545000Y-152532777I0J500000D01*
G01*
X174545000Y-151532777D01*
G75*
G02*
X175045000Y-151032777I500000J0D01*
G01*
G37*
%TD.AperFunction*%
%TA.AperFunction,ComponentPad*%
G36*
X178485191Y-145065247D02*
G01*
X178773941Y-145122683D01*
X179055670Y-145208145D01*
X179327665Y-145320809D01*
X179587308Y-145459591D01*
X179832098Y-145623154D01*
X180059677Y-145809924D01*
X180267853Y-146018100D01*
X180454623Y-146245679D01*
X180618186Y-146490469D01*
X180756968Y-146750112D01*
X180869632Y-147022107D01*
X180955094Y-147303836D01*
X181012530Y-147592586D01*
X181041386Y-147885574D01*
X181041386Y-148179980D01*
X181012530Y-148472968D01*
X180955094Y-148761718D01*
X180869632Y-149043447D01*
X180756968Y-149315442D01*
X180618186Y-149575085D01*
X180454623Y-149819875D01*
X180267853Y-150047454D01*
X180163765Y-150151542D01*
X181045000Y-151032777D01*
X175045000Y-151032777D01*
X175926235Y-150151542D01*
X175822147Y-150047454D01*
X175635377Y-149819875D01*
X175471814Y-149575085D01*
X175333032Y-149315442D01*
X175220368Y-149043447D01*
X175134906Y-148761718D01*
X175077470Y-148472968D01*
X175048614Y-148179980D01*
X175048614Y-147885574D01*
X175077470Y-147592586D01*
X175134906Y-147303836D01*
X175220368Y-147022107D01*
X175333032Y-146750112D01*
X175471814Y-146490469D01*
X175635377Y-146245679D01*
X175822147Y-146018100D01*
X176030323Y-145809924D01*
X176257902Y-145623154D01*
X176502692Y-145459591D01*
X176762335Y-145320809D01*
X177034330Y-145208145D01*
X177316059Y-145122683D01*
X177604809Y-145065247D01*
X177897797Y-145036391D01*
X178192203Y-145036391D01*
X178485191Y-145065247D01*
G37*
%TD.AperFunction*%
%TD*%
%TA.AperFunction,ComponentPad*%
%TO.P,BLACK,1*%
%TO.N,NC3*%
G36*
X161910191Y-145065247D02*
G01*
X162198941Y-145122683D01*
X162480670Y-145208145D01*
X162752665Y-145320809D01*
X163012308Y-145459591D01*
X163257098Y-145623154D01*
X163484677Y-145809924D01*
X163692853Y-146018100D01*
X163879623Y-146245679D01*
X164043186Y-146490469D01*
X164181968Y-146750112D01*
X164294632Y-147022107D01*
X164380094Y-147303836D01*
X164437530Y-147592586D01*
X164466386Y-147885574D01*
X164466386Y-148179980D01*
X164437530Y-148472968D01*
X164380094Y-148761718D01*
X164294632Y-149043447D01*
X164181968Y-149315442D01*
X164043186Y-149575085D01*
X163879623Y-149819875D01*
X163692853Y-150047454D01*
X163588765Y-150151542D01*
X164470000Y-151032777D01*
X158470000Y-151032777D01*
X159351235Y-150151542D01*
X159247147Y-150047454D01*
X159060377Y-149819875D01*
X158896814Y-149575085D01*
X158758032Y-149315442D01*
X158645368Y-149043447D01*
X158559906Y-148761718D01*
X158502470Y-148472968D01*
X158473614Y-148179980D01*
X158473614Y-147885574D01*
X158502470Y-147592586D01*
X158559906Y-147303836D01*
X158645368Y-147022107D01*
X158758032Y-146750112D01*
X158896814Y-146490469D01*
X159060377Y-146245679D01*
X159247147Y-146018100D01*
X159455323Y-145809924D01*
X159682902Y-145623154D01*
X159927692Y-145459591D01*
X160187335Y-145320809D01*
X160459330Y-145208145D01*
X160741059Y-145122683D01*
X161029809Y-145065247D01*
X161322797Y-145036391D01*
X161617203Y-145036391D01*
X161910191Y-145065247D01*
G37*
%TD.AperFunction*%
%TA.AperFunction,ComponentPad*%
G36*
G01*
X158470000Y-151032777D02*
X164470000Y-151032777D01*
G75*
G02*
X164970000Y-151532777I0J-500000D01*
G01*
X164970000Y-152532777D01*
G75*
G02*
X164470000Y-153032777I-500000J0D01*
G01*
X158470000Y-153032777D01*
G75*
G02*
X157970000Y-152532777I0J500000D01*
G01*
X157970000Y-151532777D01*
G75*
G02*
X158470000Y-151032777I500000J0D01*
G01*
G37*
%TD.AperFunction*%
%TD*%
%TO.P,RED,1*%
%TO.N,Net-(J1-Pad1)*%
%TA.AperFunction,ComponentPad*%
G36*
G01*
X183430000Y-31160000D02*
X189430000Y-31160000D01*
G75*
G02*
X189930000Y-31660000I0J-500000D01*
G01*
X189930000Y-32660000D01*
G75*
G02*
X189430000Y-33160000I-500000J0D01*
G01*
X183430000Y-33160000D01*
G75*
G02*
X182930000Y-32660000I0J500000D01*
G01*
X182930000Y-31660000D01*
G75*
G02*
X183430000Y-31160000I500000J0D01*
G01*
G37*
%TD.AperFunction*%
%TA.AperFunction,ComponentPad*%
G36*
X186870191Y-25192470D02*
G01*
X187158941Y-25249906D01*
X187440670Y-25335368D01*
X187712665Y-25448032D01*
X187972308Y-25586814D01*
X188217098Y-25750377D01*
X188444677Y-25937147D01*
X188652853Y-26145323D01*
X188839623Y-26372902D01*
X189003186Y-26617692D01*
X189141968Y-26877335D01*
X189254632Y-27149330D01*
X189340094Y-27431059D01*
X189397530Y-27719809D01*
X189426386Y-28012797D01*
X189426386Y-28307203D01*
X189397530Y-28600191D01*
X189340094Y-28888941D01*
X189254632Y-29170670D01*
X189141968Y-29442665D01*
X189003186Y-29702308D01*
X188839623Y-29947098D01*
X188652853Y-30174677D01*
X188548765Y-30278765D01*
X189430000Y-31160000D01*
X183430000Y-31160000D01*
X184311235Y-30278765D01*
X184207147Y-30174677D01*
X184020377Y-29947098D01*
X183856814Y-29702308D01*
X183718032Y-29442665D01*
X183605368Y-29170670D01*
X183519906Y-28888941D01*
X183462470Y-28600191D01*
X183433614Y-28307203D01*
X183433614Y-28012797D01*
X183462470Y-27719809D01*
X183519906Y-27431059D01*
X183605368Y-27149330D01*
X183718032Y-26877335D01*
X183856814Y-26617692D01*
X184020377Y-26372902D01*
X184207147Y-26145323D01*
X184415323Y-25937147D01*
X184642902Y-25750377D01*
X184887692Y-25586814D01*
X185147335Y-25448032D01*
X185419330Y-25335368D01*
X185701059Y-25249906D01*
X185989809Y-25192470D01*
X186282797Y-25163614D01*
X186577203Y-25163614D01*
X186870191Y-25192470D01*
G37*
%TD.AperFunction*%
%TD*%
%TO.P,BLUE,1*%
%TO.N,Net-(J2-Pad1)*%
%TA.AperFunction,ComponentPad*%
G36*
G01*
X189430000Y-196300000D02*
X183430000Y-196300000D01*
G75*
G02*
X182930000Y-195800000I0J500000D01*
G01*
X182930000Y-194800000D01*
G75*
G02*
X183430000Y-194300000I500000J0D01*
G01*
X189430000Y-194300000D01*
G75*
G02*
X189930000Y-194800000I0J-500000D01*
G01*
X189930000Y-195800000D01*
G75*
G02*
X189430000Y-196300000I-500000J0D01*
G01*
G37*
%TD.AperFunction*%
%TA.AperFunction,ComponentPad*%
G36*
X185989809Y-202267530D02*
G01*
X185701059Y-202210094D01*
X185419330Y-202124632D01*
X185147335Y-202011968D01*
X184887692Y-201873186D01*
X184642902Y-201709623D01*
X184415323Y-201522853D01*
X184207147Y-201314677D01*
X184020377Y-201087098D01*
X183856814Y-200842308D01*
X183718032Y-200582665D01*
X183605368Y-200310670D01*
X183519906Y-200028941D01*
X183462470Y-199740191D01*
X183433614Y-199447203D01*
X183433614Y-199152797D01*
X183462470Y-198859809D01*
X183519906Y-198571059D01*
X183605368Y-198289330D01*
X183718032Y-198017335D01*
X183856814Y-197757692D01*
X184020377Y-197512902D01*
X184207147Y-197285323D01*
X184311235Y-197181235D01*
X183430000Y-196300000D01*
X189430000Y-196300000D01*
X188548765Y-197181235D01*
X188652853Y-197285323D01*
X188839623Y-197512902D01*
X189003186Y-197757692D01*
X189141968Y-198017335D01*
X189254632Y-198289330D01*
X189340094Y-198571059D01*
X189397530Y-198859809D01*
X189426386Y-199152797D01*
X189426386Y-199447203D01*
X189397530Y-199740191D01*
X189340094Y-200028941D01*
X189254632Y-200310670D01*
X189141968Y-200582665D01*
X189003186Y-200842308D01*
X188839623Y-201087098D01*
X188652853Y-201314677D01*
X188444677Y-201522853D01*
X188217098Y-201709623D01*
X187972308Y-201873186D01*
X187712665Y-202011968D01*
X187440670Y-202124632D01*
X187158941Y-202210094D01*
X186870191Y-202267530D01*
X186577203Y-202296386D01*
X186282797Y-202296386D01*
X185989809Y-202267530D01*
G37*
%TD.AperFunction*%
%TD*%
D17*
%TO.N,R1-*%
X32000000Y-64250000D03*
X27500000Y-50000000D03*
X48250000Y-34750000D03*
X50750000Y-34750000D03*
X65000000Y-34750000D03*
X67500000Y-34750000D03*
X83000000Y-34750000D03*
X85500000Y-34750000D03*
X99500000Y-34750000D03*
X102000000Y-34750000D03*
X117250000Y-34750000D03*
X119750000Y-34750000D03*
X134000000Y-34750000D03*
X136500000Y-34750000D03*
X151750000Y-34750000D03*
X154500000Y-34750000D03*
X168500000Y-34750000D03*
X171000000Y-34750000D03*
%TO.N,NO1*%
X46245001Y-71754999D03*
%TO.N,R2-*%
X27250000Y-105250000D03*
X31500000Y-119500000D03*
X48750000Y-90500000D03*
X51250000Y-90500000D03*
X64750000Y-90500000D03*
X67500000Y-90500000D03*
X83250000Y-90500000D03*
X85750000Y-90500000D03*
X99500000Y-90500000D03*
X102250000Y-90500000D03*
X117750000Y-90500000D03*
X120250000Y-90500000D03*
X134000000Y-90500000D03*
X136750000Y-90500000D03*
X152250000Y-90500000D03*
X154750000Y-90500000D03*
X168500000Y-90500000D03*
X171500000Y-90500000D03*
%TO.N,NO2*%
X46900000Y-127100000D03*
%TO.N,R3-*%
X31500000Y-175000000D03*
X27250000Y-160500000D03*
X171250000Y-145750000D03*
X168500000Y-145750000D03*
X154750000Y-145750000D03*
X152000000Y-145750000D03*
X136750000Y-145750000D03*
X133750000Y-145750000D03*
X120250000Y-145750000D03*
X117500000Y-145750000D03*
X102000000Y-145750000D03*
X99250000Y-145750000D03*
X85750000Y-145750000D03*
X82750000Y-145750000D03*
X67500000Y-145750000D03*
X64750000Y-145750000D03*
X51000000Y-145750000D03*
X48750000Y-145750000D03*
%TO.N,NO3*%
X46400000Y-182600000D03*
%TD*%
D18*
%TO.N,R1-*%
X22088185Y-59088185D02*
X23750000Y-59088185D01*
X21250000Y-55250000D02*
X21250000Y-58250000D01*
X21250000Y-58250000D02*
X22088185Y-59088185D01*
X22250000Y-54250000D02*
X21250000Y-55250000D01*
X26750000Y-54250000D02*
X22250000Y-54250000D01*
X27393871Y-53606129D02*
X26750000Y-54250000D01*
X27393871Y-52075000D02*
X27393871Y-53606129D01*
X31904999Y-64154999D02*
X32000000Y-64250000D01*
X29150001Y-64154999D02*
X31904999Y-64154999D01*
X27500000Y-51968871D02*
X27393871Y-52075000D01*
X27500000Y-50000000D02*
X27500000Y-51968871D01*
X48200000Y-34800000D02*
X48250000Y-34750000D01*
X48200000Y-36762500D02*
X48200000Y-34800000D01*
X50775000Y-34775000D02*
X50750000Y-34750000D01*
X50775000Y-36750000D02*
X50775000Y-34775000D01*
X65000000Y-36687500D02*
X64925000Y-36762500D01*
X65000000Y-34750000D02*
X65000000Y-36687500D01*
X67500000Y-36650000D02*
X67400000Y-36750000D01*
X67500000Y-34750000D02*
X67500000Y-36650000D01*
X83000000Y-36687500D02*
X82925000Y-36762500D01*
X83000000Y-34750000D02*
X83000000Y-36687500D01*
X85500000Y-36625000D02*
X85375000Y-36750000D01*
X85500000Y-34750000D02*
X85500000Y-36625000D01*
X99500000Y-36720000D02*
X99470000Y-36750000D01*
X99500000Y-34750000D02*
X99500000Y-36720000D01*
X102000000Y-36757500D02*
X101995000Y-36762500D01*
X102000000Y-34750000D02*
X102000000Y-36757500D01*
X117250000Y-36637500D02*
X117375000Y-36762500D01*
X117250000Y-34750000D02*
X117250000Y-36637500D01*
X119750000Y-36650000D02*
X119850000Y-36750000D01*
X119750000Y-34750000D02*
X119750000Y-36650000D01*
X134000000Y-34750000D02*
X134000000Y-36762500D01*
X136500000Y-36700000D02*
X136450000Y-36750000D01*
X136500000Y-34750000D02*
X136500000Y-36700000D01*
X151750000Y-36587500D02*
X151925000Y-36762500D01*
X151750000Y-34750000D02*
X151750000Y-36587500D01*
X154500000Y-36625000D02*
X154375000Y-36750000D01*
X154500000Y-34750000D02*
X154500000Y-36625000D01*
X168500000Y-36712500D02*
X168550000Y-36762500D01*
X168500000Y-34750000D02*
X168500000Y-36712500D01*
X171000000Y-34750000D02*
X171000000Y-36750000D01*
%TO.N,NC1*%
X29150001Y-67354999D02*
X22410001Y-67354999D01*
X50762500Y-39687500D02*
X50775000Y-39700000D01*
X48200000Y-39687500D02*
X50762500Y-39687500D01*
X50775000Y-39700000D02*
X56550000Y-39700000D01*
X85362500Y-39687500D02*
X85375000Y-39700000D01*
X82925000Y-39687500D02*
X85362500Y-39687500D01*
X91100000Y-39700000D02*
X92445000Y-38355000D01*
X85375000Y-39700000D02*
X91100000Y-39700000D01*
X119837500Y-39687500D02*
X119850000Y-39700000D01*
X117375000Y-39687500D02*
X119837500Y-39687500D01*
X125625000Y-39700000D02*
X126970000Y-38355000D01*
X119850000Y-39700000D02*
X125625000Y-39700000D01*
X160157500Y-39687500D02*
X161495000Y-38350000D01*
X151925000Y-39687500D02*
X160157500Y-39687500D01*
X48895001Y-67354999D02*
X57900000Y-58350000D01*
X29150001Y-67354999D02*
X48895001Y-67354999D01*
X83395001Y-67354999D02*
X92445000Y-58305000D01*
X48895001Y-67354999D02*
X83395001Y-67354999D01*
X83395001Y-67354999D02*
X117895001Y-67354999D01*
X117895001Y-67354999D02*
X126970000Y-58280000D01*
X161495000Y-58255000D02*
X161495000Y-38350000D01*
X152395001Y-67354999D02*
X161495000Y-58255000D01*
X117895001Y-67354999D02*
X152395001Y-67354999D01*
X57900000Y-38350000D02*
X56550000Y-39700000D01*
X57900000Y-38190000D02*
X57900000Y-38350000D01*
X57900000Y-38190000D02*
X57900000Y-43960000D01*
X57900000Y-43960000D02*
X57900000Y-38350000D01*
X57900000Y-58350000D02*
X57900000Y-43960000D01*
X57900000Y-38332777D02*
X57900000Y-42332777D01*
X92425000Y-48075000D02*
X92445000Y-48095000D01*
X92425000Y-38332777D02*
X92425000Y-48075000D01*
X92445000Y-48095000D02*
X92445000Y-38355000D01*
X92445000Y-58305000D02*
X92445000Y-48095000D01*
X126970000Y-38332777D02*
X126970000Y-51260000D01*
X126970000Y-51260000D02*
X126970000Y-38355000D01*
X126970000Y-58280000D02*
X126970000Y-51260000D01*
X56545277Y-39687500D02*
X57900000Y-38332777D01*
X48200000Y-39687500D02*
X56545277Y-39687500D01*
X91070277Y-39687500D02*
X92425000Y-38332777D01*
X82925000Y-39687500D02*
X91070277Y-39687500D01*
X125615277Y-39687500D02*
X126970000Y-38332777D01*
X117375000Y-39687500D02*
X125615277Y-39687500D01*
X160107500Y-39687500D02*
X161495000Y-38300000D01*
X151925000Y-39687500D02*
X160107500Y-39687500D01*
%TO.N,NO1*%
X22410001Y-71754999D02*
X29150001Y-71754999D01*
X67387500Y-39687500D02*
X67400000Y-39700000D01*
X64925000Y-39687500D02*
X67387500Y-39687500D01*
X73125000Y-39700000D02*
X74475000Y-38350000D01*
X67400000Y-39700000D02*
X73125000Y-39700000D01*
X101982500Y-39700000D02*
X101995000Y-39687500D01*
X99470000Y-39700000D02*
X101982500Y-39700000D01*
X107707500Y-39687500D02*
X109040000Y-38355000D01*
X101995000Y-39687500D02*
X107707500Y-39687500D01*
X136437500Y-39687500D02*
X136450000Y-39700000D01*
X134000000Y-39687500D02*
X136437500Y-39687500D01*
X142180000Y-39700000D02*
X143525000Y-38355000D01*
X136450000Y-39700000D02*
X142180000Y-39700000D01*
X176732500Y-39687500D02*
X178070000Y-38350000D01*
X168550000Y-39687500D02*
X176732500Y-39687500D01*
X29150001Y-71754999D02*
X46245001Y-71754999D01*
X46245001Y-71754999D02*
X46245001Y-71754999D01*
X73120277Y-39687500D02*
X74475000Y-38332777D01*
X64925000Y-39687500D02*
X73120277Y-39687500D01*
%TO.N,R2-*%
X22500000Y-109000000D02*
X26500000Y-109000000D01*
X26500000Y-109000000D02*
X27287500Y-108212500D01*
X21500000Y-110000000D02*
X22500000Y-109000000D01*
X21500000Y-112750000D02*
X21500000Y-110000000D01*
X22763185Y-114013185D02*
X21500000Y-112750000D01*
X27287500Y-108212500D02*
X27287500Y-107000000D01*
X23800000Y-114013185D02*
X22763185Y-114013185D01*
X27287500Y-105287500D02*
X27250000Y-105250000D01*
X27287500Y-107000000D02*
X27287500Y-105287500D01*
X171500000Y-92035000D02*
X171320000Y-92215000D01*
X171500000Y-90500000D02*
X171500000Y-92035000D01*
X168500000Y-92207500D02*
X168480000Y-92227500D01*
X168500000Y-90500000D02*
X168500000Y-92207500D01*
X154750000Y-92205000D02*
X154740000Y-92215000D01*
X154750000Y-90500000D02*
X154750000Y-92205000D01*
X152250000Y-92207500D02*
X152270000Y-92227500D01*
X152250000Y-90500000D02*
X152250000Y-92207500D01*
X136750000Y-91975000D02*
X136575000Y-92150000D01*
X136750000Y-90500000D02*
X136750000Y-91975000D01*
X134000000Y-92052500D02*
X133890000Y-92162500D01*
X134000000Y-90500000D02*
X134000000Y-92052500D01*
X120250000Y-92125000D02*
X120225000Y-92150000D01*
X120250000Y-90500000D02*
X120250000Y-92125000D01*
X117750000Y-90500000D02*
X117750000Y-92162500D01*
X102250000Y-91975000D02*
X102075000Y-92150000D01*
X102250000Y-90500000D02*
X102250000Y-91975000D01*
X99500000Y-92112500D02*
X99450000Y-92162500D01*
X99500000Y-90500000D02*
X99500000Y-92112500D01*
X85750000Y-92075000D02*
X85675000Y-92150000D01*
X85750000Y-90500000D02*
X85750000Y-92075000D01*
X83250000Y-92112500D02*
X83300000Y-92162500D01*
X83250000Y-90500000D02*
X83250000Y-92112500D01*
X67500000Y-92125000D02*
X67525000Y-92150000D01*
X67500000Y-90500000D02*
X67500000Y-92125000D01*
X64750000Y-92112500D02*
X64800000Y-92162500D01*
X64750000Y-90500000D02*
X64750000Y-92112500D01*
X51250000Y-92075000D02*
X51175000Y-92150000D01*
X51250000Y-90500000D02*
X51250000Y-92075000D01*
X48750000Y-92087500D02*
X48825000Y-92162500D01*
X48750000Y-90500000D02*
X48750000Y-92087500D01*
X29000000Y-119500000D02*
X31500000Y-119500000D01*
%TO.N,NC2*%
X56457500Y-95087500D02*
X57900000Y-93645000D01*
X48825000Y-95087500D02*
X56457500Y-95087500D01*
X90982500Y-95087500D02*
X92425000Y-93645000D01*
X83300000Y-95087500D02*
X90982500Y-95087500D01*
X125527500Y-95087500D02*
X126970000Y-93645000D01*
X117750000Y-95087500D02*
X125527500Y-95087500D01*
X159987500Y-95152500D02*
X161495000Y-93645000D01*
X152270000Y-95152500D02*
X159987500Y-95152500D01*
X22260000Y-122700000D02*
X29000000Y-122700000D01*
X29000000Y-122700000D02*
X49050000Y-122700000D01*
X57900000Y-113850000D02*
X57900000Y-93645000D01*
X49050000Y-122700000D02*
X57900000Y-113850000D01*
X49050000Y-122700000D02*
X83300000Y-122700000D01*
X92425000Y-113575000D02*
X92425000Y-93645000D01*
X83300000Y-122700000D02*
X92425000Y-113575000D01*
X126970000Y-113780000D02*
X126970000Y-93645000D01*
X118050000Y-122700000D02*
X126970000Y-113780000D01*
X83300000Y-122700000D02*
X118050000Y-122700000D01*
X118050000Y-122700000D02*
X152300000Y-122700000D01*
X161495000Y-113505000D02*
X161495000Y-93645000D01*
X152300000Y-122700000D02*
X161495000Y-113505000D01*
X57900000Y-92652777D02*
X57900000Y-97220000D01*
X92425000Y-92652777D02*
X92425000Y-96652777D01*
%TO.N,NO2*%
X73032500Y-95087500D02*
X74475000Y-93645000D01*
X64800000Y-95087500D02*
X73032500Y-95087500D01*
X107557500Y-95087500D02*
X109000000Y-93645000D01*
X99450000Y-95087500D02*
X107557500Y-95087500D01*
X142082500Y-95087500D02*
X143525000Y-93645000D01*
X133890000Y-95087500D02*
X142082500Y-95087500D01*
X176562500Y-95152500D02*
X178070000Y-93645000D01*
X168480000Y-95152500D02*
X176562500Y-95152500D01*
X22260000Y-127100000D02*
X29000000Y-127100000D01*
X29000000Y-127100000D02*
X46900000Y-127100000D01*
X46900000Y-127100000D02*
X46900000Y-127100000D01*
%TO.N,NC3*%
X22260000Y-178200000D02*
X29000000Y-178200000D01*
X56400000Y-150500000D02*
X57875000Y-149025000D01*
X48675000Y-150500000D02*
X56400000Y-150500000D01*
X90937500Y-150487500D02*
X92400000Y-149025000D01*
X82850000Y-150487500D02*
X90937500Y-150487500D01*
X125482500Y-150487500D02*
X126945000Y-149025000D01*
X117750000Y-150487500D02*
X125482500Y-150487500D01*
X160022500Y-150472500D02*
X161470000Y-149025000D01*
X152180000Y-150472500D02*
X160022500Y-150472500D01*
X57875000Y-169125000D02*
X57875000Y-149025000D01*
X92400000Y-168850000D02*
X92400000Y-149025000D01*
X83050000Y-178200000D02*
X92400000Y-168850000D01*
X49300000Y-178200000D02*
X83050000Y-178200000D01*
X83050000Y-178200000D02*
X117550000Y-178200000D01*
X126945000Y-168805000D02*
X126945000Y-149025000D01*
X117550000Y-178200000D02*
X126945000Y-168805000D01*
X161470000Y-168530000D02*
X161470000Y-149025000D01*
X151800000Y-178200000D02*
X161470000Y-168530000D01*
X117550000Y-178200000D02*
X151800000Y-178200000D01*
X49300000Y-177700000D02*
X49300000Y-178200000D01*
X48800000Y-178200000D02*
X54125000Y-172875000D01*
X48550000Y-178200000D02*
X48800000Y-178200000D01*
X54125000Y-172875000D02*
X57875000Y-169125000D01*
X49300000Y-177700000D02*
X54125000Y-172875000D01*
X29000000Y-178200000D02*
X48550000Y-178200000D01*
X48550000Y-178200000D02*
X49300000Y-178200000D01*
%TO.N,R3-*%
X27182500Y-163817500D02*
X27182500Y-162475000D01*
X26500000Y-164500000D02*
X27182500Y-163817500D01*
X22750000Y-164500000D02*
X26500000Y-164500000D01*
X21500000Y-165750000D02*
X22750000Y-164500000D01*
X21500000Y-168250000D02*
X21500000Y-165750000D01*
X22738185Y-169488185D02*
X21500000Y-168250000D01*
X23750000Y-169488185D02*
X22738185Y-169488185D01*
X27250000Y-162407500D02*
X27182500Y-162475000D01*
X27250000Y-160500000D02*
X27250000Y-162407500D01*
X31500000Y-175000000D02*
X29000000Y-175000000D01*
X48750000Y-147500000D02*
X48675000Y-147575000D01*
X48750000Y-145750000D02*
X48750000Y-147500000D01*
X51000000Y-147400000D02*
X51150000Y-147550000D01*
X51000000Y-145750000D02*
X51000000Y-147400000D01*
X64750000Y-147552500D02*
X64760000Y-147562500D01*
X64750000Y-145750000D02*
X64750000Y-147552500D01*
X67500000Y-147500000D02*
X67450000Y-147550000D01*
X67500000Y-145750000D02*
X67500000Y-147500000D01*
X82750000Y-147462500D02*
X82850000Y-147562500D01*
X82750000Y-145750000D02*
X82750000Y-147462500D01*
X85750000Y-147475000D02*
X85675000Y-147550000D01*
X85750000Y-145750000D02*
X85750000Y-147475000D01*
X99250000Y-147412500D02*
X99400000Y-147562500D01*
X99250000Y-145750000D02*
X99250000Y-147412500D01*
X102000000Y-147425000D02*
X102125000Y-147550000D01*
X102000000Y-145750000D02*
X102000000Y-147425000D01*
X117500000Y-147312500D02*
X117750000Y-147562500D01*
X117500000Y-145750000D02*
X117500000Y-147312500D01*
X120250000Y-147475000D02*
X120175000Y-147550000D01*
X120250000Y-145750000D02*
X120250000Y-147475000D01*
X133750000Y-147537500D02*
X133725000Y-147562500D01*
X133750000Y-145750000D02*
X133750000Y-147537500D01*
X152000000Y-147367500D02*
X152180000Y-147547500D01*
X152000000Y-145750000D02*
X152000000Y-147367500D01*
X154750000Y-147540000D02*
X154760000Y-147550000D01*
X154750000Y-145750000D02*
X154750000Y-147540000D01*
X168500000Y-147557500D02*
X168470000Y-147587500D01*
X168500000Y-145750000D02*
X168500000Y-147557500D01*
X171250000Y-147435000D02*
X171110000Y-147575000D01*
X171250000Y-145750000D02*
X171250000Y-147435000D01*
X136750000Y-147550000D02*
X136750000Y-145750000D01*
%TO.N,NO3*%
X29000000Y-182600000D02*
X22350000Y-182600000D01*
X22350000Y-182600000D02*
X28400000Y-182600000D01*
X22260000Y-182600000D02*
X22350000Y-182600000D01*
X72987500Y-150487500D02*
X74450000Y-149025000D01*
X64760000Y-150487500D02*
X72987500Y-150487500D01*
X107487500Y-150487500D02*
X108975000Y-149000000D01*
X99400000Y-150487500D02*
X107487500Y-150487500D01*
X142037500Y-150487500D02*
X143500000Y-149025000D01*
X133725000Y-150487500D02*
X142037500Y-150487500D01*
X176557500Y-150512500D02*
X178045000Y-149025000D01*
X168470000Y-150512500D02*
X176557500Y-150512500D01*
X29000000Y-182600000D02*
X46400000Y-182600000D01*
X46400000Y-182600000D02*
X46400000Y-182600000D01*
%TO.N,Net-(D1-Pad2)*%
X24468871Y-52075000D02*
X24468871Y-49488870D01*
X30100000Y-45680000D02*
X27580000Y-48200000D01*
X30600000Y-45680000D02*
X30100000Y-45680000D01*
X25757741Y-48200000D02*
X24468871Y-49488870D01*
X27580000Y-48200000D02*
X25757741Y-48200000D01*
X32830000Y-45680000D02*
X33200000Y-46050000D01*
X30600000Y-45680000D02*
X32830000Y-45680000D01*
%TO.N,R1+*%
X22410001Y-64154999D02*
X23770001Y-64154999D01*
X26850000Y-61075000D02*
X23770001Y-64154999D01*
X26850000Y-58740000D02*
X26850000Y-61075000D01*
X28030000Y-38550000D02*
X30600000Y-41120000D01*
X21275000Y-38550000D02*
X28030000Y-38550000D01*
X19250000Y-40575000D02*
X21275000Y-38550000D01*
X19250000Y-60994998D02*
X19250000Y-40575000D01*
X22410001Y-64154999D02*
X19250000Y-60994998D01*
%TO.N,Net-(D2-Pad1)*%
X26813185Y-56163185D02*
X26850000Y-56200000D01*
X23750000Y-56163185D02*
X26813185Y-56163185D01*
%TO.N,R2+*%
X22260000Y-119500000D02*
X24000000Y-119500000D01*
X26743629Y-116756371D02*
X26743629Y-113665000D01*
X24000000Y-119500000D02*
X26743629Y-116756371D01*
X27480000Y-94000000D02*
X30025000Y-96545000D01*
X19275000Y-95125000D02*
X20400000Y-94000000D01*
X19275000Y-117025000D02*
X19275000Y-95125000D01*
X21750000Y-119500000D02*
X19275000Y-117025000D01*
X20400000Y-94000000D02*
X27480000Y-94000000D01*
X22260000Y-119500000D02*
X21750000Y-119500000D01*
%TO.N,Net-(D3-Pad2)*%
X32930000Y-101105000D02*
X33200000Y-101375000D01*
X30025000Y-101105000D02*
X32930000Y-101105000D01*
X24362500Y-107000000D02*
X24362500Y-104537500D01*
X24362500Y-104537500D02*
X25425000Y-103475000D01*
X27655000Y-103475000D02*
X30025000Y-101105000D01*
X25425000Y-103475000D02*
X27655000Y-103475000D01*
%TO.N,Net-(D4-Pad1)*%
X26706814Y-111088185D02*
X26743629Y-111125000D01*
X23800000Y-111088185D02*
X26706814Y-111088185D01*
%TO.N,R3+*%
X22260000Y-175000000D02*
X24250000Y-175000000D01*
X26638629Y-172611371D02*
X26638629Y-169140000D01*
X24250000Y-175000000D02*
X26638629Y-172611371D01*
X28680000Y-150350000D02*
X30824999Y-152494999D01*
X20925000Y-150350000D02*
X28680000Y-150350000D01*
X19250000Y-171990000D02*
X19250000Y-152025000D01*
X19250000Y-152025000D02*
X20925000Y-150350000D01*
X22260000Y-175000000D02*
X19250000Y-171990000D01*
%TO.N,Net-(D5-Pad2)*%
X24300000Y-162432500D02*
X24257500Y-162475000D01*
X24257500Y-162475000D02*
X24257500Y-160492500D01*
X24257500Y-160492500D02*
X25750000Y-159000000D01*
X28879998Y-159000000D02*
X30824999Y-157054999D01*
X25750000Y-159000000D02*
X28879998Y-159000000D01*
X33004999Y-157054999D02*
X33500000Y-157550000D01*
X30824999Y-157054999D02*
X33004999Y-157054999D01*
%TO.N,Net-(D6-Pad1)*%
X26601814Y-166563185D02*
X26638629Y-166600000D01*
X23750000Y-166563185D02*
X26601814Y-166563185D01*
D19*
%TO.N,Net-(J1-Pad1)*%
X186490000Y-27530000D02*
X186490000Y-29030000D01*
X186490000Y-27520000D02*
X181740000Y-22770000D01*
X28000000Y-29000000D02*
X28000000Y-27500000D01*
X28000000Y-27500000D02*
X32750000Y-22750000D01*
X32750000Y-22750000D02*
X181750000Y-22750000D01*
%TO.N,Net-(J2-Pad1)*%
X27880000Y-200000000D02*
X27880000Y-201250000D01*
X186430000Y-201570000D02*
X186430000Y-199300000D01*
X182250000Y-205750000D02*
X186430000Y-201570000D01*
X32500000Y-205750000D02*
X182250000Y-205750000D01*
X28000000Y-201250000D02*
X32500000Y-205750000D01*
D18*
%TO.N,COM1*%
X22410001Y-69554999D02*
X29150001Y-69554999D01*
X135225000Y-78350000D02*
X135250000Y-78375000D01*
X100750000Y-78350000D02*
X135225000Y-78350000D01*
X135250000Y-78375000D02*
X169775000Y-78375000D01*
X49304999Y-69554999D02*
X29150001Y-69554999D01*
X100707500Y-79340000D02*
X100707500Y-75340000D01*
X135252500Y-79377223D02*
X135252500Y-75377223D01*
X169777500Y-79377223D02*
X169777500Y-75377223D01*
X66182500Y-79340000D02*
X66182500Y-75340000D01*
X169740277Y-79340000D02*
X169777500Y-79377223D01*
X66182500Y-79340000D02*
X169740277Y-79340000D01*
X66182500Y-79340000D02*
X59090000Y-79340000D01*
X56430000Y-76680000D02*
X49304999Y-69554999D01*
X59090000Y-79340000D02*
X56430000Y-76680000D01*
X58100000Y-78350000D02*
X56430000Y-76680000D01*
%TO.N,COM2*%
X22260000Y-124900000D02*
X29000000Y-124900000D01*
X29000000Y-124900000D02*
X49150000Y-124900000D01*
X66182500Y-134697223D02*
X66182500Y-130697223D01*
X100700000Y-134697223D02*
X100700000Y-130697223D01*
X135252500Y-134697223D02*
X135252500Y-130697223D01*
X169777500Y-134697223D02*
X169777500Y-130697223D01*
X66182500Y-134697223D02*
X169777500Y-134697223D01*
X58947223Y-134697223D02*
X57295000Y-133045000D01*
X66182500Y-134697223D02*
X58947223Y-134697223D01*
X57295000Y-133045000D02*
X58000000Y-133750000D01*
X49150000Y-124900000D02*
X57295000Y-133045000D01*
%TO.N,COM3*%
X29000000Y-180400000D02*
X22260000Y-180400000D01*
X29000000Y-180400000D02*
X49400000Y-180400000D01*
X100682500Y-190077223D02*
X100682500Y-186077223D01*
X66157500Y-190077223D02*
X66157500Y-187207500D01*
X66157500Y-186077223D02*
X66157500Y-187207500D01*
X135227500Y-186077223D02*
X135227500Y-190077223D01*
X169752500Y-186077223D02*
X169752500Y-190077223D01*
X169752500Y-190077223D02*
X66157500Y-190077223D01*
X59077223Y-190077223D02*
X57280000Y-188280000D01*
X66157500Y-190077223D02*
X59077223Y-190077223D01*
X57280000Y-188280000D02*
X58155000Y-189155000D01*
X49400000Y-180400000D02*
X57280000Y-188280000D01*
%TO.N,Net-(D1-Pad1)*%
X30600000Y-43400000D02*
X24300000Y-43400000D01*
X30600000Y-43400000D02*
X33250000Y-43400000D01*
X33250000Y-43900000D02*
X33200000Y-43950000D01*
X33250000Y-43400000D02*
X33250000Y-43900000D01*
D20*
X38300000Y-42342777D02*
X38300000Y-38342777D01*
D18*
X33740000Y-42892777D02*
X33740000Y-42910000D01*
X38300000Y-38332777D02*
X33740000Y-42892777D01*
X33740000Y-42910000D02*
X38300000Y-38350000D01*
X33250000Y-43400000D02*
X33740000Y-42910000D01*
X38300000Y-42332777D02*
X38300000Y-38332777D01*
%TO.N,Net-(D3-Pad1)*%
X23725000Y-98825000D02*
X30025000Y-98825000D01*
X32750000Y-98825000D02*
X33200000Y-99275000D01*
X30025000Y-98825000D02*
X32750000Y-98825000D01*
X33120000Y-98825000D02*
X30025000Y-98825000D01*
X38300000Y-93645000D02*
X33120000Y-98825000D01*
X38300000Y-92652777D02*
X38300000Y-96652777D01*
%TO.N,Net-(D5-Pad1)*%
X30824999Y-154774999D02*
X24524999Y-154774999D01*
X32824999Y-154774999D02*
X33500000Y-155450000D01*
X30824999Y-154774999D02*
X32824999Y-154774999D01*
X32525001Y-154774999D02*
X30824999Y-154774999D01*
X38275000Y-149025000D02*
X32525001Y-154774999D01*
X38275000Y-148032777D02*
X38275000Y-152032777D01*
%TD*%
M02*
