%TF.GenerationSoftware,KiCad,Pcbnew,(5.1.9)-1*%
%TF.CreationDate,2021-11-07T00:19:35+01:00*%
%TF.ProjectId,RelayBoard,52656c61-7942-46f6-9172-642e6b696361,Version 1 *%
%TF.SameCoordinates,Original*%
%TF.FileFunction,Copper,L4,Bot*%
%TF.FilePolarity,Positive*%
%FSLAX46Y46*%
G04 Gerber Fmt 4.6, Leading zero omitted, Abs format (unit mm)*
G04 Created by KiCad (PCBNEW (5.1.9)-1) date 2021-11-07 00:19:35*
%MOMM*%
%LPD*%
G01*
G04 APERTURE LIST*
%TA.AperFunction,ComponentPad*%
%ADD10C,5.600000*%
%TD*%
%TA.AperFunction,ComponentPad*%
%ADD11R,1.700000X1.700000*%
%TD*%
%TA.AperFunction,ComponentPad*%
%ADD12O,1.700000X1.700000*%
%TD*%
%TA.AperFunction,ComponentPad*%
%ADD13C,3.000000*%
%TD*%
%TA.AperFunction,ViaPad*%
%ADD14C,0.800000*%
%TD*%
%TA.AperFunction,ViaPad*%
%ADD15C,1.000000*%
%TD*%
%TA.AperFunction,ViaPad*%
%ADD16C,1.200000*%
%TD*%
%TA.AperFunction,Conductor*%
%ADD17C,1.250000*%
%TD*%
G04 APERTURE END LIST*
%TO.P,F1,2*%
%TO.N,R1+*%
%TA.AperFunction,SMDPad,CuDef*%
G36*
G01*
X96850002Y-108565000D02*
X91900000Y-108565000D01*
G75*
G02*
X91650001Y-108315001I0J249999D01*
G01*
X91650001Y-106889999D01*
G75*
G02*
X91900000Y-106640000I249999J0D01*
G01*
X96850002Y-106640000D01*
G75*
G02*
X97100001Y-106889999I0J-249999D01*
G01*
X97100001Y-108315001D01*
G75*
G02*
X96850002Y-108565000I-249999J0D01*
G01*
G37*
%TD.AperFunction*%
%TO.P,F1,1*%
%TO.N,Net-(F1-Pad1)*%
%TA.AperFunction,SMDPad,CuDef*%
G36*
G01*
X96850002Y-115340000D02*
X91900000Y-115340000D01*
G75*
G02*
X91650001Y-115090001I0J249999D01*
G01*
X91650001Y-113664999D01*
G75*
G02*
X91900000Y-113415000I249999J0D01*
G01*
X96850002Y-113415000D01*
G75*
G02*
X97100001Y-113664999I0J-249999D01*
G01*
X97100001Y-115090001D01*
G75*
G02*
X96850002Y-115340000I-249999J0D01*
G01*
G37*
%TD.AperFunction*%
%TD*%
%TO.P,F3,1*%
%TO.N,Net-(F3-Pad1)*%
%TA.AperFunction,SMDPad,CuDef*%
G36*
G01*
X148895001Y-115340000D02*
X143944999Y-115340000D01*
G75*
G02*
X143695000Y-115090001I0J249999D01*
G01*
X143695000Y-113664999D01*
G75*
G02*
X143944999Y-113415000I249999J0D01*
G01*
X148895001Y-113415000D01*
G75*
G02*
X149145000Y-113664999I0J-249999D01*
G01*
X149145000Y-115090001D01*
G75*
G02*
X148895001Y-115340000I-249999J0D01*
G01*
G37*
%TD.AperFunction*%
%TO.P,F3,2*%
%TO.N,R3+*%
%TA.AperFunction,SMDPad,CuDef*%
G36*
G01*
X148895001Y-108565000D02*
X143944999Y-108565000D01*
G75*
G02*
X143695000Y-108315001I0J249999D01*
G01*
X143695000Y-106889999D01*
G75*
G02*
X143944999Y-106640000I249999J0D01*
G01*
X148895001Y-106640000D01*
G75*
G02*
X149145000Y-106889999I0J-249999D01*
G01*
X149145000Y-108315001D01*
G75*
G02*
X148895001Y-108565000I-249999J0D01*
G01*
G37*
%TD.AperFunction*%
%TD*%
%TO.P,F2,1*%
%TO.N,Net-(F2-Pad1)*%
%TA.AperFunction,SMDPad,CuDef*%
G36*
G01*
X122860001Y-115340000D02*
X117909999Y-115340000D01*
G75*
G02*
X117660000Y-115090001I0J249999D01*
G01*
X117660000Y-113664999D01*
G75*
G02*
X117909999Y-113415000I249999J0D01*
G01*
X122860001Y-113415000D01*
G75*
G02*
X123110000Y-113664999I0J-249999D01*
G01*
X123110000Y-115090001D01*
G75*
G02*
X122860001Y-115340000I-249999J0D01*
G01*
G37*
%TD.AperFunction*%
%TO.P,F2,2*%
%TO.N,R2+*%
%TA.AperFunction,SMDPad,CuDef*%
G36*
G01*
X122860001Y-108565000D02*
X117909999Y-108565000D01*
G75*
G02*
X117660000Y-108315001I0J249999D01*
G01*
X117660000Y-106889999D01*
G75*
G02*
X117909999Y-106640000I249999J0D01*
G01*
X122860001Y-106640000D01*
G75*
G02*
X123110000Y-106889999I0J-249999D01*
G01*
X123110000Y-108315001D01*
G75*
G02*
X122860001Y-108565000I-249999J0D01*
G01*
G37*
%TD.AperFunction*%
%TD*%
D10*
%TO.P,H1,1*%
%TO.N,N/C*%
X155320000Y-100190000D03*
%TD*%
%TO.P,H2,1*%
%TO.N,N/C*%
X65320000Y-190190000D03*
%TD*%
%TO.P,H3,1*%
%TO.N,N/C*%
X65320000Y-100190000D03*
%TD*%
%TO.P,H4,1*%
%TO.N,N/C*%
X155320000Y-190190000D03*
%TD*%
D11*
%TO.P,1,1*%
%TO.N,R1+*%
X83665000Y-100215000D03*
D12*
%TO.P,1,2*%
%TO.N,R1-*%
X86205000Y-100215000D03*
%TO.P,1,3*%
%TO.N,COM1_1*%
X88745000Y-100215000D03*
%TO.P,1,4*%
%TO.N,NC1_1*%
X91285000Y-100215000D03*
%TO.P,1,5*%
%TO.N,NO1_1*%
X93825000Y-100215000D03*
%TO.P,1,6*%
%TO.N,COM1_2*%
X96365000Y-100215000D03*
%TO.P,1,7*%
%TO.N,NC1_2*%
X98905000Y-100215000D03*
%TO.P,1,8*%
%TO.N,NO1_2*%
X101445000Y-100215000D03*
%TO.P,1,9*%
%TO.N,COM1_3*%
X103985000Y-100215000D03*
%TO.P,1,10*%
%TO.N,NC1_3*%
X106525000Y-100215000D03*
%TO.P,1,11*%
%TO.N,NO1_3*%
X109065000Y-100215000D03*
%TO.P,1,12*%
%TO.N,COM1_4*%
X111605000Y-100215000D03*
%TO.P,1,13*%
%TO.N,NC1_4*%
X114145000Y-100215000D03*
%TO.P,1,14*%
%TO.N,NO1_4*%
X116685000Y-100215000D03*
%TO.P,1,15*%
%TO.N,R2+*%
X119225000Y-100215000D03*
%TO.P,1,16*%
%TO.N,R2-*%
X121765000Y-100215000D03*
%TO.P,1,17*%
%TO.N,COM2_1*%
X124305000Y-100215000D03*
%TO.P,1,18*%
%TO.N,NC2_1*%
X126845000Y-100215000D03*
%TO.P,1,19*%
%TO.N,NO2_1*%
X129385000Y-100215000D03*
%TO.P,1,20*%
%TO.N,COM2_2*%
X131925000Y-100215000D03*
%TO.P,1,21*%
%TO.N,NC2_2*%
X134465000Y-100215000D03*
%TO.P,1,22*%
%TO.N,G*%
X137005000Y-100215000D03*
%TD*%
%TO.P,44,22*%
%TO.N,G*%
X137005000Y-190215000D03*
%TO.P,44,21*%
%TO.N,NO3_4*%
X134465000Y-190215000D03*
%TO.P,44,20*%
%TO.N,NC3_4*%
X131925000Y-190215000D03*
%TO.P,44,19*%
%TO.N,COM3_4*%
X129385000Y-190215000D03*
%TO.P,44,18*%
%TO.N,NO3_3*%
X126845000Y-190215000D03*
%TO.P,44,17*%
%TO.N,NC3_3*%
X124305000Y-190215000D03*
%TO.P,44,16*%
%TO.N,COM3_3*%
X121765000Y-190215000D03*
%TO.P,44,15*%
%TO.N,NO3_2*%
X119225000Y-190215000D03*
%TO.P,44,14*%
%TO.N,NC3_2*%
X116685000Y-190215000D03*
%TO.P,44,13*%
%TO.N,COM3_2*%
X114145000Y-190215000D03*
%TO.P,44,12*%
%TO.N,NO3_1*%
X111605000Y-190215000D03*
%TO.P,44,11*%
%TO.N,NC3_1*%
X109065000Y-190215000D03*
%TO.P,44,10*%
%TO.N,COM3_1*%
X106525000Y-190215000D03*
%TO.P,44,9*%
%TO.N,R3-*%
X103985000Y-190215000D03*
%TO.P,44,8*%
%TO.N,R3+*%
X101445000Y-190215000D03*
%TO.P,44,7*%
%TO.N,NO2_4*%
X98905000Y-190215000D03*
%TO.P,44,6*%
%TO.N,NC2_4*%
X96365000Y-190215000D03*
%TO.P,44,5*%
%TO.N,COM2_4*%
X93825000Y-190215000D03*
%TO.P,44,4*%
%TO.N,NO2_3*%
X91285000Y-190215000D03*
%TO.P,44,3*%
%TO.N,NC2_3*%
X88745000Y-190215000D03*
%TO.P,44,2*%
%TO.N,COM2_3*%
X86205000Y-190215000D03*
D11*
%TO.P,44,1*%
%TO.N,NO2_2*%
X83665000Y-190215000D03*
%TD*%
D13*
%TO.P,K1,1*%
%TO.N,NC1_1*%
X79130001Y-141640001D03*
%TO.P,K1,2*%
%TO.N,NC1_2*%
X83530001Y-141640001D03*
%TO.P,K1,3*%
%TO.N,NC1_3*%
X87930001Y-141640001D03*
%TO.P,K1,4*%
%TO.N,NC1_4*%
X92330001Y-141640001D03*
%TO.P,K1,5*%
%TO.N,NO1_1*%
X79130001Y-136740001D03*
%TO.P,K1,6*%
%TO.N,NO1_2*%
X83530001Y-136740001D03*
%TO.P,K1,7*%
%TO.N,NO1_3*%
X87930001Y-136740001D03*
%TO.P,K1,8*%
%TO.N,NO1_4*%
X92330001Y-136740001D03*
%TO.P,K1,9*%
%TO.N,COM1_1*%
X79130001Y-131240001D03*
%TO.P,K1,10*%
%TO.N,COM1_2*%
X83530001Y-131240001D03*
%TO.P,K1,11*%
%TO.N,COM1_3*%
X87930001Y-131240001D03*
%TO.P,K1,12*%
%TO.N,COM1_4*%
X92330001Y-131240001D03*
%TO.P,K1,13*%
%TO.N,R1-*%
X79130001Y-124890001D03*
%TO.P,K1,14*%
%TO.N,Net-(F1-Pad1)*%
X92330001Y-124890001D03*
%TD*%
%TO.P,K3,14*%
%TO.N,Net-(F3-Pad1)*%
X144350000Y-124890001D03*
%TO.P,K3,13*%
%TO.N,R3-*%
X131150000Y-124890001D03*
%TO.P,K3,12*%
%TO.N,COM3_4*%
X144350000Y-131240001D03*
%TO.P,K3,11*%
%TO.N,COM3_3*%
X139950000Y-131240001D03*
%TO.P,K3,10*%
%TO.N,COM3_2*%
X135550000Y-131240001D03*
%TO.P,K3,9*%
%TO.N,COM3_1*%
X131150000Y-131240001D03*
%TO.P,K3,8*%
%TO.N,NO3_4*%
X144350000Y-136740001D03*
%TO.P,K3,7*%
%TO.N,NO3_3*%
X139950000Y-136740001D03*
%TO.P,K3,6*%
%TO.N,NO3_2*%
X135550000Y-136740001D03*
%TO.P,K3,5*%
%TO.N,NO3_1*%
X131150000Y-136740001D03*
%TO.P,K3,4*%
%TO.N,NC3_4*%
X144350000Y-141640001D03*
%TO.P,K3,3*%
%TO.N,NC3_3*%
X139950000Y-141640001D03*
%TO.P,K3,2*%
%TO.N,NC3_2*%
X135550000Y-141640001D03*
%TO.P,K3,1*%
%TO.N,NC3_1*%
X131150000Y-141640001D03*
%TD*%
%TO.P,K2,1*%
%TO.N,NC2_1*%
X105140000Y-141640001D03*
%TO.P,K2,2*%
%TO.N,NC2_2*%
X109540000Y-141640001D03*
%TO.P,K2,3*%
%TO.N,NC2_3*%
X113940000Y-141640001D03*
%TO.P,K2,4*%
%TO.N,NC2_4*%
X118340000Y-141640001D03*
%TO.P,K2,5*%
%TO.N,NO2_1*%
X105140000Y-136740001D03*
%TO.P,K2,6*%
%TO.N,NO2_2*%
X109540000Y-136740001D03*
%TO.P,K2,7*%
%TO.N,NO2_3*%
X113940000Y-136740001D03*
%TO.P,K2,8*%
%TO.N,NO2_4*%
X118340000Y-136740001D03*
%TO.P,K2,9*%
%TO.N,COM2_1*%
X105140000Y-131240001D03*
%TO.P,K2,10*%
%TO.N,COM2_2*%
X109540000Y-131240001D03*
%TO.P,K2,11*%
%TO.N,COM2_3*%
X113940000Y-131240001D03*
%TO.P,K2,12*%
%TO.N,COM2_4*%
X118340000Y-131240001D03*
%TO.P,K2,13*%
%TO.N,R2-*%
X105140000Y-124890001D03*
%TO.P,K2,14*%
%TO.N,Net-(F2-Pad1)*%
X118340000Y-124890001D03*
%TD*%
D14*
%TO.N,NO1_2*%
X82660000Y-157640000D03*
%TO.N,NO1_1*%
X77120000Y-157640000D03*
X77120000Y-157640000D03*
%TO.N,NO1_3*%
X88190000Y-157640000D03*
D15*
X101680000Y-112210000D03*
D14*
%TO.N,NO1_4*%
X93720000Y-157640000D03*
D15*
X96230000Y-134610000D03*
D14*
%TO.N,NC1_2*%
X81280000Y-149190000D03*
%TO.N,NC1_1*%
X71980000Y-149190000D03*
%TO.N,NC1_3*%
X90420000Y-149190000D03*
%TO.N,NC1_4*%
X99370000Y-149190000D03*
%TO.N,NO3_2*%
X134680000Y-157580000D03*
D15*
X137940000Y-150580000D03*
D14*
%TO.N,NO3_1*%
X129120000Y-157580000D03*
%TO.N,NO3_3*%
X140210000Y-157580000D03*
D15*
X141360000Y-144760000D03*
D14*
%TO.N,NO3_4*%
X145750000Y-157580000D03*
%TO.N,NC3_2*%
X133300000Y-149190000D03*
%TO.N,NC3_3*%
X142660000Y-149190000D03*
%TO.N,NC3_4*%
X151500000Y-149190000D03*
%TO.N,NO2_2*%
X108410000Y-176430000D03*
D15*
X103740000Y-144980000D03*
D14*
%TO.N,NO2_1*%
X102870000Y-176430000D03*
%TO.N,NO2_3*%
X113940000Y-176430000D03*
D15*
X115210000Y-149330000D03*
D14*
%TO.N,NO2_4*%
X119470000Y-176430000D03*
%TO.N,NC2_2*%
X106700000Y-167460000D03*
%TO.N,NC2_1*%
X97640000Y-167460000D03*
%TO.N,NC2_3*%
X115880000Y-167460000D03*
%TO.N,NC2_4*%
X124980000Y-167460000D03*
D16*
%TO.N,R1+*%
X90340000Y-109560000D03*
D14*
%TO.N,NC3_1*%
X124150000Y-149190000D03*
%TD*%
D17*
%TO.N,R1+*%
X90360000Y-109580000D02*
X90340000Y-109560000D01*
X92880000Y-109580000D02*
X90360000Y-109580000D01*
X94375001Y-108084999D02*
X92880000Y-109580000D01*
X94375001Y-107602500D02*
X94375001Y-108084999D01*
%TO.N,Net-(F1-Pad1)*%
X94375001Y-122845001D02*
X92330001Y-124890001D01*
X94375001Y-114377500D02*
X94375001Y-117564999D01*
X94375001Y-117564999D02*
X94375001Y-122845001D01*
X94375001Y-115377500D02*
X94375001Y-117564999D01*
%TO.N,Net-(F2-Pad1)*%
X120385000Y-122845001D02*
X118340000Y-124890001D01*
X120385000Y-116855000D02*
X120385000Y-114377500D01*
X120385000Y-115377500D02*
X120385000Y-116855000D01*
X120385000Y-116855000D02*
X120385000Y-122845001D01*
%TO.N,R3+*%
X101445000Y-192235000D02*
X101445000Y-190215000D01*
X103548275Y-194338275D02*
X101445000Y-192235000D01*
X155312398Y-194338275D02*
X103548275Y-194338275D01*
X155314113Y-194339990D02*
X155312398Y-194338275D01*
X155436399Y-194338275D02*
X155314113Y-194339990D01*
X155552701Y-194333378D02*
X155436399Y-194338275D01*
X158635805Y-192685428D02*
X158564552Y-192777394D01*
X158770508Y-192495584D02*
X158704506Y-192591425D01*
X158833821Y-192397890D02*
X158770508Y-192495584D01*
X159058927Y-191990596D02*
X159006966Y-192094733D01*
X159237029Y-191560623D02*
X159197052Y-191669927D01*
X158704506Y-192591425D02*
X158635805Y-192685428D01*
X159273924Y-191450241D02*
X159237029Y-191560623D01*
X159154003Y-191778124D02*
X159107963Y-191885010D01*
X159307710Y-191338863D02*
X159273924Y-191450241D01*
X159365857Y-191113451D02*
X159338371Y-191226539D01*
X146340000Y-107600000D02*
X148020000Y-107600000D01*
X148020000Y-107600000D02*
X153512500Y-113092500D01*
X159338371Y-191226539D02*
X159307710Y-191338863D01*
X153512500Y-113092500D02*
X153512500Y-117778124D01*
X153512500Y-117778124D02*
X159462607Y-123728231D01*
X159469990Y-190184051D02*
X159468273Y-190306404D01*
X159006966Y-192094733D02*
X158952097Y-192197386D01*
X159429156Y-190770132D02*
X159411269Y-190885154D01*
X159443813Y-190654636D02*
X159429156Y-190770132D01*
X159107963Y-191885010D02*
X159058927Y-191990596D01*
X159468273Y-190306404D02*
X159463377Y-190422704D01*
X159390167Y-190999603D02*
X159365857Y-191113451D01*
X158952097Y-192197386D02*
X158894369Y-192298462D01*
X159463377Y-190422704D02*
X159455223Y-190538787D01*
X159462607Y-123728231D02*
X159469990Y-190184051D01*
X159455223Y-190538787D02*
X159443813Y-190654636D01*
X158894369Y-192298462D02*
X158833821Y-192397890D01*
X159197052Y-191669927D02*
X159154003Y-191778124D01*
X159411269Y-190885154D02*
X159390167Y-190999603D01*
X158564552Y-192777394D02*
X158490664Y-192867425D01*
X156580226Y-194143929D02*
X156468860Y-194177712D01*
X158490664Y-192867425D02*
X158414332Y-192955291D01*
X158414332Y-192955291D02*
X158335602Y-193040941D01*
X158335602Y-193040941D02*
X158254418Y-193124434D01*
X158254418Y-193124434D02*
X158170943Y-193205600D01*
X158170943Y-193205600D02*
X158085282Y-193284339D01*
X158085282Y-193284339D02*
X157997419Y-193360669D01*
X157997419Y-193360669D02*
X157907386Y-193434558D01*
X157907386Y-193434558D02*
X157815421Y-193505810D01*
X157527891Y-193703821D02*
X157428453Y-193764374D01*
X157815421Y-193505810D02*
X157721408Y-193574518D01*
X157721408Y-193574518D02*
X157625566Y-193640521D01*
X157625566Y-193640521D02*
X157527891Y-193703821D01*
X156468860Y-194177712D02*
X156356555Y-194208368D01*
X157428453Y-193764374D02*
X157327368Y-193822108D01*
X157327368Y-193822108D02*
X157224752Y-193876957D01*
X157120595Y-193928928D02*
X157015000Y-193977968D01*
X157224752Y-193876957D02*
X157120595Y-193928928D01*
X157015000Y-193977968D02*
X156908109Y-194024010D01*
X156908109Y-194024010D02*
X156799926Y-194067053D01*
X156799926Y-194067053D02*
X156690620Y-194107030D01*
X156690620Y-194107030D02*
X156580226Y-194143929D01*
X156356555Y-194208368D02*
X156243450Y-194235858D01*
X156243450Y-194235858D02*
X156129601Y-194260169D01*
X156129601Y-194260169D02*
X156015161Y-194281269D01*
X156015161Y-194281269D02*
X155900134Y-194299157D01*
X155900134Y-194299157D02*
X155784649Y-194313813D01*
X155784649Y-194313813D02*
X155668803Y-194325223D01*
X155668803Y-194325223D02*
X155552701Y-194333378D01*
X148017500Y-107602500D02*
X148020000Y-107600000D01*
X146420000Y-107602500D02*
X148017500Y-107602500D01*
%TO.N,Net-(F3-Pad1)*%
X146420000Y-122820001D02*
X144350000Y-124890001D01*
X146420000Y-116410000D02*
X146420000Y-114377500D01*
X146420000Y-115377500D02*
X146420000Y-116410000D01*
X146420000Y-116410000D02*
X146420000Y-122820001D01*
%TO.N,R2+*%
X119225000Y-106225000D02*
X120540000Y-107540000D01*
X119225000Y-100215000D02*
X119225000Y-106225000D01*
%TO.N,R1-*%
X86205000Y-117815002D02*
X79130001Y-124890001D01*
X86205000Y-100215000D02*
X86205000Y-117815002D01*
%TO.N,R2-*%
X105140000Y-115690000D02*
X105140000Y-124890001D01*
X109840000Y-110990000D02*
X105140000Y-115690000D01*
X123400000Y-110990000D02*
X109840000Y-110990000D01*
X124510000Y-109880000D02*
X123400000Y-110990000D01*
X124510000Y-104240000D02*
X124510000Y-109880000D01*
X121765000Y-101495000D02*
X124510000Y-104240000D01*
X121765000Y-100215000D02*
X121765000Y-101495000D01*
%TO.N,R3-*%
X103985000Y-191335000D02*
X103985000Y-190215000D01*
X147150000Y-192360000D02*
X105010000Y-192360000D01*
X157360000Y-131150000D02*
X157360000Y-182150000D01*
X154070000Y-127860000D02*
X157360000Y-131150000D01*
X157360000Y-182150000D02*
X147150000Y-192360000D01*
X139130000Y-127860000D02*
X154070000Y-127860000D01*
X105010000Y-192360000D02*
X103985000Y-191335000D01*
X136160001Y-124890001D02*
X139130000Y-127860000D01*
X131150000Y-124890001D02*
X136160001Y-124890001D01*
%TD*%
M02*
