M48
; DRILL file {KiCad (5.1.9)-1} date 11/07/21 00:19:47
; FORMAT={-:-/ absolute / metric / decimal}
; #@! TF.CreationDate,2021-11-07T00:19:47+01:00
; #@! TF.GenerationSoftware,Kicad,Pcbnew,(5.1.9)-1
; #@! TF.FileFunction,Plated,1,4,PTH
FMAT,2
METRIC
T1C0.400
T2C0.600
T3C0.800
T4C1.000
T5C2.000
T6C3.200
%
G90
G05
T1
X71.98Y-149.19
X77.12Y-157.64
X77.12Y-157.64
X81.28Y-149.19
X82.66Y-157.64
X88.19Y-157.64
X90.42Y-149.19
X93.72Y-157.64
X97.64Y-167.46
X99.37Y-149.19
X102.87Y-176.43
X106.7Y-167.46
X108.41Y-176.43
X113.94Y-176.43
X115.88Y-167.46
X119.47Y-176.43
X124.15Y-149.19
X124.98Y-167.46
X129.12Y-157.58
X133.3Y-149.19
X134.68Y-157.58
X140.21Y-157.58
X142.66Y-149.19
X145.75Y-157.58
X151.5Y-149.19
T2
X96.23Y-134.61
X101.68Y-112.21
X103.74Y-144.98
X115.21Y-149.33
X137.94Y-150.58
X141.36Y-144.76
T3
X90.34Y-109.56
T4
X83.665Y-100.215
X83.665Y-190.215
X86.205Y-100.215
X86.205Y-190.215
X88.745Y-100.215
X88.745Y-190.215
X91.285Y-100.215
X91.285Y-190.215
X93.825Y-100.215
X93.825Y-190.215
X96.365Y-100.215
X96.365Y-190.215
X98.905Y-100.215
X98.905Y-190.215
X101.445Y-100.215
X101.445Y-190.215
X103.985Y-100.215
X103.985Y-190.215
X106.525Y-100.215
X106.525Y-190.215
X109.065Y-100.215
X109.065Y-190.215
X111.605Y-100.215
X111.605Y-190.215
X114.145Y-100.215
X114.145Y-190.215
X116.685Y-100.215
X116.685Y-190.215
X119.225Y-100.215
X119.225Y-190.215
X121.765Y-100.215
X121.765Y-190.215
X124.305Y-100.215
X124.305Y-190.215
X126.845Y-100.215
X126.845Y-190.215
X129.385Y-100.215
X129.385Y-190.215
X131.925Y-100.215
X131.925Y-190.215
X134.465Y-100.215
X134.465Y-190.215
X137.005Y-100.215
X137.005Y-190.215
T5
X79.13Y-124.89
X79.13Y-131.24
X79.13Y-136.74
X79.13Y-141.64
X83.53Y-131.24
X83.53Y-136.74
X83.53Y-141.64
X87.93Y-131.24
X87.93Y-136.74
X87.93Y-141.64
X92.33Y-124.89
X92.33Y-131.24
X92.33Y-136.74
X92.33Y-141.64
X105.14Y-124.89
X105.14Y-131.24
X105.14Y-136.74
X105.14Y-141.64
X109.54Y-131.24
X109.54Y-136.74
X109.54Y-141.64
X113.94Y-131.24
X113.94Y-136.74
X113.94Y-141.64
X118.34Y-124.89
X118.34Y-131.24
X118.34Y-136.74
X118.34Y-141.64
X131.15Y-124.89
X131.15Y-131.24
X131.15Y-136.74
X131.15Y-141.64
X135.55Y-131.24
X135.55Y-136.74
X135.55Y-141.64
X139.95Y-131.24
X139.95Y-136.74
X139.95Y-141.64
X144.35Y-124.89
X144.35Y-131.24
X144.35Y-136.74
X144.35Y-141.64
T6
X65.32Y-100.19
X65.32Y-190.19
X155.32Y-100.19
X155.32Y-190.19
T0
M30
