%TF.GenerationSoftware,KiCad,Pcbnew,(5.1.9)-1*%
%TF.CreationDate,2021-11-07T00:19:35+01:00*%
%TF.ProjectId,RelayBoard,52656c61-7942-46f6-9172-642e6b696361,Version 1 *%
%TF.SameCoordinates,Original*%
%TF.FileFunction,Soldermask,Top*%
%TF.FilePolarity,Negative*%
%FSLAX46Y46*%
G04 Gerber Fmt 4.6, Leading zero omitted, Abs format (unit mm)*
G04 Created by KiCad (PCBNEW (5.1.9)-1) date 2021-11-07 00:19:35*
%MOMM*%
%LPD*%
G01*
G04 APERTURE LIST*
%ADD10C,5.600000*%
%ADD11R,1.700000X1.700000*%
%ADD12O,1.700000X1.700000*%
%ADD13C,3.000000*%
G04 APERTURE END LIST*
%TO.C,C1*%
G36*
G01*
X84707143Y-159840000D02*
X83407141Y-159840000D01*
G75*
G02*
X83157142Y-159590001I0J249999D01*
G01*
X83157142Y-158764999D01*
G75*
G02*
X83407141Y-158515000I249999J0D01*
G01*
X84707143Y-158515000D01*
G75*
G02*
X84957142Y-158764999I0J-249999D01*
G01*
X84957142Y-159590001D01*
G75*
G02*
X84707143Y-159840000I-249999J0D01*
G01*
G37*
G36*
G01*
X84707143Y-162965000D02*
X83407141Y-162965000D01*
G75*
G02*
X83157142Y-162715001I0J249999D01*
G01*
X83157142Y-161889999D01*
G75*
G02*
X83407141Y-161640000I249999J0D01*
G01*
X84707143Y-161640000D01*
G75*
G02*
X84957142Y-161889999I0J-249999D01*
G01*
X84957142Y-162715001D01*
G75*
G02*
X84707143Y-162965000I-249999J0D01*
G01*
G37*
%TD*%
%TO.C,C2*%
G36*
G01*
X79175715Y-162965000D02*
X77875713Y-162965000D01*
G75*
G02*
X77625714Y-162715001I0J249999D01*
G01*
X77625714Y-161889999D01*
G75*
G02*
X77875713Y-161640000I249999J0D01*
G01*
X79175715Y-161640000D01*
G75*
G02*
X79425714Y-161889999I0J-249999D01*
G01*
X79425714Y-162715001D01*
G75*
G02*
X79175715Y-162965000I-249999J0D01*
G01*
G37*
G36*
G01*
X79175715Y-159840000D02*
X77875713Y-159840000D01*
G75*
G02*
X77625714Y-159590001I0J249999D01*
G01*
X77625714Y-158764999D01*
G75*
G02*
X77875713Y-158515000I249999J0D01*
G01*
X79175715Y-158515000D01*
G75*
G02*
X79425714Y-158764999I0J-249999D01*
G01*
X79425714Y-159590001D01*
G75*
G02*
X79175715Y-159840000I-249999J0D01*
G01*
G37*
%TD*%
%TO.C,C3*%
G36*
G01*
X90238571Y-159840000D02*
X88938569Y-159840000D01*
G75*
G02*
X88688570Y-159590001I0J249999D01*
G01*
X88688570Y-158764999D01*
G75*
G02*
X88938569Y-158515000I249999J0D01*
G01*
X90238571Y-158515000D01*
G75*
G02*
X90488570Y-158764999I0J-249999D01*
G01*
X90488570Y-159590001D01*
G75*
G02*
X90238571Y-159840000I-249999J0D01*
G01*
G37*
G36*
G01*
X90238571Y-162965000D02*
X88938569Y-162965000D01*
G75*
G02*
X88688570Y-162715001I0J249999D01*
G01*
X88688570Y-161889999D01*
G75*
G02*
X88938569Y-161640000I249999J0D01*
G01*
X90238571Y-161640000D01*
G75*
G02*
X90488570Y-161889999I0J-249999D01*
G01*
X90488570Y-162715001D01*
G75*
G02*
X90238571Y-162965000I-249999J0D01*
G01*
G37*
%TD*%
%TO.C,C4*%
G36*
G01*
X95770001Y-159840000D02*
X94469999Y-159840000D01*
G75*
G02*
X94220000Y-159590001I0J249999D01*
G01*
X94220000Y-158764999D01*
G75*
G02*
X94469999Y-158515000I249999J0D01*
G01*
X95770001Y-158515000D01*
G75*
G02*
X96020000Y-158764999I0J-249999D01*
G01*
X96020000Y-159590001D01*
G75*
G02*
X95770001Y-159840000I-249999J0D01*
G01*
G37*
G36*
G01*
X95770001Y-162965000D02*
X94469999Y-162965000D01*
G75*
G02*
X94220000Y-162715001I0J249999D01*
G01*
X94220000Y-161889999D01*
G75*
G02*
X94469999Y-161640000I249999J0D01*
G01*
X95770001Y-161640000D01*
G75*
G02*
X96020000Y-161889999I0J-249999D01*
G01*
X96020000Y-162715001D01*
G75*
G02*
X95770001Y-162965000I-249999J0D01*
G01*
G37*
%TD*%
%TO.C,C5*%
G36*
G01*
X84230001Y-149840000D02*
X82929999Y-149840000D01*
G75*
G02*
X82680000Y-149590001I0J249999D01*
G01*
X82680000Y-148764999D01*
G75*
G02*
X82929999Y-148515000I249999J0D01*
G01*
X84230001Y-148515000D01*
G75*
G02*
X84480000Y-148764999I0J-249999D01*
G01*
X84480000Y-149590001D01*
G75*
G02*
X84230001Y-149840000I-249999J0D01*
G01*
G37*
G36*
G01*
X84230001Y-152965000D02*
X82929999Y-152965000D01*
G75*
G02*
X82680000Y-152715001I0J249999D01*
G01*
X82680000Y-151889999D01*
G75*
G02*
X82929999Y-151640000I249999J0D01*
G01*
X84230001Y-151640000D01*
G75*
G02*
X84480000Y-151889999I0J-249999D01*
G01*
X84480000Y-152715001D01*
G75*
G02*
X84230001Y-152965000I-249999J0D01*
G01*
G37*
%TD*%
%TO.C,C6*%
G36*
G01*
X74996667Y-152965000D02*
X73696665Y-152965000D01*
G75*
G02*
X73446666Y-152715001I0J249999D01*
G01*
X73446666Y-151889999D01*
G75*
G02*
X73696665Y-151640000I249999J0D01*
G01*
X74996667Y-151640000D01*
G75*
G02*
X75246666Y-151889999I0J-249999D01*
G01*
X75246666Y-152715001D01*
G75*
G02*
X74996667Y-152965000I-249999J0D01*
G01*
G37*
G36*
G01*
X74996667Y-149840000D02*
X73696665Y-149840000D01*
G75*
G02*
X73446666Y-149590001I0J249999D01*
G01*
X73446666Y-148764999D01*
G75*
G02*
X73696665Y-148515000I249999J0D01*
G01*
X74996667Y-148515000D01*
G75*
G02*
X75246666Y-148764999I0J-249999D01*
G01*
X75246666Y-149590001D01*
G75*
G02*
X74996667Y-149840000I-249999J0D01*
G01*
G37*
%TD*%
%TO.C,C7*%
G36*
G01*
X93292857Y-149840000D02*
X91992855Y-149840000D01*
G75*
G02*
X91742856Y-149590001I0J249999D01*
G01*
X91742856Y-148764999D01*
G75*
G02*
X91992855Y-148515000I249999J0D01*
G01*
X93292857Y-148515000D01*
G75*
G02*
X93542856Y-148764999I0J-249999D01*
G01*
X93542856Y-149590001D01*
G75*
G02*
X93292857Y-149840000I-249999J0D01*
G01*
G37*
G36*
G01*
X93292857Y-152965000D02*
X91992855Y-152965000D01*
G75*
G02*
X91742856Y-152715001I0J249999D01*
G01*
X91742856Y-151889999D01*
G75*
G02*
X91992855Y-151640000I249999J0D01*
G01*
X93292857Y-151640000D01*
G75*
G02*
X93542856Y-151889999I0J-249999D01*
G01*
X93542856Y-152715001D01*
G75*
G02*
X93292857Y-152965000I-249999J0D01*
G01*
G37*
%TD*%
%TO.C,C8*%
G36*
G01*
X102322857Y-152965000D02*
X101022855Y-152965000D01*
G75*
G02*
X100772856Y-152715001I0J249999D01*
G01*
X100772856Y-151889999D01*
G75*
G02*
X101022855Y-151640000I249999J0D01*
G01*
X102322857Y-151640000D01*
G75*
G02*
X102572856Y-151889999I0J-249999D01*
G01*
X102572856Y-152715001D01*
G75*
G02*
X102322857Y-152965000I-249999J0D01*
G01*
G37*
G36*
G01*
X102322857Y-149840000D02*
X101022855Y-149840000D01*
G75*
G02*
X100772856Y-149590001I0J249999D01*
G01*
X100772856Y-148764999D01*
G75*
G02*
X101022855Y-148515000I249999J0D01*
G01*
X102322857Y-148515000D01*
G75*
G02*
X102572856Y-148764999I0J-249999D01*
G01*
X102572856Y-149590001D01*
G75*
G02*
X102322857Y-149840000I-249999J0D01*
G01*
G37*
%TD*%
%TO.C,C9*%
G36*
G01*
X136767143Y-162965000D02*
X135467141Y-162965000D01*
G75*
G02*
X135217142Y-162715001I0J249999D01*
G01*
X135217142Y-161889999D01*
G75*
G02*
X135467141Y-161640000I249999J0D01*
G01*
X136767143Y-161640000D01*
G75*
G02*
X137017142Y-161889999I0J-249999D01*
G01*
X137017142Y-162715001D01*
G75*
G02*
X136767143Y-162965000I-249999J0D01*
G01*
G37*
G36*
G01*
X136767143Y-159840000D02*
X135467141Y-159840000D01*
G75*
G02*
X135217142Y-159590001I0J249999D01*
G01*
X135217142Y-158764999D01*
G75*
G02*
X135467141Y-158515000I249999J0D01*
G01*
X136767143Y-158515000D01*
G75*
G02*
X137017142Y-158764999I0J-249999D01*
G01*
X137017142Y-159590001D01*
G75*
G02*
X136767143Y-159840000I-249999J0D01*
G01*
G37*
%TD*%
%TO.C,C10*%
G36*
G01*
X131235715Y-162965000D02*
X129935713Y-162965000D01*
G75*
G02*
X129685714Y-162715001I0J249999D01*
G01*
X129685714Y-161889999D01*
G75*
G02*
X129935713Y-161640000I249999J0D01*
G01*
X131235715Y-161640000D01*
G75*
G02*
X131485714Y-161889999I0J-249999D01*
G01*
X131485714Y-162715001D01*
G75*
G02*
X131235715Y-162965000I-249999J0D01*
G01*
G37*
G36*
G01*
X131235715Y-159840000D02*
X129935713Y-159840000D01*
G75*
G02*
X129685714Y-159590001I0J249999D01*
G01*
X129685714Y-158764999D01*
G75*
G02*
X129935713Y-158515000I249999J0D01*
G01*
X131235715Y-158515000D01*
G75*
G02*
X131485714Y-158764999I0J-249999D01*
G01*
X131485714Y-159590001D01*
G75*
G02*
X131235715Y-159840000I-249999J0D01*
G01*
G37*
%TD*%
%TO.C,C11*%
G36*
G01*
X142298571Y-159840000D02*
X140998569Y-159840000D01*
G75*
G02*
X140748570Y-159590001I0J249999D01*
G01*
X140748570Y-158764999D01*
G75*
G02*
X140998569Y-158515000I249999J0D01*
G01*
X142298571Y-158515000D01*
G75*
G02*
X142548570Y-158764999I0J-249999D01*
G01*
X142548570Y-159590001D01*
G75*
G02*
X142298571Y-159840000I-249999J0D01*
G01*
G37*
G36*
G01*
X142298571Y-162965000D02*
X140998569Y-162965000D01*
G75*
G02*
X140748570Y-162715001I0J249999D01*
G01*
X140748570Y-161889999D01*
G75*
G02*
X140998569Y-161640000I249999J0D01*
G01*
X142298571Y-161640000D01*
G75*
G02*
X142548570Y-161889999I0J-249999D01*
G01*
X142548570Y-162715001D01*
G75*
G02*
X142298571Y-162965000I-249999J0D01*
G01*
G37*
%TD*%
%TO.C,C12*%
G36*
G01*
X147830001Y-159840000D02*
X146529999Y-159840000D01*
G75*
G02*
X146280000Y-159590001I0J249999D01*
G01*
X146280000Y-158764999D01*
G75*
G02*
X146529999Y-158515000I249999J0D01*
G01*
X147830001Y-158515000D01*
G75*
G02*
X148080000Y-158764999I0J-249999D01*
G01*
X148080000Y-159590001D01*
G75*
G02*
X147830001Y-159840000I-249999J0D01*
G01*
G37*
G36*
G01*
X147830001Y-162965000D02*
X146529999Y-162965000D01*
G75*
G02*
X146280000Y-162715001I0J249999D01*
G01*
X146280000Y-161889999D01*
G75*
G02*
X146529999Y-161640000I249999J0D01*
G01*
X147830001Y-161640000D01*
G75*
G02*
X148080000Y-161889999I0J-249999D01*
G01*
X148080000Y-162715001D01*
G75*
G02*
X147830001Y-162965000I-249999J0D01*
G01*
G37*
%TD*%
%TO.C,C13*%
G36*
G01*
X136370001Y-152965000D02*
X135069999Y-152965000D01*
G75*
G02*
X134820000Y-152715001I0J249999D01*
G01*
X134820000Y-151889999D01*
G75*
G02*
X135069999Y-151640000I249999J0D01*
G01*
X136370001Y-151640000D01*
G75*
G02*
X136620000Y-151889999I0J-249999D01*
G01*
X136620000Y-152715001D01*
G75*
G02*
X136370001Y-152965000I-249999J0D01*
G01*
G37*
G36*
G01*
X136370001Y-149840000D02*
X135069999Y-149840000D01*
G75*
G02*
X134820000Y-149590001I0J249999D01*
G01*
X134820000Y-148764999D01*
G75*
G02*
X135069999Y-148515000I249999J0D01*
G01*
X136370001Y-148515000D01*
G75*
G02*
X136620000Y-148764999I0J-249999D01*
G01*
X136620000Y-149590001D01*
G75*
G02*
X136370001Y-149840000I-249999J0D01*
G01*
G37*
%TD*%
%TO.C,C14*%
G36*
G01*
X127136667Y-152965000D02*
X125836665Y-152965000D01*
G75*
G02*
X125586666Y-152715001I0J249999D01*
G01*
X125586666Y-151889999D01*
G75*
G02*
X125836665Y-151640000I249999J0D01*
G01*
X127136667Y-151640000D01*
G75*
G02*
X127386666Y-151889999I0J-249999D01*
G01*
X127386666Y-152715001D01*
G75*
G02*
X127136667Y-152965000I-249999J0D01*
G01*
G37*
G36*
G01*
X127136667Y-149840000D02*
X125836665Y-149840000D01*
G75*
G02*
X125586666Y-149590001I0J249999D01*
G01*
X125586666Y-148764999D01*
G75*
G02*
X125836665Y-148515000I249999J0D01*
G01*
X127136667Y-148515000D01*
G75*
G02*
X127386666Y-148764999I0J-249999D01*
G01*
X127386666Y-149590001D01*
G75*
G02*
X127136667Y-149840000I-249999J0D01*
G01*
G37*
%TD*%
%TO.C,C15*%
G36*
G01*
X145432857Y-149840000D02*
X144132855Y-149840000D01*
G75*
G02*
X143882856Y-149590001I0J249999D01*
G01*
X143882856Y-148764999D01*
G75*
G02*
X144132855Y-148515000I249999J0D01*
G01*
X145432857Y-148515000D01*
G75*
G02*
X145682856Y-148764999I0J-249999D01*
G01*
X145682856Y-149590001D01*
G75*
G02*
X145432857Y-149840000I-249999J0D01*
G01*
G37*
G36*
G01*
X145432857Y-152965000D02*
X144132855Y-152965000D01*
G75*
G02*
X143882856Y-152715001I0J249999D01*
G01*
X143882856Y-151889999D01*
G75*
G02*
X144132855Y-151640000I249999J0D01*
G01*
X145432857Y-151640000D01*
G75*
G02*
X145682856Y-151889999I0J-249999D01*
G01*
X145682856Y-152715001D01*
G75*
G02*
X145432857Y-152965000I-249999J0D01*
G01*
G37*
%TD*%
%TO.C,C16*%
G36*
G01*
X154462857Y-152965000D02*
X153162855Y-152965000D01*
G75*
G02*
X152912856Y-152715001I0J249999D01*
G01*
X152912856Y-151889999D01*
G75*
G02*
X153162855Y-151640000I249999J0D01*
G01*
X154462857Y-151640000D01*
G75*
G02*
X154712856Y-151889999I0J-249999D01*
G01*
X154712856Y-152715001D01*
G75*
G02*
X154462857Y-152965000I-249999J0D01*
G01*
G37*
G36*
G01*
X154462857Y-149840000D02*
X153162855Y-149840000D01*
G75*
G02*
X152912856Y-149590001I0J249999D01*
G01*
X152912856Y-148764999D01*
G75*
G02*
X153162855Y-148515000I249999J0D01*
G01*
X154462857Y-148515000D01*
G75*
G02*
X154712856Y-148764999I0J-249999D01*
G01*
X154712856Y-149590001D01*
G75*
G02*
X154462857Y-149840000I-249999J0D01*
G01*
G37*
%TD*%
%TO.C,C17*%
G36*
G01*
X110467143Y-178730000D02*
X109167141Y-178730000D01*
G75*
G02*
X108917142Y-178480001I0J249999D01*
G01*
X108917142Y-177654999D01*
G75*
G02*
X109167141Y-177405000I249999J0D01*
G01*
X110467143Y-177405000D01*
G75*
G02*
X110717142Y-177654999I0J-249999D01*
G01*
X110717142Y-178480001D01*
G75*
G02*
X110467143Y-178730000I-249999J0D01*
G01*
G37*
G36*
G01*
X110467143Y-181855000D02*
X109167141Y-181855000D01*
G75*
G02*
X108917142Y-181605001I0J249999D01*
G01*
X108917142Y-180779999D01*
G75*
G02*
X109167141Y-180530000I249999J0D01*
G01*
X110467143Y-180530000D01*
G75*
G02*
X110717142Y-180779999I0J-249999D01*
G01*
X110717142Y-181605001D01*
G75*
G02*
X110467143Y-181855000I-249999J0D01*
G01*
G37*
%TD*%
%TO.C,C18*%
G36*
G01*
X104935715Y-178730000D02*
X103635713Y-178730000D01*
G75*
G02*
X103385714Y-178480001I0J249999D01*
G01*
X103385714Y-177654999D01*
G75*
G02*
X103635713Y-177405000I249999J0D01*
G01*
X104935715Y-177405000D01*
G75*
G02*
X105185714Y-177654999I0J-249999D01*
G01*
X105185714Y-178480001D01*
G75*
G02*
X104935715Y-178730000I-249999J0D01*
G01*
G37*
G36*
G01*
X104935715Y-181855000D02*
X103635713Y-181855000D01*
G75*
G02*
X103385714Y-181605001I0J249999D01*
G01*
X103385714Y-180779999D01*
G75*
G02*
X103635713Y-180530000I249999J0D01*
G01*
X104935715Y-180530000D01*
G75*
G02*
X105185714Y-180779999I0J-249999D01*
G01*
X105185714Y-181605001D01*
G75*
G02*
X104935715Y-181855000I-249999J0D01*
G01*
G37*
%TD*%
%TO.C,C19*%
G36*
G01*
X115998571Y-181855000D02*
X114698569Y-181855000D01*
G75*
G02*
X114448570Y-181605001I0J249999D01*
G01*
X114448570Y-180779999D01*
G75*
G02*
X114698569Y-180530000I249999J0D01*
G01*
X115998571Y-180530000D01*
G75*
G02*
X116248570Y-180779999I0J-249999D01*
G01*
X116248570Y-181605001D01*
G75*
G02*
X115998571Y-181855000I-249999J0D01*
G01*
G37*
G36*
G01*
X115998571Y-178730000D02*
X114698569Y-178730000D01*
G75*
G02*
X114448570Y-178480001I0J249999D01*
G01*
X114448570Y-177654999D01*
G75*
G02*
X114698569Y-177405000I249999J0D01*
G01*
X115998571Y-177405000D01*
G75*
G02*
X116248570Y-177654999I0J-249999D01*
G01*
X116248570Y-178480001D01*
G75*
G02*
X115998571Y-178730000I-249999J0D01*
G01*
G37*
%TD*%
%TO.C,C20*%
G36*
G01*
X121530001Y-181855000D02*
X120229999Y-181855000D01*
G75*
G02*
X119980000Y-181605001I0J249999D01*
G01*
X119980000Y-180779999D01*
G75*
G02*
X120229999Y-180530000I249999J0D01*
G01*
X121530001Y-180530000D01*
G75*
G02*
X121780000Y-180779999I0J-249999D01*
G01*
X121780000Y-181605001D01*
G75*
G02*
X121530001Y-181855000I-249999J0D01*
G01*
G37*
G36*
G01*
X121530001Y-178730000D02*
X120229999Y-178730000D01*
G75*
G02*
X119980000Y-178480001I0J249999D01*
G01*
X119980000Y-177654999D01*
G75*
G02*
X120229999Y-177405000I249999J0D01*
G01*
X121530001Y-177405000D01*
G75*
G02*
X121780000Y-177654999I0J-249999D01*
G01*
X121780000Y-178480001D01*
G75*
G02*
X121530001Y-178730000I-249999J0D01*
G01*
G37*
%TD*%
%TO.C,C21*%
G36*
G01*
X109760001Y-168110000D02*
X108459999Y-168110000D01*
G75*
G02*
X108210000Y-167860001I0J249999D01*
G01*
X108210000Y-167034999D01*
G75*
G02*
X108459999Y-166785000I249999J0D01*
G01*
X109760001Y-166785000D01*
G75*
G02*
X110010000Y-167034999I0J-249999D01*
G01*
X110010000Y-167860001D01*
G75*
G02*
X109760001Y-168110000I-249999J0D01*
G01*
G37*
G36*
G01*
X109760001Y-171235000D02*
X108459999Y-171235000D01*
G75*
G02*
X108210000Y-170985001I0J249999D01*
G01*
X108210000Y-170159999D01*
G75*
G02*
X108459999Y-169910000I249999J0D01*
G01*
X109760001Y-169910000D01*
G75*
G02*
X110010000Y-170159999I0J-249999D01*
G01*
X110010000Y-170985001D01*
G75*
G02*
X109760001Y-171235000I-249999J0D01*
G01*
G37*
%TD*%
%TO.C,C22*%
G36*
G01*
X100526667Y-168110000D02*
X99226665Y-168110000D01*
G75*
G02*
X98976666Y-167860001I0J249999D01*
G01*
X98976666Y-167034999D01*
G75*
G02*
X99226665Y-166785000I249999J0D01*
G01*
X100526667Y-166785000D01*
G75*
G02*
X100776666Y-167034999I0J-249999D01*
G01*
X100776666Y-167860001D01*
G75*
G02*
X100526667Y-168110000I-249999J0D01*
G01*
G37*
G36*
G01*
X100526667Y-171235000D02*
X99226665Y-171235000D01*
G75*
G02*
X98976666Y-170985001I0J249999D01*
G01*
X98976666Y-170159999D01*
G75*
G02*
X99226665Y-169910000I249999J0D01*
G01*
X100526667Y-169910000D01*
G75*
G02*
X100776666Y-170159999I0J-249999D01*
G01*
X100776666Y-170985001D01*
G75*
G02*
X100526667Y-171235000I-249999J0D01*
G01*
G37*
%TD*%
%TO.C,C23*%
G36*
G01*
X118822857Y-171235000D02*
X117522855Y-171235000D01*
G75*
G02*
X117272856Y-170985001I0J249999D01*
G01*
X117272856Y-170159999D01*
G75*
G02*
X117522855Y-169910000I249999J0D01*
G01*
X118822857Y-169910000D01*
G75*
G02*
X119072856Y-170159999I0J-249999D01*
G01*
X119072856Y-170985001D01*
G75*
G02*
X118822857Y-171235000I-249999J0D01*
G01*
G37*
G36*
G01*
X118822857Y-168110000D02*
X117522855Y-168110000D01*
G75*
G02*
X117272856Y-167860001I0J249999D01*
G01*
X117272856Y-167034999D01*
G75*
G02*
X117522855Y-166785000I249999J0D01*
G01*
X118822857Y-166785000D01*
G75*
G02*
X119072856Y-167034999I0J-249999D01*
G01*
X119072856Y-167860001D01*
G75*
G02*
X118822857Y-168110000I-249999J0D01*
G01*
G37*
%TD*%
%TO.C,C24*%
G36*
G01*
X127852857Y-171235000D02*
X126552855Y-171235000D01*
G75*
G02*
X126302856Y-170985001I0J249999D01*
G01*
X126302856Y-170159999D01*
G75*
G02*
X126552855Y-169910000I249999J0D01*
G01*
X127852857Y-169910000D01*
G75*
G02*
X128102856Y-170159999I0J-249999D01*
G01*
X128102856Y-170985001D01*
G75*
G02*
X127852857Y-171235000I-249999J0D01*
G01*
G37*
G36*
G01*
X127852857Y-168110000D02*
X126552855Y-168110000D01*
G75*
G02*
X126302856Y-167860001I0J249999D01*
G01*
X126302856Y-167034999D01*
G75*
G02*
X126552855Y-166785000I249999J0D01*
G01*
X127852857Y-166785000D01*
G75*
G02*
X128102856Y-167034999I0J-249999D01*
G01*
X128102856Y-167860001D01*
G75*
G02*
X127852857Y-168110000I-249999J0D01*
G01*
G37*
%TD*%
D10*
%TO.C,H1*%
X155320000Y-100190000D03*
%TD*%
%TO.C,H2*%
X65320000Y-190190000D03*
%TD*%
%TO.C,H3*%
X65320000Y-100190000D03*
%TD*%
%TO.C,H4*%
X155320000Y-190190000D03*
%TD*%
D11*
%TO.C,1*%
X83665000Y-100215000D03*
D12*
X86205000Y-100215000D03*
X88745000Y-100215000D03*
X91285000Y-100215000D03*
X93825000Y-100215000D03*
X96365000Y-100215000D03*
X98905000Y-100215000D03*
X101445000Y-100215000D03*
X103985000Y-100215000D03*
X106525000Y-100215000D03*
X109065000Y-100215000D03*
X111605000Y-100215000D03*
X114145000Y-100215000D03*
X116685000Y-100215000D03*
X119225000Y-100215000D03*
X121765000Y-100215000D03*
X124305000Y-100215000D03*
X126845000Y-100215000D03*
X129385000Y-100215000D03*
X131925000Y-100215000D03*
X134465000Y-100215000D03*
X137005000Y-100215000D03*
%TD*%
%TO.C,44*%
X137005000Y-190215000D03*
X134465000Y-190215000D03*
X131925000Y-190215000D03*
X129385000Y-190215000D03*
X126845000Y-190215000D03*
X124305000Y-190215000D03*
X121765000Y-190215000D03*
X119225000Y-190215000D03*
X116685000Y-190215000D03*
X114145000Y-190215000D03*
X111605000Y-190215000D03*
X109065000Y-190215000D03*
X106525000Y-190215000D03*
X103985000Y-190215000D03*
X101445000Y-190215000D03*
X98905000Y-190215000D03*
X96365000Y-190215000D03*
X93825000Y-190215000D03*
X91285000Y-190215000D03*
X88745000Y-190215000D03*
X86205000Y-190215000D03*
D11*
X83665000Y-190215000D03*
%TD*%
D13*
%TO.C,K1*%
X79130001Y-141640001D03*
X83530001Y-141640001D03*
X87930001Y-141640001D03*
X92330001Y-141640001D03*
X79130001Y-136740001D03*
X83530001Y-136740001D03*
X87930001Y-136740001D03*
X92330001Y-136740001D03*
X79130001Y-131240001D03*
X83530001Y-131240001D03*
X87930001Y-131240001D03*
X92330001Y-131240001D03*
X79130001Y-124890001D03*
X92330001Y-124890001D03*
%TD*%
%TO.C,K3*%
X144350000Y-124890001D03*
X131150000Y-124890001D03*
X144350000Y-131240001D03*
X139950000Y-131240001D03*
X135550000Y-131240001D03*
X131150000Y-131240001D03*
X144350000Y-136740001D03*
X139950000Y-136740001D03*
X135550000Y-136740001D03*
X131150000Y-136740001D03*
X144350000Y-141640001D03*
X139950000Y-141640001D03*
X135550000Y-141640001D03*
X131150000Y-141640001D03*
%TD*%
%TO.C,K2*%
X105140000Y-141640001D03*
X109540000Y-141640001D03*
X113940000Y-141640001D03*
X118340000Y-141640001D03*
X105140000Y-136740001D03*
X109540000Y-136740001D03*
X113940000Y-136740001D03*
X118340000Y-136740001D03*
X105140000Y-131240001D03*
X109540000Y-131240001D03*
X113940000Y-131240001D03*
X118340000Y-131240001D03*
X105140000Y-124890001D03*
X118340000Y-124890001D03*
%TD*%
%TO.C,R1*%
G36*
G01*
X81916428Y-159840000D02*
X80666428Y-159840000D01*
G75*
G02*
X80416428Y-159590000I0J250000D01*
G01*
X80416428Y-158790000D01*
G75*
G02*
X80666428Y-158540000I250000J0D01*
G01*
X81916428Y-158540000D01*
G75*
G02*
X82166428Y-158790000I0J-250000D01*
G01*
X82166428Y-159590000D01*
G75*
G02*
X81916428Y-159840000I-250000J0D01*
G01*
G37*
G36*
G01*
X81916428Y-162940000D02*
X80666428Y-162940000D01*
G75*
G02*
X80416428Y-162690000I0J250000D01*
G01*
X80416428Y-161890000D01*
G75*
G02*
X80666428Y-161640000I250000J0D01*
G01*
X81916428Y-161640000D01*
G75*
G02*
X82166428Y-161890000I0J-250000D01*
G01*
X82166428Y-162690000D01*
G75*
G02*
X81916428Y-162940000I-250000J0D01*
G01*
G37*
%TD*%
%TO.C,R2*%
G36*
G01*
X76385000Y-159840000D02*
X75135000Y-159840000D01*
G75*
G02*
X74885000Y-159590000I0J250000D01*
G01*
X74885000Y-158790000D01*
G75*
G02*
X75135000Y-158540000I250000J0D01*
G01*
X76385000Y-158540000D01*
G75*
G02*
X76635000Y-158790000I0J-250000D01*
G01*
X76635000Y-159590000D01*
G75*
G02*
X76385000Y-159840000I-250000J0D01*
G01*
G37*
G36*
G01*
X76385000Y-162940000D02*
X75135000Y-162940000D01*
G75*
G02*
X74885000Y-162690000I0J250000D01*
G01*
X74885000Y-161890000D01*
G75*
G02*
X75135000Y-161640000I250000J0D01*
G01*
X76385000Y-161640000D01*
G75*
G02*
X76635000Y-161890000I0J-250000D01*
G01*
X76635000Y-162690000D01*
G75*
G02*
X76385000Y-162940000I-250000J0D01*
G01*
G37*
%TD*%
%TO.C,R3*%
G36*
G01*
X87447856Y-159840000D02*
X86197856Y-159840000D01*
G75*
G02*
X85947856Y-159590000I0J250000D01*
G01*
X85947856Y-158790000D01*
G75*
G02*
X86197856Y-158540000I250000J0D01*
G01*
X87447856Y-158540000D01*
G75*
G02*
X87697856Y-158790000I0J-250000D01*
G01*
X87697856Y-159590000D01*
G75*
G02*
X87447856Y-159840000I-250000J0D01*
G01*
G37*
G36*
G01*
X87447856Y-162940000D02*
X86197856Y-162940000D01*
G75*
G02*
X85947856Y-162690000I0J250000D01*
G01*
X85947856Y-161890000D01*
G75*
G02*
X86197856Y-161640000I250000J0D01*
G01*
X87447856Y-161640000D01*
G75*
G02*
X87697856Y-161890000I0J-250000D01*
G01*
X87697856Y-162690000D01*
G75*
G02*
X87447856Y-162940000I-250000J0D01*
G01*
G37*
%TD*%
%TO.C,R4*%
G36*
G01*
X92979284Y-162940000D02*
X91729284Y-162940000D01*
G75*
G02*
X91479284Y-162690000I0J250000D01*
G01*
X91479284Y-161890000D01*
G75*
G02*
X91729284Y-161640000I250000J0D01*
G01*
X92979284Y-161640000D01*
G75*
G02*
X93229284Y-161890000I0J-250000D01*
G01*
X93229284Y-162690000D01*
G75*
G02*
X92979284Y-162940000I-250000J0D01*
G01*
G37*
G36*
G01*
X92979284Y-159840000D02*
X91729284Y-159840000D01*
G75*
G02*
X91479284Y-159590000I0J250000D01*
G01*
X91479284Y-158790000D01*
G75*
G02*
X91729284Y-158540000I250000J0D01*
G01*
X92979284Y-158540000D01*
G75*
G02*
X93229284Y-158790000I0J-250000D01*
G01*
X93229284Y-159590000D01*
G75*
G02*
X92979284Y-159840000I-250000J0D01*
G01*
G37*
%TD*%
%TO.C,R5*%
G36*
G01*
X79588332Y-152940000D02*
X78338332Y-152940000D01*
G75*
G02*
X78088332Y-152690000I0J250000D01*
G01*
X78088332Y-151890000D01*
G75*
G02*
X78338332Y-151640000I250000J0D01*
G01*
X79588332Y-151640000D01*
G75*
G02*
X79838332Y-151890000I0J-250000D01*
G01*
X79838332Y-152690000D01*
G75*
G02*
X79588332Y-152940000I-250000J0D01*
G01*
G37*
G36*
G01*
X79588332Y-149840000D02*
X78338332Y-149840000D01*
G75*
G02*
X78088332Y-149590000I0J250000D01*
G01*
X78088332Y-148790000D01*
G75*
G02*
X78338332Y-148540000I250000J0D01*
G01*
X79588332Y-148540000D01*
G75*
G02*
X79838332Y-148790000I0J-250000D01*
G01*
X79838332Y-149590000D01*
G75*
G02*
X79588332Y-149840000I-250000J0D01*
G01*
G37*
%TD*%
%TO.C,R6*%
G36*
G01*
X70355000Y-149840000D02*
X69105000Y-149840000D01*
G75*
G02*
X68855000Y-149590000I0J250000D01*
G01*
X68855000Y-148790000D01*
G75*
G02*
X69105000Y-148540000I250000J0D01*
G01*
X70355000Y-148540000D01*
G75*
G02*
X70605000Y-148790000I0J-250000D01*
G01*
X70605000Y-149590000D01*
G75*
G02*
X70355000Y-149840000I-250000J0D01*
G01*
G37*
G36*
G01*
X70355000Y-152940000D02*
X69105000Y-152940000D01*
G75*
G02*
X68855000Y-152690000I0J250000D01*
G01*
X68855000Y-151890000D01*
G75*
G02*
X69105000Y-151640000I250000J0D01*
G01*
X70355000Y-151640000D01*
G75*
G02*
X70605000Y-151890000I0J-250000D01*
G01*
X70605000Y-152690000D01*
G75*
G02*
X70355000Y-152940000I-250000J0D01*
G01*
G37*
%TD*%
%TO.C,R7*%
G36*
G01*
X88736428Y-149840000D02*
X87486428Y-149840000D01*
G75*
G02*
X87236428Y-149590000I0J250000D01*
G01*
X87236428Y-148790000D01*
G75*
G02*
X87486428Y-148540000I250000J0D01*
G01*
X88736428Y-148540000D01*
G75*
G02*
X88986428Y-148790000I0J-250000D01*
G01*
X88986428Y-149590000D01*
G75*
G02*
X88736428Y-149840000I-250000J0D01*
G01*
G37*
G36*
G01*
X88736428Y-152940000D02*
X87486428Y-152940000D01*
G75*
G02*
X87236428Y-152690000I0J250000D01*
G01*
X87236428Y-151890000D01*
G75*
G02*
X87486428Y-151640000I250000J0D01*
G01*
X88736428Y-151640000D01*
G75*
G02*
X88986428Y-151890000I0J-250000D01*
G01*
X88986428Y-152690000D01*
G75*
G02*
X88736428Y-152940000I-250000J0D01*
G01*
G37*
%TD*%
%TO.C,R8*%
G36*
G01*
X97799284Y-152940000D02*
X96549284Y-152940000D01*
G75*
G02*
X96299284Y-152690000I0J250000D01*
G01*
X96299284Y-151890000D01*
G75*
G02*
X96549284Y-151640000I250000J0D01*
G01*
X97799284Y-151640000D01*
G75*
G02*
X98049284Y-151890000I0J-250000D01*
G01*
X98049284Y-152690000D01*
G75*
G02*
X97799284Y-152940000I-250000J0D01*
G01*
G37*
G36*
G01*
X97799284Y-149840000D02*
X96549284Y-149840000D01*
G75*
G02*
X96299284Y-149590000I0J250000D01*
G01*
X96299284Y-148790000D01*
G75*
G02*
X96549284Y-148540000I250000J0D01*
G01*
X97799284Y-148540000D01*
G75*
G02*
X98049284Y-148790000I0J-250000D01*
G01*
X98049284Y-149590000D01*
G75*
G02*
X97799284Y-149840000I-250000J0D01*
G01*
G37*
%TD*%
%TO.C,R9*%
G36*
G01*
X133976428Y-162940000D02*
X132726428Y-162940000D01*
G75*
G02*
X132476428Y-162690000I0J250000D01*
G01*
X132476428Y-161890000D01*
G75*
G02*
X132726428Y-161640000I250000J0D01*
G01*
X133976428Y-161640000D01*
G75*
G02*
X134226428Y-161890000I0J-250000D01*
G01*
X134226428Y-162690000D01*
G75*
G02*
X133976428Y-162940000I-250000J0D01*
G01*
G37*
G36*
G01*
X133976428Y-159840000D02*
X132726428Y-159840000D01*
G75*
G02*
X132476428Y-159590000I0J250000D01*
G01*
X132476428Y-158790000D01*
G75*
G02*
X132726428Y-158540000I250000J0D01*
G01*
X133976428Y-158540000D01*
G75*
G02*
X134226428Y-158790000I0J-250000D01*
G01*
X134226428Y-159590000D01*
G75*
G02*
X133976428Y-159840000I-250000J0D01*
G01*
G37*
%TD*%
%TO.C,R10*%
G36*
G01*
X128405000Y-159840000D02*
X127155000Y-159840000D01*
G75*
G02*
X126905000Y-159590000I0J250000D01*
G01*
X126905000Y-158790000D01*
G75*
G02*
X127155000Y-158540000I250000J0D01*
G01*
X128405000Y-158540000D01*
G75*
G02*
X128655000Y-158790000I0J-250000D01*
G01*
X128655000Y-159590000D01*
G75*
G02*
X128405000Y-159840000I-250000J0D01*
G01*
G37*
G36*
G01*
X128405000Y-162940000D02*
X127155000Y-162940000D01*
G75*
G02*
X126905000Y-162690000I0J250000D01*
G01*
X126905000Y-161890000D01*
G75*
G02*
X127155000Y-161640000I250000J0D01*
G01*
X128405000Y-161640000D01*
G75*
G02*
X128655000Y-161890000I0J-250000D01*
G01*
X128655000Y-162690000D01*
G75*
G02*
X128405000Y-162940000I-250000J0D01*
G01*
G37*
%TD*%
%TO.C,R11*%
G36*
G01*
X139507856Y-162940000D02*
X138257856Y-162940000D01*
G75*
G02*
X138007856Y-162690000I0J250000D01*
G01*
X138007856Y-161890000D01*
G75*
G02*
X138257856Y-161640000I250000J0D01*
G01*
X139507856Y-161640000D01*
G75*
G02*
X139757856Y-161890000I0J-250000D01*
G01*
X139757856Y-162690000D01*
G75*
G02*
X139507856Y-162940000I-250000J0D01*
G01*
G37*
G36*
G01*
X139507856Y-159840000D02*
X138257856Y-159840000D01*
G75*
G02*
X138007856Y-159590000I0J250000D01*
G01*
X138007856Y-158790000D01*
G75*
G02*
X138257856Y-158540000I250000J0D01*
G01*
X139507856Y-158540000D01*
G75*
G02*
X139757856Y-158790000I0J-250000D01*
G01*
X139757856Y-159590000D01*
G75*
G02*
X139507856Y-159840000I-250000J0D01*
G01*
G37*
%TD*%
%TO.C,R12*%
G36*
G01*
X145039284Y-162940000D02*
X143789284Y-162940000D01*
G75*
G02*
X143539284Y-162690000I0J250000D01*
G01*
X143539284Y-161890000D01*
G75*
G02*
X143789284Y-161640000I250000J0D01*
G01*
X145039284Y-161640000D01*
G75*
G02*
X145289284Y-161890000I0J-250000D01*
G01*
X145289284Y-162690000D01*
G75*
G02*
X145039284Y-162940000I-250000J0D01*
G01*
G37*
G36*
G01*
X145039284Y-159840000D02*
X143789284Y-159840000D01*
G75*
G02*
X143539284Y-159590000I0J250000D01*
G01*
X143539284Y-158790000D01*
G75*
G02*
X143789284Y-158540000I250000J0D01*
G01*
X145039284Y-158540000D01*
G75*
G02*
X145289284Y-158790000I0J-250000D01*
G01*
X145289284Y-159590000D01*
G75*
G02*
X145039284Y-159840000I-250000J0D01*
G01*
G37*
%TD*%
%TO.C,R13*%
G36*
G01*
X131728332Y-152940000D02*
X130478332Y-152940000D01*
G75*
G02*
X130228332Y-152690000I0J250000D01*
G01*
X130228332Y-151890000D01*
G75*
G02*
X130478332Y-151640000I250000J0D01*
G01*
X131728332Y-151640000D01*
G75*
G02*
X131978332Y-151890000I0J-250000D01*
G01*
X131978332Y-152690000D01*
G75*
G02*
X131728332Y-152940000I-250000J0D01*
G01*
G37*
G36*
G01*
X131728332Y-149840000D02*
X130478332Y-149840000D01*
G75*
G02*
X130228332Y-149590000I0J250000D01*
G01*
X130228332Y-148790000D01*
G75*
G02*
X130478332Y-148540000I250000J0D01*
G01*
X131728332Y-148540000D01*
G75*
G02*
X131978332Y-148790000I0J-250000D01*
G01*
X131978332Y-149590000D01*
G75*
G02*
X131728332Y-149840000I-250000J0D01*
G01*
G37*
%TD*%
%TO.C,R14*%
G36*
G01*
X122495000Y-149840000D02*
X121245000Y-149840000D01*
G75*
G02*
X120995000Y-149590000I0J250000D01*
G01*
X120995000Y-148790000D01*
G75*
G02*
X121245000Y-148540000I250000J0D01*
G01*
X122495000Y-148540000D01*
G75*
G02*
X122745000Y-148790000I0J-250000D01*
G01*
X122745000Y-149590000D01*
G75*
G02*
X122495000Y-149840000I-250000J0D01*
G01*
G37*
G36*
G01*
X122495000Y-152940000D02*
X121245000Y-152940000D01*
G75*
G02*
X120995000Y-152690000I0J250000D01*
G01*
X120995000Y-151890000D01*
G75*
G02*
X121245000Y-151640000I250000J0D01*
G01*
X122495000Y-151640000D01*
G75*
G02*
X122745000Y-151890000I0J-250000D01*
G01*
X122745000Y-152690000D01*
G75*
G02*
X122495000Y-152940000I-250000J0D01*
G01*
G37*
%TD*%
%TO.C,R15*%
G36*
G01*
X140876428Y-152940000D02*
X139626428Y-152940000D01*
G75*
G02*
X139376428Y-152690000I0J250000D01*
G01*
X139376428Y-151890000D01*
G75*
G02*
X139626428Y-151640000I250000J0D01*
G01*
X140876428Y-151640000D01*
G75*
G02*
X141126428Y-151890000I0J-250000D01*
G01*
X141126428Y-152690000D01*
G75*
G02*
X140876428Y-152940000I-250000J0D01*
G01*
G37*
G36*
G01*
X140876428Y-149840000D02*
X139626428Y-149840000D01*
G75*
G02*
X139376428Y-149590000I0J250000D01*
G01*
X139376428Y-148790000D01*
G75*
G02*
X139626428Y-148540000I250000J0D01*
G01*
X140876428Y-148540000D01*
G75*
G02*
X141126428Y-148790000I0J-250000D01*
G01*
X141126428Y-149590000D01*
G75*
G02*
X140876428Y-149840000I-250000J0D01*
G01*
G37*
%TD*%
%TO.C,R16*%
G36*
G01*
X149939284Y-149840000D02*
X148689284Y-149840000D01*
G75*
G02*
X148439284Y-149590000I0J250000D01*
G01*
X148439284Y-148790000D01*
G75*
G02*
X148689284Y-148540000I250000J0D01*
G01*
X149939284Y-148540000D01*
G75*
G02*
X150189284Y-148790000I0J-250000D01*
G01*
X150189284Y-149590000D01*
G75*
G02*
X149939284Y-149840000I-250000J0D01*
G01*
G37*
G36*
G01*
X149939284Y-152940000D02*
X148689284Y-152940000D01*
G75*
G02*
X148439284Y-152690000I0J250000D01*
G01*
X148439284Y-151890000D01*
G75*
G02*
X148689284Y-151640000I250000J0D01*
G01*
X149939284Y-151640000D01*
G75*
G02*
X150189284Y-151890000I0J-250000D01*
G01*
X150189284Y-152690000D01*
G75*
G02*
X149939284Y-152940000I-250000J0D01*
G01*
G37*
%TD*%
%TO.C,R17*%
G36*
G01*
X107676428Y-181830000D02*
X106426428Y-181830000D01*
G75*
G02*
X106176428Y-181580000I0J250000D01*
G01*
X106176428Y-180780000D01*
G75*
G02*
X106426428Y-180530000I250000J0D01*
G01*
X107676428Y-180530000D01*
G75*
G02*
X107926428Y-180780000I0J-250000D01*
G01*
X107926428Y-181580000D01*
G75*
G02*
X107676428Y-181830000I-250000J0D01*
G01*
G37*
G36*
G01*
X107676428Y-178730000D02*
X106426428Y-178730000D01*
G75*
G02*
X106176428Y-178480000I0J250000D01*
G01*
X106176428Y-177680000D01*
G75*
G02*
X106426428Y-177430000I250000J0D01*
G01*
X107676428Y-177430000D01*
G75*
G02*
X107926428Y-177680000I0J-250000D01*
G01*
X107926428Y-178480000D01*
G75*
G02*
X107676428Y-178730000I-250000J0D01*
G01*
G37*
%TD*%
%TO.C,R18*%
G36*
G01*
X102145000Y-178730000D02*
X100895000Y-178730000D01*
G75*
G02*
X100645000Y-178480000I0J250000D01*
G01*
X100645000Y-177680000D01*
G75*
G02*
X100895000Y-177430000I250000J0D01*
G01*
X102145000Y-177430000D01*
G75*
G02*
X102395000Y-177680000I0J-250000D01*
G01*
X102395000Y-178480000D01*
G75*
G02*
X102145000Y-178730000I-250000J0D01*
G01*
G37*
G36*
G01*
X102145000Y-181830000D02*
X100895000Y-181830000D01*
G75*
G02*
X100645000Y-181580000I0J250000D01*
G01*
X100645000Y-180780000D01*
G75*
G02*
X100895000Y-180530000I250000J0D01*
G01*
X102145000Y-180530000D01*
G75*
G02*
X102395000Y-180780000I0J-250000D01*
G01*
X102395000Y-181580000D01*
G75*
G02*
X102145000Y-181830000I-250000J0D01*
G01*
G37*
%TD*%
%TO.C,R19*%
G36*
G01*
X113207856Y-181830000D02*
X111957856Y-181830000D01*
G75*
G02*
X111707856Y-181580000I0J250000D01*
G01*
X111707856Y-180780000D01*
G75*
G02*
X111957856Y-180530000I250000J0D01*
G01*
X113207856Y-180530000D01*
G75*
G02*
X113457856Y-180780000I0J-250000D01*
G01*
X113457856Y-181580000D01*
G75*
G02*
X113207856Y-181830000I-250000J0D01*
G01*
G37*
G36*
G01*
X113207856Y-178730000D02*
X111957856Y-178730000D01*
G75*
G02*
X111707856Y-178480000I0J250000D01*
G01*
X111707856Y-177680000D01*
G75*
G02*
X111957856Y-177430000I250000J0D01*
G01*
X113207856Y-177430000D01*
G75*
G02*
X113457856Y-177680000I0J-250000D01*
G01*
X113457856Y-178480000D01*
G75*
G02*
X113207856Y-178730000I-250000J0D01*
G01*
G37*
%TD*%
%TO.C,R20*%
G36*
G01*
X118739284Y-178730000D02*
X117489284Y-178730000D01*
G75*
G02*
X117239284Y-178480000I0J250000D01*
G01*
X117239284Y-177680000D01*
G75*
G02*
X117489284Y-177430000I250000J0D01*
G01*
X118739284Y-177430000D01*
G75*
G02*
X118989284Y-177680000I0J-250000D01*
G01*
X118989284Y-178480000D01*
G75*
G02*
X118739284Y-178730000I-250000J0D01*
G01*
G37*
G36*
G01*
X118739284Y-181830000D02*
X117489284Y-181830000D01*
G75*
G02*
X117239284Y-181580000I0J250000D01*
G01*
X117239284Y-180780000D01*
G75*
G02*
X117489284Y-180530000I250000J0D01*
G01*
X118739284Y-180530000D01*
G75*
G02*
X118989284Y-180780000I0J-250000D01*
G01*
X118989284Y-181580000D01*
G75*
G02*
X118739284Y-181830000I-250000J0D01*
G01*
G37*
%TD*%
%TO.C,R21*%
G36*
G01*
X105118332Y-171210000D02*
X103868332Y-171210000D01*
G75*
G02*
X103618332Y-170960000I0J250000D01*
G01*
X103618332Y-170160000D01*
G75*
G02*
X103868332Y-169910000I250000J0D01*
G01*
X105118332Y-169910000D01*
G75*
G02*
X105368332Y-170160000I0J-250000D01*
G01*
X105368332Y-170960000D01*
G75*
G02*
X105118332Y-171210000I-250000J0D01*
G01*
G37*
G36*
G01*
X105118332Y-168110000D02*
X103868332Y-168110000D01*
G75*
G02*
X103618332Y-167860000I0J250000D01*
G01*
X103618332Y-167060000D01*
G75*
G02*
X103868332Y-166810000I250000J0D01*
G01*
X105118332Y-166810000D01*
G75*
G02*
X105368332Y-167060000I0J-250000D01*
G01*
X105368332Y-167860000D01*
G75*
G02*
X105118332Y-168110000I-250000J0D01*
G01*
G37*
%TD*%
%TO.C,R22*%
G36*
G01*
X95885000Y-171210000D02*
X94635000Y-171210000D01*
G75*
G02*
X94385000Y-170960000I0J250000D01*
G01*
X94385000Y-170160000D01*
G75*
G02*
X94635000Y-169910000I250000J0D01*
G01*
X95885000Y-169910000D01*
G75*
G02*
X96135000Y-170160000I0J-250000D01*
G01*
X96135000Y-170960000D01*
G75*
G02*
X95885000Y-171210000I-250000J0D01*
G01*
G37*
G36*
G01*
X95885000Y-168110000D02*
X94635000Y-168110000D01*
G75*
G02*
X94385000Y-167860000I0J250000D01*
G01*
X94385000Y-167060000D01*
G75*
G02*
X94635000Y-166810000I250000J0D01*
G01*
X95885000Y-166810000D01*
G75*
G02*
X96135000Y-167060000I0J-250000D01*
G01*
X96135000Y-167860000D01*
G75*
G02*
X95885000Y-168110000I-250000J0D01*
G01*
G37*
%TD*%
%TO.C,R23*%
G36*
G01*
X114266428Y-168110000D02*
X113016428Y-168110000D01*
G75*
G02*
X112766428Y-167860000I0J250000D01*
G01*
X112766428Y-167060000D01*
G75*
G02*
X113016428Y-166810000I250000J0D01*
G01*
X114266428Y-166810000D01*
G75*
G02*
X114516428Y-167060000I0J-250000D01*
G01*
X114516428Y-167860000D01*
G75*
G02*
X114266428Y-168110000I-250000J0D01*
G01*
G37*
G36*
G01*
X114266428Y-171210000D02*
X113016428Y-171210000D01*
G75*
G02*
X112766428Y-170960000I0J250000D01*
G01*
X112766428Y-170160000D01*
G75*
G02*
X113016428Y-169910000I250000J0D01*
G01*
X114266428Y-169910000D01*
G75*
G02*
X114516428Y-170160000I0J-250000D01*
G01*
X114516428Y-170960000D01*
G75*
G02*
X114266428Y-171210000I-250000J0D01*
G01*
G37*
%TD*%
%TO.C,R24*%
G36*
G01*
X123329284Y-168110000D02*
X122079284Y-168110000D01*
G75*
G02*
X121829284Y-167860000I0J250000D01*
G01*
X121829284Y-167060000D01*
G75*
G02*
X122079284Y-166810000I250000J0D01*
G01*
X123329284Y-166810000D01*
G75*
G02*
X123579284Y-167060000I0J-250000D01*
G01*
X123579284Y-167860000D01*
G75*
G02*
X123329284Y-168110000I-250000J0D01*
G01*
G37*
G36*
G01*
X123329284Y-171210000D02*
X122079284Y-171210000D01*
G75*
G02*
X121829284Y-170960000I0J250000D01*
G01*
X121829284Y-170160000D01*
G75*
G02*
X122079284Y-169910000I250000J0D01*
G01*
X123329284Y-169910000D01*
G75*
G02*
X123579284Y-170160000I0J-250000D01*
G01*
X123579284Y-170960000D01*
G75*
G02*
X123329284Y-171210000I-250000J0D01*
G01*
G37*
%TD*%
M02*
