%TF.GenerationSoftware,KiCad,Pcbnew,(5.1.9)-1*%
%TF.CreationDate,2021-11-07T00:19:35+01:00*%
%TF.ProjectId,RelayBoard,52656c61-7942-46f6-9172-642e6b696361,Version 1 *%
%TF.SameCoordinates,Original*%
%TF.FileFunction,Legend,Bot*%
%TF.FilePolarity,Positive*%
%FSLAX46Y46*%
G04 Gerber Fmt 4.6, Leading zero omitted, Abs format (unit mm)*
G04 Created by KiCad (PCBNEW (5.1.9)-1) date 2021-11-07 00:19:35*
%MOMM*%
%LPD*%
G01*
G04 APERTURE LIST*
%ADD10C,0.150000*%
%ADD11C,0.010000*%
%ADD12C,0.120000*%
G04 APERTURE END LIST*
D10*
X143403333Y-186312380D02*
X143403333Y-185312380D01*
X143069999Y-185645714D02*
X142689047Y-185645714D01*
X142927142Y-186312380D02*
X142927142Y-185455238D01*
X142879523Y-185360000D01*
X142784285Y-185312380D01*
X142689047Y-185312380D01*
X141689047Y-185645714D02*
X141450952Y-186312380D01*
X141212857Y-185645714D02*
X141450952Y-186312380D01*
X141546190Y-186550476D01*
X141593809Y-186598095D01*
X141689047Y-186645714D01*
X140689047Y-186312380D02*
X140784285Y-186264761D01*
X140831904Y-186217142D01*
X140879523Y-186121904D01*
X140879523Y-185836190D01*
X140831904Y-185740952D01*
X140784285Y-185693333D01*
X140689047Y-185645714D01*
X140546190Y-185645714D01*
X140450952Y-185693333D01*
X140403333Y-185740952D01*
X140355714Y-185836190D01*
X140355714Y-186121904D01*
X140403333Y-186217142D01*
X140450952Y-186264761D01*
X140546190Y-186312380D01*
X140689047Y-186312380D01*
X139498571Y-185645714D02*
X139498571Y-186312380D01*
X139927142Y-185645714D02*
X139927142Y-186169523D01*
X139879523Y-186264761D01*
X139784285Y-186312380D01*
X139641428Y-186312380D01*
X139546190Y-186264761D01*
X139498571Y-186217142D01*
X138974761Y-185312380D02*
X139069999Y-185502857D01*
X138546190Y-186312380D02*
X138546190Y-185645714D01*
X138546190Y-185836190D02*
X138498571Y-185740952D01*
X138450952Y-185693333D01*
X138355714Y-185645714D01*
X138260476Y-185645714D01*
X137546190Y-186264761D02*
X137641428Y-186312380D01*
X137831904Y-186312380D01*
X137927142Y-186264761D01*
X137974761Y-186169523D01*
X137974761Y-185788571D01*
X137927142Y-185693333D01*
X137831904Y-185645714D01*
X137641428Y-185645714D01*
X137546190Y-185693333D01*
X137498571Y-185788571D01*
X137498571Y-185883809D01*
X137974761Y-185979047D01*
X136308095Y-186312380D02*
X136308095Y-185312380D01*
X136308095Y-185693333D02*
X136212857Y-185645714D01*
X136022380Y-185645714D01*
X135927142Y-185693333D01*
X135879523Y-185740952D01*
X135831904Y-185836190D01*
X135831904Y-186121904D01*
X135879523Y-186217142D01*
X135927142Y-186264761D01*
X136022380Y-186312380D01*
X136212857Y-186312380D01*
X136308095Y-186264761D01*
X134974761Y-186312380D02*
X134974761Y-185788571D01*
X135022380Y-185693333D01*
X135117619Y-185645714D01*
X135308095Y-185645714D01*
X135403333Y-185693333D01*
X134974761Y-186264761D02*
X135069999Y-186312380D01*
X135308095Y-186312380D01*
X135403333Y-186264761D01*
X135450952Y-186169523D01*
X135450952Y-186074285D01*
X135403333Y-185979047D01*
X135308095Y-185931428D01*
X135069999Y-185931428D01*
X134974761Y-185883809D01*
X134069999Y-186264761D02*
X134165238Y-186312380D01*
X134355714Y-186312380D01*
X134450952Y-186264761D01*
X134498571Y-186217142D01*
X134546190Y-186121904D01*
X134546190Y-185836190D01*
X134498571Y-185740952D01*
X134450952Y-185693333D01*
X134355714Y-185645714D01*
X134165238Y-185645714D01*
X134069999Y-185693333D01*
X133641428Y-186312380D02*
X133641428Y-185312380D01*
X133546190Y-185931428D02*
X133260476Y-186312380D01*
X133260476Y-185645714D02*
X133641428Y-186026666D01*
X132069999Y-186312380D02*
X132069999Y-185312380D01*
X131641428Y-186312380D02*
X131641428Y-185788571D01*
X131689047Y-185693333D01*
X131784285Y-185645714D01*
X131927142Y-185645714D01*
X132022380Y-185693333D01*
X132069999Y-185740952D01*
X130784285Y-186264761D02*
X130879523Y-186312380D01*
X131069999Y-186312380D01*
X131165238Y-186264761D01*
X131212857Y-186169523D01*
X131212857Y-185788571D01*
X131165238Y-185693333D01*
X131069999Y-185645714D01*
X130879523Y-185645714D01*
X130784285Y-185693333D01*
X130736666Y-185788571D01*
X130736666Y-185883809D01*
X131212857Y-185979047D01*
X130308095Y-186312380D02*
X130308095Y-185645714D01*
X130308095Y-185836190D02*
X130260476Y-185740952D01*
X130212857Y-185693333D01*
X130117619Y-185645714D01*
X130022380Y-185645714D01*
X129308095Y-186264761D02*
X129403333Y-186312380D01*
X129593809Y-186312380D01*
X129689047Y-186264761D01*
X129736666Y-186169523D01*
X129736666Y-185788571D01*
X129689047Y-185693333D01*
X129593809Y-185645714D01*
X129403333Y-185645714D01*
X129308095Y-185693333D01*
X129260476Y-185788571D01*
X129260476Y-185883809D01*
X129736666Y-185979047D01*
X128212857Y-185645714D02*
X127831904Y-185645714D01*
X128069999Y-186312380D02*
X128069999Y-185455238D01*
X128022380Y-185360000D01*
X127927142Y-185312380D01*
X127831904Y-185312380D01*
X127355714Y-186312380D02*
X127450952Y-186264761D01*
X127498571Y-186217142D01*
X127546190Y-186121904D01*
X127546190Y-185836190D01*
X127498571Y-185740952D01*
X127450952Y-185693333D01*
X127355714Y-185645714D01*
X127212857Y-185645714D01*
X127117619Y-185693333D01*
X127069999Y-185740952D01*
X127022380Y-185836190D01*
X127022380Y-186121904D01*
X127069999Y-186217142D01*
X127117619Y-186264761D01*
X127212857Y-186312380D01*
X127355714Y-186312380D01*
X126593809Y-186312380D02*
X126593809Y-185645714D01*
X126593809Y-185836190D02*
X126546190Y-185740952D01*
X126498571Y-185693333D01*
X126403333Y-185645714D01*
X126308095Y-185645714D01*
X125260476Y-186264761D02*
X125165238Y-186312380D01*
X124974761Y-186312380D01*
X124879523Y-186264761D01*
X124831904Y-186169523D01*
X124831904Y-186121904D01*
X124879523Y-186026666D01*
X124974761Y-185979047D01*
X125117619Y-185979047D01*
X125212857Y-185931428D01*
X125260476Y-185836190D01*
X125260476Y-185788571D01*
X125212857Y-185693333D01*
X125117619Y-185645714D01*
X124974761Y-185645714D01*
X124879523Y-185693333D01*
X124260476Y-186312380D02*
X124355714Y-186264761D01*
X124403333Y-186217142D01*
X124450952Y-186121904D01*
X124450952Y-185836190D01*
X124403333Y-185740952D01*
X124355714Y-185693333D01*
X124260476Y-185645714D01*
X124117619Y-185645714D01*
X124022380Y-185693333D01*
X123974761Y-185740952D01*
X123927142Y-185836190D01*
X123927142Y-186121904D01*
X123974761Y-186217142D01*
X124022380Y-186264761D01*
X124117619Y-186312380D01*
X124260476Y-186312380D01*
X123498571Y-186312380D02*
X123498571Y-185645714D01*
X123498571Y-185740952D02*
X123450952Y-185693333D01*
X123355714Y-185645714D01*
X123212857Y-185645714D01*
X123117619Y-185693333D01*
X123069999Y-185788571D01*
X123069999Y-186312380D01*
X123069999Y-185788571D02*
X123022380Y-185693333D01*
X122927142Y-185645714D01*
X122784285Y-185645714D01*
X122689047Y-185693333D01*
X122641428Y-185788571D01*
X122641428Y-186312380D01*
X121784285Y-186264761D02*
X121879523Y-186312380D01*
X122069999Y-186312380D01*
X122165238Y-186264761D01*
X122212857Y-186169523D01*
X122212857Y-185788571D01*
X122165238Y-185693333D01*
X122069999Y-185645714D01*
X121879523Y-185645714D01*
X121784285Y-185693333D01*
X121736666Y-185788571D01*
X121736666Y-185883809D01*
X122212857Y-185979047D01*
X120546190Y-186312380D02*
X120546190Y-185645714D01*
X120546190Y-185836190D02*
X120498571Y-185740952D01*
X120450952Y-185693333D01*
X120355714Y-185645714D01*
X120260476Y-185645714D01*
X119546190Y-186264761D02*
X119641428Y-186312380D01*
X119831904Y-186312380D01*
X119927142Y-186264761D01*
X119974761Y-186169523D01*
X119974761Y-185788571D01*
X119927142Y-185693333D01*
X119831904Y-185645714D01*
X119641428Y-185645714D01*
X119546190Y-185693333D01*
X119498571Y-185788571D01*
X119498571Y-185883809D01*
X119974761Y-185979047D01*
X118641428Y-186312380D02*
X118641428Y-185788571D01*
X118689047Y-185693333D01*
X118784285Y-185645714D01*
X118974761Y-185645714D01*
X119069999Y-185693333D01*
X118641428Y-186264761D02*
X118736666Y-186312380D01*
X118974761Y-186312380D01*
X119069999Y-186264761D01*
X119117619Y-186169523D01*
X119117619Y-186074285D01*
X119069999Y-185979047D01*
X118974761Y-185931428D01*
X118736666Y-185931428D01*
X118641428Y-185883809D01*
X118212857Y-186264761D02*
X118117619Y-186312380D01*
X117927142Y-186312380D01*
X117831904Y-186264761D01*
X117784285Y-186169523D01*
X117784285Y-186121904D01*
X117831904Y-186026666D01*
X117927142Y-185979047D01*
X118069999Y-185979047D01*
X118165238Y-185931428D01*
X118212857Y-185836190D01*
X118212857Y-185788571D01*
X118165238Y-185693333D01*
X118069999Y-185645714D01*
X117927142Y-185645714D01*
X117831904Y-185693333D01*
X117212857Y-186312380D02*
X117308095Y-186264761D01*
X117355714Y-186217142D01*
X117403333Y-186121904D01*
X117403333Y-185836190D01*
X117355714Y-185740952D01*
X117308095Y-185693333D01*
X117212857Y-185645714D01*
X117069999Y-185645714D01*
X116974761Y-185693333D01*
X116927142Y-185740952D01*
X116879523Y-185836190D01*
X116879523Y-186121904D01*
X116927142Y-186217142D01*
X116974761Y-186264761D01*
X117069999Y-186312380D01*
X117212857Y-186312380D01*
X116450952Y-185645714D02*
X116450952Y-186312380D01*
X116450952Y-185740952D02*
X116403333Y-185693333D01*
X116308095Y-185645714D01*
X116165238Y-185645714D01*
X116069999Y-185693333D01*
X116022380Y-185788571D01*
X116022380Y-186312380D01*
X115498571Y-186264761D02*
X115498571Y-186312380D01*
X115546190Y-186407619D01*
X115593809Y-186455238D01*
X114308095Y-185645714D02*
X114308095Y-186645714D01*
X114308095Y-185693333D02*
X114212857Y-185645714D01*
X114022380Y-185645714D01*
X113927142Y-185693333D01*
X113879523Y-185740952D01*
X113831904Y-185836190D01*
X113831904Y-186121904D01*
X113879523Y-186217142D01*
X113927142Y-186264761D01*
X114022380Y-186312380D01*
X114212857Y-186312380D01*
X114308095Y-186264761D01*
X113260476Y-186312380D02*
X113355714Y-186264761D01*
X113403333Y-186169523D01*
X113403333Y-185312380D01*
X112498571Y-186264761D02*
X112593809Y-186312380D01*
X112784285Y-186312380D01*
X112879523Y-186264761D01*
X112927142Y-186169523D01*
X112927142Y-185788571D01*
X112879523Y-185693333D01*
X112784285Y-185645714D01*
X112593809Y-185645714D01*
X112498571Y-185693333D01*
X112450952Y-185788571D01*
X112450952Y-185883809D01*
X112927142Y-185979047D01*
X111593809Y-186312380D02*
X111593809Y-185788571D01*
X111641428Y-185693333D01*
X111736666Y-185645714D01*
X111927142Y-185645714D01*
X112022380Y-185693333D01*
X111593809Y-186264761D02*
X111689047Y-186312380D01*
X111927142Y-186312380D01*
X112022380Y-186264761D01*
X112069999Y-186169523D01*
X112069999Y-186074285D01*
X112022380Y-185979047D01*
X111927142Y-185931428D01*
X111689047Y-185931428D01*
X111593809Y-185883809D01*
X111165238Y-186264761D02*
X111069999Y-186312380D01*
X110879523Y-186312380D01*
X110784285Y-186264761D01*
X110736666Y-186169523D01*
X110736666Y-186121904D01*
X110784285Y-186026666D01*
X110879523Y-185979047D01*
X111022380Y-185979047D01*
X111117619Y-185931428D01*
X111165238Y-185836190D01*
X111165238Y-185788571D01*
X111117619Y-185693333D01*
X111022380Y-185645714D01*
X110879523Y-185645714D01*
X110784285Y-185693333D01*
X109927142Y-186264761D02*
X110022380Y-186312380D01*
X110212857Y-186312380D01*
X110308095Y-186264761D01*
X110355714Y-186169523D01*
X110355714Y-185788571D01*
X110308095Y-185693333D01*
X110212857Y-185645714D01*
X110022380Y-185645714D01*
X109927142Y-185693333D01*
X109879523Y-185788571D01*
X109879523Y-185883809D01*
X110355714Y-185979047D01*
X108260476Y-186264761D02*
X108355714Y-186312380D01*
X108546190Y-186312380D01*
X108641428Y-186264761D01*
X108689047Y-186217142D01*
X108736666Y-186121904D01*
X108736666Y-185836190D01*
X108689047Y-185740952D01*
X108641428Y-185693333D01*
X108546190Y-185645714D01*
X108355714Y-185645714D01*
X108260476Y-185693333D01*
X107689047Y-186312380D02*
X107784285Y-186264761D01*
X107831904Y-186217142D01*
X107879523Y-186121904D01*
X107879523Y-185836190D01*
X107831904Y-185740952D01*
X107784285Y-185693333D01*
X107689047Y-185645714D01*
X107546190Y-185645714D01*
X107450952Y-185693333D01*
X107403333Y-185740952D01*
X107355714Y-185836190D01*
X107355714Y-186121904D01*
X107403333Y-186217142D01*
X107450952Y-186264761D01*
X107546190Y-186312380D01*
X107689047Y-186312380D01*
X106927142Y-185645714D02*
X106927142Y-186312380D01*
X106927142Y-185740952D02*
X106879523Y-185693333D01*
X106784285Y-185645714D01*
X106641428Y-185645714D01*
X106546190Y-185693333D01*
X106498571Y-185788571D01*
X106498571Y-186312380D01*
X106165238Y-185645714D02*
X105784285Y-185645714D01*
X106022380Y-185312380D02*
X106022380Y-186169523D01*
X105974761Y-186264761D01*
X105879523Y-186312380D01*
X105784285Y-186312380D01*
X105022380Y-186312380D02*
X105022380Y-185788571D01*
X105069999Y-185693333D01*
X105165238Y-185645714D01*
X105355714Y-185645714D01*
X105450952Y-185693333D01*
X105022380Y-186264761D02*
X105117619Y-186312380D01*
X105355714Y-186312380D01*
X105450952Y-186264761D01*
X105498571Y-186169523D01*
X105498571Y-186074285D01*
X105450952Y-185979047D01*
X105355714Y-185931428D01*
X105117619Y-185931428D01*
X105022380Y-185883809D01*
X104117619Y-186264761D02*
X104212857Y-186312380D01*
X104403333Y-186312380D01*
X104498571Y-186264761D01*
X104546190Y-186217142D01*
X104593809Y-186121904D01*
X104593809Y-185836190D01*
X104546190Y-185740952D01*
X104498571Y-185693333D01*
X104403333Y-185645714D01*
X104212857Y-185645714D01*
X104117619Y-185693333D01*
X103831904Y-185645714D02*
X103450952Y-185645714D01*
X103689047Y-185312380D02*
X103689047Y-186169523D01*
X103641428Y-186264761D01*
X103546190Y-186312380D01*
X103450952Y-186312380D01*
X102498571Y-185645714D02*
X102117619Y-185645714D01*
X102355714Y-185312380D02*
X102355714Y-186169523D01*
X102308095Y-186264761D01*
X102212857Y-186312380D01*
X102117619Y-186312380D01*
X101784285Y-186312380D02*
X101784285Y-185312380D01*
X101355714Y-186312380D02*
X101355714Y-185788571D01*
X101403333Y-185693333D01*
X101498571Y-185645714D01*
X101641428Y-185645714D01*
X101736666Y-185693333D01*
X101784285Y-185740952D01*
X100498571Y-186264761D02*
X100593809Y-186312380D01*
X100784285Y-186312380D01*
X100879523Y-186264761D01*
X100927142Y-186169523D01*
X100927142Y-185788571D01*
X100879523Y-185693333D01*
X100784285Y-185645714D01*
X100593809Y-185645714D01*
X100498571Y-185693333D01*
X100450952Y-185788571D01*
X100450952Y-185883809D01*
X100927142Y-185979047D01*
X99403333Y-185645714D02*
X99022380Y-185645714D01*
X99260476Y-186312380D02*
X99260476Y-185455238D01*
X99212857Y-185360000D01*
X99117619Y-185312380D01*
X99022380Y-185312380D01*
X98689047Y-186312380D02*
X98689047Y-185645714D01*
X98689047Y-185312380D02*
X98736666Y-185360000D01*
X98689047Y-185407619D01*
X98641428Y-185360000D01*
X98689047Y-185312380D01*
X98689047Y-185407619D01*
X98212857Y-185645714D02*
X98212857Y-186312380D01*
X98212857Y-185740952D02*
X98165238Y-185693333D01*
X98070000Y-185645714D01*
X97927142Y-185645714D01*
X97831904Y-185693333D01*
X97784285Y-185788571D01*
X97784285Y-186312380D01*
X96927142Y-186264761D02*
X97022380Y-186312380D01*
X97212857Y-186312380D01*
X97308095Y-186264761D01*
X97355714Y-186169523D01*
X97355714Y-185788571D01*
X97308095Y-185693333D01*
X97212857Y-185645714D01*
X97022380Y-185645714D01*
X96927142Y-185693333D01*
X96879523Y-185788571D01*
X96879523Y-185883809D01*
X97355714Y-185979047D01*
X95689047Y-185645714D02*
X95689047Y-186645714D01*
X95689047Y-185693333D02*
X95593809Y-185645714D01*
X95403333Y-185645714D01*
X95308095Y-185693333D01*
X95260476Y-185740952D01*
X95212857Y-185836190D01*
X95212857Y-186121904D01*
X95260476Y-186217142D01*
X95308095Y-186264761D01*
X95403333Y-186312380D01*
X95593809Y-186312380D01*
X95689047Y-186264761D01*
X94403333Y-186264761D02*
X94498571Y-186312380D01*
X94689047Y-186312380D01*
X94784285Y-186264761D01*
X94831904Y-186169523D01*
X94831904Y-185788571D01*
X94784285Y-185693333D01*
X94689047Y-185645714D01*
X94498571Y-185645714D01*
X94403333Y-185693333D01*
X94355714Y-185788571D01*
X94355714Y-185883809D01*
X94831904Y-185979047D01*
X93784285Y-186312380D02*
X93879523Y-186264761D01*
X93927142Y-186217142D01*
X93974761Y-186121904D01*
X93974761Y-185836190D01*
X93927142Y-185740952D01*
X93879523Y-185693333D01*
X93784285Y-185645714D01*
X93641428Y-185645714D01*
X93546190Y-185693333D01*
X93498571Y-185740952D01*
X93450952Y-185836190D01*
X93450952Y-186121904D01*
X93498571Y-186217142D01*
X93546190Y-186264761D01*
X93641428Y-186312380D01*
X93784285Y-186312380D01*
X93022380Y-185645714D02*
X93022380Y-186645714D01*
X93022380Y-185693333D02*
X92927142Y-185645714D01*
X92736666Y-185645714D01*
X92641428Y-185693333D01*
X92593809Y-185740952D01*
X92546190Y-185836190D01*
X92546190Y-186121904D01*
X92593809Y-186217142D01*
X92641428Y-186264761D01*
X92736666Y-186312380D01*
X92927142Y-186312380D01*
X93022380Y-186264761D01*
X91974761Y-186312380D02*
X92070000Y-186264761D01*
X92117619Y-186169523D01*
X92117619Y-185312380D01*
X91212857Y-186264761D02*
X91308095Y-186312380D01*
X91498571Y-186312380D01*
X91593809Y-186264761D01*
X91641428Y-186169523D01*
X91641428Y-185788571D01*
X91593809Y-185693333D01*
X91498571Y-185645714D01*
X91308095Y-185645714D01*
X91212857Y-185693333D01*
X91165238Y-185788571D01*
X91165238Y-185883809D01*
X91641428Y-185979047D01*
X89546190Y-186312380D02*
X89546190Y-185788571D01*
X89593809Y-185693333D01*
X89689047Y-185645714D01*
X89879523Y-185645714D01*
X89974761Y-185693333D01*
X89546190Y-186264761D02*
X89641428Y-186312380D01*
X89879523Y-186312380D01*
X89974761Y-186264761D01*
X90022380Y-186169523D01*
X90022380Y-186074285D01*
X89974761Y-185979047D01*
X89879523Y-185931428D01*
X89641428Y-185931428D01*
X89546190Y-185883809D01*
X89212857Y-185645714D02*
X88831904Y-185645714D01*
X89070000Y-185312380D02*
X89070000Y-186169523D01*
X89022380Y-186264761D01*
X88927142Y-186312380D01*
X88831904Y-186312380D01*
X87784285Y-186264761D02*
X87641428Y-186312380D01*
X87403333Y-186312380D01*
X87308095Y-186264761D01*
X87260476Y-186217142D01*
X87212857Y-186121904D01*
X87212857Y-186026666D01*
X87260476Y-185931428D01*
X87308095Y-185883809D01*
X87403333Y-185836190D01*
X87593809Y-185788571D01*
X87689047Y-185740952D01*
X87736666Y-185693333D01*
X87784285Y-185598095D01*
X87784285Y-185502857D01*
X87736666Y-185407619D01*
X87689047Y-185360000D01*
X87593809Y-185312380D01*
X87355714Y-185312380D01*
X87212857Y-185360000D01*
X86403333Y-186264761D02*
X86498571Y-186312380D01*
X86689047Y-186312380D01*
X86784285Y-186264761D01*
X86831904Y-186169523D01*
X86831904Y-185788571D01*
X86784285Y-185693333D01*
X86689047Y-185645714D01*
X86498571Y-185645714D01*
X86403333Y-185693333D01*
X86355714Y-185788571D01*
X86355714Y-185883809D01*
X86831904Y-185979047D01*
X85927142Y-185645714D02*
X85927142Y-186312380D01*
X85927142Y-185740952D02*
X85879523Y-185693333D01*
X85784285Y-185645714D01*
X85641428Y-185645714D01*
X85546190Y-185693333D01*
X85498571Y-185788571D01*
X85498571Y-186312380D01*
X85070000Y-186264761D02*
X84974761Y-186312380D01*
X84784285Y-186312380D01*
X84689047Y-186264761D01*
X84641428Y-186169523D01*
X84641428Y-186121904D01*
X84689047Y-186026666D01*
X84784285Y-185979047D01*
X84927142Y-185979047D01*
X85022380Y-185931428D01*
X85070000Y-185836190D01*
X85070000Y-185788571D01*
X85022380Y-185693333D01*
X84927142Y-185645714D01*
X84784285Y-185645714D01*
X84689047Y-185693333D01*
X83784285Y-186312380D02*
X83784285Y-185788571D01*
X83831904Y-185693333D01*
X83927142Y-185645714D01*
X84117619Y-185645714D01*
X84212857Y-185693333D01*
X83784285Y-186264761D02*
X83879523Y-186312380D01*
X84117619Y-186312380D01*
X84212857Y-186264761D01*
X84260476Y-186169523D01*
X84260476Y-186074285D01*
X84212857Y-185979047D01*
X84117619Y-185931428D01*
X83879523Y-185931428D01*
X83784285Y-185883809D01*
X82022380Y-185360000D02*
X82117619Y-185312380D01*
X82260476Y-185312380D01*
X82403333Y-185360000D01*
X82498571Y-185455238D01*
X82546190Y-185550476D01*
X82593809Y-185740952D01*
X82593809Y-185883809D01*
X82546190Y-186074285D01*
X82498571Y-186169523D01*
X82403333Y-186264761D01*
X82260476Y-186312380D01*
X82165238Y-186312380D01*
X82022380Y-186264761D01*
X81974761Y-186217142D01*
X81974761Y-185883809D01*
X82165238Y-185883809D01*
X81546190Y-186312380D02*
X81546190Y-185645714D01*
X81546190Y-185836190D02*
X81498571Y-185740952D01*
X81450952Y-185693333D01*
X81355714Y-185645714D01*
X81260476Y-185645714D01*
X80784285Y-186312380D02*
X80879523Y-186264761D01*
X80927142Y-186217142D01*
X80974761Y-186121904D01*
X80974761Y-185836190D01*
X80927142Y-185740952D01*
X80879523Y-185693333D01*
X80784285Y-185645714D01*
X80641428Y-185645714D01*
X80546190Y-185693333D01*
X80498571Y-185740952D01*
X80450952Y-185836190D01*
X80450952Y-186121904D01*
X80498571Y-186217142D01*
X80546190Y-186264761D01*
X80641428Y-186312380D01*
X80784285Y-186312380D01*
X79593809Y-185645714D02*
X79593809Y-186312380D01*
X80022380Y-185645714D02*
X80022380Y-186169523D01*
X79974761Y-186264761D01*
X79879523Y-186312380D01*
X79736666Y-186312380D01*
X79641428Y-186264761D01*
X79593809Y-186217142D01*
X79117619Y-185645714D02*
X79117619Y-186645714D01*
X79117619Y-185693333D02*
X79022380Y-185645714D01*
X78831904Y-185645714D01*
X78736666Y-185693333D01*
X78689047Y-185740952D01*
X78641428Y-185836190D01*
X78641428Y-186121904D01*
X78689047Y-186217142D01*
X78736666Y-186264761D01*
X78831904Y-186312380D01*
X79022380Y-186312380D01*
X79117619Y-186264761D01*
X76689047Y-185645714D02*
X77450952Y-185931428D01*
X76689047Y-186217142D01*
X76308095Y-185312380D02*
X75689047Y-185312380D01*
X76022380Y-185693333D01*
X75879523Y-185693333D01*
X75784285Y-185740952D01*
X75736666Y-185788571D01*
X75689047Y-185883809D01*
X75689047Y-186121904D01*
X75736666Y-186217142D01*
X75784285Y-186264761D01*
X75879523Y-186312380D01*
X76165238Y-186312380D01*
X76260476Y-186264761D01*
X76308095Y-186217142D01*
D11*
%TO.C,G\u002A\u002A\u002A*%
G36*
X96303379Y-182856621D02*
G01*
X121334948Y-182856621D01*
X121334948Y-176029830D01*
X119817884Y-176029830D01*
X119817884Y-181339557D01*
X114508157Y-181339557D01*
X114508157Y-180581024D01*
X112991092Y-180581024D01*
X112991092Y-181339557D01*
X112232559Y-181339557D01*
X112232559Y-180581024D01*
X112991092Y-180581024D01*
X114508157Y-180581024D01*
X114508157Y-177546895D01*
X113749624Y-177546895D01*
X113749624Y-179063959D01*
X112991092Y-179063959D01*
X112991092Y-179822492D01*
X112232559Y-179822492D01*
X112232559Y-180581024D01*
X111474027Y-180581024D01*
X111474027Y-181339557D01*
X109956962Y-181339557D01*
X109956962Y-180581024D01*
X109198430Y-180581024D01*
X109198430Y-181339557D01*
X108439897Y-181339557D01*
X108439897Y-180581024D01*
X109198430Y-180581024D01*
X109956962Y-180581024D01*
X109956962Y-179822492D01*
X110715495Y-179822492D01*
X110715495Y-180581024D01*
X111474027Y-180581024D01*
X111474027Y-179822492D01*
X112232559Y-179822492D01*
X112232559Y-179063959D01*
X112991092Y-179063959D01*
X112991092Y-177546895D01*
X113749624Y-177546895D01*
X114508157Y-177546895D01*
X114508157Y-176029830D01*
X119817884Y-176029830D01*
X121334948Y-176029830D01*
X121334948Y-169961570D01*
X119817884Y-169961570D01*
X119817884Y-170720103D01*
X118300819Y-170720103D01*
X118300819Y-171478635D01*
X119817884Y-171478635D01*
X119817884Y-175271297D01*
X118300819Y-175271297D01*
X118300819Y-173754232D01*
X117542286Y-173754232D01*
X117542286Y-172995700D01*
X116783754Y-172995700D01*
X116783754Y-174512765D01*
X116025222Y-174512765D01*
X116025222Y-175271297D01*
X114508157Y-175271297D01*
X113749624Y-175271297D01*
X113749624Y-176788362D01*
X112991092Y-176788362D01*
X112991092Y-177546895D01*
X112232559Y-177546895D01*
X112232559Y-178305427D01*
X111474027Y-178305427D01*
X109956962Y-178305427D01*
X109956962Y-179063959D01*
X109198430Y-179063959D01*
X109198430Y-179822492D01*
X107681365Y-179822492D01*
X107681365Y-181339557D01*
X106922832Y-181339557D01*
X106922832Y-180581024D01*
X106164300Y-180581024D01*
X106164300Y-181339557D01*
X100096041Y-181339557D01*
X100096041Y-180581024D01*
X99337508Y-180581024D01*
X99337508Y-179822492D01*
X98578976Y-179822492D01*
X98578976Y-180581024D01*
X97820443Y-180581024D01*
X97820443Y-179063959D01*
X98578976Y-179063959D01*
X98578976Y-178305427D01*
X97820443Y-178305427D01*
X97820443Y-176788362D01*
X98578976Y-176788362D01*
X98578976Y-176029830D01*
X99337508Y-176029830D01*
X99337508Y-174512765D01*
X98578976Y-174512765D01*
X98578976Y-175271297D01*
X97820443Y-175271297D01*
X97820443Y-172995700D01*
X98578976Y-172995700D01*
X98578976Y-173754232D01*
X100096041Y-173754232D01*
X100096041Y-172995700D01*
X100854573Y-172995700D01*
X100854573Y-172237168D01*
X101613105Y-172237168D01*
X101613105Y-173754232D01*
X103888703Y-173754232D01*
X103888703Y-174512765D01*
X104647235Y-174512765D01*
X104647235Y-172995700D01*
X103888703Y-172995700D01*
X103888703Y-172237168D01*
X105405768Y-172237168D01*
X105405768Y-173754232D01*
X106164300Y-173754232D01*
X106164300Y-175271297D01*
X104647235Y-175271297D01*
X104647235Y-176029830D01*
X105405768Y-176029830D01*
X105405768Y-176788362D01*
X106164300Y-176788362D01*
X106164300Y-177546895D01*
X108439897Y-177546895D01*
X108439897Y-176788362D01*
X109198430Y-176788362D01*
X109198430Y-178305427D01*
X109956962Y-178305427D01*
X111474027Y-178305427D01*
X111474027Y-177546895D01*
X109956962Y-177546895D01*
X109956962Y-176788362D01*
X111474027Y-176788362D01*
X111474027Y-176029830D01*
X110715495Y-176029830D01*
X110715495Y-175271297D01*
X109956962Y-175271297D01*
X109956962Y-176029830D01*
X109198430Y-176029830D01*
X109198430Y-175271297D01*
X108439897Y-175271297D01*
X108439897Y-176029830D01*
X107681365Y-176029830D01*
X107681365Y-176788362D01*
X106922832Y-176788362D01*
X106922832Y-176029830D01*
X107681365Y-176029830D01*
X107681365Y-174512765D01*
X106922832Y-174512765D01*
X106922832Y-173754232D01*
X109198430Y-173754232D01*
X109198430Y-172237168D01*
X107681365Y-172237168D01*
X107681365Y-172995700D01*
X106922832Y-172995700D01*
X106922832Y-173754232D01*
X106164300Y-173754232D01*
X106164300Y-172995700D01*
X106922832Y-172995700D01*
X106922832Y-172237168D01*
X107681365Y-172237168D01*
X109198430Y-172237168D01*
X109956962Y-172237168D01*
X109956962Y-173754232D01*
X111474027Y-173754232D01*
X111474027Y-174512765D01*
X112232559Y-174512765D01*
X112232559Y-176788362D01*
X112991092Y-176788362D01*
X112991092Y-175271297D01*
X113749624Y-175271297D01*
X114508157Y-175271297D01*
X114508157Y-174512765D01*
X113749624Y-174512765D01*
X113749624Y-172995700D01*
X112991092Y-172995700D01*
X112991092Y-173754232D01*
X111474027Y-173754232D01*
X111474027Y-172995700D01*
X112991092Y-172995700D01*
X113749624Y-172995700D01*
X115266689Y-172995700D01*
X115266689Y-172237168D01*
X114508157Y-172237168D01*
X114508157Y-171478635D01*
X115266689Y-171478635D01*
X115266689Y-170720103D01*
X113749624Y-170720103D01*
X113749624Y-169961570D01*
X115266689Y-169961570D01*
X115266689Y-169203038D01*
X114508157Y-169203038D01*
X113749624Y-169203038D01*
X113749624Y-169961570D01*
X112991092Y-169961570D01*
X104647235Y-169961570D01*
X104647235Y-170720103D01*
X103888703Y-170720103D01*
X103888703Y-169961570D01*
X104647235Y-169961570D01*
X112991092Y-169961570D01*
X112991092Y-169203038D01*
X113749624Y-169203038D01*
X114508157Y-169203038D01*
X114508157Y-168444505D01*
X113749624Y-168444505D01*
X113749624Y-167685973D01*
X112991092Y-167685973D01*
X112991092Y-168444505D01*
X112232559Y-168444505D01*
X112232559Y-167685973D01*
X112991092Y-167685973D01*
X112991092Y-166168908D01*
X113749624Y-166168908D01*
X113749624Y-165410376D01*
X115266689Y-165410376D01*
X115266689Y-166168908D01*
X114508157Y-166168908D01*
X114508157Y-166927441D01*
X115266689Y-166927441D01*
X115266689Y-167685973D01*
X116025222Y-167685973D01*
X116025222Y-166927441D01*
X116783754Y-166927441D01*
X116783754Y-168444505D01*
X117542286Y-168444505D01*
X117542286Y-169203038D01*
X118300819Y-169203038D01*
X118300819Y-169961570D01*
X119817884Y-169961570D01*
X121334948Y-169961570D01*
X121334948Y-167685973D01*
X119817884Y-167685973D01*
X119817884Y-169203038D01*
X118300819Y-169203038D01*
X118300819Y-168444505D01*
X119059351Y-168444505D01*
X119059351Y-167685973D01*
X119817884Y-167685973D01*
X121334948Y-167685973D01*
X121334948Y-166168908D01*
X119059351Y-166168908D01*
X119059351Y-167685973D01*
X117542286Y-167685973D01*
X117542286Y-166927441D01*
X118300819Y-166927441D01*
X118300819Y-166168908D01*
X119059351Y-166168908D01*
X121334948Y-166168908D01*
X121334948Y-165410376D01*
X117542286Y-165410376D01*
X117542286Y-166168908D01*
X116025222Y-166168908D01*
X116025222Y-165410376D01*
X117542286Y-165410376D01*
X121334948Y-165410376D01*
X121334948Y-159342116D01*
X119817884Y-159342116D01*
X119817884Y-164651843D01*
X114508157Y-164651843D01*
X114508157Y-163893311D01*
X113749624Y-163893311D01*
X113749624Y-164651843D01*
X112991092Y-164651843D01*
X112991092Y-163893311D01*
X113749624Y-163893311D01*
X114508157Y-163893311D01*
X114508157Y-160859181D01*
X113749624Y-160859181D01*
X113749624Y-162376246D01*
X112991092Y-162376246D01*
X112991092Y-163893311D01*
X112232559Y-163893311D01*
X112232559Y-166927441D01*
X111474027Y-166927441D01*
X111474027Y-167685973D01*
X109956962Y-167685973D01*
X109956962Y-168444505D01*
X107681365Y-168444505D01*
X107681365Y-167685973D01*
X106922832Y-167685973D01*
X106922832Y-168444505D01*
X105405768Y-168444505D01*
X105405768Y-167685973D01*
X106922832Y-167685973D01*
X106922832Y-166927441D01*
X107681365Y-166927441D01*
X107681365Y-166168908D01*
X106922832Y-166168908D01*
X106164300Y-166168908D01*
X106164300Y-166927441D01*
X104647235Y-166927441D01*
X104647235Y-169203038D01*
X103130170Y-169203038D01*
X103130170Y-169961570D01*
X102371638Y-169961570D01*
X102371638Y-169203038D01*
X101613105Y-169203038D01*
X101613105Y-169961570D01*
X100854573Y-169961570D01*
X100854573Y-172237168D01*
X100096041Y-172237168D01*
X100096041Y-171478635D01*
X98578976Y-171478635D01*
X98578976Y-172237168D01*
X97820443Y-172237168D01*
X97820443Y-169203038D01*
X98578976Y-169203038D01*
X98578976Y-168444505D01*
X99337508Y-168444505D01*
X99337508Y-169203038D01*
X100096041Y-169203038D01*
X100096041Y-169961570D01*
X100854573Y-169961570D01*
X100854573Y-169203038D01*
X101613105Y-169203038D01*
X101613105Y-168444505D01*
X100096041Y-168444505D01*
X100096041Y-167685973D01*
X98578976Y-167685973D01*
X98578976Y-168444505D01*
X97820443Y-168444505D01*
X97820443Y-167685973D01*
X98578976Y-167685973D01*
X100096041Y-167685973D01*
X100096041Y-166927441D01*
X98578976Y-166927441D01*
X98578976Y-166168908D01*
X99337508Y-166168908D01*
X99337508Y-165410376D01*
X100854573Y-165410376D01*
X100854573Y-166168908D01*
X101613105Y-166168908D01*
X101613105Y-166927441D01*
X103130170Y-166927441D01*
X103130170Y-167685973D01*
X103888703Y-167685973D01*
X103888703Y-166168908D01*
X106164300Y-166168908D01*
X106922832Y-166168908D01*
X106922832Y-165410376D01*
X105405768Y-165410376D01*
X105405768Y-163893311D01*
X104647235Y-163893311D01*
X104647235Y-164651843D01*
X103888703Y-164651843D01*
X103888703Y-163893311D01*
X104647235Y-163893311D01*
X105405768Y-163893311D01*
X106164300Y-163893311D01*
X106164300Y-164651843D01*
X106922832Y-164651843D01*
X106922832Y-163893311D01*
X107681365Y-163893311D01*
X107681365Y-163134778D01*
X106922832Y-163134778D01*
X106922832Y-162376246D01*
X108439897Y-162376246D01*
X108439897Y-161617714D01*
X109198430Y-161617714D01*
X109198430Y-160859181D01*
X109956962Y-160859181D01*
X109956962Y-159342116D01*
X109198430Y-159342116D01*
X109198430Y-160859181D01*
X108439897Y-160859181D01*
X107681365Y-160859181D01*
X107681365Y-161617714D01*
X106922832Y-161617714D01*
X106922832Y-162376246D01*
X106164300Y-162376246D01*
X106164300Y-163134778D01*
X104647235Y-163134778D01*
X104647235Y-161617714D01*
X103888703Y-161617714D01*
X103888703Y-160859181D01*
X104647235Y-160859181D01*
X104647235Y-160100649D01*
X103888703Y-160100649D01*
X103888703Y-159342116D01*
X103130170Y-159342116D01*
X103130170Y-164651843D01*
X97820443Y-164651843D01*
X97820443Y-159342116D01*
X103130170Y-159342116D01*
X103888703Y-159342116D01*
X106922832Y-159342116D01*
X106922832Y-160859181D01*
X107681365Y-160859181D01*
X108439897Y-160859181D01*
X108439897Y-159342116D01*
X109198430Y-159342116D01*
X109956962Y-159342116D01*
X111474027Y-159342116D01*
X111474027Y-160100649D01*
X112991092Y-160100649D01*
X112991092Y-160859181D01*
X113749624Y-160859181D01*
X114508157Y-160859181D01*
X114508157Y-159342116D01*
X119817884Y-159342116D01*
X121334948Y-159342116D01*
X121334948Y-157825052D01*
X96303379Y-157825052D01*
X96303379Y-182856621D01*
G37*
X96303379Y-182856621D02*
X121334948Y-182856621D01*
X121334948Y-176029830D01*
X119817884Y-176029830D01*
X119817884Y-181339557D01*
X114508157Y-181339557D01*
X114508157Y-180581024D01*
X112991092Y-180581024D01*
X112991092Y-181339557D01*
X112232559Y-181339557D01*
X112232559Y-180581024D01*
X112991092Y-180581024D01*
X114508157Y-180581024D01*
X114508157Y-177546895D01*
X113749624Y-177546895D01*
X113749624Y-179063959D01*
X112991092Y-179063959D01*
X112991092Y-179822492D01*
X112232559Y-179822492D01*
X112232559Y-180581024D01*
X111474027Y-180581024D01*
X111474027Y-181339557D01*
X109956962Y-181339557D01*
X109956962Y-180581024D01*
X109198430Y-180581024D01*
X109198430Y-181339557D01*
X108439897Y-181339557D01*
X108439897Y-180581024D01*
X109198430Y-180581024D01*
X109956962Y-180581024D01*
X109956962Y-179822492D01*
X110715495Y-179822492D01*
X110715495Y-180581024D01*
X111474027Y-180581024D01*
X111474027Y-179822492D01*
X112232559Y-179822492D01*
X112232559Y-179063959D01*
X112991092Y-179063959D01*
X112991092Y-177546895D01*
X113749624Y-177546895D01*
X114508157Y-177546895D01*
X114508157Y-176029830D01*
X119817884Y-176029830D01*
X121334948Y-176029830D01*
X121334948Y-169961570D01*
X119817884Y-169961570D01*
X119817884Y-170720103D01*
X118300819Y-170720103D01*
X118300819Y-171478635D01*
X119817884Y-171478635D01*
X119817884Y-175271297D01*
X118300819Y-175271297D01*
X118300819Y-173754232D01*
X117542286Y-173754232D01*
X117542286Y-172995700D01*
X116783754Y-172995700D01*
X116783754Y-174512765D01*
X116025222Y-174512765D01*
X116025222Y-175271297D01*
X114508157Y-175271297D01*
X113749624Y-175271297D01*
X113749624Y-176788362D01*
X112991092Y-176788362D01*
X112991092Y-177546895D01*
X112232559Y-177546895D01*
X112232559Y-178305427D01*
X111474027Y-178305427D01*
X109956962Y-178305427D01*
X109956962Y-179063959D01*
X109198430Y-179063959D01*
X109198430Y-179822492D01*
X107681365Y-179822492D01*
X107681365Y-181339557D01*
X106922832Y-181339557D01*
X106922832Y-180581024D01*
X106164300Y-180581024D01*
X106164300Y-181339557D01*
X100096041Y-181339557D01*
X100096041Y-180581024D01*
X99337508Y-180581024D01*
X99337508Y-179822492D01*
X98578976Y-179822492D01*
X98578976Y-180581024D01*
X97820443Y-180581024D01*
X97820443Y-179063959D01*
X98578976Y-179063959D01*
X98578976Y-178305427D01*
X97820443Y-178305427D01*
X97820443Y-176788362D01*
X98578976Y-176788362D01*
X98578976Y-176029830D01*
X99337508Y-176029830D01*
X99337508Y-174512765D01*
X98578976Y-174512765D01*
X98578976Y-175271297D01*
X97820443Y-175271297D01*
X97820443Y-172995700D01*
X98578976Y-172995700D01*
X98578976Y-173754232D01*
X100096041Y-173754232D01*
X100096041Y-172995700D01*
X100854573Y-172995700D01*
X100854573Y-172237168D01*
X101613105Y-172237168D01*
X101613105Y-173754232D01*
X103888703Y-173754232D01*
X103888703Y-174512765D01*
X104647235Y-174512765D01*
X104647235Y-172995700D01*
X103888703Y-172995700D01*
X103888703Y-172237168D01*
X105405768Y-172237168D01*
X105405768Y-173754232D01*
X106164300Y-173754232D01*
X106164300Y-175271297D01*
X104647235Y-175271297D01*
X104647235Y-176029830D01*
X105405768Y-176029830D01*
X105405768Y-176788362D01*
X106164300Y-176788362D01*
X106164300Y-177546895D01*
X108439897Y-177546895D01*
X108439897Y-176788362D01*
X109198430Y-176788362D01*
X109198430Y-178305427D01*
X109956962Y-178305427D01*
X111474027Y-178305427D01*
X111474027Y-177546895D01*
X109956962Y-177546895D01*
X109956962Y-176788362D01*
X111474027Y-176788362D01*
X111474027Y-176029830D01*
X110715495Y-176029830D01*
X110715495Y-175271297D01*
X109956962Y-175271297D01*
X109956962Y-176029830D01*
X109198430Y-176029830D01*
X109198430Y-175271297D01*
X108439897Y-175271297D01*
X108439897Y-176029830D01*
X107681365Y-176029830D01*
X107681365Y-176788362D01*
X106922832Y-176788362D01*
X106922832Y-176029830D01*
X107681365Y-176029830D01*
X107681365Y-174512765D01*
X106922832Y-174512765D01*
X106922832Y-173754232D01*
X109198430Y-173754232D01*
X109198430Y-172237168D01*
X107681365Y-172237168D01*
X107681365Y-172995700D01*
X106922832Y-172995700D01*
X106922832Y-173754232D01*
X106164300Y-173754232D01*
X106164300Y-172995700D01*
X106922832Y-172995700D01*
X106922832Y-172237168D01*
X107681365Y-172237168D01*
X109198430Y-172237168D01*
X109956962Y-172237168D01*
X109956962Y-173754232D01*
X111474027Y-173754232D01*
X111474027Y-174512765D01*
X112232559Y-174512765D01*
X112232559Y-176788362D01*
X112991092Y-176788362D01*
X112991092Y-175271297D01*
X113749624Y-175271297D01*
X114508157Y-175271297D01*
X114508157Y-174512765D01*
X113749624Y-174512765D01*
X113749624Y-172995700D01*
X112991092Y-172995700D01*
X112991092Y-173754232D01*
X111474027Y-173754232D01*
X111474027Y-172995700D01*
X112991092Y-172995700D01*
X113749624Y-172995700D01*
X115266689Y-172995700D01*
X115266689Y-172237168D01*
X114508157Y-172237168D01*
X114508157Y-171478635D01*
X115266689Y-171478635D01*
X115266689Y-170720103D01*
X113749624Y-170720103D01*
X113749624Y-169961570D01*
X115266689Y-169961570D01*
X115266689Y-169203038D01*
X114508157Y-169203038D01*
X113749624Y-169203038D01*
X113749624Y-169961570D01*
X112991092Y-169961570D01*
X104647235Y-169961570D01*
X104647235Y-170720103D01*
X103888703Y-170720103D01*
X103888703Y-169961570D01*
X104647235Y-169961570D01*
X112991092Y-169961570D01*
X112991092Y-169203038D01*
X113749624Y-169203038D01*
X114508157Y-169203038D01*
X114508157Y-168444505D01*
X113749624Y-168444505D01*
X113749624Y-167685973D01*
X112991092Y-167685973D01*
X112991092Y-168444505D01*
X112232559Y-168444505D01*
X112232559Y-167685973D01*
X112991092Y-167685973D01*
X112991092Y-166168908D01*
X113749624Y-166168908D01*
X113749624Y-165410376D01*
X115266689Y-165410376D01*
X115266689Y-166168908D01*
X114508157Y-166168908D01*
X114508157Y-166927441D01*
X115266689Y-166927441D01*
X115266689Y-167685973D01*
X116025222Y-167685973D01*
X116025222Y-166927441D01*
X116783754Y-166927441D01*
X116783754Y-168444505D01*
X117542286Y-168444505D01*
X117542286Y-169203038D01*
X118300819Y-169203038D01*
X118300819Y-169961570D01*
X119817884Y-169961570D01*
X121334948Y-169961570D01*
X121334948Y-167685973D01*
X119817884Y-167685973D01*
X119817884Y-169203038D01*
X118300819Y-169203038D01*
X118300819Y-168444505D01*
X119059351Y-168444505D01*
X119059351Y-167685973D01*
X119817884Y-167685973D01*
X121334948Y-167685973D01*
X121334948Y-166168908D01*
X119059351Y-166168908D01*
X119059351Y-167685973D01*
X117542286Y-167685973D01*
X117542286Y-166927441D01*
X118300819Y-166927441D01*
X118300819Y-166168908D01*
X119059351Y-166168908D01*
X121334948Y-166168908D01*
X121334948Y-165410376D01*
X117542286Y-165410376D01*
X117542286Y-166168908D01*
X116025222Y-166168908D01*
X116025222Y-165410376D01*
X117542286Y-165410376D01*
X121334948Y-165410376D01*
X121334948Y-159342116D01*
X119817884Y-159342116D01*
X119817884Y-164651843D01*
X114508157Y-164651843D01*
X114508157Y-163893311D01*
X113749624Y-163893311D01*
X113749624Y-164651843D01*
X112991092Y-164651843D01*
X112991092Y-163893311D01*
X113749624Y-163893311D01*
X114508157Y-163893311D01*
X114508157Y-160859181D01*
X113749624Y-160859181D01*
X113749624Y-162376246D01*
X112991092Y-162376246D01*
X112991092Y-163893311D01*
X112232559Y-163893311D01*
X112232559Y-166927441D01*
X111474027Y-166927441D01*
X111474027Y-167685973D01*
X109956962Y-167685973D01*
X109956962Y-168444505D01*
X107681365Y-168444505D01*
X107681365Y-167685973D01*
X106922832Y-167685973D01*
X106922832Y-168444505D01*
X105405768Y-168444505D01*
X105405768Y-167685973D01*
X106922832Y-167685973D01*
X106922832Y-166927441D01*
X107681365Y-166927441D01*
X107681365Y-166168908D01*
X106922832Y-166168908D01*
X106164300Y-166168908D01*
X106164300Y-166927441D01*
X104647235Y-166927441D01*
X104647235Y-169203038D01*
X103130170Y-169203038D01*
X103130170Y-169961570D01*
X102371638Y-169961570D01*
X102371638Y-169203038D01*
X101613105Y-169203038D01*
X101613105Y-169961570D01*
X100854573Y-169961570D01*
X100854573Y-172237168D01*
X100096041Y-172237168D01*
X100096041Y-171478635D01*
X98578976Y-171478635D01*
X98578976Y-172237168D01*
X97820443Y-172237168D01*
X97820443Y-169203038D01*
X98578976Y-169203038D01*
X98578976Y-168444505D01*
X99337508Y-168444505D01*
X99337508Y-169203038D01*
X100096041Y-169203038D01*
X100096041Y-169961570D01*
X100854573Y-169961570D01*
X100854573Y-169203038D01*
X101613105Y-169203038D01*
X101613105Y-168444505D01*
X100096041Y-168444505D01*
X100096041Y-167685973D01*
X98578976Y-167685973D01*
X98578976Y-168444505D01*
X97820443Y-168444505D01*
X97820443Y-167685973D01*
X98578976Y-167685973D01*
X100096041Y-167685973D01*
X100096041Y-166927441D01*
X98578976Y-166927441D01*
X98578976Y-166168908D01*
X99337508Y-166168908D01*
X99337508Y-165410376D01*
X100854573Y-165410376D01*
X100854573Y-166168908D01*
X101613105Y-166168908D01*
X101613105Y-166927441D01*
X103130170Y-166927441D01*
X103130170Y-167685973D01*
X103888703Y-167685973D01*
X103888703Y-166168908D01*
X106164300Y-166168908D01*
X106922832Y-166168908D01*
X106922832Y-165410376D01*
X105405768Y-165410376D01*
X105405768Y-163893311D01*
X104647235Y-163893311D01*
X104647235Y-164651843D01*
X103888703Y-164651843D01*
X103888703Y-163893311D01*
X104647235Y-163893311D01*
X105405768Y-163893311D01*
X106164300Y-163893311D01*
X106164300Y-164651843D01*
X106922832Y-164651843D01*
X106922832Y-163893311D01*
X107681365Y-163893311D01*
X107681365Y-163134778D01*
X106922832Y-163134778D01*
X106922832Y-162376246D01*
X108439897Y-162376246D01*
X108439897Y-161617714D01*
X109198430Y-161617714D01*
X109198430Y-160859181D01*
X109956962Y-160859181D01*
X109956962Y-159342116D01*
X109198430Y-159342116D01*
X109198430Y-160859181D01*
X108439897Y-160859181D01*
X107681365Y-160859181D01*
X107681365Y-161617714D01*
X106922832Y-161617714D01*
X106922832Y-162376246D01*
X106164300Y-162376246D01*
X106164300Y-163134778D01*
X104647235Y-163134778D01*
X104647235Y-161617714D01*
X103888703Y-161617714D01*
X103888703Y-160859181D01*
X104647235Y-160859181D01*
X104647235Y-160100649D01*
X103888703Y-160100649D01*
X103888703Y-159342116D01*
X103130170Y-159342116D01*
X103130170Y-164651843D01*
X97820443Y-164651843D01*
X97820443Y-159342116D01*
X103130170Y-159342116D01*
X103888703Y-159342116D01*
X106922832Y-159342116D01*
X106922832Y-160859181D01*
X107681365Y-160859181D01*
X108439897Y-160859181D01*
X108439897Y-159342116D01*
X109198430Y-159342116D01*
X109956962Y-159342116D01*
X111474027Y-159342116D01*
X111474027Y-160100649D01*
X112991092Y-160100649D01*
X112991092Y-160859181D01*
X113749624Y-160859181D01*
X114508157Y-160859181D01*
X114508157Y-159342116D01*
X119817884Y-159342116D01*
X121334948Y-159342116D01*
X121334948Y-157825052D01*
X96303379Y-157825052D01*
X96303379Y-182856621D01*
G36*
X115288361Y-180559352D02*
G01*
X119037679Y-180559352D01*
X119037679Y-177546895D01*
X118300819Y-177546895D01*
X118300819Y-179822492D01*
X116025222Y-179822492D01*
X116025222Y-177546895D01*
X118300819Y-177546895D01*
X119037679Y-177546895D01*
X119037679Y-176810034D01*
X115288361Y-176810034D01*
X115288361Y-180559352D01*
G37*
X115288361Y-180559352D02*
X119037679Y-180559352D01*
X119037679Y-177546895D01*
X118300819Y-177546895D01*
X118300819Y-179822492D01*
X116025222Y-179822492D01*
X116025222Y-177546895D01*
X118300819Y-177546895D01*
X119037679Y-177546895D01*
X119037679Y-176810034D01*
X115288361Y-176810034D01*
X115288361Y-180559352D01*
G36*
X105405768Y-178305427D02*
G01*
X103888703Y-178305427D01*
X103888703Y-179063959D01*
X103130170Y-179063959D01*
X103130170Y-178305427D01*
X102371638Y-178305427D01*
X102371638Y-179063959D01*
X101613105Y-179063959D01*
X101613105Y-180581024D01*
X103130170Y-180581024D01*
X103130170Y-179822492D01*
X103888703Y-179822492D01*
X103888703Y-180581024D01*
X105405768Y-180581024D01*
X105405768Y-179822492D01*
X106922832Y-179822492D01*
X106922832Y-179063959D01*
X106164300Y-179063959D01*
X105405768Y-179063959D01*
X105405768Y-179822492D01*
X104647235Y-179822492D01*
X104647235Y-179063959D01*
X105405768Y-179063959D01*
X106164300Y-179063959D01*
X106164300Y-177546895D01*
X105405768Y-177546895D01*
X105405768Y-178305427D01*
G37*
X105405768Y-178305427D02*
X103888703Y-178305427D01*
X103888703Y-179063959D01*
X103130170Y-179063959D01*
X103130170Y-178305427D01*
X102371638Y-178305427D01*
X102371638Y-179063959D01*
X101613105Y-179063959D01*
X101613105Y-180581024D01*
X103130170Y-180581024D01*
X103130170Y-179822492D01*
X103888703Y-179822492D01*
X103888703Y-180581024D01*
X105405768Y-180581024D01*
X105405768Y-179822492D01*
X106922832Y-179822492D01*
X106922832Y-179063959D01*
X106164300Y-179063959D01*
X105405768Y-179063959D01*
X105405768Y-179822492D01*
X104647235Y-179822492D01*
X104647235Y-179063959D01*
X105405768Y-179063959D01*
X106164300Y-179063959D01*
X106164300Y-177546895D01*
X105405768Y-177546895D01*
X105405768Y-178305427D01*
G36*
X99337508Y-179063959D02*
G01*
X100096041Y-179063959D01*
X100096041Y-179822492D01*
X100854573Y-179822492D01*
X100854573Y-179063959D01*
X101613105Y-179063959D01*
X101613105Y-178305427D01*
X100854573Y-178305427D01*
X100854573Y-177546895D01*
X100096041Y-177546895D01*
X100096041Y-176788362D01*
X99337508Y-176788362D01*
X99337508Y-179063959D01*
G37*
X99337508Y-179063959D02*
X100096041Y-179063959D01*
X100096041Y-179822492D01*
X100854573Y-179822492D01*
X100854573Y-179063959D01*
X101613105Y-179063959D01*
X101613105Y-178305427D01*
X100854573Y-178305427D01*
X100854573Y-177546895D01*
X100096041Y-177546895D01*
X100096041Y-176788362D01*
X99337508Y-176788362D01*
X99337508Y-179063959D01*
G36*
X106922832Y-179063959D02*
G01*
X109198430Y-179063959D01*
X109198430Y-178305427D01*
X106922832Y-178305427D01*
X106922832Y-179063959D01*
G37*
X106922832Y-179063959D02*
X109198430Y-179063959D01*
X109198430Y-178305427D01*
X106922832Y-178305427D01*
X106922832Y-179063959D01*
G36*
X100096041Y-176788362D02*
G01*
X100854573Y-176788362D01*
X100854573Y-176029830D01*
X100096041Y-176029830D01*
X100096041Y-176788362D01*
G37*
X100096041Y-176788362D02*
X100854573Y-176788362D01*
X100854573Y-176029830D01*
X100096041Y-176029830D01*
X100096041Y-176788362D01*
G36*
X111474027Y-177546895D02*
G01*
X112232559Y-177546895D01*
X112232559Y-176788362D01*
X111474027Y-176788362D01*
X111474027Y-177546895D01*
G37*
X111474027Y-177546895D02*
X112232559Y-177546895D01*
X112232559Y-176788362D01*
X111474027Y-176788362D01*
X111474027Y-177546895D01*
G36*
X101613105Y-177546895D02*
G01*
X103888703Y-177546895D01*
X103888703Y-176029830D01*
X103130170Y-176029830D01*
X103130170Y-176788362D01*
X102371638Y-176788362D01*
X102371638Y-176029830D01*
X103130170Y-176029830D01*
X103888703Y-176029830D01*
X103888703Y-175271297D01*
X101613105Y-175271297D01*
X101613105Y-177546895D01*
G37*
X101613105Y-177546895D02*
X103888703Y-177546895D01*
X103888703Y-176029830D01*
X103130170Y-176029830D01*
X103130170Y-176788362D01*
X102371638Y-176788362D01*
X102371638Y-176029830D01*
X103130170Y-176029830D01*
X103888703Y-176029830D01*
X103888703Y-175271297D01*
X101613105Y-175271297D01*
X101613105Y-177546895D01*
G36*
X109198430Y-175271297D02*
G01*
X109956962Y-175271297D01*
X109956962Y-174512765D01*
X109198430Y-174512765D01*
X109198430Y-175271297D01*
G37*
X109198430Y-175271297D02*
X109956962Y-175271297D01*
X109956962Y-174512765D01*
X109198430Y-174512765D01*
X109198430Y-175271297D01*
G36*
X100096041Y-174512765D02*
G01*
X100854573Y-174512765D01*
X100854573Y-173754232D01*
X100096041Y-173754232D01*
X100096041Y-174512765D01*
G37*
X100096041Y-174512765D02*
X100854573Y-174512765D01*
X100854573Y-173754232D01*
X100096041Y-173754232D01*
X100096041Y-174512765D01*
G36*
X98578976Y-170720103D02*
G01*
X100096041Y-170720103D01*
X100096041Y-169961570D01*
X99337508Y-169961570D01*
X99337508Y-169203038D01*
X98578976Y-169203038D01*
X98578976Y-170720103D01*
G37*
X98578976Y-170720103D02*
X100096041Y-170720103D01*
X100096041Y-169961570D01*
X99337508Y-169961570D01*
X99337508Y-169203038D01*
X98578976Y-169203038D01*
X98578976Y-170720103D01*
G36*
X102371638Y-168444505D02*
G01*
X103130170Y-168444505D01*
X103130170Y-167685973D01*
X102371638Y-167685973D01*
X102371638Y-168444505D01*
G37*
X102371638Y-168444505D02*
X103130170Y-168444505D01*
X103130170Y-167685973D01*
X102371638Y-167685973D01*
X102371638Y-168444505D01*
G36*
X115266689Y-173754232D02*
G01*
X114508157Y-173754232D01*
X114508157Y-174512765D01*
X116025222Y-174512765D01*
X116025222Y-172995700D01*
X115266689Y-172995700D01*
X115266689Y-173754232D01*
G37*
X115266689Y-173754232D02*
X114508157Y-173754232D01*
X114508157Y-174512765D01*
X116025222Y-174512765D01*
X116025222Y-172995700D01*
X115266689Y-172995700D01*
X115266689Y-173754232D01*
G36*
X116783754Y-169961570D02*
G01*
X115266689Y-169961570D01*
X115266689Y-170720103D01*
X116025222Y-170720103D01*
X116025222Y-171478635D01*
X116783754Y-171478635D01*
X116783754Y-172237168D01*
X117542286Y-172237168D01*
X117542286Y-172995700D01*
X119059351Y-172995700D01*
X119059351Y-172237168D01*
X118300819Y-172237168D01*
X118300819Y-171478635D01*
X117542286Y-171478635D01*
X117542286Y-169203038D01*
X116783754Y-169203038D01*
X116783754Y-169961570D01*
G37*
X116783754Y-169961570D02*
X115266689Y-169961570D01*
X115266689Y-170720103D01*
X116025222Y-170720103D01*
X116025222Y-171478635D01*
X116783754Y-171478635D01*
X116783754Y-172237168D01*
X117542286Y-172237168D01*
X117542286Y-172995700D01*
X119059351Y-172995700D01*
X119059351Y-172237168D01*
X118300819Y-172237168D01*
X118300819Y-171478635D01*
X117542286Y-171478635D01*
X117542286Y-169203038D01*
X116783754Y-169203038D01*
X116783754Y-169961570D01*
G36*
X116025222Y-172995700D02*
G01*
X116783754Y-172995700D01*
X116783754Y-172237168D01*
X116025222Y-172237168D01*
X116025222Y-172995700D01*
G37*
X116025222Y-172995700D02*
X116783754Y-172995700D01*
X116783754Y-172237168D01*
X116025222Y-172237168D01*
X116025222Y-172995700D01*
G36*
X116025222Y-169203038D02*
G01*
X116783754Y-169203038D01*
X116783754Y-168444505D01*
X116025222Y-168444505D01*
X116025222Y-169203038D01*
G37*
X116025222Y-169203038D02*
X116783754Y-169203038D01*
X116783754Y-168444505D01*
X116025222Y-168444505D01*
X116025222Y-169203038D01*
G36*
X114508157Y-168444505D02*
G01*
X115266689Y-168444505D01*
X115266689Y-167685973D01*
X114508157Y-167685973D01*
X114508157Y-168444505D01*
G37*
X114508157Y-168444505D02*
X115266689Y-168444505D01*
X115266689Y-167685973D01*
X114508157Y-167685973D01*
X114508157Y-168444505D01*
G36*
X110715495Y-163134778D02*
G01*
X111474027Y-163134778D01*
X111474027Y-161617714D01*
X110715495Y-161617714D01*
X110715495Y-163134778D01*
G37*
X110715495Y-163134778D02*
X111474027Y-163134778D01*
X111474027Y-161617714D01*
X110715495Y-161617714D01*
X110715495Y-163134778D01*
G36*
X109198430Y-162376246D02*
G01*
X109956962Y-162376246D01*
X109956962Y-161617714D01*
X109198430Y-161617714D01*
X109198430Y-162376246D01*
G37*
X109198430Y-162376246D02*
X109956962Y-162376246D01*
X109956962Y-161617714D01*
X109198430Y-161617714D01*
X109198430Y-162376246D01*
G36*
X112232559Y-162376246D02*
G01*
X112991092Y-162376246D01*
X112991092Y-161617714D01*
X112232559Y-161617714D01*
X112232559Y-162376246D01*
G37*
X112232559Y-162376246D02*
X112991092Y-162376246D01*
X112991092Y-161617714D01*
X112232559Y-161617714D01*
X112232559Y-162376246D01*
G36*
X111474027Y-161617714D02*
G01*
X112232559Y-161617714D01*
X112232559Y-160859181D01*
X111474027Y-160859181D01*
X111474027Y-161617714D01*
G37*
X111474027Y-161617714D02*
X112232559Y-161617714D01*
X112232559Y-160859181D01*
X111474027Y-160859181D01*
X111474027Y-161617714D01*
G36*
X107681365Y-163893311D02*
G01*
X107681365Y-164651843D01*
X106922832Y-164651843D01*
X106922832Y-165410376D01*
X107681365Y-165410376D01*
X107681365Y-166168908D01*
X109198430Y-166168908D01*
X109198430Y-167685973D01*
X109956962Y-167685973D01*
X109956962Y-166927441D01*
X111474027Y-166927441D01*
X111474027Y-165410376D01*
X110715495Y-165410376D01*
X110715495Y-166168908D01*
X109956962Y-166168908D01*
X109956962Y-165410376D01*
X110715495Y-165410376D01*
X110715495Y-164651843D01*
X111474027Y-164651843D01*
X111474027Y-163893311D01*
X110715495Y-163893311D01*
X110715495Y-164651843D01*
X109956962Y-164651843D01*
X109956962Y-165410376D01*
X109198430Y-165410376D01*
X109198430Y-164651843D01*
X109956962Y-164651843D01*
X109956962Y-163893311D01*
X109198430Y-163893311D01*
X109198430Y-164651843D01*
X108439897Y-164651843D01*
X108439897Y-163893311D01*
X109198430Y-163893311D01*
X109956962Y-163893311D01*
X110715495Y-163893311D01*
X110715495Y-163134778D01*
X109198430Y-163134778D01*
X109198430Y-162376246D01*
X108439897Y-162376246D01*
X108439897Y-163893311D01*
X107681365Y-163893311D01*
G37*
X107681365Y-163893311D02*
X107681365Y-164651843D01*
X106922832Y-164651843D01*
X106922832Y-165410376D01*
X107681365Y-165410376D01*
X107681365Y-166168908D01*
X109198430Y-166168908D01*
X109198430Y-167685973D01*
X109956962Y-167685973D01*
X109956962Y-166927441D01*
X111474027Y-166927441D01*
X111474027Y-165410376D01*
X110715495Y-165410376D01*
X110715495Y-166168908D01*
X109956962Y-166168908D01*
X109956962Y-165410376D01*
X110715495Y-165410376D01*
X110715495Y-164651843D01*
X111474027Y-164651843D01*
X111474027Y-163893311D01*
X110715495Y-163893311D01*
X110715495Y-164651843D01*
X109956962Y-164651843D01*
X109956962Y-165410376D01*
X109198430Y-165410376D01*
X109198430Y-164651843D01*
X109956962Y-164651843D01*
X109956962Y-163893311D01*
X109198430Y-163893311D01*
X109198430Y-164651843D01*
X108439897Y-164651843D01*
X108439897Y-163893311D01*
X109198430Y-163893311D01*
X109956962Y-163893311D01*
X110715495Y-163893311D01*
X110715495Y-163134778D01*
X109198430Y-163134778D01*
X109198430Y-162376246D01*
X108439897Y-162376246D01*
X108439897Y-163893311D01*
X107681365Y-163893311D01*
G36*
X107681365Y-167685973D02*
G01*
X108439897Y-167685973D01*
X108439897Y-166927441D01*
X107681365Y-166927441D01*
X107681365Y-167685973D01*
G37*
X107681365Y-167685973D02*
X108439897Y-167685973D01*
X108439897Y-166927441D01*
X107681365Y-166927441D01*
X107681365Y-167685973D01*
G36*
X104647235Y-161617714D02*
G01*
X105405768Y-161617714D01*
X105405768Y-162376246D01*
X106164300Y-162376246D01*
X106164300Y-161617714D01*
X106922832Y-161617714D01*
X106922832Y-160859181D01*
X104647235Y-160859181D01*
X104647235Y-161617714D01*
G37*
X104647235Y-161617714D02*
X105405768Y-161617714D01*
X105405768Y-162376246D01*
X106164300Y-162376246D01*
X106164300Y-161617714D01*
X106922832Y-161617714D01*
X106922832Y-160859181D01*
X104647235Y-160859181D01*
X104647235Y-161617714D01*
G36*
X115288361Y-163871639D02*
G01*
X119037679Y-163871639D01*
X119037679Y-160859181D01*
X118300819Y-160859181D01*
X118300819Y-163134778D01*
X116025222Y-163134778D01*
X116025222Y-160859181D01*
X118300819Y-160859181D01*
X119037679Y-160859181D01*
X119037679Y-160122321D01*
X115288361Y-160122321D01*
X115288361Y-163871639D01*
G37*
X115288361Y-163871639D02*
X119037679Y-163871639D01*
X119037679Y-160859181D01*
X118300819Y-160859181D01*
X118300819Y-163134778D01*
X116025222Y-163134778D01*
X116025222Y-160859181D01*
X118300819Y-160859181D01*
X119037679Y-160859181D01*
X119037679Y-160122321D01*
X115288361Y-160122321D01*
X115288361Y-163871639D01*
G36*
X98600648Y-163871639D02*
G01*
X102349966Y-163871639D01*
X102349966Y-160859181D01*
X101613105Y-160859181D01*
X101613105Y-163134778D01*
X99337508Y-163134778D01*
X99337508Y-160859181D01*
X101613105Y-160859181D01*
X102349966Y-160859181D01*
X102349966Y-160122321D01*
X98600648Y-160122321D01*
X98600648Y-163871639D01*
G37*
X98600648Y-163871639D02*
X102349966Y-163871639D01*
X102349966Y-160859181D01*
X101613105Y-160859181D01*
X101613105Y-163134778D01*
X99337508Y-163134778D01*
X99337508Y-160859181D01*
X101613105Y-160859181D01*
X102349966Y-160859181D01*
X102349966Y-160122321D01*
X98600648Y-160122321D01*
X98600648Y-163871639D01*
D12*
%TO.C,F1*%
X97045001Y-113193752D02*
X97045001Y-108786248D01*
X91705001Y-113193752D02*
X91705001Y-108786248D01*
%TO.C,F3*%
X143750000Y-113193752D02*
X143750000Y-108786248D01*
X149090000Y-113193752D02*
X149090000Y-108786248D01*
%TO.C,F2*%
X117715000Y-113193752D02*
X117715000Y-108786248D01*
X123055000Y-113193752D02*
X123055000Y-108786248D01*
%TO.C,1*%
X82335000Y-100215000D02*
X82335000Y-101545000D01*
X82335000Y-101545000D02*
X83665000Y-101545000D01*
X84935000Y-101545000D02*
X138335000Y-101545000D01*
X138335000Y-98885000D02*
X138335000Y-101545000D01*
X84935000Y-98885000D02*
X138335000Y-98885000D01*
X84935000Y-98885000D02*
X84935000Y-101545000D01*
%TO.C,44*%
X84935000Y-188885000D02*
X84935000Y-191545000D01*
X84935000Y-188885000D02*
X138335000Y-188885000D01*
X138335000Y-188885000D02*
X138335000Y-191545000D01*
X84935000Y-191545000D02*
X138335000Y-191545000D01*
X82335000Y-191545000D02*
X83665000Y-191545000D01*
X82335000Y-190215000D02*
X82335000Y-191545000D01*
%TO.C,F1*%
D10*
X90593335Y-106818571D02*
X90926668Y-106818571D01*
X90926668Y-107342380D02*
X90926668Y-106342380D01*
X90450478Y-106342380D01*
X89545716Y-107342380D02*
X90117144Y-107342380D01*
X89831430Y-107342380D02*
X89831430Y-106342380D01*
X89926668Y-106485238D01*
X90021906Y-106580476D01*
X90117144Y-106628095D01*
%TO.C,F3*%
X142518333Y-106818571D02*
X142851666Y-106818571D01*
X142851666Y-107342380D02*
X142851666Y-106342380D01*
X142375476Y-106342380D01*
X142089761Y-106342380D02*
X141470714Y-106342380D01*
X141804047Y-106723333D01*
X141661190Y-106723333D01*
X141565952Y-106770952D01*
X141518333Y-106818571D01*
X141470714Y-106913809D01*
X141470714Y-107151904D01*
X141518333Y-107247142D01*
X141565952Y-107294761D01*
X141661190Y-107342380D01*
X141946904Y-107342380D01*
X142042142Y-107294761D01*
X142089761Y-107247142D01*
%TO.C,F2*%
X116533333Y-106818571D02*
X116866666Y-106818571D01*
X116866666Y-107342380D02*
X116866666Y-106342380D01*
X116390476Y-106342380D01*
X116057142Y-106437619D02*
X116009523Y-106390000D01*
X115914285Y-106342380D01*
X115676190Y-106342380D01*
X115580952Y-106390000D01*
X115533333Y-106437619D01*
X115485714Y-106532857D01*
X115485714Y-106628095D01*
X115533333Y-106770952D01*
X116104761Y-107342380D01*
X115485714Y-107342380D01*
%TO.C,1*%
X80609285Y-100667380D02*
X81180714Y-100667380D01*
X80895000Y-100667380D02*
X80895000Y-99667380D01*
X80990238Y-99810238D01*
X81085476Y-99905476D01*
X81180714Y-99953095D01*
%TO.C,44*%
X140775714Y-190055714D02*
X140775714Y-190722380D01*
X141013809Y-189674761D02*
X141251904Y-190389047D01*
X140632857Y-190389047D01*
X139823333Y-190055714D02*
X139823333Y-190722380D01*
X140061428Y-189674761D02*
X140299523Y-190389047D01*
X139680476Y-190389047D01*
%TD*%
M02*
