G04 #@! TF.GenerationSoftware,KiCad,Pcbnew,(5.1.9)-1*
G04 #@! TF.CreationDate,2021-11-09T15:42:33+01:00*
G04 #@! TF.ProjectId,RelayControls-HPK,52656c61-7943-46f6-9e74-726f6c732d48,V0.1*
G04 #@! TF.SameCoordinates,Original*
G04 #@! TF.FileFunction,Paste,Top*
G04 #@! TF.FilePolarity,Positive*
%FSLAX46Y46*%
G04 Gerber Fmt 4.6, Leading zero omitted, Abs format (unit mm)*
G04 Created by KiCad (PCBNEW (5.1.9)-1) date 2021-11-09 15:42:33*
%MOMM*%
%LPD*%
G01*
G04 APERTURE LIST*
G04 APERTURE END LIST*
G36*
G01*
X34345001Y-58486815D02*
X33094999Y-58486815D01*
G75*
G02*
X32845000Y-58236816I0J249999D01*
G01*
X32845000Y-57611814D01*
G75*
G02*
X33094999Y-57361815I249999J0D01*
G01*
X34345001Y-57361815D01*
G75*
G02*
X34595000Y-57611814I0J-249999D01*
G01*
X34595000Y-58236816D01*
G75*
G02*
X34345001Y-58486815I-249999J0D01*
G01*
G37*
G36*
G01*
X34345001Y-61411815D02*
X33094999Y-61411815D01*
G75*
G02*
X32845000Y-61161816I0J249999D01*
G01*
X32845000Y-60536814D01*
G75*
G02*
X33094999Y-60286815I249999J0D01*
G01*
X34345001Y-60286815D01*
G75*
G02*
X34595000Y-60536814I0J-249999D01*
G01*
X34595000Y-61161816D01*
G75*
G02*
X34345001Y-61411815I-249999J0D01*
G01*
G37*
G36*
G01*
X34345001Y-116736815D02*
X33094999Y-116736815D01*
G75*
G02*
X32845000Y-116486816I0J249999D01*
G01*
X32845000Y-115861814D01*
G75*
G02*
X33094999Y-115611815I249999J0D01*
G01*
X34345001Y-115611815D01*
G75*
G02*
X34595000Y-115861814I0J-249999D01*
G01*
X34595000Y-116486816D01*
G75*
G02*
X34345001Y-116736815I-249999J0D01*
G01*
G37*
G36*
G01*
X34345001Y-113811815D02*
X33094999Y-113811815D01*
G75*
G02*
X32845000Y-113561816I0J249999D01*
G01*
X32845000Y-112936814D01*
G75*
G02*
X33094999Y-112686815I249999J0D01*
G01*
X34345001Y-112686815D01*
G75*
G02*
X34595000Y-112936814I0J-249999D01*
G01*
X34595000Y-113561816D01*
G75*
G02*
X34345001Y-113811815I-249999J0D01*
G01*
G37*
G36*
G01*
X34345001Y-172116815D02*
X33094999Y-172116815D01*
G75*
G02*
X32845000Y-171866816I0J249999D01*
G01*
X32845000Y-171241814D01*
G75*
G02*
X33094999Y-170991815I249999J0D01*
G01*
X34345001Y-170991815D01*
G75*
G02*
X34595000Y-171241814I0J-249999D01*
G01*
X34595000Y-171866816D01*
G75*
G02*
X34345001Y-172116815I-249999J0D01*
G01*
G37*
G36*
G01*
X34345001Y-169191815D02*
X33094999Y-169191815D01*
G75*
G02*
X32845000Y-168941816I0J249999D01*
G01*
X32845000Y-168316814D01*
G75*
G02*
X33094999Y-168066815I249999J0D01*
G01*
X34345001Y-168066815D01*
G75*
G02*
X34595000Y-168316814I0J-249999D01*
G01*
X34595000Y-168941816D01*
G75*
G02*
X34345001Y-169191815I-249999J0D01*
G01*
G37*
M02*
