M48
; DRILL file {KiCad (5.1.9)-1} date 11/09/21 15:42:36
; FORMAT={-:-/ absolute / metric / decimal}
; #@! TF.CreationDate,2021-11-09T15:42:36+01:00
; #@! TF.GenerationSoftware,Kicad,Pcbnew,(5.1.9)-1
; #@! TF.FileFunction,Plated,1,2,PTH
FMAT,2
METRIC
T1C0.700
T2C0.800
T3C1.000
T4C1.100
T5C3.200
T6C4.000
%
G90
G05
T1
X20.45Y-51.747
X20.45Y-54.187
X20.45Y-64.447
X20.45Y-66.987
X20.45Y-107.072
X20.45Y-109.512
X20.45Y-119.772
X20.45Y-122.312
X20.45Y-162.452
X20.45Y-164.892
X20.45Y-175.152
X20.45Y-177.692
X28.07Y-51.747
X28.07Y-54.187
X28.07Y-64.447
X28.07Y-66.987
X28.07Y-107.072
X28.07Y-109.512
X28.07Y-119.772
X28.07Y-122.312
X28.07Y-162.452
X28.07Y-164.892
X28.07Y-175.152
X28.07Y-177.692
T2
X28.11Y-56.25
X28.11Y-111.44
X28.13Y-167.17
X37.275Y-168.629
X37.275Y-171.169
X37.29Y-57.924
X37.29Y-60.464
X37.3Y-113.249
X37.3Y-115.789
T3
X64.45Y-69.73
X64.45Y-159.73
X66.99Y-69.73
X66.99Y-159.73
X69.53Y-69.73
X69.53Y-159.73
X72.07Y-69.73
X72.07Y-159.73
X74.61Y-69.73
X74.61Y-159.73
X77.15Y-69.73
X77.15Y-159.73
X79.69Y-69.73
X79.69Y-159.73
X82.23Y-69.73
X82.23Y-159.73
X84.77Y-69.73
X84.77Y-159.73
X87.31Y-69.73
X87.31Y-159.73
X89.85Y-69.73
X89.85Y-159.73
X92.39Y-69.73
X92.39Y-159.73
X94.93Y-69.73
X94.93Y-159.73
X97.47Y-69.73
X97.47Y-159.73
X100.01Y-69.73
X100.01Y-159.73
X102.55Y-69.73
X102.55Y-159.73
X105.09Y-69.73
X105.09Y-159.73
X107.63Y-69.73
X107.63Y-159.73
X110.17Y-69.73
X110.17Y-159.73
X112.71Y-69.73
X112.71Y-159.73
X115.25Y-69.73
X115.25Y-159.73
X117.79Y-69.73
X117.79Y-159.73
T4
X65.79Y-105.41
X68.63Y-91.88
X69.53Y-82.96
X71.73Y-95.6
X73.97Y-116.0
X82.51Y-179.63
X82.63Y-172.48
X82.63Y-176.18
X82.88Y-168.16
X102.52Y-90.78
X102.52Y-118.23
X102.52Y-127.43
X105.81Y-123.02
X112.88Y-123.02
X114.56Y-168.16
X127.265Y-167.795
T5
X46.12Y-69.69
X46.12Y-159.69
X136.11Y-69.7
X136.11Y-159.7
T6
X26.88Y-201.29
X27.0Y-29.16
X37.275Y-149.033
X37.275Y-191.077
X37.3Y-39.333
X37.3Y-80.377
X37.3Y-93.653
X37.3Y-135.697
X50.875Y-149.033
X50.9Y-39.333
X50.9Y-93.653
X59.157Y-191.077
X59.182Y-80.34
X59.182Y-135.697
X63.45Y-149.033
X63.475Y-39.333
X63.475Y-93.653
X79.4Y-149.033
X79.425Y-39.333
X79.425Y-93.653
X87.682Y-191.077
X87.7Y-135.697
X87.707Y-80.34
X91.975Y-149.033
X92.0Y-39.333
X92.0Y-93.653
X107.945Y-149.033
X107.97Y-39.333
X107.97Y-93.653
X116.227Y-191.077
X116.252Y-80.377
X116.252Y-135.697
X120.5Y-149.033
X120.525Y-39.333
X120.525Y-93.653
X136.47Y-149.033
X136.495Y-39.3
X136.495Y-93.653
X144.752Y-191.077
X144.778Y-80.377
X144.778Y-135.697
X149.045Y-149.033
X149.07Y-39.3
X149.07Y-93.653
X157.43Y-29.16
X157.43Y-200.3
T3
G00X24.38Y-197.29
M15
G01X29.38Y-197.29
M16
G05
G00X29.5Y-33.16
M15
G01X24.5Y-33.16
M16
G05
G00X39.775Y-153.033
M15
G01X34.775Y-153.033
M16
G05
G00X34.775Y-187.077
M15
G01X39.775Y-187.077
M16
G05
G00X39.8Y-43.333
M15
G01X34.8Y-43.333
M16
G05
G00X34.8Y-76.377
M15
G01X39.8Y-76.377
M16
G05
G00X39.8Y-97.653
M15
G01X34.8Y-97.653
M16
G05
G00X34.8Y-131.697
M15
G01X39.8Y-131.697
M16
G05
G00X53.375Y-153.033
M15
G01X48.375Y-153.033
M16
G05
G00X53.4Y-43.333
M15
G01X48.4Y-43.333
M16
G05
G00X53.4Y-97.653
M15
G01X48.4Y-97.653
M16
G05
G00X56.657Y-187.077
M15
G01X61.657Y-187.077
M16
G05
G00X56.682Y-76.34
M15
G01X61.682Y-76.34
M16
G05
G00X56.682Y-131.697
M15
G01X61.682Y-131.697
M16
G05
G00X65.95Y-153.033
M15
G01X60.95Y-153.033
M16
G05
G00X65.975Y-43.333
M15
G01X60.975Y-43.333
M16
G05
G00X65.975Y-97.653
M15
G01X60.975Y-97.653
M16
G05
G00X81.9Y-153.033
M15
G01X76.9Y-153.033
M16
G05
G00X81.925Y-43.333
M15
G01X76.925Y-43.333
M16
G05
G00X81.925Y-97.653
M15
G01X76.925Y-97.653
M16
G05
G00X85.182Y-187.077
M15
G01X90.182Y-187.077
M16
G05
G00X85.2Y-131.697
M15
G01X90.2Y-131.697
M16
G05
G00X85.207Y-76.34
M15
G01X90.207Y-76.34
M16
G05
G00X94.475Y-153.033
M15
G01X89.475Y-153.033
M16
G05
G00X94.5Y-43.333
M15
G01X89.5Y-43.333
M16
G05
G00X94.5Y-97.653
M15
G01X89.5Y-97.653
M16
G05
G00X110.445Y-153.033
M15
G01X105.445Y-153.033
M16
G05
G00X110.47Y-43.333
M15
G01X105.47Y-43.333
M16
G05
G00X110.47Y-97.653
M15
G01X105.47Y-97.653
M16
G05
G00X113.727Y-187.077
M15
G01X118.727Y-187.077
M16
G05
G00X113.752Y-76.377
M15
G01X118.752Y-76.377
M16
G05
G00X113.752Y-131.697
M15
G01X118.752Y-131.697
M16
G05
G00X123.0Y-153.033
M15
G01X118.0Y-153.033
M16
G05
G00X123.025Y-43.333
M15
G01X118.025Y-43.333
M16
G05
G00X123.025Y-97.653
M15
G01X118.025Y-97.653
M16
G05
G00X138.97Y-153.033
M15
G01X133.97Y-153.033
M16
G05
G00X138.995Y-43.3
M15
G01X133.995Y-43.3
M16
G05
G00X138.995Y-97.653
M15
G01X133.995Y-97.653
M16
G05
G00X142.252Y-187.077
M15
G01X147.252Y-187.077
M16
G05
G00X142.278Y-76.377
M15
G01X147.278Y-76.377
M16
G05
G00X142.278Y-131.697
M15
G01X147.278Y-131.697
M16
G05
G00X151.545Y-153.033
M15
G01X146.545Y-153.033
M16
G05
G00X151.57Y-43.3
M15
G01X146.57Y-43.3
M16
G05
G00X151.57Y-97.653
M15
G01X146.57Y-97.653
M16
G05
G00X159.93Y-33.16
M15
G01X154.93Y-33.16
M16
G05
G00X154.93Y-196.3
M15
G01X159.93Y-196.3
M16
G05
T0
M30
