G04 #@! TF.GenerationSoftware,KiCad,Pcbnew,(5.1.9)-1*
G04 #@! TF.CreationDate,2021-11-09T15:42:33+01:00*
G04 #@! TF.ProjectId,RelayControls-HPK,52656c61-7943-46f6-9e74-726f6c732d48,V0.1*
G04 #@! TF.SameCoordinates,Original*
G04 #@! TF.FileFunction,Copper,L1,Top*
G04 #@! TF.FilePolarity,Positive*
%FSLAX46Y46*%
G04 Gerber Fmt 4.6, Leading zero omitted, Abs format (unit mm)*
G04 Created by KiCad (PCBNEW (5.1.9)-1) date 2021-11-09 15:42:33*
%MOMM*%
%LPD*%
G01*
G04 APERTURE LIST*
G04 #@! TA.AperFunction,ComponentPad*
%ADD10C,5.600000*%
G04 #@! TD*
G04 #@! TA.AperFunction,ComponentPad*
%ADD11C,0.100000*%
G04 #@! TD*
G04 #@! TA.AperFunction,ComponentPad*
%ADD12R,1.600000X1.600000*%
G04 #@! TD*
G04 #@! TA.AperFunction,ComponentPad*
%ADD13O,1.600000X1.600000*%
G04 #@! TD*
G04 #@! TA.AperFunction,ComponentPad*
%ADD14C,1.400000*%
G04 #@! TD*
G04 #@! TA.AperFunction,ComponentPad*
%ADD15R,1.400000X1.400000*%
G04 #@! TD*
G04 #@! TA.AperFunction,ComponentPad*
%ADD16R,1.700000X1.700000*%
G04 #@! TD*
G04 #@! TA.AperFunction,ComponentPad*
%ADD17O,1.700000X1.700000*%
G04 #@! TD*
G04 #@! TA.AperFunction,ViaPad*
%ADD18C,1.200000*%
G04 #@! TD*
G04 #@! TA.AperFunction,ViaPad*
%ADD19C,1.500000*%
G04 #@! TD*
G04 #@! TA.AperFunction,Conductor*
%ADD20C,1.000000*%
G04 #@! TD*
G04 #@! TA.AperFunction,Conductor*
%ADD21C,2.000000*%
G04 #@! TD*
G04 #@! TA.AperFunction,Conductor*
%ADD22C,3.000000*%
G04 #@! TD*
G04 #@! TA.AperFunction,Conductor*
%ADD23C,0.250000*%
G04 #@! TD*
G04 #@! TA.AperFunction,Conductor*
%ADD24C,1.500000*%
G04 #@! TD*
G04 #@! TA.AperFunction,Conductor*
%ADD25C,0.254000*%
G04 #@! TD*
G04 #@! TA.AperFunction,Conductor*
%ADD26C,0.100000*%
G04 #@! TD*
G04 APERTURE END LIST*
D10*
X136110000Y-69700000D03*
X46120000Y-69690000D03*
X46120000Y-159690000D03*
X136110000Y-159700000D03*
G04 #@! TA.AperFunction,ComponentPad*
D11*
G36*
X36834809Y-194044753D02*
G01*
X36546059Y-193987317D01*
X36264330Y-193901855D01*
X35992335Y-193789191D01*
X35732692Y-193650409D01*
X35487902Y-193486846D01*
X35260323Y-193300076D01*
X35052147Y-193091900D01*
X34865377Y-192864321D01*
X34701814Y-192619531D01*
X34563032Y-192359888D01*
X34450368Y-192087893D01*
X34364906Y-191806164D01*
X34307470Y-191517414D01*
X34278614Y-191224426D01*
X34278614Y-190930020D01*
X34307470Y-190637032D01*
X34364906Y-190348282D01*
X34450368Y-190066553D01*
X34563032Y-189794558D01*
X34701814Y-189534915D01*
X34865377Y-189290125D01*
X35052147Y-189062546D01*
X35156235Y-188958458D01*
X34275000Y-188077223D01*
X40275000Y-188077223D01*
X39393765Y-188958458D01*
X39497853Y-189062546D01*
X39684623Y-189290125D01*
X39848186Y-189534915D01*
X39986968Y-189794558D01*
X40099632Y-190066553D01*
X40185094Y-190348282D01*
X40242530Y-190637032D01*
X40271386Y-190930020D01*
X40271386Y-191224426D01*
X40242530Y-191517414D01*
X40185094Y-191806164D01*
X40099632Y-192087893D01*
X39986968Y-192359888D01*
X39848186Y-192619531D01*
X39684623Y-192864321D01*
X39497853Y-193091900D01*
X39289677Y-193300076D01*
X39062098Y-193486846D01*
X38817308Y-193650409D01*
X38557665Y-193789191D01*
X38285670Y-193901855D01*
X38003941Y-193987317D01*
X37715191Y-194044753D01*
X37422203Y-194073609D01*
X37127797Y-194073609D01*
X36834809Y-194044753D01*
G37*
G04 #@! TD.AperFunction*
G04 #@! TA.AperFunction,ComponentPad*
G36*
G01*
X40275000Y-188077223D02*
X34275000Y-188077223D01*
G75*
G02*
X33775000Y-187577223I0J500000D01*
G01*
X33775000Y-186577223D01*
G75*
G02*
X34275000Y-186077223I500000J0D01*
G01*
X40275000Y-186077223D01*
G75*
G02*
X40775000Y-186577223I0J-500000D01*
G01*
X40775000Y-187577223D01*
G75*
G02*
X40275000Y-188077223I-500000J0D01*
G01*
G37*
G04 #@! TD.AperFunction*
G04 #@! TA.AperFunction,ComponentPad*
G36*
X27440191Y-26192470D02*
G01*
X27728941Y-26249906D01*
X28010670Y-26335368D01*
X28282665Y-26448032D01*
X28542308Y-26586814D01*
X28787098Y-26750377D01*
X29014677Y-26937147D01*
X29222853Y-27145323D01*
X29409623Y-27372902D01*
X29573186Y-27617692D01*
X29711968Y-27877335D01*
X29824632Y-28149330D01*
X29910094Y-28431059D01*
X29967530Y-28719809D01*
X29996386Y-29012797D01*
X29996386Y-29307203D01*
X29967530Y-29600191D01*
X29910094Y-29888941D01*
X29824632Y-30170670D01*
X29711968Y-30442665D01*
X29573186Y-30702308D01*
X29409623Y-30947098D01*
X29222853Y-31174677D01*
X29118765Y-31278765D01*
X30000000Y-32160000D01*
X24000000Y-32160000D01*
X24881235Y-31278765D01*
X24777147Y-31174677D01*
X24590377Y-30947098D01*
X24426814Y-30702308D01*
X24288032Y-30442665D01*
X24175368Y-30170670D01*
X24089906Y-29888941D01*
X24032470Y-29600191D01*
X24003614Y-29307203D01*
X24003614Y-29012797D01*
X24032470Y-28719809D01*
X24089906Y-28431059D01*
X24175368Y-28149330D01*
X24288032Y-27877335D01*
X24426814Y-27617692D01*
X24590377Y-27372902D01*
X24777147Y-27145323D01*
X24985323Y-26937147D01*
X25212902Y-26750377D01*
X25457692Y-26586814D01*
X25717335Y-26448032D01*
X25989330Y-26335368D01*
X26271059Y-26249906D01*
X26559809Y-26192470D01*
X26852797Y-26163614D01*
X27147203Y-26163614D01*
X27440191Y-26192470D01*
G37*
G04 #@! TD.AperFunction*
G04 #@! TA.AperFunction,ComponentPad*
G36*
G01*
X24000000Y-32160000D02*
X30000000Y-32160000D01*
G75*
G02*
X30500000Y-32660000I0J-500000D01*
G01*
X30500000Y-33660000D01*
G75*
G02*
X30000000Y-34160000I-500000J0D01*
G01*
X24000000Y-34160000D01*
G75*
G02*
X23500000Y-33660000I0J500000D01*
G01*
X23500000Y-32660000D01*
G75*
G02*
X24000000Y-32160000I500000J0D01*
G01*
G37*
G04 #@! TD.AperFunction*
G04 #@! TA.AperFunction,ComponentPad*
G36*
X26439809Y-204257530D02*
G01*
X26151059Y-204200094D01*
X25869330Y-204114632D01*
X25597335Y-204001968D01*
X25337692Y-203863186D01*
X25092902Y-203699623D01*
X24865323Y-203512853D01*
X24657147Y-203304677D01*
X24470377Y-203077098D01*
X24306814Y-202832308D01*
X24168032Y-202572665D01*
X24055368Y-202300670D01*
X23969906Y-202018941D01*
X23912470Y-201730191D01*
X23883614Y-201437203D01*
X23883614Y-201142797D01*
X23912470Y-200849809D01*
X23969906Y-200561059D01*
X24055368Y-200279330D01*
X24168032Y-200007335D01*
X24306814Y-199747692D01*
X24470377Y-199502902D01*
X24657147Y-199275323D01*
X24761235Y-199171235D01*
X23880000Y-198290000D01*
X29880000Y-198290000D01*
X28998765Y-199171235D01*
X29102853Y-199275323D01*
X29289623Y-199502902D01*
X29453186Y-199747692D01*
X29591968Y-200007335D01*
X29704632Y-200279330D01*
X29790094Y-200561059D01*
X29847530Y-200849809D01*
X29876386Y-201142797D01*
X29876386Y-201437203D01*
X29847530Y-201730191D01*
X29790094Y-202018941D01*
X29704632Y-202300670D01*
X29591968Y-202572665D01*
X29453186Y-202832308D01*
X29289623Y-203077098D01*
X29102853Y-203304677D01*
X28894677Y-203512853D01*
X28667098Y-203699623D01*
X28422308Y-203863186D01*
X28162665Y-204001968D01*
X27890670Y-204114632D01*
X27608941Y-204200094D01*
X27320191Y-204257530D01*
X27027203Y-204286386D01*
X26732797Y-204286386D01*
X26439809Y-204257530D01*
G37*
G04 #@! TD.AperFunction*
G04 #@! TA.AperFunction,ComponentPad*
G36*
G01*
X29880000Y-198290000D02*
X23880000Y-198290000D01*
G75*
G02*
X23380000Y-197790000I0J500000D01*
G01*
X23380000Y-196790000D01*
G75*
G02*
X23880000Y-196290000I500000J0D01*
G01*
X29880000Y-196290000D01*
G75*
G02*
X30380000Y-196790000I0J-500000D01*
G01*
X30380000Y-197790000D01*
G75*
G02*
X29880000Y-198290000I-500000J0D01*
G01*
G37*
G04 #@! TD.AperFunction*
G04 #@! TA.AperFunction,ComponentPad*
G36*
X36859809Y-83344753D02*
G01*
X36571059Y-83287317D01*
X36289330Y-83201855D01*
X36017335Y-83089191D01*
X35757692Y-82950409D01*
X35512902Y-82786846D01*
X35285323Y-82600076D01*
X35077147Y-82391900D01*
X34890377Y-82164321D01*
X34726814Y-81919531D01*
X34588032Y-81659888D01*
X34475368Y-81387893D01*
X34389906Y-81106164D01*
X34332470Y-80817414D01*
X34303614Y-80524426D01*
X34303614Y-80230020D01*
X34332470Y-79937032D01*
X34389906Y-79648282D01*
X34475368Y-79366553D01*
X34588032Y-79094558D01*
X34726814Y-78834915D01*
X34890377Y-78590125D01*
X35077147Y-78362546D01*
X35181235Y-78258458D01*
X34300000Y-77377223D01*
X40300000Y-77377223D01*
X39418765Y-78258458D01*
X39522853Y-78362546D01*
X39709623Y-78590125D01*
X39873186Y-78834915D01*
X40011968Y-79094558D01*
X40124632Y-79366553D01*
X40210094Y-79648282D01*
X40267530Y-79937032D01*
X40296386Y-80230020D01*
X40296386Y-80524426D01*
X40267530Y-80817414D01*
X40210094Y-81106164D01*
X40124632Y-81387893D01*
X40011968Y-81659888D01*
X39873186Y-81919531D01*
X39709623Y-82164321D01*
X39522853Y-82391900D01*
X39314677Y-82600076D01*
X39087098Y-82786846D01*
X38842308Y-82950409D01*
X38582665Y-83089191D01*
X38310670Y-83201855D01*
X38028941Y-83287317D01*
X37740191Y-83344753D01*
X37447203Y-83373609D01*
X37152797Y-83373609D01*
X36859809Y-83344753D01*
G37*
G04 #@! TD.AperFunction*
G04 #@! TA.AperFunction,ComponentPad*
G36*
G01*
X40300000Y-77377223D02*
X34300000Y-77377223D01*
G75*
G02*
X33800000Y-76877223I0J500000D01*
G01*
X33800000Y-75877223D01*
G75*
G02*
X34300000Y-75377223I500000J0D01*
G01*
X40300000Y-75377223D01*
G75*
G02*
X40800000Y-75877223I0J-500000D01*
G01*
X40800000Y-76877223D01*
G75*
G02*
X40300000Y-77377223I-500000J0D01*
G01*
G37*
G04 #@! TD.AperFunction*
G04 #@! TA.AperFunction,ComponentPad*
G36*
G01*
X62182500Y-77340000D02*
X56182500Y-77340000D01*
G75*
G02*
X55682500Y-76840000I0J500000D01*
G01*
X55682500Y-75840000D01*
G75*
G02*
X56182500Y-75340000I500000J0D01*
G01*
X62182500Y-75340000D01*
G75*
G02*
X62682500Y-75840000I0J-500000D01*
G01*
X62682500Y-76840000D01*
G75*
G02*
X62182500Y-77340000I-500000J0D01*
G01*
G37*
G04 #@! TD.AperFunction*
G04 #@! TA.AperFunction,ComponentPad*
G36*
X58742309Y-83307530D02*
G01*
X58453559Y-83250094D01*
X58171830Y-83164632D01*
X57899835Y-83051968D01*
X57640192Y-82913186D01*
X57395402Y-82749623D01*
X57167823Y-82562853D01*
X56959647Y-82354677D01*
X56772877Y-82127098D01*
X56609314Y-81882308D01*
X56470532Y-81622665D01*
X56357868Y-81350670D01*
X56272406Y-81068941D01*
X56214970Y-80780191D01*
X56186114Y-80487203D01*
X56186114Y-80192797D01*
X56214970Y-79899809D01*
X56272406Y-79611059D01*
X56357868Y-79329330D01*
X56470532Y-79057335D01*
X56609314Y-78797692D01*
X56772877Y-78552902D01*
X56959647Y-78325323D01*
X57063735Y-78221235D01*
X56182500Y-77340000D01*
X62182500Y-77340000D01*
X61301265Y-78221235D01*
X61405353Y-78325323D01*
X61592123Y-78552902D01*
X61755686Y-78797692D01*
X61894468Y-79057335D01*
X62007132Y-79329330D01*
X62092594Y-79611059D01*
X62150030Y-79899809D01*
X62178886Y-80192797D01*
X62178886Y-80487203D01*
X62150030Y-80780191D01*
X62092594Y-81068941D01*
X62007132Y-81350670D01*
X61894468Y-81622665D01*
X61755686Y-81882308D01*
X61592123Y-82127098D01*
X61405353Y-82354677D01*
X61197177Y-82562853D01*
X60969598Y-82749623D01*
X60724808Y-82913186D01*
X60465165Y-83051968D01*
X60193170Y-83164632D01*
X59911441Y-83250094D01*
X59622691Y-83307530D01*
X59329703Y-83336386D01*
X59035297Y-83336386D01*
X58742309Y-83307530D01*
G37*
G04 #@! TD.AperFunction*
G04 #@! TA.AperFunction,ComponentPad*
G36*
G01*
X119252500Y-77377223D02*
X113252500Y-77377223D01*
G75*
G02*
X112752500Y-76877223I0J500000D01*
G01*
X112752500Y-75877223D01*
G75*
G02*
X113252500Y-75377223I500000J0D01*
G01*
X119252500Y-75377223D01*
G75*
G02*
X119752500Y-75877223I0J-500000D01*
G01*
X119752500Y-76877223D01*
G75*
G02*
X119252500Y-77377223I-500000J0D01*
G01*
G37*
G04 #@! TD.AperFunction*
G04 #@! TA.AperFunction,ComponentPad*
G36*
X115812309Y-83344753D02*
G01*
X115523559Y-83287317D01*
X115241830Y-83201855D01*
X114969835Y-83089191D01*
X114710192Y-82950409D01*
X114465402Y-82786846D01*
X114237823Y-82600076D01*
X114029647Y-82391900D01*
X113842877Y-82164321D01*
X113679314Y-81919531D01*
X113540532Y-81659888D01*
X113427868Y-81387893D01*
X113342406Y-81106164D01*
X113284970Y-80817414D01*
X113256114Y-80524426D01*
X113256114Y-80230020D01*
X113284970Y-79937032D01*
X113342406Y-79648282D01*
X113427868Y-79366553D01*
X113540532Y-79094558D01*
X113679314Y-78834915D01*
X113842877Y-78590125D01*
X114029647Y-78362546D01*
X114133735Y-78258458D01*
X113252500Y-77377223D01*
X119252500Y-77377223D01*
X118371265Y-78258458D01*
X118475353Y-78362546D01*
X118662123Y-78590125D01*
X118825686Y-78834915D01*
X118964468Y-79094558D01*
X119077132Y-79366553D01*
X119162594Y-79648282D01*
X119220030Y-79937032D01*
X119248886Y-80230020D01*
X119248886Y-80524426D01*
X119220030Y-80817414D01*
X119162594Y-81106164D01*
X119077132Y-81387893D01*
X118964468Y-81659888D01*
X118825686Y-81919531D01*
X118662123Y-82164321D01*
X118475353Y-82391900D01*
X118267177Y-82600076D01*
X118039598Y-82786846D01*
X117794808Y-82950409D01*
X117535165Y-83089191D01*
X117263170Y-83201855D01*
X116981441Y-83287317D01*
X116692691Y-83344753D01*
X116399703Y-83373609D01*
X116105297Y-83373609D01*
X115812309Y-83344753D01*
G37*
G04 #@! TD.AperFunction*
G04 #@! TA.AperFunction,ComponentPad*
G36*
X87267309Y-83307530D02*
G01*
X86978559Y-83250094D01*
X86696830Y-83164632D01*
X86424835Y-83051968D01*
X86165192Y-82913186D01*
X85920402Y-82749623D01*
X85692823Y-82562853D01*
X85484647Y-82354677D01*
X85297877Y-82127098D01*
X85134314Y-81882308D01*
X84995532Y-81622665D01*
X84882868Y-81350670D01*
X84797406Y-81068941D01*
X84739970Y-80780191D01*
X84711114Y-80487203D01*
X84711114Y-80192797D01*
X84739970Y-79899809D01*
X84797406Y-79611059D01*
X84882868Y-79329330D01*
X84995532Y-79057335D01*
X85134314Y-78797692D01*
X85297877Y-78552902D01*
X85484647Y-78325323D01*
X85588735Y-78221235D01*
X84707500Y-77340000D01*
X90707500Y-77340000D01*
X89826265Y-78221235D01*
X89930353Y-78325323D01*
X90117123Y-78552902D01*
X90280686Y-78797692D01*
X90419468Y-79057335D01*
X90532132Y-79329330D01*
X90617594Y-79611059D01*
X90675030Y-79899809D01*
X90703886Y-80192797D01*
X90703886Y-80487203D01*
X90675030Y-80780191D01*
X90617594Y-81068941D01*
X90532132Y-81350670D01*
X90419468Y-81622665D01*
X90280686Y-81882308D01*
X90117123Y-82127098D01*
X89930353Y-82354677D01*
X89722177Y-82562853D01*
X89494598Y-82749623D01*
X89249808Y-82913186D01*
X88990165Y-83051968D01*
X88718170Y-83164632D01*
X88436441Y-83250094D01*
X88147691Y-83307530D01*
X87854703Y-83336386D01*
X87560297Y-83336386D01*
X87267309Y-83307530D01*
G37*
G04 #@! TD.AperFunction*
G04 #@! TA.AperFunction,ComponentPad*
G36*
G01*
X90707500Y-77340000D02*
X84707500Y-77340000D01*
G75*
G02*
X84207500Y-76840000I0J500000D01*
G01*
X84207500Y-75840000D01*
G75*
G02*
X84707500Y-75340000I500000J0D01*
G01*
X90707500Y-75340000D01*
G75*
G02*
X91207500Y-75840000I0J-500000D01*
G01*
X91207500Y-76840000D01*
G75*
G02*
X90707500Y-77340000I-500000J0D01*
G01*
G37*
G04 #@! TD.AperFunction*
G04 #@! TA.AperFunction,ComponentPad*
G36*
X144337309Y-83344753D02*
G01*
X144048559Y-83287317D01*
X143766830Y-83201855D01*
X143494835Y-83089191D01*
X143235192Y-82950409D01*
X142990402Y-82786846D01*
X142762823Y-82600076D01*
X142554647Y-82391900D01*
X142367877Y-82164321D01*
X142204314Y-81919531D01*
X142065532Y-81659888D01*
X141952868Y-81387893D01*
X141867406Y-81106164D01*
X141809970Y-80817414D01*
X141781114Y-80524426D01*
X141781114Y-80230020D01*
X141809970Y-79937032D01*
X141867406Y-79648282D01*
X141952868Y-79366553D01*
X142065532Y-79094558D01*
X142204314Y-78834915D01*
X142367877Y-78590125D01*
X142554647Y-78362546D01*
X142658735Y-78258458D01*
X141777500Y-77377223D01*
X147777500Y-77377223D01*
X146896265Y-78258458D01*
X147000353Y-78362546D01*
X147187123Y-78590125D01*
X147350686Y-78834915D01*
X147489468Y-79094558D01*
X147602132Y-79366553D01*
X147687594Y-79648282D01*
X147745030Y-79937032D01*
X147773886Y-80230020D01*
X147773886Y-80524426D01*
X147745030Y-80817414D01*
X147687594Y-81106164D01*
X147602132Y-81387893D01*
X147489468Y-81659888D01*
X147350686Y-81919531D01*
X147187123Y-82164321D01*
X147000353Y-82391900D01*
X146792177Y-82600076D01*
X146564598Y-82786846D01*
X146319808Y-82950409D01*
X146060165Y-83089191D01*
X145788170Y-83201855D01*
X145506441Y-83287317D01*
X145217691Y-83344753D01*
X144924703Y-83373609D01*
X144630297Y-83373609D01*
X144337309Y-83344753D01*
G37*
G04 #@! TD.AperFunction*
G04 #@! TA.AperFunction,ComponentPad*
G36*
G01*
X147777500Y-77377223D02*
X141777500Y-77377223D01*
G75*
G02*
X141277500Y-76877223I0J500000D01*
G01*
X141277500Y-75877223D01*
G75*
G02*
X141777500Y-75377223I500000J0D01*
G01*
X147777500Y-75377223D01*
G75*
G02*
X148277500Y-75877223I0J-500000D01*
G01*
X148277500Y-76877223D01*
G75*
G02*
X147777500Y-77377223I-500000J0D01*
G01*
G37*
G04 #@! TD.AperFunction*
G04 #@! TA.AperFunction,ComponentPad*
G36*
G01*
X34300000Y-42332777D02*
X40300000Y-42332777D01*
G75*
G02*
X40800000Y-42832777I0J-500000D01*
G01*
X40800000Y-43832777D01*
G75*
G02*
X40300000Y-44332777I-500000J0D01*
G01*
X34300000Y-44332777D01*
G75*
G02*
X33800000Y-43832777I0J500000D01*
G01*
X33800000Y-42832777D01*
G75*
G02*
X34300000Y-42332777I500000J0D01*
G01*
G37*
G04 #@! TD.AperFunction*
G04 #@! TA.AperFunction,ComponentPad*
G36*
X37740191Y-36365247D02*
G01*
X38028941Y-36422683D01*
X38310670Y-36508145D01*
X38582665Y-36620809D01*
X38842308Y-36759591D01*
X39087098Y-36923154D01*
X39314677Y-37109924D01*
X39522853Y-37318100D01*
X39709623Y-37545679D01*
X39873186Y-37790469D01*
X40011968Y-38050112D01*
X40124632Y-38322107D01*
X40210094Y-38603836D01*
X40267530Y-38892586D01*
X40296386Y-39185574D01*
X40296386Y-39479980D01*
X40267530Y-39772968D01*
X40210094Y-40061718D01*
X40124632Y-40343447D01*
X40011968Y-40615442D01*
X39873186Y-40875085D01*
X39709623Y-41119875D01*
X39522853Y-41347454D01*
X39418765Y-41451542D01*
X40300000Y-42332777D01*
X34300000Y-42332777D01*
X35181235Y-41451542D01*
X35077147Y-41347454D01*
X34890377Y-41119875D01*
X34726814Y-40875085D01*
X34588032Y-40615442D01*
X34475368Y-40343447D01*
X34389906Y-40061718D01*
X34332470Y-39772968D01*
X34303614Y-39479980D01*
X34303614Y-39185574D01*
X34332470Y-38892586D01*
X34389906Y-38603836D01*
X34475368Y-38322107D01*
X34588032Y-38050112D01*
X34726814Y-37790469D01*
X34890377Y-37545679D01*
X35077147Y-37318100D01*
X35285323Y-37109924D01*
X35512902Y-36923154D01*
X35757692Y-36759591D01*
X36017335Y-36620809D01*
X36289330Y-36508145D01*
X36571059Y-36422683D01*
X36859809Y-36365247D01*
X37152797Y-36336391D01*
X37447203Y-36336391D01*
X37740191Y-36365247D01*
G37*
G04 #@! TD.AperFunction*
G04 #@! TA.AperFunction,ComponentPad*
G36*
X63915191Y-36365247D02*
G01*
X64203941Y-36422683D01*
X64485670Y-36508145D01*
X64757665Y-36620809D01*
X65017308Y-36759591D01*
X65262098Y-36923154D01*
X65489677Y-37109924D01*
X65697853Y-37318100D01*
X65884623Y-37545679D01*
X66048186Y-37790469D01*
X66186968Y-38050112D01*
X66299632Y-38322107D01*
X66385094Y-38603836D01*
X66442530Y-38892586D01*
X66471386Y-39185574D01*
X66471386Y-39479980D01*
X66442530Y-39772968D01*
X66385094Y-40061718D01*
X66299632Y-40343447D01*
X66186968Y-40615442D01*
X66048186Y-40875085D01*
X65884623Y-41119875D01*
X65697853Y-41347454D01*
X65593765Y-41451542D01*
X66475000Y-42332777D01*
X60475000Y-42332777D01*
X61356235Y-41451542D01*
X61252147Y-41347454D01*
X61065377Y-41119875D01*
X60901814Y-40875085D01*
X60763032Y-40615442D01*
X60650368Y-40343447D01*
X60564906Y-40061718D01*
X60507470Y-39772968D01*
X60478614Y-39479980D01*
X60478614Y-39185574D01*
X60507470Y-38892586D01*
X60564906Y-38603836D01*
X60650368Y-38322107D01*
X60763032Y-38050112D01*
X60901814Y-37790469D01*
X61065377Y-37545679D01*
X61252147Y-37318100D01*
X61460323Y-37109924D01*
X61687902Y-36923154D01*
X61932692Y-36759591D01*
X62192335Y-36620809D01*
X62464330Y-36508145D01*
X62746059Y-36422683D01*
X63034809Y-36365247D01*
X63327797Y-36336391D01*
X63622203Y-36336391D01*
X63915191Y-36365247D01*
G37*
G04 #@! TD.AperFunction*
G04 #@! TA.AperFunction,ComponentPad*
G36*
G01*
X60475000Y-42332777D02*
X66475000Y-42332777D01*
G75*
G02*
X66975000Y-42832777I0J-500000D01*
G01*
X66975000Y-43832777D01*
G75*
G02*
X66475000Y-44332777I-500000J0D01*
G01*
X60475000Y-44332777D01*
G75*
G02*
X59975000Y-43832777I0J500000D01*
G01*
X59975000Y-42832777D01*
G75*
G02*
X60475000Y-42332777I500000J0D01*
G01*
G37*
G04 #@! TD.AperFunction*
G04 #@! TA.AperFunction,ComponentPad*
G36*
G01*
X47900000Y-42332777D02*
X53900000Y-42332777D01*
G75*
G02*
X54400000Y-42832777I0J-500000D01*
G01*
X54400000Y-43832777D01*
G75*
G02*
X53900000Y-44332777I-500000J0D01*
G01*
X47900000Y-44332777D01*
G75*
G02*
X47400000Y-43832777I0J500000D01*
G01*
X47400000Y-42832777D01*
G75*
G02*
X47900000Y-42332777I500000J0D01*
G01*
G37*
G04 #@! TD.AperFunction*
G04 #@! TA.AperFunction,ComponentPad*
G36*
X51340191Y-36365247D02*
G01*
X51628941Y-36422683D01*
X51910670Y-36508145D01*
X52182665Y-36620809D01*
X52442308Y-36759591D01*
X52687098Y-36923154D01*
X52914677Y-37109924D01*
X53122853Y-37318100D01*
X53309623Y-37545679D01*
X53473186Y-37790469D01*
X53611968Y-38050112D01*
X53724632Y-38322107D01*
X53810094Y-38603836D01*
X53867530Y-38892586D01*
X53896386Y-39185574D01*
X53896386Y-39479980D01*
X53867530Y-39772968D01*
X53810094Y-40061718D01*
X53724632Y-40343447D01*
X53611968Y-40615442D01*
X53473186Y-40875085D01*
X53309623Y-41119875D01*
X53122853Y-41347454D01*
X53018765Y-41451542D01*
X53900000Y-42332777D01*
X47900000Y-42332777D01*
X48781235Y-41451542D01*
X48677147Y-41347454D01*
X48490377Y-41119875D01*
X48326814Y-40875085D01*
X48188032Y-40615442D01*
X48075368Y-40343447D01*
X47989906Y-40061718D01*
X47932470Y-39772968D01*
X47903614Y-39479980D01*
X47903614Y-39185574D01*
X47932470Y-38892586D01*
X47989906Y-38603836D01*
X48075368Y-38322107D01*
X48188032Y-38050112D01*
X48326814Y-37790469D01*
X48490377Y-37545679D01*
X48677147Y-37318100D01*
X48885323Y-37109924D01*
X49112902Y-36923154D01*
X49357692Y-36759591D01*
X49617335Y-36620809D01*
X49889330Y-36508145D01*
X50171059Y-36422683D01*
X50459809Y-36365247D01*
X50752797Y-36336391D01*
X51047203Y-36336391D01*
X51340191Y-36365247D01*
G37*
G04 #@! TD.AperFunction*
G04 #@! TA.AperFunction,ComponentPad*
G36*
X120965191Y-36365247D02*
G01*
X121253941Y-36422683D01*
X121535670Y-36508145D01*
X121807665Y-36620809D01*
X122067308Y-36759591D01*
X122312098Y-36923154D01*
X122539677Y-37109924D01*
X122747853Y-37318100D01*
X122934623Y-37545679D01*
X123098186Y-37790469D01*
X123236968Y-38050112D01*
X123349632Y-38322107D01*
X123435094Y-38603836D01*
X123492530Y-38892586D01*
X123521386Y-39185574D01*
X123521386Y-39479980D01*
X123492530Y-39772968D01*
X123435094Y-40061718D01*
X123349632Y-40343447D01*
X123236968Y-40615442D01*
X123098186Y-40875085D01*
X122934623Y-41119875D01*
X122747853Y-41347454D01*
X122643765Y-41451542D01*
X123525000Y-42332777D01*
X117525000Y-42332777D01*
X118406235Y-41451542D01*
X118302147Y-41347454D01*
X118115377Y-41119875D01*
X117951814Y-40875085D01*
X117813032Y-40615442D01*
X117700368Y-40343447D01*
X117614906Y-40061718D01*
X117557470Y-39772968D01*
X117528614Y-39479980D01*
X117528614Y-39185574D01*
X117557470Y-38892586D01*
X117614906Y-38603836D01*
X117700368Y-38322107D01*
X117813032Y-38050112D01*
X117951814Y-37790469D01*
X118115377Y-37545679D01*
X118302147Y-37318100D01*
X118510323Y-37109924D01*
X118737902Y-36923154D01*
X118982692Y-36759591D01*
X119242335Y-36620809D01*
X119514330Y-36508145D01*
X119796059Y-36422683D01*
X120084809Y-36365247D01*
X120377797Y-36336391D01*
X120672203Y-36336391D01*
X120965191Y-36365247D01*
G37*
G04 #@! TD.AperFunction*
G04 #@! TA.AperFunction,ComponentPad*
G36*
G01*
X117525000Y-42332777D02*
X123525000Y-42332777D01*
G75*
G02*
X124025000Y-42832777I0J-500000D01*
G01*
X124025000Y-43832777D01*
G75*
G02*
X123525000Y-44332777I-500000J0D01*
G01*
X117525000Y-44332777D01*
G75*
G02*
X117025000Y-43832777I0J500000D01*
G01*
X117025000Y-42832777D01*
G75*
G02*
X117525000Y-42332777I500000J0D01*
G01*
G37*
G04 #@! TD.AperFunction*
G04 #@! TA.AperFunction,ComponentPad*
G36*
G01*
X104970000Y-42332777D02*
X110970000Y-42332777D01*
G75*
G02*
X111470000Y-42832777I0J-500000D01*
G01*
X111470000Y-43832777D01*
G75*
G02*
X110970000Y-44332777I-500000J0D01*
G01*
X104970000Y-44332777D01*
G75*
G02*
X104470000Y-43832777I0J500000D01*
G01*
X104470000Y-42832777D01*
G75*
G02*
X104970000Y-42332777I500000J0D01*
G01*
G37*
G04 #@! TD.AperFunction*
G04 #@! TA.AperFunction,ComponentPad*
G36*
X108410191Y-36365247D02*
G01*
X108698941Y-36422683D01*
X108980670Y-36508145D01*
X109252665Y-36620809D01*
X109512308Y-36759591D01*
X109757098Y-36923154D01*
X109984677Y-37109924D01*
X110192853Y-37318100D01*
X110379623Y-37545679D01*
X110543186Y-37790469D01*
X110681968Y-38050112D01*
X110794632Y-38322107D01*
X110880094Y-38603836D01*
X110937530Y-38892586D01*
X110966386Y-39185574D01*
X110966386Y-39479980D01*
X110937530Y-39772968D01*
X110880094Y-40061718D01*
X110794632Y-40343447D01*
X110681968Y-40615442D01*
X110543186Y-40875085D01*
X110379623Y-41119875D01*
X110192853Y-41347454D01*
X110088765Y-41451542D01*
X110970000Y-42332777D01*
X104970000Y-42332777D01*
X105851235Y-41451542D01*
X105747147Y-41347454D01*
X105560377Y-41119875D01*
X105396814Y-40875085D01*
X105258032Y-40615442D01*
X105145368Y-40343447D01*
X105059906Y-40061718D01*
X105002470Y-39772968D01*
X104973614Y-39479980D01*
X104973614Y-39185574D01*
X105002470Y-38892586D01*
X105059906Y-38603836D01*
X105145368Y-38322107D01*
X105258032Y-38050112D01*
X105396814Y-37790469D01*
X105560377Y-37545679D01*
X105747147Y-37318100D01*
X105955323Y-37109924D01*
X106182902Y-36923154D01*
X106427692Y-36759591D01*
X106687335Y-36620809D01*
X106959330Y-36508145D01*
X107241059Y-36422683D01*
X107529809Y-36365247D01*
X107822797Y-36336391D01*
X108117203Y-36336391D01*
X108410191Y-36365247D01*
G37*
G04 #@! TD.AperFunction*
G04 #@! TA.AperFunction,ComponentPad*
G36*
G01*
X89000000Y-42332777D02*
X95000000Y-42332777D01*
G75*
G02*
X95500000Y-42832777I0J-500000D01*
G01*
X95500000Y-43832777D01*
G75*
G02*
X95000000Y-44332777I-500000J0D01*
G01*
X89000000Y-44332777D01*
G75*
G02*
X88500000Y-43832777I0J500000D01*
G01*
X88500000Y-42832777D01*
G75*
G02*
X89000000Y-42332777I500000J0D01*
G01*
G37*
G04 #@! TD.AperFunction*
G04 #@! TA.AperFunction,ComponentPad*
G36*
X92440191Y-36365247D02*
G01*
X92728941Y-36422683D01*
X93010670Y-36508145D01*
X93282665Y-36620809D01*
X93542308Y-36759591D01*
X93787098Y-36923154D01*
X94014677Y-37109924D01*
X94222853Y-37318100D01*
X94409623Y-37545679D01*
X94573186Y-37790469D01*
X94711968Y-38050112D01*
X94824632Y-38322107D01*
X94910094Y-38603836D01*
X94967530Y-38892586D01*
X94996386Y-39185574D01*
X94996386Y-39479980D01*
X94967530Y-39772968D01*
X94910094Y-40061718D01*
X94824632Y-40343447D01*
X94711968Y-40615442D01*
X94573186Y-40875085D01*
X94409623Y-41119875D01*
X94222853Y-41347454D01*
X94118765Y-41451542D01*
X95000000Y-42332777D01*
X89000000Y-42332777D01*
X89881235Y-41451542D01*
X89777147Y-41347454D01*
X89590377Y-41119875D01*
X89426814Y-40875085D01*
X89288032Y-40615442D01*
X89175368Y-40343447D01*
X89089906Y-40061718D01*
X89032470Y-39772968D01*
X89003614Y-39479980D01*
X89003614Y-39185574D01*
X89032470Y-38892586D01*
X89089906Y-38603836D01*
X89175368Y-38322107D01*
X89288032Y-38050112D01*
X89426814Y-37790469D01*
X89590377Y-37545679D01*
X89777147Y-37318100D01*
X89985323Y-37109924D01*
X90212902Y-36923154D01*
X90457692Y-36759591D01*
X90717335Y-36620809D01*
X90989330Y-36508145D01*
X91271059Y-36422683D01*
X91559809Y-36365247D01*
X91852797Y-36336391D01*
X92147203Y-36336391D01*
X92440191Y-36365247D01*
G37*
G04 #@! TD.AperFunction*
G04 #@! TA.AperFunction,ComponentPad*
G36*
X79865191Y-36365247D02*
G01*
X80153941Y-36422683D01*
X80435670Y-36508145D01*
X80707665Y-36620809D01*
X80967308Y-36759591D01*
X81212098Y-36923154D01*
X81439677Y-37109924D01*
X81647853Y-37318100D01*
X81834623Y-37545679D01*
X81998186Y-37790469D01*
X82136968Y-38050112D01*
X82249632Y-38322107D01*
X82335094Y-38603836D01*
X82392530Y-38892586D01*
X82421386Y-39185574D01*
X82421386Y-39479980D01*
X82392530Y-39772968D01*
X82335094Y-40061718D01*
X82249632Y-40343447D01*
X82136968Y-40615442D01*
X81998186Y-40875085D01*
X81834623Y-41119875D01*
X81647853Y-41347454D01*
X81543765Y-41451542D01*
X82425000Y-42332777D01*
X76425000Y-42332777D01*
X77306235Y-41451542D01*
X77202147Y-41347454D01*
X77015377Y-41119875D01*
X76851814Y-40875085D01*
X76713032Y-40615442D01*
X76600368Y-40343447D01*
X76514906Y-40061718D01*
X76457470Y-39772968D01*
X76428614Y-39479980D01*
X76428614Y-39185574D01*
X76457470Y-38892586D01*
X76514906Y-38603836D01*
X76600368Y-38322107D01*
X76713032Y-38050112D01*
X76851814Y-37790469D01*
X77015377Y-37545679D01*
X77202147Y-37318100D01*
X77410323Y-37109924D01*
X77637902Y-36923154D01*
X77882692Y-36759591D01*
X78142335Y-36620809D01*
X78414330Y-36508145D01*
X78696059Y-36422683D01*
X78984809Y-36365247D01*
X79277797Y-36336391D01*
X79572203Y-36336391D01*
X79865191Y-36365247D01*
G37*
G04 #@! TD.AperFunction*
G04 #@! TA.AperFunction,ComponentPad*
G36*
G01*
X76425000Y-42332777D02*
X82425000Y-42332777D01*
G75*
G02*
X82925000Y-42832777I0J-500000D01*
G01*
X82925000Y-43832777D01*
G75*
G02*
X82425000Y-44332777I-500000J0D01*
G01*
X76425000Y-44332777D01*
G75*
G02*
X75925000Y-43832777I0J500000D01*
G01*
X75925000Y-42832777D01*
G75*
G02*
X76425000Y-42332777I500000J0D01*
G01*
G37*
G04 #@! TD.AperFunction*
G04 #@! TA.AperFunction,ComponentPad*
G36*
G01*
X146070000Y-42300000D02*
X152070000Y-42300000D01*
G75*
G02*
X152570000Y-42800000I0J-500000D01*
G01*
X152570000Y-43800000D01*
G75*
G02*
X152070000Y-44300000I-500000J0D01*
G01*
X146070000Y-44300000D01*
G75*
G02*
X145570000Y-43800000I0J500000D01*
G01*
X145570000Y-42800000D01*
G75*
G02*
X146070000Y-42300000I500000J0D01*
G01*
G37*
G04 #@! TD.AperFunction*
G04 #@! TA.AperFunction,ComponentPad*
G36*
X149510191Y-36332470D02*
G01*
X149798941Y-36389906D01*
X150080670Y-36475368D01*
X150352665Y-36588032D01*
X150612308Y-36726814D01*
X150857098Y-36890377D01*
X151084677Y-37077147D01*
X151292853Y-37285323D01*
X151479623Y-37512902D01*
X151643186Y-37757692D01*
X151781968Y-38017335D01*
X151894632Y-38289330D01*
X151980094Y-38571059D01*
X152037530Y-38859809D01*
X152066386Y-39152797D01*
X152066386Y-39447203D01*
X152037530Y-39740191D01*
X151980094Y-40028941D01*
X151894632Y-40310670D01*
X151781968Y-40582665D01*
X151643186Y-40842308D01*
X151479623Y-41087098D01*
X151292853Y-41314677D01*
X151188765Y-41418765D01*
X152070000Y-42300000D01*
X146070000Y-42300000D01*
X146951235Y-41418765D01*
X146847147Y-41314677D01*
X146660377Y-41087098D01*
X146496814Y-40842308D01*
X146358032Y-40582665D01*
X146245368Y-40310670D01*
X146159906Y-40028941D01*
X146102470Y-39740191D01*
X146073614Y-39447203D01*
X146073614Y-39152797D01*
X146102470Y-38859809D01*
X146159906Y-38571059D01*
X146245368Y-38289330D01*
X146358032Y-38017335D01*
X146496814Y-37757692D01*
X146660377Y-37512902D01*
X146847147Y-37285323D01*
X147055323Y-37077147D01*
X147282902Y-36890377D01*
X147527692Y-36726814D01*
X147787335Y-36588032D01*
X148059330Y-36475368D01*
X148341059Y-36389906D01*
X148629809Y-36332470D01*
X148922797Y-36303614D01*
X149217203Y-36303614D01*
X149510191Y-36332470D01*
G37*
G04 #@! TD.AperFunction*
G04 #@! TA.AperFunction,ComponentPad*
G36*
X136935191Y-36332470D02*
G01*
X137223941Y-36389906D01*
X137505670Y-36475368D01*
X137777665Y-36588032D01*
X138037308Y-36726814D01*
X138282098Y-36890377D01*
X138509677Y-37077147D01*
X138717853Y-37285323D01*
X138904623Y-37512902D01*
X139068186Y-37757692D01*
X139206968Y-38017335D01*
X139319632Y-38289330D01*
X139405094Y-38571059D01*
X139462530Y-38859809D01*
X139491386Y-39152797D01*
X139491386Y-39447203D01*
X139462530Y-39740191D01*
X139405094Y-40028941D01*
X139319632Y-40310670D01*
X139206968Y-40582665D01*
X139068186Y-40842308D01*
X138904623Y-41087098D01*
X138717853Y-41314677D01*
X138613765Y-41418765D01*
X139495000Y-42300000D01*
X133495000Y-42300000D01*
X134376235Y-41418765D01*
X134272147Y-41314677D01*
X134085377Y-41087098D01*
X133921814Y-40842308D01*
X133783032Y-40582665D01*
X133670368Y-40310670D01*
X133584906Y-40028941D01*
X133527470Y-39740191D01*
X133498614Y-39447203D01*
X133498614Y-39152797D01*
X133527470Y-38859809D01*
X133584906Y-38571059D01*
X133670368Y-38289330D01*
X133783032Y-38017335D01*
X133921814Y-37757692D01*
X134085377Y-37512902D01*
X134272147Y-37285323D01*
X134480323Y-37077147D01*
X134707902Y-36890377D01*
X134952692Y-36726814D01*
X135212335Y-36588032D01*
X135484330Y-36475368D01*
X135766059Y-36389906D01*
X136054809Y-36332470D01*
X136347797Y-36303614D01*
X136642203Y-36303614D01*
X136935191Y-36332470D01*
G37*
G04 #@! TD.AperFunction*
G04 #@! TA.AperFunction,ComponentPad*
G36*
G01*
X133495000Y-42300000D02*
X139495000Y-42300000D01*
G75*
G02*
X139995000Y-42800000I0J-500000D01*
G01*
X139995000Y-43800000D01*
G75*
G02*
X139495000Y-44300000I-500000J0D01*
G01*
X133495000Y-44300000D01*
G75*
G02*
X132995000Y-43800000I0J500000D01*
G01*
X132995000Y-42800000D01*
G75*
G02*
X133495000Y-42300000I500000J0D01*
G01*
G37*
G04 #@! TD.AperFunction*
G04 #@! TA.AperFunction,ComponentPad*
G36*
G01*
X40300000Y-132697223D02*
X34300000Y-132697223D01*
G75*
G02*
X33800000Y-132197223I0J500000D01*
G01*
X33800000Y-131197223D01*
G75*
G02*
X34300000Y-130697223I500000J0D01*
G01*
X40300000Y-130697223D01*
G75*
G02*
X40800000Y-131197223I0J-500000D01*
G01*
X40800000Y-132197223D01*
G75*
G02*
X40300000Y-132697223I-500000J0D01*
G01*
G37*
G04 #@! TD.AperFunction*
G04 #@! TA.AperFunction,ComponentPad*
G36*
X36859809Y-138664753D02*
G01*
X36571059Y-138607317D01*
X36289330Y-138521855D01*
X36017335Y-138409191D01*
X35757692Y-138270409D01*
X35512902Y-138106846D01*
X35285323Y-137920076D01*
X35077147Y-137711900D01*
X34890377Y-137484321D01*
X34726814Y-137239531D01*
X34588032Y-136979888D01*
X34475368Y-136707893D01*
X34389906Y-136426164D01*
X34332470Y-136137414D01*
X34303614Y-135844426D01*
X34303614Y-135550020D01*
X34332470Y-135257032D01*
X34389906Y-134968282D01*
X34475368Y-134686553D01*
X34588032Y-134414558D01*
X34726814Y-134154915D01*
X34890377Y-133910125D01*
X35077147Y-133682546D01*
X35181235Y-133578458D01*
X34300000Y-132697223D01*
X40300000Y-132697223D01*
X39418765Y-133578458D01*
X39522853Y-133682546D01*
X39709623Y-133910125D01*
X39873186Y-134154915D01*
X40011968Y-134414558D01*
X40124632Y-134686553D01*
X40210094Y-134968282D01*
X40267530Y-135257032D01*
X40296386Y-135550020D01*
X40296386Y-135844426D01*
X40267530Y-136137414D01*
X40210094Y-136426164D01*
X40124632Y-136707893D01*
X40011968Y-136979888D01*
X39873186Y-137239531D01*
X39709623Y-137484321D01*
X39522853Y-137711900D01*
X39314677Y-137920076D01*
X39087098Y-138106846D01*
X38842308Y-138270409D01*
X38582665Y-138409191D01*
X38310670Y-138521855D01*
X38028941Y-138607317D01*
X37740191Y-138664753D01*
X37447203Y-138693609D01*
X37152797Y-138693609D01*
X36859809Y-138664753D01*
G37*
G04 #@! TD.AperFunction*
G04 #@! TA.AperFunction,ComponentPad*
G36*
G01*
X119252500Y-132697223D02*
X113252500Y-132697223D01*
G75*
G02*
X112752500Y-132197223I0J500000D01*
G01*
X112752500Y-131197223D01*
G75*
G02*
X113252500Y-130697223I500000J0D01*
G01*
X119252500Y-130697223D01*
G75*
G02*
X119752500Y-131197223I0J-500000D01*
G01*
X119752500Y-132197223D01*
G75*
G02*
X119252500Y-132697223I-500000J0D01*
G01*
G37*
G04 #@! TD.AperFunction*
G04 #@! TA.AperFunction,ComponentPad*
G36*
X115812309Y-138664753D02*
G01*
X115523559Y-138607317D01*
X115241830Y-138521855D01*
X114969835Y-138409191D01*
X114710192Y-138270409D01*
X114465402Y-138106846D01*
X114237823Y-137920076D01*
X114029647Y-137711900D01*
X113842877Y-137484321D01*
X113679314Y-137239531D01*
X113540532Y-136979888D01*
X113427868Y-136707893D01*
X113342406Y-136426164D01*
X113284970Y-136137414D01*
X113256114Y-135844426D01*
X113256114Y-135550020D01*
X113284970Y-135257032D01*
X113342406Y-134968282D01*
X113427868Y-134686553D01*
X113540532Y-134414558D01*
X113679314Y-134154915D01*
X113842877Y-133910125D01*
X114029647Y-133682546D01*
X114133735Y-133578458D01*
X113252500Y-132697223D01*
X119252500Y-132697223D01*
X118371265Y-133578458D01*
X118475353Y-133682546D01*
X118662123Y-133910125D01*
X118825686Y-134154915D01*
X118964468Y-134414558D01*
X119077132Y-134686553D01*
X119162594Y-134968282D01*
X119220030Y-135257032D01*
X119248886Y-135550020D01*
X119248886Y-135844426D01*
X119220030Y-136137414D01*
X119162594Y-136426164D01*
X119077132Y-136707893D01*
X118964468Y-136979888D01*
X118825686Y-137239531D01*
X118662123Y-137484321D01*
X118475353Y-137711900D01*
X118267177Y-137920076D01*
X118039598Y-138106846D01*
X117794808Y-138270409D01*
X117535165Y-138409191D01*
X117263170Y-138521855D01*
X116981441Y-138607317D01*
X116692691Y-138664753D01*
X116399703Y-138693609D01*
X116105297Y-138693609D01*
X115812309Y-138664753D01*
G37*
G04 #@! TD.AperFunction*
G04 #@! TA.AperFunction,ComponentPad*
G36*
X58742309Y-138664753D02*
G01*
X58453559Y-138607317D01*
X58171830Y-138521855D01*
X57899835Y-138409191D01*
X57640192Y-138270409D01*
X57395402Y-138106846D01*
X57167823Y-137920076D01*
X56959647Y-137711900D01*
X56772877Y-137484321D01*
X56609314Y-137239531D01*
X56470532Y-136979888D01*
X56357868Y-136707893D01*
X56272406Y-136426164D01*
X56214970Y-136137414D01*
X56186114Y-135844426D01*
X56186114Y-135550020D01*
X56214970Y-135257032D01*
X56272406Y-134968282D01*
X56357868Y-134686553D01*
X56470532Y-134414558D01*
X56609314Y-134154915D01*
X56772877Y-133910125D01*
X56959647Y-133682546D01*
X57063735Y-133578458D01*
X56182500Y-132697223D01*
X62182500Y-132697223D01*
X61301265Y-133578458D01*
X61405353Y-133682546D01*
X61592123Y-133910125D01*
X61755686Y-134154915D01*
X61894468Y-134414558D01*
X62007132Y-134686553D01*
X62092594Y-134968282D01*
X62150030Y-135257032D01*
X62178886Y-135550020D01*
X62178886Y-135844426D01*
X62150030Y-136137414D01*
X62092594Y-136426164D01*
X62007132Y-136707893D01*
X61894468Y-136979888D01*
X61755686Y-137239531D01*
X61592123Y-137484321D01*
X61405353Y-137711900D01*
X61197177Y-137920076D01*
X60969598Y-138106846D01*
X60724808Y-138270409D01*
X60465165Y-138409191D01*
X60193170Y-138521855D01*
X59911441Y-138607317D01*
X59622691Y-138664753D01*
X59329703Y-138693609D01*
X59035297Y-138693609D01*
X58742309Y-138664753D01*
G37*
G04 #@! TD.AperFunction*
G04 #@! TA.AperFunction,ComponentPad*
G36*
G01*
X62182500Y-132697223D02*
X56182500Y-132697223D01*
G75*
G02*
X55682500Y-132197223I0J500000D01*
G01*
X55682500Y-131197223D01*
G75*
G02*
X56182500Y-130697223I500000J0D01*
G01*
X62182500Y-130697223D01*
G75*
G02*
X62682500Y-131197223I0J-500000D01*
G01*
X62682500Y-132197223D01*
G75*
G02*
X62182500Y-132697223I-500000J0D01*
G01*
G37*
G04 #@! TD.AperFunction*
G04 #@! TA.AperFunction,ComponentPad*
G36*
G01*
X90700000Y-132697223D02*
X84700000Y-132697223D01*
G75*
G02*
X84200000Y-132197223I0J500000D01*
G01*
X84200000Y-131197223D01*
G75*
G02*
X84700000Y-130697223I500000J0D01*
G01*
X90700000Y-130697223D01*
G75*
G02*
X91200000Y-131197223I0J-500000D01*
G01*
X91200000Y-132197223D01*
G75*
G02*
X90700000Y-132697223I-500000J0D01*
G01*
G37*
G04 #@! TD.AperFunction*
G04 #@! TA.AperFunction,ComponentPad*
G36*
X87259809Y-138664753D02*
G01*
X86971059Y-138607317D01*
X86689330Y-138521855D01*
X86417335Y-138409191D01*
X86157692Y-138270409D01*
X85912902Y-138106846D01*
X85685323Y-137920076D01*
X85477147Y-137711900D01*
X85290377Y-137484321D01*
X85126814Y-137239531D01*
X84988032Y-136979888D01*
X84875368Y-136707893D01*
X84789906Y-136426164D01*
X84732470Y-136137414D01*
X84703614Y-135844426D01*
X84703614Y-135550020D01*
X84732470Y-135257032D01*
X84789906Y-134968282D01*
X84875368Y-134686553D01*
X84988032Y-134414558D01*
X85126814Y-134154915D01*
X85290377Y-133910125D01*
X85477147Y-133682546D01*
X85581235Y-133578458D01*
X84700000Y-132697223D01*
X90700000Y-132697223D01*
X89818765Y-133578458D01*
X89922853Y-133682546D01*
X90109623Y-133910125D01*
X90273186Y-134154915D01*
X90411968Y-134414558D01*
X90524632Y-134686553D01*
X90610094Y-134968282D01*
X90667530Y-135257032D01*
X90696386Y-135550020D01*
X90696386Y-135844426D01*
X90667530Y-136137414D01*
X90610094Y-136426164D01*
X90524632Y-136707893D01*
X90411968Y-136979888D01*
X90273186Y-137239531D01*
X90109623Y-137484321D01*
X89922853Y-137711900D01*
X89714677Y-137920076D01*
X89487098Y-138106846D01*
X89242308Y-138270409D01*
X88982665Y-138409191D01*
X88710670Y-138521855D01*
X88428941Y-138607317D01*
X88140191Y-138664753D01*
X87847203Y-138693609D01*
X87552797Y-138693609D01*
X87259809Y-138664753D01*
G37*
G04 #@! TD.AperFunction*
G04 #@! TA.AperFunction,ComponentPad*
G36*
G01*
X147777500Y-132697223D02*
X141777500Y-132697223D01*
G75*
G02*
X141277500Y-132197223I0J500000D01*
G01*
X141277500Y-131197223D01*
G75*
G02*
X141777500Y-130697223I500000J0D01*
G01*
X147777500Y-130697223D01*
G75*
G02*
X148277500Y-131197223I0J-500000D01*
G01*
X148277500Y-132197223D01*
G75*
G02*
X147777500Y-132697223I-500000J0D01*
G01*
G37*
G04 #@! TD.AperFunction*
G04 #@! TA.AperFunction,ComponentPad*
G36*
X144337309Y-138664753D02*
G01*
X144048559Y-138607317D01*
X143766830Y-138521855D01*
X143494835Y-138409191D01*
X143235192Y-138270409D01*
X142990402Y-138106846D01*
X142762823Y-137920076D01*
X142554647Y-137711900D01*
X142367877Y-137484321D01*
X142204314Y-137239531D01*
X142065532Y-136979888D01*
X141952868Y-136707893D01*
X141867406Y-136426164D01*
X141809970Y-136137414D01*
X141781114Y-135844426D01*
X141781114Y-135550020D01*
X141809970Y-135257032D01*
X141867406Y-134968282D01*
X141952868Y-134686553D01*
X142065532Y-134414558D01*
X142204314Y-134154915D01*
X142367877Y-133910125D01*
X142554647Y-133682546D01*
X142658735Y-133578458D01*
X141777500Y-132697223D01*
X147777500Y-132697223D01*
X146896265Y-133578458D01*
X147000353Y-133682546D01*
X147187123Y-133910125D01*
X147350686Y-134154915D01*
X147489468Y-134414558D01*
X147602132Y-134686553D01*
X147687594Y-134968282D01*
X147745030Y-135257032D01*
X147773886Y-135550020D01*
X147773886Y-135844426D01*
X147745030Y-136137414D01*
X147687594Y-136426164D01*
X147602132Y-136707893D01*
X147489468Y-136979888D01*
X147350686Y-137239531D01*
X147187123Y-137484321D01*
X147000353Y-137711900D01*
X146792177Y-137920076D01*
X146564598Y-138106846D01*
X146319808Y-138270409D01*
X146060165Y-138409191D01*
X145788170Y-138521855D01*
X145506441Y-138607317D01*
X145217691Y-138664753D01*
X144924703Y-138693609D01*
X144630297Y-138693609D01*
X144337309Y-138664753D01*
G37*
G04 #@! TD.AperFunction*
G04 #@! TA.AperFunction,ComponentPad*
G36*
X37740191Y-90685247D02*
G01*
X38028941Y-90742683D01*
X38310670Y-90828145D01*
X38582665Y-90940809D01*
X38842308Y-91079591D01*
X39087098Y-91243154D01*
X39314677Y-91429924D01*
X39522853Y-91638100D01*
X39709623Y-91865679D01*
X39873186Y-92110469D01*
X40011968Y-92370112D01*
X40124632Y-92642107D01*
X40210094Y-92923836D01*
X40267530Y-93212586D01*
X40296386Y-93505574D01*
X40296386Y-93799980D01*
X40267530Y-94092968D01*
X40210094Y-94381718D01*
X40124632Y-94663447D01*
X40011968Y-94935442D01*
X39873186Y-95195085D01*
X39709623Y-95439875D01*
X39522853Y-95667454D01*
X39418765Y-95771542D01*
X40300000Y-96652777D01*
X34300000Y-96652777D01*
X35181235Y-95771542D01*
X35077147Y-95667454D01*
X34890377Y-95439875D01*
X34726814Y-95195085D01*
X34588032Y-94935442D01*
X34475368Y-94663447D01*
X34389906Y-94381718D01*
X34332470Y-94092968D01*
X34303614Y-93799980D01*
X34303614Y-93505574D01*
X34332470Y-93212586D01*
X34389906Y-92923836D01*
X34475368Y-92642107D01*
X34588032Y-92370112D01*
X34726814Y-92110469D01*
X34890377Y-91865679D01*
X35077147Y-91638100D01*
X35285323Y-91429924D01*
X35512902Y-91243154D01*
X35757692Y-91079591D01*
X36017335Y-90940809D01*
X36289330Y-90828145D01*
X36571059Y-90742683D01*
X36859809Y-90685247D01*
X37152797Y-90656391D01*
X37447203Y-90656391D01*
X37740191Y-90685247D01*
G37*
G04 #@! TD.AperFunction*
G04 #@! TA.AperFunction,ComponentPad*
G36*
G01*
X34300000Y-96652777D02*
X40300000Y-96652777D01*
G75*
G02*
X40800000Y-97152777I0J-500000D01*
G01*
X40800000Y-98152777D01*
G75*
G02*
X40300000Y-98652777I-500000J0D01*
G01*
X34300000Y-98652777D01*
G75*
G02*
X33800000Y-98152777I0J500000D01*
G01*
X33800000Y-97152777D01*
G75*
G02*
X34300000Y-96652777I500000J0D01*
G01*
G37*
G04 #@! TD.AperFunction*
G04 #@! TA.AperFunction,ComponentPad*
G36*
X120965191Y-90685247D02*
G01*
X121253941Y-90742683D01*
X121535670Y-90828145D01*
X121807665Y-90940809D01*
X122067308Y-91079591D01*
X122312098Y-91243154D01*
X122539677Y-91429924D01*
X122747853Y-91638100D01*
X122934623Y-91865679D01*
X123098186Y-92110469D01*
X123236968Y-92370112D01*
X123349632Y-92642107D01*
X123435094Y-92923836D01*
X123492530Y-93212586D01*
X123521386Y-93505574D01*
X123521386Y-93799980D01*
X123492530Y-94092968D01*
X123435094Y-94381718D01*
X123349632Y-94663447D01*
X123236968Y-94935442D01*
X123098186Y-95195085D01*
X122934623Y-95439875D01*
X122747853Y-95667454D01*
X122643765Y-95771542D01*
X123525000Y-96652777D01*
X117525000Y-96652777D01*
X118406235Y-95771542D01*
X118302147Y-95667454D01*
X118115377Y-95439875D01*
X117951814Y-95195085D01*
X117813032Y-94935442D01*
X117700368Y-94663447D01*
X117614906Y-94381718D01*
X117557470Y-94092968D01*
X117528614Y-93799980D01*
X117528614Y-93505574D01*
X117557470Y-93212586D01*
X117614906Y-92923836D01*
X117700368Y-92642107D01*
X117813032Y-92370112D01*
X117951814Y-92110469D01*
X118115377Y-91865679D01*
X118302147Y-91638100D01*
X118510323Y-91429924D01*
X118737902Y-91243154D01*
X118982692Y-91079591D01*
X119242335Y-90940809D01*
X119514330Y-90828145D01*
X119796059Y-90742683D01*
X120084809Y-90685247D01*
X120377797Y-90656391D01*
X120672203Y-90656391D01*
X120965191Y-90685247D01*
G37*
G04 #@! TD.AperFunction*
G04 #@! TA.AperFunction,ComponentPad*
G36*
G01*
X117525000Y-96652777D02*
X123525000Y-96652777D01*
G75*
G02*
X124025000Y-97152777I0J-500000D01*
G01*
X124025000Y-98152777D01*
G75*
G02*
X123525000Y-98652777I-500000J0D01*
G01*
X117525000Y-98652777D01*
G75*
G02*
X117025000Y-98152777I0J500000D01*
G01*
X117025000Y-97152777D01*
G75*
G02*
X117525000Y-96652777I500000J0D01*
G01*
G37*
G04 #@! TD.AperFunction*
G04 #@! TA.AperFunction,ComponentPad*
G36*
G01*
X104970000Y-96652777D02*
X110970000Y-96652777D01*
G75*
G02*
X111470000Y-97152777I0J-500000D01*
G01*
X111470000Y-98152777D01*
G75*
G02*
X110970000Y-98652777I-500000J0D01*
G01*
X104970000Y-98652777D01*
G75*
G02*
X104470000Y-98152777I0J500000D01*
G01*
X104470000Y-97152777D01*
G75*
G02*
X104970000Y-96652777I500000J0D01*
G01*
G37*
G04 #@! TD.AperFunction*
G04 #@! TA.AperFunction,ComponentPad*
G36*
X108410191Y-90685247D02*
G01*
X108698941Y-90742683D01*
X108980670Y-90828145D01*
X109252665Y-90940809D01*
X109512308Y-91079591D01*
X109757098Y-91243154D01*
X109984677Y-91429924D01*
X110192853Y-91638100D01*
X110379623Y-91865679D01*
X110543186Y-92110469D01*
X110681968Y-92370112D01*
X110794632Y-92642107D01*
X110880094Y-92923836D01*
X110937530Y-93212586D01*
X110966386Y-93505574D01*
X110966386Y-93799980D01*
X110937530Y-94092968D01*
X110880094Y-94381718D01*
X110794632Y-94663447D01*
X110681968Y-94935442D01*
X110543186Y-95195085D01*
X110379623Y-95439875D01*
X110192853Y-95667454D01*
X110088765Y-95771542D01*
X110970000Y-96652777D01*
X104970000Y-96652777D01*
X105851235Y-95771542D01*
X105747147Y-95667454D01*
X105560377Y-95439875D01*
X105396814Y-95195085D01*
X105258032Y-94935442D01*
X105145368Y-94663447D01*
X105059906Y-94381718D01*
X105002470Y-94092968D01*
X104973614Y-93799980D01*
X104973614Y-93505574D01*
X105002470Y-93212586D01*
X105059906Y-92923836D01*
X105145368Y-92642107D01*
X105258032Y-92370112D01*
X105396814Y-92110469D01*
X105560377Y-91865679D01*
X105747147Y-91638100D01*
X105955323Y-91429924D01*
X106182902Y-91243154D01*
X106427692Y-91079591D01*
X106687335Y-90940809D01*
X106959330Y-90828145D01*
X107241059Y-90742683D01*
X107529809Y-90685247D01*
X107822797Y-90656391D01*
X108117203Y-90656391D01*
X108410191Y-90685247D01*
G37*
G04 #@! TD.AperFunction*
G04 #@! TA.AperFunction,ComponentPad*
G36*
G01*
X60475000Y-96652777D02*
X66475000Y-96652777D01*
G75*
G02*
X66975000Y-97152777I0J-500000D01*
G01*
X66975000Y-98152777D01*
G75*
G02*
X66475000Y-98652777I-500000J0D01*
G01*
X60475000Y-98652777D01*
G75*
G02*
X59975000Y-98152777I0J500000D01*
G01*
X59975000Y-97152777D01*
G75*
G02*
X60475000Y-96652777I500000J0D01*
G01*
G37*
G04 #@! TD.AperFunction*
G04 #@! TA.AperFunction,ComponentPad*
G36*
X63915191Y-90685247D02*
G01*
X64203941Y-90742683D01*
X64485670Y-90828145D01*
X64757665Y-90940809D01*
X65017308Y-91079591D01*
X65262098Y-91243154D01*
X65489677Y-91429924D01*
X65697853Y-91638100D01*
X65884623Y-91865679D01*
X66048186Y-92110469D01*
X66186968Y-92370112D01*
X66299632Y-92642107D01*
X66385094Y-92923836D01*
X66442530Y-93212586D01*
X66471386Y-93505574D01*
X66471386Y-93799980D01*
X66442530Y-94092968D01*
X66385094Y-94381718D01*
X66299632Y-94663447D01*
X66186968Y-94935442D01*
X66048186Y-95195085D01*
X65884623Y-95439875D01*
X65697853Y-95667454D01*
X65593765Y-95771542D01*
X66475000Y-96652777D01*
X60475000Y-96652777D01*
X61356235Y-95771542D01*
X61252147Y-95667454D01*
X61065377Y-95439875D01*
X60901814Y-95195085D01*
X60763032Y-94935442D01*
X60650368Y-94663447D01*
X60564906Y-94381718D01*
X60507470Y-94092968D01*
X60478614Y-93799980D01*
X60478614Y-93505574D01*
X60507470Y-93212586D01*
X60564906Y-92923836D01*
X60650368Y-92642107D01*
X60763032Y-92370112D01*
X60901814Y-92110469D01*
X61065377Y-91865679D01*
X61252147Y-91638100D01*
X61460323Y-91429924D01*
X61687902Y-91243154D01*
X61932692Y-91079591D01*
X62192335Y-90940809D01*
X62464330Y-90828145D01*
X62746059Y-90742683D01*
X63034809Y-90685247D01*
X63327797Y-90656391D01*
X63622203Y-90656391D01*
X63915191Y-90685247D01*
G37*
G04 #@! TD.AperFunction*
G04 #@! TA.AperFunction,ComponentPad*
G36*
X51340191Y-90685247D02*
G01*
X51628941Y-90742683D01*
X51910670Y-90828145D01*
X52182665Y-90940809D01*
X52442308Y-91079591D01*
X52687098Y-91243154D01*
X52914677Y-91429924D01*
X53122853Y-91638100D01*
X53309623Y-91865679D01*
X53473186Y-92110469D01*
X53611968Y-92370112D01*
X53724632Y-92642107D01*
X53810094Y-92923836D01*
X53867530Y-93212586D01*
X53896386Y-93505574D01*
X53896386Y-93799980D01*
X53867530Y-94092968D01*
X53810094Y-94381718D01*
X53724632Y-94663447D01*
X53611968Y-94935442D01*
X53473186Y-95195085D01*
X53309623Y-95439875D01*
X53122853Y-95667454D01*
X53018765Y-95771542D01*
X53900000Y-96652777D01*
X47900000Y-96652777D01*
X48781235Y-95771542D01*
X48677147Y-95667454D01*
X48490377Y-95439875D01*
X48326814Y-95195085D01*
X48188032Y-94935442D01*
X48075368Y-94663447D01*
X47989906Y-94381718D01*
X47932470Y-94092968D01*
X47903614Y-93799980D01*
X47903614Y-93505574D01*
X47932470Y-93212586D01*
X47989906Y-92923836D01*
X48075368Y-92642107D01*
X48188032Y-92370112D01*
X48326814Y-92110469D01*
X48490377Y-91865679D01*
X48677147Y-91638100D01*
X48885323Y-91429924D01*
X49112902Y-91243154D01*
X49357692Y-91079591D01*
X49617335Y-90940809D01*
X49889330Y-90828145D01*
X50171059Y-90742683D01*
X50459809Y-90685247D01*
X50752797Y-90656391D01*
X51047203Y-90656391D01*
X51340191Y-90685247D01*
G37*
G04 #@! TD.AperFunction*
G04 #@! TA.AperFunction,ComponentPad*
G36*
G01*
X47900000Y-96652777D02*
X53900000Y-96652777D01*
G75*
G02*
X54400000Y-97152777I0J-500000D01*
G01*
X54400000Y-98152777D01*
G75*
G02*
X53900000Y-98652777I-500000J0D01*
G01*
X47900000Y-98652777D01*
G75*
G02*
X47400000Y-98152777I0J500000D01*
G01*
X47400000Y-97152777D01*
G75*
G02*
X47900000Y-96652777I500000J0D01*
G01*
G37*
G04 #@! TD.AperFunction*
G04 #@! TA.AperFunction,ComponentPad*
G36*
X92440191Y-90685247D02*
G01*
X92728941Y-90742683D01*
X93010670Y-90828145D01*
X93282665Y-90940809D01*
X93542308Y-91079591D01*
X93787098Y-91243154D01*
X94014677Y-91429924D01*
X94222853Y-91638100D01*
X94409623Y-91865679D01*
X94573186Y-92110469D01*
X94711968Y-92370112D01*
X94824632Y-92642107D01*
X94910094Y-92923836D01*
X94967530Y-93212586D01*
X94996386Y-93505574D01*
X94996386Y-93799980D01*
X94967530Y-94092968D01*
X94910094Y-94381718D01*
X94824632Y-94663447D01*
X94711968Y-94935442D01*
X94573186Y-95195085D01*
X94409623Y-95439875D01*
X94222853Y-95667454D01*
X94118765Y-95771542D01*
X95000000Y-96652777D01*
X89000000Y-96652777D01*
X89881235Y-95771542D01*
X89777147Y-95667454D01*
X89590377Y-95439875D01*
X89426814Y-95195085D01*
X89288032Y-94935442D01*
X89175368Y-94663447D01*
X89089906Y-94381718D01*
X89032470Y-94092968D01*
X89003614Y-93799980D01*
X89003614Y-93505574D01*
X89032470Y-93212586D01*
X89089906Y-92923836D01*
X89175368Y-92642107D01*
X89288032Y-92370112D01*
X89426814Y-92110469D01*
X89590377Y-91865679D01*
X89777147Y-91638100D01*
X89985323Y-91429924D01*
X90212902Y-91243154D01*
X90457692Y-91079591D01*
X90717335Y-90940809D01*
X90989330Y-90828145D01*
X91271059Y-90742683D01*
X91559809Y-90685247D01*
X91852797Y-90656391D01*
X92147203Y-90656391D01*
X92440191Y-90685247D01*
G37*
G04 #@! TD.AperFunction*
G04 #@! TA.AperFunction,ComponentPad*
G36*
G01*
X89000000Y-96652777D02*
X95000000Y-96652777D01*
G75*
G02*
X95500000Y-97152777I0J-500000D01*
G01*
X95500000Y-98152777D01*
G75*
G02*
X95000000Y-98652777I-500000J0D01*
G01*
X89000000Y-98652777D01*
G75*
G02*
X88500000Y-98152777I0J500000D01*
G01*
X88500000Y-97152777D01*
G75*
G02*
X89000000Y-96652777I500000J0D01*
G01*
G37*
G04 #@! TD.AperFunction*
G04 #@! TA.AperFunction,ComponentPad*
G36*
G01*
X76425000Y-96652777D02*
X82425000Y-96652777D01*
G75*
G02*
X82925000Y-97152777I0J-500000D01*
G01*
X82925000Y-98152777D01*
G75*
G02*
X82425000Y-98652777I-500000J0D01*
G01*
X76425000Y-98652777D01*
G75*
G02*
X75925000Y-98152777I0J500000D01*
G01*
X75925000Y-97152777D01*
G75*
G02*
X76425000Y-96652777I500000J0D01*
G01*
G37*
G04 #@! TD.AperFunction*
G04 #@! TA.AperFunction,ComponentPad*
G36*
X79865191Y-90685247D02*
G01*
X80153941Y-90742683D01*
X80435670Y-90828145D01*
X80707665Y-90940809D01*
X80967308Y-91079591D01*
X81212098Y-91243154D01*
X81439677Y-91429924D01*
X81647853Y-91638100D01*
X81834623Y-91865679D01*
X81998186Y-92110469D01*
X82136968Y-92370112D01*
X82249632Y-92642107D01*
X82335094Y-92923836D01*
X82392530Y-93212586D01*
X82421386Y-93505574D01*
X82421386Y-93799980D01*
X82392530Y-94092968D01*
X82335094Y-94381718D01*
X82249632Y-94663447D01*
X82136968Y-94935442D01*
X81998186Y-95195085D01*
X81834623Y-95439875D01*
X81647853Y-95667454D01*
X81543765Y-95771542D01*
X82425000Y-96652777D01*
X76425000Y-96652777D01*
X77306235Y-95771542D01*
X77202147Y-95667454D01*
X77015377Y-95439875D01*
X76851814Y-95195085D01*
X76713032Y-94935442D01*
X76600368Y-94663447D01*
X76514906Y-94381718D01*
X76457470Y-94092968D01*
X76428614Y-93799980D01*
X76428614Y-93505574D01*
X76457470Y-93212586D01*
X76514906Y-92923836D01*
X76600368Y-92642107D01*
X76713032Y-92370112D01*
X76851814Y-92110469D01*
X77015377Y-91865679D01*
X77202147Y-91638100D01*
X77410323Y-91429924D01*
X77637902Y-91243154D01*
X77882692Y-91079591D01*
X78142335Y-90940809D01*
X78414330Y-90828145D01*
X78696059Y-90742683D01*
X78984809Y-90685247D01*
X79277797Y-90656391D01*
X79572203Y-90656391D01*
X79865191Y-90685247D01*
G37*
G04 #@! TD.AperFunction*
G04 #@! TA.AperFunction,ComponentPad*
G36*
X149510191Y-90685247D02*
G01*
X149798941Y-90742683D01*
X150080670Y-90828145D01*
X150352665Y-90940809D01*
X150612308Y-91079591D01*
X150857098Y-91243154D01*
X151084677Y-91429924D01*
X151292853Y-91638100D01*
X151479623Y-91865679D01*
X151643186Y-92110469D01*
X151781968Y-92370112D01*
X151894632Y-92642107D01*
X151980094Y-92923836D01*
X152037530Y-93212586D01*
X152066386Y-93505574D01*
X152066386Y-93799980D01*
X152037530Y-94092968D01*
X151980094Y-94381718D01*
X151894632Y-94663447D01*
X151781968Y-94935442D01*
X151643186Y-95195085D01*
X151479623Y-95439875D01*
X151292853Y-95667454D01*
X151188765Y-95771542D01*
X152070000Y-96652777D01*
X146070000Y-96652777D01*
X146951235Y-95771542D01*
X146847147Y-95667454D01*
X146660377Y-95439875D01*
X146496814Y-95195085D01*
X146358032Y-94935442D01*
X146245368Y-94663447D01*
X146159906Y-94381718D01*
X146102470Y-94092968D01*
X146073614Y-93799980D01*
X146073614Y-93505574D01*
X146102470Y-93212586D01*
X146159906Y-92923836D01*
X146245368Y-92642107D01*
X146358032Y-92370112D01*
X146496814Y-92110469D01*
X146660377Y-91865679D01*
X146847147Y-91638100D01*
X147055323Y-91429924D01*
X147282902Y-91243154D01*
X147527692Y-91079591D01*
X147787335Y-90940809D01*
X148059330Y-90828145D01*
X148341059Y-90742683D01*
X148629809Y-90685247D01*
X148922797Y-90656391D01*
X149217203Y-90656391D01*
X149510191Y-90685247D01*
G37*
G04 #@! TD.AperFunction*
G04 #@! TA.AperFunction,ComponentPad*
G36*
G01*
X146070000Y-96652777D02*
X152070000Y-96652777D01*
G75*
G02*
X152570000Y-97152777I0J-500000D01*
G01*
X152570000Y-98152777D01*
G75*
G02*
X152070000Y-98652777I-500000J0D01*
G01*
X146070000Y-98652777D01*
G75*
G02*
X145570000Y-98152777I0J500000D01*
G01*
X145570000Y-97152777D01*
G75*
G02*
X146070000Y-96652777I500000J0D01*
G01*
G37*
G04 #@! TD.AperFunction*
G04 #@! TA.AperFunction,ComponentPad*
G36*
X136935191Y-90685247D02*
G01*
X137223941Y-90742683D01*
X137505670Y-90828145D01*
X137777665Y-90940809D01*
X138037308Y-91079591D01*
X138282098Y-91243154D01*
X138509677Y-91429924D01*
X138717853Y-91638100D01*
X138904623Y-91865679D01*
X139068186Y-92110469D01*
X139206968Y-92370112D01*
X139319632Y-92642107D01*
X139405094Y-92923836D01*
X139462530Y-93212586D01*
X139491386Y-93505574D01*
X139491386Y-93799980D01*
X139462530Y-94092968D01*
X139405094Y-94381718D01*
X139319632Y-94663447D01*
X139206968Y-94935442D01*
X139068186Y-95195085D01*
X138904623Y-95439875D01*
X138717853Y-95667454D01*
X138613765Y-95771542D01*
X139495000Y-96652777D01*
X133495000Y-96652777D01*
X134376235Y-95771542D01*
X134272147Y-95667454D01*
X134085377Y-95439875D01*
X133921814Y-95195085D01*
X133783032Y-94935442D01*
X133670368Y-94663447D01*
X133584906Y-94381718D01*
X133527470Y-94092968D01*
X133498614Y-93799980D01*
X133498614Y-93505574D01*
X133527470Y-93212586D01*
X133584906Y-92923836D01*
X133670368Y-92642107D01*
X133783032Y-92370112D01*
X133921814Y-92110469D01*
X134085377Y-91865679D01*
X134272147Y-91638100D01*
X134480323Y-91429924D01*
X134707902Y-91243154D01*
X134952692Y-91079591D01*
X135212335Y-90940809D01*
X135484330Y-90828145D01*
X135766059Y-90742683D01*
X136054809Y-90685247D01*
X136347797Y-90656391D01*
X136642203Y-90656391D01*
X136935191Y-90685247D01*
G37*
G04 #@! TD.AperFunction*
G04 #@! TA.AperFunction,ComponentPad*
G36*
G01*
X133495000Y-96652777D02*
X139495000Y-96652777D01*
G75*
G02*
X139995000Y-97152777I0J-500000D01*
G01*
X139995000Y-98152777D01*
G75*
G02*
X139495000Y-98652777I-500000J0D01*
G01*
X133495000Y-98652777D01*
G75*
G02*
X132995000Y-98152777I0J500000D01*
G01*
X132995000Y-97152777D01*
G75*
G02*
X133495000Y-96652777I500000J0D01*
G01*
G37*
G04 #@! TD.AperFunction*
G04 #@! TA.AperFunction,ComponentPad*
G36*
X115787309Y-194044753D02*
G01*
X115498559Y-193987317D01*
X115216830Y-193901855D01*
X114944835Y-193789191D01*
X114685192Y-193650409D01*
X114440402Y-193486846D01*
X114212823Y-193300076D01*
X114004647Y-193091900D01*
X113817877Y-192864321D01*
X113654314Y-192619531D01*
X113515532Y-192359888D01*
X113402868Y-192087893D01*
X113317406Y-191806164D01*
X113259970Y-191517414D01*
X113231114Y-191224426D01*
X113231114Y-190930020D01*
X113259970Y-190637032D01*
X113317406Y-190348282D01*
X113402868Y-190066553D01*
X113515532Y-189794558D01*
X113654314Y-189534915D01*
X113817877Y-189290125D01*
X114004647Y-189062546D01*
X114108735Y-188958458D01*
X113227500Y-188077223D01*
X119227500Y-188077223D01*
X118346265Y-188958458D01*
X118450353Y-189062546D01*
X118637123Y-189290125D01*
X118800686Y-189534915D01*
X118939468Y-189794558D01*
X119052132Y-190066553D01*
X119137594Y-190348282D01*
X119195030Y-190637032D01*
X119223886Y-190930020D01*
X119223886Y-191224426D01*
X119195030Y-191517414D01*
X119137594Y-191806164D01*
X119052132Y-192087893D01*
X118939468Y-192359888D01*
X118800686Y-192619531D01*
X118637123Y-192864321D01*
X118450353Y-193091900D01*
X118242177Y-193300076D01*
X118014598Y-193486846D01*
X117769808Y-193650409D01*
X117510165Y-193789191D01*
X117238170Y-193901855D01*
X116956441Y-193987317D01*
X116667691Y-194044753D01*
X116374703Y-194073609D01*
X116080297Y-194073609D01*
X115787309Y-194044753D01*
G37*
G04 #@! TD.AperFunction*
G04 #@! TA.AperFunction,ComponentPad*
G36*
G01*
X119227500Y-188077223D02*
X113227500Y-188077223D01*
G75*
G02*
X112727500Y-187577223I0J500000D01*
G01*
X112727500Y-186577223D01*
G75*
G02*
X113227500Y-186077223I500000J0D01*
G01*
X119227500Y-186077223D01*
G75*
G02*
X119727500Y-186577223I0J-500000D01*
G01*
X119727500Y-187577223D01*
G75*
G02*
X119227500Y-188077223I-500000J0D01*
G01*
G37*
G04 #@! TD.AperFunction*
G04 #@! TA.AperFunction,ComponentPad*
G36*
G01*
X62157500Y-188077223D02*
X56157500Y-188077223D01*
G75*
G02*
X55657500Y-187577223I0J500000D01*
G01*
X55657500Y-186577223D01*
G75*
G02*
X56157500Y-186077223I500000J0D01*
G01*
X62157500Y-186077223D01*
G75*
G02*
X62657500Y-186577223I0J-500000D01*
G01*
X62657500Y-187577223D01*
G75*
G02*
X62157500Y-188077223I-500000J0D01*
G01*
G37*
G04 #@! TD.AperFunction*
G04 #@! TA.AperFunction,ComponentPad*
G36*
X58717309Y-194044753D02*
G01*
X58428559Y-193987317D01*
X58146830Y-193901855D01*
X57874835Y-193789191D01*
X57615192Y-193650409D01*
X57370402Y-193486846D01*
X57142823Y-193300076D01*
X56934647Y-193091900D01*
X56747877Y-192864321D01*
X56584314Y-192619531D01*
X56445532Y-192359888D01*
X56332868Y-192087893D01*
X56247406Y-191806164D01*
X56189970Y-191517414D01*
X56161114Y-191224426D01*
X56161114Y-190930020D01*
X56189970Y-190637032D01*
X56247406Y-190348282D01*
X56332868Y-190066553D01*
X56445532Y-189794558D01*
X56584314Y-189534915D01*
X56747877Y-189290125D01*
X56934647Y-189062546D01*
X57038735Y-188958458D01*
X56157500Y-188077223D01*
X62157500Y-188077223D01*
X61276265Y-188958458D01*
X61380353Y-189062546D01*
X61567123Y-189290125D01*
X61730686Y-189534915D01*
X61869468Y-189794558D01*
X61982132Y-190066553D01*
X62067594Y-190348282D01*
X62125030Y-190637032D01*
X62153886Y-190930020D01*
X62153886Y-191224426D01*
X62125030Y-191517414D01*
X62067594Y-191806164D01*
X61982132Y-192087893D01*
X61869468Y-192359888D01*
X61730686Y-192619531D01*
X61567123Y-192864321D01*
X61380353Y-193091900D01*
X61172177Y-193300076D01*
X60944598Y-193486846D01*
X60699808Y-193650409D01*
X60440165Y-193789191D01*
X60168170Y-193901855D01*
X59886441Y-193987317D01*
X59597691Y-194044753D01*
X59304703Y-194073609D01*
X59010297Y-194073609D01*
X58717309Y-194044753D01*
G37*
G04 #@! TD.AperFunction*
G04 #@! TA.AperFunction,ComponentPad*
G36*
X87242309Y-194044753D02*
G01*
X86953559Y-193987317D01*
X86671830Y-193901855D01*
X86399835Y-193789191D01*
X86140192Y-193650409D01*
X85895402Y-193486846D01*
X85667823Y-193300076D01*
X85459647Y-193091900D01*
X85272877Y-192864321D01*
X85109314Y-192619531D01*
X84970532Y-192359888D01*
X84857868Y-192087893D01*
X84772406Y-191806164D01*
X84714970Y-191517414D01*
X84686114Y-191224426D01*
X84686114Y-190930020D01*
X84714970Y-190637032D01*
X84772406Y-190348282D01*
X84857868Y-190066553D01*
X84970532Y-189794558D01*
X85109314Y-189534915D01*
X85272877Y-189290125D01*
X85459647Y-189062546D01*
X85563735Y-188958458D01*
X84682500Y-188077223D01*
X90682500Y-188077223D01*
X89801265Y-188958458D01*
X89905353Y-189062546D01*
X90092123Y-189290125D01*
X90255686Y-189534915D01*
X90394468Y-189794558D01*
X90507132Y-190066553D01*
X90592594Y-190348282D01*
X90650030Y-190637032D01*
X90678886Y-190930020D01*
X90678886Y-191224426D01*
X90650030Y-191517414D01*
X90592594Y-191806164D01*
X90507132Y-192087893D01*
X90394468Y-192359888D01*
X90255686Y-192619531D01*
X90092123Y-192864321D01*
X89905353Y-193091900D01*
X89697177Y-193300076D01*
X89469598Y-193486846D01*
X89224808Y-193650409D01*
X88965165Y-193789191D01*
X88693170Y-193901855D01*
X88411441Y-193987317D01*
X88122691Y-194044753D01*
X87829703Y-194073609D01*
X87535297Y-194073609D01*
X87242309Y-194044753D01*
G37*
G04 #@! TD.AperFunction*
G04 #@! TA.AperFunction,ComponentPad*
G36*
G01*
X90682500Y-188077223D02*
X84682500Y-188077223D01*
G75*
G02*
X84182500Y-187577223I0J500000D01*
G01*
X84182500Y-186577223D01*
G75*
G02*
X84682500Y-186077223I500000J0D01*
G01*
X90682500Y-186077223D01*
G75*
G02*
X91182500Y-186577223I0J-500000D01*
G01*
X91182500Y-187577223D01*
G75*
G02*
X90682500Y-188077223I-500000J0D01*
G01*
G37*
G04 #@! TD.AperFunction*
G04 #@! TA.AperFunction,ComponentPad*
G36*
X144312309Y-194044753D02*
G01*
X144023559Y-193987317D01*
X143741830Y-193901855D01*
X143469835Y-193789191D01*
X143210192Y-193650409D01*
X142965402Y-193486846D01*
X142737823Y-193300076D01*
X142529647Y-193091900D01*
X142342877Y-192864321D01*
X142179314Y-192619531D01*
X142040532Y-192359888D01*
X141927868Y-192087893D01*
X141842406Y-191806164D01*
X141784970Y-191517414D01*
X141756114Y-191224426D01*
X141756114Y-190930020D01*
X141784970Y-190637032D01*
X141842406Y-190348282D01*
X141927868Y-190066553D01*
X142040532Y-189794558D01*
X142179314Y-189534915D01*
X142342877Y-189290125D01*
X142529647Y-189062546D01*
X142633735Y-188958458D01*
X141752500Y-188077223D01*
X147752500Y-188077223D01*
X146871265Y-188958458D01*
X146975353Y-189062546D01*
X147162123Y-189290125D01*
X147325686Y-189534915D01*
X147464468Y-189794558D01*
X147577132Y-190066553D01*
X147662594Y-190348282D01*
X147720030Y-190637032D01*
X147748886Y-190930020D01*
X147748886Y-191224426D01*
X147720030Y-191517414D01*
X147662594Y-191806164D01*
X147577132Y-192087893D01*
X147464468Y-192359888D01*
X147325686Y-192619531D01*
X147162123Y-192864321D01*
X146975353Y-193091900D01*
X146767177Y-193300076D01*
X146539598Y-193486846D01*
X146294808Y-193650409D01*
X146035165Y-193789191D01*
X145763170Y-193901855D01*
X145481441Y-193987317D01*
X145192691Y-194044753D01*
X144899703Y-194073609D01*
X144605297Y-194073609D01*
X144312309Y-194044753D01*
G37*
G04 #@! TD.AperFunction*
G04 #@! TA.AperFunction,ComponentPad*
G36*
G01*
X147752500Y-188077223D02*
X141752500Y-188077223D01*
G75*
G02*
X141252500Y-187577223I0J500000D01*
G01*
X141252500Y-186577223D01*
G75*
G02*
X141752500Y-186077223I500000J0D01*
G01*
X147752500Y-186077223D01*
G75*
G02*
X148252500Y-186577223I0J-500000D01*
G01*
X148252500Y-187577223D01*
G75*
G02*
X147752500Y-188077223I-500000J0D01*
G01*
G37*
G04 #@! TD.AperFunction*
G04 #@! TA.AperFunction,ComponentPad*
G36*
X37715191Y-146065247D02*
G01*
X38003941Y-146122683D01*
X38285670Y-146208145D01*
X38557665Y-146320809D01*
X38817308Y-146459591D01*
X39062098Y-146623154D01*
X39289677Y-146809924D01*
X39497853Y-147018100D01*
X39684623Y-147245679D01*
X39848186Y-147490469D01*
X39986968Y-147750112D01*
X40099632Y-148022107D01*
X40185094Y-148303836D01*
X40242530Y-148592586D01*
X40271386Y-148885574D01*
X40271386Y-149179980D01*
X40242530Y-149472968D01*
X40185094Y-149761718D01*
X40099632Y-150043447D01*
X39986968Y-150315442D01*
X39848186Y-150575085D01*
X39684623Y-150819875D01*
X39497853Y-151047454D01*
X39393765Y-151151542D01*
X40275000Y-152032777D01*
X34275000Y-152032777D01*
X35156235Y-151151542D01*
X35052147Y-151047454D01*
X34865377Y-150819875D01*
X34701814Y-150575085D01*
X34563032Y-150315442D01*
X34450368Y-150043447D01*
X34364906Y-149761718D01*
X34307470Y-149472968D01*
X34278614Y-149179980D01*
X34278614Y-148885574D01*
X34307470Y-148592586D01*
X34364906Y-148303836D01*
X34450368Y-148022107D01*
X34563032Y-147750112D01*
X34701814Y-147490469D01*
X34865377Y-147245679D01*
X35052147Y-147018100D01*
X35260323Y-146809924D01*
X35487902Y-146623154D01*
X35732692Y-146459591D01*
X35992335Y-146320809D01*
X36264330Y-146208145D01*
X36546059Y-146122683D01*
X36834809Y-146065247D01*
X37127797Y-146036391D01*
X37422203Y-146036391D01*
X37715191Y-146065247D01*
G37*
G04 #@! TD.AperFunction*
G04 #@! TA.AperFunction,ComponentPad*
G36*
G01*
X34275000Y-152032777D02*
X40275000Y-152032777D01*
G75*
G02*
X40775000Y-152532777I0J-500000D01*
G01*
X40775000Y-153532777D01*
G75*
G02*
X40275000Y-154032777I-500000J0D01*
G01*
X34275000Y-154032777D01*
G75*
G02*
X33775000Y-153532777I0J500000D01*
G01*
X33775000Y-152532777D01*
G75*
G02*
X34275000Y-152032777I500000J0D01*
G01*
G37*
G04 #@! TD.AperFunction*
G04 #@! TA.AperFunction,ComponentPad*
G36*
G01*
X117500000Y-152032777D02*
X123500000Y-152032777D01*
G75*
G02*
X124000000Y-152532777I0J-500000D01*
G01*
X124000000Y-153532777D01*
G75*
G02*
X123500000Y-154032777I-500000J0D01*
G01*
X117500000Y-154032777D01*
G75*
G02*
X117000000Y-153532777I0J500000D01*
G01*
X117000000Y-152532777D01*
G75*
G02*
X117500000Y-152032777I500000J0D01*
G01*
G37*
G04 #@! TD.AperFunction*
G04 #@! TA.AperFunction,ComponentPad*
G36*
X120940191Y-146065247D02*
G01*
X121228941Y-146122683D01*
X121510670Y-146208145D01*
X121782665Y-146320809D01*
X122042308Y-146459591D01*
X122287098Y-146623154D01*
X122514677Y-146809924D01*
X122722853Y-147018100D01*
X122909623Y-147245679D01*
X123073186Y-147490469D01*
X123211968Y-147750112D01*
X123324632Y-148022107D01*
X123410094Y-148303836D01*
X123467530Y-148592586D01*
X123496386Y-148885574D01*
X123496386Y-149179980D01*
X123467530Y-149472968D01*
X123410094Y-149761718D01*
X123324632Y-150043447D01*
X123211968Y-150315442D01*
X123073186Y-150575085D01*
X122909623Y-150819875D01*
X122722853Y-151047454D01*
X122618765Y-151151542D01*
X123500000Y-152032777D01*
X117500000Y-152032777D01*
X118381235Y-151151542D01*
X118277147Y-151047454D01*
X118090377Y-150819875D01*
X117926814Y-150575085D01*
X117788032Y-150315442D01*
X117675368Y-150043447D01*
X117589906Y-149761718D01*
X117532470Y-149472968D01*
X117503614Y-149179980D01*
X117503614Y-148885574D01*
X117532470Y-148592586D01*
X117589906Y-148303836D01*
X117675368Y-148022107D01*
X117788032Y-147750112D01*
X117926814Y-147490469D01*
X118090377Y-147245679D01*
X118277147Y-147018100D01*
X118485323Y-146809924D01*
X118712902Y-146623154D01*
X118957692Y-146459591D01*
X119217335Y-146320809D01*
X119489330Y-146208145D01*
X119771059Y-146122683D01*
X120059809Y-146065247D01*
X120352797Y-146036391D01*
X120647203Y-146036391D01*
X120940191Y-146065247D01*
G37*
G04 #@! TD.AperFunction*
G04 #@! TA.AperFunction,ComponentPad*
G36*
G01*
X104945000Y-152032777D02*
X110945000Y-152032777D01*
G75*
G02*
X111445000Y-152532777I0J-500000D01*
G01*
X111445000Y-153532777D01*
G75*
G02*
X110945000Y-154032777I-500000J0D01*
G01*
X104945000Y-154032777D01*
G75*
G02*
X104445000Y-153532777I0J500000D01*
G01*
X104445000Y-152532777D01*
G75*
G02*
X104945000Y-152032777I500000J0D01*
G01*
G37*
G04 #@! TD.AperFunction*
G04 #@! TA.AperFunction,ComponentPad*
G36*
X108385191Y-146065247D02*
G01*
X108673941Y-146122683D01*
X108955670Y-146208145D01*
X109227665Y-146320809D01*
X109487308Y-146459591D01*
X109732098Y-146623154D01*
X109959677Y-146809924D01*
X110167853Y-147018100D01*
X110354623Y-147245679D01*
X110518186Y-147490469D01*
X110656968Y-147750112D01*
X110769632Y-148022107D01*
X110855094Y-148303836D01*
X110912530Y-148592586D01*
X110941386Y-148885574D01*
X110941386Y-149179980D01*
X110912530Y-149472968D01*
X110855094Y-149761718D01*
X110769632Y-150043447D01*
X110656968Y-150315442D01*
X110518186Y-150575085D01*
X110354623Y-150819875D01*
X110167853Y-151047454D01*
X110063765Y-151151542D01*
X110945000Y-152032777D01*
X104945000Y-152032777D01*
X105826235Y-151151542D01*
X105722147Y-151047454D01*
X105535377Y-150819875D01*
X105371814Y-150575085D01*
X105233032Y-150315442D01*
X105120368Y-150043447D01*
X105034906Y-149761718D01*
X104977470Y-149472968D01*
X104948614Y-149179980D01*
X104948614Y-148885574D01*
X104977470Y-148592586D01*
X105034906Y-148303836D01*
X105120368Y-148022107D01*
X105233032Y-147750112D01*
X105371814Y-147490469D01*
X105535377Y-147245679D01*
X105722147Y-147018100D01*
X105930323Y-146809924D01*
X106157902Y-146623154D01*
X106402692Y-146459591D01*
X106662335Y-146320809D01*
X106934330Y-146208145D01*
X107216059Y-146122683D01*
X107504809Y-146065247D01*
X107797797Y-146036391D01*
X108092203Y-146036391D01*
X108385191Y-146065247D01*
G37*
G04 #@! TD.AperFunction*
G04 #@! TA.AperFunction,ComponentPad*
G36*
G01*
X60450000Y-152032777D02*
X66450000Y-152032777D01*
G75*
G02*
X66950000Y-152532777I0J-500000D01*
G01*
X66950000Y-153532777D01*
G75*
G02*
X66450000Y-154032777I-500000J0D01*
G01*
X60450000Y-154032777D01*
G75*
G02*
X59950000Y-153532777I0J500000D01*
G01*
X59950000Y-152532777D01*
G75*
G02*
X60450000Y-152032777I500000J0D01*
G01*
G37*
G04 #@! TD.AperFunction*
G04 #@! TA.AperFunction,ComponentPad*
G36*
X63890191Y-146065247D02*
G01*
X64178941Y-146122683D01*
X64460670Y-146208145D01*
X64732665Y-146320809D01*
X64992308Y-146459591D01*
X65237098Y-146623154D01*
X65464677Y-146809924D01*
X65672853Y-147018100D01*
X65859623Y-147245679D01*
X66023186Y-147490469D01*
X66161968Y-147750112D01*
X66274632Y-148022107D01*
X66360094Y-148303836D01*
X66417530Y-148592586D01*
X66446386Y-148885574D01*
X66446386Y-149179980D01*
X66417530Y-149472968D01*
X66360094Y-149761718D01*
X66274632Y-150043447D01*
X66161968Y-150315442D01*
X66023186Y-150575085D01*
X65859623Y-150819875D01*
X65672853Y-151047454D01*
X65568765Y-151151542D01*
X66450000Y-152032777D01*
X60450000Y-152032777D01*
X61331235Y-151151542D01*
X61227147Y-151047454D01*
X61040377Y-150819875D01*
X60876814Y-150575085D01*
X60738032Y-150315442D01*
X60625368Y-150043447D01*
X60539906Y-149761718D01*
X60482470Y-149472968D01*
X60453614Y-149179980D01*
X60453614Y-148885574D01*
X60482470Y-148592586D01*
X60539906Y-148303836D01*
X60625368Y-148022107D01*
X60738032Y-147750112D01*
X60876814Y-147490469D01*
X61040377Y-147245679D01*
X61227147Y-147018100D01*
X61435323Y-146809924D01*
X61662902Y-146623154D01*
X61907692Y-146459591D01*
X62167335Y-146320809D01*
X62439330Y-146208145D01*
X62721059Y-146122683D01*
X63009809Y-146065247D01*
X63302797Y-146036391D01*
X63597203Y-146036391D01*
X63890191Y-146065247D01*
G37*
G04 #@! TD.AperFunction*
G04 #@! TA.AperFunction,ComponentPad*
G36*
X51315191Y-146065247D02*
G01*
X51603941Y-146122683D01*
X51885670Y-146208145D01*
X52157665Y-146320809D01*
X52417308Y-146459591D01*
X52662098Y-146623154D01*
X52889677Y-146809924D01*
X53097853Y-147018100D01*
X53284623Y-147245679D01*
X53448186Y-147490469D01*
X53586968Y-147750112D01*
X53699632Y-148022107D01*
X53785094Y-148303836D01*
X53842530Y-148592586D01*
X53871386Y-148885574D01*
X53871386Y-149179980D01*
X53842530Y-149472968D01*
X53785094Y-149761718D01*
X53699632Y-150043447D01*
X53586968Y-150315442D01*
X53448186Y-150575085D01*
X53284623Y-150819875D01*
X53097853Y-151047454D01*
X52993765Y-151151542D01*
X53875000Y-152032777D01*
X47875000Y-152032777D01*
X48756235Y-151151542D01*
X48652147Y-151047454D01*
X48465377Y-150819875D01*
X48301814Y-150575085D01*
X48163032Y-150315442D01*
X48050368Y-150043447D01*
X47964906Y-149761718D01*
X47907470Y-149472968D01*
X47878614Y-149179980D01*
X47878614Y-148885574D01*
X47907470Y-148592586D01*
X47964906Y-148303836D01*
X48050368Y-148022107D01*
X48163032Y-147750112D01*
X48301814Y-147490469D01*
X48465377Y-147245679D01*
X48652147Y-147018100D01*
X48860323Y-146809924D01*
X49087902Y-146623154D01*
X49332692Y-146459591D01*
X49592335Y-146320809D01*
X49864330Y-146208145D01*
X50146059Y-146122683D01*
X50434809Y-146065247D01*
X50727797Y-146036391D01*
X51022203Y-146036391D01*
X51315191Y-146065247D01*
G37*
G04 #@! TD.AperFunction*
G04 #@! TA.AperFunction,ComponentPad*
G36*
G01*
X47875000Y-152032777D02*
X53875000Y-152032777D01*
G75*
G02*
X54375000Y-152532777I0J-500000D01*
G01*
X54375000Y-153532777D01*
G75*
G02*
X53875000Y-154032777I-500000J0D01*
G01*
X47875000Y-154032777D01*
G75*
G02*
X47375000Y-153532777I0J500000D01*
G01*
X47375000Y-152532777D01*
G75*
G02*
X47875000Y-152032777I500000J0D01*
G01*
G37*
G04 #@! TD.AperFunction*
G04 #@! TA.AperFunction,ComponentPad*
G36*
G01*
X88975000Y-152032777D02*
X94975000Y-152032777D01*
G75*
G02*
X95475000Y-152532777I0J-500000D01*
G01*
X95475000Y-153532777D01*
G75*
G02*
X94975000Y-154032777I-500000J0D01*
G01*
X88975000Y-154032777D01*
G75*
G02*
X88475000Y-153532777I0J500000D01*
G01*
X88475000Y-152532777D01*
G75*
G02*
X88975000Y-152032777I500000J0D01*
G01*
G37*
G04 #@! TD.AperFunction*
G04 #@! TA.AperFunction,ComponentPad*
G36*
X92415191Y-146065247D02*
G01*
X92703941Y-146122683D01*
X92985670Y-146208145D01*
X93257665Y-146320809D01*
X93517308Y-146459591D01*
X93762098Y-146623154D01*
X93989677Y-146809924D01*
X94197853Y-147018100D01*
X94384623Y-147245679D01*
X94548186Y-147490469D01*
X94686968Y-147750112D01*
X94799632Y-148022107D01*
X94885094Y-148303836D01*
X94942530Y-148592586D01*
X94971386Y-148885574D01*
X94971386Y-149179980D01*
X94942530Y-149472968D01*
X94885094Y-149761718D01*
X94799632Y-150043447D01*
X94686968Y-150315442D01*
X94548186Y-150575085D01*
X94384623Y-150819875D01*
X94197853Y-151047454D01*
X94093765Y-151151542D01*
X94975000Y-152032777D01*
X88975000Y-152032777D01*
X89856235Y-151151542D01*
X89752147Y-151047454D01*
X89565377Y-150819875D01*
X89401814Y-150575085D01*
X89263032Y-150315442D01*
X89150368Y-150043447D01*
X89064906Y-149761718D01*
X89007470Y-149472968D01*
X88978614Y-149179980D01*
X88978614Y-148885574D01*
X89007470Y-148592586D01*
X89064906Y-148303836D01*
X89150368Y-148022107D01*
X89263032Y-147750112D01*
X89401814Y-147490469D01*
X89565377Y-147245679D01*
X89752147Y-147018100D01*
X89960323Y-146809924D01*
X90187902Y-146623154D01*
X90432692Y-146459591D01*
X90692335Y-146320809D01*
X90964330Y-146208145D01*
X91246059Y-146122683D01*
X91534809Y-146065247D01*
X91827797Y-146036391D01*
X92122203Y-146036391D01*
X92415191Y-146065247D01*
G37*
G04 #@! TD.AperFunction*
G04 #@! TA.AperFunction,ComponentPad*
G36*
G01*
X76400000Y-152032777D02*
X82400000Y-152032777D01*
G75*
G02*
X82900000Y-152532777I0J-500000D01*
G01*
X82900000Y-153532777D01*
G75*
G02*
X82400000Y-154032777I-500000J0D01*
G01*
X76400000Y-154032777D01*
G75*
G02*
X75900000Y-153532777I0J500000D01*
G01*
X75900000Y-152532777D01*
G75*
G02*
X76400000Y-152032777I500000J0D01*
G01*
G37*
G04 #@! TD.AperFunction*
G04 #@! TA.AperFunction,ComponentPad*
G36*
X79840191Y-146065247D02*
G01*
X80128941Y-146122683D01*
X80410670Y-146208145D01*
X80682665Y-146320809D01*
X80942308Y-146459591D01*
X81187098Y-146623154D01*
X81414677Y-146809924D01*
X81622853Y-147018100D01*
X81809623Y-147245679D01*
X81973186Y-147490469D01*
X82111968Y-147750112D01*
X82224632Y-148022107D01*
X82310094Y-148303836D01*
X82367530Y-148592586D01*
X82396386Y-148885574D01*
X82396386Y-149179980D01*
X82367530Y-149472968D01*
X82310094Y-149761718D01*
X82224632Y-150043447D01*
X82111968Y-150315442D01*
X81973186Y-150575085D01*
X81809623Y-150819875D01*
X81622853Y-151047454D01*
X81518765Y-151151542D01*
X82400000Y-152032777D01*
X76400000Y-152032777D01*
X77281235Y-151151542D01*
X77177147Y-151047454D01*
X76990377Y-150819875D01*
X76826814Y-150575085D01*
X76688032Y-150315442D01*
X76575368Y-150043447D01*
X76489906Y-149761718D01*
X76432470Y-149472968D01*
X76403614Y-149179980D01*
X76403614Y-148885574D01*
X76432470Y-148592586D01*
X76489906Y-148303836D01*
X76575368Y-148022107D01*
X76688032Y-147750112D01*
X76826814Y-147490469D01*
X76990377Y-147245679D01*
X77177147Y-147018100D01*
X77385323Y-146809924D01*
X77612902Y-146623154D01*
X77857692Y-146459591D01*
X78117335Y-146320809D01*
X78389330Y-146208145D01*
X78671059Y-146122683D01*
X78959809Y-146065247D01*
X79252797Y-146036391D01*
X79547203Y-146036391D01*
X79840191Y-146065247D01*
G37*
G04 #@! TD.AperFunction*
G04 #@! TA.AperFunction,ComponentPad*
G36*
G01*
X146045000Y-152032777D02*
X152045000Y-152032777D01*
G75*
G02*
X152545000Y-152532777I0J-500000D01*
G01*
X152545000Y-153532777D01*
G75*
G02*
X152045000Y-154032777I-500000J0D01*
G01*
X146045000Y-154032777D01*
G75*
G02*
X145545000Y-153532777I0J500000D01*
G01*
X145545000Y-152532777D01*
G75*
G02*
X146045000Y-152032777I500000J0D01*
G01*
G37*
G04 #@! TD.AperFunction*
G04 #@! TA.AperFunction,ComponentPad*
G36*
X149485191Y-146065247D02*
G01*
X149773941Y-146122683D01*
X150055670Y-146208145D01*
X150327665Y-146320809D01*
X150587308Y-146459591D01*
X150832098Y-146623154D01*
X151059677Y-146809924D01*
X151267853Y-147018100D01*
X151454623Y-147245679D01*
X151618186Y-147490469D01*
X151756968Y-147750112D01*
X151869632Y-148022107D01*
X151955094Y-148303836D01*
X152012530Y-148592586D01*
X152041386Y-148885574D01*
X152041386Y-149179980D01*
X152012530Y-149472968D01*
X151955094Y-149761718D01*
X151869632Y-150043447D01*
X151756968Y-150315442D01*
X151618186Y-150575085D01*
X151454623Y-150819875D01*
X151267853Y-151047454D01*
X151163765Y-151151542D01*
X152045000Y-152032777D01*
X146045000Y-152032777D01*
X146926235Y-151151542D01*
X146822147Y-151047454D01*
X146635377Y-150819875D01*
X146471814Y-150575085D01*
X146333032Y-150315442D01*
X146220368Y-150043447D01*
X146134906Y-149761718D01*
X146077470Y-149472968D01*
X146048614Y-149179980D01*
X146048614Y-148885574D01*
X146077470Y-148592586D01*
X146134906Y-148303836D01*
X146220368Y-148022107D01*
X146333032Y-147750112D01*
X146471814Y-147490469D01*
X146635377Y-147245679D01*
X146822147Y-147018100D01*
X147030323Y-146809924D01*
X147257902Y-146623154D01*
X147502692Y-146459591D01*
X147762335Y-146320809D01*
X148034330Y-146208145D01*
X148316059Y-146122683D01*
X148604809Y-146065247D01*
X148897797Y-146036391D01*
X149192203Y-146036391D01*
X149485191Y-146065247D01*
G37*
G04 #@! TD.AperFunction*
G04 #@! TA.AperFunction,ComponentPad*
G36*
X136910191Y-146065247D02*
G01*
X137198941Y-146122683D01*
X137480670Y-146208145D01*
X137752665Y-146320809D01*
X138012308Y-146459591D01*
X138257098Y-146623154D01*
X138484677Y-146809924D01*
X138692853Y-147018100D01*
X138879623Y-147245679D01*
X139043186Y-147490469D01*
X139181968Y-147750112D01*
X139294632Y-148022107D01*
X139380094Y-148303836D01*
X139437530Y-148592586D01*
X139466386Y-148885574D01*
X139466386Y-149179980D01*
X139437530Y-149472968D01*
X139380094Y-149761718D01*
X139294632Y-150043447D01*
X139181968Y-150315442D01*
X139043186Y-150575085D01*
X138879623Y-150819875D01*
X138692853Y-151047454D01*
X138588765Y-151151542D01*
X139470000Y-152032777D01*
X133470000Y-152032777D01*
X134351235Y-151151542D01*
X134247147Y-151047454D01*
X134060377Y-150819875D01*
X133896814Y-150575085D01*
X133758032Y-150315442D01*
X133645368Y-150043447D01*
X133559906Y-149761718D01*
X133502470Y-149472968D01*
X133473614Y-149179980D01*
X133473614Y-148885574D01*
X133502470Y-148592586D01*
X133559906Y-148303836D01*
X133645368Y-148022107D01*
X133758032Y-147750112D01*
X133896814Y-147490469D01*
X134060377Y-147245679D01*
X134247147Y-147018100D01*
X134455323Y-146809924D01*
X134682902Y-146623154D01*
X134927692Y-146459591D01*
X135187335Y-146320809D01*
X135459330Y-146208145D01*
X135741059Y-146122683D01*
X136029809Y-146065247D01*
X136322797Y-146036391D01*
X136617203Y-146036391D01*
X136910191Y-146065247D01*
G37*
G04 #@! TD.AperFunction*
G04 #@! TA.AperFunction,ComponentPad*
G36*
G01*
X133470000Y-152032777D02*
X139470000Y-152032777D01*
G75*
G02*
X139970000Y-152532777I0J-500000D01*
G01*
X139970000Y-153532777D01*
G75*
G02*
X139470000Y-154032777I-500000J0D01*
G01*
X133470000Y-154032777D01*
G75*
G02*
X132970000Y-153532777I0J500000D01*
G01*
X132970000Y-152532777D01*
G75*
G02*
X133470000Y-152032777I500000J0D01*
G01*
G37*
G04 #@! TD.AperFunction*
G04 #@! TA.AperFunction,ComponentPad*
G36*
G01*
X154430000Y-32160000D02*
X160430000Y-32160000D01*
G75*
G02*
X160930000Y-32660000I0J-500000D01*
G01*
X160930000Y-33660000D01*
G75*
G02*
X160430000Y-34160000I-500000J0D01*
G01*
X154430000Y-34160000D01*
G75*
G02*
X153930000Y-33660000I0J500000D01*
G01*
X153930000Y-32660000D01*
G75*
G02*
X154430000Y-32160000I500000J0D01*
G01*
G37*
G04 #@! TD.AperFunction*
G04 #@! TA.AperFunction,ComponentPad*
G36*
X157870191Y-26192470D02*
G01*
X158158941Y-26249906D01*
X158440670Y-26335368D01*
X158712665Y-26448032D01*
X158972308Y-26586814D01*
X159217098Y-26750377D01*
X159444677Y-26937147D01*
X159652853Y-27145323D01*
X159839623Y-27372902D01*
X160003186Y-27617692D01*
X160141968Y-27877335D01*
X160254632Y-28149330D01*
X160340094Y-28431059D01*
X160397530Y-28719809D01*
X160426386Y-29012797D01*
X160426386Y-29307203D01*
X160397530Y-29600191D01*
X160340094Y-29888941D01*
X160254632Y-30170670D01*
X160141968Y-30442665D01*
X160003186Y-30702308D01*
X159839623Y-30947098D01*
X159652853Y-31174677D01*
X159548765Y-31278765D01*
X160430000Y-32160000D01*
X154430000Y-32160000D01*
X155311235Y-31278765D01*
X155207147Y-31174677D01*
X155020377Y-30947098D01*
X154856814Y-30702308D01*
X154718032Y-30442665D01*
X154605368Y-30170670D01*
X154519906Y-29888941D01*
X154462470Y-29600191D01*
X154433614Y-29307203D01*
X154433614Y-29012797D01*
X154462470Y-28719809D01*
X154519906Y-28431059D01*
X154605368Y-28149330D01*
X154718032Y-27877335D01*
X154856814Y-27617692D01*
X155020377Y-27372902D01*
X155207147Y-27145323D01*
X155415323Y-26937147D01*
X155642902Y-26750377D01*
X155887692Y-26586814D01*
X156147335Y-26448032D01*
X156419330Y-26335368D01*
X156701059Y-26249906D01*
X156989809Y-26192470D01*
X157282797Y-26163614D01*
X157577203Y-26163614D01*
X157870191Y-26192470D01*
G37*
G04 #@! TD.AperFunction*
G04 #@! TA.AperFunction,ComponentPad*
G36*
G01*
X160430000Y-197300000D02*
X154430000Y-197300000D01*
G75*
G02*
X153930000Y-196800000I0J500000D01*
G01*
X153930000Y-195800000D01*
G75*
G02*
X154430000Y-195300000I500000J0D01*
G01*
X160430000Y-195300000D01*
G75*
G02*
X160930000Y-195800000I0J-500000D01*
G01*
X160930000Y-196800000D01*
G75*
G02*
X160430000Y-197300000I-500000J0D01*
G01*
G37*
G04 #@! TD.AperFunction*
G04 #@! TA.AperFunction,ComponentPad*
G36*
X156989809Y-203267530D02*
G01*
X156701059Y-203210094D01*
X156419330Y-203124632D01*
X156147335Y-203011968D01*
X155887692Y-202873186D01*
X155642902Y-202709623D01*
X155415323Y-202522853D01*
X155207147Y-202314677D01*
X155020377Y-202087098D01*
X154856814Y-201842308D01*
X154718032Y-201582665D01*
X154605368Y-201310670D01*
X154519906Y-201028941D01*
X154462470Y-200740191D01*
X154433614Y-200447203D01*
X154433614Y-200152797D01*
X154462470Y-199859809D01*
X154519906Y-199571059D01*
X154605368Y-199289330D01*
X154718032Y-199017335D01*
X154856814Y-198757692D01*
X155020377Y-198512902D01*
X155207147Y-198285323D01*
X155311235Y-198181235D01*
X154430000Y-197300000D01*
X160430000Y-197300000D01*
X159548765Y-198181235D01*
X159652853Y-198285323D01*
X159839623Y-198512902D01*
X160003186Y-198757692D01*
X160141968Y-199017335D01*
X160254632Y-199289330D01*
X160340094Y-199571059D01*
X160397530Y-199859809D01*
X160426386Y-200152797D01*
X160426386Y-200447203D01*
X160397530Y-200740191D01*
X160340094Y-201028941D01*
X160254632Y-201310670D01*
X160141968Y-201582665D01*
X160003186Y-201842308D01*
X159839623Y-202087098D01*
X159652853Y-202314677D01*
X159444677Y-202522853D01*
X159217098Y-202709623D01*
X158972308Y-202873186D01*
X158712665Y-203011968D01*
X158440670Y-203124632D01*
X158158941Y-203210094D01*
X157870191Y-203267530D01*
X157577203Y-203296386D01*
X157282797Y-203296386D01*
X156989809Y-203267530D01*
G37*
G04 #@! TD.AperFunction*
D12*
X37290000Y-57924315D03*
D13*
X37290000Y-60464315D03*
D12*
X37300000Y-113249315D03*
D13*
X37300000Y-115789315D03*
X37275000Y-171169315D03*
D12*
X37275000Y-168629315D03*
D14*
X28070000Y-64446815D03*
X28070000Y-54186815D03*
X20450000Y-54186815D03*
X20450000Y-64446815D03*
D15*
X20450000Y-66986815D03*
D14*
X28070000Y-51746815D03*
X20450000Y-51746815D03*
X28070000Y-66986815D03*
X28070000Y-122311815D03*
X20450000Y-107071815D03*
X28070000Y-107071815D03*
D15*
X20450000Y-122311815D03*
D14*
X20450000Y-119771815D03*
X20450000Y-109511815D03*
X28070000Y-109511815D03*
X28070000Y-119771815D03*
X28070000Y-175151815D03*
X28070000Y-164891815D03*
X20450000Y-164891815D03*
X20450000Y-175151815D03*
D15*
X20450000Y-177691815D03*
D14*
X28070000Y-162451815D03*
X20450000Y-162451815D03*
X28070000Y-177691815D03*
G04 #@! TA.AperFunction,SMDPad,CuDef*
G36*
G01*
X34345001Y-58486815D02*
X33094999Y-58486815D01*
G75*
G02*
X32845000Y-58236816I0J249999D01*
G01*
X32845000Y-57611814D01*
G75*
G02*
X33094999Y-57361815I249999J0D01*
G01*
X34345001Y-57361815D01*
G75*
G02*
X34595000Y-57611814I0J-249999D01*
G01*
X34595000Y-58236816D01*
G75*
G02*
X34345001Y-58486815I-249999J0D01*
G01*
G37*
G04 #@! TD.AperFunction*
G04 #@! TA.AperFunction,SMDPad,CuDef*
G36*
G01*
X34345001Y-61411815D02*
X33094999Y-61411815D01*
G75*
G02*
X32845000Y-61161816I0J249999D01*
G01*
X32845000Y-60536814D01*
G75*
G02*
X33094999Y-60286815I249999J0D01*
G01*
X34345001Y-60286815D01*
G75*
G02*
X34595000Y-60536814I0J-249999D01*
G01*
X34595000Y-61161816D01*
G75*
G02*
X34345001Y-61411815I-249999J0D01*
G01*
G37*
G04 #@! TD.AperFunction*
G04 #@! TA.AperFunction,SMDPad,CuDef*
G36*
G01*
X34345001Y-116736815D02*
X33094999Y-116736815D01*
G75*
G02*
X32845000Y-116486816I0J249999D01*
G01*
X32845000Y-115861814D01*
G75*
G02*
X33094999Y-115611815I249999J0D01*
G01*
X34345001Y-115611815D01*
G75*
G02*
X34595000Y-115861814I0J-249999D01*
G01*
X34595000Y-116486816D01*
G75*
G02*
X34345001Y-116736815I-249999J0D01*
G01*
G37*
G04 #@! TD.AperFunction*
G04 #@! TA.AperFunction,SMDPad,CuDef*
G36*
G01*
X34345001Y-113811815D02*
X33094999Y-113811815D01*
G75*
G02*
X32845000Y-113561816I0J249999D01*
G01*
X32845000Y-112936814D01*
G75*
G02*
X33094999Y-112686815I249999J0D01*
G01*
X34345001Y-112686815D01*
G75*
G02*
X34595000Y-112936814I0J-249999D01*
G01*
X34595000Y-113561816D01*
G75*
G02*
X34345001Y-113811815I-249999J0D01*
G01*
G37*
G04 #@! TD.AperFunction*
G04 #@! TA.AperFunction,SMDPad,CuDef*
G36*
G01*
X34345001Y-172116815D02*
X33094999Y-172116815D01*
G75*
G02*
X32845000Y-171866816I0J249999D01*
G01*
X32845000Y-171241814D01*
G75*
G02*
X33094999Y-170991815I249999J0D01*
G01*
X34345001Y-170991815D01*
G75*
G02*
X34595000Y-171241814I0J-249999D01*
G01*
X34595000Y-171866816D01*
G75*
G02*
X34345001Y-172116815I-249999J0D01*
G01*
G37*
G04 #@! TD.AperFunction*
G04 #@! TA.AperFunction,SMDPad,CuDef*
G36*
G01*
X34345001Y-169191815D02*
X33094999Y-169191815D01*
G75*
G02*
X32845000Y-168941816I0J249999D01*
G01*
X32845000Y-168316814D01*
G75*
G02*
X33094999Y-168066815I249999J0D01*
G01*
X34345001Y-168066815D01*
G75*
G02*
X34595000Y-168316814I0J-249999D01*
G01*
X34595000Y-168941816D01*
G75*
G02*
X34345001Y-169191815I-249999J0D01*
G01*
G37*
G04 #@! TD.AperFunction*
D16*
X117790000Y-69730000D03*
D17*
X115250000Y-69730000D03*
X112710000Y-69730000D03*
X110170000Y-69730000D03*
X107630000Y-69730000D03*
X105090000Y-69730000D03*
X102550000Y-69730000D03*
X100010000Y-69730000D03*
X97470000Y-69730000D03*
X94930000Y-69730000D03*
X92390000Y-69730000D03*
X89850000Y-69730000D03*
X87310000Y-69730000D03*
X84770000Y-69730000D03*
X82230000Y-69730000D03*
X79690000Y-69730000D03*
X77150000Y-69730000D03*
X74610000Y-69730000D03*
X72070000Y-69730000D03*
X69530000Y-69730000D03*
X66990000Y-69730000D03*
X64450000Y-69730000D03*
X64450000Y-159730000D03*
X66990000Y-159730000D03*
X69530000Y-159730000D03*
X72070000Y-159730000D03*
X74610000Y-159730000D03*
X77150000Y-159730000D03*
X79690000Y-159730000D03*
X82230000Y-159730000D03*
X84770000Y-159730000D03*
X87310000Y-159730000D03*
X89850000Y-159730000D03*
X92390000Y-159730000D03*
X94930000Y-159730000D03*
X97470000Y-159730000D03*
X100010000Y-159730000D03*
X102550000Y-159730000D03*
X105090000Y-159730000D03*
X107630000Y-159730000D03*
X110170000Y-159730000D03*
X112710000Y-159730000D03*
X115250000Y-159730000D03*
D16*
X117790000Y-159730000D03*
D18*
X28110000Y-56250000D03*
D19*
X73970012Y-115999996D03*
D18*
X28110000Y-111440000D03*
D19*
X102520000Y-90780000D03*
X102520000Y-127430000D03*
X102520000Y-118230000D03*
X71730010Y-95600000D03*
D18*
X28130000Y-167170000D03*
D19*
X82630000Y-172480000D03*
X127265000Y-167795000D03*
X114560000Y-168160000D03*
X82880000Y-168160000D03*
X82510000Y-179630000D03*
X82630000Y-176180000D03*
X69530000Y-82960000D03*
X68630000Y-91880000D03*
X65790000Y-105410000D03*
X105810000Y-123020000D03*
X112880000Y-123020000D03*
D20*
X37300000Y-80377223D02*
X37300000Y-71050000D01*
X30696815Y-64446815D02*
X28070000Y-64446815D01*
X37300000Y-71050000D02*
X30696815Y-64446815D01*
D21*
X37300000Y-80377223D02*
X37300000Y-76377223D01*
X115250000Y-68409998D02*
X115250000Y-69730000D01*
X117029998Y-66630000D02*
X115250000Y-68409998D01*
X147310000Y-66630000D02*
X117029998Y-66630000D01*
X151030000Y-70350000D02*
X147310000Y-66630000D01*
X151030000Y-85790000D02*
X151030000Y-70350000D01*
X148490000Y-88330000D02*
X151030000Y-85790000D01*
X45252777Y-88330000D02*
X148490000Y-88330000D01*
X37300000Y-80377223D02*
X45252777Y-88330000D01*
D20*
X37300000Y-129001815D02*
X28070000Y-119771815D01*
X37300000Y-135697223D02*
X37300000Y-129001815D01*
D21*
X79690000Y-69730000D02*
X79740000Y-69730000D01*
X37300000Y-135697223D02*
X37300000Y-131697223D01*
D20*
X37275000Y-184356815D02*
X28070000Y-175151815D01*
X37275000Y-187077223D02*
X37275000Y-184356815D01*
D21*
X37275000Y-191077223D02*
X37275000Y-187077223D01*
X45370000Y-182982223D02*
X37275000Y-191077223D01*
X45370000Y-146640000D02*
X45370000Y-182982223D01*
X47850000Y-144160000D02*
X45370000Y-146640000D01*
X95130000Y-144160000D02*
X47850000Y-144160000D01*
X97470000Y-146500000D02*
X95130000Y-144160000D01*
X97470000Y-159730000D02*
X97470000Y-146500000D01*
D20*
X33720000Y-57924315D02*
X37290000Y-57924315D01*
X33720000Y-113249315D02*
X37300000Y-113249315D01*
X37275000Y-168629315D02*
X33720000Y-168629315D01*
D22*
X27000000Y-30000000D02*
X27000000Y-28500000D01*
D21*
X157430000Y-29160000D02*
X157430000Y-33160000D01*
X27000000Y-30160000D02*
X27000000Y-34160000D01*
D22*
X26880000Y-201000000D02*
X26880000Y-202250000D01*
X27000000Y-202250000D02*
X31500000Y-206750000D01*
X150980000Y-206750000D02*
X157430000Y-200300000D01*
X145310000Y-206750000D02*
X150980000Y-206750000D01*
X31500000Y-206750000D02*
X145310000Y-206750000D01*
D21*
X42600685Y-69730000D02*
X64450000Y-69730000D01*
X33720000Y-60849315D02*
X42600685Y-69730000D01*
X52580000Y-194710000D02*
X46000000Y-201290000D01*
X52580000Y-179580000D02*
X52580000Y-194710000D01*
X46000000Y-201290000D02*
X26880000Y-201290000D01*
X64450000Y-167710000D02*
X52580000Y-179580000D01*
X64450000Y-159730000D02*
X64450000Y-167710000D01*
X26880000Y-201290000D02*
X26880000Y-197290000D01*
X157430000Y-200300000D02*
X157430000Y-196300000D01*
X59182500Y-80340000D02*
X59182500Y-76340000D01*
X64082500Y-85240000D02*
X59182500Y-80340000D01*
X100820000Y-85240000D02*
X64082500Y-85240000D01*
X112710000Y-73350000D02*
X100820000Y-85240000D01*
X112650000Y-69730000D02*
X112710000Y-69790000D01*
X112710000Y-69790000D02*
X112710000Y-73350000D01*
X112710000Y-69730000D02*
X112650000Y-69730000D01*
X116252500Y-80377223D02*
X116252500Y-76377223D01*
X105090000Y-69730000D02*
X105090000Y-74880000D01*
X99630000Y-80340000D02*
X87707500Y-80340000D01*
X105090000Y-74880000D02*
X99630000Y-80340000D01*
X87707500Y-80340000D02*
X87707500Y-76340000D01*
D20*
X144740277Y-80340000D02*
X144777500Y-80377223D01*
D21*
X144777500Y-80377223D02*
X144777500Y-76377223D01*
D23*
X37300000Y-43342777D02*
X37300000Y-39342777D01*
D20*
X35692777Y-40940000D02*
X37300000Y-39332777D01*
X36767223Y-38800000D02*
X37300000Y-39332777D01*
D21*
X37300000Y-39332777D02*
X37300000Y-43332777D01*
D20*
X37300000Y-49770000D02*
X37300000Y-39332777D01*
X30820000Y-56250000D02*
X37300000Y-49770000D01*
X28110000Y-56250000D02*
X30820000Y-56250000D01*
D21*
X63475000Y-35125000D02*
X63475000Y-39332777D01*
X66890010Y-31709990D02*
X63475000Y-35125000D01*
X100070010Y-36310010D02*
X95469990Y-31709990D01*
X100070010Y-58130010D02*
X100070010Y-36310010D01*
X95469990Y-31709990D02*
X66890010Y-31709990D01*
X107630000Y-65690000D02*
X100070010Y-58130010D01*
X107630000Y-69730000D02*
X107630000Y-65690000D01*
X63475000Y-39332777D02*
X63475000Y-43332777D01*
X53011105Y-37221672D02*
X50900000Y-39332777D01*
X96630000Y-28890000D02*
X61342777Y-28890000D01*
X102830000Y-35090000D02*
X96630000Y-28890000D01*
X61342777Y-28890000D02*
X53011105Y-37221672D01*
X102830000Y-57320000D02*
X102830000Y-35090000D01*
X110170000Y-64660000D02*
X102830000Y-57320000D01*
X110170000Y-69730000D02*
X110170000Y-64660000D01*
X50900000Y-39332777D02*
X50900000Y-43332777D01*
X120525000Y-39332777D02*
X120525000Y-43332777D01*
X107970000Y-39332777D02*
X107970000Y-43332777D01*
X100010000Y-65470000D02*
X100010000Y-69730000D01*
X92000000Y-57460000D02*
X100010000Y-65470000D01*
X92000000Y-39332777D02*
X92000000Y-57460000D01*
X92000000Y-39332777D02*
X92000000Y-43332777D01*
D24*
X79425000Y-39332777D02*
X79425000Y-43715000D01*
D21*
X81536105Y-37221672D02*
X79425000Y-39332777D01*
X84207777Y-34550000D02*
X81536105Y-37221672D01*
X94350000Y-34550000D02*
X84207777Y-34550000D01*
X97250000Y-37450000D02*
X94350000Y-34550000D01*
X102550000Y-64168716D02*
X97250000Y-58868716D01*
X97250000Y-58868716D02*
X97250000Y-37450000D01*
X102550000Y-69730000D02*
X102550000Y-64168716D01*
X79425000Y-39332777D02*
X79425000Y-43332777D01*
X149070000Y-39300000D02*
X149070000Y-43300000D01*
X136495000Y-39300000D02*
X136495000Y-43300000D01*
X116252500Y-135697223D02*
X116252500Y-131697223D01*
X115250000Y-141420000D02*
X116250000Y-140420000D01*
X115250000Y-159730000D02*
X115250000Y-141420000D01*
X116250000Y-135699723D02*
X116252500Y-135697223D01*
X116250000Y-140420000D02*
X116250000Y-135699723D01*
X59182500Y-135697223D02*
X59182500Y-130787508D01*
X59182500Y-130787508D02*
X73970012Y-115999996D01*
X59182500Y-135697223D02*
X59182500Y-131697223D01*
X144777500Y-135697223D02*
X144777500Y-131697223D01*
D20*
X35827223Y-92180000D02*
X37300000Y-93652777D01*
D21*
X37300000Y-93652777D02*
X37300000Y-97652777D01*
D20*
X37300000Y-107700000D02*
X37300000Y-93652777D01*
X33560000Y-111440000D02*
X37300000Y-107700000D01*
X28110000Y-111440000D02*
X33560000Y-111440000D01*
D21*
X102520000Y-90780000D02*
X102520000Y-90780000D01*
X102520000Y-154300000D02*
X102520000Y-127430000D01*
X110170000Y-157770000D02*
X108280000Y-155880000D01*
X110170000Y-159730000D02*
X110170000Y-157770000D01*
X104100000Y-155880000D02*
X102520000Y-154300000D01*
X108280000Y-155880000D02*
X104100000Y-155880000D01*
X102520000Y-90780000D02*
X102520000Y-118230000D01*
X120525000Y-93652777D02*
X120525000Y-97652777D01*
X108010000Y-93692777D02*
X107970000Y-93652777D01*
X109240000Y-134604005D02*
X109240000Y-107450000D01*
X108010000Y-106220000D02*
X108010000Y-93692777D01*
X112710000Y-138074005D02*
X109240000Y-134604005D01*
X109240000Y-107450000D02*
X108010000Y-106220000D01*
X112710000Y-159730000D02*
X112710000Y-138074005D01*
X107970000Y-97652777D02*
X107970000Y-93652777D01*
X63475000Y-93652777D02*
X63475000Y-97652777D01*
X71730010Y-99769990D02*
X71730010Y-95600000D01*
X69330000Y-102170000D02*
X71730010Y-99769990D01*
X53930000Y-102170000D02*
X69330000Y-102170000D01*
X50900000Y-99140000D02*
X53930000Y-102170000D01*
X50900000Y-93652777D02*
X50900000Y-99140000D01*
X50900000Y-93652777D02*
X50900000Y-97652777D01*
X149070000Y-108200000D02*
X149070000Y-93652777D01*
X131769990Y-125500010D02*
X149070000Y-108200000D01*
X131769990Y-158520010D02*
X131769990Y-125500010D01*
X125100000Y-165190000D02*
X131769990Y-158520010D01*
X105230000Y-165190000D02*
X125100000Y-165190000D01*
X102550000Y-162510000D02*
X105230000Y-165190000D01*
X102550000Y-159730000D02*
X102550000Y-162510000D01*
X149070000Y-93652777D02*
X149070000Y-97652777D01*
D20*
X137082500Y-96087500D02*
X138525000Y-94645000D01*
D21*
X105090000Y-160932081D02*
X106937919Y-162780000D01*
X105090000Y-159730000D02*
X105090000Y-160932081D01*
X106937919Y-162780000D02*
X124080000Y-162780000D01*
X129569980Y-157290020D02*
X129569980Y-118290020D01*
X124080000Y-162780000D02*
X129569980Y-157290020D01*
X136495000Y-111365000D02*
X136495000Y-97652777D01*
X129569980Y-118290020D02*
X136495000Y-111365000D01*
X136495000Y-93652777D02*
X136495000Y-97652777D01*
X114180000Y-183540000D02*
X116227500Y-185587500D01*
X116227500Y-185587500D02*
X116227500Y-191077223D01*
X82100000Y-183540000D02*
X114180000Y-183540000D01*
X79690000Y-181130000D02*
X82100000Y-183540000D01*
X79690000Y-159730000D02*
X79690000Y-181130000D01*
X116227500Y-191077223D02*
X116227500Y-187077223D01*
X59157500Y-191077223D02*
X59157500Y-187077223D01*
X87682500Y-191077223D02*
X87682500Y-187077223D01*
X72070000Y-159730000D02*
X72070000Y-190260000D01*
X72070000Y-190260000D02*
X79490000Y-197680000D01*
X138149723Y-197680000D02*
X144752500Y-191077223D01*
X79490000Y-197680000D02*
X138149723Y-197680000D01*
X144752500Y-191077223D02*
X144752500Y-187077223D01*
D20*
X35952223Y-147710000D02*
X37275000Y-149032777D01*
D21*
X45527777Y-140780000D02*
X39386105Y-146921672D01*
X100010000Y-159730000D02*
X100010000Y-144470000D01*
X100010000Y-144470000D02*
X96320000Y-140780000D01*
X96320000Y-140780000D02*
X45527777Y-140780000D01*
X39386105Y-146921672D02*
X37275000Y-149032777D01*
X37275000Y-153032777D02*
X37275000Y-149032777D01*
D20*
X20450000Y-164760000D02*
X20450000Y-164891815D01*
X37275000Y-149032777D02*
X36177223Y-149032777D01*
X37275000Y-162765000D02*
X37275000Y-149032777D01*
X32870000Y-167170000D02*
X37275000Y-162765000D01*
X28130000Y-167170000D02*
X32870000Y-167170000D01*
D21*
X82630000Y-172480000D02*
X122580000Y-172480000D01*
X122580000Y-172480000D02*
X127265000Y-167795000D01*
X127265000Y-167795000D02*
X127390000Y-167670000D01*
X120500000Y-149032777D02*
X120500000Y-153032777D01*
X114560000Y-168160000D02*
X82880000Y-168160000D01*
X82880000Y-168160000D02*
X82880000Y-168160000D01*
X107945000Y-149032777D02*
X107945000Y-153032777D01*
X63450000Y-149032777D02*
X63450000Y-153032777D01*
X50875000Y-149032777D02*
X50875000Y-153032777D01*
X89697223Y-149032777D02*
X91975000Y-149032777D01*
X82230000Y-156500000D02*
X89697223Y-149032777D01*
X82230000Y-159730000D02*
X82230000Y-156500000D01*
X91975000Y-149032777D02*
X91975000Y-153032777D01*
X79400000Y-149032777D02*
X79400000Y-153032777D01*
X82510000Y-179630000D02*
X139100000Y-179630000D01*
X149045000Y-169685000D02*
X149045000Y-149032777D01*
X139100000Y-179630000D02*
X149045000Y-169685000D01*
X149045000Y-149032777D02*
X149045000Y-153032777D01*
X82630000Y-176180000D02*
X128990000Y-176180000D01*
X136470000Y-168700000D02*
X136470000Y-149032777D01*
X128990000Y-176180000D02*
X136470000Y-168700000D01*
X136470000Y-149032777D02*
X136470000Y-153032777D01*
X69530000Y-69730000D02*
X69530000Y-82960000D01*
X87700000Y-135697223D02*
X87700000Y-131697223D01*
X65790000Y-105410000D02*
X75550000Y-105410000D01*
X79425000Y-101535000D02*
X79425000Y-93652777D01*
X75550000Y-105410000D02*
X79425000Y-101535000D01*
X79425000Y-93652777D02*
X79425000Y-97652777D01*
X92000000Y-118200000D02*
X92000000Y-93652777D01*
X96820000Y-123020000D02*
X92000000Y-118200000D01*
X105810000Y-123020000D02*
X96820000Y-123020000D01*
X122030000Y-123020000D02*
X112880000Y-123020000D01*
X127030000Y-128020000D02*
X122030000Y-123020000D01*
X127030000Y-156718718D02*
X127030000Y-128020000D01*
X124018718Y-159730000D02*
X127030000Y-156718718D01*
X117790000Y-159730000D02*
X124018718Y-159730000D01*
X92000000Y-93652777D02*
X92000000Y-96910000D01*
X92000000Y-97652777D02*
X92000000Y-96910000D01*
D25*
X44270122Y-66794810D02*
X43930315Y-67021862D01*
X43451862Y-67500315D01*
X43075943Y-68062918D01*
X42817006Y-68688048D01*
X42685000Y-69351682D01*
X42685000Y-70028318D01*
X42817006Y-70691952D01*
X43075943Y-71317082D01*
X43451862Y-71879685D01*
X43930315Y-72358138D01*
X44284690Y-72594923D01*
X44316049Y-85081033D01*
X40750642Y-81515627D01*
X40760323Y-81492256D01*
X40796633Y-81372558D01*
X40911366Y-80795755D01*
X40923626Y-80671274D01*
X40923626Y-80083172D01*
X40911366Y-79958691D01*
X40796633Y-79381888D01*
X40760323Y-79262190D01*
X40535266Y-78718854D01*
X40476301Y-78608539D01*
X40273927Y-78305666D01*
X40614095Y-77965498D01*
X40735521Y-77928664D01*
X40932279Y-77823495D01*
X41104738Y-77681961D01*
X41246272Y-77509502D01*
X41351441Y-77312744D01*
X41416204Y-77099250D01*
X41438072Y-76877223D01*
X41438072Y-75877223D01*
X41416204Y-75655196D01*
X41351441Y-75441702D01*
X41246272Y-75244944D01*
X41104738Y-75072485D01*
X40932279Y-74930951D01*
X40735521Y-74825782D01*
X40522027Y-74761019D01*
X40300000Y-74739151D01*
X38435000Y-74739151D01*
X38435000Y-71105752D01*
X38440491Y-71050000D01*
X38418577Y-70827501D01*
X38353676Y-70613553D01*
X38248284Y-70416377D01*
X38106449Y-70243551D01*
X38063141Y-70208009D01*
X31538811Y-63683680D01*
X31503264Y-63640366D01*
X31330438Y-63498531D01*
X31133262Y-63393139D01*
X30919314Y-63328238D01*
X30752567Y-63311815D01*
X30752566Y-63311815D01*
X30696815Y-63306324D01*
X30641064Y-63311815D01*
X28774288Y-63311815D01*
X28702359Y-63263754D01*
X28459405Y-63163119D01*
X28201486Y-63111815D01*
X27938514Y-63111815D01*
X27680595Y-63163119D01*
X27437641Y-63263754D01*
X27218987Y-63409853D01*
X27033038Y-63595802D01*
X26886939Y-63814456D01*
X26786304Y-64057410D01*
X26735000Y-64315329D01*
X26735000Y-64578301D01*
X26786304Y-64836220D01*
X26886939Y-65079174D01*
X27033038Y-65297828D01*
X27218987Y-65483777D01*
X27437641Y-65629876D01*
X27647530Y-65716815D01*
X27437641Y-65803754D01*
X27218987Y-65949853D01*
X27033038Y-66135802D01*
X26886939Y-66354456D01*
X26786304Y-66597410D01*
X26735000Y-66855329D01*
X26735000Y-67118301D01*
X26786304Y-67376220D01*
X26886939Y-67619174D01*
X27033038Y-67837828D01*
X27218987Y-68023777D01*
X27437641Y-68169876D01*
X27680595Y-68270511D01*
X27938514Y-68321815D01*
X28201486Y-68321815D01*
X28459405Y-68270511D01*
X28702359Y-68169876D01*
X28921013Y-68023777D01*
X29106962Y-67837828D01*
X29253061Y-67619174D01*
X29353696Y-67376220D01*
X29405000Y-67118301D01*
X29405000Y-66855329D01*
X29353696Y-66597410D01*
X29253061Y-66354456D01*
X29106962Y-66135802D01*
X28921013Y-65949853D01*
X28702359Y-65803754D01*
X28492470Y-65716815D01*
X28702359Y-65629876D01*
X28774288Y-65581815D01*
X30226684Y-65581815D01*
X36165001Y-71520133D01*
X36165001Y-74739151D01*
X34300000Y-74739151D01*
X34077973Y-74761019D01*
X33864479Y-74825782D01*
X33667721Y-74930951D01*
X33495262Y-75072485D01*
X33353728Y-75244944D01*
X33248559Y-75441702D01*
X33183796Y-75655196D01*
X33161928Y-75877223D01*
X33161928Y-76877223D01*
X33183796Y-77099250D01*
X33248559Y-77312744D01*
X33353728Y-77509502D01*
X33495262Y-77681961D01*
X33667721Y-77823495D01*
X33864479Y-77928664D01*
X33985905Y-77965498D01*
X34326073Y-78305666D01*
X34123699Y-78608539D01*
X34064734Y-78718854D01*
X33839677Y-79262190D01*
X33803367Y-79381888D01*
X33688634Y-79958691D01*
X33676374Y-80083172D01*
X33676374Y-80671274D01*
X33688634Y-80795755D01*
X33803367Y-81372558D01*
X33839677Y-81492256D01*
X34064734Y-82035592D01*
X34123699Y-82145907D01*
X34450432Y-82634897D01*
X34529784Y-82731588D01*
X34945635Y-83147439D01*
X35042326Y-83226791D01*
X35531316Y-83553524D01*
X35641631Y-83612489D01*
X36184967Y-83837546D01*
X36304665Y-83873856D01*
X36881468Y-83988589D01*
X37005949Y-84000849D01*
X37594051Y-84000849D01*
X37718532Y-83988589D01*
X38295335Y-83873856D01*
X38415033Y-83837546D01*
X38438404Y-83827865D01*
X44039857Y-89429319D01*
X44091063Y-89491714D01*
X44327614Y-89685846D01*
X44452842Y-139547069D01*
X44366063Y-139618286D01*
X44314857Y-139680681D01*
X38413404Y-145582135D01*
X38390033Y-145572454D01*
X38270335Y-145536144D01*
X37693532Y-145421411D01*
X37569051Y-145409151D01*
X36980949Y-145409151D01*
X36856468Y-145421411D01*
X36279665Y-145536144D01*
X36159967Y-145572454D01*
X35616631Y-145797511D01*
X35506316Y-145856476D01*
X35017326Y-146183209D01*
X34920635Y-146262561D01*
X34504784Y-146678412D01*
X34425432Y-146775103D01*
X34098699Y-147264093D01*
X34039734Y-147374408D01*
X33814677Y-147917744D01*
X33778367Y-148037442D01*
X33663634Y-148614245D01*
X33651374Y-148738726D01*
X33651374Y-149326828D01*
X33663634Y-149451309D01*
X33778367Y-150028112D01*
X33814677Y-150147810D01*
X34039734Y-150691146D01*
X34098699Y-150801461D01*
X34301073Y-151104334D01*
X33960905Y-151444502D01*
X33839479Y-151481336D01*
X33642721Y-151586505D01*
X33470262Y-151728039D01*
X33328728Y-151900498D01*
X33223559Y-152097256D01*
X33158796Y-152310750D01*
X33136928Y-152532777D01*
X33136928Y-153532777D01*
X33158796Y-153754804D01*
X33223559Y-153968298D01*
X33328728Y-154165056D01*
X33470262Y-154337515D01*
X33642721Y-154479049D01*
X33839479Y-154584218D01*
X34052973Y-154648981D01*
X34275000Y-154670849D01*
X36140001Y-154670849D01*
X36140000Y-162294868D01*
X32399869Y-166035000D01*
X28762038Y-166035000D01*
X28921013Y-165928777D01*
X29106962Y-165742828D01*
X29253061Y-165524174D01*
X29353696Y-165281220D01*
X29405000Y-165023301D01*
X29405000Y-164760329D01*
X29353696Y-164502410D01*
X29253061Y-164259456D01*
X29106962Y-164040802D01*
X28921013Y-163854853D01*
X28702359Y-163708754D01*
X28613181Y-163671815D01*
X28702359Y-163634876D01*
X28921013Y-163488777D01*
X29106962Y-163302828D01*
X29253061Y-163084174D01*
X29353696Y-162841220D01*
X29405000Y-162583301D01*
X29405000Y-162320329D01*
X29353696Y-162062410D01*
X29253061Y-161819456D01*
X29106962Y-161600802D01*
X28921013Y-161414853D01*
X28702359Y-161268754D01*
X28459405Y-161168119D01*
X28201486Y-161116815D01*
X27938514Y-161116815D01*
X27680595Y-161168119D01*
X27437641Y-161268754D01*
X27218987Y-161414853D01*
X27033038Y-161600802D01*
X26886939Y-161819456D01*
X26786304Y-162062410D01*
X26735000Y-162320329D01*
X26735000Y-162583301D01*
X26786304Y-162841220D01*
X26886939Y-163084174D01*
X27033038Y-163302828D01*
X27218987Y-163488777D01*
X27437641Y-163634876D01*
X27526819Y-163671815D01*
X27437641Y-163708754D01*
X27218987Y-163854853D01*
X27033038Y-164040802D01*
X26886939Y-164259456D01*
X26786304Y-164502410D01*
X26735000Y-164760329D01*
X26735000Y-165023301D01*
X26786304Y-165281220D01*
X26886939Y-165524174D01*
X27033038Y-165742828D01*
X27218987Y-165928777D01*
X27437641Y-166074876D01*
X27504550Y-166102590D01*
X27342733Y-166210713D01*
X27170713Y-166382733D01*
X27035557Y-166585008D01*
X26942460Y-166809764D01*
X26895000Y-167048363D01*
X26895000Y-167291637D01*
X26942460Y-167530236D01*
X27035557Y-167754992D01*
X27170713Y-167957267D01*
X27342733Y-168129287D01*
X27545008Y-168264443D01*
X27769764Y-168357540D01*
X28008363Y-168405000D01*
X28251637Y-168405000D01*
X28490236Y-168357540D01*
X28617079Y-168305000D01*
X32208092Y-168305000D01*
X32206928Y-168316814D01*
X32206928Y-168941816D01*
X32223992Y-169115070D01*
X32274528Y-169281666D01*
X32356595Y-169435202D01*
X32467038Y-169569777D01*
X32601613Y-169680220D01*
X32755149Y-169762287D01*
X32921745Y-169812823D01*
X33094999Y-169829887D01*
X34345001Y-169829887D01*
X34518255Y-169812823D01*
X34678166Y-169764315D01*
X35934043Y-169764315D01*
X35944463Y-169783809D01*
X36023815Y-169880500D01*
X36120506Y-169959852D01*
X36230820Y-170018817D01*
X36350518Y-170055127D01*
X36358961Y-170055958D01*
X36160363Y-170254556D01*
X36003320Y-170489588D01*
X35895147Y-170750741D01*
X35840000Y-171027980D01*
X35840000Y-171310650D01*
X35895147Y-171587889D01*
X36003320Y-171849042D01*
X36160363Y-172084074D01*
X36360241Y-172283952D01*
X36595273Y-172440995D01*
X36856426Y-172549168D01*
X37133665Y-172604315D01*
X37416335Y-172604315D01*
X37693574Y-172549168D01*
X37954727Y-172440995D01*
X38189759Y-172283952D01*
X38389637Y-172084074D01*
X38546680Y-171849042D01*
X38654853Y-171587889D01*
X38710000Y-171310650D01*
X38710000Y-171027980D01*
X38654853Y-170750741D01*
X38546680Y-170489588D01*
X38389637Y-170254556D01*
X38191039Y-170055958D01*
X38199482Y-170055127D01*
X38319180Y-170018817D01*
X38429494Y-169959852D01*
X38526185Y-169880500D01*
X38605537Y-169783809D01*
X38664502Y-169673495D01*
X38700812Y-169553797D01*
X38713072Y-169429315D01*
X38713072Y-167829315D01*
X38700812Y-167704833D01*
X38664502Y-167585135D01*
X38605537Y-167474821D01*
X38526185Y-167378130D01*
X38429494Y-167298778D01*
X38319180Y-167239813D01*
X38199482Y-167203503D01*
X38075000Y-167191243D01*
X36475000Y-167191243D01*
X36350518Y-167203503D01*
X36230820Y-167239813D01*
X36120506Y-167298778D01*
X36023815Y-167378130D01*
X35944463Y-167474821D01*
X35934043Y-167494315D01*
X34678166Y-167494315D01*
X34518255Y-167445807D01*
X34345001Y-167428743D01*
X34216388Y-167428743D01*
X38038141Y-163606991D01*
X38081449Y-163571449D01*
X38223284Y-163398623D01*
X38328676Y-163201447D01*
X38393577Y-162987499D01*
X38410000Y-162820752D01*
X38410000Y-162820751D01*
X38415491Y-162765000D01*
X38410000Y-162709248D01*
X38410000Y-154670849D01*
X40275000Y-154670849D01*
X40497027Y-154648981D01*
X40710521Y-154584218D01*
X40907279Y-154479049D01*
X41079738Y-154337515D01*
X41221272Y-154165056D01*
X41326441Y-153968298D01*
X41391204Y-153754804D01*
X41413072Y-153532777D01*
X41413072Y-152532777D01*
X41391204Y-152310750D01*
X41326441Y-152097256D01*
X41221272Y-151900498D01*
X41079738Y-151728039D01*
X40907279Y-151586505D01*
X40710521Y-151481336D01*
X40589095Y-151444502D01*
X40248927Y-151104334D01*
X40451301Y-150801461D01*
X40510266Y-150691146D01*
X40735323Y-150147810D01*
X40771633Y-150028112D01*
X40886366Y-149451309D01*
X40898626Y-149326828D01*
X40898626Y-148738726D01*
X40886366Y-148614245D01*
X40771633Y-148037442D01*
X40735323Y-147917744D01*
X40725642Y-147894373D01*
X44464417Y-144155599D01*
X44467117Y-145230645D01*
X44270686Y-145427076D01*
X44208286Y-145478286D01*
X44003969Y-145727249D01*
X43852148Y-146011286D01*
X43758657Y-146319485D01*
X43735000Y-146559678D01*
X43727089Y-146640000D01*
X43735000Y-146720319D01*
X43735000Y-157217177D01*
X43451862Y-157500315D01*
X43075943Y-158062918D01*
X42817006Y-158688048D01*
X42685000Y-159351682D01*
X42685000Y-160028318D01*
X42817006Y-160691952D01*
X43075943Y-161317082D01*
X43451862Y-161879685D01*
X43735000Y-162162823D01*
X43735001Y-182304983D01*
X40559895Y-185480090D01*
X40497027Y-185461019D01*
X40275000Y-185439151D01*
X38410000Y-185439151D01*
X38410000Y-184412567D01*
X38415491Y-184356815D01*
X38393577Y-184134316D01*
X38328676Y-183920368D01*
X38223284Y-183723192D01*
X38131159Y-183610938D01*
X38081449Y-183550366D01*
X38038141Y-183514824D01*
X29370573Y-174847257D01*
X29353696Y-174762410D01*
X29253061Y-174519456D01*
X29106962Y-174300802D01*
X28921013Y-174114853D01*
X28702359Y-173968754D01*
X28459405Y-173868119D01*
X28201486Y-173816815D01*
X27938514Y-173816815D01*
X27680595Y-173868119D01*
X27437641Y-173968754D01*
X27218987Y-174114853D01*
X27033038Y-174300802D01*
X26886939Y-174519456D01*
X26786304Y-174762410D01*
X26735000Y-175020329D01*
X26735000Y-175283301D01*
X26786304Y-175541220D01*
X26886939Y-175784174D01*
X27033038Y-176002828D01*
X27218987Y-176188777D01*
X27437641Y-176334876D01*
X27647530Y-176421815D01*
X27437641Y-176508754D01*
X27218987Y-176654853D01*
X27033038Y-176840802D01*
X26886939Y-177059456D01*
X26786304Y-177302410D01*
X26735000Y-177560329D01*
X26735000Y-177823301D01*
X26786304Y-178081220D01*
X26886939Y-178324174D01*
X27033038Y-178542828D01*
X27218987Y-178728777D01*
X27437641Y-178874876D01*
X27680595Y-178975511D01*
X27938514Y-179026815D01*
X28201486Y-179026815D01*
X28459405Y-178975511D01*
X28702359Y-178874876D01*
X28921013Y-178728777D01*
X29106962Y-178542828D01*
X29253061Y-178324174D01*
X29353696Y-178081220D01*
X29360428Y-178047375D01*
X36140001Y-184826948D01*
X36140001Y-185439151D01*
X34275000Y-185439151D01*
X34052973Y-185461019D01*
X33839479Y-185525782D01*
X33642721Y-185630951D01*
X33470262Y-185772485D01*
X33328728Y-185944944D01*
X33223559Y-186141702D01*
X33158796Y-186355196D01*
X33136928Y-186577223D01*
X33136928Y-187577223D01*
X33158796Y-187799250D01*
X33223559Y-188012744D01*
X33328728Y-188209502D01*
X33470262Y-188381961D01*
X33642721Y-188523495D01*
X33839479Y-188628664D01*
X33960905Y-188665498D01*
X34301073Y-189005666D01*
X34098699Y-189308539D01*
X34039734Y-189418854D01*
X33814677Y-189962190D01*
X33778367Y-190081888D01*
X33663634Y-190658691D01*
X33651374Y-190783172D01*
X33651374Y-191371274D01*
X33663634Y-191495755D01*
X33778367Y-192072558D01*
X33814677Y-192192256D01*
X34039734Y-192735592D01*
X34098699Y-192845907D01*
X34425432Y-193334897D01*
X34504784Y-193431588D01*
X34920635Y-193847439D01*
X35017326Y-193926791D01*
X35506316Y-194253524D01*
X35616631Y-194312489D01*
X36159967Y-194537546D01*
X36279665Y-194573856D01*
X36856468Y-194688589D01*
X36980949Y-194700849D01*
X37569051Y-194700849D01*
X37693532Y-194688589D01*
X38270335Y-194573856D01*
X38390033Y-194537546D01*
X38933369Y-194312489D01*
X39043684Y-194253524D01*
X39532674Y-193926791D01*
X39629365Y-193847439D01*
X40045216Y-193431588D01*
X40124568Y-193334897D01*
X40451301Y-192845907D01*
X40510266Y-192735592D01*
X40735323Y-192192256D01*
X40771633Y-192072558D01*
X40886366Y-191495755D01*
X40898626Y-191371274D01*
X40898626Y-190783172D01*
X40886366Y-190658691D01*
X40771633Y-190081888D01*
X40735323Y-189962190D01*
X40725642Y-189938819D01*
X44569748Y-186094714D01*
X44628129Y-209340000D01*
X28020747Y-209340000D01*
X26829552Y-209265056D01*
X25677556Y-209045302D01*
X24562199Y-208682900D01*
X23501048Y-208183560D01*
X22510856Y-207555165D01*
X21607220Y-206807612D01*
X20804412Y-205952708D01*
X20115078Y-205003922D01*
X19550097Y-203976227D01*
X19118373Y-202885813D01*
X18826719Y-201749897D01*
X18678429Y-200576058D01*
X18660000Y-199989642D01*
X18660000Y-198290000D01*
X22741928Y-198290000D01*
X22754188Y-198414482D01*
X22790498Y-198534180D01*
X22849463Y-198644494D01*
X22928815Y-198741185D01*
X23025506Y-198820537D01*
X23135820Y-198879502D01*
X23255518Y-198915812D01*
X23380000Y-198928072D01*
X23615477Y-198927847D01*
X23906073Y-199218443D01*
X23703699Y-199521316D01*
X23644734Y-199631631D01*
X23419677Y-200174967D01*
X23383367Y-200294665D01*
X23268634Y-200871468D01*
X23256374Y-200995949D01*
X23256374Y-201584051D01*
X23268634Y-201708532D01*
X23383367Y-202285335D01*
X23419677Y-202405033D01*
X23644734Y-202948369D01*
X23703699Y-203058684D01*
X24030432Y-203547674D01*
X24109784Y-203644365D01*
X24525635Y-204060216D01*
X24622326Y-204139568D01*
X25111316Y-204466301D01*
X25221631Y-204525266D01*
X25764967Y-204750323D01*
X25884665Y-204786633D01*
X26461468Y-204901366D01*
X26585949Y-204913626D01*
X27174051Y-204913626D01*
X27298532Y-204901366D01*
X27875335Y-204786633D01*
X27995033Y-204750323D01*
X28538369Y-204525266D01*
X28648684Y-204466301D01*
X29137674Y-204139568D01*
X29234365Y-204060216D01*
X29650216Y-203644365D01*
X29729568Y-203547674D01*
X30056301Y-203058684D01*
X30115266Y-202948369D01*
X30340323Y-202405033D01*
X30376633Y-202285335D01*
X30491366Y-201708532D01*
X30503626Y-201584051D01*
X30503626Y-200995949D01*
X30491366Y-200871468D01*
X30376633Y-200294665D01*
X30340323Y-200174967D01*
X30115266Y-199631631D01*
X30056301Y-199521316D01*
X29853927Y-199218443D01*
X30144523Y-198927847D01*
X30380000Y-198928072D01*
X30504482Y-198915812D01*
X30624180Y-198879502D01*
X30734494Y-198820537D01*
X30831185Y-198741185D01*
X30910537Y-198644494D01*
X30969502Y-198534180D01*
X31005812Y-198414482D01*
X31018072Y-198290000D01*
X31015000Y-197575750D01*
X30856250Y-197417000D01*
X27007000Y-197417000D01*
X27007000Y-197437000D01*
X26753000Y-197437000D01*
X26753000Y-197417000D01*
X22903750Y-197417000D01*
X22745000Y-197575750D01*
X22741928Y-198290000D01*
X18660000Y-198290000D01*
X18660000Y-196290000D01*
X22741928Y-196290000D01*
X22745000Y-197004250D01*
X22903750Y-197163000D01*
X26753000Y-197163000D01*
X26753000Y-195813750D01*
X27007000Y-195813750D01*
X27007000Y-197163000D01*
X30856250Y-197163000D01*
X31015000Y-197004250D01*
X31018072Y-196290000D01*
X31005812Y-196165518D01*
X30969502Y-196045820D01*
X30910537Y-195935506D01*
X30831185Y-195838815D01*
X30734494Y-195759463D01*
X30624180Y-195700498D01*
X30504482Y-195664188D01*
X30380000Y-195651928D01*
X27165750Y-195655000D01*
X27007000Y-195813750D01*
X26753000Y-195813750D01*
X26594250Y-195655000D01*
X23380000Y-195651928D01*
X23255518Y-195664188D01*
X23135820Y-195700498D01*
X23025506Y-195759463D01*
X22928815Y-195838815D01*
X22849463Y-195935506D01*
X22790498Y-196045820D01*
X22754188Y-196165518D01*
X22741928Y-196290000D01*
X18660000Y-196290000D01*
X18660000Y-176991815D01*
X19111928Y-176991815D01*
X19111928Y-178391815D01*
X19124188Y-178516297D01*
X19160498Y-178635995D01*
X19219463Y-178746309D01*
X19298815Y-178843000D01*
X19395506Y-178922352D01*
X19505820Y-178981317D01*
X19625518Y-179017627D01*
X19750000Y-179029887D01*
X21150000Y-179029887D01*
X21274482Y-179017627D01*
X21394180Y-178981317D01*
X21504494Y-178922352D01*
X21601185Y-178843000D01*
X21680537Y-178746309D01*
X21739502Y-178635995D01*
X21775812Y-178516297D01*
X21788072Y-178391815D01*
X21788072Y-176991815D01*
X21775812Y-176867333D01*
X21739502Y-176747635D01*
X21680537Y-176637321D01*
X21601185Y-176540630D01*
X21504494Y-176461278D01*
X21394180Y-176402313D01*
X21274482Y-176366003D01*
X21150000Y-176353743D01*
X21036810Y-176353743D01*
X21082359Y-176334876D01*
X21301013Y-176188777D01*
X21486962Y-176002828D01*
X21633061Y-175784174D01*
X21733696Y-175541220D01*
X21785000Y-175283301D01*
X21785000Y-175020329D01*
X21733696Y-174762410D01*
X21633061Y-174519456D01*
X21486962Y-174300802D01*
X21301013Y-174114853D01*
X21082359Y-173968754D01*
X20839405Y-173868119D01*
X20581486Y-173816815D01*
X20318514Y-173816815D01*
X20060595Y-173868119D01*
X19817641Y-173968754D01*
X19598987Y-174114853D01*
X19413038Y-174300802D01*
X19266939Y-174519456D01*
X19166304Y-174762410D01*
X19115000Y-175020329D01*
X19115000Y-175283301D01*
X19166304Y-175541220D01*
X19266939Y-175784174D01*
X19413038Y-176002828D01*
X19598987Y-176188777D01*
X19817641Y-176334876D01*
X19863190Y-176353743D01*
X19750000Y-176353743D01*
X19625518Y-176366003D01*
X19505820Y-176402313D01*
X19395506Y-176461278D01*
X19298815Y-176540630D01*
X19219463Y-176637321D01*
X19160498Y-176747635D01*
X19124188Y-176867333D01*
X19111928Y-176991815D01*
X18660000Y-176991815D01*
X18660000Y-172116815D01*
X32206928Y-172116815D01*
X32219188Y-172241297D01*
X32255498Y-172360995D01*
X32314463Y-172471309D01*
X32393815Y-172568000D01*
X32490506Y-172647352D01*
X32600820Y-172706317D01*
X32720518Y-172742627D01*
X32845000Y-172754887D01*
X33434250Y-172751815D01*
X33593000Y-172593065D01*
X33593000Y-171681315D01*
X33847000Y-171681315D01*
X33847000Y-172593065D01*
X34005750Y-172751815D01*
X34595000Y-172754887D01*
X34719482Y-172742627D01*
X34839180Y-172706317D01*
X34949494Y-172647352D01*
X35046185Y-172568000D01*
X35125537Y-172471309D01*
X35184502Y-172360995D01*
X35220812Y-172241297D01*
X35233072Y-172116815D01*
X35230000Y-171840065D01*
X35071250Y-171681315D01*
X33847000Y-171681315D01*
X33593000Y-171681315D01*
X32368750Y-171681315D01*
X32210000Y-171840065D01*
X32206928Y-172116815D01*
X18660000Y-172116815D01*
X18660000Y-170991815D01*
X32206928Y-170991815D01*
X32210000Y-171268565D01*
X32368750Y-171427315D01*
X33593000Y-171427315D01*
X33593000Y-170515565D01*
X33847000Y-170515565D01*
X33847000Y-171427315D01*
X35071250Y-171427315D01*
X35230000Y-171268565D01*
X35233072Y-170991815D01*
X35220812Y-170867333D01*
X35184502Y-170747635D01*
X35125537Y-170637321D01*
X35046185Y-170540630D01*
X34949494Y-170461278D01*
X34839180Y-170402313D01*
X34719482Y-170366003D01*
X34595000Y-170353743D01*
X34005750Y-170356815D01*
X33847000Y-170515565D01*
X33593000Y-170515565D01*
X33434250Y-170356815D01*
X32845000Y-170353743D01*
X32720518Y-170366003D01*
X32600820Y-170402313D01*
X32490506Y-170461278D01*
X32393815Y-170540630D01*
X32314463Y-170637321D01*
X32255498Y-170747635D01*
X32219188Y-170867333D01*
X32206928Y-170991815D01*
X18660000Y-170991815D01*
X18660000Y-162320329D01*
X19115000Y-162320329D01*
X19115000Y-162583301D01*
X19166304Y-162841220D01*
X19266939Y-163084174D01*
X19413038Y-163302828D01*
X19598987Y-163488777D01*
X19817641Y-163634876D01*
X19906819Y-163671815D01*
X19817641Y-163708754D01*
X19598987Y-163854853D01*
X19413038Y-164040802D01*
X19266939Y-164259456D01*
X19166304Y-164502410D01*
X19115000Y-164760329D01*
X19115000Y-165023301D01*
X19166304Y-165281220D01*
X19266939Y-165524174D01*
X19413038Y-165742828D01*
X19598987Y-165928777D01*
X19817641Y-166074876D01*
X20060595Y-166175511D01*
X20318514Y-166226815D01*
X20581486Y-166226815D01*
X20839405Y-166175511D01*
X21082359Y-166074876D01*
X21301013Y-165928777D01*
X21486962Y-165742828D01*
X21633061Y-165524174D01*
X21733696Y-165281220D01*
X21785000Y-165023301D01*
X21785000Y-164760329D01*
X21733696Y-164502410D01*
X21633061Y-164259456D01*
X21486962Y-164040802D01*
X21301013Y-163854853D01*
X21082359Y-163708754D01*
X20993181Y-163671815D01*
X21082359Y-163634876D01*
X21301013Y-163488777D01*
X21486962Y-163302828D01*
X21633061Y-163084174D01*
X21733696Y-162841220D01*
X21785000Y-162583301D01*
X21785000Y-162320329D01*
X21733696Y-162062410D01*
X21633061Y-161819456D01*
X21486962Y-161600802D01*
X21301013Y-161414853D01*
X21082359Y-161268754D01*
X20839405Y-161168119D01*
X20581486Y-161116815D01*
X20318514Y-161116815D01*
X20060595Y-161168119D01*
X19817641Y-161268754D01*
X19598987Y-161414853D01*
X19413038Y-161600802D01*
X19266939Y-161819456D01*
X19166304Y-162062410D01*
X19115000Y-162320329D01*
X18660000Y-162320329D01*
X18660000Y-121611815D01*
X19111928Y-121611815D01*
X19111928Y-123011815D01*
X19124188Y-123136297D01*
X19160498Y-123255995D01*
X19219463Y-123366309D01*
X19298815Y-123463000D01*
X19395506Y-123542352D01*
X19505820Y-123601317D01*
X19625518Y-123637627D01*
X19750000Y-123649887D01*
X21150000Y-123649887D01*
X21274482Y-123637627D01*
X21394180Y-123601317D01*
X21504494Y-123542352D01*
X21601185Y-123463000D01*
X21680537Y-123366309D01*
X21739502Y-123255995D01*
X21775812Y-123136297D01*
X21788072Y-123011815D01*
X21788072Y-121611815D01*
X21775812Y-121487333D01*
X21739502Y-121367635D01*
X21680537Y-121257321D01*
X21601185Y-121160630D01*
X21504494Y-121081278D01*
X21394180Y-121022313D01*
X21274482Y-120986003D01*
X21150000Y-120973743D01*
X21036810Y-120973743D01*
X21082359Y-120954876D01*
X21301013Y-120808777D01*
X21486962Y-120622828D01*
X21633061Y-120404174D01*
X21733696Y-120161220D01*
X21785000Y-119903301D01*
X21785000Y-119640329D01*
X26735000Y-119640329D01*
X26735000Y-119903301D01*
X26786304Y-120161220D01*
X26886939Y-120404174D01*
X27033038Y-120622828D01*
X27218987Y-120808777D01*
X27437641Y-120954876D01*
X27647530Y-121041815D01*
X27437641Y-121128754D01*
X27218987Y-121274853D01*
X27033038Y-121460802D01*
X26886939Y-121679456D01*
X26786304Y-121922410D01*
X26735000Y-122180329D01*
X26735000Y-122443301D01*
X26786304Y-122701220D01*
X26886939Y-122944174D01*
X27033038Y-123162828D01*
X27218987Y-123348777D01*
X27437641Y-123494876D01*
X27680595Y-123595511D01*
X27938514Y-123646815D01*
X28201486Y-123646815D01*
X28459405Y-123595511D01*
X28702359Y-123494876D01*
X28921013Y-123348777D01*
X29106962Y-123162828D01*
X29253061Y-122944174D01*
X29353696Y-122701220D01*
X29360428Y-122667375D01*
X36165001Y-129471948D01*
X36165001Y-130059151D01*
X34300000Y-130059151D01*
X34077973Y-130081019D01*
X33864479Y-130145782D01*
X33667721Y-130250951D01*
X33495262Y-130392485D01*
X33353728Y-130564944D01*
X33248559Y-130761702D01*
X33183796Y-130975196D01*
X33161928Y-131197223D01*
X33161928Y-132197223D01*
X33183796Y-132419250D01*
X33248559Y-132632744D01*
X33353728Y-132829502D01*
X33495262Y-133001961D01*
X33667721Y-133143495D01*
X33864479Y-133248664D01*
X33985905Y-133285498D01*
X34326073Y-133625666D01*
X34123699Y-133928539D01*
X34064734Y-134038854D01*
X33839677Y-134582190D01*
X33803367Y-134701888D01*
X33688634Y-135278691D01*
X33676374Y-135403172D01*
X33676374Y-135991274D01*
X33688634Y-136115755D01*
X33803367Y-136692558D01*
X33839677Y-136812256D01*
X34064734Y-137355592D01*
X34123699Y-137465907D01*
X34450432Y-137954897D01*
X34529784Y-138051588D01*
X34945635Y-138467439D01*
X35042326Y-138546791D01*
X35531316Y-138873524D01*
X35641631Y-138932489D01*
X36184967Y-139157546D01*
X36304665Y-139193856D01*
X36881468Y-139308589D01*
X37005949Y-139320849D01*
X37594051Y-139320849D01*
X37718532Y-139308589D01*
X38295335Y-139193856D01*
X38415033Y-139157546D01*
X38958369Y-138932489D01*
X39068684Y-138873524D01*
X39557674Y-138546791D01*
X39654365Y-138467439D01*
X40070216Y-138051588D01*
X40149568Y-137954897D01*
X40476301Y-137465907D01*
X40535266Y-137355592D01*
X40760323Y-136812256D01*
X40796633Y-136692558D01*
X40911366Y-136115755D01*
X40923626Y-135991274D01*
X40923626Y-135403172D01*
X40911366Y-135278691D01*
X40796633Y-134701888D01*
X40760323Y-134582190D01*
X40535266Y-134038854D01*
X40476301Y-133928539D01*
X40273927Y-133625666D01*
X40614095Y-133285498D01*
X40735521Y-133248664D01*
X40932279Y-133143495D01*
X41104738Y-133001961D01*
X41246272Y-132829502D01*
X41351441Y-132632744D01*
X41416204Y-132419250D01*
X41438072Y-132197223D01*
X41438072Y-131197223D01*
X41416204Y-130975196D01*
X41351441Y-130761702D01*
X41246272Y-130564944D01*
X41104738Y-130392485D01*
X40932279Y-130250951D01*
X40735521Y-130145782D01*
X40522027Y-130081019D01*
X40300000Y-130059151D01*
X38435000Y-130059151D01*
X38435000Y-129057558D01*
X38440490Y-129001814D01*
X38435000Y-128946070D01*
X38435000Y-128946063D01*
X38418577Y-128779316D01*
X38353676Y-128565368D01*
X38248284Y-128368192D01*
X38106449Y-128195366D01*
X38063141Y-128159824D01*
X29370573Y-119467257D01*
X29353696Y-119382410D01*
X29253061Y-119139456D01*
X29106962Y-118920802D01*
X28921013Y-118734853D01*
X28702359Y-118588754D01*
X28459405Y-118488119D01*
X28201486Y-118436815D01*
X27938514Y-118436815D01*
X27680595Y-118488119D01*
X27437641Y-118588754D01*
X27218987Y-118734853D01*
X27033038Y-118920802D01*
X26886939Y-119139456D01*
X26786304Y-119382410D01*
X26735000Y-119640329D01*
X21785000Y-119640329D01*
X21733696Y-119382410D01*
X21633061Y-119139456D01*
X21486962Y-118920802D01*
X21301013Y-118734853D01*
X21082359Y-118588754D01*
X20839405Y-118488119D01*
X20581486Y-118436815D01*
X20318514Y-118436815D01*
X20060595Y-118488119D01*
X19817641Y-118588754D01*
X19598987Y-118734853D01*
X19413038Y-118920802D01*
X19266939Y-119139456D01*
X19166304Y-119382410D01*
X19115000Y-119640329D01*
X19115000Y-119903301D01*
X19166304Y-120161220D01*
X19266939Y-120404174D01*
X19413038Y-120622828D01*
X19598987Y-120808777D01*
X19817641Y-120954876D01*
X19863190Y-120973743D01*
X19750000Y-120973743D01*
X19625518Y-120986003D01*
X19505820Y-121022313D01*
X19395506Y-121081278D01*
X19298815Y-121160630D01*
X19219463Y-121257321D01*
X19160498Y-121367635D01*
X19124188Y-121487333D01*
X19111928Y-121611815D01*
X18660000Y-121611815D01*
X18660000Y-116736815D01*
X32206928Y-116736815D01*
X32219188Y-116861297D01*
X32255498Y-116980995D01*
X32314463Y-117091309D01*
X32393815Y-117188000D01*
X32490506Y-117267352D01*
X32600820Y-117326317D01*
X32720518Y-117362627D01*
X32845000Y-117374887D01*
X33434250Y-117371815D01*
X33593000Y-117213065D01*
X33593000Y-116301315D01*
X33847000Y-116301315D01*
X33847000Y-117213065D01*
X34005750Y-117371815D01*
X34595000Y-117374887D01*
X34719482Y-117362627D01*
X34839180Y-117326317D01*
X34949494Y-117267352D01*
X35046185Y-117188000D01*
X35125537Y-117091309D01*
X35184502Y-116980995D01*
X35220812Y-116861297D01*
X35233072Y-116736815D01*
X35230000Y-116460065D01*
X35071250Y-116301315D01*
X33847000Y-116301315D01*
X33593000Y-116301315D01*
X32368750Y-116301315D01*
X32210000Y-116460065D01*
X32206928Y-116736815D01*
X18660000Y-116736815D01*
X18660000Y-115611815D01*
X32206928Y-115611815D01*
X32210000Y-115888565D01*
X32368750Y-116047315D01*
X33593000Y-116047315D01*
X33593000Y-115135565D01*
X33847000Y-115135565D01*
X33847000Y-116047315D01*
X35071250Y-116047315D01*
X35230000Y-115888565D01*
X35233072Y-115611815D01*
X35220812Y-115487333D01*
X35184502Y-115367635D01*
X35125537Y-115257321D01*
X35046185Y-115160630D01*
X34949494Y-115081278D01*
X34839180Y-115022313D01*
X34719482Y-114986003D01*
X34595000Y-114973743D01*
X34005750Y-114976815D01*
X33847000Y-115135565D01*
X33593000Y-115135565D01*
X33434250Y-114976815D01*
X32845000Y-114973743D01*
X32720518Y-114986003D01*
X32600820Y-115022313D01*
X32490506Y-115081278D01*
X32393815Y-115160630D01*
X32314463Y-115257321D01*
X32255498Y-115367635D01*
X32219188Y-115487333D01*
X32206928Y-115611815D01*
X18660000Y-115611815D01*
X18660000Y-106940329D01*
X19115000Y-106940329D01*
X19115000Y-107203301D01*
X19166304Y-107461220D01*
X19266939Y-107704174D01*
X19413038Y-107922828D01*
X19598987Y-108108777D01*
X19817641Y-108254876D01*
X19906819Y-108291815D01*
X19817641Y-108328754D01*
X19598987Y-108474853D01*
X19413038Y-108660802D01*
X19266939Y-108879456D01*
X19166304Y-109122410D01*
X19115000Y-109380329D01*
X19115000Y-109643301D01*
X19166304Y-109901220D01*
X19266939Y-110144174D01*
X19413038Y-110362828D01*
X19598987Y-110548777D01*
X19817641Y-110694876D01*
X20060595Y-110795511D01*
X20318514Y-110846815D01*
X20581486Y-110846815D01*
X20839405Y-110795511D01*
X21082359Y-110694876D01*
X21301013Y-110548777D01*
X21486962Y-110362828D01*
X21633061Y-110144174D01*
X21733696Y-109901220D01*
X21785000Y-109643301D01*
X21785000Y-109380329D01*
X21733696Y-109122410D01*
X21633061Y-108879456D01*
X21486962Y-108660802D01*
X21301013Y-108474853D01*
X21082359Y-108328754D01*
X20993181Y-108291815D01*
X21082359Y-108254876D01*
X21301013Y-108108777D01*
X21486962Y-107922828D01*
X21633061Y-107704174D01*
X21733696Y-107461220D01*
X21785000Y-107203301D01*
X21785000Y-106940329D01*
X26735000Y-106940329D01*
X26735000Y-107203301D01*
X26786304Y-107461220D01*
X26886939Y-107704174D01*
X27033038Y-107922828D01*
X27218987Y-108108777D01*
X27437641Y-108254876D01*
X27526819Y-108291815D01*
X27437641Y-108328754D01*
X27218987Y-108474853D01*
X27033038Y-108660802D01*
X26886939Y-108879456D01*
X26786304Y-109122410D01*
X26735000Y-109380329D01*
X26735000Y-109643301D01*
X26786304Y-109901220D01*
X26886939Y-110144174D01*
X27033038Y-110362828D01*
X27218987Y-110548777D01*
X27240377Y-110563069D01*
X27150713Y-110652733D01*
X27015557Y-110855008D01*
X26922460Y-111079764D01*
X26875000Y-111318363D01*
X26875000Y-111561637D01*
X26922460Y-111800236D01*
X27015557Y-112024992D01*
X27150713Y-112227267D01*
X27322733Y-112399287D01*
X27525008Y-112534443D01*
X27749764Y-112627540D01*
X27988363Y-112675000D01*
X28231637Y-112675000D01*
X28470236Y-112627540D01*
X28597079Y-112575000D01*
X32286268Y-112575000D01*
X32274528Y-112596964D01*
X32223992Y-112763560D01*
X32206928Y-112936814D01*
X32206928Y-113561816D01*
X32223992Y-113735070D01*
X32274528Y-113901666D01*
X32356595Y-114055202D01*
X32467038Y-114189777D01*
X32601613Y-114300220D01*
X32755149Y-114382287D01*
X32921745Y-114432823D01*
X33094999Y-114449887D01*
X34345001Y-114449887D01*
X34518255Y-114432823D01*
X34678166Y-114384315D01*
X35959043Y-114384315D01*
X35969463Y-114403809D01*
X36048815Y-114500500D01*
X36145506Y-114579852D01*
X36255820Y-114638817D01*
X36375518Y-114675127D01*
X36383961Y-114675958D01*
X36185363Y-114874556D01*
X36028320Y-115109588D01*
X35920147Y-115370741D01*
X35865000Y-115647980D01*
X35865000Y-115930650D01*
X35920147Y-116207889D01*
X36028320Y-116469042D01*
X36185363Y-116704074D01*
X36385241Y-116903952D01*
X36620273Y-117060995D01*
X36881426Y-117169168D01*
X37158665Y-117224315D01*
X37441335Y-117224315D01*
X37718574Y-117169168D01*
X37979727Y-117060995D01*
X38214759Y-116903952D01*
X38414637Y-116704074D01*
X38571680Y-116469042D01*
X38679853Y-116207889D01*
X38735000Y-115930650D01*
X38735000Y-115647980D01*
X38679853Y-115370741D01*
X38571680Y-115109588D01*
X38414637Y-114874556D01*
X38216039Y-114675958D01*
X38224482Y-114675127D01*
X38344180Y-114638817D01*
X38454494Y-114579852D01*
X38551185Y-114500500D01*
X38630537Y-114403809D01*
X38689502Y-114293495D01*
X38725812Y-114173797D01*
X38738072Y-114049315D01*
X38738072Y-112449315D01*
X38725812Y-112324833D01*
X38689502Y-112205135D01*
X38630537Y-112094821D01*
X38551185Y-111998130D01*
X38454494Y-111918778D01*
X38344180Y-111859813D01*
X38224482Y-111823503D01*
X38100000Y-111811243D01*
X36500000Y-111811243D01*
X36375518Y-111823503D01*
X36255820Y-111859813D01*
X36145506Y-111918778D01*
X36048815Y-111998130D01*
X35969463Y-112094821D01*
X35959043Y-112114315D01*
X34678166Y-112114315D01*
X34534420Y-112070711D01*
X38063146Y-108541987D01*
X38106449Y-108506449D01*
X38248284Y-108333623D01*
X38353676Y-108136447D01*
X38418577Y-107922499D01*
X38435000Y-107755752D01*
X38435000Y-107755751D01*
X38440491Y-107700000D01*
X38435000Y-107644248D01*
X38435000Y-99290849D01*
X40300000Y-99290849D01*
X40522027Y-99268981D01*
X40735521Y-99204218D01*
X40932279Y-99099049D01*
X41104738Y-98957515D01*
X41246272Y-98785056D01*
X41351441Y-98588298D01*
X41416204Y-98374804D01*
X41438072Y-98152777D01*
X41438072Y-97152777D01*
X41416204Y-96930750D01*
X41351441Y-96717256D01*
X41246272Y-96520498D01*
X41104738Y-96348039D01*
X40932279Y-96206505D01*
X40735521Y-96101336D01*
X40614095Y-96064502D01*
X40273927Y-95724334D01*
X40476301Y-95421461D01*
X40535266Y-95311146D01*
X40760323Y-94767810D01*
X40796633Y-94648112D01*
X40911366Y-94071309D01*
X40923626Y-93946828D01*
X40923626Y-93358726D01*
X40911366Y-93234245D01*
X40796633Y-92657442D01*
X40760323Y-92537744D01*
X40535266Y-91994408D01*
X40476301Y-91884093D01*
X40149568Y-91395103D01*
X40070216Y-91298412D01*
X39654365Y-90882561D01*
X39557674Y-90803209D01*
X39068684Y-90476476D01*
X38958369Y-90417511D01*
X38415033Y-90192454D01*
X38295335Y-90156144D01*
X37718532Y-90041411D01*
X37594051Y-90029151D01*
X37005949Y-90029151D01*
X36881468Y-90041411D01*
X36304665Y-90156144D01*
X36184967Y-90192454D01*
X35641631Y-90417511D01*
X35531316Y-90476476D01*
X35042326Y-90803209D01*
X34945635Y-90882561D01*
X34529784Y-91298412D01*
X34450432Y-91395103D01*
X34123699Y-91884093D01*
X34064734Y-91994408D01*
X33839677Y-92537744D01*
X33803367Y-92657442D01*
X33688634Y-93234245D01*
X33676374Y-93358726D01*
X33676374Y-93946828D01*
X33688634Y-94071309D01*
X33803367Y-94648112D01*
X33839677Y-94767810D01*
X34064734Y-95311146D01*
X34123699Y-95421461D01*
X34326073Y-95724334D01*
X33985905Y-96064502D01*
X33864479Y-96101336D01*
X33667721Y-96206505D01*
X33495262Y-96348039D01*
X33353728Y-96520498D01*
X33248559Y-96717256D01*
X33183796Y-96930750D01*
X33161928Y-97152777D01*
X33161928Y-98152777D01*
X33183796Y-98374804D01*
X33248559Y-98588298D01*
X33353728Y-98785056D01*
X33495262Y-98957515D01*
X33667721Y-99099049D01*
X33864479Y-99204218D01*
X34077973Y-99268981D01*
X34300000Y-99290849D01*
X36165001Y-99290849D01*
X36165000Y-107229867D01*
X33089869Y-110305000D01*
X29145601Y-110305000D01*
X29253061Y-110144174D01*
X29353696Y-109901220D01*
X29405000Y-109643301D01*
X29405000Y-109380329D01*
X29353696Y-109122410D01*
X29253061Y-108879456D01*
X29106962Y-108660802D01*
X28921013Y-108474853D01*
X28702359Y-108328754D01*
X28613181Y-108291815D01*
X28702359Y-108254876D01*
X28921013Y-108108777D01*
X29106962Y-107922828D01*
X29253061Y-107704174D01*
X29353696Y-107461220D01*
X29405000Y-107203301D01*
X29405000Y-106940329D01*
X29353696Y-106682410D01*
X29253061Y-106439456D01*
X29106962Y-106220802D01*
X28921013Y-106034853D01*
X28702359Y-105888754D01*
X28459405Y-105788119D01*
X28201486Y-105736815D01*
X27938514Y-105736815D01*
X27680595Y-105788119D01*
X27437641Y-105888754D01*
X27218987Y-106034853D01*
X27033038Y-106220802D01*
X26886939Y-106439456D01*
X26786304Y-106682410D01*
X26735000Y-106940329D01*
X21785000Y-106940329D01*
X21733696Y-106682410D01*
X21633061Y-106439456D01*
X21486962Y-106220802D01*
X21301013Y-106034853D01*
X21082359Y-105888754D01*
X20839405Y-105788119D01*
X20581486Y-105736815D01*
X20318514Y-105736815D01*
X20060595Y-105788119D01*
X19817641Y-105888754D01*
X19598987Y-106034853D01*
X19413038Y-106220802D01*
X19266939Y-106439456D01*
X19166304Y-106682410D01*
X19115000Y-106940329D01*
X18660000Y-106940329D01*
X18660000Y-66286815D01*
X19111928Y-66286815D01*
X19111928Y-67686815D01*
X19124188Y-67811297D01*
X19160498Y-67930995D01*
X19219463Y-68041309D01*
X19298815Y-68138000D01*
X19395506Y-68217352D01*
X19505820Y-68276317D01*
X19625518Y-68312627D01*
X19750000Y-68324887D01*
X21150000Y-68324887D01*
X21274482Y-68312627D01*
X21394180Y-68276317D01*
X21504494Y-68217352D01*
X21601185Y-68138000D01*
X21680537Y-68041309D01*
X21739502Y-67930995D01*
X21775812Y-67811297D01*
X21788072Y-67686815D01*
X21788072Y-66286815D01*
X21775812Y-66162333D01*
X21739502Y-66042635D01*
X21680537Y-65932321D01*
X21601185Y-65835630D01*
X21504494Y-65756278D01*
X21394180Y-65697313D01*
X21274482Y-65661003D01*
X21150000Y-65648743D01*
X21036810Y-65648743D01*
X21082359Y-65629876D01*
X21301013Y-65483777D01*
X21486962Y-65297828D01*
X21633061Y-65079174D01*
X21733696Y-64836220D01*
X21785000Y-64578301D01*
X21785000Y-64315329D01*
X21733696Y-64057410D01*
X21633061Y-63814456D01*
X21486962Y-63595802D01*
X21301013Y-63409853D01*
X21082359Y-63263754D01*
X20839405Y-63163119D01*
X20581486Y-63111815D01*
X20318514Y-63111815D01*
X20060595Y-63163119D01*
X19817641Y-63263754D01*
X19598987Y-63409853D01*
X19413038Y-63595802D01*
X19266939Y-63814456D01*
X19166304Y-64057410D01*
X19115000Y-64315329D01*
X19115000Y-64578301D01*
X19166304Y-64836220D01*
X19266939Y-65079174D01*
X19413038Y-65297828D01*
X19598987Y-65483777D01*
X19817641Y-65629876D01*
X19863190Y-65648743D01*
X19750000Y-65648743D01*
X19625518Y-65661003D01*
X19505820Y-65697313D01*
X19395506Y-65756278D01*
X19298815Y-65835630D01*
X19219463Y-65932321D01*
X19160498Y-66042635D01*
X19124188Y-66162333D01*
X19111928Y-66286815D01*
X18660000Y-66286815D01*
X18660000Y-61411815D01*
X32206928Y-61411815D01*
X32219188Y-61536297D01*
X32255498Y-61655995D01*
X32314463Y-61766309D01*
X32393815Y-61863000D01*
X32490506Y-61942352D01*
X32600820Y-62001317D01*
X32720518Y-62037627D01*
X32845000Y-62049887D01*
X33434250Y-62046815D01*
X33593000Y-61888065D01*
X33593000Y-60976315D01*
X33847000Y-60976315D01*
X33847000Y-61888065D01*
X34005750Y-62046815D01*
X34595000Y-62049887D01*
X34719482Y-62037627D01*
X34839180Y-62001317D01*
X34949494Y-61942352D01*
X35046185Y-61863000D01*
X35125537Y-61766309D01*
X35184502Y-61655995D01*
X35220812Y-61536297D01*
X35233072Y-61411815D01*
X35230000Y-61135065D01*
X35071250Y-60976315D01*
X33847000Y-60976315D01*
X33593000Y-60976315D01*
X32368750Y-60976315D01*
X32210000Y-61135065D01*
X32206928Y-61411815D01*
X18660000Y-61411815D01*
X18660000Y-60286815D01*
X32206928Y-60286815D01*
X32210000Y-60563565D01*
X32368750Y-60722315D01*
X33593000Y-60722315D01*
X33593000Y-59810565D01*
X33847000Y-59810565D01*
X33847000Y-60722315D01*
X35071250Y-60722315D01*
X35230000Y-60563565D01*
X35233072Y-60286815D01*
X35220812Y-60162333D01*
X35184502Y-60042635D01*
X35125537Y-59932321D01*
X35046185Y-59835630D01*
X34949494Y-59756278D01*
X34839180Y-59697313D01*
X34719482Y-59661003D01*
X34595000Y-59648743D01*
X34005750Y-59651815D01*
X33847000Y-59810565D01*
X33593000Y-59810565D01*
X33434250Y-59651815D01*
X32845000Y-59648743D01*
X32720518Y-59661003D01*
X32600820Y-59697313D01*
X32490506Y-59756278D01*
X32393815Y-59835630D01*
X32314463Y-59932321D01*
X32255498Y-60042635D01*
X32219188Y-60162333D01*
X32206928Y-60286815D01*
X18660000Y-60286815D01*
X18660000Y-57611814D01*
X32206928Y-57611814D01*
X32206928Y-58236816D01*
X32223992Y-58410070D01*
X32274528Y-58576666D01*
X32356595Y-58730202D01*
X32467038Y-58864777D01*
X32601613Y-58975220D01*
X32755149Y-59057287D01*
X32921745Y-59107823D01*
X33094999Y-59124887D01*
X34345001Y-59124887D01*
X34518255Y-59107823D01*
X34678166Y-59059315D01*
X35949043Y-59059315D01*
X35959463Y-59078809D01*
X36038815Y-59175500D01*
X36135506Y-59254852D01*
X36245820Y-59313817D01*
X36365518Y-59350127D01*
X36373961Y-59350958D01*
X36175363Y-59549556D01*
X36018320Y-59784588D01*
X35910147Y-60045741D01*
X35855000Y-60322980D01*
X35855000Y-60605650D01*
X35910147Y-60882889D01*
X36018320Y-61144042D01*
X36175363Y-61379074D01*
X36375241Y-61578952D01*
X36610273Y-61735995D01*
X36871426Y-61844168D01*
X37148665Y-61899315D01*
X37431335Y-61899315D01*
X37708574Y-61844168D01*
X37969727Y-61735995D01*
X38204759Y-61578952D01*
X38404637Y-61379074D01*
X38561680Y-61144042D01*
X38669853Y-60882889D01*
X38725000Y-60605650D01*
X38725000Y-60322980D01*
X38669853Y-60045741D01*
X38561680Y-59784588D01*
X38404637Y-59549556D01*
X38206039Y-59350958D01*
X38214482Y-59350127D01*
X38334180Y-59313817D01*
X38444494Y-59254852D01*
X38541185Y-59175500D01*
X38620537Y-59078809D01*
X38679502Y-58968495D01*
X38715812Y-58848797D01*
X38728072Y-58724315D01*
X38728072Y-57124315D01*
X38715812Y-56999833D01*
X38679502Y-56880135D01*
X38620537Y-56769821D01*
X38541185Y-56673130D01*
X38444494Y-56593778D01*
X38334180Y-56534813D01*
X38214482Y-56498503D01*
X38090000Y-56486243D01*
X36490000Y-56486243D01*
X36365518Y-56498503D01*
X36245820Y-56534813D01*
X36135506Y-56593778D01*
X36038815Y-56673130D01*
X35959463Y-56769821D01*
X35949043Y-56789315D01*
X34678166Y-56789315D01*
X34518255Y-56740807D01*
X34345001Y-56723743D01*
X33094999Y-56723743D01*
X32921745Y-56740807D01*
X32755149Y-56791343D01*
X32601613Y-56873410D01*
X32467038Y-56983853D01*
X32356595Y-57118428D01*
X32274528Y-57271964D01*
X32223992Y-57438560D01*
X32206928Y-57611814D01*
X18660000Y-57611814D01*
X18660000Y-51615329D01*
X19115000Y-51615329D01*
X19115000Y-51878301D01*
X19166304Y-52136220D01*
X19266939Y-52379174D01*
X19413038Y-52597828D01*
X19598987Y-52783777D01*
X19817641Y-52929876D01*
X19906819Y-52966815D01*
X19817641Y-53003754D01*
X19598987Y-53149853D01*
X19413038Y-53335802D01*
X19266939Y-53554456D01*
X19166304Y-53797410D01*
X19115000Y-54055329D01*
X19115000Y-54318301D01*
X19166304Y-54576220D01*
X19266939Y-54819174D01*
X19413038Y-55037828D01*
X19598987Y-55223777D01*
X19817641Y-55369876D01*
X20060595Y-55470511D01*
X20318514Y-55521815D01*
X20581486Y-55521815D01*
X20839405Y-55470511D01*
X21082359Y-55369876D01*
X21301013Y-55223777D01*
X21486962Y-55037828D01*
X21633061Y-54819174D01*
X21733696Y-54576220D01*
X21785000Y-54318301D01*
X21785000Y-54055329D01*
X21733696Y-53797410D01*
X21633061Y-53554456D01*
X21486962Y-53335802D01*
X21301013Y-53149853D01*
X21082359Y-53003754D01*
X20993181Y-52966815D01*
X21082359Y-52929876D01*
X21301013Y-52783777D01*
X21486962Y-52597828D01*
X21633061Y-52379174D01*
X21733696Y-52136220D01*
X21785000Y-51878301D01*
X21785000Y-51615329D01*
X26735000Y-51615329D01*
X26735000Y-51878301D01*
X26786304Y-52136220D01*
X26886939Y-52379174D01*
X27033038Y-52597828D01*
X27218987Y-52783777D01*
X27437641Y-52929876D01*
X27526819Y-52966815D01*
X27437641Y-53003754D01*
X27218987Y-53149853D01*
X27033038Y-53335802D01*
X26886939Y-53554456D01*
X26786304Y-53797410D01*
X26735000Y-54055329D01*
X26735000Y-54318301D01*
X26786304Y-54576220D01*
X26886939Y-54819174D01*
X27033038Y-55037828D01*
X27218987Y-55223777D01*
X27321304Y-55292142D01*
X27150713Y-55462733D01*
X27015557Y-55665008D01*
X26922460Y-55889764D01*
X26875000Y-56128363D01*
X26875000Y-56371637D01*
X26922460Y-56610236D01*
X27015557Y-56834992D01*
X27150713Y-57037267D01*
X27322733Y-57209287D01*
X27525008Y-57344443D01*
X27749764Y-57437540D01*
X27988363Y-57485000D01*
X28231637Y-57485000D01*
X28470236Y-57437540D01*
X28597079Y-57385000D01*
X30764249Y-57385000D01*
X30820000Y-57390491D01*
X30875751Y-57385000D01*
X30875752Y-57385000D01*
X31042499Y-57368577D01*
X31256447Y-57303676D01*
X31453623Y-57198284D01*
X31626449Y-57056449D01*
X31661996Y-57013135D01*
X38063141Y-50611991D01*
X38106449Y-50576449D01*
X38248284Y-50403623D01*
X38353676Y-50206447D01*
X38418577Y-49992499D01*
X38435000Y-49825752D01*
X38435000Y-49825751D01*
X38440491Y-49770000D01*
X38435000Y-49714248D01*
X38435000Y-44970849D01*
X40300000Y-44970849D01*
X40522027Y-44948981D01*
X40735521Y-44884218D01*
X40932279Y-44779049D01*
X41104738Y-44637515D01*
X41246272Y-44465056D01*
X41351441Y-44268298D01*
X41416204Y-44054804D01*
X41438072Y-43832777D01*
X41438072Y-42832777D01*
X41416204Y-42610750D01*
X41351441Y-42397256D01*
X41246272Y-42200498D01*
X41104738Y-42028039D01*
X40932279Y-41886505D01*
X40735521Y-41781336D01*
X40614095Y-41744502D01*
X40273927Y-41404334D01*
X40476301Y-41101461D01*
X40535266Y-40991146D01*
X40760323Y-40447810D01*
X40796633Y-40328112D01*
X40911366Y-39751309D01*
X40923626Y-39626828D01*
X40923626Y-39038726D01*
X40911366Y-38914245D01*
X40796633Y-38337442D01*
X40760323Y-38217744D01*
X40535266Y-37674408D01*
X40476301Y-37564093D01*
X40149568Y-37075103D01*
X40070216Y-36978412D01*
X39654365Y-36562561D01*
X39557674Y-36483209D01*
X39068684Y-36156476D01*
X38958369Y-36097511D01*
X38415033Y-35872454D01*
X38295335Y-35836144D01*
X37718532Y-35721411D01*
X37594051Y-35709151D01*
X37005949Y-35709151D01*
X36881468Y-35721411D01*
X36304665Y-35836144D01*
X36184967Y-35872454D01*
X35641631Y-36097511D01*
X35531316Y-36156476D01*
X35042326Y-36483209D01*
X34945635Y-36562561D01*
X34529784Y-36978412D01*
X34450432Y-37075103D01*
X34123699Y-37564093D01*
X34064734Y-37674408D01*
X33839677Y-38217744D01*
X33803367Y-38337442D01*
X33688634Y-38914245D01*
X33676374Y-39038726D01*
X33676374Y-39626828D01*
X33688634Y-39751309D01*
X33803367Y-40328112D01*
X33839677Y-40447810D01*
X34064734Y-40991146D01*
X34123699Y-41101461D01*
X34326073Y-41404334D01*
X33985905Y-41744502D01*
X33864479Y-41781336D01*
X33667721Y-41886505D01*
X33495262Y-42028039D01*
X33353728Y-42200498D01*
X33248559Y-42397256D01*
X33183796Y-42610750D01*
X33161928Y-42832777D01*
X33161928Y-43832777D01*
X33183796Y-44054804D01*
X33248559Y-44268298D01*
X33353728Y-44465056D01*
X33495262Y-44637515D01*
X33667721Y-44779049D01*
X33864479Y-44884218D01*
X34077973Y-44948981D01*
X34300000Y-44970849D01*
X36165000Y-44970849D01*
X36165000Y-49299868D01*
X30349869Y-55115000D01*
X29029790Y-55115000D01*
X29106962Y-55037828D01*
X29253061Y-54819174D01*
X29353696Y-54576220D01*
X29405000Y-54318301D01*
X29405000Y-54055329D01*
X29353696Y-53797410D01*
X29253061Y-53554456D01*
X29106962Y-53335802D01*
X28921013Y-53149853D01*
X28702359Y-53003754D01*
X28613181Y-52966815D01*
X28702359Y-52929876D01*
X28921013Y-52783777D01*
X29106962Y-52597828D01*
X29253061Y-52379174D01*
X29353696Y-52136220D01*
X29405000Y-51878301D01*
X29405000Y-51615329D01*
X29353696Y-51357410D01*
X29253061Y-51114456D01*
X29106962Y-50895802D01*
X28921013Y-50709853D01*
X28702359Y-50563754D01*
X28459405Y-50463119D01*
X28201486Y-50411815D01*
X27938514Y-50411815D01*
X27680595Y-50463119D01*
X27437641Y-50563754D01*
X27218987Y-50709853D01*
X27033038Y-50895802D01*
X26886939Y-51114456D01*
X26786304Y-51357410D01*
X26735000Y-51615329D01*
X21785000Y-51615329D01*
X21733696Y-51357410D01*
X21633061Y-51114456D01*
X21486962Y-50895802D01*
X21301013Y-50709853D01*
X21082359Y-50563754D01*
X20839405Y-50463119D01*
X20581486Y-50411815D01*
X20318514Y-50411815D01*
X20060595Y-50463119D01*
X19817641Y-50563754D01*
X19598987Y-50709853D01*
X19413038Y-50895802D01*
X19266939Y-51114456D01*
X19166304Y-51357410D01*
X19115000Y-51615329D01*
X18660000Y-51615329D01*
X18660000Y-32660000D01*
X22861928Y-32660000D01*
X22861928Y-33660000D01*
X22883796Y-33882027D01*
X22948559Y-34095521D01*
X23053728Y-34292279D01*
X23195262Y-34464738D01*
X23367721Y-34606272D01*
X23564479Y-34711441D01*
X23777973Y-34776204D01*
X24000000Y-34798072D01*
X25487150Y-34798072D01*
X25633970Y-35072752D01*
X25838287Y-35321714D01*
X26087249Y-35526031D01*
X26371286Y-35677852D01*
X26679485Y-35771343D01*
X27000000Y-35802911D01*
X27320516Y-35771343D01*
X27628715Y-35677852D01*
X27912752Y-35526031D01*
X28161714Y-35321714D01*
X28366031Y-35072752D01*
X28512851Y-34798072D01*
X30000000Y-34798072D01*
X30222027Y-34776204D01*
X30435521Y-34711441D01*
X30632279Y-34606272D01*
X30804738Y-34464738D01*
X30946272Y-34292279D01*
X31051441Y-34095521D01*
X31116204Y-33882027D01*
X31138072Y-33660000D01*
X31138072Y-32660000D01*
X31116204Y-32437973D01*
X31051441Y-32224479D01*
X30946272Y-32027721D01*
X30804738Y-31855262D01*
X30632279Y-31713728D01*
X30435521Y-31608559D01*
X30314095Y-31571725D01*
X29973927Y-31231557D01*
X30176301Y-30928684D01*
X30235266Y-30818369D01*
X30460323Y-30275033D01*
X30496633Y-30155335D01*
X30611366Y-29578532D01*
X30623626Y-29454051D01*
X30623626Y-28865949D01*
X30611366Y-28741468D01*
X30496633Y-28164665D01*
X30460323Y-28044967D01*
X30235266Y-27501631D01*
X30176301Y-27391316D01*
X29849568Y-26902326D01*
X29770216Y-26805635D01*
X29354365Y-26389784D01*
X29257674Y-26310432D01*
X28768684Y-25983699D01*
X28658369Y-25924734D01*
X28115033Y-25699677D01*
X27995335Y-25663367D01*
X27418532Y-25548634D01*
X27294051Y-25536374D01*
X26705949Y-25536374D01*
X26581468Y-25548634D01*
X26004665Y-25663367D01*
X25884967Y-25699677D01*
X25341631Y-25924734D01*
X25231316Y-25983699D01*
X24742326Y-26310432D01*
X24645635Y-26389784D01*
X24229784Y-26805635D01*
X24150432Y-26902326D01*
X23823699Y-27391316D01*
X23764734Y-27501631D01*
X23539677Y-28044967D01*
X23503367Y-28164665D01*
X23388634Y-28741468D01*
X23376374Y-28865949D01*
X23376374Y-29454051D01*
X23388634Y-29578532D01*
X23503367Y-30155335D01*
X23539677Y-30275033D01*
X23764734Y-30818369D01*
X23823699Y-30928684D01*
X24026073Y-31231557D01*
X23685905Y-31571725D01*
X23564479Y-31608559D01*
X23367721Y-31713728D01*
X23195262Y-31855262D01*
X23053728Y-32027721D01*
X22948559Y-32224479D01*
X22883796Y-32437973D01*
X22861928Y-32660000D01*
X18660000Y-32660000D01*
X18660000Y-30020747D01*
X18734944Y-28829551D01*
X18954698Y-27677556D01*
X19317100Y-26562199D01*
X19816441Y-25501045D01*
X20444836Y-24510854D01*
X21192383Y-23607224D01*
X22047292Y-22804412D01*
X22996079Y-22115078D01*
X24023774Y-21550097D01*
X25114186Y-21118373D01*
X26250103Y-20826719D01*
X27423941Y-20678429D01*
X28010358Y-20660000D01*
X44154253Y-20660000D01*
X44270122Y-66794810D01*
G04 #@! TA.AperFunction,Conductor*
D26*
G36*
X44270122Y-66794810D02*
G01*
X43930315Y-67021862D01*
X43451862Y-67500315D01*
X43075943Y-68062918D01*
X42817006Y-68688048D01*
X42685000Y-69351682D01*
X42685000Y-70028318D01*
X42817006Y-70691952D01*
X43075943Y-71317082D01*
X43451862Y-71879685D01*
X43930315Y-72358138D01*
X44284690Y-72594923D01*
X44316049Y-85081033D01*
X40750642Y-81515627D01*
X40760323Y-81492256D01*
X40796633Y-81372558D01*
X40911366Y-80795755D01*
X40923626Y-80671274D01*
X40923626Y-80083172D01*
X40911366Y-79958691D01*
X40796633Y-79381888D01*
X40760323Y-79262190D01*
X40535266Y-78718854D01*
X40476301Y-78608539D01*
X40273927Y-78305666D01*
X40614095Y-77965498D01*
X40735521Y-77928664D01*
X40932279Y-77823495D01*
X41104738Y-77681961D01*
X41246272Y-77509502D01*
X41351441Y-77312744D01*
X41416204Y-77099250D01*
X41438072Y-76877223D01*
X41438072Y-75877223D01*
X41416204Y-75655196D01*
X41351441Y-75441702D01*
X41246272Y-75244944D01*
X41104738Y-75072485D01*
X40932279Y-74930951D01*
X40735521Y-74825782D01*
X40522027Y-74761019D01*
X40300000Y-74739151D01*
X38435000Y-74739151D01*
X38435000Y-71105752D01*
X38440491Y-71050000D01*
X38418577Y-70827501D01*
X38353676Y-70613553D01*
X38248284Y-70416377D01*
X38106449Y-70243551D01*
X38063141Y-70208009D01*
X31538811Y-63683680D01*
X31503264Y-63640366D01*
X31330438Y-63498531D01*
X31133262Y-63393139D01*
X30919314Y-63328238D01*
X30752567Y-63311815D01*
X30752566Y-63311815D01*
X30696815Y-63306324D01*
X30641064Y-63311815D01*
X28774288Y-63311815D01*
X28702359Y-63263754D01*
X28459405Y-63163119D01*
X28201486Y-63111815D01*
X27938514Y-63111815D01*
X27680595Y-63163119D01*
X27437641Y-63263754D01*
X27218987Y-63409853D01*
X27033038Y-63595802D01*
X26886939Y-63814456D01*
X26786304Y-64057410D01*
X26735000Y-64315329D01*
X26735000Y-64578301D01*
X26786304Y-64836220D01*
X26886939Y-65079174D01*
X27033038Y-65297828D01*
X27218987Y-65483777D01*
X27437641Y-65629876D01*
X27647530Y-65716815D01*
X27437641Y-65803754D01*
X27218987Y-65949853D01*
X27033038Y-66135802D01*
X26886939Y-66354456D01*
X26786304Y-66597410D01*
X26735000Y-66855329D01*
X26735000Y-67118301D01*
X26786304Y-67376220D01*
X26886939Y-67619174D01*
X27033038Y-67837828D01*
X27218987Y-68023777D01*
X27437641Y-68169876D01*
X27680595Y-68270511D01*
X27938514Y-68321815D01*
X28201486Y-68321815D01*
X28459405Y-68270511D01*
X28702359Y-68169876D01*
X28921013Y-68023777D01*
X29106962Y-67837828D01*
X29253061Y-67619174D01*
X29353696Y-67376220D01*
X29405000Y-67118301D01*
X29405000Y-66855329D01*
X29353696Y-66597410D01*
X29253061Y-66354456D01*
X29106962Y-66135802D01*
X28921013Y-65949853D01*
X28702359Y-65803754D01*
X28492470Y-65716815D01*
X28702359Y-65629876D01*
X28774288Y-65581815D01*
X30226684Y-65581815D01*
X36165001Y-71520133D01*
X36165001Y-74739151D01*
X34300000Y-74739151D01*
X34077973Y-74761019D01*
X33864479Y-74825782D01*
X33667721Y-74930951D01*
X33495262Y-75072485D01*
X33353728Y-75244944D01*
X33248559Y-75441702D01*
X33183796Y-75655196D01*
X33161928Y-75877223D01*
X33161928Y-76877223D01*
X33183796Y-77099250D01*
X33248559Y-77312744D01*
X33353728Y-77509502D01*
X33495262Y-77681961D01*
X33667721Y-77823495D01*
X33864479Y-77928664D01*
X33985905Y-77965498D01*
X34326073Y-78305666D01*
X34123699Y-78608539D01*
X34064734Y-78718854D01*
X33839677Y-79262190D01*
X33803367Y-79381888D01*
X33688634Y-79958691D01*
X33676374Y-80083172D01*
X33676374Y-80671274D01*
X33688634Y-80795755D01*
X33803367Y-81372558D01*
X33839677Y-81492256D01*
X34064734Y-82035592D01*
X34123699Y-82145907D01*
X34450432Y-82634897D01*
X34529784Y-82731588D01*
X34945635Y-83147439D01*
X35042326Y-83226791D01*
X35531316Y-83553524D01*
X35641631Y-83612489D01*
X36184967Y-83837546D01*
X36304665Y-83873856D01*
X36881468Y-83988589D01*
X37005949Y-84000849D01*
X37594051Y-84000849D01*
X37718532Y-83988589D01*
X38295335Y-83873856D01*
X38415033Y-83837546D01*
X38438404Y-83827865D01*
X44039857Y-89429319D01*
X44091063Y-89491714D01*
X44327614Y-89685846D01*
X44452842Y-139547069D01*
X44366063Y-139618286D01*
X44314857Y-139680681D01*
X38413404Y-145582135D01*
X38390033Y-145572454D01*
X38270335Y-145536144D01*
X37693532Y-145421411D01*
X37569051Y-145409151D01*
X36980949Y-145409151D01*
X36856468Y-145421411D01*
X36279665Y-145536144D01*
X36159967Y-145572454D01*
X35616631Y-145797511D01*
X35506316Y-145856476D01*
X35017326Y-146183209D01*
X34920635Y-146262561D01*
X34504784Y-146678412D01*
X34425432Y-146775103D01*
X34098699Y-147264093D01*
X34039734Y-147374408D01*
X33814677Y-147917744D01*
X33778367Y-148037442D01*
X33663634Y-148614245D01*
X33651374Y-148738726D01*
X33651374Y-149326828D01*
X33663634Y-149451309D01*
X33778367Y-150028112D01*
X33814677Y-150147810D01*
X34039734Y-150691146D01*
X34098699Y-150801461D01*
X34301073Y-151104334D01*
X33960905Y-151444502D01*
X33839479Y-151481336D01*
X33642721Y-151586505D01*
X33470262Y-151728039D01*
X33328728Y-151900498D01*
X33223559Y-152097256D01*
X33158796Y-152310750D01*
X33136928Y-152532777D01*
X33136928Y-153532777D01*
X33158796Y-153754804D01*
X33223559Y-153968298D01*
X33328728Y-154165056D01*
X33470262Y-154337515D01*
X33642721Y-154479049D01*
X33839479Y-154584218D01*
X34052973Y-154648981D01*
X34275000Y-154670849D01*
X36140001Y-154670849D01*
X36140000Y-162294868D01*
X32399869Y-166035000D01*
X28762038Y-166035000D01*
X28921013Y-165928777D01*
X29106962Y-165742828D01*
X29253061Y-165524174D01*
X29353696Y-165281220D01*
X29405000Y-165023301D01*
X29405000Y-164760329D01*
X29353696Y-164502410D01*
X29253061Y-164259456D01*
X29106962Y-164040802D01*
X28921013Y-163854853D01*
X28702359Y-163708754D01*
X28613181Y-163671815D01*
X28702359Y-163634876D01*
X28921013Y-163488777D01*
X29106962Y-163302828D01*
X29253061Y-163084174D01*
X29353696Y-162841220D01*
X29405000Y-162583301D01*
X29405000Y-162320329D01*
X29353696Y-162062410D01*
X29253061Y-161819456D01*
X29106962Y-161600802D01*
X28921013Y-161414853D01*
X28702359Y-161268754D01*
X28459405Y-161168119D01*
X28201486Y-161116815D01*
X27938514Y-161116815D01*
X27680595Y-161168119D01*
X27437641Y-161268754D01*
X27218987Y-161414853D01*
X27033038Y-161600802D01*
X26886939Y-161819456D01*
X26786304Y-162062410D01*
X26735000Y-162320329D01*
X26735000Y-162583301D01*
X26786304Y-162841220D01*
X26886939Y-163084174D01*
X27033038Y-163302828D01*
X27218987Y-163488777D01*
X27437641Y-163634876D01*
X27526819Y-163671815D01*
X27437641Y-163708754D01*
X27218987Y-163854853D01*
X27033038Y-164040802D01*
X26886939Y-164259456D01*
X26786304Y-164502410D01*
X26735000Y-164760329D01*
X26735000Y-165023301D01*
X26786304Y-165281220D01*
X26886939Y-165524174D01*
X27033038Y-165742828D01*
X27218987Y-165928777D01*
X27437641Y-166074876D01*
X27504550Y-166102590D01*
X27342733Y-166210713D01*
X27170713Y-166382733D01*
X27035557Y-166585008D01*
X26942460Y-166809764D01*
X26895000Y-167048363D01*
X26895000Y-167291637D01*
X26942460Y-167530236D01*
X27035557Y-167754992D01*
X27170713Y-167957267D01*
X27342733Y-168129287D01*
X27545008Y-168264443D01*
X27769764Y-168357540D01*
X28008363Y-168405000D01*
X28251637Y-168405000D01*
X28490236Y-168357540D01*
X28617079Y-168305000D01*
X32208092Y-168305000D01*
X32206928Y-168316814D01*
X32206928Y-168941816D01*
X32223992Y-169115070D01*
X32274528Y-169281666D01*
X32356595Y-169435202D01*
X32467038Y-169569777D01*
X32601613Y-169680220D01*
X32755149Y-169762287D01*
X32921745Y-169812823D01*
X33094999Y-169829887D01*
X34345001Y-169829887D01*
X34518255Y-169812823D01*
X34678166Y-169764315D01*
X35934043Y-169764315D01*
X35944463Y-169783809D01*
X36023815Y-169880500D01*
X36120506Y-169959852D01*
X36230820Y-170018817D01*
X36350518Y-170055127D01*
X36358961Y-170055958D01*
X36160363Y-170254556D01*
X36003320Y-170489588D01*
X35895147Y-170750741D01*
X35840000Y-171027980D01*
X35840000Y-171310650D01*
X35895147Y-171587889D01*
X36003320Y-171849042D01*
X36160363Y-172084074D01*
X36360241Y-172283952D01*
X36595273Y-172440995D01*
X36856426Y-172549168D01*
X37133665Y-172604315D01*
X37416335Y-172604315D01*
X37693574Y-172549168D01*
X37954727Y-172440995D01*
X38189759Y-172283952D01*
X38389637Y-172084074D01*
X38546680Y-171849042D01*
X38654853Y-171587889D01*
X38710000Y-171310650D01*
X38710000Y-171027980D01*
X38654853Y-170750741D01*
X38546680Y-170489588D01*
X38389637Y-170254556D01*
X38191039Y-170055958D01*
X38199482Y-170055127D01*
X38319180Y-170018817D01*
X38429494Y-169959852D01*
X38526185Y-169880500D01*
X38605537Y-169783809D01*
X38664502Y-169673495D01*
X38700812Y-169553797D01*
X38713072Y-169429315D01*
X38713072Y-167829315D01*
X38700812Y-167704833D01*
X38664502Y-167585135D01*
X38605537Y-167474821D01*
X38526185Y-167378130D01*
X38429494Y-167298778D01*
X38319180Y-167239813D01*
X38199482Y-167203503D01*
X38075000Y-167191243D01*
X36475000Y-167191243D01*
X36350518Y-167203503D01*
X36230820Y-167239813D01*
X36120506Y-167298778D01*
X36023815Y-167378130D01*
X35944463Y-167474821D01*
X35934043Y-167494315D01*
X34678166Y-167494315D01*
X34518255Y-167445807D01*
X34345001Y-167428743D01*
X34216388Y-167428743D01*
X38038141Y-163606991D01*
X38081449Y-163571449D01*
X38223284Y-163398623D01*
X38328676Y-163201447D01*
X38393577Y-162987499D01*
X38410000Y-162820752D01*
X38410000Y-162820751D01*
X38415491Y-162765000D01*
X38410000Y-162709248D01*
X38410000Y-154670849D01*
X40275000Y-154670849D01*
X40497027Y-154648981D01*
X40710521Y-154584218D01*
X40907279Y-154479049D01*
X41079738Y-154337515D01*
X41221272Y-154165056D01*
X41326441Y-153968298D01*
X41391204Y-153754804D01*
X41413072Y-153532777D01*
X41413072Y-152532777D01*
X41391204Y-152310750D01*
X41326441Y-152097256D01*
X41221272Y-151900498D01*
X41079738Y-151728039D01*
X40907279Y-151586505D01*
X40710521Y-151481336D01*
X40589095Y-151444502D01*
X40248927Y-151104334D01*
X40451301Y-150801461D01*
X40510266Y-150691146D01*
X40735323Y-150147810D01*
X40771633Y-150028112D01*
X40886366Y-149451309D01*
X40898626Y-149326828D01*
X40898626Y-148738726D01*
X40886366Y-148614245D01*
X40771633Y-148037442D01*
X40735323Y-147917744D01*
X40725642Y-147894373D01*
X44464417Y-144155599D01*
X44467117Y-145230645D01*
X44270686Y-145427076D01*
X44208286Y-145478286D01*
X44003969Y-145727249D01*
X43852148Y-146011286D01*
X43758657Y-146319485D01*
X43735000Y-146559678D01*
X43727089Y-146640000D01*
X43735000Y-146720319D01*
X43735000Y-157217177D01*
X43451862Y-157500315D01*
X43075943Y-158062918D01*
X42817006Y-158688048D01*
X42685000Y-159351682D01*
X42685000Y-160028318D01*
X42817006Y-160691952D01*
X43075943Y-161317082D01*
X43451862Y-161879685D01*
X43735000Y-162162823D01*
X43735001Y-182304983D01*
X40559895Y-185480090D01*
X40497027Y-185461019D01*
X40275000Y-185439151D01*
X38410000Y-185439151D01*
X38410000Y-184412567D01*
X38415491Y-184356815D01*
X38393577Y-184134316D01*
X38328676Y-183920368D01*
X38223284Y-183723192D01*
X38131159Y-183610938D01*
X38081449Y-183550366D01*
X38038141Y-183514824D01*
X29370573Y-174847257D01*
X29353696Y-174762410D01*
X29253061Y-174519456D01*
X29106962Y-174300802D01*
X28921013Y-174114853D01*
X28702359Y-173968754D01*
X28459405Y-173868119D01*
X28201486Y-173816815D01*
X27938514Y-173816815D01*
X27680595Y-173868119D01*
X27437641Y-173968754D01*
X27218987Y-174114853D01*
X27033038Y-174300802D01*
X26886939Y-174519456D01*
X26786304Y-174762410D01*
X26735000Y-175020329D01*
X26735000Y-175283301D01*
X26786304Y-175541220D01*
X26886939Y-175784174D01*
X27033038Y-176002828D01*
X27218987Y-176188777D01*
X27437641Y-176334876D01*
X27647530Y-176421815D01*
X27437641Y-176508754D01*
X27218987Y-176654853D01*
X27033038Y-176840802D01*
X26886939Y-177059456D01*
X26786304Y-177302410D01*
X26735000Y-177560329D01*
X26735000Y-177823301D01*
X26786304Y-178081220D01*
X26886939Y-178324174D01*
X27033038Y-178542828D01*
X27218987Y-178728777D01*
X27437641Y-178874876D01*
X27680595Y-178975511D01*
X27938514Y-179026815D01*
X28201486Y-179026815D01*
X28459405Y-178975511D01*
X28702359Y-178874876D01*
X28921013Y-178728777D01*
X29106962Y-178542828D01*
X29253061Y-178324174D01*
X29353696Y-178081220D01*
X29360428Y-178047375D01*
X36140001Y-184826948D01*
X36140001Y-185439151D01*
X34275000Y-185439151D01*
X34052973Y-185461019D01*
X33839479Y-185525782D01*
X33642721Y-185630951D01*
X33470262Y-185772485D01*
X33328728Y-185944944D01*
X33223559Y-186141702D01*
X33158796Y-186355196D01*
X33136928Y-186577223D01*
X33136928Y-187577223D01*
X33158796Y-187799250D01*
X33223559Y-188012744D01*
X33328728Y-188209502D01*
X33470262Y-188381961D01*
X33642721Y-188523495D01*
X33839479Y-188628664D01*
X33960905Y-188665498D01*
X34301073Y-189005666D01*
X34098699Y-189308539D01*
X34039734Y-189418854D01*
X33814677Y-189962190D01*
X33778367Y-190081888D01*
X33663634Y-190658691D01*
X33651374Y-190783172D01*
X33651374Y-191371274D01*
X33663634Y-191495755D01*
X33778367Y-192072558D01*
X33814677Y-192192256D01*
X34039734Y-192735592D01*
X34098699Y-192845907D01*
X34425432Y-193334897D01*
X34504784Y-193431588D01*
X34920635Y-193847439D01*
X35017326Y-193926791D01*
X35506316Y-194253524D01*
X35616631Y-194312489D01*
X36159967Y-194537546D01*
X36279665Y-194573856D01*
X36856468Y-194688589D01*
X36980949Y-194700849D01*
X37569051Y-194700849D01*
X37693532Y-194688589D01*
X38270335Y-194573856D01*
X38390033Y-194537546D01*
X38933369Y-194312489D01*
X39043684Y-194253524D01*
X39532674Y-193926791D01*
X39629365Y-193847439D01*
X40045216Y-193431588D01*
X40124568Y-193334897D01*
X40451301Y-192845907D01*
X40510266Y-192735592D01*
X40735323Y-192192256D01*
X40771633Y-192072558D01*
X40886366Y-191495755D01*
X40898626Y-191371274D01*
X40898626Y-190783172D01*
X40886366Y-190658691D01*
X40771633Y-190081888D01*
X40735323Y-189962190D01*
X40725642Y-189938819D01*
X44569748Y-186094714D01*
X44628129Y-209340000D01*
X28020747Y-209340000D01*
X26829552Y-209265056D01*
X25677556Y-209045302D01*
X24562199Y-208682900D01*
X23501048Y-208183560D01*
X22510856Y-207555165D01*
X21607220Y-206807612D01*
X20804412Y-205952708D01*
X20115078Y-205003922D01*
X19550097Y-203976227D01*
X19118373Y-202885813D01*
X18826719Y-201749897D01*
X18678429Y-200576058D01*
X18660000Y-199989642D01*
X18660000Y-198290000D01*
X22741928Y-198290000D01*
X22754188Y-198414482D01*
X22790498Y-198534180D01*
X22849463Y-198644494D01*
X22928815Y-198741185D01*
X23025506Y-198820537D01*
X23135820Y-198879502D01*
X23255518Y-198915812D01*
X23380000Y-198928072D01*
X23615477Y-198927847D01*
X23906073Y-199218443D01*
X23703699Y-199521316D01*
X23644734Y-199631631D01*
X23419677Y-200174967D01*
X23383367Y-200294665D01*
X23268634Y-200871468D01*
X23256374Y-200995949D01*
X23256374Y-201584051D01*
X23268634Y-201708532D01*
X23383367Y-202285335D01*
X23419677Y-202405033D01*
X23644734Y-202948369D01*
X23703699Y-203058684D01*
X24030432Y-203547674D01*
X24109784Y-203644365D01*
X24525635Y-204060216D01*
X24622326Y-204139568D01*
X25111316Y-204466301D01*
X25221631Y-204525266D01*
X25764967Y-204750323D01*
X25884665Y-204786633D01*
X26461468Y-204901366D01*
X26585949Y-204913626D01*
X27174051Y-204913626D01*
X27298532Y-204901366D01*
X27875335Y-204786633D01*
X27995033Y-204750323D01*
X28538369Y-204525266D01*
X28648684Y-204466301D01*
X29137674Y-204139568D01*
X29234365Y-204060216D01*
X29650216Y-203644365D01*
X29729568Y-203547674D01*
X30056301Y-203058684D01*
X30115266Y-202948369D01*
X30340323Y-202405033D01*
X30376633Y-202285335D01*
X30491366Y-201708532D01*
X30503626Y-201584051D01*
X30503626Y-200995949D01*
X30491366Y-200871468D01*
X30376633Y-200294665D01*
X30340323Y-200174967D01*
X30115266Y-199631631D01*
X30056301Y-199521316D01*
X29853927Y-199218443D01*
X30144523Y-198927847D01*
X30380000Y-198928072D01*
X30504482Y-198915812D01*
X30624180Y-198879502D01*
X30734494Y-198820537D01*
X30831185Y-198741185D01*
X30910537Y-198644494D01*
X30969502Y-198534180D01*
X31005812Y-198414482D01*
X31018072Y-198290000D01*
X31015000Y-197575750D01*
X30856250Y-197417000D01*
X27007000Y-197417000D01*
X27007000Y-197437000D01*
X26753000Y-197437000D01*
X26753000Y-197417000D01*
X22903750Y-197417000D01*
X22745000Y-197575750D01*
X22741928Y-198290000D01*
X18660000Y-198290000D01*
X18660000Y-196290000D01*
X22741928Y-196290000D01*
X22745000Y-197004250D01*
X22903750Y-197163000D01*
X26753000Y-197163000D01*
X26753000Y-195813750D01*
X27007000Y-195813750D01*
X27007000Y-197163000D01*
X30856250Y-197163000D01*
X31015000Y-197004250D01*
X31018072Y-196290000D01*
X31005812Y-196165518D01*
X30969502Y-196045820D01*
X30910537Y-195935506D01*
X30831185Y-195838815D01*
X30734494Y-195759463D01*
X30624180Y-195700498D01*
X30504482Y-195664188D01*
X30380000Y-195651928D01*
X27165750Y-195655000D01*
X27007000Y-195813750D01*
X26753000Y-195813750D01*
X26594250Y-195655000D01*
X23380000Y-195651928D01*
X23255518Y-195664188D01*
X23135820Y-195700498D01*
X23025506Y-195759463D01*
X22928815Y-195838815D01*
X22849463Y-195935506D01*
X22790498Y-196045820D01*
X22754188Y-196165518D01*
X22741928Y-196290000D01*
X18660000Y-196290000D01*
X18660000Y-176991815D01*
X19111928Y-176991815D01*
X19111928Y-178391815D01*
X19124188Y-178516297D01*
X19160498Y-178635995D01*
X19219463Y-178746309D01*
X19298815Y-178843000D01*
X19395506Y-178922352D01*
X19505820Y-178981317D01*
X19625518Y-179017627D01*
X19750000Y-179029887D01*
X21150000Y-179029887D01*
X21274482Y-179017627D01*
X21394180Y-178981317D01*
X21504494Y-178922352D01*
X21601185Y-178843000D01*
X21680537Y-178746309D01*
X21739502Y-178635995D01*
X21775812Y-178516297D01*
X21788072Y-178391815D01*
X21788072Y-176991815D01*
X21775812Y-176867333D01*
X21739502Y-176747635D01*
X21680537Y-176637321D01*
X21601185Y-176540630D01*
X21504494Y-176461278D01*
X21394180Y-176402313D01*
X21274482Y-176366003D01*
X21150000Y-176353743D01*
X21036810Y-176353743D01*
X21082359Y-176334876D01*
X21301013Y-176188777D01*
X21486962Y-176002828D01*
X21633061Y-175784174D01*
X21733696Y-175541220D01*
X21785000Y-175283301D01*
X21785000Y-175020329D01*
X21733696Y-174762410D01*
X21633061Y-174519456D01*
X21486962Y-174300802D01*
X21301013Y-174114853D01*
X21082359Y-173968754D01*
X20839405Y-173868119D01*
X20581486Y-173816815D01*
X20318514Y-173816815D01*
X20060595Y-173868119D01*
X19817641Y-173968754D01*
X19598987Y-174114853D01*
X19413038Y-174300802D01*
X19266939Y-174519456D01*
X19166304Y-174762410D01*
X19115000Y-175020329D01*
X19115000Y-175283301D01*
X19166304Y-175541220D01*
X19266939Y-175784174D01*
X19413038Y-176002828D01*
X19598987Y-176188777D01*
X19817641Y-176334876D01*
X19863190Y-176353743D01*
X19750000Y-176353743D01*
X19625518Y-176366003D01*
X19505820Y-176402313D01*
X19395506Y-176461278D01*
X19298815Y-176540630D01*
X19219463Y-176637321D01*
X19160498Y-176747635D01*
X19124188Y-176867333D01*
X19111928Y-176991815D01*
X18660000Y-176991815D01*
X18660000Y-172116815D01*
X32206928Y-172116815D01*
X32219188Y-172241297D01*
X32255498Y-172360995D01*
X32314463Y-172471309D01*
X32393815Y-172568000D01*
X32490506Y-172647352D01*
X32600820Y-172706317D01*
X32720518Y-172742627D01*
X32845000Y-172754887D01*
X33434250Y-172751815D01*
X33593000Y-172593065D01*
X33593000Y-171681315D01*
X33847000Y-171681315D01*
X33847000Y-172593065D01*
X34005750Y-172751815D01*
X34595000Y-172754887D01*
X34719482Y-172742627D01*
X34839180Y-172706317D01*
X34949494Y-172647352D01*
X35046185Y-172568000D01*
X35125537Y-172471309D01*
X35184502Y-172360995D01*
X35220812Y-172241297D01*
X35233072Y-172116815D01*
X35230000Y-171840065D01*
X35071250Y-171681315D01*
X33847000Y-171681315D01*
X33593000Y-171681315D01*
X32368750Y-171681315D01*
X32210000Y-171840065D01*
X32206928Y-172116815D01*
X18660000Y-172116815D01*
X18660000Y-170991815D01*
X32206928Y-170991815D01*
X32210000Y-171268565D01*
X32368750Y-171427315D01*
X33593000Y-171427315D01*
X33593000Y-170515565D01*
X33847000Y-170515565D01*
X33847000Y-171427315D01*
X35071250Y-171427315D01*
X35230000Y-171268565D01*
X35233072Y-170991815D01*
X35220812Y-170867333D01*
X35184502Y-170747635D01*
X35125537Y-170637321D01*
X35046185Y-170540630D01*
X34949494Y-170461278D01*
X34839180Y-170402313D01*
X34719482Y-170366003D01*
X34595000Y-170353743D01*
X34005750Y-170356815D01*
X33847000Y-170515565D01*
X33593000Y-170515565D01*
X33434250Y-170356815D01*
X32845000Y-170353743D01*
X32720518Y-170366003D01*
X32600820Y-170402313D01*
X32490506Y-170461278D01*
X32393815Y-170540630D01*
X32314463Y-170637321D01*
X32255498Y-170747635D01*
X32219188Y-170867333D01*
X32206928Y-170991815D01*
X18660000Y-170991815D01*
X18660000Y-162320329D01*
X19115000Y-162320329D01*
X19115000Y-162583301D01*
X19166304Y-162841220D01*
X19266939Y-163084174D01*
X19413038Y-163302828D01*
X19598987Y-163488777D01*
X19817641Y-163634876D01*
X19906819Y-163671815D01*
X19817641Y-163708754D01*
X19598987Y-163854853D01*
X19413038Y-164040802D01*
X19266939Y-164259456D01*
X19166304Y-164502410D01*
X19115000Y-164760329D01*
X19115000Y-165023301D01*
X19166304Y-165281220D01*
X19266939Y-165524174D01*
X19413038Y-165742828D01*
X19598987Y-165928777D01*
X19817641Y-166074876D01*
X20060595Y-166175511D01*
X20318514Y-166226815D01*
X20581486Y-166226815D01*
X20839405Y-166175511D01*
X21082359Y-166074876D01*
X21301013Y-165928777D01*
X21486962Y-165742828D01*
X21633061Y-165524174D01*
X21733696Y-165281220D01*
X21785000Y-165023301D01*
X21785000Y-164760329D01*
X21733696Y-164502410D01*
X21633061Y-164259456D01*
X21486962Y-164040802D01*
X21301013Y-163854853D01*
X21082359Y-163708754D01*
X20993181Y-163671815D01*
X21082359Y-163634876D01*
X21301013Y-163488777D01*
X21486962Y-163302828D01*
X21633061Y-163084174D01*
X21733696Y-162841220D01*
X21785000Y-162583301D01*
X21785000Y-162320329D01*
X21733696Y-162062410D01*
X21633061Y-161819456D01*
X21486962Y-161600802D01*
X21301013Y-161414853D01*
X21082359Y-161268754D01*
X20839405Y-161168119D01*
X20581486Y-161116815D01*
X20318514Y-161116815D01*
X20060595Y-161168119D01*
X19817641Y-161268754D01*
X19598987Y-161414853D01*
X19413038Y-161600802D01*
X19266939Y-161819456D01*
X19166304Y-162062410D01*
X19115000Y-162320329D01*
X18660000Y-162320329D01*
X18660000Y-121611815D01*
X19111928Y-121611815D01*
X19111928Y-123011815D01*
X19124188Y-123136297D01*
X19160498Y-123255995D01*
X19219463Y-123366309D01*
X19298815Y-123463000D01*
X19395506Y-123542352D01*
X19505820Y-123601317D01*
X19625518Y-123637627D01*
X19750000Y-123649887D01*
X21150000Y-123649887D01*
X21274482Y-123637627D01*
X21394180Y-123601317D01*
X21504494Y-123542352D01*
X21601185Y-123463000D01*
X21680537Y-123366309D01*
X21739502Y-123255995D01*
X21775812Y-123136297D01*
X21788072Y-123011815D01*
X21788072Y-121611815D01*
X21775812Y-121487333D01*
X21739502Y-121367635D01*
X21680537Y-121257321D01*
X21601185Y-121160630D01*
X21504494Y-121081278D01*
X21394180Y-121022313D01*
X21274482Y-120986003D01*
X21150000Y-120973743D01*
X21036810Y-120973743D01*
X21082359Y-120954876D01*
X21301013Y-120808777D01*
X21486962Y-120622828D01*
X21633061Y-120404174D01*
X21733696Y-120161220D01*
X21785000Y-119903301D01*
X21785000Y-119640329D01*
X26735000Y-119640329D01*
X26735000Y-119903301D01*
X26786304Y-120161220D01*
X26886939Y-120404174D01*
X27033038Y-120622828D01*
X27218987Y-120808777D01*
X27437641Y-120954876D01*
X27647530Y-121041815D01*
X27437641Y-121128754D01*
X27218987Y-121274853D01*
X27033038Y-121460802D01*
X26886939Y-121679456D01*
X26786304Y-121922410D01*
X26735000Y-122180329D01*
X26735000Y-122443301D01*
X26786304Y-122701220D01*
X26886939Y-122944174D01*
X27033038Y-123162828D01*
X27218987Y-123348777D01*
X27437641Y-123494876D01*
X27680595Y-123595511D01*
X27938514Y-123646815D01*
X28201486Y-123646815D01*
X28459405Y-123595511D01*
X28702359Y-123494876D01*
X28921013Y-123348777D01*
X29106962Y-123162828D01*
X29253061Y-122944174D01*
X29353696Y-122701220D01*
X29360428Y-122667375D01*
X36165001Y-129471948D01*
X36165001Y-130059151D01*
X34300000Y-130059151D01*
X34077973Y-130081019D01*
X33864479Y-130145782D01*
X33667721Y-130250951D01*
X33495262Y-130392485D01*
X33353728Y-130564944D01*
X33248559Y-130761702D01*
X33183796Y-130975196D01*
X33161928Y-131197223D01*
X33161928Y-132197223D01*
X33183796Y-132419250D01*
X33248559Y-132632744D01*
X33353728Y-132829502D01*
X33495262Y-133001961D01*
X33667721Y-133143495D01*
X33864479Y-133248664D01*
X33985905Y-133285498D01*
X34326073Y-133625666D01*
X34123699Y-133928539D01*
X34064734Y-134038854D01*
X33839677Y-134582190D01*
X33803367Y-134701888D01*
X33688634Y-135278691D01*
X33676374Y-135403172D01*
X33676374Y-135991274D01*
X33688634Y-136115755D01*
X33803367Y-136692558D01*
X33839677Y-136812256D01*
X34064734Y-137355592D01*
X34123699Y-137465907D01*
X34450432Y-137954897D01*
X34529784Y-138051588D01*
X34945635Y-138467439D01*
X35042326Y-138546791D01*
X35531316Y-138873524D01*
X35641631Y-138932489D01*
X36184967Y-139157546D01*
X36304665Y-139193856D01*
X36881468Y-139308589D01*
X37005949Y-139320849D01*
X37594051Y-139320849D01*
X37718532Y-139308589D01*
X38295335Y-139193856D01*
X38415033Y-139157546D01*
X38958369Y-138932489D01*
X39068684Y-138873524D01*
X39557674Y-138546791D01*
X39654365Y-138467439D01*
X40070216Y-138051588D01*
X40149568Y-137954897D01*
X40476301Y-137465907D01*
X40535266Y-137355592D01*
X40760323Y-136812256D01*
X40796633Y-136692558D01*
X40911366Y-136115755D01*
X40923626Y-135991274D01*
X40923626Y-135403172D01*
X40911366Y-135278691D01*
X40796633Y-134701888D01*
X40760323Y-134582190D01*
X40535266Y-134038854D01*
X40476301Y-133928539D01*
X40273927Y-133625666D01*
X40614095Y-133285498D01*
X40735521Y-133248664D01*
X40932279Y-133143495D01*
X41104738Y-133001961D01*
X41246272Y-132829502D01*
X41351441Y-132632744D01*
X41416204Y-132419250D01*
X41438072Y-132197223D01*
X41438072Y-131197223D01*
X41416204Y-130975196D01*
X41351441Y-130761702D01*
X41246272Y-130564944D01*
X41104738Y-130392485D01*
X40932279Y-130250951D01*
X40735521Y-130145782D01*
X40522027Y-130081019D01*
X40300000Y-130059151D01*
X38435000Y-130059151D01*
X38435000Y-129057558D01*
X38440490Y-129001814D01*
X38435000Y-128946070D01*
X38435000Y-128946063D01*
X38418577Y-128779316D01*
X38353676Y-128565368D01*
X38248284Y-128368192D01*
X38106449Y-128195366D01*
X38063141Y-128159824D01*
X29370573Y-119467257D01*
X29353696Y-119382410D01*
X29253061Y-119139456D01*
X29106962Y-118920802D01*
X28921013Y-118734853D01*
X28702359Y-118588754D01*
X28459405Y-118488119D01*
X28201486Y-118436815D01*
X27938514Y-118436815D01*
X27680595Y-118488119D01*
X27437641Y-118588754D01*
X27218987Y-118734853D01*
X27033038Y-118920802D01*
X26886939Y-119139456D01*
X26786304Y-119382410D01*
X26735000Y-119640329D01*
X21785000Y-119640329D01*
X21733696Y-119382410D01*
X21633061Y-119139456D01*
X21486962Y-118920802D01*
X21301013Y-118734853D01*
X21082359Y-118588754D01*
X20839405Y-118488119D01*
X20581486Y-118436815D01*
X20318514Y-118436815D01*
X20060595Y-118488119D01*
X19817641Y-118588754D01*
X19598987Y-118734853D01*
X19413038Y-118920802D01*
X19266939Y-119139456D01*
X19166304Y-119382410D01*
X19115000Y-119640329D01*
X19115000Y-119903301D01*
X19166304Y-120161220D01*
X19266939Y-120404174D01*
X19413038Y-120622828D01*
X19598987Y-120808777D01*
X19817641Y-120954876D01*
X19863190Y-120973743D01*
X19750000Y-120973743D01*
X19625518Y-120986003D01*
X19505820Y-121022313D01*
X19395506Y-121081278D01*
X19298815Y-121160630D01*
X19219463Y-121257321D01*
X19160498Y-121367635D01*
X19124188Y-121487333D01*
X19111928Y-121611815D01*
X18660000Y-121611815D01*
X18660000Y-116736815D01*
X32206928Y-116736815D01*
X32219188Y-116861297D01*
X32255498Y-116980995D01*
X32314463Y-117091309D01*
X32393815Y-117188000D01*
X32490506Y-117267352D01*
X32600820Y-117326317D01*
X32720518Y-117362627D01*
X32845000Y-117374887D01*
X33434250Y-117371815D01*
X33593000Y-117213065D01*
X33593000Y-116301315D01*
X33847000Y-116301315D01*
X33847000Y-117213065D01*
X34005750Y-117371815D01*
X34595000Y-117374887D01*
X34719482Y-117362627D01*
X34839180Y-117326317D01*
X34949494Y-117267352D01*
X35046185Y-117188000D01*
X35125537Y-117091309D01*
X35184502Y-116980995D01*
X35220812Y-116861297D01*
X35233072Y-116736815D01*
X35230000Y-116460065D01*
X35071250Y-116301315D01*
X33847000Y-116301315D01*
X33593000Y-116301315D01*
X32368750Y-116301315D01*
X32210000Y-116460065D01*
X32206928Y-116736815D01*
X18660000Y-116736815D01*
X18660000Y-115611815D01*
X32206928Y-115611815D01*
X32210000Y-115888565D01*
X32368750Y-116047315D01*
X33593000Y-116047315D01*
X33593000Y-115135565D01*
X33847000Y-115135565D01*
X33847000Y-116047315D01*
X35071250Y-116047315D01*
X35230000Y-115888565D01*
X35233072Y-115611815D01*
X35220812Y-115487333D01*
X35184502Y-115367635D01*
X35125537Y-115257321D01*
X35046185Y-115160630D01*
X34949494Y-115081278D01*
X34839180Y-115022313D01*
X34719482Y-114986003D01*
X34595000Y-114973743D01*
X34005750Y-114976815D01*
X33847000Y-115135565D01*
X33593000Y-115135565D01*
X33434250Y-114976815D01*
X32845000Y-114973743D01*
X32720518Y-114986003D01*
X32600820Y-115022313D01*
X32490506Y-115081278D01*
X32393815Y-115160630D01*
X32314463Y-115257321D01*
X32255498Y-115367635D01*
X32219188Y-115487333D01*
X32206928Y-115611815D01*
X18660000Y-115611815D01*
X18660000Y-106940329D01*
X19115000Y-106940329D01*
X19115000Y-107203301D01*
X19166304Y-107461220D01*
X19266939Y-107704174D01*
X19413038Y-107922828D01*
X19598987Y-108108777D01*
X19817641Y-108254876D01*
X19906819Y-108291815D01*
X19817641Y-108328754D01*
X19598987Y-108474853D01*
X19413038Y-108660802D01*
X19266939Y-108879456D01*
X19166304Y-109122410D01*
X19115000Y-109380329D01*
X19115000Y-109643301D01*
X19166304Y-109901220D01*
X19266939Y-110144174D01*
X19413038Y-110362828D01*
X19598987Y-110548777D01*
X19817641Y-110694876D01*
X20060595Y-110795511D01*
X20318514Y-110846815D01*
X20581486Y-110846815D01*
X20839405Y-110795511D01*
X21082359Y-110694876D01*
X21301013Y-110548777D01*
X21486962Y-110362828D01*
X21633061Y-110144174D01*
X21733696Y-109901220D01*
X21785000Y-109643301D01*
X21785000Y-109380329D01*
X21733696Y-109122410D01*
X21633061Y-108879456D01*
X21486962Y-108660802D01*
X21301013Y-108474853D01*
X21082359Y-108328754D01*
X20993181Y-108291815D01*
X21082359Y-108254876D01*
X21301013Y-108108777D01*
X21486962Y-107922828D01*
X21633061Y-107704174D01*
X21733696Y-107461220D01*
X21785000Y-107203301D01*
X21785000Y-106940329D01*
X26735000Y-106940329D01*
X26735000Y-107203301D01*
X26786304Y-107461220D01*
X26886939Y-107704174D01*
X27033038Y-107922828D01*
X27218987Y-108108777D01*
X27437641Y-108254876D01*
X27526819Y-108291815D01*
X27437641Y-108328754D01*
X27218987Y-108474853D01*
X27033038Y-108660802D01*
X26886939Y-108879456D01*
X26786304Y-109122410D01*
X26735000Y-109380329D01*
X26735000Y-109643301D01*
X26786304Y-109901220D01*
X26886939Y-110144174D01*
X27033038Y-110362828D01*
X27218987Y-110548777D01*
X27240377Y-110563069D01*
X27150713Y-110652733D01*
X27015557Y-110855008D01*
X26922460Y-111079764D01*
X26875000Y-111318363D01*
X26875000Y-111561637D01*
X26922460Y-111800236D01*
X27015557Y-112024992D01*
X27150713Y-112227267D01*
X27322733Y-112399287D01*
X27525008Y-112534443D01*
X27749764Y-112627540D01*
X27988363Y-112675000D01*
X28231637Y-112675000D01*
X28470236Y-112627540D01*
X28597079Y-112575000D01*
X32286268Y-112575000D01*
X32274528Y-112596964D01*
X32223992Y-112763560D01*
X32206928Y-112936814D01*
X32206928Y-113561816D01*
X32223992Y-113735070D01*
X32274528Y-113901666D01*
X32356595Y-114055202D01*
X32467038Y-114189777D01*
X32601613Y-114300220D01*
X32755149Y-114382287D01*
X32921745Y-114432823D01*
X33094999Y-114449887D01*
X34345001Y-114449887D01*
X34518255Y-114432823D01*
X34678166Y-114384315D01*
X35959043Y-114384315D01*
X35969463Y-114403809D01*
X36048815Y-114500500D01*
X36145506Y-114579852D01*
X36255820Y-114638817D01*
X36375518Y-114675127D01*
X36383961Y-114675958D01*
X36185363Y-114874556D01*
X36028320Y-115109588D01*
X35920147Y-115370741D01*
X35865000Y-115647980D01*
X35865000Y-115930650D01*
X35920147Y-116207889D01*
X36028320Y-116469042D01*
X36185363Y-116704074D01*
X36385241Y-116903952D01*
X36620273Y-117060995D01*
X36881426Y-117169168D01*
X37158665Y-117224315D01*
X37441335Y-117224315D01*
X37718574Y-117169168D01*
X37979727Y-117060995D01*
X38214759Y-116903952D01*
X38414637Y-116704074D01*
X38571680Y-116469042D01*
X38679853Y-116207889D01*
X38735000Y-115930650D01*
X38735000Y-115647980D01*
X38679853Y-115370741D01*
X38571680Y-115109588D01*
X38414637Y-114874556D01*
X38216039Y-114675958D01*
X38224482Y-114675127D01*
X38344180Y-114638817D01*
X38454494Y-114579852D01*
X38551185Y-114500500D01*
X38630537Y-114403809D01*
X38689502Y-114293495D01*
X38725812Y-114173797D01*
X38738072Y-114049315D01*
X38738072Y-112449315D01*
X38725812Y-112324833D01*
X38689502Y-112205135D01*
X38630537Y-112094821D01*
X38551185Y-111998130D01*
X38454494Y-111918778D01*
X38344180Y-111859813D01*
X38224482Y-111823503D01*
X38100000Y-111811243D01*
X36500000Y-111811243D01*
X36375518Y-111823503D01*
X36255820Y-111859813D01*
X36145506Y-111918778D01*
X36048815Y-111998130D01*
X35969463Y-112094821D01*
X35959043Y-112114315D01*
X34678166Y-112114315D01*
X34534420Y-112070711D01*
X38063146Y-108541987D01*
X38106449Y-108506449D01*
X38248284Y-108333623D01*
X38353676Y-108136447D01*
X38418577Y-107922499D01*
X38435000Y-107755752D01*
X38435000Y-107755751D01*
X38440491Y-107700000D01*
X38435000Y-107644248D01*
X38435000Y-99290849D01*
X40300000Y-99290849D01*
X40522027Y-99268981D01*
X40735521Y-99204218D01*
X40932279Y-99099049D01*
X41104738Y-98957515D01*
X41246272Y-98785056D01*
X41351441Y-98588298D01*
X41416204Y-98374804D01*
X41438072Y-98152777D01*
X41438072Y-97152777D01*
X41416204Y-96930750D01*
X41351441Y-96717256D01*
X41246272Y-96520498D01*
X41104738Y-96348039D01*
X40932279Y-96206505D01*
X40735521Y-96101336D01*
X40614095Y-96064502D01*
X40273927Y-95724334D01*
X40476301Y-95421461D01*
X40535266Y-95311146D01*
X40760323Y-94767810D01*
X40796633Y-94648112D01*
X40911366Y-94071309D01*
X40923626Y-93946828D01*
X40923626Y-93358726D01*
X40911366Y-93234245D01*
X40796633Y-92657442D01*
X40760323Y-92537744D01*
X40535266Y-91994408D01*
X40476301Y-91884093D01*
X40149568Y-91395103D01*
X40070216Y-91298412D01*
X39654365Y-90882561D01*
X39557674Y-90803209D01*
X39068684Y-90476476D01*
X38958369Y-90417511D01*
X38415033Y-90192454D01*
X38295335Y-90156144D01*
X37718532Y-90041411D01*
X37594051Y-90029151D01*
X37005949Y-90029151D01*
X36881468Y-90041411D01*
X36304665Y-90156144D01*
X36184967Y-90192454D01*
X35641631Y-90417511D01*
X35531316Y-90476476D01*
X35042326Y-90803209D01*
X34945635Y-90882561D01*
X34529784Y-91298412D01*
X34450432Y-91395103D01*
X34123699Y-91884093D01*
X34064734Y-91994408D01*
X33839677Y-92537744D01*
X33803367Y-92657442D01*
X33688634Y-93234245D01*
X33676374Y-93358726D01*
X33676374Y-93946828D01*
X33688634Y-94071309D01*
X33803367Y-94648112D01*
X33839677Y-94767810D01*
X34064734Y-95311146D01*
X34123699Y-95421461D01*
X34326073Y-95724334D01*
X33985905Y-96064502D01*
X33864479Y-96101336D01*
X33667721Y-96206505D01*
X33495262Y-96348039D01*
X33353728Y-96520498D01*
X33248559Y-96717256D01*
X33183796Y-96930750D01*
X33161928Y-97152777D01*
X33161928Y-98152777D01*
X33183796Y-98374804D01*
X33248559Y-98588298D01*
X33353728Y-98785056D01*
X33495262Y-98957515D01*
X33667721Y-99099049D01*
X33864479Y-99204218D01*
X34077973Y-99268981D01*
X34300000Y-99290849D01*
X36165001Y-99290849D01*
X36165000Y-107229867D01*
X33089869Y-110305000D01*
X29145601Y-110305000D01*
X29253061Y-110144174D01*
X29353696Y-109901220D01*
X29405000Y-109643301D01*
X29405000Y-109380329D01*
X29353696Y-109122410D01*
X29253061Y-108879456D01*
X29106962Y-108660802D01*
X28921013Y-108474853D01*
X28702359Y-108328754D01*
X28613181Y-108291815D01*
X28702359Y-108254876D01*
X28921013Y-108108777D01*
X29106962Y-107922828D01*
X29253061Y-107704174D01*
X29353696Y-107461220D01*
X29405000Y-107203301D01*
X29405000Y-106940329D01*
X29353696Y-106682410D01*
X29253061Y-106439456D01*
X29106962Y-106220802D01*
X28921013Y-106034853D01*
X28702359Y-105888754D01*
X28459405Y-105788119D01*
X28201486Y-105736815D01*
X27938514Y-105736815D01*
X27680595Y-105788119D01*
X27437641Y-105888754D01*
X27218987Y-106034853D01*
X27033038Y-106220802D01*
X26886939Y-106439456D01*
X26786304Y-106682410D01*
X26735000Y-106940329D01*
X21785000Y-106940329D01*
X21733696Y-106682410D01*
X21633061Y-106439456D01*
X21486962Y-106220802D01*
X21301013Y-106034853D01*
X21082359Y-105888754D01*
X20839405Y-105788119D01*
X20581486Y-105736815D01*
X20318514Y-105736815D01*
X20060595Y-105788119D01*
X19817641Y-105888754D01*
X19598987Y-106034853D01*
X19413038Y-106220802D01*
X19266939Y-106439456D01*
X19166304Y-106682410D01*
X19115000Y-106940329D01*
X18660000Y-106940329D01*
X18660000Y-66286815D01*
X19111928Y-66286815D01*
X19111928Y-67686815D01*
X19124188Y-67811297D01*
X19160498Y-67930995D01*
X19219463Y-68041309D01*
X19298815Y-68138000D01*
X19395506Y-68217352D01*
X19505820Y-68276317D01*
X19625518Y-68312627D01*
X19750000Y-68324887D01*
X21150000Y-68324887D01*
X21274482Y-68312627D01*
X21394180Y-68276317D01*
X21504494Y-68217352D01*
X21601185Y-68138000D01*
X21680537Y-68041309D01*
X21739502Y-67930995D01*
X21775812Y-67811297D01*
X21788072Y-67686815D01*
X21788072Y-66286815D01*
X21775812Y-66162333D01*
X21739502Y-66042635D01*
X21680537Y-65932321D01*
X21601185Y-65835630D01*
X21504494Y-65756278D01*
X21394180Y-65697313D01*
X21274482Y-65661003D01*
X21150000Y-65648743D01*
X21036810Y-65648743D01*
X21082359Y-65629876D01*
X21301013Y-65483777D01*
X21486962Y-65297828D01*
X21633061Y-65079174D01*
X21733696Y-64836220D01*
X21785000Y-64578301D01*
X21785000Y-64315329D01*
X21733696Y-64057410D01*
X21633061Y-63814456D01*
X21486962Y-63595802D01*
X21301013Y-63409853D01*
X21082359Y-63263754D01*
X20839405Y-63163119D01*
X20581486Y-63111815D01*
X20318514Y-63111815D01*
X20060595Y-63163119D01*
X19817641Y-63263754D01*
X19598987Y-63409853D01*
X19413038Y-63595802D01*
X19266939Y-63814456D01*
X19166304Y-64057410D01*
X19115000Y-64315329D01*
X19115000Y-64578301D01*
X19166304Y-64836220D01*
X19266939Y-65079174D01*
X19413038Y-65297828D01*
X19598987Y-65483777D01*
X19817641Y-65629876D01*
X19863190Y-65648743D01*
X19750000Y-65648743D01*
X19625518Y-65661003D01*
X19505820Y-65697313D01*
X19395506Y-65756278D01*
X19298815Y-65835630D01*
X19219463Y-65932321D01*
X19160498Y-66042635D01*
X19124188Y-66162333D01*
X19111928Y-66286815D01*
X18660000Y-66286815D01*
X18660000Y-61411815D01*
X32206928Y-61411815D01*
X32219188Y-61536297D01*
X32255498Y-61655995D01*
X32314463Y-61766309D01*
X32393815Y-61863000D01*
X32490506Y-61942352D01*
X32600820Y-62001317D01*
X32720518Y-62037627D01*
X32845000Y-62049887D01*
X33434250Y-62046815D01*
X33593000Y-61888065D01*
X33593000Y-60976315D01*
X33847000Y-60976315D01*
X33847000Y-61888065D01*
X34005750Y-62046815D01*
X34595000Y-62049887D01*
X34719482Y-62037627D01*
X34839180Y-62001317D01*
X34949494Y-61942352D01*
X35046185Y-61863000D01*
X35125537Y-61766309D01*
X35184502Y-61655995D01*
X35220812Y-61536297D01*
X35233072Y-61411815D01*
X35230000Y-61135065D01*
X35071250Y-60976315D01*
X33847000Y-60976315D01*
X33593000Y-60976315D01*
X32368750Y-60976315D01*
X32210000Y-61135065D01*
X32206928Y-61411815D01*
X18660000Y-61411815D01*
X18660000Y-60286815D01*
X32206928Y-60286815D01*
X32210000Y-60563565D01*
X32368750Y-60722315D01*
X33593000Y-60722315D01*
X33593000Y-59810565D01*
X33847000Y-59810565D01*
X33847000Y-60722315D01*
X35071250Y-60722315D01*
X35230000Y-60563565D01*
X35233072Y-60286815D01*
X35220812Y-60162333D01*
X35184502Y-60042635D01*
X35125537Y-59932321D01*
X35046185Y-59835630D01*
X34949494Y-59756278D01*
X34839180Y-59697313D01*
X34719482Y-59661003D01*
X34595000Y-59648743D01*
X34005750Y-59651815D01*
X33847000Y-59810565D01*
X33593000Y-59810565D01*
X33434250Y-59651815D01*
X32845000Y-59648743D01*
X32720518Y-59661003D01*
X32600820Y-59697313D01*
X32490506Y-59756278D01*
X32393815Y-59835630D01*
X32314463Y-59932321D01*
X32255498Y-60042635D01*
X32219188Y-60162333D01*
X32206928Y-60286815D01*
X18660000Y-60286815D01*
X18660000Y-57611814D01*
X32206928Y-57611814D01*
X32206928Y-58236816D01*
X32223992Y-58410070D01*
X32274528Y-58576666D01*
X32356595Y-58730202D01*
X32467038Y-58864777D01*
X32601613Y-58975220D01*
X32755149Y-59057287D01*
X32921745Y-59107823D01*
X33094999Y-59124887D01*
X34345001Y-59124887D01*
X34518255Y-59107823D01*
X34678166Y-59059315D01*
X35949043Y-59059315D01*
X35959463Y-59078809D01*
X36038815Y-59175500D01*
X36135506Y-59254852D01*
X36245820Y-59313817D01*
X36365518Y-59350127D01*
X36373961Y-59350958D01*
X36175363Y-59549556D01*
X36018320Y-59784588D01*
X35910147Y-60045741D01*
X35855000Y-60322980D01*
X35855000Y-60605650D01*
X35910147Y-60882889D01*
X36018320Y-61144042D01*
X36175363Y-61379074D01*
X36375241Y-61578952D01*
X36610273Y-61735995D01*
X36871426Y-61844168D01*
X37148665Y-61899315D01*
X37431335Y-61899315D01*
X37708574Y-61844168D01*
X37969727Y-61735995D01*
X38204759Y-61578952D01*
X38404637Y-61379074D01*
X38561680Y-61144042D01*
X38669853Y-60882889D01*
X38725000Y-60605650D01*
X38725000Y-60322980D01*
X38669853Y-60045741D01*
X38561680Y-59784588D01*
X38404637Y-59549556D01*
X38206039Y-59350958D01*
X38214482Y-59350127D01*
X38334180Y-59313817D01*
X38444494Y-59254852D01*
X38541185Y-59175500D01*
X38620537Y-59078809D01*
X38679502Y-58968495D01*
X38715812Y-58848797D01*
X38728072Y-58724315D01*
X38728072Y-57124315D01*
X38715812Y-56999833D01*
X38679502Y-56880135D01*
X38620537Y-56769821D01*
X38541185Y-56673130D01*
X38444494Y-56593778D01*
X38334180Y-56534813D01*
X38214482Y-56498503D01*
X38090000Y-56486243D01*
X36490000Y-56486243D01*
X36365518Y-56498503D01*
X36245820Y-56534813D01*
X36135506Y-56593778D01*
X36038815Y-56673130D01*
X35959463Y-56769821D01*
X35949043Y-56789315D01*
X34678166Y-56789315D01*
X34518255Y-56740807D01*
X34345001Y-56723743D01*
X33094999Y-56723743D01*
X32921745Y-56740807D01*
X32755149Y-56791343D01*
X32601613Y-56873410D01*
X32467038Y-56983853D01*
X32356595Y-57118428D01*
X32274528Y-57271964D01*
X32223992Y-57438560D01*
X32206928Y-57611814D01*
X18660000Y-57611814D01*
X18660000Y-51615329D01*
X19115000Y-51615329D01*
X19115000Y-51878301D01*
X19166304Y-52136220D01*
X19266939Y-52379174D01*
X19413038Y-52597828D01*
X19598987Y-52783777D01*
X19817641Y-52929876D01*
X19906819Y-52966815D01*
X19817641Y-53003754D01*
X19598987Y-53149853D01*
X19413038Y-53335802D01*
X19266939Y-53554456D01*
X19166304Y-53797410D01*
X19115000Y-54055329D01*
X19115000Y-54318301D01*
X19166304Y-54576220D01*
X19266939Y-54819174D01*
X19413038Y-55037828D01*
X19598987Y-55223777D01*
X19817641Y-55369876D01*
X20060595Y-55470511D01*
X20318514Y-55521815D01*
X20581486Y-55521815D01*
X20839405Y-55470511D01*
X21082359Y-55369876D01*
X21301013Y-55223777D01*
X21486962Y-55037828D01*
X21633061Y-54819174D01*
X21733696Y-54576220D01*
X21785000Y-54318301D01*
X21785000Y-54055329D01*
X21733696Y-53797410D01*
X21633061Y-53554456D01*
X21486962Y-53335802D01*
X21301013Y-53149853D01*
X21082359Y-53003754D01*
X20993181Y-52966815D01*
X21082359Y-52929876D01*
X21301013Y-52783777D01*
X21486962Y-52597828D01*
X21633061Y-52379174D01*
X21733696Y-52136220D01*
X21785000Y-51878301D01*
X21785000Y-51615329D01*
X26735000Y-51615329D01*
X26735000Y-51878301D01*
X26786304Y-52136220D01*
X26886939Y-52379174D01*
X27033038Y-52597828D01*
X27218987Y-52783777D01*
X27437641Y-52929876D01*
X27526819Y-52966815D01*
X27437641Y-53003754D01*
X27218987Y-53149853D01*
X27033038Y-53335802D01*
X26886939Y-53554456D01*
X26786304Y-53797410D01*
X26735000Y-54055329D01*
X26735000Y-54318301D01*
X26786304Y-54576220D01*
X26886939Y-54819174D01*
X27033038Y-55037828D01*
X27218987Y-55223777D01*
X27321304Y-55292142D01*
X27150713Y-55462733D01*
X27015557Y-55665008D01*
X26922460Y-55889764D01*
X26875000Y-56128363D01*
X26875000Y-56371637D01*
X26922460Y-56610236D01*
X27015557Y-56834992D01*
X27150713Y-57037267D01*
X27322733Y-57209287D01*
X27525008Y-57344443D01*
X27749764Y-57437540D01*
X27988363Y-57485000D01*
X28231637Y-57485000D01*
X28470236Y-57437540D01*
X28597079Y-57385000D01*
X30764249Y-57385000D01*
X30820000Y-57390491D01*
X30875751Y-57385000D01*
X30875752Y-57385000D01*
X31042499Y-57368577D01*
X31256447Y-57303676D01*
X31453623Y-57198284D01*
X31626449Y-57056449D01*
X31661996Y-57013135D01*
X38063141Y-50611991D01*
X38106449Y-50576449D01*
X38248284Y-50403623D01*
X38353676Y-50206447D01*
X38418577Y-49992499D01*
X38435000Y-49825752D01*
X38435000Y-49825751D01*
X38440491Y-49770000D01*
X38435000Y-49714248D01*
X38435000Y-44970849D01*
X40300000Y-44970849D01*
X40522027Y-44948981D01*
X40735521Y-44884218D01*
X40932279Y-44779049D01*
X41104738Y-44637515D01*
X41246272Y-44465056D01*
X41351441Y-44268298D01*
X41416204Y-44054804D01*
X41438072Y-43832777D01*
X41438072Y-42832777D01*
X41416204Y-42610750D01*
X41351441Y-42397256D01*
X41246272Y-42200498D01*
X41104738Y-42028039D01*
X40932279Y-41886505D01*
X40735521Y-41781336D01*
X40614095Y-41744502D01*
X40273927Y-41404334D01*
X40476301Y-41101461D01*
X40535266Y-40991146D01*
X40760323Y-40447810D01*
X40796633Y-40328112D01*
X40911366Y-39751309D01*
X40923626Y-39626828D01*
X40923626Y-39038726D01*
X40911366Y-38914245D01*
X40796633Y-38337442D01*
X40760323Y-38217744D01*
X40535266Y-37674408D01*
X40476301Y-37564093D01*
X40149568Y-37075103D01*
X40070216Y-36978412D01*
X39654365Y-36562561D01*
X39557674Y-36483209D01*
X39068684Y-36156476D01*
X38958369Y-36097511D01*
X38415033Y-35872454D01*
X38295335Y-35836144D01*
X37718532Y-35721411D01*
X37594051Y-35709151D01*
X37005949Y-35709151D01*
X36881468Y-35721411D01*
X36304665Y-35836144D01*
X36184967Y-35872454D01*
X35641631Y-36097511D01*
X35531316Y-36156476D01*
X35042326Y-36483209D01*
X34945635Y-36562561D01*
X34529784Y-36978412D01*
X34450432Y-37075103D01*
X34123699Y-37564093D01*
X34064734Y-37674408D01*
X33839677Y-38217744D01*
X33803367Y-38337442D01*
X33688634Y-38914245D01*
X33676374Y-39038726D01*
X33676374Y-39626828D01*
X33688634Y-39751309D01*
X33803367Y-40328112D01*
X33839677Y-40447810D01*
X34064734Y-40991146D01*
X34123699Y-41101461D01*
X34326073Y-41404334D01*
X33985905Y-41744502D01*
X33864479Y-41781336D01*
X33667721Y-41886505D01*
X33495262Y-42028039D01*
X33353728Y-42200498D01*
X33248559Y-42397256D01*
X33183796Y-42610750D01*
X33161928Y-42832777D01*
X33161928Y-43832777D01*
X33183796Y-44054804D01*
X33248559Y-44268298D01*
X33353728Y-44465056D01*
X33495262Y-44637515D01*
X33667721Y-44779049D01*
X33864479Y-44884218D01*
X34077973Y-44948981D01*
X34300000Y-44970849D01*
X36165000Y-44970849D01*
X36165000Y-49299868D01*
X30349869Y-55115000D01*
X29029790Y-55115000D01*
X29106962Y-55037828D01*
X29253061Y-54819174D01*
X29353696Y-54576220D01*
X29405000Y-54318301D01*
X29405000Y-54055329D01*
X29353696Y-53797410D01*
X29253061Y-53554456D01*
X29106962Y-53335802D01*
X28921013Y-53149853D01*
X28702359Y-53003754D01*
X28613181Y-52966815D01*
X28702359Y-52929876D01*
X28921013Y-52783777D01*
X29106962Y-52597828D01*
X29253061Y-52379174D01*
X29353696Y-52136220D01*
X29405000Y-51878301D01*
X29405000Y-51615329D01*
X29353696Y-51357410D01*
X29253061Y-51114456D01*
X29106962Y-50895802D01*
X28921013Y-50709853D01*
X28702359Y-50563754D01*
X28459405Y-50463119D01*
X28201486Y-50411815D01*
X27938514Y-50411815D01*
X27680595Y-50463119D01*
X27437641Y-50563754D01*
X27218987Y-50709853D01*
X27033038Y-50895802D01*
X26886939Y-51114456D01*
X26786304Y-51357410D01*
X26735000Y-51615329D01*
X21785000Y-51615329D01*
X21733696Y-51357410D01*
X21633061Y-51114456D01*
X21486962Y-50895802D01*
X21301013Y-50709853D01*
X21082359Y-50563754D01*
X20839405Y-50463119D01*
X20581486Y-50411815D01*
X20318514Y-50411815D01*
X20060595Y-50463119D01*
X19817641Y-50563754D01*
X19598987Y-50709853D01*
X19413038Y-50895802D01*
X19266939Y-51114456D01*
X19166304Y-51357410D01*
X19115000Y-51615329D01*
X18660000Y-51615329D01*
X18660000Y-32660000D01*
X22861928Y-32660000D01*
X22861928Y-33660000D01*
X22883796Y-33882027D01*
X22948559Y-34095521D01*
X23053728Y-34292279D01*
X23195262Y-34464738D01*
X23367721Y-34606272D01*
X23564479Y-34711441D01*
X23777973Y-34776204D01*
X24000000Y-34798072D01*
X25487150Y-34798072D01*
X25633970Y-35072752D01*
X25838287Y-35321714D01*
X26087249Y-35526031D01*
X26371286Y-35677852D01*
X26679485Y-35771343D01*
X27000000Y-35802911D01*
X27320516Y-35771343D01*
X27628715Y-35677852D01*
X27912752Y-35526031D01*
X28161714Y-35321714D01*
X28366031Y-35072752D01*
X28512851Y-34798072D01*
X30000000Y-34798072D01*
X30222027Y-34776204D01*
X30435521Y-34711441D01*
X30632279Y-34606272D01*
X30804738Y-34464738D01*
X30946272Y-34292279D01*
X31051441Y-34095521D01*
X31116204Y-33882027D01*
X31138072Y-33660000D01*
X31138072Y-32660000D01*
X31116204Y-32437973D01*
X31051441Y-32224479D01*
X30946272Y-32027721D01*
X30804738Y-31855262D01*
X30632279Y-31713728D01*
X30435521Y-31608559D01*
X30314095Y-31571725D01*
X29973927Y-31231557D01*
X30176301Y-30928684D01*
X30235266Y-30818369D01*
X30460323Y-30275033D01*
X30496633Y-30155335D01*
X30611366Y-29578532D01*
X30623626Y-29454051D01*
X30623626Y-28865949D01*
X30611366Y-28741468D01*
X30496633Y-28164665D01*
X30460323Y-28044967D01*
X30235266Y-27501631D01*
X30176301Y-27391316D01*
X29849568Y-26902326D01*
X29770216Y-26805635D01*
X29354365Y-26389784D01*
X29257674Y-26310432D01*
X28768684Y-25983699D01*
X28658369Y-25924734D01*
X28115033Y-25699677D01*
X27995335Y-25663367D01*
X27418532Y-25548634D01*
X27294051Y-25536374D01*
X26705949Y-25536374D01*
X26581468Y-25548634D01*
X26004665Y-25663367D01*
X25884967Y-25699677D01*
X25341631Y-25924734D01*
X25231316Y-25983699D01*
X24742326Y-26310432D01*
X24645635Y-26389784D01*
X24229784Y-26805635D01*
X24150432Y-26902326D01*
X23823699Y-27391316D01*
X23764734Y-27501631D01*
X23539677Y-28044967D01*
X23503367Y-28164665D01*
X23388634Y-28741468D01*
X23376374Y-28865949D01*
X23376374Y-29454051D01*
X23388634Y-29578532D01*
X23503367Y-30155335D01*
X23539677Y-30275033D01*
X23764734Y-30818369D01*
X23823699Y-30928684D01*
X24026073Y-31231557D01*
X23685905Y-31571725D01*
X23564479Y-31608559D01*
X23367721Y-31713728D01*
X23195262Y-31855262D01*
X23053728Y-32027721D01*
X22948559Y-32224479D01*
X22883796Y-32437973D01*
X22861928Y-32660000D01*
X18660000Y-32660000D01*
X18660000Y-30020747D01*
X18734944Y-28829551D01*
X18954698Y-27677556D01*
X19317100Y-26562199D01*
X19816441Y-25501045D01*
X20444836Y-24510854D01*
X21192383Y-23607224D01*
X22047292Y-22804412D01*
X22996079Y-22115078D01*
X24023774Y-21550097D01*
X25114186Y-21118373D01*
X26250103Y-20826719D01*
X27423941Y-20678429D01*
X28010358Y-20660000D01*
X44154253Y-20660000D01*
X44270122Y-66794810D01*
G37*
G04 #@! TD.AperFunction*
M02*
