G04 #@! TF.GenerationSoftware,KiCad,Pcbnew,(5.1.9)-1*
G04 #@! TF.CreationDate,2021-11-09T15:42:33+01:00*
G04 #@! TF.ProjectId,RelayControls-HPK,52656c61-7943-46f6-9e74-726f6c732d48,V0.1*
G04 #@! TF.SameCoordinates,Original*
G04 #@! TF.FileFunction,Legend,Top*
G04 #@! TF.FilePolarity,Positive*
%FSLAX46Y46*%
G04 Gerber Fmt 4.6, Leading zero omitted, Abs format (unit mm)*
G04 Created by KiCad (PCBNEW (5.1.9)-1) date 2021-11-09 15:42:33*
%MOMM*%
%LPD*%
G01*
G04 APERTURE LIST*
%ADD10C,0.200000*%
%ADD11C,0.120000*%
%ADD12C,0.150000*%
G04 APERTURE END LIST*
D10*
X46775000Y-170055000D02*
X47775000Y-170055000D01*
X72800000Y-170055000D02*
X73800000Y-170055000D01*
X106825000Y-170055000D02*
X107825000Y-170055000D01*
X52775000Y-170055000D02*
X53775000Y-170055000D01*
X56775000Y-170055000D02*
X57775000Y-170055000D01*
X62775000Y-170055000D02*
X63775000Y-170055000D01*
X63450000Y-150055000D02*
X63450000Y-160605000D01*
X50775000Y-170055000D02*
X51775000Y-170055000D01*
X58775000Y-170055000D02*
X59775000Y-170055000D01*
X33525000Y-165055000D02*
X41025000Y-175055000D01*
X37275000Y-165055000D02*
X37275000Y-150055000D01*
X94800000Y-170055000D02*
X95800000Y-170055000D01*
X54775000Y-170055000D02*
X55775000Y-170055000D01*
X63450000Y-160605000D02*
X63450000Y-165055000D01*
X100800000Y-170055000D02*
X101800000Y-170055000D01*
X86800000Y-170055000D02*
X87800000Y-170055000D01*
X82800000Y-170055000D02*
X83800000Y-170055000D01*
X70800000Y-170055000D02*
X71800000Y-170055000D01*
X152875000Y-170055000D02*
X153875000Y-170055000D01*
X108825000Y-170055000D02*
X109825000Y-170055000D01*
X92800000Y-170055000D02*
X93800000Y-170055000D01*
X50875000Y-150055000D02*
X50875000Y-160605000D01*
X84800000Y-170055000D02*
X85800000Y-170055000D01*
X98800000Y-170055000D02*
X99800000Y-170055000D01*
X48775000Y-170055000D02*
X49775000Y-170055000D01*
X64775000Y-170055000D02*
X65775000Y-170055000D01*
X50875000Y-160605000D02*
X50875000Y-165055000D01*
X60775000Y-170055000D02*
X61775000Y-170055000D01*
X88800000Y-170055000D02*
X89800000Y-170055000D01*
X158875000Y-169055000D02*
X159875000Y-169055000D01*
X68775000Y-170055000D02*
X69775000Y-170055000D01*
X116220000Y-175055000D02*
X109570000Y-163530000D01*
X120825000Y-170055000D02*
X121825000Y-170055000D01*
X132825000Y-170055000D02*
X133825000Y-170055000D01*
X128825000Y-170055000D02*
X129825000Y-170055000D01*
X37275000Y-175055000D02*
X37275000Y-190055000D01*
X136825000Y-170055000D02*
X137825000Y-170055000D01*
X156875000Y-170055000D02*
X157875000Y-170055000D01*
X107945000Y-150055000D02*
X107945000Y-160605000D01*
X29775000Y-175055000D02*
X29775000Y-165055000D01*
X126825000Y-170055000D02*
X127825000Y-170055000D01*
X116225000Y-190080000D02*
X116220000Y-175055000D01*
X90800000Y-170055000D02*
X91800000Y-170055000D01*
X144850000Y-170055000D02*
X145850000Y-170055000D01*
X148850000Y-170055000D02*
X149850000Y-170055000D01*
X50875000Y-165055000D02*
X55875000Y-165055000D01*
X107945000Y-165155000D02*
X112945000Y-165155000D01*
X134825000Y-170055000D02*
X135825000Y-170055000D01*
X118825000Y-170055000D02*
X119825000Y-170055000D01*
X44775000Y-165055000D02*
X44775000Y-175055000D01*
X107945000Y-160605000D02*
X107945000Y-165055000D01*
X116825000Y-170055000D02*
X117825000Y-170055000D01*
X120520000Y-160605000D02*
X120520000Y-165055000D01*
X122825000Y-170055000D02*
X123825000Y-170055000D01*
X120500000Y-150055000D02*
X120500000Y-160605000D01*
X154875000Y-170055000D02*
X155875000Y-170055000D01*
X59155000Y-190080000D02*
X59150000Y-175055000D01*
X66775000Y-170055000D02*
X67775000Y-170055000D01*
X96800000Y-170055000D02*
X97800000Y-170055000D01*
X136470000Y-150055000D02*
X136470000Y-160605000D01*
X58450000Y-165055000D02*
X63450000Y-165055000D01*
X142850000Y-170055000D02*
X143850000Y-170055000D01*
X146850000Y-170055000D02*
X147850000Y-170055000D01*
X59150000Y-175055000D02*
X52500000Y-163530000D01*
X115520000Y-165155000D02*
X120520000Y-165155000D01*
X44775000Y-165055000D02*
X29775000Y-165055000D01*
X130825000Y-170055000D02*
X131825000Y-170055000D01*
X79400000Y-165055000D02*
X84400000Y-165055000D01*
X136470000Y-160605000D02*
X136470000Y-165055000D01*
X149045000Y-160605000D02*
X149045000Y-165055000D01*
X144745000Y-175055000D02*
X138095000Y-163530000D01*
X78800000Y-170055000D02*
X79800000Y-170055000D01*
X74800000Y-170055000D02*
X75800000Y-170055000D01*
X149045000Y-150055000D02*
X149045000Y-160605000D01*
X144045000Y-165155000D02*
X149045000Y-165155000D01*
X138825000Y-170055000D02*
X139825000Y-170055000D01*
X150850000Y-170055000D02*
X151850000Y-170055000D01*
X104800000Y-170055000D02*
X105800000Y-170055000D01*
X112825000Y-170055000D02*
X113825000Y-170055000D01*
X87680000Y-189980000D02*
X87675000Y-174955000D01*
X114825000Y-170055000D02*
X115825000Y-170055000D01*
X102800000Y-170055000D02*
X103800000Y-170055000D01*
X110825000Y-170055000D02*
X111825000Y-170055000D01*
X79400000Y-160505000D02*
X79400000Y-164955000D01*
X91975000Y-149955000D02*
X91975000Y-160505000D01*
X86975000Y-165055000D02*
X91975000Y-165055000D01*
X44775000Y-170055000D02*
X45775000Y-170055000D01*
X144750000Y-190080000D02*
X144745000Y-175055000D01*
X136470000Y-165155000D02*
X141470000Y-165155000D01*
X124825000Y-170055000D02*
X125825000Y-170055000D01*
X140825000Y-170055000D02*
X141825000Y-170055000D01*
X87675000Y-174955000D02*
X81025000Y-163430000D01*
X80800000Y-170055000D02*
X81800000Y-170055000D01*
X79400000Y-149955000D02*
X79400000Y-160505000D01*
X76800000Y-170055000D02*
X77800000Y-170055000D01*
X29775000Y-175055000D02*
X44775000Y-175055000D01*
X91975000Y-160505000D02*
X91975000Y-164955000D01*
X152900000Y-114675000D02*
X153900000Y-114675000D01*
X108850000Y-114675000D02*
X109850000Y-114675000D01*
X63475000Y-105225000D02*
X63475000Y-109675000D01*
X63475000Y-94675000D02*
X63475000Y-105225000D01*
X50900000Y-105225000D02*
X50900000Y-109675000D01*
X50900000Y-94675000D02*
X50900000Y-105225000D01*
X72825000Y-114675000D02*
X73825000Y-114675000D01*
X70825000Y-114675000D02*
X71825000Y-114675000D01*
X50800000Y-114675000D02*
X51800000Y-114675000D01*
X46800000Y-114675000D02*
X47800000Y-114675000D01*
X48800000Y-114675000D02*
X49800000Y-114675000D01*
X64800000Y-114675000D02*
X65800000Y-114675000D01*
X60800000Y-114675000D02*
X61800000Y-114675000D01*
X58800000Y-114675000D02*
X59800000Y-114675000D01*
X56800000Y-114675000D02*
X57800000Y-114675000D01*
X62800000Y-114675000D02*
X63800000Y-114675000D01*
X54800000Y-114675000D02*
X55800000Y-114675000D01*
X52800000Y-114675000D02*
X53800000Y-114675000D01*
X33550000Y-109675000D02*
X41050000Y-119675000D01*
X37300000Y-109675000D02*
X37300000Y-94675000D01*
X106850000Y-114675000D02*
X107850000Y-114675000D01*
X94825000Y-114675000D02*
X95825000Y-114675000D01*
X86825000Y-114675000D02*
X87825000Y-114675000D01*
X82825000Y-114675000D02*
X83825000Y-114675000D01*
X84825000Y-114675000D02*
X85825000Y-114675000D01*
X100825000Y-114675000D02*
X101825000Y-114675000D01*
X98825000Y-114675000D02*
X99825000Y-114675000D01*
X88825000Y-114675000D02*
X89825000Y-114675000D01*
X92825000Y-114675000D02*
X93825000Y-114675000D01*
X96825000Y-114675000D02*
X97825000Y-114675000D01*
X90825000Y-114675000D02*
X91825000Y-114675000D01*
X58475000Y-109675000D02*
X63475000Y-109675000D01*
X50900000Y-109675000D02*
X55900000Y-109675000D01*
X142875000Y-114675000D02*
X143875000Y-114675000D01*
X146875000Y-114675000D02*
X147875000Y-114675000D01*
X122850000Y-114675000D02*
X123850000Y-114675000D01*
X144875000Y-114675000D02*
X145875000Y-114675000D01*
X118850000Y-114675000D02*
X119850000Y-114675000D01*
X132850000Y-114675000D02*
X133850000Y-114675000D01*
X136850000Y-114675000D02*
X137850000Y-114675000D01*
X154900000Y-114675000D02*
X155900000Y-114675000D01*
X130850000Y-114675000D02*
X131850000Y-114675000D01*
X120850000Y-114675000D02*
X121850000Y-114675000D01*
X158900000Y-113675000D02*
X159900000Y-113675000D01*
X156900000Y-114675000D02*
X157900000Y-114675000D01*
X116850000Y-114675000D02*
X117850000Y-114675000D01*
X148875000Y-114675000D02*
X149875000Y-114675000D01*
X128850000Y-114675000D02*
X129850000Y-114675000D01*
X134850000Y-114675000D02*
X135850000Y-114675000D01*
X126850000Y-114675000D02*
X127850000Y-114675000D01*
X107970000Y-105225000D02*
X107970000Y-109675000D01*
X120545000Y-105225000D02*
X120545000Y-109675000D01*
X115545000Y-109775000D02*
X120545000Y-109775000D01*
X120525000Y-94675000D02*
X120525000Y-105225000D01*
X107970000Y-94675000D02*
X107970000Y-105225000D01*
X107970000Y-109775000D02*
X112970000Y-109775000D01*
X116245000Y-119675000D02*
X109595000Y-108150000D01*
X116250000Y-134700000D02*
X116245000Y-119675000D01*
X59175000Y-119675000D02*
X52525000Y-108150000D01*
X59180000Y-134700000D02*
X59175000Y-119675000D01*
X68800000Y-114675000D02*
X69800000Y-114675000D01*
X66800000Y-114675000D02*
X67800000Y-114675000D01*
X37300000Y-119675000D02*
X37300000Y-134675000D01*
X44800000Y-109675000D02*
X29800000Y-109675000D01*
X44800000Y-109675000D02*
X44800000Y-119675000D01*
X29800000Y-119675000D02*
X29800000Y-109675000D01*
X136495000Y-94675000D02*
X136495000Y-105225000D01*
X149070000Y-105225000D02*
X149070000Y-109675000D01*
X149070000Y-94675000D02*
X149070000Y-105225000D01*
X144775000Y-134700000D02*
X144770000Y-119675000D01*
X136495000Y-105225000D02*
X136495000Y-109675000D01*
X136495000Y-109775000D02*
X141495000Y-109775000D01*
X144770000Y-119675000D02*
X138120000Y-108150000D01*
X144070000Y-109775000D02*
X149070000Y-109775000D01*
X29800000Y-119675000D02*
X44800000Y-119675000D01*
X138850000Y-114675000D02*
X139850000Y-114675000D01*
X124850000Y-114675000D02*
X125850000Y-114675000D01*
X140850000Y-114675000D02*
X141850000Y-114675000D01*
X150875000Y-114675000D02*
X151875000Y-114675000D01*
X80825000Y-114675000D02*
X81825000Y-114675000D01*
X104825000Y-114675000D02*
X105825000Y-114675000D01*
X102825000Y-114675000D02*
X103825000Y-114675000D01*
X110850000Y-114675000D02*
X111850000Y-114675000D01*
X112850000Y-114675000D02*
X113850000Y-114675000D01*
X114850000Y-114675000D02*
X115850000Y-114675000D01*
X79425000Y-109675000D02*
X84425000Y-109675000D01*
X87700000Y-119575000D02*
X81050000Y-108050000D01*
X87000000Y-109675000D02*
X92000000Y-109675000D01*
X87697500Y-134600000D02*
X87692500Y-119575000D01*
X92000000Y-105125000D02*
X92000000Y-109575000D01*
X92000000Y-94575000D02*
X92000000Y-105125000D01*
X79425000Y-105125000D02*
X79425000Y-109575000D01*
X79425000Y-94575000D02*
X79425000Y-105125000D01*
X44800000Y-114675000D02*
X45800000Y-114675000D01*
X74825000Y-114675000D02*
X75825000Y-114675000D01*
X76825000Y-114675000D02*
X77825000Y-114675000D01*
X78825000Y-114675000D02*
X79825000Y-114675000D01*
X140850000Y-59350000D02*
X141850000Y-59350000D01*
X150875000Y-59350000D02*
X151875000Y-59350000D01*
X124850000Y-59350000D02*
X125850000Y-59350000D01*
X138850000Y-59350000D02*
X139850000Y-59350000D01*
X116850000Y-59350000D02*
X117850000Y-59350000D01*
X148875000Y-59350000D02*
X149875000Y-59350000D01*
X128850000Y-59350000D02*
X129850000Y-59350000D01*
X134850000Y-59350000D02*
X135850000Y-59350000D01*
X126850000Y-59350000D02*
X127850000Y-59350000D01*
X146875000Y-59350000D02*
X147875000Y-59350000D01*
X144875000Y-59350000D02*
X145875000Y-59350000D01*
X118850000Y-59350000D02*
X119850000Y-59350000D01*
X132850000Y-59350000D02*
X133850000Y-59350000D01*
X136850000Y-59350000D02*
X137850000Y-59350000D01*
X122850000Y-59350000D02*
X123850000Y-59350000D01*
X130850000Y-59350000D02*
X131850000Y-59350000D01*
X142875000Y-59350000D02*
X143875000Y-59350000D01*
X120850000Y-59350000D02*
X121850000Y-59350000D01*
X158900000Y-58350000D02*
X159900000Y-58350000D01*
X154900000Y-59350000D02*
X155900000Y-59350000D01*
X156900000Y-59350000D02*
X157900000Y-59350000D01*
X152900000Y-59350000D02*
X153900000Y-59350000D01*
X108850000Y-59350000D02*
X109850000Y-59350000D01*
X106850000Y-59350000D02*
X107850000Y-59350000D01*
X86825000Y-59350000D02*
X87825000Y-59350000D01*
X82825000Y-59350000D02*
X83825000Y-59350000D01*
X84825000Y-59350000D02*
X85825000Y-59350000D01*
X100825000Y-59350000D02*
X101825000Y-59350000D01*
X96825000Y-59350000D02*
X97825000Y-59350000D01*
X94825000Y-59350000D02*
X95825000Y-59350000D01*
X92825000Y-59350000D02*
X93825000Y-59350000D01*
X98825000Y-59350000D02*
X99825000Y-59350000D01*
X90825000Y-59350000D02*
X91825000Y-59350000D01*
X88825000Y-59350000D02*
X89825000Y-59350000D01*
X104825000Y-59350000D02*
X105825000Y-59350000D01*
X102825000Y-59350000D02*
X103825000Y-59350000D01*
X80825000Y-59350000D02*
X81825000Y-59350000D01*
X110850000Y-59350000D02*
X111850000Y-59350000D01*
X112850000Y-59350000D02*
X113850000Y-59350000D01*
X114850000Y-59350000D02*
X115850000Y-59350000D01*
X78825000Y-59350000D02*
X79825000Y-59350000D01*
X76825000Y-59350000D02*
X77825000Y-59350000D01*
X74825000Y-59350000D02*
X75825000Y-59350000D01*
X72825000Y-59350000D02*
X73825000Y-59350000D01*
X70825000Y-59350000D02*
X71825000Y-59350000D01*
X68800000Y-59350000D02*
X69800000Y-59350000D01*
X66800000Y-59350000D02*
X67800000Y-59350000D01*
X64800000Y-59350000D02*
X65800000Y-59350000D01*
X62800000Y-59350000D02*
X63800000Y-59350000D01*
X60800000Y-59350000D02*
X61800000Y-59350000D01*
X58800000Y-59350000D02*
X59800000Y-59350000D01*
X56800000Y-59350000D02*
X57800000Y-59350000D01*
X54800000Y-59350000D02*
X55800000Y-59350000D01*
X52800000Y-59350000D02*
X53800000Y-59350000D01*
X50800000Y-59350000D02*
X51800000Y-59350000D01*
X48800000Y-59350000D02*
X49800000Y-59350000D01*
X46800000Y-59350000D02*
X47800000Y-59350000D01*
X44800000Y-59350000D02*
X45800000Y-59350000D01*
X136495000Y-49900000D02*
X136495000Y-54350000D01*
X149070000Y-49900000D02*
X149070000Y-54350000D01*
X144070000Y-54450000D02*
X149070000Y-54450000D01*
X149070000Y-39350000D02*
X149070000Y-49900000D01*
X136495000Y-39350000D02*
X136495000Y-49900000D01*
X136495000Y-54450000D02*
X141495000Y-54450000D01*
X144770000Y-64350000D02*
X138120000Y-52825000D01*
X144775000Y-79375000D02*
X144770000Y-64350000D01*
X107970000Y-54450000D02*
X112970000Y-54450000D01*
X116245000Y-64350000D02*
X109595000Y-52825000D01*
X115545000Y-54450000D02*
X120545000Y-54450000D01*
X116250000Y-79375000D02*
X116245000Y-64350000D01*
X120545000Y-49900000D02*
X120545000Y-54350000D01*
X120525000Y-39350000D02*
X120525000Y-49900000D01*
X107970000Y-49900000D02*
X107970000Y-54350000D01*
X107970000Y-39350000D02*
X107970000Y-49900000D01*
X92000000Y-49800000D02*
X92000000Y-54250000D01*
X92000000Y-39250000D02*
X92000000Y-49800000D01*
X79425000Y-49800000D02*
X79425000Y-54250000D01*
X79425000Y-39250000D02*
X79425000Y-49800000D01*
X87000000Y-54350000D02*
X92000000Y-54350000D01*
X79425000Y-54350000D02*
X84425000Y-54350000D01*
X87700000Y-64250000D02*
X81050000Y-52725000D01*
X87705000Y-79275000D02*
X87700000Y-64250000D01*
X59175000Y-64350000D02*
X52525000Y-52825000D01*
X59180000Y-79375000D02*
X59175000Y-64350000D01*
X58475000Y-54350000D02*
X63475000Y-54350000D01*
X50900000Y-54350000D02*
X55900000Y-54350000D01*
X63475000Y-49900000D02*
X63475000Y-54350000D01*
X63475000Y-39350000D02*
X63475000Y-49900000D01*
X50900000Y-49900000D02*
X50900000Y-54350000D01*
X50900000Y-39350000D02*
X50900000Y-49900000D01*
X37300000Y-64350000D02*
X37300000Y-79350000D01*
X37290000Y-54350000D02*
X37290000Y-39350000D01*
X33550000Y-54350000D02*
X41050000Y-64350000D01*
X29800000Y-64350000D02*
X29800000Y-54350000D01*
X44800000Y-54350000D02*
X29800000Y-54350000D01*
X44800000Y-54350000D02*
X44800000Y-64350000D01*
X29800000Y-64350000D02*
X44800000Y-64350000D01*
D11*
X38616371Y-60464315D02*
G75*
G03*
X38616371Y-60464315I-1326371J0D01*
G01*
X37290000Y-59137944D02*
X37290000Y-59024315D01*
X38626371Y-115789315D02*
G75*
G03*
X38626371Y-115789315I-1326371J0D01*
G01*
X37300000Y-114462944D02*
X37300000Y-114349315D01*
X37275000Y-169842944D02*
X37275000Y-169729315D01*
X38601371Y-171169315D02*
G75*
G03*
X38601371Y-171169315I-1326371J0D01*
G01*
X34630000Y-60113879D02*
X34630000Y-58659751D01*
X32810000Y-60113879D02*
X32810000Y-58659751D01*
X32810000Y-115438879D02*
X32810000Y-113984751D01*
X34630000Y-115438879D02*
X34630000Y-113984751D01*
X32810000Y-170818879D02*
X32810000Y-169364751D01*
X34630000Y-170818879D02*
X34630000Y-169364751D01*
D12*
X134776666Y-66352380D02*
X134443333Y-65876190D01*
X134205238Y-66352380D02*
X134205238Y-65352380D01*
X134586190Y-65352380D01*
X134681428Y-65400000D01*
X134729047Y-65447619D01*
X134776666Y-65542857D01*
X134776666Y-65685714D01*
X134729047Y-65780952D01*
X134681428Y-65828571D01*
X134586190Y-65876190D01*
X134205238Y-65876190D01*
X135205238Y-65828571D02*
X135538571Y-65828571D01*
X135681428Y-66352380D02*
X135205238Y-66352380D01*
X135205238Y-65352380D01*
X135681428Y-65352380D01*
X136443333Y-65828571D02*
X136110000Y-65828571D01*
X136110000Y-66352380D02*
X136110000Y-65352380D01*
X136586190Y-65352380D01*
X137110000Y-65352380D02*
X137110000Y-65590476D01*
X136871904Y-65495238D02*
X137110000Y-65590476D01*
X137348095Y-65495238D01*
X136967142Y-65780952D02*
X137110000Y-65590476D01*
X137252857Y-65780952D01*
X137871904Y-65352380D02*
X137871904Y-65590476D01*
X137633809Y-65495238D02*
X137871904Y-65590476D01*
X138110000Y-65495238D01*
X137729047Y-65780952D02*
X137871904Y-65590476D01*
X138014761Y-65780952D01*
X44786666Y-66342380D02*
X44453333Y-65866190D01*
X44215238Y-66342380D02*
X44215238Y-65342380D01*
X44596190Y-65342380D01*
X44691428Y-65390000D01*
X44739047Y-65437619D01*
X44786666Y-65532857D01*
X44786666Y-65675714D01*
X44739047Y-65770952D01*
X44691428Y-65818571D01*
X44596190Y-65866190D01*
X44215238Y-65866190D01*
X45215238Y-65818571D02*
X45548571Y-65818571D01*
X45691428Y-66342380D02*
X45215238Y-66342380D01*
X45215238Y-65342380D01*
X45691428Y-65342380D01*
X46453333Y-65818571D02*
X46120000Y-65818571D01*
X46120000Y-66342380D02*
X46120000Y-65342380D01*
X46596190Y-65342380D01*
X47120000Y-65342380D02*
X47120000Y-65580476D01*
X46881904Y-65485238D02*
X47120000Y-65580476D01*
X47358095Y-65485238D01*
X46977142Y-65770952D02*
X47120000Y-65580476D01*
X47262857Y-65770952D01*
X47881904Y-65342380D02*
X47881904Y-65580476D01*
X47643809Y-65485238D02*
X47881904Y-65580476D01*
X48120000Y-65485238D01*
X47739047Y-65770952D02*
X47881904Y-65580476D01*
X48024761Y-65770952D01*
X44786666Y-156342380D02*
X44453333Y-155866190D01*
X44215238Y-156342380D02*
X44215238Y-155342380D01*
X44596190Y-155342380D01*
X44691428Y-155390000D01*
X44739047Y-155437619D01*
X44786666Y-155532857D01*
X44786666Y-155675714D01*
X44739047Y-155770952D01*
X44691428Y-155818571D01*
X44596190Y-155866190D01*
X44215238Y-155866190D01*
X45215238Y-155818571D02*
X45548571Y-155818571D01*
X45691428Y-156342380D02*
X45215238Y-156342380D01*
X45215238Y-155342380D01*
X45691428Y-155342380D01*
X46453333Y-155818571D02*
X46120000Y-155818571D01*
X46120000Y-156342380D02*
X46120000Y-155342380D01*
X46596190Y-155342380D01*
X47120000Y-155342380D02*
X47120000Y-155580476D01*
X46881904Y-155485238D02*
X47120000Y-155580476D01*
X47358095Y-155485238D01*
X46977142Y-155770952D02*
X47120000Y-155580476D01*
X47262857Y-155770952D01*
X47881904Y-155342380D02*
X47881904Y-155580476D01*
X47643809Y-155485238D02*
X47881904Y-155580476D01*
X48120000Y-155485238D01*
X47739047Y-155770952D02*
X47881904Y-155580476D01*
X48024761Y-155770952D01*
X134776666Y-156352380D02*
X134443333Y-155876190D01*
X134205238Y-156352380D02*
X134205238Y-155352380D01*
X134586190Y-155352380D01*
X134681428Y-155400000D01*
X134729047Y-155447619D01*
X134776666Y-155542857D01*
X134776666Y-155685714D01*
X134729047Y-155780952D01*
X134681428Y-155828571D01*
X134586190Y-155876190D01*
X134205238Y-155876190D01*
X135205238Y-155828571D02*
X135538571Y-155828571D01*
X135681428Y-156352380D02*
X135205238Y-156352380D01*
X135205238Y-155352380D01*
X135681428Y-155352380D01*
X136443333Y-155828571D02*
X136110000Y-155828571D01*
X136110000Y-156352380D02*
X136110000Y-155352380D01*
X136586190Y-155352380D01*
X137110000Y-155352380D02*
X137110000Y-155590476D01*
X136871904Y-155495238D02*
X137110000Y-155590476D01*
X137348095Y-155495238D01*
X136967142Y-155780952D02*
X137110000Y-155590476D01*
X137252857Y-155780952D01*
X137871904Y-155352380D02*
X137871904Y-155590476D01*
X137633809Y-155495238D02*
X137871904Y-155590476D01*
X138110000Y-155495238D01*
X137729047Y-155780952D02*
X137871904Y-155590476D01*
X138014761Y-155780952D01*
X38518095Y-184628571D02*
X38660952Y-184676190D01*
X38708571Y-184723809D01*
X38756190Y-184819047D01*
X38756190Y-184961904D01*
X38708571Y-185057142D01*
X38660952Y-185104761D01*
X38565714Y-185152380D01*
X38184761Y-185152380D01*
X38184761Y-184152380D01*
X38518095Y-184152380D01*
X38613333Y-184200000D01*
X38660952Y-184247619D01*
X38708571Y-184342857D01*
X38708571Y-184438095D01*
X38660952Y-184533333D01*
X38613333Y-184580952D01*
X38518095Y-184628571D01*
X38184761Y-184628571D01*
X39660952Y-185152380D02*
X39184761Y-185152380D01*
X39184761Y-184152380D01*
X39946666Y-184866666D02*
X40422857Y-184866666D01*
X39851428Y-185152380D02*
X40184761Y-184152380D01*
X40518095Y-185152380D01*
X41422857Y-185057142D02*
X41375238Y-185104761D01*
X41232380Y-185152380D01*
X41137142Y-185152380D01*
X40994285Y-185104761D01*
X40899047Y-185009523D01*
X40851428Y-184914285D01*
X40803809Y-184723809D01*
X40803809Y-184580952D01*
X40851428Y-184390476D01*
X40899047Y-184295238D01*
X40994285Y-184200000D01*
X41137142Y-184152380D01*
X41232380Y-184152380D01*
X41375238Y-184200000D01*
X41422857Y-184247619D01*
X41851428Y-185152380D02*
X41851428Y-184152380D01*
X42422857Y-185152380D02*
X41994285Y-184580952D01*
X42422857Y-184152380D02*
X41851428Y-184723809D01*
X26357142Y-25132380D02*
X26023809Y-24656190D01*
X25785714Y-25132380D02*
X25785714Y-24132380D01*
X26166666Y-24132380D01*
X26261904Y-24180000D01*
X26309523Y-24227619D01*
X26357142Y-24322857D01*
X26357142Y-24465714D01*
X26309523Y-24560952D01*
X26261904Y-24608571D01*
X26166666Y-24656190D01*
X25785714Y-24656190D01*
X26785714Y-24608571D02*
X27119047Y-24608571D01*
X27261904Y-25132380D02*
X26785714Y-25132380D01*
X26785714Y-24132380D01*
X27261904Y-24132380D01*
X27690476Y-25132380D02*
X27690476Y-24132380D01*
X27928571Y-24132380D01*
X28071428Y-24180000D01*
X28166666Y-24275238D01*
X28214285Y-24370476D01*
X28261904Y-24560952D01*
X28261904Y-24703809D01*
X28214285Y-24894285D01*
X28166666Y-24989523D01*
X28071428Y-25084761D01*
X27928571Y-25132380D01*
X27690476Y-25132380D01*
X25118095Y-194688571D02*
X25260952Y-194736190D01*
X25308571Y-194783809D01*
X25356190Y-194879047D01*
X25356190Y-195021904D01*
X25308571Y-195117142D01*
X25260952Y-195164761D01*
X25165714Y-195212380D01*
X24784761Y-195212380D01*
X24784761Y-194212380D01*
X25118095Y-194212380D01*
X25213333Y-194260000D01*
X25260952Y-194307619D01*
X25308571Y-194402857D01*
X25308571Y-194498095D01*
X25260952Y-194593333D01*
X25213333Y-194640952D01*
X25118095Y-194688571D01*
X24784761Y-194688571D01*
X26260952Y-195212380D02*
X25784761Y-195212380D01*
X25784761Y-194212380D01*
X26546666Y-194926666D02*
X27022857Y-194926666D01*
X26451428Y-195212380D02*
X26784761Y-194212380D01*
X27118095Y-195212380D01*
X28022857Y-195117142D02*
X27975238Y-195164761D01*
X27832380Y-195212380D01*
X27737142Y-195212380D01*
X27594285Y-195164761D01*
X27499047Y-195069523D01*
X27451428Y-194974285D01*
X27403809Y-194783809D01*
X27403809Y-194640952D01*
X27451428Y-194450476D01*
X27499047Y-194355238D01*
X27594285Y-194260000D01*
X27737142Y-194212380D01*
X27832380Y-194212380D01*
X27975238Y-194260000D01*
X28022857Y-194307619D01*
X28451428Y-195212380D02*
X28451428Y-194212380D01*
X29022857Y-195212380D02*
X28594285Y-194640952D01*
X29022857Y-194212380D02*
X28451428Y-194783809D01*
X39288095Y-73988571D02*
X39430952Y-74036190D01*
X39478571Y-74083809D01*
X39526190Y-74179047D01*
X39526190Y-74321904D01*
X39478571Y-74417142D01*
X39430952Y-74464761D01*
X39335714Y-74512380D01*
X38954761Y-74512380D01*
X38954761Y-73512380D01*
X39288095Y-73512380D01*
X39383333Y-73560000D01*
X39430952Y-73607619D01*
X39478571Y-73702857D01*
X39478571Y-73798095D01*
X39430952Y-73893333D01*
X39383333Y-73940952D01*
X39288095Y-73988571D01*
X38954761Y-73988571D01*
X40430952Y-74512380D02*
X39954761Y-74512380D01*
X39954761Y-73512380D01*
X40716666Y-74226666D02*
X41192857Y-74226666D01*
X40621428Y-74512380D02*
X40954761Y-73512380D01*
X41288095Y-74512380D01*
X42192857Y-74417142D02*
X42145238Y-74464761D01*
X42002380Y-74512380D01*
X41907142Y-74512380D01*
X41764285Y-74464761D01*
X41669047Y-74369523D01*
X41621428Y-74274285D01*
X41573809Y-74083809D01*
X41573809Y-73940952D01*
X41621428Y-73750476D01*
X41669047Y-73655238D01*
X41764285Y-73560000D01*
X41907142Y-73512380D01*
X42002380Y-73512380D01*
X42145238Y-73560000D01*
X42192857Y-73607619D01*
X42621428Y-74512380D02*
X42621428Y-73512380D01*
X43192857Y-74512380D02*
X42764285Y-73940952D01*
X43192857Y-73512380D02*
X42621428Y-74083809D01*
X61300595Y-73988571D02*
X61443452Y-74036190D01*
X61491071Y-74083809D01*
X61538690Y-74179047D01*
X61538690Y-74321904D01*
X61491071Y-74417142D01*
X61443452Y-74464761D01*
X61348214Y-74512380D01*
X60967261Y-74512380D01*
X60967261Y-73512380D01*
X61300595Y-73512380D01*
X61395833Y-73560000D01*
X61443452Y-73607619D01*
X61491071Y-73702857D01*
X61491071Y-73798095D01*
X61443452Y-73893333D01*
X61395833Y-73940952D01*
X61300595Y-73988571D01*
X60967261Y-73988571D01*
X62443452Y-74512380D02*
X61967261Y-74512380D01*
X61967261Y-73512380D01*
X62729166Y-74226666D02*
X63205357Y-74226666D01*
X62633928Y-74512380D02*
X62967261Y-73512380D01*
X63300595Y-74512380D01*
X64205357Y-74417142D02*
X64157738Y-74464761D01*
X64014880Y-74512380D01*
X63919642Y-74512380D01*
X63776785Y-74464761D01*
X63681547Y-74369523D01*
X63633928Y-74274285D01*
X63586309Y-74083809D01*
X63586309Y-73940952D01*
X63633928Y-73750476D01*
X63681547Y-73655238D01*
X63776785Y-73560000D01*
X63919642Y-73512380D01*
X64014880Y-73512380D01*
X64157738Y-73560000D01*
X64205357Y-73607619D01*
X64633928Y-74512380D02*
X64633928Y-73512380D01*
X65205357Y-74512380D02*
X64776785Y-73940952D01*
X65205357Y-73512380D02*
X64633928Y-74083809D01*
X118370595Y-73988571D02*
X118513452Y-74036190D01*
X118561071Y-74083809D01*
X118608690Y-74179047D01*
X118608690Y-74321904D01*
X118561071Y-74417142D01*
X118513452Y-74464761D01*
X118418214Y-74512380D01*
X118037261Y-74512380D01*
X118037261Y-73512380D01*
X118370595Y-73512380D01*
X118465833Y-73560000D01*
X118513452Y-73607619D01*
X118561071Y-73702857D01*
X118561071Y-73798095D01*
X118513452Y-73893333D01*
X118465833Y-73940952D01*
X118370595Y-73988571D01*
X118037261Y-73988571D01*
X119513452Y-74512380D02*
X119037261Y-74512380D01*
X119037261Y-73512380D01*
X119799166Y-74226666D02*
X120275357Y-74226666D01*
X119703928Y-74512380D02*
X120037261Y-73512380D01*
X120370595Y-74512380D01*
X121275357Y-74417142D02*
X121227738Y-74464761D01*
X121084880Y-74512380D01*
X120989642Y-74512380D01*
X120846785Y-74464761D01*
X120751547Y-74369523D01*
X120703928Y-74274285D01*
X120656309Y-74083809D01*
X120656309Y-73940952D01*
X120703928Y-73750476D01*
X120751547Y-73655238D01*
X120846785Y-73560000D01*
X120989642Y-73512380D01*
X121084880Y-73512380D01*
X121227738Y-73560000D01*
X121275357Y-73607619D01*
X121703928Y-74512380D02*
X121703928Y-73512380D01*
X122275357Y-74512380D02*
X121846785Y-73940952D01*
X122275357Y-73512380D02*
X121703928Y-74083809D01*
X89825595Y-73988571D02*
X89968452Y-74036190D01*
X90016071Y-74083809D01*
X90063690Y-74179047D01*
X90063690Y-74321904D01*
X90016071Y-74417142D01*
X89968452Y-74464761D01*
X89873214Y-74512380D01*
X89492261Y-74512380D01*
X89492261Y-73512380D01*
X89825595Y-73512380D01*
X89920833Y-73560000D01*
X89968452Y-73607619D01*
X90016071Y-73702857D01*
X90016071Y-73798095D01*
X89968452Y-73893333D01*
X89920833Y-73940952D01*
X89825595Y-73988571D01*
X89492261Y-73988571D01*
X90968452Y-74512380D02*
X90492261Y-74512380D01*
X90492261Y-73512380D01*
X91254166Y-74226666D02*
X91730357Y-74226666D01*
X91158928Y-74512380D02*
X91492261Y-73512380D01*
X91825595Y-74512380D01*
X92730357Y-74417142D02*
X92682738Y-74464761D01*
X92539880Y-74512380D01*
X92444642Y-74512380D01*
X92301785Y-74464761D01*
X92206547Y-74369523D01*
X92158928Y-74274285D01*
X92111309Y-74083809D01*
X92111309Y-73940952D01*
X92158928Y-73750476D01*
X92206547Y-73655238D01*
X92301785Y-73560000D01*
X92444642Y-73512380D01*
X92539880Y-73512380D01*
X92682738Y-73560000D01*
X92730357Y-73607619D01*
X93158928Y-74512380D02*
X93158928Y-73512380D01*
X93730357Y-74512380D02*
X93301785Y-73940952D01*
X93730357Y-73512380D02*
X93158928Y-74083809D01*
X146895595Y-73988571D02*
X147038452Y-74036190D01*
X147086071Y-74083809D01*
X147133690Y-74179047D01*
X147133690Y-74321904D01*
X147086071Y-74417142D01*
X147038452Y-74464761D01*
X146943214Y-74512380D01*
X146562261Y-74512380D01*
X146562261Y-73512380D01*
X146895595Y-73512380D01*
X146990833Y-73560000D01*
X147038452Y-73607619D01*
X147086071Y-73702857D01*
X147086071Y-73798095D01*
X147038452Y-73893333D01*
X146990833Y-73940952D01*
X146895595Y-73988571D01*
X146562261Y-73988571D01*
X148038452Y-74512380D02*
X147562261Y-74512380D01*
X147562261Y-73512380D01*
X148324166Y-74226666D02*
X148800357Y-74226666D01*
X148228928Y-74512380D02*
X148562261Y-73512380D01*
X148895595Y-74512380D01*
X149800357Y-74417142D02*
X149752738Y-74464761D01*
X149609880Y-74512380D01*
X149514642Y-74512380D01*
X149371785Y-74464761D01*
X149276547Y-74369523D01*
X149228928Y-74274285D01*
X149181309Y-74083809D01*
X149181309Y-73940952D01*
X149228928Y-73750476D01*
X149276547Y-73655238D01*
X149371785Y-73560000D01*
X149514642Y-73512380D01*
X149609880Y-73512380D01*
X149752738Y-73560000D01*
X149800357Y-73607619D01*
X150228928Y-74512380D02*
X150228928Y-73512380D01*
X150800357Y-74512380D02*
X150371785Y-73940952D01*
X150800357Y-73512380D02*
X150228928Y-74083809D01*
X36557142Y-35202380D02*
X36223809Y-34726190D01*
X35985714Y-35202380D02*
X35985714Y-34202380D01*
X36366666Y-34202380D01*
X36461904Y-34250000D01*
X36509523Y-34297619D01*
X36557142Y-34392857D01*
X36557142Y-34535714D01*
X36509523Y-34630952D01*
X36461904Y-34678571D01*
X36366666Y-34726190D01*
X35985714Y-34726190D01*
X36985714Y-34678571D02*
X37319047Y-34678571D01*
X37461904Y-35202380D02*
X36985714Y-35202380D01*
X36985714Y-34202380D01*
X37461904Y-34202380D01*
X37890476Y-35202380D02*
X37890476Y-34202380D01*
X38128571Y-34202380D01*
X38271428Y-34250000D01*
X38366666Y-34345238D01*
X38414285Y-34440476D01*
X38461904Y-34630952D01*
X38461904Y-34773809D01*
X38414285Y-34964285D01*
X38366666Y-35059523D01*
X38271428Y-35154761D01*
X38128571Y-35202380D01*
X37890476Y-35202380D01*
X61713095Y-34798571D02*
X61855952Y-34846190D01*
X61903571Y-34893809D01*
X61951190Y-34989047D01*
X61951190Y-35131904D01*
X61903571Y-35227142D01*
X61855952Y-35274761D01*
X61760714Y-35322380D01*
X61379761Y-35322380D01*
X61379761Y-34322380D01*
X61713095Y-34322380D01*
X61808333Y-34370000D01*
X61855952Y-34417619D01*
X61903571Y-34512857D01*
X61903571Y-34608095D01*
X61855952Y-34703333D01*
X61808333Y-34750952D01*
X61713095Y-34798571D01*
X61379761Y-34798571D01*
X62855952Y-35322380D02*
X62379761Y-35322380D01*
X62379761Y-34322380D01*
X63141666Y-35036666D02*
X63617857Y-35036666D01*
X63046428Y-35322380D02*
X63379761Y-34322380D01*
X63713095Y-35322380D01*
X64617857Y-35227142D02*
X64570238Y-35274761D01*
X64427380Y-35322380D01*
X64332142Y-35322380D01*
X64189285Y-35274761D01*
X64094047Y-35179523D01*
X64046428Y-35084285D01*
X63998809Y-34893809D01*
X63998809Y-34750952D01*
X64046428Y-34560476D01*
X64094047Y-34465238D01*
X64189285Y-34370000D01*
X64332142Y-34322380D01*
X64427380Y-34322380D01*
X64570238Y-34370000D01*
X64617857Y-34417619D01*
X65046428Y-35322380D02*
X65046428Y-34322380D01*
X65617857Y-35322380D02*
X65189285Y-34750952D01*
X65617857Y-34322380D02*
X65046428Y-34893809D01*
X48808095Y-34798571D02*
X48950952Y-34846190D01*
X48998571Y-34893809D01*
X49046190Y-34989047D01*
X49046190Y-35131904D01*
X48998571Y-35227142D01*
X48950952Y-35274761D01*
X48855714Y-35322380D01*
X48474761Y-35322380D01*
X48474761Y-34322380D01*
X48808095Y-34322380D01*
X48903333Y-34370000D01*
X48950952Y-34417619D01*
X48998571Y-34512857D01*
X48998571Y-34608095D01*
X48950952Y-34703333D01*
X48903333Y-34750952D01*
X48808095Y-34798571D01*
X48474761Y-34798571D01*
X49950952Y-35322380D02*
X49474761Y-35322380D01*
X49474761Y-34322380D01*
X50236666Y-35036666D02*
X50712857Y-35036666D01*
X50141428Y-35322380D02*
X50474761Y-34322380D01*
X50808095Y-35322380D01*
X51712857Y-35227142D02*
X51665238Y-35274761D01*
X51522380Y-35322380D01*
X51427142Y-35322380D01*
X51284285Y-35274761D01*
X51189047Y-35179523D01*
X51141428Y-35084285D01*
X51093809Y-34893809D01*
X51093809Y-34750952D01*
X51141428Y-34560476D01*
X51189047Y-34465238D01*
X51284285Y-34370000D01*
X51427142Y-34322380D01*
X51522380Y-34322380D01*
X51665238Y-34370000D01*
X51712857Y-34417619D01*
X52141428Y-35322380D02*
X52141428Y-34322380D01*
X52712857Y-35322380D02*
X52284285Y-34750952D01*
X52712857Y-34322380D02*
X52141428Y-34893809D01*
X118763095Y-34798571D02*
X118905952Y-34846190D01*
X118953571Y-34893809D01*
X119001190Y-34989047D01*
X119001190Y-35131904D01*
X118953571Y-35227142D01*
X118905952Y-35274761D01*
X118810714Y-35322380D01*
X118429761Y-35322380D01*
X118429761Y-34322380D01*
X118763095Y-34322380D01*
X118858333Y-34370000D01*
X118905952Y-34417619D01*
X118953571Y-34512857D01*
X118953571Y-34608095D01*
X118905952Y-34703333D01*
X118858333Y-34750952D01*
X118763095Y-34798571D01*
X118429761Y-34798571D01*
X119905952Y-35322380D02*
X119429761Y-35322380D01*
X119429761Y-34322380D01*
X120191666Y-35036666D02*
X120667857Y-35036666D01*
X120096428Y-35322380D02*
X120429761Y-34322380D01*
X120763095Y-35322380D01*
X121667857Y-35227142D02*
X121620238Y-35274761D01*
X121477380Y-35322380D01*
X121382142Y-35322380D01*
X121239285Y-35274761D01*
X121144047Y-35179523D01*
X121096428Y-35084285D01*
X121048809Y-34893809D01*
X121048809Y-34750952D01*
X121096428Y-34560476D01*
X121144047Y-34465238D01*
X121239285Y-34370000D01*
X121382142Y-34322380D01*
X121477380Y-34322380D01*
X121620238Y-34370000D01*
X121667857Y-34417619D01*
X122096428Y-35322380D02*
X122096428Y-34322380D01*
X122667857Y-35322380D02*
X122239285Y-34750952D01*
X122667857Y-34322380D02*
X122096428Y-34893809D01*
X106208095Y-34798571D02*
X106350952Y-34846190D01*
X106398571Y-34893809D01*
X106446190Y-34989047D01*
X106446190Y-35131904D01*
X106398571Y-35227142D01*
X106350952Y-35274761D01*
X106255714Y-35322380D01*
X105874761Y-35322380D01*
X105874761Y-34322380D01*
X106208095Y-34322380D01*
X106303333Y-34370000D01*
X106350952Y-34417619D01*
X106398571Y-34512857D01*
X106398571Y-34608095D01*
X106350952Y-34703333D01*
X106303333Y-34750952D01*
X106208095Y-34798571D01*
X105874761Y-34798571D01*
X107350952Y-35322380D02*
X106874761Y-35322380D01*
X106874761Y-34322380D01*
X107636666Y-35036666D02*
X108112857Y-35036666D01*
X107541428Y-35322380D02*
X107874761Y-34322380D01*
X108208095Y-35322380D01*
X109112857Y-35227142D02*
X109065238Y-35274761D01*
X108922380Y-35322380D01*
X108827142Y-35322380D01*
X108684285Y-35274761D01*
X108589047Y-35179523D01*
X108541428Y-35084285D01*
X108493809Y-34893809D01*
X108493809Y-34750952D01*
X108541428Y-34560476D01*
X108589047Y-34465238D01*
X108684285Y-34370000D01*
X108827142Y-34322380D01*
X108922380Y-34322380D01*
X109065238Y-34370000D01*
X109112857Y-34417619D01*
X109541428Y-35322380D02*
X109541428Y-34322380D01*
X110112857Y-35322380D02*
X109684285Y-34750952D01*
X110112857Y-34322380D02*
X109541428Y-34893809D01*
X90686666Y-34798571D02*
X90829523Y-34846190D01*
X90877142Y-34893809D01*
X90924761Y-34989047D01*
X90924761Y-35131904D01*
X90877142Y-35227142D01*
X90829523Y-35274761D01*
X90734285Y-35322380D01*
X90353332Y-35322380D01*
X90353332Y-34322380D01*
X90686666Y-34322380D01*
X90781904Y-34370000D01*
X90829523Y-34417619D01*
X90877142Y-34512857D01*
X90877142Y-34608095D01*
X90829523Y-34703333D01*
X90781904Y-34750952D01*
X90686666Y-34798571D01*
X90353332Y-34798571D01*
X91829523Y-35322380D02*
X91353332Y-35322380D01*
X91353332Y-34322380D01*
X92115237Y-35036666D02*
X92591428Y-35036666D01*
X92019999Y-35322380D02*
X92353332Y-34322380D01*
X92686666Y-35322380D01*
X93591428Y-35227142D02*
X93543809Y-35274761D01*
X93400951Y-35322380D01*
X93305713Y-35322380D01*
X93162856Y-35274761D01*
X93067618Y-35179523D01*
X93019999Y-35084285D01*
X92972380Y-34893809D01*
X92972380Y-34750952D01*
X93019999Y-34560476D01*
X93067618Y-34465238D01*
X93162856Y-34370000D01*
X93305713Y-34322380D01*
X93400951Y-34322380D01*
X93543809Y-34370000D01*
X93591428Y-34417619D01*
X94019999Y-35322380D02*
X94019999Y-34322380D01*
X94591428Y-35322380D02*
X94162856Y-34750952D01*
X94591428Y-34322380D02*
X94019999Y-34893809D01*
X77393809Y-34798571D02*
X77536666Y-34846190D01*
X77584285Y-34893809D01*
X77631904Y-34989047D01*
X77631904Y-35131904D01*
X77584285Y-35227142D01*
X77536666Y-35274761D01*
X77441428Y-35322380D01*
X77060475Y-35322380D01*
X77060475Y-34322380D01*
X77393809Y-34322380D01*
X77489047Y-34370000D01*
X77536666Y-34417619D01*
X77584285Y-34512857D01*
X77584285Y-34608095D01*
X77536666Y-34703333D01*
X77489047Y-34750952D01*
X77393809Y-34798571D01*
X77060475Y-34798571D01*
X78536666Y-35322380D02*
X78060475Y-35322380D01*
X78060475Y-34322380D01*
X78822380Y-35036666D02*
X79298571Y-35036666D01*
X78727142Y-35322380D02*
X79060475Y-34322380D01*
X79393809Y-35322380D01*
X80298571Y-35227142D02*
X80250952Y-35274761D01*
X80108094Y-35322380D01*
X80012856Y-35322380D01*
X79869999Y-35274761D01*
X79774761Y-35179523D01*
X79727142Y-35084285D01*
X79679523Y-34893809D01*
X79679523Y-34750952D01*
X79727142Y-34560476D01*
X79774761Y-34465238D01*
X79869999Y-34370000D01*
X80012856Y-34322380D01*
X80108094Y-34322380D01*
X80250952Y-34370000D01*
X80298571Y-34417619D01*
X80727142Y-35322380D02*
X80727142Y-34322380D01*
X81298571Y-35322380D02*
X80869999Y-34750952D01*
X81298571Y-34322380D02*
X80727142Y-34893809D01*
X147308095Y-34798571D02*
X147450952Y-34846190D01*
X147498571Y-34893809D01*
X147546190Y-34989047D01*
X147546190Y-35131904D01*
X147498571Y-35227142D01*
X147450952Y-35274761D01*
X147355714Y-35322380D01*
X146974761Y-35322380D01*
X146974761Y-34322380D01*
X147308095Y-34322380D01*
X147403333Y-34370000D01*
X147450952Y-34417619D01*
X147498571Y-34512857D01*
X147498571Y-34608095D01*
X147450952Y-34703333D01*
X147403333Y-34750952D01*
X147308095Y-34798571D01*
X146974761Y-34798571D01*
X148450952Y-35322380D02*
X147974761Y-35322380D01*
X147974761Y-34322380D01*
X148736666Y-35036666D02*
X149212857Y-35036666D01*
X148641428Y-35322380D02*
X148974761Y-34322380D01*
X149308095Y-35322380D01*
X150212857Y-35227142D02*
X150165238Y-35274761D01*
X150022380Y-35322380D01*
X149927142Y-35322380D01*
X149784285Y-35274761D01*
X149689047Y-35179523D01*
X149641428Y-35084285D01*
X149593809Y-34893809D01*
X149593809Y-34750952D01*
X149641428Y-34560476D01*
X149689047Y-34465238D01*
X149784285Y-34370000D01*
X149927142Y-34322380D01*
X150022380Y-34322380D01*
X150165238Y-34370000D01*
X150212857Y-34417619D01*
X150641428Y-35322380D02*
X150641428Y-34322380D01*
X151212857Y-35322380D02*
X150784285Y-34750952D01*
X151212857Y-34322380D02*
X150641428Y-34893809D01*
X134733095Y-34798571D02*
X134875952Y-34846190D01*
X134923571Y-34893809D01*
X134971190Y-34989047D01*
X134971190Y-35131904D01*
X134923571Y-35227142D01*
X134875952Y-35274761D01*
X134780714Y-35322380D01*
X134399761Y-35322380D01*
X134399761Y-34322380D01*
X134733095Y-34322380D01*
X134828333Y-34370000D01*
X134875952Y-34417619D01*
X134923571Y-34512857D01*
X134923571Y-34608095D01*
X134875952Y-34703333D01*
X134828333Y-34750952D01*
X134733095Y-34798571D01*
X134399761Y-34798571D01*
X135875952Y-35322380D02*
X135399761Y-35322380D01*
X135399761Y-34322380D01*
X136161666Y-35036666D02*
X136637857Y-35036666D01*
X136066428Y-35322380D02*
X136399761Y-34322380D01*
X136733095Y-35322380D01*
X137637857Y-35227142D02*
X137590238Y-35274761D01*
X137447380Y-35322380D01*
X137352142Y-35322380D01*
X137209285Y-35274761D01*
X137114047Y-35179523D01*
X137066428Y-35084285D01*
X137018809Y-34893809D01*
X137018809Y-34750952D01*
X137066428Y-34560476D01*
X137114047Y-34465238D01*
X137209285Y-34370000D01*
X137352142Y-34322380D01*
X137447380Y-34322380D01*
X137590238Y-34370000D01*
X137637857Y-34417619D01*
X138066428Y-35322380D02*
X138066428Y-34322380D01*
X138637857Y-35322380D02*
X138209285Y-34750952D01*
X138637857Y-34322380D02*
X138066428Y-34893809D01*
X38378095Y-129358571D02*
X38520952Y-129406190D01*
X38568571Y-129453809D01*
X38616190Y-129549047D01*
X38616190Y-129691904D01*
X38568571Y-129787142D01*
X38520952Y-129834761D01*
X38425714Y-129882380D01*
X38044761Y-129882380D01*
X38044761Y-128882380D01*
X38378095Y-128882380D01*
X38473333Y-128930000D01*
X38520952Y-128977619D01*
X38568571Y-129072857D01*
X38568571Y-129168095D01*
X38520952Y-129263333D01*
X38473333Y-129310952D01*
X38378095Y-129358571D01*
X38044761Y-129358571D01*
X39520952Y-129882380D02*
X39044761Y-129882380D01*
X39044761Y-128882380D01*
X39806666Y-129596666D02*
X40282857Y-129596666D01*
X39711428Y-129882380D02*
X40044761Y-128882380D01*
X40378095Y-129882380D01*
X41282857Y-129787142D02*
X41235238Y-129834761D01*
X41092380Y-129882380D01*
X40997142Y-129882380D01*
X40854285Y-129834761D01*
X40759047Y-129739523D01*
X40711428Y-129644285D01*
X40663809Y-129453809D01*
X40663809Y-129310952D01*
X40711428Y-129120476D01*
X40759047Y-129025238D01*
X40854285Y-128930000D01*
X40997142Y-128882380D01*
X41092380Y-128882380D01*
X41235238Y-128930000D01*
X41282857Y-128977619D01*
X41711428Y-129882380D02*
X41711428Y-128882380D01*
X42282857Y-129882380D02*
X41854285Y-129310952D01*
X42282857Y-128882380D02*
X41711428Y-129453809D01*
X117960595Y-129215794D02*
X118103452Y-129263413D01*
X118151071Y-129311032D01*
X118198690Y-129406270D01*
X118198690Y-129549127D01*
X118151071Y-129644365D01*
X118103452Y-129691984D01*
X118008214Y-129739603D01*
X117627261Y-129739603D01*
X117627261Y-128739603D01*
X117960595Y-128739603D01*
X118055833Y-128787223D01*
X118103452Y-128834842D01*
X118151071Y-128930080D01*
X118151071Y-129025318D01*
X118103452Y-129120556D01*
X118055833Y-129168175D01*
X117960595Y-129215794D01*
X117627261Y-129215794D01*
X119103452Y-129739603D02*
X118627261Y-129739603D01*
X118627261Y-128739603D01*
X119389166Y-129453889D02*
X119865357Y-129453889D01*
X119293928Y-129739603D02*
X119627261Y-128739603D01*
X119960595Y-129739603D01*
X120865357Y-129644365D02*
X120817738Y-129691984D01*
X120674880Y-129739603D01*
X120579642Y-129739603D01*
X120436785Y-129691984D01*
X120341547Y-129596746D01*
X120293928Y-129501508D01*
X120246309Y-129311032D01*
X120246309Y-129168175D01*
X120293928Y-128977699D01*
X120341547Y-128882461D01*
X120436785Y-128787223D01*
X120579642Y-128739603D01*
X120674880Y-128739603D01*
X120817738Y-128787223D01*
X120865357Y-128834842D01*
X121293928Y-129739603D02*
X121293928Y-128739603D01*
X121865357Y-129739603D02*
X121436785Y-129168175D01*
X121865357Y-128739603D02*
X121293928Y-129311032D01*
X60890595Y-129215794D02*
X61033452Y-129263413D01*
X61081071Y-129311032D01*
X61128690Y-129406270D01*
X61128690Y-129549127D01*
X61081071Y-129644365D01*
X61033452Y-129691984D01*
X60938214Y-129739603D01*
X60557261Y-129739603D01*
X60557261Y-128739603D01*
X60890595Y-128739603D01*
X60985833Y-128787223D01*
X61033452Y-128834842D01*
X61081071Y-128930080D01*
X61081071Y-129025318D01*
X61033452Y-129120556D01*
X60985833Y-129168175D01*
X60890595Y-129215794D01*
X60557261Y-129215794D01*
X62033452Y-129739603D02*
X61557261Y-129739603D01*
X61557261Y-128739603D01*
X62319166Y-129453889D02*
X62795357Y-129453889D01*
X62223928Y-129739603D02*
X62557261Y-128739603D01*
X62890595Y-129739603D01*
X63795357Y-129644365D02*
X63747738Y-129691984D01*
X63604880Y-129739603D01*
X63509642Y-129739603D01*
X63366785Y-129691984D01*
X63271547Y-129596746D01*
X63223928Y-129501508D01*
X63176309Y-129311032D01*
X63176309Y-129168175D01*
X63223928Y-128977699D01*
X63271547Y-128882461D01*
X63366785Y-128787223D01*
X63509642Y-128739603D01*
X63604880Y-128739603D01*
X63747738Y-128787223D01*
X63795357Y-128834842D01*
X64223928Y-129739603D02*
X64223928Y-128739603D01*
X64795357Y-129739603D02*
X64366785Y-129168175D01*
X64795357Y-128739603D02*
X64223928Y-129311032D01*
X89408095Y-129215794D02*
X89550952Y-129263413D01*
X89598571Y-129311032D01*
X89646190Y-129406270D01*
X89646190Y-129549127D01*
X89598571Y-129644365D01*
X89550952Y-129691984D01*
X89455714Y-129739603D01*
X89074761Y-129739603D01*
X89074761Y-128739603D01*
X89408095Y-128739603D01*
X89503333Y-128787223D01*
X89550952Y-128834842D01*
X89598571Y-128930080D01*
X89598571Y-129025318D01*
X89550952Y-129120556D01*
X89503333Y-129168175D01*
X89408095Y-129215794D01*
X89074761Y-129215794D01*
X90550952Y-129739603D02*
X90074761Y-129739603D01*
X90074761Y-128739603D01*
X90836666Y-129453889D02*
X91312857Y-129453889D01*
X90741428Y-129739603D02*
X91074761Y-128739603D01*
X91408095Y-129739603D01*
X92312857Y-129644365D02*
X92265238Y-129691984D01*
X92122380Y-129739603D01*
X92027142Y-129739603D01*
X91884285Y-129691984D01*
X91789047Y-129596746D01*
X91741428Y-129501508D01*
X91693809Y-129311032D01*
X91693809Y-129168175D01*
X91741428Y-128977699D01*
X91789047Y-128882461D01*
X91884285Y-128787223D01*
X92027142Y-128739603D01*
X92122380Y-128739603D01*
X92265238Y-128787223D01*
X92312857Y-128834842D01*
X92741428Y-129739603D02*
X92741428Y-128739603D01*
X93312857Y-129739603D02*
X92884285Y-129168175D01*
X93312857Y-128739603D02*
X92741428Y-129311032D01*
X146485595Y-129215794D02*
X146628452Y-129263413D01*
X146676071Y-129311032D01*
X146723690Y-129406270D01*
X146723690Y-129549127D01*
X146676071Y-129644365D01*
X146628452Y-129691984D01*
X146533214Y-129739603D01*
X146152261Y-129739603D01*
X146152261Y-128739603D01*
X146485595Y-128739603D01*
X146580833Y-128787223D01*
X146628452Y-128834842D01*
X146676071Y-128930080D01*
X146676071Y-129025318D01*
X146628452Y-129120556D01*
X146580833Y-129168175D01*
X146485595Y-129215794D01*
X146152261Y-129215794D01*
X147628452Y-129739603D02*
X147152261Y-129739603D01*
X147152261Y-128739603D01*
X147914166Y-129453889D02*
X148390357Y-129453889D01*
X147818928Y-129739603D02*
X148152261Y-128739603D01*
X148485595Y-129739603D01*
X149390357Y-129644365D02*
X149342738Y-129691984D01*
X149199880Y-129739603D01*
X149104642Y-129739603D01*
X148961785Y-129691984D01*
X148866547Y-129596746D01*
X148818928Y-129501508D01*
X148771309Y-129311032D01*
X148771309Y-129168175D01*
X148818928Y-128977699D01*
X148866547Y-128882461D01*
X148961785Y-128787223D01*
X149104642Y-128739603D01*
X149199880Y-128739603D01*
X149342738Y-128787223D01*
X149390357Y-128834842D01*
X149818928Y-129739603D02*
X149818928Y-128739603D01*
X150390357Y-129739603D02*
X149961785Y-129168175D01*
X150390357Y-128739603D02*
X149818928Y-129311032D01*
X36557142Y-89442380D02*
X36223809Y-88966190D01*
X35985714Y-89442380D02*
X35985714Y-88442380D01*
X36366666Y-88442380D01*
X36461904Y-88490000D01*
X36509523Y-88537619D01*
X36557142Y-88632857D01*
X36557142Y-88775714D01*
X36509523Y-88870952D01*
X36461904Y-88918571D01*
X36366666Y-88966190D01*
X35985714Y-88966190D01*
X36985714Y-88918571D02*
X37319047Y-88918571D01*
X37461904Y-89442380D02*
X36985714Y-89442380D01*
X36985714Y-88442380D01*
X37461904Y-88442380D01*
X37890476Y-89442380D02*
X37890476Y-88442380D01*
X38128571Y-88442380D01*
X38271428Y-88490000D01*
X38366666Y-88585238D01*
X38414285Y-88680476D01*
X38461904Y-88870952D01*
X38461904Y-89013809D01*
X38414285Y-89204285D01*
X38366666Y-89299523D01*
X38271428Y-89394761D01*
X38128571Y-89442380D01*
X37890476Y-89442380D01*
X118763095Y-89058571D02*
X118905952Y-89106190D01*
X118953571Y-89153809D01*
X119001190Y-89249047D01*
X119001190Y-89391904D01*
X118953571Y-89487142D01*
X118905952Y-89534761D01*
X118810714Y-89582380D01*
X118429761Y-89582380D01*
X118429761Y-88582380D01*
X118763095Y-88582380D01*
X118858333Y-88630000D01*
X118905952Y-88677619D01*
X118953571Y-88772857D01*
X118953571Y-88868095D01*
X118905952Y-88963333D01*
X118858333Y-89010952D01*
X118763095Y-89058571D01*
X118429761Y-89058571D01*
X119905952Y-89582380D02*
X119429761Y-89582380D01*
X119429761Y-88582380D01*
X120191666Y-89296666D02*
X120667857Y-89296666D01*
X120096428Y-89582380D02*
X120429761Y-88582380D01*
X120763095Y-89582380D01*
X121667857Y-89487142D02*
X121620238Y-89534761D01*
X121477380Y-89582380D01*
X121382142Y-89582380D01*
X121239285Y-89534761D01*
X121144047Y-89439523D01*
X121096428Y-89344285D01*
X121048809Y-89153809D01*
X121048809Y-89010952D01*
X121096428Y-88820476D01*
X121144047Y-88725238D01*
X121239285Y-88630000D01*
X121382142Y-88582380D01*
X121477380Y-88582380D01*
X121620238Y-88630000D01*
X121667857Y-88677619D01*
X122096428Y-89582380D02*
X122096428Y-88582380D01*
X122667857Y-89582380D02*
X122239285Y-89010952D01*
X122667857Y-88582380D02*
X122096428Y-89153809D01*
X106208095Y-89058571D02*
X106350952Y-89106190D01*
X106398571Y-89153809D01*
X106446190Y-89249047D01*
X106446190Y-89391904D01*
X106398571Y-89487142D01*
X106350952Y-89534761D01*
X106255714Y-89582380D01*
X105874761Y-89582380D01*
X105874761Y-88582380D01*
X106208095Y-88582380D01*
X106303333Y-88630000D01*
X106350952Y-88677619D01*
X106398571Y-88772857D01*
X106398571Y-88868095D01*
X106350952Y-88963333D01*
X106303333Y-89010952D01*
X106208095Y-89058571D01*
X105874761Y-89058571D01*
X107350952Y-89582380D02*
X106874761Y-89582380D01*
X106874761Y-88582380D01*
X107636666Y-89296666D02*
X108112857Y-89296666D01*
X107541428Y-89582380D02*
X107874761Y-88582380D01*
X108208095Y-89582380D01*
X109112857Y-89487142D02*
X109065238Y-89534761D01*
X108922380Y-89582380D01*
X108827142Y-89582380D01*
X108684285Y-89534761D01*
X108589047Y-89439523D01*
X108541428Y-89344285D01*
X108493809Y-89153809D01*
X108493809Y-89010952D01*
X108541428Y-88820476D01*
X108589047Y-88725238D01*
X108684285Y-88630000D01*
X108827142Y-88582380D01*
X108922380Y-88582380D01*
X109065238Y-88630000D01*
X109112857Y-88677619D01*
X109541428Y-89582380D02*
X109541428Y-88582380D01*
X110112857Y-89582380D02*
X109684285Y-89010952D01*
X110112857Y-88582380D02*
X109541428Y-89153809D01*
X61713095Y-89058571D02*
X61855952Y-89106190D01*
X61903571Y-89153809D01*
X61951190Y-89249047D01*
X61951190Y-89391904D01*
X61903571Y-89487142D01*
X61855952Y-89534761D01*
X61760714Y-89582380D01*
X61379761Y-89582380D01*
X61379761Y-88582380D01*
X61713095Y-88582380D01*
X61808333Y-88630000D01*
X61855952Y-88677619D01*
X61903571Y-88772857D01*
X61903571Y-88868095D01*
X61855952Y-88963333D01*
X61808333Y-89010952D01*
X61713095Y-89058571D01*
X61379761Y-89058571D01*
X62855952Y-89582380D02*
X62379761Y-89582380D01*
X62379761Y-88582380D01*
X63141666Y-89296666D02*
X63617857Y-89296666D01*
X63046428Y-89582380D02*
X63379761Y-88582380D01*
X63713095Y-89582380D01*
X64617857Y-89487142D02*
X64570238Y-89534761D01*
X64427380Y-89582380D01*
X64332142Y-89582380D01*
X64189285Y-89534761D01*
X64094047Y-89439523D01*
X64046428Y-89344285D01*
X63998809Y-89153809D01*
X63998809Y-89010952D01*
X64046428Y-88820476D01*
X64094047Y-88725238D01*
X64189285Y-88630000D01*
X64332142Y-88582380D01*
X64427380Y-88582380D01*
X64570238Y-88630000D01*
X64617857Y-88677619D01*
X65046428Y-89582380D02*
X65046428Y-88582380D01*
X65617857Y-89582380D02*
X65189285Y-89010952D01*
X65617857Y-88582380D02*
X65046428Y-89153809D01*
X49138095Y-89058571D02*
X49280952Y-89106190D01*
X49328571Y-89153809D01*
X49376190Y-89249047D01*
X49376190Y-89391904D01*
X49328571Y-89487142D01*
X49280952Y-89534761D01*
X49185714Y-89582380D01*
X48804761Y-89582380D01*
X48804761Y-88582380D01*
X49138095Y-88582380D01*
X49233333Y-88630000D01*
X49280952Y-88677619D01*
X49328571Y-88772857D01*
X49328571Y-88868095D01*
X49280952Y-88963333D01*
X49233333Y-89010952D01*
X49138095Y-89058571D01*
X48804761Y-89058571D01*
X50280952Y-89582380D02*
X49804761Y-89582380D01*
X49804761Y-88582380D01*
X50566666Y-89296666D02*
X51042857Y-89296666D01*
X50471428Y-89582380D02*
X50804761Y-88582380D01*
X51138095Y-89582380D01*
X52042857Y-89487142D02*
X51995238Y-89534761D01*
X51852380Y-89582380D01*
X51757142Y-89582380D01*
X51614285Y-89534761D01*
X51519047Y-89439523D01*
X51471428Y-89344285D01*
X51423809Y-89153809D01*
X51423809Y-89010952D01*
X51471428Y-88820476D01*
X51519047Y-88725238D01*
X51614285Y-88630000D01*
X51757142Y-88582380D01*
X51852380Y-88582380D01*
X51995238Y-88630000D01*
X52042857Y-88677619D01*
X52471428Y-89582380D02*
X52471428Y-88582380D01*
X53042857Y-89582380D02*
X52614285Y-89010952D01*
X53042857Y-88582380D02*
X52471428Y-89153809D01*
X90238095Y-89058571D02*
X90380952Y-89106190D01*
X90428571Y-89153809D01*
X90476190Y-89249047D01*
X90476190Y-89391904D01*
X90428571Y-89487142D01*
X90380952Y-89534761D01*
X90285714Y-89582380D01*
X89904761Y-89582380D01*
X89904761Y-88582380D01*
X90238095Y-88582380D01*
X90333333Y-88630000D01*
X90380952Y-88677619D01*
X90428571Y-88772857D01*
X90428571Y-88868095D01*
X90380952Y-88963333D01*
X90333333Y-89010952D01*
X90238095Y-89058571D01*
X89904761Y-89058571D01*
X91380952Y-89582380D02*
X90904761Y-89582380D01*
X90904761Y-88582380D01*
X91666666Y-89296666D02*
X92142857Y-89296666D01*
X91571428Y-89582380D02*
X91904761Y-88582380D01*
X92238095Y-89582380D01*
X93142857Y-89487142D02*
X93095238Y-89534761D01*
X92952380Y-89582380D01*
X92857142Y-89582380D01*
X92714285Y-89534761D01*
X92619047Y-89439523D01*
X92571428Y-89344285D01*
X92523809Y-89153809D01*
X92523809Y-89010952D01*
X92571428Y-88820476D01*
X92619047Y-88725238D01*
X92714285Y-88630000D01*
X92857142Y-88582380D01*
X92952380Y-88582380D01*
X93095238Y-88630000D01*
X93142857Y-88677619D01*
X93571428Y-89582380D02*
X93571428Y-88582380D01*
X94142857Y-89582380D02*
X93714285Y-89010952D01*
X94142857Y-88582380D02*
X93571428Y-89153809D01*
X77663095Y-89058571D02*
X77805952Y-89106190D01*
X77853571Y-89153809D01*
X77901190Y-89249047D01*
X77901190Y-89391904D01*
X77853571Y-89487142D01*
X77805952Y-89534761D01*
X77710714Y-89582380D01*
X77329761Y-89582380D01*
X77329761Y-88582380D01*
X77663095Y-88582380D01*
X77758333Y-88630000D01*
X77805952Y-88677619D01*
X77853571Y-88772857D01*
X77853571Y-88868095D01*
X77805952Y-88963333D01*
X77758333Y-89010952D01*
X77663095Y-89058571D01*
X77329761Y-89058571D01*
X78805952Y-89582380D02*
X78329761Y-89582380D01*
X78329761Y-88582380D01*
X79091666Y-89296666D02*
X79567857Y-89296666D01*
X78996428Y-89582380D02*
X79329761Y-88582380D01*
X79663095Y-89582380D01*
X80567857Y-89487142D02*
X80520238Y-89534761D01*
X80377380Y-89582380D01*
X80282142Y-89582380D01*
X80139285Y-89534761D01*
X80044047Y-89439523D01*
X79996428Y-89344285D01*
X79948809Y-89153809D01*
X79948809Y-89010952D01*
X79996428Y-88820476D01*
X80044047Y-88725238D01*
X80139285Y-88630000D01*
X80282142Y-88582380D01*
X80377380Y-88582380D01*
X80520238Y-88630000D01*
X80567857Y-88677619D01*
X80996428Y-89582380D02*
X80996428Y-88582380D01*
X81567857Y-89582380D02*
X81139285Y-89010952D01*
X81567857Y-88582380D02*
X80996428Y-89153809D01*
X147308095Y-89058571D02*
X147450952Y-89106190D01*
X147498571Y-89153809D01*
X147546190Y-89249047D01*
X147546190Y-89391904D01*
X147498571Y-89487142D01*
X147450952Y-89534761D01*
X147355714Y-89582380D01*
X146974761Y-89582380D01*
X146974761Y-88582380D01*
X147308095Y-88582380D01*
X147403333Y-88630000D01*
X147450952Y-88677619D01*
X147498571Y-88772857D01*
X147498571Y-88868095D01*
X147450952Y-88963333D01*
X147403333Y-89010952D01*
X147308095Y-89058571D01*
X146974761Y-89058571D01*
X148450952Y-89582380D02*
X147974761Y-89582380D01*
X147974761Y-88582380D01*
X148736666Y-89296666D02*
X149212857Y-89296666D01*
X148641428Y-89582380D02*
X148974761Y-88582380D01*
X149308095Y-89582380D01*
X150212857Y-89487142D02*
X150165238Y-89534761D01*
X150022380Y-89582380D01*
X149927142Y-89582380D01*
X149784285Y-89534761D01*
X149689047Y-89439523D01*
X149641428Y-89344285D01*
X149593809Y-89153809D01*
X149593809Y-89010952D01*
X149641428Y-88820476D01*
X149689047Y-88725238D01*
X149784285Y-88630000D01*
X149927142Y-88582380D01*
X150022380Y-88582380D01*
X150165238Y-88630000D01*
X150212857Y-88677619D01*
X150641428Y-89582380D02*
X150641428Y-88582380D01*
X151212857Y-89582380D02*
X150784285Y-89010952D01*
X151212857Y-88582380D02*
X150641428Y-89153809D01*
X134733095Y-89058571D02*
X134875952Y-89106190D01*
X134923571Y-89153809D01*
X134971190Y-89249047D01*
X134971190Y-89391904D01*
X134923571Y-89487142D01*
X134875952Y-89534761D01*
X134780714Y-89582380D01*
X134399761Y-89582380D01*
X134399761Y-88582380D01*
X134733095Y-88582380D01*
X134828333Y-88630000D01*
X134875952Y-88677619D01*
X134923571Y-88772857D01*
X134923571Y-88868095D01*
X134875952Y-88963333D01*
X134828333Y-89010952D01*
X134733095Y-89058571D01*
X134399761Y-89058571D01*
X135875952Y-89582380D02*
X135399761Y-89582380D01*
X135399761Y-88582380D01*
X136161666Y-89296666D02*
X136637857Y-89296666D01*
X136066428Y-89582380D02*
X136399761Y-88582380D01*
X136733095Y-89582380D01*
X137637857Y-89487142D02*
X137590238Y-89534761D01*
X137447380Y-89582380D01*
X137352142Y-89582380D01*
X137209285Y-89534761D01*
X137114047Y-89439523D01*
X137066428Y-89344285D01*
X137018809Y-89153809D01*
X137018809Y-89010952D01*
X137066428Y-88820476D01*
X137114047Y-88725238D01*
X137209285Y-88630000D01*
X137352142Y-88582380D01*
X137447380Y-88582380D01*
X137590238Y-88630000D01*
X137637857Y-88677619D01*
X138066428Y-89582380D02*
X138066428Y-88582380D01*
X138637857Y-89582380D02*
X138209285Y-89010952D01*
X138637857Y-88582380D02*
X138066428Y-89153809D01*
X118045595Y-184628571D02*
X118188452Y-184676190D01*
X118236071Y-184723809D01*
X118283690Y-184819047D01*
X118283690Y-184961904D01*
X118236071Y-185057142D01*
X118188452Y-185104761D01*
X118093214Y-185152380D01*
X117712261Y-185152380D01*
X117712261Y-184152380D01*
X118045595Y-184152380D01*
X118140833Y-184200000D01*
X118188452Y-184247619D01*
X118236071Y-184342857D01*
X118236071Y-184438095D01*
X118188452Y-184533333D01*
X118140833Y-184580952D01*
X118045595Y-184628571D01*
X117712261Y-184628571D01*
X119188452Y-185152380D02*
X118712261Y-185152380D01*
X118712261Y-184152380D01*
X119474166Y-184866666D02*
X119950357Y-184866666D01*
X119378928Y-185152380D02*
X119712261Y-184152380D01*
X120045595Y-185152380D01*
X120950357Y-185057142D02*
X120902738Y-185104761D01*
X120759880Y-185152380D01*
X120664642Y-185152380D01*
X120521785Y-185104761D01*
X120426547Y-185009523D01*
X120378928Y-184914285D01*
X120331309Y-184723809D01*
X120331309Y-184580952D01*
X120378928Y-184390476D01*
X120426547Y-184295238D01*
X120521785Y-184200000D01*
X120664642Y-184152380D01*
X120759880Y-184152380D01*
X120902738Y-184200000D01*
X120950357Y-184247619D01*
X121378928Y-185152380D02*
X121378928Y-184152380D01*
X121950357Y-185152380D02*
X121521785Y-184580952D01*
X121950357Y-184152380D02*
X121378928Y-184723809D01*
X60975595Y-184628571D02*
X61118452Y-184676190D01*
X61166071Y-184723809D01*
X61213690Y-184819047D01*
X61213690Y-184961904D01*
X61166071Y-185057142D01*
X61118452Y-185104761D01*
X61023214Y-185152380D01*
X60642261Y-185152380D01*
X60642261Y-184152380D01*
X60975595Y-184152380D01*
X61070833Y-184200000D01*
X61118452Y-184247619D01*
X61166071Y-184342857D01*
X61166071Y-184438095D01*
X61118452Y-184533333D01*
X61070833Y-184580952D01*
X60975595Y-184628571D01*
X60642261Y-184628571D01*
X62118452Y-185152380D02*
X61642261Y-185152380D01*
X61642261Y-184152380D01*
X62404166Y-184866666D02*
X62880357Y-184866666D01*
X62308928Y-185152380D02*
X62642261Y-184152380D01*
X62975595Y-185152380D01*
X63880357Y-185057142D02*
X63832738Y-185104761D01*
X63689880Y-185152380D01*
X63594642Y-185152380D01*
X63451785Y-185104761D01*
X63356547Y-185009523D01*
X63308928Y-184914285D01*
X63261309Y-184723809D01*
X63261309Y-184580952D01*
X63308928Y-184390476D01*
X63356547Y-184295238D01*
X63451785Y-184200000D01*
X63594642Y-184152380D01*
X63689880Y-184152380D01*
X63832738Y-184200000D01*
X63880357Y-184247619D01*
X64308928Y-185152380D02*
X64308928Y-184152380D01*
X64880357Y-185152380D02*
X64451785Y-184580952D01*
X64880357Y-184152380D02*
X64308928Y-184723809D01*
X89500595Y-184628571D02*
X89643452Y-184676190D01*
X89691071Y-184723809D01*
X89738690Y-184819047D01*
X89738690Y-184961904D01*
X89691071Y-185057142D01*
X89643452Y-185104761D01*
X89548214Y-185152380D01*
X89167261Y-185152380D01*
X89167261Y-184152380D01*
X89500595Y-184152380D01*
X89595833Y-184200000D01*
X89643452Y-184247619D01*
X89691071Y-184342857D01*
X89691071Y-184438095D01*
X89643452Y-184533333D01*
X89595833Y-184580952D01*
X89500595Y-184628571D01*
X89167261Y-184628571D01*
X90643452Y-185152380D02*
X90167261Y-185152380D01*
X90167261Y-184152380D01*
X90929166Y-184866666D02*
X91405357Y-184866666D01*
X90833928Y-185152380D02*
X91167261Y-184152380D01*
X91500595Y-185152380D01*
X92405357Y-185057142D02*
X92357738Y-185104761D01*
X92214880Y-185152380D01*
X92119642Y-185152380D01*
X91976785Y-185104761D01*
X91881547Y-185009523D01*
X91833928Y-184914285D01*
X91786309Y-184723809D01*
X91786309Y-184580952D01*
X91833928Y-184390476D01*
X91881547Y-184295238D01*
X91976785Y-184200000D01*
X92119642Y-184152380D01*
X92214880Y-184152380D01*
X92357738Y-184200000D01*
X92405357Y-184247619D01*
X92833928Y-185152380D02*
X92833928Y-184152380D01*
X93405357Y-185152380D02*
X92976785Y-184580952D01*
X93405357Y-184152380D02*
X92833928Y-184723809D01*
X146570595Y-184628571D02*
X146713452Y-184676190D01*
X146761071Y-184723809D01*
X146808690Y-184819047D01*
X146808690Y-184961904D01*
X146761071Y-185057142D01*
X146713452Y-185104761D01*
X146618214Y-185152380D01*
X146237261Y-185152380D01*
X146237261Y-184152380D01*
X146570595Y-184152380D01*
X146665833Y-184200000D01*
X146713452Y-184247619D01*
X146761071Y-184342857D01*
X146761071Y-184438095D01*
X146713452Y-184533333D01*
X146665833Y-184580952D01*
X146570595Y-184628571D01*
X146237261Y-184628571D01*
X147713452Y-185152380D02*
X147237261Y-185152380D01*
X147237261Y-184152380D01*
X147999166Y-184866666D02*
X148475357Y-184866666D01*
X147903928Y-185152380D02*
X148237261Y-184152380D01*
X148570595Y-185152380D01*
X149475357Y-185057142D02*
X149427738Y-185104761D01*
X149284880Y-185152380D01*
X149189642Y-185152380D01*
X149046785Y-185104761D01*
X148951547Y-185009523D01*
X148903928Y-184914285D01*
X148856309Y-184723809D01*
X148856309Y-184580952D01*
X148903928Y-184390476D01*
X148951547Y-184295238D01*
X149046785Y-184200000D01*
X149189642Y-184152380D01*
X149284880Y-184152380D01*
X149427738Y-184200000D01*
X149475357Y-184247619D01*
X149903928Y-185152380D02*
X149903928Y-184152380D01*
X150475357Y-185152380D02*
X150046785Y-184580952D01*
X150475357Y-184152380D02*
X149903928Y-184723809D01*
X36637142Y-145202380D02*
X36303809Y-144726190D01*
X36065714Y-145202380D02*
X36065714Y-144202380D01*
X36446666Y-144202380D01*
X36541904Y-144250000D01*
X36589523Y-144297619D01*
X36637142Y-144392857D01*
X36637142Y-144535714D01*
X36589523Y-144630952D01*
X36541904Y-144678571D01*
X36446666Y-144726190D01*
X36065714Y-144726190D01*
X37065714Y-144678571D02*
X37399047Y-144678571D01*
X37541904Y-145202380D02*
X37065714Y-145202380D01*
X37065714Y-144202380D01*
X37541904Y-144202380D01*
X37970476Y-145202380D02*
X37970476Y-144202380D01*
X38208571Y-144202380D01*
X38351428Y-144250000D01*
X38446666Y-144345238D01*
X38494285Y-144440476D01*
X38541904Y-144630952D01*
X38541904Y-144773809D01*
X38494285Y-144964285D01*
X38446666Y-145059523D01*
X38351428Y-145154761D01*
X38208571Y-145202380D01*
X37970476Y-145202380D01*
X118708095Y-144758571D02*
X118850952Y-144806190D01*
X118898571Y-144853809D01*
X118946190Y-144949047D01*
X118946190Y-145091904D01*
X118898571Y-145187142D01*
X118850952Y-145234761D01*
X118755714Y-145282380D01*
X118374761Y-145282380D01*
X118374761Y-144282380D01*
X118708095Y-144282380D01*
X118803333Y-144330000D01*
X118850952Y-144377619D01*
X118898571Y-144472857D01*
X118898571Y-144568095D01*
X118850952Y-144663333D01*
X118803333Y-144710952D01*
X118708095Y-144758571D01*
X118374761Y-144758571D01*
X119850952Y-145282380D02*
X119374761Y-145282380D01*
X119374761Y-144282380D01*
X120136666Y-144996666D02*
X120612857Y-144996666D01*
X120041428Y-145282380D02*
X120374761Y-144282380D01*
X120708095Y-145282380D01*
X121612857Y-145187142D02*
X121565238Y-145234761D01*
X121422380Y-145282380D01*
X121327142Y-145282380D01*
X121184285Y-145234761D01*
X121089047Y-145139523D01*
X121041428Y-145044285D01*
X120993809Y-144853809D01*
X120993809Y-144710952D01*
X121041428Y-144520476D01*
X121089047Y-144425238D01*
X121184285Y-144330000D01*
X121327142Y-144282380D01*
X121422380Y-144282380D01*
X121565238Y-144330000D01*
X121612857Y-144377619D01*
X122041428Y-145282380D02*
X122041428Y-144282380D01*
X122612857Y-145282380D02*
X122184285Y-144710952D01*
X122612857Y-144282380D02*
X122041428Y-144853809D01*
X106153095Y-144758571D02*
X106295952Y-144806190D01*
X106343571Y-144853809D01*
X106391190Y-144949047D01*
X106391190Y-145091904D01*
X106343571Y-145187142D01*
X106295952Y-145234761D01*
X106200714Y-145282380D01*
X105819761Y-145282380D01*
X105819761Y-144282380D01*
X106153095Y-144282380D01*
X106248333Y-144330000D01*
X106295952Y-144377619D01*
X106343571Y-144472857D01*
X106343571Y-144568095D01*
X106295952Y-144663333D01*
X106248333Y-144710952D01*
X106153095Y-144758571D01*
X105819761Y-144758571D01*
X107295952Y-145282380D02*
X106819761Y-145282380D01*
X106819761Y-144282380D01*
X107581666Y-144996666D02*
X108057857Y-144996666D01*
X107486428Y-145282380D02*
X107819761Y-144282380D01*
X108153095Y-145282380D01*
X109057857Y-145187142D02*
X109010238Y-145234761D01*
X108867380Y-145282380D01*
X108772142Y-145282380D01*
X108629285Y-145234761D01*
X108534047Y-145139523D01*
X108486428Y-145044285D01*
X108438809Y-144853809D01*
X108438809Y-144710952D01*
X108486428Y-144520476D01*
X108534047Y-144425238D01*
X108629285Y-144330000D01*
X108772142Y-144282380D01*
X108867380Y-144282380D01*
X109010238Y-144330000D01*
X109057857Y-144377619D01*
X109486428Y-145282380D02*
X109486428Y-144282380D01*
X110057857Y-145282380D02*
X109629285Y-144710952D01*
X110057857Y-144282380D02*
X109486428Y-144853809D01*
X62610476Y-144282380D02*
X62610476Y-144996666D01*
X62562857Y-145139523D01*
X62467619Y-145234761D01*
X62324761Y-145282380D01*
X62229523Y-145282380D01*
X62991428Y-144282380D02*
X63610476Y-144282380D01*
X63277142Y-144663333D01*
X63420000Y-144663333D01*
X63515238Y-144710952D01*
X63562857Y-144758571D01*
X63610476Y-144853809D01*
X63610476Y-145091904D01*
X63562857Y-145187142D01*
X63515238Y-145234761D01*
X63420000Y-145282380D01*
X63134285Y-145282380D01*
X63039047Y-145234761D01*
X62991428Y-145187142D01*
X64086666Y-145282380D02*
X64277142Y-145282380D01*
X64372380Y-145234761D01*
X64420000Y-145187142D01*
X64515238Y-145044285D01*
X64562857Y-144853809D01*
X64562857Y-144472857D01*
X64515238Y-144377619D01*
X64467619Y-144330000D01*
X64372380Y-144282380D01*
X64181904Y-144282380D01*
X64086666Y-144330000D01*
X64039047Y-144377619D01*
X63991428Y-144472857D01*
X63991428Y-144710952D01*
X64039047Y-144806190D01*
X64086666Y-144853809D01*
X64181904Y-144901428D01*
X64372380Y-144901428D01*
X64467619Y-144853809D01*
X64515238Y-144806190D01*
X64562857Y-144710952D01*
X50035476Y-144282380D02*
X50035476Y-144996666D01*
X49987857Y-145139523D01*
X49892619Y-145234761D01*
X49749761Y-145282380D01*
X49654523Y-145282380D01*
X50940238Y-144615714D02*
X50940238Y-145282380D01*
X50702142Y-144234761D02*
X50464047Y-144949047D01*
X51083095Y-144949047D01*
X51654523Y-144282380D02*
X51749761Y-144282380D01*
X51845000Y-144330000D01*
X51892619Y-144377619D01*
X51940238Y-144472857D01*
X51987857Y-144663333D01*
X51987857Y-144901428D01*
X51940238Y-145091904D01*
X51892619Y-145187142D01*
X51845000Y-145234761D01*
X51749761Y-145282380D01*
X51654523Y-145282380D01*
X51559285Y-145234761D01*
X51511666Y-145187142D01*
X51464047Y-145091904D01*
X51416428Y-144901428D01*
X51416428Y-144663333D01*
X51464047Y-144472857D01*
X51511666Y-144377619D01*
X51559285Y-144330000D01*
X51654523Y-144282380D01*
X90183095Y-144758571D02*
X90325952Y-144806190D01*
X90373571Y-144853809D01*
X90421190Y-144949047D01*
X90421190Y-145091904D01*
X90373571Y-145187142D01*
X90325952Y-145234761D01*
X90230714Y-145282380D01*
X89849761Y-145282380D01*
X89849761Y-144282380D01*
X90183095Y-144282380D01*
X90278333Y-144330000D01*
X90325952Y-144377619D01*
X90373571Y-144472857D01*
X90373571Y-144568095D01*
X90325952Y-144663333D01*
X90278333Y-144710952D01*
X90183095Y-144758571D01*
X89849761Y-144758571D01*
X91325952Y-145282380D02*
X90849761Y-145282380D01*
X90849761Y-144282380D01*
X91611666Y-144996666D02*
X92087857Y-144996666D01*
X91516428Y-145282380D02*
X91849761Y-144282380D01*
X92183095Y-145282380D01*
X93087857Y-145187142D02*
X93040238Y-145234761D01*
X92897380Y-145282380D01*
X92802142Y-145282380D01*
X92659285Y-145234761D01*
X92564047Y-145139523D01*
X92516428Y-145044285D01*
X92468809Y-144853809D01*
X92468809Y-144710952D01*
X92516428Y-144520476D01*
X92564047Y-144425238D01*
X92659285Y-144330000D01*
X92802142Y-144282380D01*
X92897380Y-144282380D01*
X93040238Y-144330000D01*
X93087857Y-144377619D01*
X93516428Y-145282380D02*
X93516428Y-144282380D01*
X94087857Y-145282380D02*
X93659285Y-144710952D01*
X94087857Y-144282380D02*
X93516428Y-144853809D01*
X77608095Y-144758571D02*
X77750952Y-144806190D01*
X77798571Y-144853809D01*
X77846190Y-144949047D01*
X77846190Y-145091904D01*
X77798571Y-145187142D01*
X77750952Y-145234761D01*
X77655714Y-145282380D01*
X77274761Y-145282380D01*
X77274761Y-144282380D01*
X77608095Y-144282380D01*
X77703333Y-144330000D01*
X77750952Y-144377619D01*
X77798571Y-144472857D01*
X77798571Y-144568095D01*
X77750952Y-144663333D01*
X77703333Y-144710952D01*
X77608095Y-144758571D01*
X77274761Y-144758571D01*
X78750952Y-145282380D02*
X78274761Y-145282380D01*
X78274761Y-144282380D01*
X79036666Y-144996666D02*
X79512857Y-144996666D01*
X78941428Y-145282380D02*
X79274761Y-144282380D01*
X79608095Y-145282380D01*
X80512857Y-145187142D02*
X80465238Y-145234761D01*
X80322380Y-145282380D01*
X80227142Y-145282380D01*
X80084285Y-145234761D01*
X79989047Y-145139523D01*
X79941428Y-145044285D01*
X79893809Y-144853809D01*
X79893809Y-144710952D01*
X79941428Y-144520476D01*
X79989047Y-144425238D01*
X80084285Y-144330000D01*
X80227142Y-144282380D01*
X80322380Y-144282380D01*
X80465238Y-144330000D01*
X80512857Y-144377619D01*
X80941428Y-145282380D02*
X80941428Y-144282380D01*
X81512857Y-145282380D02*
X81084285Y-144710952D01*
X81512857Y-144282380D02*
X80941428Y-144853809D01*
X147253095Y-144758571D02*
X147395952Y-144806190D01*
X147443571Y-144853809D01*
X147491190Y-144949047D01*
X147491190Y-145091904D01*
X147443571Y-145187142D01*
X147395952Y-145234761D01*
X147300714Y-145282380D01*
X146919761Y-145282380D01*
X146919761Y-144282380D01*
X147253095Y-144282380D01*
X147348333Y-144330000D01*
X147395952Y-144377619D01*
X147443571Y-144472857D01*
X147443571Y-144568095D01*
X147395952Y-144663333D01*
X147348333Y-144710952D01*
X147253095Y-144758571D01*
X146919761Y-144758571D01*
X148395952Y-145282380D02*
X147919761Y-145282380D01*
X147919761Y-144282380D01*
X148681666Y-144996666D02*
X149157857Y-144996666D01*
X148586428Y-145282380D02*
X148919761Y-144282380D01*
X149253095Y-145282380D01*
X150157857Y-145187142D02*
X150110238Y-145234761D01*
X149967380Y-145282380D01*
X149872142Y-145282380D01*
X149729285Y-145234761D01*
X149634047Y-145139523D01*
X149586428Y-145044285D01*
X149538809Y-144853809D01*
X149538809Y-144710952D01*
X149586428Y-144520476D01*
X149634047Y-144425238D01*
X149729285Y-144330000D01*
X149872142Y-144282380D01*
X149967380Y-144282380D01*
X150110238Y-144330000D01*
X150157857Y-144377619D01*
X150586428Y-145282380D02*
X150586428Y-144282380D01*
X151157857Y-145282380D02*
X150729285Y-144710952D01*
X151157857Y-144282380D02*
X150586428Y-144853809D01*
X134678095Y-144758571D02*
X134820952Y-144806190D01*
X134868571Y-144853809D01*
X134916190Y-144949047D01*
X134916190Y-145091904D01*
X134868571Y-145187142D01*
X134820952Y-145234761D01*
X134725714Y-145282380D01*
X134344761Y-145282380D01*
X134344761Y-144282380D01*
X134678095Y-144282380D01*
X134773333Y-144330000D01*
X134820952Y-144377619D01*
X134868571Y-144472857D01*
X134868571Y-144568095D01*
X134820952Y-144663333D01*
X134773333Y-144710952D01*
X134678095Y-144758571D01*
X134344761Y-144758571D01*
X135820952Y-145282380D02*
X135344761Y-145282380D01*
X135344761Y-144282380D01*
X136106666Y-144996666D02*
X136582857Y-144996666D01*
X136011428Y-145282380D02*
X136344761Y-144282380D01*
X136678095Y-145282380D01*
X137582857Y-145187142D02*
X137535238Y-145234761D01*
X137392380Y-145282380D01*
X137297142Y-145282380D01*
X137154285Y-145234761D01*
X137059047Y-145139523D01*
X137011428Y-145044285D01*
X136963809Y-144853809D01*
X136963809Y-144710952D01*
X137011428Y-144520476D01*
X137059047Y-144425238D01*
X137154285Y-144330000D01*
X137297142Y-144282380D01*
X137392380Y-144282380D01*
X137535238Y-144330000D01*
X137582857Y-144377619D01*
X138011428Y-145282380D02*
X138011428Y-144282380D01*
X138582857Y-145282380D02*
X138154285Y-144710952D01*
X138582857Y-144282380D02*
X138011428Y-144853809D01*
X156787142Y-25132380D02*
X156453809Y-24656190D01*
X156215714Y-25132380D02*
X156215714Y-24132380D01*
X156596666Y-24132380D01*
X156691904Y-24180000D01*
X156739523Y-24227619D01*
X156787142Y-24322857D01*
X156787142Y-24465714D01*
X156739523Y-24560952D01*
X156691904Y-24608571D01*
X156596666Y-24656190D01*
X156215714Y-24656190D01*
X157215714Y-24608571D02*
X157549047Y-24608571D01*
X157691904Y-25132380D02*
X157215714Y-25132380D01*
X157215714Y-24132380D01*
X157691904Y-24132380D01*
X158120476Y-25132380D02*
X158120476Y-24132380D01*
X158358571Y-24132380D01*
X158501428Y-24180000D01*
X158596666Y-24275238D01*
X158644285Y-24370476D01*
X158691904Y-24560952D01*
X158691904Y-24703809D01*
X158644285Y-24894285D01*
X158596666Y-24989523D01*
X158501428Y-25084761D01*
X158358571Y-25132380D01*
X158120476Y-25132380D01*
X155668095Y-193898571D02*
X155810952Y-193946190D01*
X155858571Y-193993809D01*
X155906190Y-194089047D01*
X155906190Y-194231904D01*
X155858571Y-194327142D01*
X155810952Y-194374761D01*
X155715714Y-194422380D01*
X155334761Y-194422380D01*
X155334761Y-193422380D01*
X155668095Y-193422380D01*
X155763333Y-193470000D01*
X155810952Y-193517619D01*
X155858571Y-193612857D01*
X155858571Y-193708095D01*
X155810952Y-193803333D01*
X155763333Y-193850952D01*
X155668095Y-193898571D01*
X155334761Y-193898571D01*
X156810952Y-194422380D02*
X156334761Y-194422380D01*
X156334761Y-193422380D01*
X157096666Y-194136666D02*
X157572857Y-194136666D01*
X157001428Y-194422380D02*
X157334761Y-193422380D01*
X157668095Y-194422380D01*
X158572857Y-194327142D02*
X158525238Y-194374761D01*
X158382380Y-194422380D01*
X158287142Y-194422380D01*
X158144285Y-194374761D01*
X158049047Y-194279523D01*
X158001428Y-194184285D01*
X157953809Y-193993809D01*
X157953809Y-193850952D01*
X158001428Y-193660476D01*
X158049047Y-193565238D01*
X158144285Y-193470000D01*
X158287142Y-193422380D01*
X158382380Y-193422380D01*
X158525238Y-193470000D01*
X158572857Y-193517619D01*
X159001428Y-194422380D02*
X159001428Y-193422380D01*
X159572857Y-194422380D02*
X159144285Y-193850952D01*
X159572857Y-193422380D02*
X159001428Y-193993809D01*
X38878275Y-59646695D02*
X38878275Y-58646695D01*
X39116371Y-58646695D01*
X39259228Y-58694315D01*
X39354466Y-58789553D01*
X39402085Y-58884791D01*
X39449704Y-59075267D01*
X39449704Y-59218124D01*
X39402085Y-59408600D01*
X39354466Y-59503838D01*
X39259228Y-59599076D01*
X39116371Y-59646695D01*
X38878275Y-59646695D01*
X39830656Y-58741934D02*
X39878275Y-58694315D01*
X39973513Y-58646695D01*
X40211609Y-58646695D01*
X40306847Y-58694315D01*
X40354466Y-58741934D01*
X40402085Y-58837172D01*
X40402085Y-58932410D01*
X40354466Y-59075267D01*
X39783037Y-59646695D01*
X40402085Y-59646695D01*
X37028095Y-56576695D02*
X37028095Y-55576695D01*
X37599523Y-56576695D02*
X37170952Y-56005267D01*
X37599523Y-55576695D02*
X37028095Y-56148124D01*
X38888275Y-114971695D02*
X38888275Y-113971695D01*
X39126371Y-113971695D01*
X39269228Y-114019315D01*
X39364466Y-114114553D01*
X39412085Y-114209791D01*
X39459704Y-114400267D01*
X39459704Y-114543124D01*
X39412085Y-114733600D01*
X39364466Y-114828838D01*
X39269228Y-114924076D01*
X39126371Y-114971695D01*
X38888275Y-114971695D01*
X40316847Y-114305029D02*
X40316847Y-114971695D01*
X40078751Y-113924076D02*
X39840656Y-114638362D01*
X40459704Y-114638362D01*
X37038095Y-111901695D02*
X37038095Y-110901695D01*
X37609523Y-111901695D02*
X37180952Y-111330267D01*
X37609523Y-110901695D02*
X37038095Y-111473124D01*
X39076904Y-170087380D02*
X39076904Y-169087380D01*
X39315000Y-169087380D01*
X39457857Y-169135000D01*
X39553095Y-169230238D01*
X39600714Y-169325476D01*
X39648333Y-169515952D01*
X39648333Y-169658809D01*
X39600714Y-169849285D01*
X39553095Y-169944523D01*
X39457857Y-170039761D01*
X39315000Y-170087380D01*
X39076904Y-170087380D01*
X40505476Y-169087380D02*
X40315000Y-169087380D01*
X40219761Y-169135000D01*
X40172142Y-169182619D01*
X40076904Y-169325476D01*
X40029285Y-169515952D01*
X40029285Y-169896904D01*
X40076904Y-169992142D01*
X40124523Y-170039761D01*
X40219761Y-170087380D01*
X40410238Y-170087380D01*
X40505476Y-170039761D01*
X40553095Y-169992142D01*
X40600714Y-169896904D01*
X40600714Y-169658809D01*
X40553095Y-169563571D01*
X40505476Y-169515952D01*
X40410238Y-169468333D01*
X40219761Y-169468333D01*
X40124523Y-169515952D01*
X40076904Y-169563571D01*
X40029285Y-169658809D01*
X37013095Y-167281695D02*
X37013095Y-166281695D01*
X37584523Y-167281695D02*
X37155952Y-166710267D01*
X37584523Y-166281695D02*
X37013095Y-166853124D01*
X33077142Y-62992380D02*
X32743809Y-62516190D01*
X32505714Y-62992380D02*
X32505714Y-61992380D01*
X32886666Y-61992380D01*
X32981904Y-62040000D01*
X33029523Y-62087619D01*
X33077142Y-62182857D01*
X33077142Y-62325714D01*
X33029523Y-62420952D01*
X32981904Y-62468571D01*
X32886666Y-62516190D01*
X32505714Y-62516190D01*
X34029523Y-62992380D02*
X33458095Y-62992380D01*
X33743809Y-62992380D02*
X33743809Y-61992380D01*
X33648571Y-62135238D01*
X33553333Y-62230476D01*
X33458095Y-62278095D01*
X34648571Y-61992380D02*
X34743809Y-61992380D01*
X34839047Y-62040000D01*
X34886666Y-62087619D01*
X34934285Y-62182857D01*
X34981904Y-62373333D01*
X34981904Y-62611428D01*
X34934285Y-62801904D01*
X34886666Y-62897142D01*
X34839047Y-62944761D01*
X34743809Y-62992380D01*
X34648571Y-62992380D01*
X34553333Y-62944761D01*
X34505714Y-62897142D01*
X34458095Y-62801904D01*
X34410476Y-62611428D01*
X34410476Y-62373333D01*
X34458095Y-62182857D01*
X34505714Y-62087619D01*
X34553333Y-62040000D01*
X34648571Y-61992380D01*
X33077142Y-118262380D02*
X32743809Y-117786190D01*
X32505714Y-118262380D02*
X32505714Y-117262380D01*
X32886666Y-117262380D01*
X32981904Y-117310000D01*
X33029523Y-117357619D01*
X33077142Y-117452857D01*
X33077142Y-117595714D01*
X33029523Y-117690952D01*
X32981904Y-117738571D01*
X32886666Y-117786190D01*
X32505714Y-117786190D01*
X33458095Y-117357619D02*
X33505714Y-117310000D01*
X33600952Y-117262380D01*
X33839047Y-117262380D01*
X33934285Y-117310000D01*
X33981904Y-117357619D01*
X34029523Y-117452857D01*
X34029523Y-117548095D01*
X33981904Y-117690952D01*
X33410476Y-118262380D01*
X34029523Y-118262380D01*
X34648571Y-117262380D02*
X34743809Y-117262380D01*
X34839047Y-117310000D01*
X34886666Y-117357619D01*
X34934285Y-117452857D01*
X34981904Y-117643333D01*
X34981904Y-117881428D01*
X34934285Y-118071904D01*
X34886666Y-118167142D01*
X34839047Y-118214761D01*
X34743809Y-118262380D01*
X34648571Y-118262380D01*
X34553333Y-118214761D01*
X34505714Y-118167142D01*
X34458095Y-118071904D01*
X34410476Y-117881428D01*
X34410476Y-117643333D01*
X34458095Y-117452857D01*
X34505714Y-117357619D01*
X34553333Y-117310000D01*
X34648571Y-117262380D01*
X33077142Y-173876695D02*
X32743809Y-173400505D01*
X32505714Y-173876695D02*
X32505714Y-172876695D01*
X32886666Y-172876695D01*
X32981904Y-172924315D01*
X33029523Y-172971934D01*
X33077142Y-173067172D01*
X33077142Y-173210029D01*
X33029523Y-173305267D01*
X32981904Y-173352886D01*
X32886666Y-173400505D01*
X32505714Y-173400505D01*
X33410476Y-172876695D02*
X34029523Y-172876695D01*
X33696190Y-173257648D01*
X33839047Y-173257648D01*
X33934285Y-173305267D01*
X33981904Y-173352886D01*
X34029523Y-173448124D01*
X34029523Y-173686219D01*
X33981904Y-173781457D01*
X33934285Y-173829076D01*
X33839047Y-173876695D01*
X33553333Y-173876695D01*
X33458095Y-173829076D01*
X33410476Y-173781457D01*
X34648571Y-172876695D02*
X34743809Y-172876695D01*
X34839047Y-172924315D01*
X34886666Y-172971934D01*
X34934285Y-173067172D01*
X34981904Y-173257648D01*
X34981904Y-173495743D01*
X34934285Y-173686219D01*
X34886666Y-173781457D01*
X34839047Y-173829076D01*
X34743809Y-173876695D01*
X34648571Y-173876695D01*
X34553333Y-173829076D01*
X34505714Y-173781457D01*
X34458095Y-173686219D01*
X34410476Y-173495743D01*
X34410476Y-173257648D01*
X34458095Y-173067172D01*
X34505714Y-172971934D01*
X34553333Y-172924315D01*
X34648571Y-172876695D01*
M02*
