G04 #@! TF.GenerationSoftware,KiCad,Pcbnew,(5.1.9)-1*
G04 #@! TF.CreationDate,2021-09-09T23:55:25+02:00*
G04 #@! TF.ProjectId,RelayControls-HPK,52656c61-7943-46f6-9e74-726f6c732d48,V0.1*
G04 #@! TF.SameCoordinates,Original*
G04 #@! TF.FileFunction,Paste,Top*
G04 #@! TF.FilePolarity,Positive*
%FSLAX46Y46*%
G04 Gerber Fmt 4.6, Leading zero omitted, Abs format (unit mm)*
G04 Created by KiCad (PCBNEW (5.1.9)-1) date 2021-09-09 23:55:25*
%MOMM*%
%LPD*%
G01*
G04 APERTURE LIST*
%ADD10R,0.450000X0.600000*%
%ADD11R,2.660000X0.800000*%
%ADD12R,2.200000X1.200000*%
%ADD13R,3.050000X2.750000*%
G04 APERTURE END LIST*
G36*
G01*
X105970000Y-153930000D02*
X107270002Y-153930000D01*
G75*
G02*
X107520001Y-154179999I0J-249999D01*
G01*
X107520001Y-154830001D01*
G75*
G02*
X107270002Y-155080000I-249999J0D01*
G01*
X105970000Y-155080000D01*
G75*
G02*
X105720001Y-154830001I0J249999D01*
G01*
X105720001Y-154179999D01*
G75*
G02*
X105970000Y-153930000I249999J0D01*
G01*
G37*
G36*
G01*
X105970000Y-156880000D02*
X107270002Y-156880000D01*
G75*
G02*
X107520001Y-157129999I0J-249999D01*
G01*
X107520001Y-157780001D01*
G75*
G02*
X107270002Y-158030000I-249999J0D01*
G01*
X105970000Y-158030000D01*
G75*
G02*
X105720001Y-157780001I0J249999D01*
G01*
X105720001Y-157129999D01*
G75*
G02*
X105970000Y-156880000I249999J0D01*
G01*
G37*
G36*
G01*
X110674996Y-153955000D02*
X111925002Y-153955000D01*
G75*
G02*
X112174999Y-154204997I0J-249997D01*
G01*
X112174999Y-154830003D01*
G75*
G02*
X111925002Y-155080000I-249997J0D01*
G01*
X110674996Y-155080000D01*
G75*
G02*
X110424999Y-154830003I0J249997D01*
G01*
X110424999Y-154204997D01*
G75*
G02*
X110674996Y-153955000I249997J0D01*
G01*
G37*
G36*
G01*
X110674996Y-156880000D02*
X111925002Y-156880000D01*
G75*
G02*
X112174999Y-157129997I0J-249997D01*
G01*
X112174999Y-157755003D01*
G75*
G02*
X111925002Y-158005000I-249997J0D01*
G01*
X110674996Y-158005000D01*
G75*
G02*
X110424999Y-157755003I0J249997D01*
G01*
X110424999Y-157129997D01*
G75*
G02*
X110674996Y-156880000I249997J0D01*
G01*
G37*
G36*
G01*
X48925000Y-98630000D02*
X50225002Y-98630000D01*
G75*
G02*
X50475001Y-98879999I0J-249999D01*
G01*
X50475001Y-99530001D01*
G75*
G02*
X50225002Y-99780000I-249999J0D01*
G01*
X48925000Y-99780000D01*
G75*
G02*
X48675001Y-99530001I0J249999D01*
G01*
X48675001Y-98879999D01*
G75*
G02*
X48925000Y-98630000I249999J0D01*
G01*
G37*
G36*
G01*
X48925000Y-101580000D02*
X50225002Y-101580000D01*
G75*
G02*
X50475001Y-101829999I0J-249999D01*
G01*
X50475001Y-102480001D01*
G75*
G02*
X50225002Y-102730000I-249999J0D01*
G01*
X48925000Y-102730000D01*
G75*
G02*
X48675001Y-102480001I0J249999D01*
G01*
X48675001Y-101829999D01*
G75*
G02*
X48925000Y-101580000I249999J0D01*
G01*
G37*
D10*
X20010000Y-100770000D03*
X20010000Y-98670000D03*
G36*
G01*
X110644998Y-47250000D02*
X111945000Y-47250000D01*
G75*
G02*
X112194999Y-47499999I0J-249999D01*
G01*
X112194999Y-48150001D01*
G75*
G02*
X111945000Y-48400000I-249999J0D01*
G01*
X110644998Y-48400000D01*
G75*
G02*
X110394999Y-48150001I0J249999D01*
G01*
X110394999Y-47499999D01*
G75*
G02*
X110644998Y-47250000I249999J0D01*
G01*
G37*
G36*
G01*
X110644998Y-44300000D02*
X111945000Y-44300000D01*
G75*
G02*
X112194999Y-44549999I0J-249999D01*
G01*
X112194999Y-45200001D01*
G75*
G02*
X111945000Y-45450000I-249999J0D01*
G01*
X110644998Y-45450000D01*
G75*
G02*
X110394999Y-45200001I0J249999D01*
G01*
X110394999Y-44549999D01*
G75*
G02*
X110644998Y-44300000I249999J0D01*
G01*
G37*
G36*
G01*
X48925000Y-44300000D02*
X50225002Y-44300000D01*
G75*
G02*
X50475001Y-44549999I0J-249999D01*
G01*
X50475001Y-45200001D01*
G75*
G02*
X50225002Y-45450000I-249999J0D01*
G01*
X48925000Y-45450000D01*
G75*
G02*
X48675001Y-45200001I0J249999D01*
G01*
X48675001Y-44549999D01*
G75*
G02*
X48925000Y-44300000I249999J0D01*
G01*
G37*
G36*
G01*
X48925000Y-47250000D02*
X50225002Y-47250000D01*
G75*
G02*
X50475001Y-47499999I0J-249999D01*
G01*
X50475001Y-48150001D01*
G75*
G02*
X50225002Y-48400000I-249999J0D01*
G01*
X48925000Y-48400000D01*
G75*
G02*
X48675001Y-48150001I0J249999D01*
G01*
X48675001Y-47499999D01*
G75*
G02*
X48925000Y-47250000I249999J0D01*
G01*
G37*
G36*
G01*
X77450000Y-47250000D02*
X78750002Y-47250000D01*
G75*
G02*
X79000001Y-47499999I0J-249999D01*
G01*
X79000001Y-48150001D01*
G75*
G02*
X78750002Y-48400000I-249999J0D01*
G01*
X77450000Y-48400000D01*
G75*
G02*
X77200001Y-48150001I0J249999D01*
G01*
X77200001Y-47499999D01*
G75*
G02*
X77450000Y-47250000I249999J0D01*
G01*
G37*
G36*
G01*
X77450000Y-44300000D02*
X78750002Y-44300000D01*
G75*
G02*
X79000001Y-44549999I0J-249999D01*
G01*
X79000001Y-45200001D01*
G75*
G02*
X78750002Y-45450000I-249999J0D01*
G01*
X77450000Y-45450000D01*
G75*
G02*
X77200001Y-45200001I0J249999D01*
G01*
X77200001Y-44549999D01*
G75*
G02*
X77450000Y-44300000I249999J0D01*
G01*
G37*
G36*
G01*
X134520000Y-47250000D02*
X135820002Y-47250000D01*
G75*
G02*
X136070001Y-47499999I0J-249999D01*
G01*
X136070001Y-48150001D01*
G75*
G02*
X135820002Y-48400000I-249999J0D01*
G01*
X134520000Y-48400000D01*
G75*
G02*
X134270001Y-48150001I0J249999D01*
G01*
X134270001Y-47499999D01*
G75*
G02*
X134520000Y-47250000I249999J0D01*
G01*
G37*
G36*
G01*
X134520000Y-44300000D02*
X135820002Y-44300000D01*
G75*
G02*
X136070001Y-44549999I0J-249999D01*
G01*
X136070001Y-45200001D01*
G75*
G02*
X135820002Y-45450000I-249999J0D01*
G01*
X134520000Y-45450000D01*
G75*
G02*
X134270001Y-45200001I0J249999D01*
G01*
X134270001Y-44549999D01*
G75*
G02*
X134520000Y-44300000I249999J0D01*
G01*
G37*
G36*
G01*
X119850002Y-45450000D02*
X118550000Y-45450000D01*
G75*
G02*
X118300001Y-45200001I0J249999D01*
G01*
X118300001Y-44549999D01*
G75*
G02*
X118550000Y-44300000I249999J0D01*
G01*
X119850002Y-44300000D01*
G75*
G02*
X120100001Y-44549999I0J-249999D01*
G01*
X120100001Y-45200001D01*
G75*
G02*
X119850002Y-45450000I-249999J0D01*
G01*
G37*
G36*
G01*
X119850002Y-48400000D02*
X118550000Y-48400000D01*
G75*
G02*
X118300001Y-48150001I0J249999D01*
G01*
X118300001Y-47499999D01*
G75*
G02*
X118550000Y-47250000I249999J0D01*
G01*
X119850002Y-47250000D01*
G75*
G02*
X120100001Y-47499999I0J-249999D01*
G01*
X120100001Y-48150001D01*
G75*
G02*
X119850002Y-48400000I-249999J0D01*
G01*
G37*
G36*
G01*
X62800002Y-48400000D02*
X61500000Y-48400000D01*
G75*
G02*
X61250001Y-48150001I0J249999D01*
G01*
X61250001Y-47499999D01*
G75*
G02*
X61500000Y-47250000I249999J0D01*
G01*
X62800002Y-47250000D01*
G75*
G02*
X63050001Y-47499999I0J-249999D01*
G01*
X63050001Y-48150001D01*
G75*
G02*
X62800002Y-48400000I-249999J0D01*
G01*
G37*
G36*
G01*
X62800002Y-45450000D02*
X61500000Y-45450000D01*
G75*
G02*
X61250001Y-45200001I0J249999D01*
G01*
X61250001Y-44549999D01*
G75*
G02*
X61500000Y-44300000I249999J0D01*
G01*
X62800002Y-44300000D01*
G75*
G02*
X63050001Y-44549999I0J-249999D01*
G01*
X63050001Y-45200001D01*
G75*
G02*
X62800002Y-45450000I-249999J0D01*
G01*
G37*
G36*
G01*
X95975000Y-45450000D02*
X94674998Y-45450000D01*
G75*
G02*
X94424999Y-45200001I0J249999D01*
G01*
X94424999Y-44549999D01*
G75*
G02*
X94674998Y-44300000I249999J0D01*
G01*
X95975000Y-44300000D01*
G75*
G02*
X96224999Y-44549999I0J-249999D01*
G01*
X96224999Y-45200001D01*
G75*
G02*
X95975000Y-45450000I-249999J0D01*
G01*
G37*
G36*
G01*
X95975000Y-48400000D02*
X94674998Y-48400000D01*
G75*
G02*
X94424999Y-48150001I0J249999D01*
G01*
X94424999Y-47499999D01*
G75*
G02*
X94674998Y-47250000I249999J0D01*
G01*
X95975000Y-47250000D01*
G75*
G02*
X96224999Y-47499999I0J-249999D01*
G01*
X96224999Y-48150001D01*
G75*
G02*
X95975000Y-48400000I-249999J0D01*
G01*
G37*
G36*
G01*
X148395002Y-48400000D02*
X147095000Y-48400000D01*
G75*
G02*
X146845001Y-48150001I0J249999D01*
G01*
X146845001Y-47499999D01*
G75*
G02*
X147095000Y-47250000I249999J0D01*
G01*
X148395002Y-47250000D01*
G75*
G02*
X148645001Y-47499999I0J-249999D01*
G01*
X148645001Y-48150001D01*
G75*
G02*
X148395002Y-48400000I-249999J0D01*
G01*
G37*
G36*
G01*
X148395002Y-45450000D02*
X147095000Y-45450000D01*
G75*
G02*
X146845001Y-45200001I0J249999D01*
G01*
X146845001Y-44549999D01*
G75*
G02*
X147095000Y-44300000I249999J0D01*
G01*
X148395002Y-44300000D01*
G75*
G02*
X148645001Y-44549999I0J-249999D01*
G01*
X148645001Y-45200001D01*
G75*
G02*
X148395002Y-45450000I-249999J0D01*
G01*
G37*
G36*
G01*
X105995000Y-101620000D02*
X107295002Y-101620000D01*
G75*
G02*
X107545001Y-101869999I0J-249999D01*
G01*
X107545001Y-102520001D01*
G75*
G02*
X107295002Y-102770000I-249999J0D01*
G01*
X105995000Y-102770000D01*
G75*
G02*
X105745001Y-102520001I0J249999D01*
G01*
X105745001Y-101869999D01*
G75*
G02*
X105995000Y-101620000I249999J0D01*
G01*
G37*
G36*
G01*
X105995000Y-98670000D02*
X107295002Y-98670000D01*
G75*
G02*
X107545001Y-98919999I0J-249999D01*
G01*
X107545001Y-99570001D01*
G75*
G02*
X107295002Y-99820000I-249999J0D01*
G01*
X105995000Y-99820000D01*
G75*
G02*
X105745001Y-99570001I0J249999D01*
G01*
X105745001Y-98919999D01*
G75*
G02*
X105995000Y-98670000I249999J0D01*
G01*
G37*
G36*
G01*
X77345000Y-98500000D02*
X78645002Y-98500000D01*
G75*
G02*
X78895001Y-98749999I0J-249999D01*
G01*
X78895001Y-99400001D01*
G75*
G02*
X78645002Y-99650000I-249999J0D01*
G01*
X77345000Y-99650000D01*
G75*
G02*
X77095001Y-99400001I0J249999D01*
G01*
X77095001Y-98749999D01*
G75*
G02*
X77345000Y-98500000I249999J0D01*
G01*
G37*
G36*
G01*
X77345000Y-101450000D02*
X78645002Y-101450000D01*
G75*
G02*
X78895001Y-101699999I0J-249999D01*
G01*
X78895001Y-102350001D01*
G75*
G02*
X78645002Y-102600000I-249999J0D01*
G01*
X77345000Y-102600000D01*
G75*
G02*
X77095001Y-102350001I0J249999D01*
G01*
X77095001Y-101699999D01*
G75*
G02*
X77345000Y-101450000I249999J0D01*
G01*
G37*
G36*
G01*
X134520000Y-101620000D02*
X135820002Y-101620000D01*
G75*
G02*
X136070001Y-101869999I0J-249999D01*
G01*
X136070001Y-102520001D01*
G75*
G02*
X135820002Y-102770000I-249999J0D01*
G01*
X134520000Y-102770000D01*
G75*
G02*
X134270001Y-102520001I0J249999D01*
G01*
X134270001Y-101869999D01*
G75*
G02*
X134520000Y-101620000I249999J0D01*
G01*
G37*
G36*
G01*
X134520000Y-98670000D02*
X135820002Y-98670000D01*
G75*
G02*
X136070001Y-98919999I0J-249999D01*
G01*
X136070001Y-99570001D01*
G75*
G02*
X135820002Y-99820000I-249999J0D01*
G01*
X134520000Y-99820000D01*
G75*
G02*
X134270001Y-99570001I0J249999D01*
G01*
X134270001Y-98919999D01*
G75*
G02*
X134520000Y-98670000I249999J0D01*
G01*
G37*
G36*
G01*
X119850002Y-102770000D02*
X118550000Y-102770000D01*
G75*
G02*
X118300001Y-102520001I0J249999D01*
G01*
X118300001Y-101869999D01*
G75*
G02*
X118550000Y-101620000I249999J0D01*
G01*
X119850002Y-101620000D01*
G75*
G02*
X120100001Y-101869999I0J-249999D01*
G01*
X120100001Y-102520001D01*
G75*
G02*
X119850002Y-102770000I-249999J0D01*
G01*
G37*
G36*
G01*
X119850002Y-99820000D02*
X118550000Y-99820000D01*
G75*
G02*
X118300001Y-99570001I0J249999D01*
G01*
X118300001Y-98919999D01*
G75*
G02*
X118550000Y-98670000I249999J0D01*
G01*
X119850002Y-98670000D01*
G75*
G02*
X120100001Y-98919999I0J-249999D01*
G01*
X120100001Y-99570001D01*
G75*
G02*
X119850002Y-99820000I-249999J0D01*
G01*
G37*
G36*
G01*
X62800002Y-102730000D02*
X61500000Y-102730000D01*
G75*
G02*
X61250001Y-102480001I0J249999D01*
G01*
X61250001Y-101829999D01*
G75*
G02*
X61500000Y-101580000I249999J0D01*
G01*
X62800002Y-101580000D01*
G75*
G02*
X63050001Y-101829999I0J-249999D01*
G01*
X63050001Y-102480001D01*
G75*
G02*
X62800002Y-102730000I-249999J0D01*
G01*
G37*
G36*
G01*
X62800002Y-99780000D02*
X61500000Y-99780000D01*
G75*
G02*
X61250001Y-99530001I0J249999D01*
G01*
X61250001Y-98879999D01*
G75*
G02*
X61500000Y-98630000I249999J0D01*
G01*
X62800002Y-98630000D01*
G75*
G02*
X63050001Y-98879999I0J-249999D01*
G01*
X63050001Y-99530001D01*
G75*
G02*
X62800002Y-99780000I-249999J0D01*
G01*
G37*
G36*
G01*
X91325002Y-102770000D02*
X90025000Y-102770000D01*
G75*
G02*
X89775001Y-102520001I0J249999D01*
G01*
X89775001Y-101869999D01*
G75*
G02*
X90025000Y-101620000I249999J0D01*
G01*
X91325002Y-101620000D01*
G75*
G02*
X91575001Y-101869999I0J-249999D01*
G01*
X91575001Y-102520001D01*
G75*
G02*
X91325002Y-102770000I-249999J0D01*
G01*
G37*
G36*
G01*
X91325002Y-99820000D02*
X90025000Y-99820000D01*
G75*
G02*
X89775001Y-99570001I0J249999D01*
G01*
X89775001Y-98919999D01*
G75*
G02*
X90025000Y-98670000I249999J0D01*
G01*
X91325002Y-98670000D01*
G75*
G02*
X91575001Y-98919999I0J-249999D01*
G01*
X91575001Y-99570001D01*
G75*
G02*
X91325002Y-99820000I-249999J0D01*
G01*
G37*
G36*
G01*
X148395002Y-102770000D02*
X147095000Y-102770000D01*
G75*
G02*
X146845001Y-102520001I0J249999D01*
G01*
X146845001Y-101869999D01*
G75*
G02*
X147095000Y-101620000I249999J0D01*
G01*
X148395002Y-101620000D01*
G75*
G02*
X148645001Y-101869999I0J-249999D01*
G01*
X148645001Y-102520001D01*
G75*
G02*
X148395002Y-102770000I-249999J0D01*
G01*
G37*
G36*
G01*
X148395002Y-99820000D02*
X147095000Y-99820000D01*
G75*
G02*
X146845001Y-99570001I0J249999D01*
G01*
X146845001Y-98919999D01*
G75*
G02*
X147095000Y-98670000I249999J0D01*
G01*
X148395002Y-98670000D01*
G75*
G02*
X148645001Y-98919999I0J-249999D01*
G01*
X148645001Y-99570001D01*
G75*
G02*
X148395002Y-99820000I-249999J0D01*
G01*
G37*
G36*
G01*
X48900000Y-156880000D02*
X50200002Y-156880000D01*
G75*
G02*
X50450001Y-157129999I0J-249999D01*
G01*
X50450001Y-157780001D01*
G75*
G02*
X50200002Y-158030000I-249999J0D01*
G01*
X48900000Y-158030000D01*
G75*
G02*
X48650001Y-157780001I0J249999D01*
G01*
X48650001Y-157129999D01*
G75*
G02*
X48900000Y-156880000I249999J0D01*
G01*
G37*
G36*
G01*
X48900000Y-153930000D02*
X50200002Y-153930000D01*
G75*
G02*
X50450001Y-154179999I0J-249999D01*
G01*
X50450001Y-154830001D01*
G75*
G02*
X50200002Y-155080000I-249999J0D01*
G01*
X48900000Y-155080000D01*
G75*
G02*
X48650001Y-154830001I0J249999D01*
G01*
X48650001Y-154179999D01*
G75*
G02*
X48900000Y-153930000I249999J0D01*
G01*
G37*
G36*
G01*
X77425000Y-156830000D02*
X78725002Y-156830000D01*
G75*
G02*
X78975001Y-157079999I0J-249999D01*
G01*
X78975001Y-157730001D01*
G75*
G02*
X78725002Y-157980000I-249999J0D01*
G01*
X77425000Y-157980000D01*
G75*
G02*
X77175001Y-157730001I0J249999D01*
G01*
X77175001Y-157079999D01*
G75*
G02*
X77425000Y-156830000I249999J0D01*
G01*
G37*
G36*
G01*
X77425000Y-153880000D02*
X78725002Y-153880000D01*
G75*
G02*
X78975001Y-154129999I0J-249999D01*
G01*
X78975001Y-154780001D01*
G75*
G02*
X78725002Y-155030000I-249999J0D01*
G01*
X77425000Y-155030000D01*
G75*
G02*
X77175001Y-154780001I0J249999D01*
G01*
X77175001Y-154129999D01*
G75*
G02*
X77425000Y-153880000I249999J0D01*
G01*
G37*
G36*
G01*
X134495000Y-153930000D02*
X135795002Y-153930000D01*
G75*
G02*
X136045001Y-154179999I0J-249999D01*
G01*
X136045001Y-154830001D01*
G75*
G02*
X135795002Y-155080000I-249999J0D01*
G01*
X134495000Y-155080000D01*
G75*
G02*
X134245001Y-154830001I0J249999D01*
G01*
X134245001Y-154179999D01*
G75*
G02*
X134495000Y-153930000I249999J0D01*
G01*
G37*
G36*
G01*
X134495000Y-156880000D02*
X135795002Y-156880000D01*
G75*
G02*
X136045001Y-157129999I0J-249999D01*
G01*
X136045001Y-157780001D01*
G75*
G02*
X135795002Y-158030000I-249999J0D01*
G01*
X134495000Y-158030000D01*
G75*
G02*
X134245001Y-157780001I0J249999D01*
G01*
X134245001Y-157129999D01*
G75*
G02*
X134495000Y-156880000I249999J0D01*
G01*
G37*
G36*
G01*
X119825002Y-155080000D02*
X118525000Y-155080000D01*
G75*
G02*
X118275001Y-154830001I0J249999D01*
G01*
X118275001Y-154179999D01*
G75*
G02*
X118525000Y-153930000I249999J0D01*
G01*
X119825002Y-153930000D01*
G75*
G02*
X120075001Y-154179999I0J-249999D01*
G01*
X120075001Y-154830001D01*
G75*
G02*
X119825002Y-155080000I-249999J0D01*
G01*
G37*
G36*
G01*
X119825002Y-158030000D02*
X118525000Y-158030000D01*
G75*
G02*
X118275001Y-157780001I0J249999D01*
G01*
X118275001Y-157129999D01*
G75*
G02*
X118525000Y-156880000I249999J0D01*
G01*
X119825002Y-156880000D01*
G75*
G02*
X120075001Y-157129999I0J-249999D01*
G01*
X120075001Y-157780001D01*
G75*
G02*
X119825002Y-158030000I-249999J0D01*
G01*
G37*
G36*
G01*
X62775002Y-155030000D02*
X61475000Y-155030000D01*
G75*
G02*
X61225001Y-154780001I0J249999D01*
G01*
X61225001Y-154129999D01*
G75*
G02*
X61475000Y-153880000I249999J0D01*
G01*
X62775002Y-153880000D01*
G75*
G02*
X63025001Y-154129999I0J-249999D01*
G01*
X63025001Y-154780001D01*
G75*
G02*
X62775002Y-155030000I-249999J0D01*
G01*
G37*
G36*
G01*
X62775002Y-157980000D02*
X61475000Y-157980000D01*
G75*
G02*
X61225001Y-157730001I0J249999D01*
G01*
X61225001Y-157079999D01*
G75*
G02*
X61475000Y-156830000I249999J0D01*
G01*
X62775002Y-156830000D01*
G75*
G02*
X63025001Y-157079999I0J-249999D01*
G01*
X63025001Y-157730001D01*
G75*
G02*
X62775002Y-157980000I-249999J0D01*
G01*
G37*
G36*
G01*
X91300002Y-158170000D02*
X90000000Y-158170000D01*
G75*
G02*
X89750001Y-157920001I0J249999D01*
G01*
X89750001Y-157269999D01*
G75*
G02*
X90000000Y-157020000I249999J0D01*
G01*
X91300002Y-157020000D01*
G75*
G02*
X91550001Y-157269999I0J-249999D01*
G01*
X91550001Y-157920001D01*
G75*
G02*
X91300002Y-158170000I-249999J0D01*
G01*
G37*
G36*
G01*
X91300002Y-155220000D02*
X90000000Y-155220000D01*
G75*
G02*
X89750001Y-154970001I0J249999D01*
G01*
X89750001Y-154319999D01*
G75*
G02*
X90000000Y-154070000I249999J0D01*
G01*
X91300002Y-154070000D01*
G75*
G02*
X91550001Y-154319999I0J-249999D01*
G01*
X91550001Y-154970001D01*
G75*
G02*
X91300002Y-155220000I-249999J0D01*
G01*
G37*
G36*
G01*
X148370002Y-155080000D02*
X147070000Y-155080000D01*
G75*
G02*
X146820001Y-154830001I0J249999D01*
G01*
X146820001Y-154179999D01*
G75*
G02*
X147070000Y-153930000I249999J0D01*
G01*
X148370002Y-153930000D01*
G75*
G02*
X148620001Y-154179999I0J-249999D01*
G01*
X148620001Y-154830001D01*
G75*
G02*
X148370002Y-155080000I-249999J0D01*
G01*
G37*
G36*
G01*
X148370002Y-158030000D02*
X147070000Y-158030000D01*
G75*
G02*
X146820001Y-157780001I0J249999D01*
G01*
X146820001Y-157129999D01*
G75*
G02*
X147070000Y-156880000I249999J0D01*
G01*
X148370002Y-156880000D01*
G75*
G02*
X148620001Y-157129999I0J-249999D01*
G01*
X148620001Y-157780001D01*
G75*
G02*
X148370002Y-158030000I-249999J0D01*
G01*
G37*
D11*
X22410001Y-64154999D03*
X22410001Y-67354999D03*
X22410001Y-69554999D03*
X22410001Y-71754999D03*
X29150001Y-71754999D03*
X29150001Y-69554999D03*
X29150001Y-67354999D03*
X29150001Y-64154999D03*
X22260000Y-119500000D03*
X22260000Y-122700000D03*
X22260000Y-124900000D03*
X22260000Y-127100000D03*
X29000000Y-127100000D03*
X29000000Y-124900000D03*
X29000000Y-122700000D03*
X29000000Y-119500000D03*
X29000000Y-175000000D03*
X29000000Y-178200000D03*
X29000000Y-180400000D03*
X29000000Y-182600000D03*
X22260000Y-182600000D03*
X22260000Y-180400000D03*
X22260000Y-178200000D03*
X22260000Y-175000000D03*
G36*
G01*
X26831371Y-52700003D02*
X26831371Y-51449997D01*
G75*
G02*
X27081368Y-51200000I249997J0D01*
G01*
X27706374Y-51200000D01*
G75*
G02*
X27956371Y-51449997I0J-249997D01*
G01*
X27956371Y-52700003D01*
G75*
G02*
X27706374Y-52950000I-249997J0D01*
G01*
X27081368Y-52950000D01*
G75*
G02*
X26831371Y-52700003I0J249997D01*
G01*
G37*
G36*
G01*
X23906371Y-52700003D02*
X23906371Y-51449997D01*
G75*
G02*
X24156368Y-51200000I249997J0D01*
G01*
X24781374Y-51200000D01*
G75*
G02*
X25031371Y-51449997I0J-249997D01*
G01*
X25031371Y-52700003D01*
G75*
G02*
X24781374Y-52950000I-249997J0D01*
G01*
X24156368Y-52950000D01*
G75*
G02*
X23906371Y-52700003I0J249997D01*
G01*
G37*
G36*
G01*
X67455002Y-45450000D02*
X66204996Y-45450000D01*
G75*
G02*
X65954999Y-45200003I0J249997D01*
G01*
X65954999Y-44574997D01*
G75*
G02*
X66204996Y-44325000I249997J0D01*
G01*
X67455002Y-44325000D01*
G75*
G02*
X67704999Y-44574997I0J-249997D01*
G01*
X67704999Y-45200003D01*
G75*
G02*
X67455002Y-45450000I-249997J0D01*
G01*
G37*
G36*
G01*
X67455002Y-48375000D02*
X66204996Y-48375000D01*
G75*
G02*
X65954999Y-48125003I0J249997D01*
G01*
X65954999Y-47499997D01*
G75*
G02*
X66204996Y-47250000I249997J0D01*
G01*
X67455002Y-47250000D01*
G75*
G02*
X67704999Y-47499997I0J-249997D01*
G01*
X67704999Y-48125003D01*
G75*
G02*
X67455002Y-48375000I-249997J0D01*
G01*
G37*
G36*
G01*
X105989998Y-44325000D02*
X107240004Y-44325000D01*
G75*
G02*
X107490001Y-44574997I0J-249997D01*
G01*
X107490001Y-45200003D01*
G75*
G02*
X107240004Y-45450000I-249997J0D01*
G01*
X105989998Y-45450000D01*
G75*
G02*
X105740001Y-45200003I0J249997D01*
G01*
X105740001Y-44574997D01*
G75*
G02*
X105989998Y-44325000I249997J0D01*
G01*
G37*
G36*
G01*
X105989998Y-47250000D02*
X107240004Y-47250000D01*
G75*
G02*
X107490001Y-47499997I0J-249997D01*
G01*
X107490001Y-48125003D01*
G75*
G02*
X107240004Y-48375000I-249997J0D01*
G01*
X105989998Y-48375000D01*
G75*
G02*
X105740001Y-48125003I0J249997D01*
G01*
X105740001Y-47499997D01*
G75*
G02*
X105989998Y-47250000I249997J0D01*
G01*
G37*
G36*
G01*
X53629996Y-47250000D02*
X54880002Y-47250000D01*
G75*
G02*
X55129999Y-47499997I0J-249997D01*
G01*
X55129999Y-48125003D01*
G75*
G02*
X54880002Y-48375000I-249997J0D01*
G01*
X53629996Y-48375000D01*
G75*
G02*
X53379999Y-48125003I0J249997D01*
G01*
X53379999Y-47499997D01*
G75*
G02*
X53629996Y-47250000I249997J0D01*
G01*
G37*
G36*
G01*
X53629996Y-44325000D02*
X54880002Y-44325000D01*
G75*
G02*
X55129999Y-44574997I0J-249997D01*
G01*
X55129999Y-45200003D01*
G75*
G02*
X54880002Y-45450000I-249997J0D01*
G01*
X53629996Y-45450000D01*
G75*
G02*
X53379999Y-45200003I0J249997D01*
G01*
X53379999Y-44574997D01*
G75*
G02*
X53629996Y-44325000I249997J0D01*
G01*
G37*
G36*
G01*
X82154996Y-47250000D02*
X83405002Y-47250000D01*
G75*
G02*
X83654999Y-47499997I0J-249997D01*
G01*
X83654999Y-48125003D01*
G75*
G02*
X83405002Y-48375000I-249997J0D01*
G01*
X82154996Y-48375000D01*
G75*
G02*
X81904999Y-48125003I0J249997D01*
G01*
X81904999Y-47499997D01*
G75*
G02*
X82154996Y-47250000I249997J0D01*
G01*
G37*
G36*
G01*
X82154996Y-44325000D02*
X83405002Y-44325000D01*
G75*
G02*
X83654999Y-44574997I0J-249997D01*
G01*
X83654999Y-45200003D01*
G75*
G02*
X83405002Y-45450000I-249997J0D01*
G01*
X82154996Y-45450000D01*
G75*
G02*
X81904999Y-45200003I0J249997D01*
G01*
X81904999Y-44574997D01*
G75*
G02*
X82154996Y-44325000I249997J0D01*
G01*
G37*
G36*
G01*
X139224996Y-44325000D02*
X140475002Y-44325000D01*
G75*
G02*
X140724999Y-44574997I0J-249997D01*
G01*
X140724999Y-45200003D01*
G75*
G02*
X140475002Y-45450000I-249997J0D01*
G01*
X139224996Y-45450000D01*
G75*
G02*
X138974999Y-45200003I0J249997D01*
G01*
X138974999Y-44574997D01*
G75*
G02*
X139224996Y-44325000I249997J0D01*
G01*
G37*
G36*
G01*
X139224996Y-47250000D02*
X140475002Y-47250000D01*
G75*
G02*
X140724999Y-47499997I0J-249997D01*
G01*
X140724999Y-48125003D01*
G75*
G02*
X140475002Y-48375000I-249997J0D01*
G01*
X139224996Y-48375000D01*
G75*
G02*
X138974999Y-48125003I0J249997D01*
G01*
X138974999Y-47499997D01*
G75*
G02*
X139224996Y-47250000I249997J0D01*
G01*
G37*
G36*
G01*
X124505002Y-48375000D02*
X123254996Y-48375000D01*
G75*
G02*
X123004999Y-48125003I0J249997D01*
G01*
X123004999Y-47499997D01*
G75*
G02*
X123254996Y-47250000I249997J0D01*
G01*
X124505002Y-47250000D01*
G75*
G02*
X124754999Y-47499997I0J-249997D01*
G01*
X124754999Y-48125003D01*
G75*
G02*
X124505002Y-48375000I-249997J0D01*
G01*
G37*
G36*
G01*
X124505002Y-45450000D02*
X123254996Y-45450000D01*
G75*
G02*
X123004999Y-45200003I0J249997D01*
G01*
X123004999Y-44574997D01*
G75*
G02*
X123254996Y-44325000I249997J0D01*
G01*
X124505002Y-44325000D01*
G75*
G02*
X124754999Y-44574997I0J-249997D01*
G01*
X124754999Y-45200003D01*
G75*
G02*
X124505002Y-45450000I-249997J0D01*
G01*
G37*
G36*
G01*
X91270004Y-45450000D02*
X90019998Y-45450000D01*
G75*
G02*
X89770001Y-45200003I0J249997D01*
G01*
X89770001Y-44574997D01*
G75*
G02*
X90019998Y-44325000I249997J0D01*
G01*
X91270004Y-44325000D01*
G75*
G02*
X91520001Y-44574997I0J-249997D01*
G01*
X91520001Y-45200003D01*
G75*
G02*
X91270004Y-45450000I-249997J0D01*
G01*
G37*
G36*
G01*
X91270004Y-48375000D02*
X90019998Y-48375000D01*
G75*
G02*
X89770001Y-48125003I0J249997D01*
G01*
X89770001Y-47499997D01*
G75*
G02*
X90019998Y-47250000I249997J0D01*
G01*
X91270004Y-47250000D01*
G75*
G02*
X91520001Y-47499997I0J-249997D01*
G01*
X91520001Y-48125003D01*
G75*
G02*
X91270004Y-48375000I-249997J0D01*
G01*
G37*
G36*
G01*
X153050002Y-45450000D02*
X151799996Y-45450000D01*
G75*
G02*
X151549999Y-45200003I0J249997D01*
G01*
X151549999Y-44574997D01*
G75*
G02*
X151799996Y-44325000I249997J0D01*
G01*
X153050002Y-44325000D01*
G75*
G02*
X153299999Y-44574997I0J-249997D01*
G01*
X153299999Y-45200003D01*
G75*
G02*
X153050002Y-45450000I-249997J0D01*
G01*
G37*
G36*
G01*
X153050002Y-48375000D02*
X151799996Y-48375000D01*
G75*
G02*
X151549999Y-48125003I0J249997D01*
G01*
X151549999Y-47499997D01*
G75*
G02*
X151799996Y-47250000I249997J0D01*
G01*
X153050002Y-47250000D01*
G75*
G02*
X153299999Y-47499997I0J-249997D01*
G01*
X153299999Y-48125003D01*
G75*
G02*
X153050002Y-48375000I-249997J0D01*
G01*
G37*
G36*
G01*
X24375003Y-56725685D02*
X23124997Y-56725685D01*
G75*
G02*
X22875000Y-56475688I0J249997D01*
G01*
X22875000Y-55850682D01*
G75*
G02*
X23124997Y-55600685I249997J0D01*
G01*
X24375003Y-55600685D01*
G75*
G02*
X24625000Y-55850682I0J-249997D01*
G01*
X24625000Y-56475688D01*
G75*
G02*
X24375003Y-56725685I-249997J0D01*
G01*
G37*
G36*
G01*
X24375003Y-59650685D02*
X23124997Y-59650685D01*
G75*
G02*
X22875000Y-59400688I0J249997D01*
G01*
X22875000Y-58775682D01*
G75*
G02*
X23124997Y-58525685I249997J0D01*
G01*
X24375003Y-58525685D01*
G75*
G02*
X24625000Y-58775682I0J-249997D01*
G01*
X24625000Y-59400688D01*
G75*
G02*
X24375003Y-59650685I-249997J0D01*
G01*
G37*
G36*
G01*
X23800000Y-107625003D02*
X23800000Y-106374997D01*
G75*
G02*
X24049997Y-106125000I249997J0D01*
G01*
X24675003Y-106125000D01*
G75*
G02*
X24925000Y-106374997I0J-249997D01*
G01*
X24925000Y-107625003D01*
G75*
G02*
X24675003Y-107875000I-249997J0D01*
G01*
X24049997Y-107875000D01*
G75*
G02*
X23800000Y-107625003I0J249997D01*
G01*
G37*
G36*
G01*
X26725000Y-107625003D02*
X26725000Y-106374997D01*
G75*
G02*
X26974997Y-106125000I249997J0D01*
G01*
X27600003Y-106125000D01*
G75*
G02*
X27850000Y-106374997I0J-249997D01*
G01*
X27850000Y-107625003D01*
G75*
G02*
X27600003Y-107875000I-249997J0D01*
G01*
X26974997Y-107875000D01*
G75*
G02*
X26725000Y-107625003I0J249997D01*
G01*
G37*
G36*
G01*
X110699996Y-98695000D02*
X111950002Y-98695000D01*
G75*
G02*
X112199999Y-98944997I0J-249997D01*
G01*
X112199999Y-99570003D01*
G75*
G02*
X111950002Y-99820000I-249997J0D01*
G01*
X110699996Y-99820000D01*
G75*
G02*
X110449999Y-99570003I0J249997D01*
G01*
X110449999Y-98944997D01*
G75*
G02*
X110699996Y-98695000I249997J0D01*
G01*
G37*
G36*
G01*
X110699996Y-101620000D02*
X111950002Y-101620000D01*
G75*
G02*
X112199999Y-101869997I0J-249997D01*
G01*
X112199999Y-102495003D01*
G75*
G02*
X111950002Y-102745000I-249997J0D01*
G01*
X110699996Y-102745000D01*
G75*
G02*
X110449999Y-102495003I0J249997D01*
G01*
X110449999Y-101869997D01*
G75*
G02*
X110699996Y-101620000I249997J0D01*
G01*
G37*
G36*
G01*
X53629996Y-98655000D02*
X54880002Y-98655000D01*
G75*
G02*
X55129999Y-98904997I0J-249997D01*
G01*
X55129999Y-99530003D01*
G75*
G02*
X54880002Y-99780000I-249997J0D01*
G01*
X53629996Y-99780000D01*
G75*
G02*
X53379999Y-99530003I0J249997D01*
G01*
X53379999Y-98904997D01*
G75*
G02*
X53629996Y-98655000I249997J0D01*
G01*
G37*
G36*
G01*
X53629996Y-101580000D02*
X54880002Y-101580000D01*
G75*
G02*
X55129999Y-101829997I0J-249997D01*
G01*
X55129999Y-102455003D01*
G75*
G02*
X54880002Y-102705000I-249997J0D01*
G01*
X53629996Y-102705000D01*
G75*
G02*
X53379999Y-102455003I0J249997D01*
G01*
X53379999Y-101829997D01*
G75*
G02*
X53629996Y-101580000I249997J0D01*
G01*
G37*
G36*
G01*
X82154996Y-98525000D02*
X83405002Y-98525000D01*
G75*
G02*
X83654999Y-98774997I0J-249997D01*
G01*
X83654999Y-99400003D01*
G75*
G02*
X83405002Y-99650000I-249997J0D01*
G01*
X82154996Y-99650000D01*
G75*
G02*
X81904999Y-99400003I0J249997D01*
G01*
X81904999Y-98774997D01*
G75*
G02*
X82154996Y-98525000I249997J0D01*
G01*
G37*
G36*
G01*
X82154996Y-101450000D02*
X83405002Y-101450000D01*
G75*
G02*
X83654999Y-101699997I0J-249997D01*
G01*
X83654999Y-102325003D01*
G75*
G02*
X83405002Y-102575000I-249997J0D01*
G01*
X82154996Y-102575000D01*
G75*
G02*
X81904999Y-102325003I0J249997D01*
G01*
X81904999Y-101699997D01*
G75*
G02*
X82154996Y-101450000I249997J0D01*
G01*
G37*
G36*
G01*
X139224996Y-101620000D02*
X140475002Y-101620000D01*
G75*
G02*
X140724999Y-101869997I0J-249997D01*
G01*
X140724999Y-102495003D01*
G75*
G02*
X140475002Y-102745000I-249997J0D01*
G01*
X139224996Y-102745000D01*
G75*
G02*
X138974999Y-102495003I0J249997D01*
G01*
X138974999Y-101869997D01*
G75*
G02*
X139224996Y-101620000I249997J0D01*
G01*
G37*
G36*
G01*
X139224996Y-98695000D02*
X140475002Y-98695000D01*
G75*
G02*
X140724999Y-98944997I0J-249997D01*
G01*
X140724999Y-99570003D01*
G75*
G02*
X140475002Y-99820000I-249997J0D01*
G01*
X139224996Y-99820000D01*
G75*
G02*
X138974999Y-99570003I0J249997D01*
G01*
X138974999Y-98944997D01*
G75*
G02*
X139224996Y-98695000I249997J0D01*
G01*
G37*
G36*
G01*
X124505002Y-102745000D02*
X123254996Y-102745000D01*
G75*
G02*
X123004999Y-102495003I0J249997D01*
G01*
X123004999Y-101869997D01*
G75*
G02*
X123254996Y-101620000I249997J0D01*
G01*
X124505002Y-101620000D01*
G75*
G02*
X124754999Y-101869997I0J-249997D01*
G01*
X124754999Y-102495003D01*
G75*
G02*
X124505002Y-102745000I-249997J0D01*
G01*
G37*
G36*
G01*
X124505002Y-99820000D02*
X123254996Y-99820000D01*
G75*
G02*
X123004999Y-99570003I0J249997D01*
G01*
X123004999Y-98944997D01*
G75*
G02*
X123254996Y-98695000I249997J0D01*
G01*
X124505002Y-98695000D01*
G75*
G02*
X124754999Y-98944997I0J-249997D01*
G01*
X124754999Y-99570003D01*
G75*
G02*
X124505002Y-99820000I-249997J0D01*
G01*
G37*
G36*
G01*
X67455002Y-99650000D02*
X66204996Y-99650000D01*
G75*
G02*
X65954999Y-99400003I0J249997D01*
G01*
X65954999Y-98774997D01*
G75*
G02*
X66204996Y-98525000I249997J0D01*
G01*
X67455002Y-98525000D01*
G75*
G02*
X67704999Y-98774997I0J-249997D01*
G01*
X67704999Y-99400003D01*
G75*
G02*
X67455002Y-99650000I-249997J0D01*
G01*
G37*
G36*
G01*
X67455002Y-102575000D02*
X66204996Y-102575000D01*
G75*
G02*
X65954999Y-102325003I0J249997D01*
G01*
X65954999Y-101699997D01*
G75*
G02*
X66204996Y-101450000I249997J0D01*
G01*
X67455002Y-101450000D01*
G75*
G02*
X67704999Y-101699997I0J-249997D01*
G01*
X67704999Y-102325003D01*
G75*
G02*
X67455002Y-102575000I-249997J0D01*
G01*
G37*
G36*
G01*
X95980002Y-99820000D02*
X94729996Y-99820000D01*
G75*
G02*
X94479999Y-99570003I0J249997D01*
G01*
X94479999Y-98944997D01*
G75*
G02*
X94729996Y-98695000I249997J0D01*
G01*
X95980002Y-98695000D01*
G75*
G02*
X96229999Y-98944997I0J-249997D01*
G01*
X96229999Y-99570003D01*
G75*
G02*
X95980002Y-99820000I-249997J0D01*
G01*
G37*
G36*
G01*
X95980002Y-102745000D02*
X94729996Y-102745000D01*
G75*
G02*
X94479999Y-102495003I0J249997D01*
G01*
X94479999Y-101869997D01*
G75*
G02*
X94729996Y-101620000I249997J0D01*
G01*
X95980002Y-101620000D01*
G75*
G02*
X96229999Y-101869997I0J-249997D01*
G01*
X96229999Y-102495003D01*
G75*
G02*
X95980002Y-102745000I-249997J0D01*
G01*
G37*
G36*
G01*
X153050002Y-102745000D02*
X151799996Y-102745000D01*
G75*
G02*
X151549999Y-102495003I0J249997D01*
G01*
X151549999Y-101869997D01*
G75*
G02*
X151799996Y-101620000I249997J0D01*
G01*
X153050002Y-101620000D01*
G75*
G02*
X153299999Y-101869997I0J-249997D01*
G01*
X153299999Y-102495003D01*
G75*
G02*
X153050002Y-102745000I-249997J0D01*
G01*
G37*
G36*
G01*
X153050002Y-99820000D02*
X151799996Y-99820000D01*
G75*
G02*
X151549999Y-99570003I0J249997D01*
G01*
X151549999Y-98944997D01*
G75*
G02*
X151799996Y-98695000I249997J0D01*
G01*
X153050002Y-98695000D01*
G75*
G02*
X153299999Y-98944997I0J-249997D01*
G01*
X153299999Y-99570003D01*
G75*
G02*
X153050002Y-99820000I-249997J0D01*
G01*
G37*
G36*
G01*
X24425003Y-111650685D02*
X23174997Y-111650685D01*
G75*
G02*
X22925000Y-111400688I0J249997D01*
G01*
X22925000Y-110775682D01*
G75*
G02*
X23174997Y-110525685I249997J0D01*
G01*
X24425003Y-110525685D01*
G75*
G02*
X24675000Y-110775682I0J-249997D01*
G01*
X24675000Y-111400688D01*
G75*
G02*
X24425003Y-111650685I-249997J0D01*
G01*
G37*
G36*
G01*
X24425003Y-114575685D02*
X23174997Y-114575685D01*
G75*
G02*
X22925000Y-114325688I0J249997D01*
G01*
X22925000Y-113700682D01*
G75*
G02*
X23174997Y-113450685I249997J0D01*
G01*
X24425003Y-113450685D01*
G75*
G02*
X24675000Y-113700682I0J-249997D01*
G01*
X24675000Y-114325688D01*
G75*
G02*
X24425003Y-114575685I-249997J0D01*
G01*
G37*
G36*
G01*
X26620000Y-163100003D02*
X26620000Y-161849997D01*
G75*
G02*
X26869997Y-161600000I249997J0D01*
G01*
X27495003Y-161600000D01*
G75*
G02*
X27745000Y-161849997I0J-249997D01*
G01*
X27745000Y-163100003D01*
G75*
G02*
X27495003Y-163350000I-249997J0D01*
G01*
X26869997Y-163350000D01*
G75*
G02*
X26620000Y-163100003I0J249997D01*
G01*
G37*
G36*
G01*
X23695000Y-163100003D02*
X23695000Y-161849997D01*
G75*
G02*
X23944997Y-161600000I249997J0D01*
G01*
X24570003Y-161600000D01*
G75*
G02*
X24820000Y-161849997I0J-249997D01*
G01*
X24820000Y-163100003D01*
G75*
G02*
X24570003Y-163350000I-249997J0D01*
G01*
X23944997Y-163350000D01*
G75*
G02*
X23695000Y-163100003I0J249997D01*
G01*
G37*
G36*
G01*
X53604996Y-153905000D02*
X54855002Y-153905000D01*
G75*
G02*
X55104999Y-154154997I0J-249997D01*
G01*
X55104999Y-154780003D01*
G75*
G02*
X54855002Y-155030000I-249997J0D01*
G01*
X53604996Y-155030000D01*
G75*
G02*
X53354999Y-154780003I0J249997D01*
G01*
X53354999Y-154154997D01*
G75*
G02*
X53604996Y-153905000I249997J0D01*
G01*
G37*
G36*
G01*
X53604996Y-156830000D02*
X54855002Y-156830000D01*
G75*
G02*
X55104999Y-157079997I0J-249997D01*
G01*
X55104999Y-157705003D01*
G75*
G02*
X54855002Y-157955000I-249997J0D01*
G01*
X53604996Y-157955000D01*
G75*
G02*
X53354999Y-157705003I0J249997D01*
G01*
X53354999Y-157079997D01*
G75*
G02*
X53604996Y-156830000I249997J0D01*
G01*
G37*
G36*
G01*
X82129996Y-156830000D02*
X83380002Y-156830000D01*
G75*
G02*
X83629999Y-157079997I0J-249997D01*
G01*
X83629999Y-157705003D01*
G75*
G02*
X83380002Y-157955000I-249997J0D01*
G01*
X82129996Y-157955000D01*
G75*
G02*
X81879999Y-157705003I0J249997D01*
G01*
X81879999Y-157079997D01*
G75*
G02*
X82129996Y-156830000I249997J0D01*
G01*
G37*
G36*
G01*
X82129996Y-153905000D02*
X83380002Y-153905000D01*
G75*
G02*
X83629999Y-154154997I0J-249997D01*
G01*
X83629999Y-154780003D01*
G75*
G02*
X83380002Y-155030000I-249997J0D01*
G01*
X82129996Y-155030000D01*
G75*
G02*
X81879999Y-154780003I0J249997D01*
G01*
X81879999Y-154154997D01*
G75*
G02*
X82129996Y-153905000I249997J0D01*
G01*
G37*
G36*
G01*
X139199996Y-153955000D02*
X140450002Y-153955000D01*
G75*
G02*
X140699999Y-154204997I0J-249997D01*
G01*
X140699999Y-154830003D01*
G75*
G02*
X140450002Y-155080000I-249997J0D01*
G01*
X139199996Y-155080000D01*
G75*
G02*
X138949999Y-154830003I0J249997D01*
G01*
X138949999Y-154204997D01*
G75*
G02*
X139199996Y-153955000I249997J0D01*
G01*
G37*
G36*
G01*
X139199996Y-156880000D02*
X140450002Y-156880000D01*
G75*
G02*
X140699999Y-157129997I0J-249997D01*
G01*
X140699999Y-157755003D01*
G75*
G02*
X140450002Y-158005000I-249997J0D01*
G01*
X139199996Y-158005000D01*
G75*
G02*
X138949999Y-157755003I0J249997D01*
G01*
X138949999Y-157129997D01*
G75*
G02*
X139199996Y-156880000I249997J0D01*
G01*
G37*
G36*
G01*
X124480002Y-158005000D02*
X123229996Y-158005000D01*
G75*
G02*
X122979999Y-157755003I0J249997D01*
G01*
X122979999Y-157129997D01*
G75*
G02*
X123229996Y-156880000I249997J0D01*
G01*
X124480002Y-156880000D01*
G75*
G02*
X124729999Y-157129997I0J-249997D01*
G01*
X124729999Y-157755003D01*
G75*
G02*
X124480002Y-158005000I-249997J0D01*
G01*
G37*
G36*
G01*
X124480002Y-155080000D02*
X123229996Y-155080000D01*
G75*
G02*
X122979999Y-154830003I0J249997D01*
G01*
X122979999Y-154204997D01*
G75*
G02*
X123229996Y-153955000I249997J0D01*
G01*
X124480002Y-153955000D01*
G75*
G02*
X124729999Y-154204997I0J-249997D01*
G01*
X124729999Y-154830003D01*
G75*
G02*
X124480002Y-155080000I-249997J0D01*
G01*
G37*
G36*
G01*
X67430002Y-157955000D02*
X66179996Y-157955000D01*
G75*
G02*
X65929999Y-157705003I0J249997D01*
G01*
X65929999Y-157079997D01*
G75*
G02*
X66179996Y-156830000I249997J0D01*
G01*
X67430002Y-156830000D01*
G75*
G02*
X67679999Y-157079997I0J-249997D01*
G01*
X67679999Y-157705003D01*
G75*
G02*
X67430002Y-157955000I-249997J0D01*
G01*
G37*
G36*
G01*
X67430002Y-155030000D02*
X66179996Y-155030000D01*
G75*
G02*
X65929999Y-154780003I0J249997D01*
G01*
X65929999Y-154154997D01*
G75*
G02*
X66179996Y-153905000I249997J0D01*
G01*
X67430002Y-153905000D01*
G75*
G02*
X67679999Y-154154997I0J-249997D01*
G01*
X67679999Y-154780003D01*
G75*
G02*
X67430002Y-155030000I-249997J0D01*
G01*
G37*
G36*
G01*
X95955002Y-158085000D02*
X94704996Y-158085000D01*
G75*
G02*
X94454999Y-157835003I0J249997D01*
G01*
X94454999Y-157209997D01*
G75*
G02*
X94704996Y-156960000I249997J0D01*
G01*
X95955002Y-156960000D01*
G75*
G02*
X96204999Y-157209997I0J-249997D01*
G01*
X96204999Y-157835003D01*
G75*
G02*
X95955002Y-158085000I-249997J0D01*
G01*
G37*
G36*
G01*
X95955002Y-155160000D02*
X94704996Y-155160000D01*
G75*
G02*
X94454999Y-154910003I0J249997D01*
G01*
X94454999Y-154284997D01*
G75*
G02*
X94704996Y-154035000I249997J0D01*
G01*
X95955002Y-154035000D01*
G75*
G02*
X96204999Y-154284997I0J-249997D01*
G01*
X96204999Y-154910003D01*
G75*
G02*
X95955002Y-155160000I-249997J0D01*
G01*
G37*
G36*
G01*
X153025002Y-155080000D02*
X151774996Y-155080000D01*
G75*
G02*
X151524999Y-154830003I0J249997D01*
G01*
X151524999Y-154204997D01*
G75*
G02*
X151774996Y-153955000I249997J0D01*
G01*
X153025002Y-153955000D01*
G75*
G02*
X153274999Y-154204997I0J-249997D01*
G01*
X153274999Y-154830003D01*
G75*
G02*
X153025002Y-155080000I-249997J0D01*
G01*
G37*
G36*
G01*
X153025002Y-158005000D02*
X151774996Y-158005000D01*
G75*
G02*
X151524999Y-157755003I0J249997D01*
G01*
X151524999Y-157129997D01*
G75*
G02*
X151774996Y-156880000I249997J0D01*
G01*
X153025002Y-156880000D01*
G75*
G02*
X153274999Y-157129997I0J-249997D01*
G01*
X153274999Y-157755003D01*
G75*
G02*
X153025002Y-158005000I-249997J0D01*
G01*
G37*
G36*
G01*
X24375003Y-167125685D02*
X23124997Y-167125685D01*
G75*
G02*
X22875000Y-166875688I0J249997D01*
G01*
X22875000Y-166250682D01*
G75*
G02*
X23124997Y-166000685I249997J0D01*
G01*
X24375003Y-166000685D01*
G75*
G02*
X24625000Y-166250682I0J-249997D01*
G01*
X24625000Y-166875688D01*
G75*
G02*
X24375003Y-167125685I-249997J0D01*
G01*
G37*
G36*
G01*
X24375003Y-170050685D02*
X23124997Y-170050685D01*
G75*
G02*
X22875000Y-169800688I0J249997D01*
G01*
X22875000Y-169175682D01*
G75*
G02*
X23124997Y-168925685I249997J0D01*
G01*
X24375003Y-168925685D01*
G75*
G02*
X24625000Y-169175682I0J-249997D01*
G01*
X24625000Y-169800688D01*
G75*
G02*
X24375003Y-170050685I-249997J0D01*
G01*
G37*
D10*
X20210000Y-44420000D03*
X20210000Y-46520000D03*
X19790000Y-156400000D03*
X19790000Y-154300000D03*
G36*
G01*
X22832500Y-40275001D02*
X22832500Y-35324999D01*
G75*
G02*
X23082499Y-35075000I249999J0D01*
G01*
X24507501Y-35075000D01*
G75*
G02*
X24757500Y-35324999I0J-249999D01*
G01*
X24757500Y-40275001D01*
G75*
G02*
X24507501Y-40525000I-249999J0D01*
G01*
X23082499Y-40525000D01*
G75*
G02*
X22832500Y-40275001I0J249999D01*
G01*
G37*
G36*
G01*
X29607500Y-40275001D02*
X29607500Y-35324999D01*
G75*
G02*
X29857499Y-35075000I249999J0D01*
G01*
X31282501Y-35075000D01*
G75*
G02*
X31532500Y-35324999I0J-249999D01*
G01*
X31532500Y-40275001D01*
G75*
G02*
X31282501Y-40525000I-249999J0D01*
G01*
X29857499Y-40525000D01*
G75*
G02*
X29607500Y-40275001I0J249999D01*
G01*
G37*
G36*
G01*
X28855000Y-93655001D02*
X28855000Y-88704999D01*
G75*
G02*
X29104999Y-88455000I249999J0D01*
G01*
X30530001Y-88455000D01*
G75*
G02*
X30780000Y-88704999I0J-249999D01*
G01*
X30780000Y-93655001D01*
G75*
G02*
X30530001Y-93905000I-249999J0D01*
G01*
X29104999Y-93905000D01*
G75*
G02*
X28855000Y-93655001I0J249999D01*
G01*
G37*
G36*
G01*
X22080000Y-93655001D02*
X22080000Y-88704999D01*
G75*
G02*
X22329999Y-88455000I249999J0D01*
G01*
X23755001Y-88455000D01*
G75*
G02*
X24005000Y-88704999I0J-249999D01*
G01*
X24005000Y-93655001D01*
G75*
G02*
X23755001Y-93905000I-249999J0D01*
G01*
X22329999Y-93905000D01*
G75*
G02*
X22080000Y-93655001I0J249999D01*
G01*
G37*
G36*
G01*
X23180000Y-149185001D02*
X23180000Y-144234999D01*
G75*
G02*
X23429999Y-143985000I249999J0D01*
G01*
X24855001Y-143985000D01*
G75*
G02*
X25105000Y-144234999I0J-249999D01*
G01*
X25105000Y-149185001D01*
G75*
G02*
X24855001Y-149435000I-249999J0D01*
G01*
X23429999Y-149435000D01*
G75*
G02*
X23180000Y-149185001I0J249999D01*
G01*
G37*
G36*
G01*
X29955000Y-149185001D02*
X29955000Y-144234999D01*
G75*
G02*
X30204999Y-143985000I249999J0D01*
G01*
X31630001Y-143985000D01*
G75*
G02*
X31880000Y-144234999I0J-249999D01*
G01*
X31880000Y-149185001D01*
G75*
G02*
X31630001Y-149435000I-249999J0D01*
G01*
X30204999Y-149435000D01*
G75*
G02*
X29955000Y-149185001I0J249999D01*
G01*
G37*
D12*
X24040000Y-42220000D03*
X24040000Y-44500000D03*
X24040000Y-46780000D03*
D13*
X32015000Y-46025000D03*
X28665000Y-42975000D03*
X32015000Y-42975000D03*
X28665000Y-46025000D03*
D12*
X23360000Y-96220000D03*
X23360000Y-98500000D03*
X23360000Y-100780000D03*
D13*
X31335000Y-100025000D03*
X27985000Y-96975000D03*
X31335000Y-96975000D03*
X27985000Y-100025000D03*
X28955000Y-155655000D03*
X32305000Y-152605000D03*
X28955000Y-152605000D03*
X32305000Y-155655000D03*
D12*
X24330000Y-156410000D03*
X24330000Y-154130000D03*
X24330000Y-151850000D03*
M02*
