%TF.GenerationSoftware,KiCad,Pcbnew,(5.1.9)-1*%
%TF.CreationDate,2021-07-24T23:41:22+02:00*%
%TF.ProjectId,RelayControls-HPK,52656c61-7943-46f6-9e74-726f6c732d48,V0.1*%
%TF.SameCoordinates,Original*%
%TF.FileFunction,Paste,Top*%
%TF.FilePolarity,Positive*%
%FSLAX46Y46*%
G04 Gerber Fmt 4.6, Leading zero omitted, Abs format (unit mm)*
G04 Created by KiCad (PCBNEW (5.1.9)-1) date 2021-07-24 23:41:22*
%MOMM*%
%LPD*%
G01*
G04 APERTURE LIST*
%ADD10R,0.900000X1.200000*%
%ADD11R,2.660000X0.800000*%
%ADD12C,0.100000*%
%ADD13R,2.300000X0.900000*%
G04 APERTURE END LIST*
%TO.C,C1*%
G36*
G01*
X120500001Y-37325000D02*
X119199999Y-37325000D01*
G75*
G02*
X118950000Y-37075001I0J249999D01*
G01*
X118950000Y-36424999D01*
G75*
G02*
X119199999Y-36175000I249999J0D01*
G01*
X120500001Y-36175000D01*
G75*
G02*
X120750000Y-36424999I0J-249999D01*
G01*
X120750000Y-37075001D01*
G75*
G02*
X120500001Y-37325000I-249999J0D01*
G01*
G37*
G36*
G01*
X120500001Y-40275000D02*
X119199999Y-40275000D01*
G75*
G02*
X118950000Y-40025001I0J249999D01*
G01*
X118950000Y-39374999D01*
G75*
G02*
X119199999Y-39125000I249999J0D01*
G01*
X120500001Y-39125000D01*
G75*
G02*
X120750000Y-39374999I0J-249999D01*
G01*
X120750000Y-40025001D01*
G75*
G02*
X120500001Y-40275000I-249999J0D01*
G01*
G37*
%TD*%
%TO.C,C2*%
G36*
G01*
X51425001Y-40275000D02*
X50124999Y-40275000D01*
G75*
G02*
X49875000Y-40025001I0J249999D01*
G01*
X49875000Y-39374999D01*
G75*
G02*
X50124999Y-39125000I249999J0D01*
G01*
X51425001Y-39125000D01*
G75*
G02*
X51675000Y-39374999I0J-249999D01*
G01*
X51675000Y-40025001D01*
G75*
G02*
X51425001Y-40275000I-249999J0D01*
G01*
G37*
G36*
G01*
X51425001Y-37325000D02*
X50124999Y-37325000D01*
G75*
G02*
X49875000Y-37075001I0J249999D01*
G01*
X49875000Y-36424999D01*
G75*
G02*
X50124999Y-36175000I249999J0D01*
G01*
X51425001Y-36175000D01*
G75*
G02*
X51675000Y-36424999I0J-249999D01*
G01*
X51675000Y-37075001D01*
G75*
G02*
X51425001Y-37325000I-249999J0D01*
G01*
G37*
%TD*%
%TO.C,C3*%
G36*
G01*
X86025001Y-37325000D02*
X84724999Y-37325000D01*
G75*
G02*
X84475000Y-37075001I0J249999D01*
G01*
X84475000Y-36424999D01*
G75*
G02*
X84724999Y-36175000I249999J0D01*
G01*
X86025001Y-36175000D01*
G75*
G02*
X86275000Y-36424999I0J-249999D01*
G01*
X86275000Y-37075001D01*
G75*
G02*
X86025001Y-37325000I-249999J0D01*
G01*
G37*
G36*
G01*
X86025001Y-40275000D02*
X84724999Y-40275000D01*
G75*
G02*
X84475000Y-40025001I0J249999D01*
G01*
X84475000Y-39374999D01*
G75*
G02*
X84724999Y-39125000I249999J0D01*
G01*
X86025001Y-39125000D01*
G75*
G02*
X86275000Y-39374999I0J-249999D01*
G01*
X86275000Y-40025001D01*
G75*
G02*
X86025001Y-40275000I-249999J0D01*
G01*
G37*
%TD*%
%TO.C,C4*%
G36*
G01*
X155025001Y-37325000D02*
X153724999Y-37325000D01*
G75*
G02*
X153475000Y-37075001I0J249999D01*
G01*
X153475000Y-36424999D01*
G75*
G02*
X153724999Y-36175000I249999J0D01*
G01*
X155025001Y-36175000D01*
G75*
G02*
X155275000Y-36424999I0J-249999D01*
G01*
X155275000Y-37075001D01*
G75*
G02*
X155025001Y-37325000I-249999J0D01*
G01*
G37*
G36*
G01*
X155025001Y-40275000D02*
X153724999Y-40275000D01*
G75*
G02*
X153475000Y-40025001I0J249999D01*
G01*
X153475000Y-39374999D01*
G75*
G02*
X153724999Y-39125000I249999J0D01*
G01*
X155025001Y-39125000D01*
G75*
G02*
X155275000Y-39374999I0J-249999D01*
G01*
X155275000Y-40025001D01*
G75*
G02*
X155025001Y-40275000I-249999J0D01*
G01*
G37*
%TD*%
%TO.C,C5*%
G36*
G01*
X135799999Y-39125000D02*
X137100001Y-39125000D01*
G75*
G02*
X137350000Y-39374999I0J-249999D01*
G01*
X137350000Y-40025001D01*
G75*
G02*
X137100001Y-40275000I-249999J0D01*
G01*
X135799999Y-40275000D01*
G75*
G02*
X135550000Y-40025001I0J249999D01*
G01*
X135550000Y-39374999D01*
G75*
G02*
X135799999Y-39125000I249999J0D01*
G01*
G37*
G36*
G01*
X135799999Y-36175000D02*
X137100001Y-36175000D01*
G75*
G02*
X137350000Y-36424999I0J-249999D01*
G01*
X137350000Y-37075001D01*
G75*
G02*
X137100001Y-37325000I-249999J0D01*
G01*
X135799999Y-37325000D01*
G75*
G02*
X135550000Y-37075001I0J249999D01*
G01*
X135550000Y-36424999D01*
G75*
G02*
X135799999Y-36175000I249999J0D01*
G01*
G37*
%TD*%
%TO.C,C6*%
G36*
G01*
X66749999Y-36175000D02*
X68050001Y-36175000D01*
G75*
G02*
X68300000Y-36424999I0J-249999D01*
G01*
X68300000Y-37075001D01*
G75*
G02*
X68050001Y-37325000I-249999J0D01*
G01*
X66749999Y-37325000D01*
G75*
G02*
X66500000Y-37075001I0J249999D01*
G01*
X66500000Y-36424999D01*
G75*
G02*
X66749999Y-36175000I249999J0D01*
G01*
G37*
G36*
G01*
X66749999Y-39125000D02*
X68050001Y-39125000D01*
G75*
G02*
X68300000Y-39374999I0J-249999D01*
G01*
X68300000Y-40025001D01*
G75*
G02*
X68050001Y-40275000I-249999J0D01*
G01*
X66749999Y-40275000D01*
G75*
G02*
X66500000Y-40025001I0J249999D01*
G01*
X66500000Y-39374999D01*
G75*
G02*
X66749999Y-39125000I249999J0D01*
G01*
G37*
%TD*%
%TO.C,C7*%
G36*
G01*
X98819999Y-39125000D02*
X100120001Y-39125000D01*
G75*
G02*
X100370000Y-39374999I0J-249999D01*
G01*
X100370000Y-40025001D01*
G75*
G02*
X100120001Y-40275000I-249999J0D01*
G01*
X98819999Y-40275000D01*
G75*
G02*
X98570000Y-40025001I0J249999D01*
G01*
X98570000Y-39374999D01*
G75*
G02*
X98819999Y-39125000I249999J0D01*
G01*
G37*
G36*
G01*
X98819999Y-36175000D02*
X100120001Y-36175000D01*
G75*
G02*
X100370000Y-36424999I0J-249999D01*
G01*
X100370000Y-37075001D01*
G75*
G02*
X100120001Y-37325000I-249999J0D01*
G01*
X98819999Y-37325000D01*
G75*
G02*
X98570000Y-37075001I0J249999D01*
G01*
X98570000Y-36424999D01*
G75*
G02*
X98819999Y-36175000I249999J0D01*
G01*
G37*
%TD*%
%TO.C,C8*%
G36*
G01*
X170349999Y-36175000D02*
X171650001Y-36175000D01*
G75*
G02*
X171900000Y-36424999I0J-249999D01*
G01*
X171900000Y-37075001D01*
G75*
G02*
X171650001Y-37325000I-249999J0D01*
G01*
X170349999Y-37325000D01*
G75*
G02*
X170100000Y-37075001I0J249999D01*
G01*
X170100000Y-36424999D01*
G75*
G02*
X170349999Y-36175000I249999J0D01*
G01*
G37*
G36*
G01*
X170349999Y-39125000D02*
X171650001Y-39125000D01*
G75*
G02*
X171900000Y-39374999I0J-249999D01*
G01*
X171900000Y-40025001D01*
G75*
G02*
X171650001Y-40275000I-249999J0D01*
G01*
X170349999Y-40275000D01*
G75*
G02*
X170100000Y-40025001I0J249999D01*
G01*
X170100000Y-39374999D01*
G75*
G02*
X170349999Y-39125000I249999J0D01*
G01*
G37*
%TD*%
%TO.C,C9*%
G36*
G01*
X120875001Y-92725000D02*
X119574999Y-92725000D01*
G75*
G02*
X119325000Y-92475001I0J249999D01*
G01*
X119325000Y-91824999D01*
G75*
G02*
X119574999Y-91575000I249999J0D01*
G01*
X120875001Y-91575000D01*
G75*
G02*
X121125000Y-91824999I0J-249999D01*
G01*
X121125000Y-92475001D01*
G75*
G02*
X120875001Y-92725000I-249999J0D01*
G01*
G37*
G36*
G01*
X120875001Y-95675000D02*
X119574999Y-95675000D01*
G75*
G02*
X119325000Y-95425001I0J249999D01*
G01*
X119325000Y-94774999D01*
G75*
G02*
X119574999Y-94525000I249999J0D01*
G01*
X120875001Y-94525000D01*
G75*
G02*
X121125000Y-94774999I0J-249999D01*
G01*
X121125000Y-95425001D01*
G75*
G02*
X120875001Y-95675000I-249999J0D01*
G01*
G37*
%TD*%
%TO.C,C10*%
G36*
G01*
X51825001Y-95675000D02*
X50524999Y-95675000D01*
G75*
G02*
X50275000Y-95425001I0J249999D01*
G01*
X50275000Y-94774999D01*
G75*
G02*
X50524999Y-94525000I249999J0D01*
G01*
X51825001Y-94525000D01*
G75*
G02*
X52075000Y-94774999I0J-249999D01*
G01*
X52075000Y-95425001D01*
G75*
G02*
X51825001Y-95675000I-249999J0D01*
G01*
G37*
G36*
G01*
X51825001Y-92725000D02*
X50524999Y-92725000D01*
G75*
G02*
X50275000Y-92475001I0J249999D01*
G01*
X50275000Y-91824999D01*
G75*
G02*
X50524999Y-91575000I249999J0D01*
G01*
X51825001Y-91575000D01*
G75*
G02*
X52075000Y-91824999I0J-249999D01*
G01*
X52075000Y-92475001D01*
G75*
G02*
X51825001Y-92725000I-249999J0D01*
G01*
G37*
%TD*%
%TO.C,C11*%
G36*
G01*
X86325001Y-95675000D02*
X85024999Y-95675000D01*
G75*
G02*
X84775000Y-95425001I0J249999D01*
G01*
X84775000Y-94774999D01*
G75*
G02*
X85024999Y-94525000I249999J0D01*
G01*
X86325001Y-94525000D01*
G75*
G02*
X86575000Y-94774999I0J-249999D01*
G01*
X86575000Y-95425001D01*
G75*
G02*
X86325001Y-95675000I-249999J0D01*
G01*
G37*
G36*
G01*
X86325001Y-92725000D02*
X85024999Y-92725000D01*
G75*
G02*
X84775000Y-92475001I0J249999D01*
G01*
X84775000Y-91824999D01*
G75*
G02*
X85024999Y-91575000I249999J0D01*
G01*
X86325001Y-91575000D01*
G75*
G02*
X86575000Y-91824999I0J-249999D01*
G01*
X86575000Y-92475001D01*
G75*
G02*
X86325001Y-92725000I-249999J0D01*
G01*
G37*
%TD*%
%TO.C,C12*%
G36*
G01*
X155390001Y-92790000D02*
X154089999Y-92790000D01*
G75*
G02*
X153840000Y-92540001I0J249999D01*
G01*
X153840000Y-91889999D01*
G75*
G02*
X154089999Y-91640000I249999J0D01*
G01*
X155390001Y-91640000D01*
G75*
G02*
X155640000Y-91889999I0J-249999D01*
G01*
X155640000Y-92540001D01*
G75*
G02*
X155390001Y-92790000I-249999J0D01*
G01*
G37*
G36*
G01*
X155390001Y-95740000D02*
X154089999Y-95740000D01*
G75*
G02*
X153840000Y-95490001I0J249999D01*
G01*
X153840000Y-94839999D01*
G75*
G02*
X154089999Y-94590000I249999J0D01*
G01*
X155390001Y-94590000D01*
G75*
G02*
X155640000Y-94839999I0J-249999D01*
G01*
X155640000Y-95490001D01*
G75*
G02*
X155390001Y-95740000I-249999J0D01*
G01*
G37*
%TD*%
%TO.C,C13*%
G36*
G01*
X135924999Y-91575000D02*
X137225001Y-91575000D01*
G75*
G02*
X137475000Y-91824999I0J-249999D01*
G01*
X137475000Y-92475001D01*
G75*
G02*
X137225001Y-92725000I-249999J0D01*
G01*
X135924999Y-92725000D01*
G75*
G02*
X135675000Y-92475001I0J249999D01*
G01*
X135675000Y-91824999D01*
G75*
G02*
X135924999Y-91575000I249999J0D01*
G01*
G37*
G36*
G01*
X135924999Y-94525000D02*
X137225001Y-94525000D01*
G75*
G02*
X137475000Y-94774999I0J-249999D01*
G01*
X137475000Y-95425001D01*
G75*
G02*
X137225001Y-95675000I-249999J0D01*
G01*
X135924999Y-95675000D01*
G75*
G02*
X135675000Y-95425001I0J249999D01*
G01*
X135675000Y-94774999D01*
G75*
G02*
X135924999Y-94525000I249999J0D01*
G01*
G37*
%TD*%
%TO.C,C14*%
G36*
G01*
X66874999Y-91575000D02*
X68175001Y-91575000D01*
G75*
G02*
X68425000Y-91824999I0J-249999D01*
G01*
X68425000Y-92475001D01*
G75*
G02*
X68175001Y-92725000I-249999J0D01*
G01*
X66874999Y-92725000D01*
G75*
G02*
X66625000Y-92475001I0J249999D01*
G01*
X66625000Y-91824999D01*
G75*
G02*
X66874999Y-91575000I249999J0D01*
G01*
G37*
G36*
G01*
X66874999Y-94525000D02*
X68175001Y-94525000D01*
G75*
G02*
X68425000Y-94774999I0J-249999D01*
G01*
X68425000Y-95425001D01*
G75*
G02*
X68175001Y-95675000I-249999J0D01*
G01*
X66874999Y-95675000D01*
G75*
G02*
X66625000Y-95425001I0J249999D01*
G01*
X66625000Y-94774999D01*
G75*
G02*
X66874999Y-94525000I249999J0D01*
G01*
G37*
%TD*%
%TO.C,C15*%
G36*
G01*
X101424999Y-91575000D02*
X102725001Y-91575000D01*
G75*
G02*
X102975000Y-91824999I0J-249999D01*
G01*
X102975000Y-92475001D01*
G75*
G02*
X102725001Y-92725000I-249999J0D01*
G01*
X101424999Y-92725000D01*
G75*
G02*
X101175000Y-92475001I0J249999D01*
G01*
X101175000Y-91824999D01*
G75*
G02*
X101424999Y-91575000I249999J0D01*
G01*
G37*
G36*
G01*
X101424999Y-94525000D02*
X102725001Y-94525000D01*
G75*
G02*
X102975000Y-94774999I0J-249999D01*
G01*
X102975000Y-95425001D01*
G75*
G02*
X102725001Y-95675000I-249999J0D01*
G01*
X101424999Y-95675000D01*
G75*
G02*
X101175000Y-95425001I0J249999D01*
G01*
X101175000Y-94774999D01*
G75*
G02*
X101424999Y-94525000I249999J0D01*
G01*
G37*
%TD*%
%TO.C,C16*%
G36*
G01*
X170669999Y-91640000D02*
X171970001Y-91640000D01*
G75*
G02*
X172220000Y-91889999I0J-249999D01*
G01*
X172220000Y-92540001D01*
G75*
G02*
X171970001Y-92790000I-249999J0D01*
G01*
X170669999Y-92790000D01*
G75*
G02*
X170420000Y-92540001I0J249999D01*
G01*
X170420000Y-91889999D01*
G75*
G02*
X170669999Y-91640000I249999J0D01*
G01*
G37*
G36*
G01*
X170669999Y-94590000D02*
X171970001Y-94590000D01*
G75*
G02*
X172220000Y-94839999I0J-249999D01*
G01*
X172220000Y-95490001D01*
G75*
G02*
X171970001Y-95740000I-249999J0D01*
G01*
X170669999Y-95740000D01*
G75*
G02*
X170420000Y-95490001I0J249999D01*
G01*
X170420000Y-94839999D01*
G75*
G02*
X170669999Y-94590000I249999J0D01*
G01*
G37*
%TD*%
%TO.C,C17*%
G36*
G01*
X120825001Y-151075000D02*
X119524999Y-151075000D01*
G75*
G02*
X119275000Y-150825001I0J249999D01*
G01*
X119275000Y-150174999D01*
G75*
G02*
X119524999Y-149925000I249999J0D01*
G01*
X120825001Y-149925000D01*
G75*
G02*
X121075000Y-150174999I0J-249999D01*
G01*
X121075000Y-150825001D01*
G75*
G02*
X120825001Y-151075000I-249999J0D01*
G01*
G37*
G36*
G01*
X120825001Y-148125000D02*
X119524999Y-148125000D01*
G75*
G02*
X119275000Y-147875001I0J249999D01*
G01*
X119275000Y-147224999D01*
G75*
G02*
X119524999Y-146975000I249999J0D01*
G01*
X120825001Y-146975000D01*
G75*
G02*
X121075000Y-147224999I0J-249999D01*
G01*
X121075000Y-147875001D01*
G75*
G02*
X120825001Y-148125000I-249999J0D01*
G01*
G37*
%TD*%
%TO.C,C18*%
G36*
G01*
X51800001Y-148125000D02*
X50499999Y-148125000D01*
G75*
G02*
X50250000Y-147875001I0J249999D01*
G01*
X50250000Y-147224999D01*
G75*
G02*
X50499999Y-146975000I249999J0D01*
G01*
X51800001Y-146975000D01*
G75*
G02*
X52050000Y-147224999I0J-249999D01*
G01*
X52050000Y-147875001D01*
G75*
G02*
X51800001Y-148125000I-249999J0D01*
G01*
G37*
G36*
G01*
X51800001Y-151075000D02*
X50499999Y-151075000D01*
G75*
G02*
X50250000Y-150825001I0J249999D01*
G01*
X50250000Y-150174999D01*
G75*
G02*
X50499999Y-149925000I249999J0D01*
G01*
X51800001Y-149925000D01*
G75*
G02*
X52050000Y-150174999I0J-249999D01*
G01*
X52050000Y-150825001D01*
G75*
G02*
X51800001Y-151075000I-249999J0D01*
G01*
G37*
%TD*%
%TO.C,C19*%
G36*
G01*
X86325001Y-148125000D02*
X85024999Y-148125000D01*
G75*
G02*
X84775000Y-147875001I0J249999D01*
G01*
X84775000Y-147224999D01*
G75*
G02*
X85024999Y-146975000I249999J0D01*
G01*
X86325001Y-146975000D01*
G75*
G02*
X86575000Y-147224999I0J-249999D01*
G01*
X86575000Y-147875001D01*
G75*
G02*
X86325001Y-148125000I-249999J0D01*
G01*
G37*
G36*
G01*
X86325001Y-151075000D02*
X85024999Y-151075000D01*
G75*
G02*
X84775000Y-150825001I0J249999D01*
G01*
X84775000Y-150174999D01*
G75*
G02*
X85024999Y-149925000I249999J0D01*
G01*
X86325001Y-149925000D01*
G75*
G02*
X86575000Y-150174999I0J-249999D01*
G01*
X86575000Y-150825001D01*
G75*
G02*
X86325001Y-151075000I-249999J0D01*
G01*
G37*
%TD*%
%TO.C,C20*%
G36*
G01*
X155410001Y-151075000D02*
X154109999Y-151075000D01*
G75*
G02*
X153860000Y-150825001I0J249999D01*
G01*
X153860000Y-150174999D01*
G75*
G02*
X154109999Y-149925000I249999J0D01*
G01*
X155410001Y-149925000D01*
G75*
G02*
X155660000Y-150174999I0J-249999D01*
G01*
X155660000Y-150825001D01*
G75*
G02*
X155410001Y-151075000I-249999J0D01*
G01*
G37*
G36*
G01*
X155410001Y-148125000D02*
X154109999Y-148125000D01*
G75*
G02*
X153860000Y-147875001I0J249999D01*
G01*
X153860000Y-147224999D01*
G75*
G02*
X154109999Y-146975000I249999J0D01*
G01*
X155410001Y-146975000D01*
G75*
G02*
X155660000Y-147224999I0J-249999D01*
G01*
X155660000Y-147875001D01*
G75*
G02*
X155410001Y-148125000I-249999J0D01*
G01*
G37*
%TD*%
%TO.C,C21*%
G36*
G01*
X136099999Y-149925000D02*
X137400001Y-149925000D01*
G75*
G02*
X137650000Y-150174999I0J-249999D01*
G01*
X137650000Y-150825001D01*
G75*
G02*
X137400001Y-151075000I-249999J0D01*
G01*
X136099999Y-151075000D01*
G75*
G02*
X135850000Y-150825001I0J249999D01*
G01*
X135850000Y-150174999D01*
G75*
G02*
X136099999Y-149925000I249999J0D01*
G01*
G37*
G36*
G01*
X136099999Y-146975000D02*
X137400001Y-146975000D01*
G75*
G02*
X137650000Y-147224999I0J-249999D01*
G01*
X137650000Y-147875001D01*
G75*
G02*
X137400001Y-148125000I-249999J0D01*
G01*
X136099999Y-148125000D01*
G75*
G02*
X135850000Y-147875001I0J249999D01*
G01*
X135850000Y-147224999D01*
G75*
G02*
X136099999Y-146975000I249999J0D01*
G01*
G37*
%TD*%
%TO.C,C22*%
G36*
G01*
X66799999Y-149925000D02*
X68100001Y-149925000D01*
G75*
G02*
X68350000Y-150174999I0J-249999D01*
G01*
X68350000Y-150825001D01*
G75*
G02*
X68100001Y-151075000I-249999J0D01*
G01*
X66799999Y-151075000D01*
G75*
G02*
X66550000Y-150825001I0J249999D01*
G01*
X66550000Y-150174999D01*
G75*
G02*
X66799999Y-149925000I249999J0D01*
G01*
G37*
G36*
G01*
X66799999Y-146975000D02*
X68100001Y-146975000D01*
G75*
G02*
X68350000Y-147224999I0J-249999D01*
G01*
X68350000Y-147875001D01*
G75*
G02*
X68100001Y-148125000I-249999J0D01*
G01*
X66799999Y-148125000D01*
G75*
G02*
X66550000Y-147875001I0J249999D01*
G01*
X66550000Y-147224999D01*
G75*
G02*
X66799999Y-146975000I249999J0D01*
G01*
G37*
%TD*%
%TO.C,C23*%
G36*
G01*
X101474999Y-146975000D02*
X102775001Y-146975000D01*
G75*
G02*
X103025000Y-147224999I0J-249999D01*
G01*
X103025000Y-147875001D01*
G75*
G02*
X102775001Y-148125000I-249999J0D01*
G01*
X101474999Y-148125000D01*
G75*
G02*
X101225000Y-147875001I0J249999D01*
G01*
X101225000Y-147224999D01*
G75*
G02*
X101474999Y-146975000I249999J0D01*
G01*
G37*
G36*
G01*
X101474999Y-149925000D02*
X102775001Y-149925000D01*
G75*
G02*
X103025000Y-150174999I0J-249999D01*
G01*
X103025000Y-150825001D01*
G75*
G02*
X102775001Y-151075000I-249999J0D01*
G01*
X101474999Y-151075000D01*
G75*
G02*
X101225000Y-150825001I0J249999D01*
G01*
X101225000Y-150174999D01*
G75*
G02*
X101474999Y-149925000I249999J0D01*
G01*
G37*
%TD*%
%TO.C,C24*%
G36*
G01*
X170459999Y-149950000D02*
X171760001Y-149950000D01*
G75*
G02*
X172010000Y-150199999I0J-249999D01*
G01*
X172010000Y-150850001D01*
G75*
G02*
X171760001Y-151100000I-249999J0D01*
G01*
X170459999Y-151100000D01*
G75*
G02*
X170210000Y-150850001I0J249999D01*
G01*
X170210000Y-150199999D01*
G75*
G02*
X170459999Y-149950000I249999J0D01*
G01*
G37*
G36*
G01*
X170459999Y-147000000D02*
X171760001Y-147000000D01*
G75*
G02*
X172010000Y-147249999I0J-249999D01*
G01*
X172010000Y-147900001D01*
G75*
G02*
X171760001Y-148150000I-249999J0D01*
G01*
X170459999Y-148150000D01*
G75*
G02*
X170210000Y-147900001I0J249999D01*
G01*
X170210000Y-147249999D01*
G75*
G02*
X170459999Y-147000000I249999J0D01*
G01*
G37*
%TD*%
D10*
%TO.C,D1*%
X24305001Y-49325000D03*
X21005001Y-49325000D03*
%TD*%
%TO.C,D3*%
X20999999Y-104500000D03*
X24299999Y-104500000D03*
%TD*%
%TO.C,D5*%
X21000000Y-159750000D03*
X24300000Y-159750000D03*
%TD*%
D11*
%TO.C,K1*%
X22410001Y-64154999D03*
X22410001Y-67354999D03*
X22410001Y-69554999D03*
X22410001Y-71754999D03*
X29150001Y-71754999D03*
X29150001Y-69554999D03*
X29150001Y-67354999D03*
X29150001Y-64154999D03*
%TD*%
%TO.C,K2*%
X22260000Y-119500000D03*
X22260000Y-122700000D03*
X22260000Y-124900000D03*
X22260000Y-127100000D03*
X29000000Y-127100000D03*
X29000000Y-124900000D03*
X29000000Y-122700000D03*
X29000000Y-119500000D03*
%TD*%
%TO.C,K3*%
X29000000Y-175000000D03*
X29000000Y-178200000D03*
X29000000Y-180400000D03*
X29000000Y-182600000D03*
X22260000Y-182600000D03*
X22260000Y-180400000D03*
X22260000Y-178200000D03*
X22260000Y-175000000D03*
%TD*%
D12*
%TO.C,Q1*%
G36*
X20555001Y-43158500D02*
G01*
X24680001Y-43158500D01*
X24680001Y-43575000D01*
X27155001Y-43575000D01*
X27155001Y-44475000D01*
X24680001Y-44475000D01*
X24680001Y-44891500D01*
X20555001Y-44891500D01*
X20555001Y-43158500D01*
G37*
D13*
X26005001Y-42525000D03*
X26005001Y-45525000D03*
%TD*%
%TO.C,Q2*%
X25999999Y-100700000D03*
X25999999Y-97700000D03*
D12*
G36*
X20549999Y-98333500D02*
G01*
X24674999Y-98333500D01*
X24674999Y-98750000D01*
X27149999Y-98750000D01*
X27149999Y-99650000D01*
X24674999Y-99650000D01*
X24674999Y-100066500D01*
X20549999Y-100066500D01*
X20549999Y-98333500D01*
G37*
%TD*%
D13*
%TO.C,Q3*%
X26000000Y-155875000D03*
X26000000Y-152875000D03*
D12*
G36*
X20550000Y-153508500D02*
G01*
X24675000Y-153508500D01*
X24675000Y-153925000D01*
X27150000Y-153925000D01*
X27150000Y-154825000D01*
X24675000Y-154825000D01*
X24675000Y-155241500D01*
X20550000Y-155241500D01*
X20550000Y-153508500D01*
G37*
%TD*%
%TO.C,R1*%
G36*
G01*
X26831371Y-52700001D02*
X26831371Y-51449999D01*
G75*
G02*
X27081370Y-51200000I249999J0D01*
G01*
X27706372Y-51200000D01*
G75*
G02*
X27956371Y-51449999I0J-249999D01*
G01*
X27956371Y-52700001D01*
G75*
G02*
X27706372Y-52950000I-249999J0D01*
G01*
X27081370Y-52950000D01*
G75*
G02*
X26831371Y-52700001I0J249999D01*
G01*
G37*
G36*
G01*
X23906371Y-52700001D02*
X23906371Y-51449999D01*
G75*
G02*
X24156370Y-51200000I249999J0D01*
G01*
X24781372Y-51200000D01*
G75*
G02*
X25031371Y-51449999I0J-249999D01*
G01*
X25031371Y-52700001D01*
G75*
G02*
X24781372Y-52950000I-249999J0D01*
G01*
X24156370Y-52950000D01*
G75*
G02*
X23906371Y-52700001I0J249999D01*
G01*
G37*
%TD*%
%TO.C,R2*%
G36*
G01*
X64299999Y-39125000D02*
X65550001Y-39125000D01*
G75*
G02*
X65800000Y-39374999I0J-249999D01*
G01*
X65800000Y-40000001D01*
G75*
G02*
X65550001Y-40250000I-249999J0D01*
G01*
X64299999Y-40250000D01*
G75*
G02*
X64050000Y-40000001I0J249999D01*
G01*
X64050000Y-39374999D01*
G75*
G02*
X64299999Y-39125000I249999J0D01*
G01*
G37*
G36*
G01*
X64299999Y-36200000D02*
X65550001Y-36200000D01*
G75*
G02*
X65800000Y-36449999I0J-249999D01*
G01*
X65800000Y-37075001D01*
G75*
G02*
X65550001Y-37325000I-249999J0D01*
G01*
X64299999Y-37325000D01*
G75*
G02*
X64050000Y-37075001I0J249999D01*
G01*
X64050000Y-36449999D01*
G75*
G02*
X64299999Y-36200000I249999J0D01*
G01*
G37*
%TD*%
%TO.C,R3*%
G36*
G01*
X118000001Y-40250000D02*
X116749999Y-40250000D01*
G75*
G02*
X116500000Y-40000001I0J249999D01*
G01*
X116500000Y-39374999D01*
G75*
G02*
X116749999Y-39125000I249999J0D01*
G01*
X118000001Y-39125000D01*
G75*
G02*
X118250000Y-39374999I0J-249999D01*
G01*
X118250000Y-40000001D01*
G75*
G02*
X118000001Y-40250000I-249999J0D01*
G01*
G37*
G36*
G01*
X118000001Y-37325000D02*
X116749999Y-37325000D01*
G75*
G02*
X116500000Y-37075001I0J249999D01*
G01*
X116500000Y-36449999D01*
G75*
G02*
X116749999Y-36200000I249999J0D01*
G01*
X118000001Y-36200000D01*
G75*
G02*
X118250000Y-36449999I0J-249999D01*
G01*
X118250000Y-37075001D01*
G75*
G02*
X118000001Y-37325000I-249999J0D01*
G01*
G37*
%TD*%
%TO.C,R4*%
G36*
G01*
X48825001Y-37325000D02*
X47574999Y-37325000D01*
G75*
G02*
X47325000Y-37075001I0J249999D01*
G01*
X47325000Y-36449999D01*
G75*
G02*
X47574999Y-36200000I249999J0D01*
G01*
X48825001Y-36200000D01*
G75*
G02*
X49075000Y-36449999I0J-249999D01*
G01*
X49075000Y-37075001D01*
G75*
G02*
X48825001Y-37325000I-249999J0D01*
G01*
G37*
G36*
G01*
X48825001Y-40250000D02*
X47574999Y-40250000D01*
G75*
G02*
X47325000Y-40000001I0J249999D01*
G01*
X47325000Y-39374999D01*
G75*
G02*
X47574999Y-39125000I249999J0D01*
G01*
X48825001Y-39125000D01*
G75*
G02*
X49075000Y-39374999I0J-249999D01*
G01*
X49075000Y-40000001D01*
G75*
G02*
X48825001Y-40250000I-249999J0D01*
G01*
G37*
%TD*%
%TO.C,R5*%
G36*
G01*
X83550001Y-37325000D02*
X82299999Y-37325000D01*
G75*
G02*
X82050000Y-37075001I0J249999D01*
G01*
X82050000Y-36449999D01*
G75*
G02*
X82299999Y-36200000I249999J0D01*
G01*
X83550001Y-36200000D01*
G75*
G02*
X83800000Y-36449999I0J-249999D01*
G01*
X83800000Y-37075001D01*
G75*
G02*
X83550001Y-37325000I-249999J0D01*
G01*
G37*
G36*
G01*
X83550001Y-40250000D02*
X82299999Y-40250000D01*
G75*
G02*
X82050000Y-40000001I0J249999D01*
G01*
X82050000Y-39374999D01*
G75*
G02*
X82299999Y-39125000I249999J0D01*
G01*
X83550001Y-39125000D01*
G75*
G02*
X83800000Y-39374999I0J-249999D01*
G01*
X83800000Y-40000001D01*
G75*
G02*
X83550001Y-40250000I-249999J0D01*
G01*
G37*
%TD*%
%TO.C,R6*%
G36*
G01*
X152550001Y-40250000D02*
X151299999Y-40250000D01*
G75*
G02*
X151050000Y-40000001I0J249999D01*
G01*
X151050000Y-39374999D01*
G75*
G02*
X151299999Y-39125000I249999J0D01*
G01*
X152550001Y-39125000D01*
G75*
G02*
X152800000Y-39374999I0J-249999D01*
G01*
X152800000Y-40000001D01*
G75*
G02*
X152550001Y-40250000I-249999J0D01*
G01*
G37*
G36*
G01*
X152550001Y-37325000D02*
X151299999Y-37325000D01*
G75*
G02*
X151050000Y-37075001I0J249999D01*
G01*
X151050000Y-36449999D01*
G75*
G02*
X151299999Y-36200000I249999J0D01*
G01*
X152550001Y-36200000D01*
G75*
G02*
X152800000Y-36449999I0J-249999D01*
G01*
X152800000Y-37075001D01*
G75*
G02*
X152550001Y-37325000I-249999J0D01*
G01*
G37*
%TD*%
%TO.C,R7*%
G36*
G01*
X133374999Y-36200000D02*
X134625001Y-36200000D01*
G75*
G02*
X134875000Y-36449999I0J-249999D01*
G01*
X134875000Y-37075001D01*
G75*
G02*
X134625001Y-37325000I-249999J0D01*
G01*
X133374999Y-37325000D01*
G75*
G02*
X133125000Y-37075001I0J249999D01*
G01*
X133125000Y-36449999D01*
G75*
G02*
X133374999Y-36200000I249999J0D01*
G01*
G37*
G36*
G01*
X133374999Y-39125000D02*
X134625001Y-39125000D01*
G75*
G02*
X134875000Y-39374999I0J-249999D01*
G01*
X134875000Y-40000001D01*
G75*
G02*
X134625001Y-40250000I-249999J0D01*
G01*
X133374999Y-40250000D01*
G75*
G02*
X133125000Y-40000001I0J249999D01*
G01*
X133125000Y-39374999D01*
G75*
G02*
X133374999Y-39125000I249999J0D01*
G01*
G37*
%TD*%
%TO.C,R8*%
G36*
G01*
X101369999Y-39125000D02*
X102620001Y-39125000D01*
G75*
G02*
X102870000Y-39374999I0J-249999D01*
G01*
X102870000Y-40000001D01*
G75*
G02*
X102620001Y-40250000I-249999J0D01*
G01*
X101369999Y-40250000D01*
G75*
G02*
X101120000Y-40000001I0J249999D01*
G01*
X101120000Y-39374999D01*
G75*
G02*
X101369999Y-39125000I249999J0D01*
G01*
G37*
G36*
G01*
X101369999Y-36200000D02*
X102620001Y-36200000D01*
G75*
G02*
X102870000Y-36449999I0J-249999D01*
G01*
X102870000Y-37075001D01*
G75*
G02*
X102620001Y-37325000I-249999J0D01*
G01*
X101369999Y-37325000D01*
G75*
G02*
X101120000Y-37075001I0J249999D01*
G01*
X101120000Y-36449999D01*
G75*
G02*
X101369999Y-36200000I249999J0D01*
G01*
G37*
%TD*%
%TO.C,R9*%
G36*
G01*
X167924999Y-39125000D02*
X169175001Y-39125000D01*
G75*
G02*
X169425000Y-39374999I0J-249999D01*
G01*
X169425000Y-40000001D01*
G75*
G02*
X169175001Y-40250000I-249999J0D01*
G01*
X167924999Y-40250000D01*
G75*
G02*
X167675000Y-40000001I0J249999D01*
G01*
X167675000Y-39374999D01*
G75*
G02*
X167924999Y-39125000I249999J0D01*
G01*
G37*
G36*
G01*
X167924999Y-36200000D02*
X169175001Y-36200000D01*
G75*
G02*
X169425000Y-36449999I0J-249999D01*
G01*
X169425000Y-37075001D01*
G75*
G02*
X169175001Y-37325000I-249999J0D01*
G01*
X167924999Y-37325000D01*
G75*
G02*
X167675000Y-37075001I0J249999D01*
G01*
X167675000Y-36449999D01*
G75*
G02*
X167924999Y-36200000I249999J0D01*
G01*
G37*
%TD*%
%TO.C,R10*%
G36*
G01*
X24375001Y-56725685D02*
X23124999Y-56725685D01*
G75*
G02*
X22875000Y-56475686I0J249999D01*
G01*
X22875000Y-55850684D01*
G75*
G02*
X23124999Y-55600685I249999J0D01*
G01*
X24375001Y-55600685D01*
G75*
G02*
X24625000Y-55850684I0J-249999D01*
G01*
X24625000Y-56475686D01*
G75*
G02*
X24375001Y-56725685I-249999J0D01*
G01*
G37*
G36*
G01*
X24375001Y-59650685D02*
X23124999Y-59650685D01*
G75*
G02*
X22875000Y-59400686I0J249999D01*
G01*
X22875000Y-58775684D01*
G75*
G02*
X23124999Y-58525685I249999J0D01*
G01*
X24375001Y-58525685D01*
G75*
G02*
X24625000Y-58775684I0J-249999D01*
G01*
X24625000Y-59400686D01*
G75*
G02*
X24375001Y-59650685I-249999J0D01*
G01*
G37*
%TD*%
%TO.C,R11*%
G36*
G01*
X23800000Y-107625001D02*
X23800000Y-106374999D01*
G75*
G02*
X24049999Y-106125000I249999J0D01*
G01*
X24675001Y-106125000D01*
G75*
G02*
X24925000Y-106374999I0J-249999D01*
G01*
X24925000Y-107625001D01*
G75*
G02*
X24675001Y-107875000I-249999J0D01*
G01*
X24049999Y-107875000D01*
G75*
G02*
X23800000Y-107625001I0J249999D01*
G01*
G37*
G36*
G01*
X26725000Y-107625001D02*
X26725000Y-106374999D01*
G75*
G02*
X26974999Y-106125000I249999J0D01*
G01*
X27600001Y-106125000D01*
G75*
G02*
X27850000Y-106374999I0J-249999D01*
G01*
X27850000Y-107625001D01*
G75*
G02*
X27600001Y-107875000I-249999J0D01*
G01*
X26974999Y-107875000D01*
G75*
G02*
X26725000Y-107625001I0J249999D01*
G01*
G37*
%TD*%
%TO.C,R12*%
G36*
G01*
X118375001Y-95650000D02*
X117124999Y-95650000D01*
G75*
G02*
X116875000Y-95400001I0J249999D01*
G01*
X116875000Y-94774999D01*
G75*
G02*
X117124999Y-94525000I249999J0D01*
G01*
X118375001Y-94525000D01*
G75*
G02*
X118625000Y-94774999I0J-249999D01*
G01*
X118625000Y-95400001D01*
G75*
G02*
X118375001Y-95650000I-249999J0D01*
G01*
G37*
G36*
G01*
X118375001Y-92725000D02*
X117124999Y-92725000D01*
G75*
G02*
X116875000Y-92475001I0J249999D01*
G01*
X116875000Y-91849999D01*
G75*
G02*
X117124999Y-91600000I249999J0D01*
G01*
X118375001Y-91600000D01*
G75*
G02*
X118625000Y-91849999I0J-249999D01*
G01*
X118625000Y-92475001D01*
G75*
G02*
X118375001Y-92725000I-249999J0D01*
G01*
G37*
%TD*%
%TO.C,R13*%
G36*
G01*
X49450001Y-95650000D02*
X48199999Y-95650000D01*
G75*
G02*
X47950000Y-95400001I0J249999D01*
G01*
X47950000Y-94774999D01*
G75*
G02*
X48199999Y-94525000I249999J0D01*
G01*
X49450001Y-94525000D01*
G75*
G02*
X49700000Y-94774999I0J-249999D01*
G01*
X49700000Y-95400001D01*
G75*
G02*
X49450001Y-95650000I-249999J0D01*
G01*
G37*
G36*
G01*
X49450001Y-92725000D02*
X48199999Y-92725000D01*
G75*
G02*
X47950000Y-92475001I0J249999D01*
G01*
X47950000Y-91849999D01*
G75*
G02*
X48199999Y-91600000I249999J0D01*
G01*
X49450001Y-91600000D01*
G75*
G02*
X49700000Y-91849999I0J-249999D01*
G01*
X49700000Y-92475001D01*
G75*
G02*
X49450001Y-92725000I-249999J0D01*
G01*
G37*
%TD*%
%TO.C,R14*%
G36*
G01*
X83925001Y-95650000D02*
X82674999Y-95650000D01*
G75*
G02*
X82425000Y-95400001I0J249999D01*
G01*
X82425000Y-94774999D01*
G75*
G02*
X82674999Y-94525000I249999J0D01*
G01*
X83925001Y-94525000D01*
G75*
G02*
X84175000Y-94774999I0J-249999D01*
G01*
X84175000Y-95400001D01*
G75*
G02*
X83925001Y-95650000I-249999J0D01*
G01*
G37*
G36*
G01*
X83925001Y-92725000D02*
X82674999Y-92725000D01*
G75*
G02*
X82425000Y-92475001I0J249999D01*
G01*
X82425000Y-91849999D01*
G75*
G02*
X82674999Y-91600000I249999J0D01*
G01*
X83925001Y-91600000D01*
G75*
G02*
X84175000Y-91849999I0J-249999D01*
G01*
X84175000Y-92475001D01*
G75*
G02*
X83925001Y-92725000I-249999J0D01*
G01*
G37*
%TD*%
%TO.C,R15*%
G36*
G01*
X152895001Y-92790000D02*
X151644999Y-92790000D01*
G75*
G02*
X151395000Y-92540001I0J249999D01*
G01*
X151395000Y-91914999D01*
G75*
G02*
X151644999Y-91665000I249999J0D01*
G01*
X152895001Y-91665000D01*
G75*
G02*
X153145000Y-91914999I0J-249999D01*
G01*
X153145000Y-92540001D01*
G75*
G02*
X152895001Y-92790000I-249999J0D01*
G01*
G37*
G36*
G01*
X152895001Y-95715000D02*
X151644999Y-95715000D01*
G75*
G02*
X151395000Y-95465001I0J249999D01*
G01*
X151395000Y-94839999D01*
G75*
G02*
X151644999Y-94590000I249999J0D01*
G01*
X152895001Y-94590000D01*
G75*
G02*
X153145000Y-94839999I0J-249999D01*
G01*
X153145000Y-95465001D01*
G75*
G02*
X152895001Y-95715000I-249999J0D01*
G01*
G37*
%TD*%
%TO.C,R16*%
G36*
G01*
X133264999Y-91600000D02*
X134515001Y-91600000D01*
G75*
G02*
X134765000Y-91849999I0J-249999D01*
G01*
X134765000Y-92475001D01*
G75*
G02*
X134515001Y-92725000I-249999J0D01*
G01*
X133264999Y-92725000D01*
G75*
G02*
X133015000Y-92475001I0J249999D01*
G01*
X133015000Y-91849999D01*
G75*
G02*
X133264999Y-91600000I249999J0D01*
G01*
G37*
G36*
G01*
X133264999Y-94525000D02*
X134515001Y-94525000D01*
G75*
G02*
X134765000Y-94774999I0J-249999D01*
G01*
X134765000Y-95400001D01*
G75*
G02*
X134515001Y-95650000I-249999J0D01*
G01*
X133264999Y-95650000D01*
G75*
G02*
X133015000Y-95400001I0J249999D01*
G01*
X133015000Y-94774999D01*
G75*
G02*
X133264999Y-94525000I249999J0D01*
G01*
G37*
%TD*%
%TO.C,R17*%
G36*
G01*
X64174999Y-94525000D02*
X65425001Y-94525000D01*
G75*
G02*
X65675000Y-94774999I0J-249999D01*
G01*
X65675000Y-95400001D01*
G75*
G02*
X65425001Y-95650000I-249999J0D01*
G01*
X64174999Y-95650000D01*
G75*
G02*
X63925000Y-95400001I0J249999D01*
G01*
X63925000Y-94774999D01*
G75*
G02*
X64174999Y-94525000I249999J0D01*
G01*
G37*
G36*
G01*
X64174999Y-91600000D02*
X65425001Y-91600000D01*
G75*
G02*
X65675000Y-91849999I0J-249999D01*
G01*
X65675000Y-92475001D01*
G75*
G02*
X65425001Y-92725000I-249999J0D01*
G01*
X64174999Y-92725000D01*
G75*
G02*
X63925000Y-92475001I0J249999D01*
G01*
X63925000Y-91849999D01*
G75*
G02*
X64174999Y-91600000I249999J0D01*
G01*
G37*
%TD*%
%TO.C,R18*%
G36*
G01*
X98824999Y-94525000D02*
X100075001Y-94525000D01*
G75*
G02*
X100325000Y-94774999I0J-249999D01*
G01*
X100325000Y-95400001D01*
G75*
G02*
X100075001Y-95650000I-249999J0D01*
G01*
X98824999Y-95650000D01*
G75*
G02*
X98575000Y-95400001I0J249999D01*
G01*
X98575000Y-94774999D01*
G75*
G02*
X98824999Y-94525000I249999J0D01*
G01*
G37*
G36*
G01*
X98824999Y-91600000D02*
X100075001Y-91600000D01*
G75*
G02*
X100325000Y-91849999I0J-249999D01*
G01*
X100325000Y-92475001D01*
G75*
G02*
X100075001Y-92725000I-249999J0D01*
G01*
X98824999Y-92725000D01*
G75*
G02*
X98575000Y-92475001I0J249999D01*
G01*
X98575000Y-91849999D01*
G75*
G02*
X98824999Y-91600000I249999J0D01*
G01*
G37*
%TD*%
%TO.C,R19*%
G36*
G01*
X167854999Y-91665000D02*
X169105001Y-91665000D01*
G75*
G02*
X169355000Y-91914999I0J-249999D01*
G01*
X169355000Y-92540001D01*
G75*
G02*
X169105001Y-92790000I-249999J0D01*
G01*
X167854999Y-92790000D01*
G75*
G02*
X167605000Y-92540001I0J249999D01*
G01*
X167605000Y-91914999D01*
G75*
G02*
X167854999Y-91665000I249999J0D01*
G01*
G37*
G36*
G01*
X167854999Y-94590000D02*
X169105001Y-94590000D01*
G75*
G02*
X169355000Y-94839999I0J-249999D01*
G01*
X169355000Y-95465001D01*
G75*
G02*
X169105001Y-95715000I-249999J0D01*
G01*
X167854999Y-95715000D01*
G75*
G02*
X167605000Y-95465001I0J249999D01*
G01*
X167605000Y-94839999D01*
G75*
G02*
X167854999Y-94590000I249999J0D01*
G01*
G37*
%TD*%
%TO.C,R20*%
G36*
G01*
X24425001Y-111650685D02*
X23174999Y-111650685D01*
G75*
G02*
X22925000Y-111400686I0J249999D01*
G01*
X22925000Y-110775684D01*
G75*
G02*
X23174999Y-110525685I249999J0D01*
G01*
X24425001Y-110525685D01*
G75*
G02*
X24675000Y-110775684I0J-249999D01*
G01*
X24675000Y-111400686D01*
G75*
G02*
X24425001Y-111650685I-249999J0D01*
G01*
G37*
G36*
G01*
X24425001Y-114575685D02*
X23174999Y-114575685D01*
G75*
G02*
X22925000Y-114325686I0J249999D01*
G01*
X22925000Y-113700684D01*
G75*
G02*
X23174999Y-113450685I249999J0D01*
G01*
X24425001Y-113450685D01*
G75*
G02*
X24675000Y-113700684I0J-249999D01*
G01*
X24675000Y-114325686D01*
G75*
G02*
X24425001Y-114575685I-249999J0D01*
G01*
G37*
%TD*%
%TO.C,R21*%
G36*
G01*
X26620000Y-163100001D02*
X26620000Y-161849999D01*
G75*
G02*
X26869999Y-161600000I249999J0D01*
G01*
X27495001Y-161600000D01*
G75*
G02*
X27745000Y-161849999I0J-249999D01*
G01*
X27745000Y-163100001D01*
G75*
G02*
X27495001Y-163350000I-249999J0D01*
G01*
X26869999Y-163350000D01*
G75*
G02*
X26620000Y-163100001I0J249999D01*
G01*
G37*
G36*
G01*
X23695000Y-163100001D02*
X23695000Y-161849999D01*
G75*
G02*
X23944999Y-161600000I249999J0D01*
G01*
X24570001Y-161600000D01*
G75*
G02*
X24820000Y-161849999I0J-249999D01*
G01*
X24820000Y-163100001D01*
G75*
G02*
X24570001Y-163350000I-249999J0D01*
G01*
X23944999Y-163350000D01*
G75*
G02*
X23695000Y-163100001I0J249999D01*
G01*
G37*
%TD*%
%TO.C,R22*%
G36*
G01*
X118375001Y-151050000D02*
X117124999Y-151050000D01*
G75*
G02*
X116875000Y-150800001I0J249999D01*
G01*
X116875000Y-150174999D01*
G75*
G02*
X117124999Y-149925000I249999J0D01*
G01*
X118375001Y-149925000D01*
G75*
G02*
X118625000Y-150174999I0J-249999D01*
G01*
X118625000Y-150800001D01*
G75*
G02*
X118375001Y-151050000I-249999J0D01*
G01*
G37*
G36*
G01*
X118375001Y-148125000D02*
X117124999Y-148125000D01*
G75*
G02*
X116875000Y-147875001I0J249999D01*
G01*
X116875000Y-147249999D01*
G75*
G02*
X117124999Y-147000000I249999J0D01*
G01*
X118375001Y-147000000D01*
G75*
G02*
X118625000Y-147249999I0J-249999D01*
G01*
X118625000Y-147875001D01*
G75*
G02*
X118375001Y-148125000I-249999J0D01*
G01*
G37*
%TD*%
%TO.C,R23*%
G36*
G01*
X49300001Y-151062500D02*
X48049999Y-151062500D01*
G75*
G02*
X47800000Y-150812501I0J249999D01*
G01*
X47800000Y-150187499D01*
G75*
G02*
X48049999Y-149937500I249999J0D01*
G01*
X49300001Y-149937500D01*
G75*
G02*
X49550000Y-150187499I0J-249999D01*
G01*
X49550000Y-150812501D01*
G75*
G02*
X49300001Y-151062500I-249999J0D01*
G01*
G37*
G36*
G01*
X49300001Y-148137500D02*
X48049999Y-148137500D01*
G75*
G02*
X47800000Y-147887501I0J249999D01*
G01*
X47800000Y-147262499D01*
G75*
G02*
X48049999Y-147012500I249999J0D01*
G01*
X49300001Y-147012500D01*
G75*
G02*
X49550000Y-147262499I0J-249999D01*
G01*
X49550000Y-147887501D01*
G75*
G02*
X49300001Y-148137500I-249999J0D01*
G01*
G37*
%TD*%
%TO.C,R24*%
G36*
G01*
X83475001Y-148125000D02*
X82224999Y-148125000D01*
G75*
G02*
X81975000Y-147875001I0J249999D01*
G01*
X81975000Y-147249999D01*
G75*
G02*
X82224999Y-147000000I249999J0D01*
G01*
X83475001Y-147000000D01*
G75*
G02*
X83725000Y-147249999I0J-249999D01*
G01*
X83725000Y-147875001D01*
G75*
G02*
X83475001Y-148125000I-249999J0D01*
G01*
G37*
G36*
G01*
X83475001Y-151050000D02*
X82224999Y-151050000D01*
G75*
G02*
X81975000Y-150800001I0J249999D01*
G01*
X81975000Y-150174999D01*
G75*
G02*
X82224999Y-149925000I249999J0D01*
G01*
X83475001Y-149925000D01*
G75*
G02*
X83725000Y-150174999I0J-249999D01*
G01*
X83725000Y-150800001D01*
G75*
G02*
X83475001Y-151050000I-249999J0D01*
G01*
G37*
%TD*%
%TO.C,R25*%
G36*
G01*
X152805001Y-151035000D02*
X151554999Y-151035000D01*
G75*
G02*
X151305000Y-150785001I0J249999D01*
G01*
X151305000Y-150159999D01*
G75*
G02*
X151554999Y-149910000I249999J0D01*
G01*
X152805001Y-149910000D01*
G75*
G02*
X153055000Y-150159999I0J-249999D01*
G01*
X153055000Y-150785001D01*
G75*
G02*
X152805001Y-151035000I-249999J0D01*
G01*
G37*
G36*
G01*
X152805001Y-148110000D02*
X151554999Y-148110000D01*
G75*
G02*
X151305000Y-147860001I0J249999D01*
G01*
X151305000Y-147234999D01*
G75*
G02*
X151554999Y-146985000I249999J0D01*
G01*
X152805001Y-146985000D01*
G75*
G02*
X153055000Y-147234999I0J-249999D01*
G01*
X153055000Y-147860001D01*
G75*
G02*
X152805001Y-148110000I-249999J0D01*
G01*
G37*
%TD*%
%TO.C,R26*%
G36*
G01*
X133099999Y-147000000D02*
X134350001Y-147000000D01*
G75*
G02*
X134600000Y-147249999I0J-249999D01*
G01*
X134600000Y-147875001D01*
G75*
G02*
X134350001Y-148125000I-249999J0D01*
G01*
X133099999Y-148125000D01*
G75*
G02*
X132850000Y-147875001I0J249999D01*
G01*
X132850000Y-147249999D01*
G75*
G02*
X133099999Y-147000000I249999J0D01*
G01*
G37*
G36*
G01*
X133099999Y-149925000D02*
X134350001Y-149925000D01*
G75*
G02*
X134600000Y-150174999I0J-249999D01*
G01*
X134600000Y-150800001D01*
G75*
G02*
X134350001Y-151050000I-249999J0D01*
G01*
X133099999Y-151050000D01*
G75*
G02*
X132850000Y-150800001I0J249999D01*
G01*
X132850000Y-150174999D01*
G75*
G02*
X133099999Y-149925000I249999J0D01*
G01*
G37*
%TD*%
%TO.C,R27*%
G36*
G01*
X64134999Y-147000000D02*
X65385001Y-147000000D01*
G75*
G02*
X65635000Y-147249999I0J-249999D01*
G01*
X65635000Y-147875001D01*
G75*
G02*
X65385001Y-148125000I-249999J0D01*
G01*
X64134999Y-148125000D01*
G75*
G02*
X63885000Y-147875001I0J249999D01*
G01*
X63885000Y-147249999D01*
G75*
G02*
X64134999Y-147000000I249999J0D01*
G01*
G37*
G36*
G01*
X64134999Y-149925000D02*
X65385001Y-149925000D01*
G75*
G02*
X65635000Y-150174999I0J-249999D01*
G01*
X65635000Y-150800001D01*
G75*
G02*
X65385001Y-151050000I-249999J0D01*
G01*
X64134999Y-151050000D01*
G75*
G02*
X63885000Y-150800001I0J249999D01*
G01*
X63885000Y-150174999D01*
G75*
G02*
X64134999Y-149925000I249999J0D01*
G01*
G37*
%TD*%
%TO.C,R28*%
G36*
G01*
X98774999Y-147000000D02*
X100025001Y-147000000D01*
G75*
G02*
X100275000Y-147249999I0J-249999D01*
G01*
X100275000Y-147875001D01*
G75*
G02*
X100025001Y-148125000I-249999J0D01*
G01*
X98774999Y-148125000D01*
G75*
G02*
X98525000Y-147875001I0J249999D01*
G01*
X98525000Y-147249999D01*
G75*
G02*
X98774999Y-147000000I249999J0D01*
G01*
G37*
G36*
G01*
X98774999Y-149925000D02*
X100025001Y-149925000D01*
G75*
G02*
X100275000Y-150174999I0J-249999D01*
G01*
X100275000Y-150800001D01*
G75*
G02*
X100025001Y-151050000I-249999J0D01*
G01*
X98774999Y-151050000D01*
G75*
G02*
X98525000Y-150800001I0J249999D01*
G01*
X98525000Y-150174999D01*
G75*
G02*
X98774999Y-149925000I249999J0D01*
G01*
G37*
%TD*%
%TO.C,R29*%
G36*
G01*
X167844999Y-149950000D02*
X169095001Y-149950000D01*
G75*
G02*
X169345000Y-150199999I0J-249999D01*
G01*
X169345000Y-150825001D01*
G75*
G02*
X169095001Y-151075000I-249999J0D01*
G01*
X167844999Y-151075000D01*
G75*
G02*
X167595000Y-150825001I0J249999D01*
G01*
X167595000Y-150199999D01*
G75*
G02*
X167844999Y-149950000I249999J0D01*
G01*
G37*
G36*
G01*
X167844999Y-147025000D02*
X169095001Y-147025000D01*
G75*
G02*
X169345000Y-147274999I0J-249999D01*
G01*
X169345000Y-147900001D01*
G75*
G02*
X169095001Y-148150000I-249999J0D01*
G01*
X167844999Y-148150000D01*
G75*
G02*
X167595000Y-147900001I0J249999D01*
G01*
X167595000Y-147274999D01*
G75*
G02*
X167844999Y-147025000I249999J0D01*
G01*
G37*
%TD*%
%TO.C,R30*%
G36*
G01*
X24375001Y-167125685D02*
X23124999Y-167125685D01*
G75*
G02*
X22875000Y-166875686I0J249999D01*
G01*
X22875000Y-166250684D01*
G75*
G02*
X23124999Y-166000685I249999J0D01*
G01*
X24375001Y-166000685D01*
G75*
G02*
X24625000Y-166250684I0J-249999D01*
G01*
X24625000Y-166875686D01*
G75*
G02*
X24375001Y-167125685I-249999J0D01*
G01*
G37*
G36*
G01*
X24375001Y-170050685D02*
X23124999Y-170050685D01*
G75*
G02*
X22875000Y-169800686I0J249999D01*
G01*
X22875000Y-169175684D01*
G75*
G02*
X23124999Y-168925685I249999J0D01*
G01*
X24375001Y-168925685D01*
G75*
G02*
X24625000Y-169175684I0J-249999D01*
G01*
X24625000Y-169800686D01*
G75*
G02*
X24375001Y-170050685I-249999J0D01*
G01*
G37*
%TD*%
M02*
